ISO-10303-21;
HEADER;
/* Generated by software containing ST-Developer
 * from STEP Tools, Inc. (www.steptools.com) 
 */
/* OPTION: using custom renumber hook */

FILE_DESCRIPTION(
/* description */ ('STEP AP242 Edition 2',
'CAx-IF Rec.Pracs.---Representation and Presentation of Product Manufa
cturing Information (PMI)---4.0---2014-10-13',
'CAx-IF Rec.Pracs.---3D Tessellated Geometry---0.4---2014-09-14','2;1',
'CAx-IF Rec.Pracs.---User Defined Attributes---1.5---2016-08-15'),
/* implementation_level */ '2;1');

FILE_NAME(
/* name */ '69975bf2907276e4cc809900',
/* time_stamp */ '2026-02-19T18:52:35Z',
/* author */ (''),
/* organization */ (''),
/* preprocessor_version */ 'ST-DEVELOPER v20',
/* originating_system */ 'ONSHAPE BY PTC INC, 1.210',
/* authorisation */ '  ');

FILE_SCHEMA (('AP242_MANAGED_MODEL_BASED_3D_ENGINEERING_MIM_LF { 1 0 10303 442 3 1 4 }'));
ENDSEC;

DATA;
#10=SHAPE_REPRESENTATION_RELATIONSHIP('','',#411,#11);
#11=ADVANCED_BREP_SHAPE_REPRESENTATION('',(#409),#693);
#12=CONICAL_SURFACE('',#428,0.0186,0.785398163397448);
#13=CONICAL_SURFACE('',#432,0.0186,0.785398163397448);
#14=CONICAL_SURFACE('',#438,0.0186,0.785398163397449);
#15=CONICAL_SURFACE('',#439,0.0186,0.785398163397448);
#16=CONICAL_SURFACE('',#442,0.0186,0.785398163397448);
#17=CONICAL_SURFACE('',#446,0.0186,0.785398163397448);
#18=CONICAL_SURFACE('',#452,0.0186,0.785398163397448);
#19=CONICAL_SURFACE('',#453,0.0186,0.785398163397448);
#20=CONICAL_SURFACE('',#456,0.02,0.785398163397449);
#21=PLANE('',#427);
#22=PLANE('',#433);
#23=PLANE('',#434);
#24=PLANE('',#440);
#25=PLANE('',#441);
#26=PLANE('',#447);
#27=PLANE('',#448);
#28=PLANE('',#454);
#29=PLANE('',#455);
#30=LINE('',#583,#62);
#31=LINE('',#588,#63);
#32=LINE('',#591,#64);
#33=LINE('',#596,#65);
#34=LINE('',#604,#66);
#35=LINE('',#608,#67);
#36=LINE('',#612,#68);
#37=LINE('',#616,#69);
#38=LINE('',#627,#70);
#39=LINE('',#628,#71);
#40=LINE('',#633,#72);
#41=LINE('',#634,#73);
#42=LINE('',#636,#74);
#43=LINE('',#637,#75);
#44=LINE('',#644,#76);
#45=LINE('',#648,#77);
#46=LINE('',#650,#78);
#47=LINE('',#651,#79);
#48=LINE('',#653,#80);
#49=LINE('',#654,#81);
#50=LINE('',#661,#82);
#51=LINE('',#662,#83);
#52=LINE('',#667,#84);
#53=LINE('',#668,#85);
#54=LINE('',#670,#86);
#55=LINE('',#671,#87);
#56=LINE('',#678,#88);
#57=LINE('',#682,#89);
#58=LINE('',#684,#90);
#59=LINE('',#685,#91);
#60=LINE('',#687,#92);
#61=LINE('',#688,#93);
#62=VECTOR('',#463,1.);
#63=VECTOR('',#466,1.);
#64=VECTOR('',#469,1.);
#65=VECTOR('',#472,1.);
#66=VECTOR('',#479,1.);
#67=VECTOR('',#482,1.);
#68=VECTOR('',#485,1.);
#69=VECTOR('',#488,1.);
#70=VECTOR('',#501,1.);
#71=VECTOR('',#502,1.);
#72=VECTOR('',#507,1.);
#73=VECTOR('',#508,1.);
#74=VECTOR('',#511,1.);
#75=VECTOR('',#512,1.);
#76=VECTOR('',#521,1.);
#77=VECTOR('',#524,1.);
#78=VECTOR('',#527,1.);
#79=VECTOR('',#528,1.);
#80=VECTOR('',#531,1.);
#81=VECTOR('',#532,1.);
#82=VECTOR('',#541,1.);
#83=VECTOR('',#542,1.);
#84=VECTOR('',#547,1.);
#85=VECTOR('',#548,1.);
#86=VECTOR('',#551,1.);
#87=VECTOR('',#552,1.);
#88=VECTOR('',#561,1.);
#89=VECTOR('',#564,1.);
#90=VECTOR('',#567,1.);
#91=VECTOR('',#568,1.);
#92=VECTOR('',#571,1.);
#93=VECTOR('',#572,1.);
#94=ORIENTED_EDGE('',*,*,#198,.T.);
#95=ORIENTED_EDGE('',*,*,#199,.F.);
#96=ORIENTED_EDGE('',*,*,#200,.T.);
#97=ORIENTED_EDGE('',*,*,#201,.T.);
#98=ORIENTED_EDGE('',*,*,#202,.F.);
#99=ORIENTED_EDGE('',*,*,#203,.F.);
#100=ORIENTED_EDGE('',*,*,#204,.T.);
#101=ORIENTED_EDGE('',*,*,#205,.T.);
#102=ORIENTED_EDGE('',*,*,#206,.F.);
#103=ORIENTED_EDGE('',*,*,#207,.F.);
#104=ORIENTED_EDGE('',*,*,#208,.F.);
#105=ORIENTED_EDGE('',*,*,#209,.T.);
#106=ORIENTED_EDGE('',*,*,#210,.T.);
#107=ORIENTED_EDGE('',*,*,#211,.F.);
#108=ORIENTED_EDGE('',*,*,#212,.F.);
#109=ORIENTED_EDGE('',*,*,#213,.T.);
#110=ORIENTED_EDGE('',*,*,#214,.T.);
#111=ORIENTED_EDGE('',*,*,#215,.F.);
#112=ORIENTED_EDGE('',*,*,#216,.T.);
#113=ORIENTED_EDGE('',*,*,#217,.T.);
#114=ORIENTED_EDGE('',*,*,#207,.T.);
#115=ORIENTED_EDGE('',*,*,#217,.F.);
#116=ORIENTED_EDGE('',*,*,#218,.F.);
#117=ORIENTED_EDGE('',*,*,#219,.T.);
#118=ORIENTED_EDGE('',*,*,#206,.T.);
#119=ORIENTED_EDGE('',*,*,#220,.F.);
#120=ORIENTED_EDGE('',*,*,#221,.F.);
#121=ORIENTED_EDGE('',*,*,#222,.F.);
#122=ORIENTED_EDGE('',*,*,#218,.T.);
#123=ORIENTED_EDGE('',*,*,#223,.T.);
#124=ORIENTED_EDGE('',*,*,#224,.F.);
#125=ORIENTED_EDGE('',*,*,#221,.T.);
#126=ORIENTED_EDGE('',*,*,#225,.T.);
#127=ORIENTED_EDGE('',*,*,#204,.F.);
#128=ORIENTED_EDGE('',*,*,#203,.T.);
#129=ORIENTED_EDGE('',*,*,#219,.F.);
#130=ORIENTED_EDGE('',*,*,#222,.T.);
#131=ORIENTED_EDGE('',*,*,#224,.T.);
#132=ORIENTED_EDGE('',*,*,#205,.F.);
#133=ORIENTED_EDGE('',*,*,#225,.F.);
#134=ORIENTED_EDGE('',*,*,#223,.F.);
#135=ORIENTED_EDGE('',*,*,#220,.T.);
#136=ORIENTED_EDGE('',*,*,#226,.T.);
#137=ORIENTED_EDGE('',*,*,#227,.T.);
#138=ORIENTED_EDGE('',*,*,#228,.F.);
#139=ORIENTED_EDGE('',*,*,#229,.F.);
#140=ORIENTED_EDGE('',*,*,#202,.T.);
#141=ORIENTED_EDGE('',*,*,#230,.F.);
#142=ORIENTED_EDGE('',*,*,#226,.F.);
#143=ORIENTED_EDGE('',*,*,#231,.T.);
#144=ORIENTED_EDGE('',*,*,#232,.F.);
#145=ORIENTED_EDGE('',*,*,#228,.T.);
#146=ORIENTED_EDGE('',*,*,#233,.T.);
#147=ORIENTED_EDGE('',*,*,#200,.F.);
#148=ORIENTED_EDGE('',*,*,#229,.T.);
#149=ORIENTED_EDGE('',*,*,#232,.T.);
#150=ORIENTED_EDGE('',*,*,#199,.T.);
#151=ORIENTED_EDGE('',*,*,#231,.F.);
#152=ORIENTED_EDGE('',*,*,#227,.F.);
#153=ORIENTED_EDGE('',*,*,#230,.T.);
#154=ORIENTED_EDGE('',*,*,#201,.F.);
#155=ORIENTED_EDGE('',*,*,#233,.F.);
#156=ORIENTED_EDGE('',*,*,#234,.T.);
#157=ORIENTED_EDGE('',*,*,#235,.T.);
#158=ORIENTED_EDGE('',*,*,#210,.F.);
#159=ORIENTED_EDGE('',*,*,#236,.F.);
#160=ORIENTED_EDGE('',*,*,#237,.T.);
#161=ORIENTED_EDGE('',*,*,#238,.F.);
#162=ORIENTED_EDGE('',*,*,#234,.F.);
#163=ORIENTED_EDGE('',*,*,#239,.T.);
#164=ORIENTED_EDGE('',*,*,#240,.T.);
#165=ORIENTED_EDGE('',*,*,#208,.T.);
#166=ORIENTED_EDGE('',*,*,#241,.F.);
#167=ORIENTED_EDGE('',*,*,#237,.F.);
#168=ORIENTED_EDGE('',*,*,#209,.F.);
#169=ORIENTED_EDGE('',*,*,#240,.F.);
#170=ORIENTED_EDGE('',*,*,#239,.F.);
#171=ORIENTED_EDGE('',*,*,#236,.T.);
#172=ORIENTED_EDGE('',*,*,#211,.T.);
#173=ORIENTED_EDGE('',*,*,#235,.F.);
#174=ORIENTED_EDGE('',*,*,#238,.T.);
#175=ORIENTED_EDGE('',*,*,#241,.T.);
#176=ORIENTED_EDGE('',*,*,#242,.F.);
#177=ORIENTED_EDGE('',*,*,#243,.T.);
#178=ORIENTED_EDGE('',*,*,#244,.T.);
#179=ORIENTED_EDGE('',*,*,#245,.F.);
#180=ORIENTED_EDGE('',*,*,#214,.F.);
#181=ORIENTED_EDGE('',*,*,#246,.F.);
#182=ORIENTED_EDGE('',*,*,#242,.T.);
#183=ORIENTED_EDGE('',*,*,#247,.T.);
#184=ORIENTED_EDGE('',*,*,#248,.T.);
#185=ORIENTED_EDGE('',*,*,#212,.T.);
#186=ORIENTED_EDGE('',*,*,#249,.F.);
#187=ORIENTED_EDGE('',*,*,#244,.F.);
#188=ORIENTED_EDGE('',*,*,#243,.F.);
#189=ORIENTED_EDGE('',*,*,#246,.T.);
#190=ORIENTED_EDGE('',*,*,#213,.F.);
#191=ORIENTED_EDGE('',*,*,#248,.F.);
#192=ORIENTED_EDGE('',*,*,#245,.T.);
#193=ORIENTED_EDGE('',*,*,#249,.T.);
#194=ORIENTED_EDGE('',*,*,#215,.T.);
#195=ORIENTED_EDGE('',*,*,#247,.F.);
#196=ORIENTED_EDGE('',*,*,#216,.F.);
#197=ORIENTED_EDGE('',*,*,#198,.F.);
#198=EDGE_CURVE('',#250,#250,#286,.F.);
#199=EDGE_CURVE('',#251,#252,#30,.T.);
#200=EDGE_CURVE('',#251,#253,#287,.T.);
#201=EDGE_CURVE('',#253,#254,#31,.T.);
#202=EDGE_CURVE('',#252,#254,#288,.T.);
#203=EDGE_CURVE('',#255,#256,#32,.T.);
#204=EDGE_CURVE('',#255,#257,#289,.T.);
#205=EDGE_CURVE('',#257,#258,#33,.T.);
#206=EDGE_CURVE('',#256,#258,#290,.T.);
#207=EDGE_CURVE('',#259,#259,#291,.T.);
#208=EDGE_CURVE('',#260,#261,#292,.T.);
#209=EDGE_CURVE('',#260,#262,#34,.T.);
#210=EDGE_CURVE('',#262,#263,#293,.T.);
#211=EDGE_CURVE('',#261,#263,#35,.T.);
#212=EDGE_CURVE('',#264,#265,#294,.T.);
#213=EDGE_CURVE('',#264,#266,#36,.T.);
#214=EDGE_CURVE('',#266,#267,#295,.T.);
#215=EDGE_CURVE('',#265,#267,#37,.T.);
#216=EDGE_CURVE('',#268,#268,#296,.F.);
#217=EDGE_CURVE('',#269,#269,#297,.T.);
#218=EDGE_CURVE('',#270,#271,#298,.T.);
#219=EDGE_CURVE('',#270,#256,#38,.T.);
#220=EDGE_CURVE('',#271,#258,#39,.T.);
#221=EDGE_CURVE('',#272,#273,#299,.T.);
#222=EDGE_CURVE('',#270,#272,#40,.T.);
#223=EDGE_CURVE('',#271,#273,#41,.T.);
#224=EDGE_CURVE('',#272,#255,#42,.T.);
#225=EDGE_CURVE('',#273,#257,#43,.T.);
#226=EDGE_CURVE('',#274,#275,#300,.T.);
#227=EDGE_CURVE('',#275,#276,#44,.T.);
#228=EDGE_CURVE('',#277,#276,#301,.T.);
#229=EDGE_CURVE('',#274,#277,#45,.T.);
#230=EDGE_CURVE('',#275,#254,#46,.T.);
#231=EDGE_CURVE('',#274,#252,#47,.T.);
#232=EDGE_CURVE('',#277,#251,#48,.T.);
#233=EDGE_CURVE('',#276,#253,#49,.T.);
#234=EDGE_CURVE('',#278,#279,#302,.T.);
#235=EDGE_CURVE('',#279,#263,#50,.T.);
#236=EDGE_CURVE('',#278,#262,#51,.T.);
#237=EDGE_CURVE('',#280,#281,#303,.T.);
#238=EDGE_CURVE('',#279,#281,#52,.T.);
#239=EDGE_CURVE('',#278,#280,#53,.T.);
#240=EDGE_CURVE('',#280,#260,#54,.T.);
#241=EDGE_CURVE('',#281,#261,#55,.T.);
#242=EDGE_CURVE('',#282,#283,#304,.T.);
#243=EDGE_CURVE('',#282,#284,#56,.T.);
#244=EDGE_CURVE('',#284,#285,#305,.T.);
#245=EDGE_CURVE('',#283,#285,#57,.T.);
#246=EDGE_CURVE('',#282,#266,#58,.T.);
#247=EDGE_CURVE('',#283,#267,#59,.T.);
#248=EDGE_CURVE('',#284,#264,#60,.T.);
#249=EDGE_CURVE('',#285,#265,#61,.T.);
#250=VERTEX_POINT('',#582);
#251=VERTEX_POINT('',#584);
#252=VERTEX_POINT('',#585);
#253=VERTEX_POINT('',#587);
#254=VERTEX_POINT('',#589);
#255=VERTEX_POINT('',#592);
#256=VERTEX_POINT('',#593);
#257=VERTEX_POINT('',#595);
#258=VERTEX_POINT('',#597);
#259=VERTEX_POINT('',#600);
#260=VERTEX_POINT('',#602);
#261=VERTEX_POINT('',#603);
#262=VERTEX_POINT('',#605);
#263=VERTEX_POINT('',#607);
#264=VERTEX_POINT('',#610);
#265=VERTEX_POINT('',#611);
#266=VERTEX_POINT('',#613);
#267=VERTEX_POINT('',#615);
#268=VERTEX_POINT('',#619);
#269=VERTEX_POINT('',#621);
#270=VERTEX_POINT('',#625);
#271=VERTEX_POINT('',#626);
#272=VERTEX_POINT('',#631);
#273=VERTEX_POINT('',#632);
#274=VERTEX_POINT('',#642);
#275=VERTEX_POINT('',#643);
#276=VERTEX_POINT('',#645);
#277=VERTEX_POINT('',#647);
#278=VERTEX_POINT('',#659);
#279=VERTEX_POINT('',#660);
#280=VERTEX_POINT('',#665);
#281=VERTEX_POINT('',#666);
#282=VERTEX_POINT('',#676);
#283=VERTEX_POINT('',#677);
#284=VERTEX_POINT('',#679);
#285=VERTEX_POINT('',#681);
#286=CIRCLE('',#414,0.0201);
#287=CIRCLE('',#415,0.0201);
#288=CIRCLE('',#416,0.0201);
#289=CIRCLE('',#417,0.0201);
#290=CIRCLE('',#418,0.0201);
#291=CIRCLE('',#419,0.0201);
#292=CIRCLE('',#420,0.0201);
#293=CIRCLE('',#421,0.0201);
#294=CIRCLE('',#422,0.0201);
#295=CIRCLE('',#423,0.0201);
#296=CIRCLE('',#425,0.022);
#297=CIRCLE('',#426,0.022);
#298=CIRCLE('',#429,0.0186);
#299=CIRCLE('',#431,0.0186);
#300=CIRCLE('',#436,0.0186);
#301=CIRCLE('',#437,0.0186);
#302=CIRCLE('',#443,0.0186);
#303=CIRCLE('',#445,0.0186);
#304=CIRCLE('',#450,0.0186);
#305=CIRCLE('',#451,0.0186);
#306=EDGE_LOOP('',(#94));
#307=EDGE_LOOP('',(#95,#96,#97,#98));
#308=EDGE_LOOP('',(#99,#100,#101,#102));
#309=EDGE_LOOP('',(#103));
#310=EDGE_LOOP('',(#104,#105,#106,#107));
#311=EDGE_LOOP('',(#108,#109,#110,#111));
#312=EDGE_LOOP('',(#112));
#313=EDGE_LOOP('',(#113));
#314=EDGE_LOOP('',(#114));
#315=EDGE_LOOP('',(#115));
#316=EDGE_LOOP('',(#116,#117,#118,#119));
#317=EDGE_LOOP('',(#120,#121,#122,#123));
#318=EDGE_LOOP('',(#124,#125,#126,#127));
#319=EDGE_LOOP('',(#128,#129,#130,#131));
#320=EDGE_LOOP('',(#132,#133,#134,#135));
#321=EDGE_LOOP('',(#136,#137,#138,#139));
#322=EDGE_LOOP('',(#140,#141,#142,#143));
#323=EDGE_LOOP('',(#144,#145,#146,#147));
#324=EDGE_LOOP('',(#148,#149,#150,#151));
#325=EDGE_LOOP('',(#152,#153,#154,#155));
#326=EDGE_LOOP('',(#156,#157,#158,#159));
#327=EDGE_LOOP('',(#160,#161,#162,#163));
#328=EDGE_LOOP('',(#164,#165,#166,#167));
#329=EDGE_LOOP('',(#168,#169,#170,#171));
#330=EDGE_LOOP('',(#172,#173,#174,#175));
#331=EDGE_LOOP('',(#176,#177,#178,#179));
#332=EDGE_LOOP('',(#180,#181,#182,#183));
#333=EDGE_LOOP('',(#184,#185,#186,#187));
#334=EDGE_LOOP('',(#188,#189,#190,#191));
#335=EDGE_LOOP('',(#192,#193,#194,#195));
#336=EDGE_LOOP('',(#196));
#337=EDGE_LOOP('',(#197));
#338=FACE_BOUND('',#306,.T.);
#339=FACE_BOUND('',#307,.T.);
#340=FACE_BOUND('',#308,.T.);
#341=FACE_BOUND('',#309,.T.);
#342=FACE_BOUND('',#310,.T.);
#343=FACE_BOUND('',#311,.T.);
#344=FACE_BOUND('',#312,.T.);
#345=FACE_BOUND('',#313,.T.);
#346=FACE_BOUND('',#314,.T.);
#347=FACE_BOUND('',#315,.T.);
#348=FACE_BOUND('',#316,.T.);
#349=FACE_BOUND('',#317,.T.);
#350=FACE_BOUND('',#318,.T.);
#351=FACE_BOUND('',#319,.T.);
#352=FACE_BOUND('',#320,.T.);
#353=FACE_BOUND('',#321,.T.);
#354=FACE_BOUND('',#322,.T.);
#355=FACE_BOUND('',#323,.T.);
#356=FACE_BOUND('',#324,.T.);
#357=FACE_BOUND('',#325,.T.);
#358=FACE_BOUND('',#326,.T.);
#359=FACE_BOUND('',#327,.T.);
#360=FACE_BOUND('',#328,.T.);
#361=FACE_BOUND('',#329,.T.);
#362=FACE_BOUND('',#330,.T.);
#363=FACE_BOUND('',#331,.T.);
#364=FACE_BOUND('',#332,.T.);
#365=FACE_BOUND('',#333,.T.);
#366=FACE_BOUND('',#334,.T.);
#367=FACE_BOUND('',#335,.T.);
#368=FACE_BOUND('',#336,.T.);
#369=FACE_BOUND('',#337,.T.);
#370=CYLINDRICAL_SURFACE('',#413,0.0201);
#371=CYLINDRICAL_SURFACE('',#424,0.022);
#372=CYLINDRICAL_SURFACE('',#430,0.0186);
#373=CYLINDRICAL_SURFACE('',#435,0.0186);
#374=CYLINDRICAL_SURFACE('',#444,0.0186);
#375=CYLINDRICAL_SURFACE('',#449,0.0186);
#376=ADVANCED_FACE('',(#338,#339,#340,#341,#342,#343),#370,.F.);
#377=ADVANCED_FACE('',(#344,#345),#371,.T.);
#378=ADVANCED_FACE('',(#346,#347),#21,.F.);
#379=ADVANCED_FACE('',(#348),#12,.F.);
#380=ADVANCED_FACE('',(#349),#372,.F.);
#381=ADVANCED_FACE('',(#350),#13,.F.);
#382=ADVANCED_FACE('',(#351),#22,.T.);
#383=ADVANCED_FACE('',(#352),#23,.F.);
#384=ADVANCED_FACE('',(#353),#373,.F.);
#385=ADVANCED_FACE('',(#354),#14,.F.);
#386=ADVANCED_FACE('',(#355),#15,.F.);
#387=ADVANCED_FACE('',(#356),#24,.F.);
#388=ADVANCED_FACE('',(#357),#25,.T.);
#389=ADVANCED_FACE('',(#358),#16,.F.);
#390=ADVANCED_FACE('',(#359),#374,.F.);
#391=ADVANCED_FACE('',(#360),#17,.F.);
#392=ADVANCED_FACE('',(#361),#26,.F.);
#393=ADVANCED_FACE('',(#362),#27,.T.);
#394=ADVANCED_FACE('',(#363),#375,.F.);
#395=ADVANCED_FACE('',(#364),#18,.F.);
#396=ADVANCED_FACE('',(#365),#19,.F.);
#397=ADVANCED_FACE('',(#366),#28,.T.);
#398=ADVANCED_FACE('',(#367),#29,.F.);
#399=ADVANCED_FACE('',(#368,#369),#20,.T.);
#400=CLOSED_SHELL('',(#376,#377,#378,#379,#380,#381,#382,#383,#384,#385,
#386,#387,#388,#389,#390,#391,#392,#393,#394,#395,#396,#397,#398,#399));
#401=STYLED_ITEM('',(#402),#409);
#402=PRESENTATION_STYLE_ASSIGNMENT((#403));
#403=SURFACE_STYLE_USAGE(.BOTH.,#404);
#404=SURFACE_SIDE_STYLE('',(#405));
#405=SURFACE_STYLE_FILL_AREA(#406);
#406=FILL_AREA_STYLE('',(#407));
#407=FILL_AREA_STYLE_COLOUR('',#408);
#408=COLOUR_RGB('',1.,0.756862745098039,0.0549019607843137);
#409=MANIFOLD_SOLID_BREP('Base Ring',#400);
#410=SHAPE_DEFINITION_REPRESENTATION(#698,#411);
#411=SHAPE_REPRESENTATION('Base Ring',(#412),#693);
#412=AXIS2_PLACEMENT_3D('',#579,#457,#458);
#413=AXIS2_PLACEMENT_3D('',#580,#459,#460);
#414=AXIS2_PLACEMENT_3D('',#581,#461,#462);
#415=AXIS2_PLACEMENT_3D('',#586,#464,#465);
#416=AXIS2_PLACEMENT_3D('',#590,#467,#468);
#417=AXIS2_PLACEMENT_3D('',#594,#470,#471);
#418=AXIS2_PLACEMENT_3D('',#598,#473,#474);
#419=AXIS2_PLACEMENT_3D('',#599,#475,#476);
#420=AXIS2_PLACEMENT_3D('',#601,#477,#478);
#421=AXIS2_PLACEMENT_3D('',#606,#480,#481);
#422=AXIS2_PLACEMENT_3D('',#609,#483,#484);
#423=AXIS2_PLACEMENT_3D('',#614,#486,#487);
#424=AXIS2_PLACEMENT_3D('',#617,#489,#490);
#425=AXIS2_PLACEMENT_3D('',#618,#491,#492);
#426=AXIS2_PLACEMENT_3D('',#620,#493,#494);
#427=AXIS2_PLACEMENT_3D('',#622,#495,#496);
#428=AXIS2_PLACEMENT_3D('',#623,#497,#498);
#429=AXIS2_PLACEMENT_3D('',#624,#499,#500);
#430=AXIS2_PLACEMENT_3D('',#629,#503,#504);
#431=AXIS2_PLACEMENT_3D('',#630,#505,#506);
#432=AXIS2_PLACEMENT_3D('',#635,#509,#510);
#433=AXIS2_PLACEMENT_3D('',#638,#513,#514);
#434=AXIS2_PLACEMENT_3D('',#639,#515,#516);
#435=AXIS2_PLACEMENT_3D('',#640,#517,#518);
#436=AXIS2_PLACEMENT_3D('',#641,#519,#520);
#437=AXIS2_PLACEMENT_3D('',#646,#522,#523);
#438=AXIS2_PLACEMENT_3D('',#649,#525,#526);
#439=AXIS2_PLACEMENT_3D('',#652,#529,#530);
#440=AXIS2_PLACEMENT_3D('',#655,#533,#534);
#441=AXIS2_PLACEMENT_3D('',#656,#535,#536);
#442=AXIS2_PLACEMENT_3D('',#657,#537,#538);
#443=AXIS2_PLACEMENT_3D('',#658,#539,#540);
#444=AXIS2_PLACEMENT_3D('',#663,#543,#544);
#445=AXIS2_PLACEMENT_3D('',#664,#545,#546);
#446=AXIS2_PLACEMENT_3D('',#669,#549,#550);
#447=AXIS2_PLACEMENT_3D('',#672,#553,#554);
#448=AXIS2_PLACEMENT_3D('',#673,#555,#556);
#449=AXIS2_PLACEMENT_3D('',#674,#557,#558);
#450=AXIS2_PLACEMENT_3D('',#675,#559,#560);
#451=AXIS2_PLACEMENT_3D('',#680,#562,#563);
#452=AXIS2_PLACEMENT_3D('',#683,#565,#566);
#453=AXIS2_PLACEMENT_3D('',#686,#569,#570);
#454=AXIS2_PLACEMENT_3D('',#689,#573,#574);
#455=AXIS2_PLACEMENT_3D('',#690,#575,#576);
#456=AXIS2_PLACEMENT_3D('',#691,#577,#578);
#457=DIRECTION('',(0.,0.,1.));
#458=DIRECTION('',(1.,0.,0.));
#459=DIRECTION('',(0.,0.,-1.));
#460=DIRECTION('',(-1.,0.,0.));
#461=DIRECTION('',(0.,0.,-1.));
#462=DIRECTION('',(-1.,0.,0.));
#463=DIRECTION('',(0.,0.,1.));
#464=DIRECTION('',(0.,0.,1.));
#465=DIRECTION('',(1.,0.,0.));
#466=DIRECTION('',(0.,0.,1.));
#467=DIRECTION('',(0.,0.,1.));
#468=DIRECTION('',(1.,0.,0.));
#469=DIRECTION('',(0.,0.,1.));
#470=DIRECTION('',(0.,0.,1.));
#471=DIRECTION('',(1.,0.,0.));
#472=DIRECTION('',(0.,0.,1.));
#473=DIRECTION('',(0.,0.,1.));
#474=DIRECTION('',(1.,0.,0.));
#475=DIRECTION('',(0.,0.,1.));
#476=DIRECTION('',(1.,0.,0.));
#477=DIRECTION('',(0.,0.,-1.));
#478=DIRECTION('',(-1.,0.,0.));
#479=DIRECTION('',(0.,0.,1.));
#480=DIRECTION('',(0.,0.,-1.));
#481=DIRECTION('',(-1.,0.,0.));
#482=DIRECTION('',(0.,0.,1.));
#483=DIRECTION('',(0.,0.,-1.));
#484=DIRECTION('',(-1.,0.,0.));
#485=DIRECTION('',(0.,0.,1.));
#486=DIRECTION('',(0.,0.,-1.));
#487=DIRECTION('',(-1.,0.,0.));
#488=DIRECTION('',(0.,0.,1.));
#489=DIRECTION('',(0.,0.,-1.));
#490=DIRECTION('',(-1.,0.,0.));
#491=DIRECTION('',(0.,0.,1.));
#492=DIRECTION('',(1.,0.,0.));
#493=DIRECTION('',(0.,0.,1.));
#494=DIRECTION('',(1.,0.,0.));
#495=DIRECTION('',(0.,0.,1.));
#496=DIRECTION('',(1.,0.,0.));
#497=DIRECTION('',(0.,0.,1.));
#498=DIRECTION('',(1.,0.,0.));
#499=DIRECTION('',(0.,0.,1.));
#500=DIRECTION('',(1.,0.,0.));
#501=DIRECTION('',(-0.593029645775783,-0.385117954958023,0.707106781186548));
#502=DIRECTION('',(-0.5,-0.5,0.707106781186548));
#503=DIRECTION('',(0.,0.,1.));
#504=DIRECTION('',(1.,0.,0.));
#505=DIRECTION('',(0.,0.,1.));
#506=DIRECTION('',(1.,0.,0.));
#507=DIRECTION('',(0.,0.,-1.));
#508=DIRECTION('',(0.,0.,-1.));
#509=DIRECTION('',(0.,0.,-1.));
#510=DIRECTION('',(-1.,0.,0.));
#511=DIRECTION('',(-0.593029645775783,-0.385117954958023,-0.707106781186548));
#512=DIRECTION('',(-0.5,-0.5,-0.707106781186548));
#513=DIRECTION('',(-0.544639035015027,0.838670567945424,0.));
#514=DIRECTION('',(-0.838670567945424,-0.544639035015027,0.));
#515=DIRECTION('',(-0.707106781186547,0.707106781186548,0.));
#516=DIRECTION('',(-0.707106781186548,-0.707106781186547,0.));
#517=DIRECTION('',(0.,0.,1.));
#518=DIRECTION('',(1.,0.,0.));
#519=DIRECTION('',(0.,0.,1.));
#520=DIRECTION('',(1.,0.,0.));
#521=DIRECTION('',(0.,0.,-1.));
#522=DIRECTION('',(0.,0.,1.));
#523=DIRECTION('',(1.,0.,0.));
#524=DIRECTION('',(0.,0.,-1.));
#525=DIRECTION('',(0.,0.,1.));
#526=DIRECTION('',(1.,0.,0.));
#527=DIRECTION('',(0.5,0.5,0.707106781186548));
#528=DIRECTION('',(0.593029645775782,0.385117954958023,0.707106781186548));
#529=DIRECTION('',(0.,0.,-1.));
#530=DIRECTION('',(-1.,0.,0.));
#531=DIRECTION('',(0.593029645775783,0.385117954958023,-0.707106781186548));
#532=DIRECTION('',(0.5,0.5,-0.707106781186548));
#533=DIRECTION('',(-0.544639035015027,0.838670567945424,0.));
#534=DIRECTION('',(-0.838670567945424,-0.544639035015027,0.));
#535=DIRECTION('',(-0.707106781186547,0.707106781186548,0.));
#536=DIRECTION('',(-0.707106781186548,-0.707106781186547,0.));
#537=DIRECTION('',(0.,0.,1.));
#538=DIRECTION('',(1.,0.,0.));
#539=DIRECTION('',(0.,0.,-1.));
#540=DIRECTION('',(-1.,0.,0.));
#541=DIRECTION('',(0.385117954958023,-0.593029645775783,0.707106781186548));
#542=DIRECTION('',(0.5,-0.5,0.707106781186548));
#543=DIRECTION('',(0.,0.,-1.));
#544=DIRECTION('',(-1.,0.,0.));
#545=DIRECTION('',(0.,0.,-1.));
#546=DIRECTION('',(-1.,0.,0.));
#547=DIRECTION('',(0.,0.,-1.));
#548=DIRECTION('',(0.,0.,-1.));
#549=DIRECTION('',(0.,0.,-1.));
#550=DIRECTION('',(-1.,0.,0.));
#551=DIRECTION('',(0.5,-0.5,-0.707106781186548));
#552=DIRECTION('',(0.385117954958023,-0.593029645775783,-0.707106781186548));
#553=DIRECTION('',(-0.707106781186548,-0.707106781186547,0.));
#554=DIRECTION('',(0.707106781186547,-0.707106781186548,0.));
#555=DIRECTION('',(-0.838670567945424,-0.544639035015027,0.));
#556=DIRECTION('',(0.544639035015027,-0.838670567945424,0.));
#557=DIRECTION('',(0.,0.,-1.));
#558=DIRECTION('',(-1.,0.,0.));
#559=DIRECTION('',(0.,0.,-1.));
#560=DIRECTION('',(-1.,0.,0.));
#561=DIRECTION('',(0.,0.,-1.));
#562=DIRECTION('',(0.,0.,-1.));
#563=DIRECTION('',(-1.,0.,0.));
#564=DIRECTION('',(0.,0.,-1.));
#565=DIRECTION('',(0.,0.,1.));
#566=DIRECTION('',(1.,0.,0.));
#567=DIRECTION('',(-0.5,0.5,0.707106781186548));
#568=DIRECTION('',(-0.385117954958022,0.593029645775782,0.707106781186548));
#569=DIRECTION('',(0.,0.,-1.));
#570=DIRECTION('',(-1.,0.,0.));
#571=DIRECTION('',(-0.5,0.5,-0.707106781186548));
#572=DIRECTION('',(-0.385117954958023,0.593029645775783,-0.707106781186548));
#573=DIRECTION('',(-0.707106781186548,-0.707106781186547,0.));
#574=DIRECTION('',(0.707106781186547,-0.707106781186548,0.));
#575=DIRECTION('',(-0.838670567945424,-0.544639035015027,0.));
#576=DIRECTION('',(0.544639035015027,-0.838670567945424,0.));
#577=DIRECTION('',(0.,0.,-1.));
#578=DIRECTION('',(-1.,0.,0.));
#579=CARTESIAN_POINT('',(0.,0.,0.));
#580=CARTESIAN_POINT('',(0.,1.23077003314309E-18,0.01));
#581=CARTESIAN_POINT('',(0.,1.34711147906209E-18,0.0099));
#582=CARTESIAN_POINT('',(-0.0201,1.34711147906209E-18,0.0099));
#583=CARTESIAN_POINT('',(0.016857278415703,0.010947244603802,0.0045));
#584=CARTESIAN_POINT('',(0.016857278415703,0.010947244603802,0.003));
#585=CARTESIAN_POINT('',(0.016857278415703,0.010947244603802,0.009));
#586=CARTESIAN_POINT('',(0.,0.,0.003));
#587=CARTESIAN_POINT('',(0.0142128463018496,0.0142128463018496,0.003));
#588=CARTESIAN_POINT('',(0.0142128463018496,0.0142128463018496,0.0045));
#589=CARTESIAN_POINT('',(0.0142128463018496,0.0142128463018496,0.009));
#590=CARTESIAN_POINT('',(0.,0.,0.009));
#591=CARTESIAN_POINT('',(-0.016857278415703,-0.010947244603802,0.0045));
#592=CARTESIAN_POINT('',(-0.016857278415703,-0.010947244603802,0.003));
#593=CARTESIAN_POINT('',(-0.016857278415703,-0.010947244603802,0.009));
#594=CARTESIAN_POINT('',(0.,0.,0.003));
#595=CARTESIAN_POINT('',(-0.0142128463018496,-0.0142128463018496,0.003));
#596=CARTESIAN_POINT('',(-0.0142128463018496,-0.0142128463018496,0.0045));
#597=CARTESIAN_POINT('',(-0.0142128463018496,-0.0142128463018496,0.009));
#598=CARTESIAN_POINT('',(0.,0.,0.009));
#599=CARTESIAN_POINT('',(0.,1.23077003314309E-18,0.));
#600=CARTESIAN_POINT('',(0.0201,1.23077003314309E-18,0.));
#601=CARTESIAN_POINT('',(0.,0.,0.003));
#602=CARTESIAN_POINT('',(0.0142128463018496,-0.0142128463018496,0.003));
#603=CARTESIAN_POINT('',(0.010947244603802,-0.016857278415703,0.003));
#604=CARTESIAN_POINT('',(0.0142128463018496,-0.0142128463018496,0.0045));
#605=CARTESIAN_POINT('',(0.0142128463018496,-0.0142128463018496,0.009));
#606=CARTESIAN_POINT('',(0.,0.,0.009));
#607=CARTESIAN_POINT('',(0.010947244603802,-0.016857278415703,0.009));
#608=CARTESIAN_POINT('',(0.010947244603802,-0.016857278415703,0.0045));
#609=CARTESIAN_POINT('',(0.,0.,0.003));
#610=CARTESIAN_POINT('',(-0.0142128463018496,0.0142128463018496,0.003));
#611=CARTESIAN_POINT('',(-0.010947244603802,0.016857278415703,0.003));
#612=CARTESIAN_POINT('',(-0.0142128463018496,0.0142128463018496,0.0045));
#613=CARTESIAN_POINT('',(-0.0142128463018496,0.0142128463018496,0.009));
#614=CARTESIAN_POINT('',(0.,0.,0.009));
#615=CARTESIAN_POINT('',(-0.010947244603802,0.016857278415703,0.009));
#616=CARTESIAN_POINT('',(-0.010947244603802,0.016857278415703,0.0045));
#617=CARTESIAN_POINT('',(0.,1.34711147906209E-18,0.01));
#618=CARTESIAN_POINT('',(0.,1.34711147906209E-18,0.008));
#619=CARTESIAN_POINT('',(0.022,1.34711147906209E-18,0.008));
#620=CARTESIAN_POINT('',(0.,1.34711147906209E-18,0.));
#621=CARTESIAN_POINT('',(0.022,1.34711147906209E-18,0.));
#622=CARTESIAN_POINT('',(0.,0.,0.));
#623=CARTESIAN_POINT('',(0.,0.,0.0075));
#624=CARTESIAN_POINT('',(0.,0.,0.0075));
#625=CARTESIAN_POINT('',(-0.0155992725637849,-0.0101302860512795,0.0075));
#626=CARTESIAN_POINT('',(-0.0131521861300698,-0.0131521861300698,0.0075));
#627=CARTESIAN_POINT('',(-0.0162282754897439,-0.0105387653275408,0.00825));
#628=CARTESIAN_POINT('',(-0.0136825162159597,-0.0136825162159597,0.00825));
#629=CARTESIAN_POINT('',(0.,0.,0.0025));
#630=CARTESIAN_POINT('',(0.,0.,0.0045));
#631=CARTESIAN_POINT('',(-0.0155992725637849,-0.0101302860512795,0.0045));
#632=CARTESIAN_POINT('',(-0.0131521861300698,-0.0131521861300698,0.0045));
#633=CARTESIAN_POINT('',(-0.0155992725637849,-0.0101302860512795,0.00525));
#634=CARTESIAN_POINT('',(-0.0131521861300698,-0.0131521861300698,0.00525));
#635=CARTESIAN_POINT('',(0.,0.,0.0045));
#636=CARTESIAN_POINT('',(-0.0162282754897439,-0.0105387653275408,0.00375));
#637=CARTESIAN_POINT('',(-0.0136825162159597,-0.0136825162159597,0.00375));
#638=CARTESIAN_POINT('',(0.,0.,0.005));
#639=CARTESIAN_POINT('',(0.,0.,0.005));
#640=CARTESIAN_POINT('',(0.,0.,0.0025));
#641=CARTESIAN_POINT('',(0.,0.,0.0075));
#642=CARTESIAN_POINT('',(0.0155992725637849,0.0101302860512795,0.0075));
#643=CARTESIAN_POINT('',(0.0131521861300698,0.0131521861300698,0.0075));
#644=CARTESIAN_POINT('',(0.0131521861300698,0.0131521861300698,0.00525));
#645=CARTESIAN_POINT('',(0.0131521861300698,0.0131521861300698,0.0045));
#646=CARTESIAN_POINT('',(0.,0.,0.0045));
#647=CARTESIAN_POINT('',(0.0155992725637849,0.0101302860512795,0.0045));
#648=CARTESIAN_POINT('',(0.0155992725637849,0.0101302860512795,0.00525));
#649=CARTESIAN_POINT('',(0.,0.,0.0075));
#650=CARTESIAN_POINT('',(0.0136825162159597,0.0136825162159597,0.00825));
#651=CARTESIAN_POINT('',(0.0162282754897439,0.0105387653275408,0.00825));
#652=CARTESIAN_POINT('',(0.,0.,0.0045));
#653=CARTESIAN_POINT('',(0.0162282754897439,0.0105387653275408,0.00375));
#654=CARTESIAN_POINT('',(0.0136825162159597,0.0136825162159597,0.00375));
#655=CARTESIAN_POINT('',(0.,0.,0.005));
#656=CARTESIAN_POINT('',(0.,0.,0.005));
#657=CARTESIAN_POINT('',(0.,0.,0.0075));
#658=CARTESIAN_POINT('',(0.,0.,0.0075));
#659=CARTESIAN_POINT('',(0.0131521861300698,-0.0131521861300698,0.0075));
#660=CARTESIAN_POINT('',(0.0101302860512795,-0.0155992725637849,0.0075));
#661=CARTESIAN_POINT('',(0.0105387653275408,-0.0162282754897439,0.00825));
#662=CARTESIAN_POINT('',(0.0136825162159597,-0.0136825162159597,0.00825));
#663=CARTESIAN_POINT('',(0.,0.,0.0025));
#664=CARTESIAN_POINT('',(0.,0.,0.0045));
#665=CARTESIAN_POINT('',(0.0131521861300698,-0.0131521861300698,0.0045));
#666=CARTESIAN_POINT('',(0.0101302860512795,-0.0155992725637849,0.0045));
#667=CARTESIAN_POINT('',(0.0101302860512795,-0.0155992725637849,0.00525));
#668=CARTESIAN_POINT('',(0.0131521861300698,-0.0131521861300698,0.00525));
#669=CARTESIAN_POINT('',(0.,0.,0.0045));
#670=CARTESIAN_POINT('',(0.0136825162159597,-0.0136825162159597,0.00375));
#671=CARTESIAN_POINT('',(0.0105387653275408,-0.0162282754897439,0.00375));
#672=CARTESIAN_POINT('',(0.,0.,0.005));
#673=CARTESIAN_POINT('',(0.,0.,0.005));
#674=CARTESIAN_POINT('',(0.,0.,0.0025));
#675=CARTESIAN_POINT('',(0.,0.,0.0075));
#676=CARTESIAN_POINT('',(-0.0131521861300698,0.0131521861300698,0.0075));
#677=CARTESIAN_POINT('',(-0.0101302860512795,0.0155992725637849,0.0075));
#678=CARTESIAN_POINT('',(-0.0131521861300698,0.0131521861300698,0.00525));
#679=CARTESIAN_POINT('',(-0.0131521861300698,0.0131521861300698,0.0045));
#680=CARTESIAN_POINT('',(0.,0.,0.0045));
#681=CARTESIAN_POINT('',(-0.0101302860512795,0.0155992725637849,0.0045));
#682=CARTESIAN_POINT('',(-0.0101302860512795,0.0155992725637849,0.00525));
#683=CARTESIAN_POINT('',(0.,0.,0.0075));
#684=CARTESIAN_POINT('',(-0.0136825162159597,0.0136825162159597,0.00825));
#685=CARTESIAN_POINT('',(-0.0105387653275408,0.0162282754897439,0.00825));
#686=CARTESIAN_POINT('',(0.,0.,0.0045));
#687=CARTESIAN_POINT('',(-0.0136825162159597,0.0136825162159597,0.00375));
#688=CARTESIAN_POINT('',(-0.0105387653275408,0.0162282754897439,0.00375));
#689=CARTESIAN_POINT('',(0.,0.,0.005));
#690=CARTESIAN_POINT('',(0.,0.,0.005));
#691=CARTESIAN_POINT('',(0.,1.34711147906209E-18,0.01));
#692=MECHANICAL_DESIGN_GEOMETRIC_PRESENTATION_REPRESENTATION('',(#401),
#693);
#693=(
GEOMETRIC_REPRESENTATION_CONTEXT(3)
GLOBAL_UNCERTAINTY_ASSIGNED_CONTEXT((#694))
GLOBAL_UNIT_ASSIGNED_CONTEXT((#697,#696,#695))
REPRESENTATION_CONTEXT('Base Ring','TOP_LEVEL_ASSEMBLY_PART')
);
#694=UNCERTAINTY_MEASURE_WITH_UNIT(LENGTH_MEASURE(1.E-8),#697,
'DISTANCE_ACCURACY_VALUE','Maximum Tolerance applied to model');
#695=(
NAMED_UNIT(*)
SI_UNIT($,.STERADIAN.)
SOLID_ANGLE_UNIT()
);
#696=(
NAMED_UNIT(*)
PLANE_ANGLE_UNIT()
SI_UNIT($,.RADIAN.)
);
#697=(
LENGTH_UNIT()
NAMED_UNIT(*)
SI_UNIT($,.METRE.)
);
#698=PRODUCT_DEFINITION_SHAPE('','',#699);
#699=PRODUCT_DEFINITION('','',#701,#700);
#700=PRODUCT_DEFINITION_CONTEXT('',#707,'design');
#701=PRODUCT_DEFINITION_FORMATION_WITH_SPECIFIED_SOURCE('','',#703,
 .NOT_KNOWN.);
#702=PRODUCT_RELATED_PRODUCT_CATEGORY('','',(#703));
#703=PRODUCT('Base Ring','Base Ring','Base Ring',(#705));
#704=PRODUCT_CATEGORY('','');
#705=PRODUCT_CONTEXT('',#707,'mechanical');
#706=APPLICATION_PROTOCOL_DEFINITION('international standard',
'ap242_managed_model_based_3d_engineering',2020,#707);
#707=APPLICATION_CONTEXT('managed model based 3d engineering');
ENDSEC;
END-ISO-10303-21;
