ISO-10303-21;
HEADER;
/* Generated by software containing ST-Developer
 * from STEP Tools, Inc. (www.steptools.com) 
 */
/* OPTION: using custom renumber hook */

FILE_DESCRIPTION(
/* description */ ('STEP AP242 Edition 2',
'CAx-IF Rec.Pracs.---Representation and Presentation of Product Manufa
cturing Information (PMI)---4.0---2014-10-13',
'CAx-IF Rec.Pracs.---3D Tessellated Geometry---0.4---2014-09-14','2;1',
'CAx-IF Rec.Pracs.---User Defined Attributes---1.5---2016-08-15'),
/* implementation_level */ '2;1');

FILE_NAME(
/* name */ '699771f8f6d484ba42d44ec9',
/* time_stamp */ '2026-02-19T20:26:32Z',
/* author */ (''),
/* organization */ (''),
/* preprocessor_version */ 'ST-DEVELOPER v20',
/* originating_system */ 'ONSHAPE BY PTC INC, 1.210',
/* authorisation */ '  ');

FILE_SCHEMA (('AP242_MANAGED_MODEL_BASED_3D_ENGINEERING_MIM_LF { 1 0 10303 442 3 1 4 }'));
ENDSEC;

DATA;
#10=SHAPE_REPRESENTATION_RELATIONSHIP('','',#714,#11);
#11=ADVANCED_BREP_SHAPE_REPRESENTATION('',(#712),#1376);
#12=B_SPLINE_SURFACE_WITH_KNOTS('',3,1,((#1197,#1198),(#1199,#1200),(#1201,
#1202),(#1203,#1204)),.SURF_OF_LINEAR_EXTRUSION.,.F.,.F.,.F.,(4,4),(2,2),
(0.438560315059606,0.858862007749669),(0.,1.),.PIECEWISE_BEZIER_KNOTS.);
#13=B_SPLINE_SURFACE_WITH_KNOTS('',3,1,((#1211,#1212),(#1213,#1214),(#1215,
#1216),(#1217,#1218)),.SURF_OF_LINEAR_EXTRUSION.,.F.,.F.,.F.,(4,4),(2,2),
(0.,0.438560315059606),(0.,1.),.PIECEWISE_BEZIER_KNOTS.);
#14=B_SPLINE_SURFACE_WITH_KNOTS('',3,1,((#1242,#1243),(#1244,#1245),(#1246,
#1247),(#1248,#1249)),.SURF_OF_LINEAR_EXTRUSION.,.F.,.F.,.F.,(4,4),(2,2),
(0.,0.438560315059606),(0.,1.),.PIECEWISE_BEZIER_KNOTS.);
#15=B_SPLINE_SURFACE_WITH_KNOTS('',3,1,((#1256,#1257),(#1258,#1259),(#1260,
#1261),(#1262,#1263)),.SURF_OF_LINEAR_EXTRUSION.,.F.,.F.,.F.,(4,4),(2,2),
(0.438560315059606,0.858862007749671),(0.,1.),.PIECEWISE_BEZIER_KNOTS.);
#16=B_SPLINE_SURFACE_WITH_KNOTS('',1,3,((#1273,#1274,#1275,#1276,#1277,
#1278,#1279,#1280,#1281,#1282),(#1283,#1284,#1285,#1286,#1287,#1288,#1289,
#1290,#1291,#1292)),.RULED_SURF.,.F.,.F.,.F.,(2,2),(4,2,2,2,4),(0.,1.),
(0.000238030028335482,0.00142069498758288,0.00284138997516576,0.00426208496274863,
0.00568277995033151),.UNSPECIFIED.);
#17=B_SPLINE_SURFACE_WITH_KNOTS('',1,3,((#1297,#1298,#1299,#1300,#1301,
#1302,#1303,#1304,#1305,#1306),(#1307,#1308,#1309,#1310,#1311,#1312,#1313,
#1314,#1315,#1316)),.RULED_SURF.,.F.,.F.,.F.,(2,2),(4,2,2,2,4),(0.,1.),
(0.,0.00317354357244677,0.00476031535867015,0.00555370125178184,0.00605715814784041),
 .UNSPECIFIED.);
#18=B_SPLINE_SURFACE_WITH_KNOTS('',1,3,((#1326,#1327,#1328,#1329,#1330,
#1331,#1332,#1333,#1334,#1335),(#1336,#1337,#1338,#1339,#1340,#1341,#1342,
#1343,#1344,#1345)),.RULED_SURF.,.F.,.F.,.F.,(2,2),(4,2,2,2,4),(0.,1.),
(0.,0.00317354357244676,0.00476031535867015,0.00555370125178184,0.0060571581478404),
 .UNSPECIFIED.);
#19=B_SPLINE_SURFACE_WITH_KNOTS('',1,3,((#1350,#1351,#1352,#1353,#1354,
#1355,#1356,#1357,#1358,#1359),(#1360,#1361,#1362,#1363,#1364,#1365,#1366,
#1367,#1368,#1369)),.RULED_SURF.,.F.,.F.,.F.,(2,2),(4,2,2,2,4),(0.,1.),
(0.00023802990660377,0.00142069498758288,0.00284138997516576,0.00426208496274863,
0.00568277995033151),.UNSPECIFIED.);
#20=CONICAL_SURFACE('',#738,0.0186,0.785398163397448);
#21=CONICAL_SURFACE('',#742,0.0186,0.785398163397448);
#22=CONICAL_SURFACE('',#748,0.0186,0.785398163397449);
#23=CONICAL_SURFACE('',#749,0.0186,0.785398163397448);
#24=CONICAL_SURFACE('',#752,0.0186,0.785398163397448);
#25=CONICAL_SURFACE('',#756,0.0186,0.785398163397448);
#26=CONICAL_SURFACE('',#762,0.0186,0.785398163397448);
#27=CONICAL_SURFACE('',#763,0.0186,0.785398163397448);
#28=CONICAL_SURFACE('',#775,0.02,0.785398163397448);
#29=PLANE('',#731);
#30=PLANE('',#735);
#31=PLANE('',#743);
#32=PLANE('',#744);
#33=PLANE('',#750);
#34=PLANE('',#751);
#35=PLANE('',#757);
#36=PLANE('',#758);
#37=PLANE('',#764);
#38=PLANE('',#765);
#39=PLANE('',#769);
#40=PLANE('',#772);
#41=PLANE('',#774);
#42=PLANE('',#779);
#43=B_SPLINE_CURVE_WITH_KNOTS('',3,(#986,#987,#988,#989),.UNSPECIFIED.,
 .F.,.F.,(4,4),(0.,1.),.UNSPECIFIED.);
#44=B_SPLINE_CURVE_WITH_KNOTS('',3,(#993,#994,#995,#996),.UNSPECIFIED.,
 .F.,.F.,(4,4),(0.,1.),.UNSPECIFIED.);
#45=B_SPLINE_CURVE_WITH_KNOTS('',3,(#1016,#1017,#1018,#1019,#1020,#1021,
#1022,#1023,#1024,#1025,#1026,#1027,#1028,#1029,#1030,#1031,#1032),
 .UNSPECIFIED.,.F.,.F.,(4,1,1,1,1,1,1,1,1,1,1,1,1,1,4),(0.,0.125,0.1875,
0.25,0.3125,0.375,0.4375,0.46875,0.5,0.53125,0.5625,0.625,0.75,0.875,1.),
 .UNSPECIFIED.);
#46=B_SPLINE_CURVE_WITH_KNOTS('',3,(#1041,#1042,#1043,#1044,#1045,#1046,
#1047,#1048,#1049,#1050,#1051,#1052,#1053,#1054,#1055,#1056,#1057),
 .UNSPECIFIED.,.F.,.F.,(4,1,1,1,1,1,1,1,1,1,1,1,1,1,4),(0.,0.125,0.25,0.375,
0.4375,0.46875,0.5,0.53125,0.5625,0.625,0.6875,0.75,0.8125,0.875,1.),
 .UNSPECIFIED.);
#47=B_SPLINE_CURVE_WITH_KNOTS('',3,(#1059,#1060,#1061,#1062,#1063,#1064,
#1065,#1066,#1067,#1068,#1069),.UNSPECIFIED.,.F.,.F.,(4,1,1,1,1,1,1,1,4),
(0.,0.25,0.375,0.4375,0.5,0.5625,0.625,0.75,1.),.UNSPECIFIED.);
#48=B_SPLINE_CURVE_WITH_KNOTS('',3,(#1070,#1071,#1072,#1073,#1074,#1075,
#1076,#1077,#1078,#1079,#1080),.UNSPECIFIED.,.F.,.F.,(4,1,1,1,1,1,1,1,4),
(0.,0.25,0.375,0.4375,0.5,0.5625,0.625,0.75,1.),.UNSPECIFIED.);
#49=B_SPLINE_CURVE_WITH_KNOTS('',3,(#1086,#1087,#1088,#1089),
 .UNSPECIFIED.,.F.,.F.,(4,4),(0.438560315059606,0.858862007749669),
 .PIECEWISE_BEZIER_KNOTS.);
#50=B_SPLINE_CURVE_WITH_KNOTS('',3,(#1091,#1092,#1093,#1094),
 .UNSPECIFIED.,.F.,.F.,(4,4),(0.,0.438560315059606),
 .PIECEWISE_BEZIER_KNOTS.);
#51=B_SPLINE_CURVE_WITH_KNOTS('',3,(#1102,#1103,#1104,#1105),
 .UNSPECIFIED.,.F.,.F.,(4,4),(0.,0.438560315059606),
 .PIECEWISE_BEZIER_KNOTS.);
#52=B_SPLINE_CURVE_WITH_KNOTS('',3,(#1107,#1108,#1109,#1110),
 .UNSPECIFIED.,.F.,.F.,(4,4),(0.438560315059606,0.858862007749671),
 .PIECEWISE_BEZIER_KNOTS.);
#53=B_SPLINE_CURVE_WITH_KNOTS('',3,(#1180,#1181,#1182,#1183,#1184,#1185,
#1186,#1187,#1188,#1189,#1190),.UNSPECIFIED.,.T.,.F.,(1,1,1,1,1,1,1,1,1,
1,1,1,1,1,1),(-0.00491647504088309,-0.00327765002725539,-0.0016388250136277,
8.67361737988404E-19,0.0016388250136277,0.00327765002725539,0.00491647504088309,
0.00655530005451078,0.00819412506813848,0.00983295008176618,0.0114717750953939,
0.0131106001090216,0.0147494251226493,0.016388250136277,0.0180270751499047),
 .UNSPECIFIED.);
#54=B_SPLINE_CURVE_WITH_KNOTS('',3,(#1205,#1206,#1207,#1208),
 .UNSPECIFIED.,.F.,.F.,(4,4),(0.,1.),.UNSPECIFIED.);
#55=B_SPLINE_CURVE_WITH_KNOTS('',3,(#1219,#1220,#1221,#1222),
 .UNSPECIFIED.,.F.,.F.,(4,4),(0.,1.),.UNSPECIFIED.);
#56=B_SPLINE_CURVE_WITH_KNOTS('',3,(#1226,#1227,#1228,#1229),
 .UNSPECIFIED.,.F.,.F.,(4,4),(0.,0.00291241148144443),.UNSPECIFIED.);
#57=B_SPLINE_CURVE_WITH_KNOTS('',3,(#1236,#1237,#1238,#1239),
 .UNSPECIFIED.,.F.,.F.,(4,4),(0.,0.00291491180383785),.UNSPECIFIED.);
#58=B_SPLINE_CURVE_WITH_KNOTS('',3,(#1250,#1251,#1252,#1253),
 .UNSPECIFIED.,.F.,.F.,(4,4),(0.,1.),.UNSPECIFIED.);
#59=B_SPLINE_CURVE_WITH_KNOTS('',3,(#1264,#1265,#1266,#1267),
 .UNSPECIFIED.,.F.,.F.,(4,4),(0.,1.),.UNSPECIFIED.);
#60=B_SPLINE_CURVE_WITH_KNOTS('',3,(#1293,#1294,#1295,#1296),
 .UNSPECIFIED.,.F.,.F.,(4,4),(0.,1.),.UNSPECIFIED.);
#61=B_SPLINE_CURVE_WITH_KNOTS('',3,(#1317,#1318,#1319,#1320),
 .UNSPECIFIED.,.F.,.F.,(4,4),(0.,1.),.UNSPECIFIED.);
#62=B_SPLINE_CURVE_WITH_KNOTS('',3,(#1322,#1323,#1324,#1325),
 .UNSPECIFIED.,.F.,.F.,(4,4),(0.,1.),.UNSPECIFIED.);
#63=B_SPLINE_CURVE_WITH_KNOTS('',3,(#1346,#1347,#1348,#1349),
 .UNSPECIFIED.,.F.,.F.,(4,4),(0.,1.),.UNSPECIFIED.);
#64=CIRCLE('',#717,0.022);
#65=CIRCLE('',#718,0.022);
#66=CIRCLE('',#720,0.0201);
#67=CIRCLE('',#721,0.0201);
#68=CIRCLE('',#722,0.0201);
#69=CIRCLE('',#723,0.0201);
#70=CIRCLE('',#724,0.0201);
#71=CIRCLE('',#725,0.0201);
#72=CIRCLE('',#726,0.0201);
#73=CIRCLE('',#727,0.0201);
#74=CIRCLE('',#728,0.0201);
#75=CIRCLE('',#729,0.0201);
#76=CIRCLE('',#730,0.0201);
#77=CIRCLE('',#732,0.008);
#78=CIRCLE('',#733,0.008);
#79=CIRCLE('',#734,0.00515);
#80=CIRCLE('',#736,0.008);
#81=CIRCLE('',#737,0.008);
#82=CIRCLE('',#739,0.0186);
#83=CIRCLE('',#741,0.0186);
#84=CIRCLE('',#746,0.0186);
#85=CIRCLE('',#747,0.0186);
#86=CIRCLE('',#753,0.0186);
#87=CIRCLE('',#755,0.0186);
#88=CIRCLE('',#760,0.0186);
#89=CIRCLE('',#761,0.0186);
#90=CIRCLE('',#767,0.00515);
#91=CIRCLE('',#770,0.002075);
#92=CIRCLE('',#773,0.002075);
#93=CIRCLE('',#778,0.002075);
#94=ORIENTED_EDGE('',*,*,#288,.F.);
#95=ORIENTED_EDGE('',*,*,#289,.T.);
#96=ORIENTED_EDGE('',*,*,#290,.T.);
#97=ORIENTED_EDGE('',*,*,#291,.T.);
#98=ORIENTED_EDGE('',*,*,#292,.F.);
#99=ORIENTED_EDGE('',*,*,#293,.T.);
#100=ORIENTED_EDGE('',*,*,#294,.T.);
#101=ORIENTED_EDGE('',*,*,#295,.F.);
#102=ORIENTED_EDGE('',*,*,#296,.F.);
#103=ORIENTED_EDGE('',*,*,#297,.T.);
#104=ORIENTED_EDGE('',*,*,#298,.T.);
#105=ORIENTED_EDGE('',*,*,#299,.F.);
#106=ORIENTED_EDGE('',*,*,#300,.T.);
#107=ORIENTED_EDGE('',*,*,#301,.T.);
#108=ORIENTED_EDGE('',*,*,#302,.T.);
#109=ORIENTED_EDGE('',*,*,#303,.T.);
#110=ORIENTED_EDGE('',*,*,#304,.F.);
#111=ORIENTED_EDGE('',*,*,#305,.F.);
#112=ORIENTED_EDGE('',*,*,#306,.T.);
#113=ORIENTED_EDGE('',*,*,#307,.T.);
#114=ORIENTED_EDGE('',*,*,#308,.F.);
#115=ORIENTED_EDGE('',*,*,#309,.F.);
#116=ORIENTED_EDGE('',*,*,#310,.T.);
#117=ORIENTED_EDGE('',*,*,#311,.T.);
#118=ORIENTED_EDGE('',*,*,#312,.F.);
#119=ORIENTED_EDGE('',*,*,#313,.T.);
#120=ORIENTED_EDGE('',*,*,#314,.F.);
#121=ORIENTED_EDGE('',*,*,#315,.F.);
#122=ORIENTED_EDGE('',*,*,#316,.F.);
#123=ORIENTED_EDGE('',*,*,#317,.T.);
#124=ORIENTED_EDGE('',*,*,#318,.T.);
#125=ORIENTED_EDGE('',*,*,#302,.F.);
#126=ORIENTED_EDGE('',*,*,#319,.T.);
#127=ORIENTED_EDGE('',*,*,#320,.T.);
#128=ORIENTED_EDGE('',*,*,#321,.F.);
#129=ORIENTED_EDGE('',*,*,#291,.F.);
#130=ORIENTED_EDGE('',*,*,#322,.F.);
#131=ORIENTED_EDGE('',*,*,#323,.F.);
#132=ORIENTED_EDGE('',*,*,#324,.T.);
#133=ORIENTED_EDGE('',*,*,#325,.T.);
#134=ORIENTED_EDGE('',*,*,#326,.T.);
#135=ORIENTED_EDGE('',*,*,#327,.T.);
#136=ORIENTED_EDGE('',*,*,#328,.T.);
#137=ORIENTED_EDGE('',*,*,#304,.T.);
#138=ORIENTED_EDGE('',*,*,#329,.F.);
#139=ORIENTED_EDGE('',*,*,#330,.T.);
#140=ORIENTED_EDGE('',*,*,#299,.T.);
#141=ORIENTED_EDGE('',*,*,#331,.F.);
#142=ORIENTED_EDGE('',*,*,#332,.F.);
#143=ORIENTED_EDGE('',*,*,#333,.F.);
#144=ORIENTED_EDGE('',*,*,#329,.T.);
#145=ORIENTED_EDGE('',*,*,#334,.T.);
#146=ORIENTED_EDGE('',*,*,#335,.F.);
#147=ORIENTED_EDGE('',*,*,#332,.T.);
#148=ORIENTED_EDGE('',*,*,#336,.T.);
#149=ORIENTED_EDGE('',*,*,#297,.F.);
#150=ORIENTED_EDGE('',*,*,#296,.T.);
#151=ORIENTED_EDGE('',*,*,#330,.F.);
#152=ORIENTED_EDGE('',*,*,#333,.T.);
#153=ORIENTED_EDGE('',*,*,#335,.T.);
#154=ORIENTED_EDGE('',*,*,#298,.F.);
#155=ORIENTED_EDGE('',*,*,#336,.F.);
#156=ORIENTED_EDGE('',*,*,#334,.F.);
#157=ORIENTED_EDGE('',*,*,#331,.T.);
#158=ORIENTED_EDGE('',*,*,#337,.T.);
#159=ORIENTED_EDGE('',*,*,#338,.T.);
#160=ORIENTED_EDGE('',*,*,#339,.F.);
#161=ORIENTED_EDGE('',*,*,#340,.F.);
#162=ORIENTED_EDGE('',*,*,#295,.T.);
#163=ORIENTED_EDGE('',*,*,#341,.F.);
#164=ORIENTED_EDGE('',*,*,#337,.F.);
#165=ORIENTED_EDGE('',*,*,#342,.T.);
#166=ORIENTED_EDGE('',*,*,#343,.F.);
#167=ORIENTED_EDGE('',*,*,#339,.T.);
#168=ORIENTED_EDGE('',*,*,#344,.T.);
#169=ORIENTED_EDGE('',*,*,#293,.F.);
#170=ORIENTED_EDGE('',*,*,#340,.T.);
#171=ORIENTED_EDGE('',*,*,#343,.T.);
#172=ORIENTED_EDGE('',*,*,#292,.T.);
#173=ORIENTED_EDGE('',*,*,#342,.F.);
#174=ORIENTED_EDGE('',*,*,#338,.F.);
#175=ORIENTED_EDGE('',*,*,#341,.T.);
#176=ORIENTED_EDGE('',*,*,#294,.F.);
#177=ORIENTED_EDGE('',*,*,#344,.F.);
#178=ORIENTED_EDGE('',*,*,#345,.T.);
#179=ORIENTED_EDGE('',*,*,#346,.T.);
#180=ORIENTED_EDGE('',*,*,#307,.F.);
#181=ORIENTED_EDGE('',*,*,#347,.F.);
#182=ORIENTED_EDGE('',*,*,#348,.T.);
#183=ORIENTED_EDGE('',*,*,#349,.F.);
#184=ORIENTED_EDGE('',*,*,#345,.F.);
#185=ORIENTED_EDGE('',*,*,#350,.T.);
#186=ORIENTED_EDGE('',*,*,#351,.T.);
#187=ORIENTED_EDGE('',*,*,#305,.T.);
#188=ORIENTED_EDGE('',*,*,#352,.F.);
#189=ORIENTED_EDGE('',*,*,#348,.F.);
#190=ORIENTED_EDGE('',*,*,#306,.F.);
#191=ORIENTED_EDGE('',*,*,#351,.F.);
#192=ORIENTED_EDGE('',*,*,#350,.F.);
#193=ORIENTED_EDGE('',*,*,#347,.T.);
#194=ORIENTED_EDGE('',*,*,#308,.T.);
#195=ORIENTED_EDGE('',*,*,#346,.F.);
#196=ORIENTED_EDGE('',*,*,#349,.T.);
#197=ORIENTED_EDGE('',*,*,#352,.T.);
#198=ORIENTED_EDGE('',*,*,#353,.F.);
#199=ORIENTED_EDGE('',*,*,#354,.T.);
#200=ORIENTED_EDGE('',*,*,#355,.T.);
#201=ORIENTED_EDGE('',*,*,#356,.F.);
#202=ORIENTED_EDGE('',*,*,#311,.F.);
#203=ORIENTED_EDGE('',*,*,#357,.F.);
#204=ORIENTED_EDGE('',*,*,#353,.T.);
#205=ORIENTED_EDGE('',*,*,#358,.T.);
#206=ORIENTED_EDGE('',*,*,#359,.T.);
#207=ORIENTED_EDGE('',*,*,#309,.T.);
#208=ORIENTED_EDGE('',*,*,#360,.F.);
#209=ORIENTED_EDGE('',*,*,#355,.F.);
#210=ORIENTED_EDGE('',*,*,#354,.F.);
#211=ORIENTED_EDGE('',*,*,#357,.T.);
#212=ORIENTED_EDGE('',*,*,#310,.F.);
#213=ORIENTED_EDGE('',*,*,#359,.F.);
#214=ORIENTED_EDGE('',*,*,#356,.T.);
#215=ORIENTED_EDGE('',*,*,#360,.T.);
#216=ORIENTED_EDGE('',*,*,#312,.T.);
#217=ORIENTED_EDGE('',*,*,#358,.F.);
#218=ORIENTED_EDGE('',*,*,#361,.T.);
#219=ORIENTED_EDGE('',*,*,#362,.T.);
#220=ORIENTED_EDGE('',*,*,#363,.T.);
#221=ORIENTED_EDGE('',*,*,#364,.F.);
#222=ORIENTED_EDGE('',*,*,#320,.F.);
#223=ORIENTED_EDGE('',*,*,#290,.F.);
#224=ORIENTED_EDGE('',*,*,#365,.T.);
#225=ORIENTED_EDGE('',*,*,#366,.T.);
#226=ORIENTED_EDGE('',*,*,#322,.T.);
#227=ORIENTED_EDGE('',*,*,#366,.F.);
#228=ORIENTED_EDGE('',*,*,#367,.T.);
#229=ORIENTED_EDGE('',*,*,#368,.T.);
#230=ORIENTED_EDGE('',*,*,#323,.T.);
#231=ORIENTED_EDGE('',*,*,#324,.F.);
#232=ORIENTED_EDGE('',*,*,#368,.F.);
#233=ORIENTED_EDGE('',*,*,#369,.T.);
#234=ORIENTED_EDGE('',*,*,#316,.T.);
#235=ORIENTED_EDGE('',*,*,#370,.T.);
#236=ORIENTED_EDGE('',*,*,#371,.F.);
#237=ORIENTED_EDGE('',*,*,#325,.F.);
#238=ORIENTED_EDGE('',*,*,#370,.F.);
#239=ORIENTED_EDGE('',*,*,#315,.T.);
#240=ORIENTED_EDGE('',*,*,#372,.T.);
#241=ORIENTED_EDGE('',*,*,#326,.F.);
#242=ORIENTED_EDGE('',*,*,#372,.F.);
#243=ORIENTED_EDGE('',*,*,#314,.T.);
#244=ORIENTED_EDGE('',*,*,#373,.T.);
#245=ORIENTED_EDGE('',*,*,#374,.T.);
#246=ORIENTED_EDGE('',*,*,#374,.F.);
#247=ORIENTED_EDGE('',*,*,#375,.T.);
#248=ORIENTED_EDGE('',*,*,#376,.T.);
#249=ORIENTED_EDGE('',*,*,#327,.F.);
#250=ORIENTED_EDGE('',*,*,#376,.F.);
#251=ORIENTED_EDGE('',*,*,#377,.T.);
#252=ORIENTED_EDGE('',*,*,#288,.T.);
#253=ORIENTED_EDGE('',*,*,#328,.F.);
#254=ORIENTED_EDGE('',*,*,#378,.F.);
#255=ORIENTED_EDGE('',*,*,#379,.F.);
#256=ORIENTED_EDGE('',*,*,#362,.F.);
#257=ORIENTED_EDGE('',*,*,#321,.T.);
#258=ORIENTED_EDGE('',*,*,#364,.T.);
#259=ORIENTED_EDGE('',*,*,#379,.T.);
#260=ORIENTED_EDGE('',*,*,#363,.F.);
#261=ORIENTED_EDGE('',*,*,#369,.F.);
#262=ORIENTED_EDGE('',*,*,#367,.F.);
#263=ORIENTED_EDGE('',*,*,#380,.F.);
#264=ORIENTED_EDGE('',*,*,#317,.F.);
#265=ORIENTED_EDGE('',*,*,#380,.T.);
#266=ORIENTED_EDGE('',*,*,#365,.F.);
#267=ORIENTED_EDGE('',*,*,#381,.F.);
#268=ORIENTED_EDGE('',*,*,#303,.F.);
#269=ORIENTED_EDGE('',*,*,#318,.F.);
#270=ORIENTED_EDGE('',*,*,#381,.T.);
#271=ORIENTED_EDGE('',*,*,#289,.F.);
#272=ORIENTED_EDGE('',*,*,#382,.F.);
#273=ORIENTED_EDGE('',*,*,#300,.F.);
#274=ORIENTED_EDGE('',*,*,#382,.T.);
#275=ORIENTED_EDGE('',*,*,#377,.F.);
#276=ORIENTED_EDGE('',*,*,#383,.F.);
#277=ORIENTED_EDGE('',*,*,#319,.F.);
#278=ORIENTED_EDGE('',*,*,#301,.F.);
#279=ORIENTED_EDGE('',*,*,#373,.F.);
#280=ORIENTED_EDGE('',*,*,#313,.F.);
#281=ORIENTED_EDGE('',*,*,#383,.T.);
#282=ORIENTED_EDGE('',*,*,#375,.F.);
#283=ORIENTED_EDGE('',*,*,#378,.T.);
#284=ORIENTED_EDGE('',*,*,#371,.T.);
#285=ORIENTED_EDGE('',*,*,#384,.F.);
#286=ORIENTED_EDGE('',*,*,#361,.F.);
#287=ORIENTED_EDGE('',*,*,#384,.T.);
#288=EDGE_CURVE('',#385,#386,#450,.T.);
#289=EDGE_CURVE('',#385,#387,#64,.F.);
#290=EDGE_CURVE('',#387,#388,#451,.T.);
#291=EDGE_CURVE('',#388,#386,#65,.T.);
#292=EDGE_CURVE('',#389,#390,#452,.T.);
#293=EDGE_CURVE('',#389,#391,#66,.T.);
#294=EDGE_CURVE('',#391,#392,#453,.T.);
#295=EDGE_CURVE('',#390,#392,#67,.T.);
#296=EDGE_CURVE('',#393,#394,#454,.T.);
#297=EDGE_CURVE('',#393,#395,#68,.T.);
#298=EDGE_CURVE('',#395,#396,#455,.T.);
#299=EDGE_CURVE('',#394,#396,#69,.T.);
#300=EDGE_CURVE('',#397,#398,#70,.F.);
#301=EDGE_CURVE('',#398,#399,#43,.T.);
#302=EDGE_CURVE('',#399,#400,#71,.T.);
#303=EDGE_CURVE('',#400,#397,#44,.T.);
#304=EDGE_CURVE('',#401,#401,#72,.T.);
#305=EDGE_CURVE('',#402,#403,#73,.T.);
#306=EDGE_CURVE('',#402,#404,#456,.T.);
#307=EDGE_CURVE('',#404,#405,#74,.T.);
#308=EDGE_CURVE('',#403,#405,#457,.T.);
#309=EDGE_CURVE('',#406,#407,#75,.T.);
#310=EDGE_CURVE('',#406,#408,#458,.T.);
#311=EDGE_CURVE('',#408,#409,#76,.T.);
#312=EDGE_CURVE('',#407,#409,#459,.T.);
#313=EDGE_CURVE('',#410,#411,#45,.T.);
#314=EDGE_CURVE('',#412,#411,#77,.T.);
#315=EDGE_CURVE('',#413,#412,#460,.T.);
#316=EDGE_CURVE('',#414,#413,#78,.T.);
#317=EDGE_CURVE('',#414,#415,#46,.T.);
#318=EDGE_CURVE('',#415,#400,#47,.T.);
#319=EDGE_CURVE('',#399,#410,#48,.T.);
#320=EDGE_CURVE('',#416,#417,#79,.T.);
#321=EDGE_CURVE('',#416,#417,#461,.T.);
#322=EDGE_CURVE('',#418,#388,#49,.T.);
#323=EDGE_CURVE('',#419,#418,#50,.T.);
#324=EDGE_CURVE('',#419,#420,#80,.T.);
#325=EDGE_CURVE('',#420,#421,#462,.T.);
#326=EDGE_CURVE('',#421,#422,#81,.T.);
#327=EDGE_CURVE('',#422,#423,#51,.T.);
#328=EDGE_CURVE('',#423,#386,#52,.T.);
#329=EDGE_CURVE('',#424,#425,#82,.T.);
#330=EDGE_CURVE('',#424,#394,#463,.T.);
#331=EDGE_CURVE('',#425,#396,#464,.T.);
#332=EDGE_CURVE('',#426,#427,#83,.T.);
#333=EDGE_CURVE('',#424,#426,#465,.T.);
#334=EDGE_CURVE('',#425,#427,#466,.T.);
#335=EDGE_CURVE('',#426,#393,#467,.T.);
#336=EDGE_CURVE('',#427,#395,#468,.T.);
#337=EDGE_CURVE('',#428,#429,#84,.T.);
#338=EDGE_CURVE('',#429,#430,#469,.T.);
#339=EDGE_CURVE('',#431,#430,#85,.T.);
#340=EDGE_CURVE('',#428,#431,#470,.T.);
#341=EDGE_CURVE('',#429,#392,#471,.T.);
#342=EDGE_CURVE('',#428,#390,#472,.T.);
#343=EDGE_CURVE('',#431,#389,#473,.T.);
#344=EDGE_CURVE('',#430,#391,#474,.T.);
#345=EDGE_CURVE('',#432,#433,#86,.T.);
#346=EDGE_CURVE('',#433,#405,#475,.T.);
#347=EDGE_CURVE('',#432,#404,#476,.T.);
#348=EDGE_CURVE('',#434,#435,#87,.T.);
#349=EDGE_CURVE('',#433,#435,#477,.T.);
#350=EDGE_CURVE('',#432,#434,#478,.T.);
#351=EDGE_CURVE('',#434,#402,#479,.T.);
#352=EDGE_CURVE('',#435,#403,#480,.T.);
#353=EDGE_CURVE('',#436,#437,#88,.T.);
#354=EDGE_CURVE('',#436,#438,#481,.T.);
#355=EDGE_CURVE('',#438,#439,#89,.T.);
#356=EDGE_CURVE('',#437,#439,#482,.T.);
#357=EDGE_CURVE('',#436,#408,#483,.T.);
#358=EDGE_CURVE('',#437,#409,#484,.T.);
#359=EDGE_CURVE('',#438,#406,#485,.T.);
#360=EDGE_CURVE('',#439,#407,#486,.T.);
#361=EDGE_CURVE('',#440,#440,#53,.T.);
#362=EDGE_CURVE('',#416,#441,#487,.T.);
#363=EDGE_CURVE('',#441,#442,#90,.T.);
#364=EDGE_CURVE('',#417,#442,#488,.T.);
#365=EDGE_CURVE('',#387,#443,#54,.T.);
#366=EDGE_CURVE('',#443,#418,#489,.T.);
#367=EDGE_CURVE('',#443,#444,#55,.T.);
#368=EDGE_CURVE('',#444,#419,#490,.T.);
#369=EDGE_CURVE('',#444,#414,#56,.T.);
#370=EDGE_CURVE('',#413,#420,#491,.T.);
#371=EDGE_CURVE('',#445,#445,#91,.T.);
#372=EDGE_CURVE('',#412,#421,#492,.T.);
#373=EDGE_CURVE('',#411,#446,#57,.T.);
#374=EDGE_CURVE('',#446,#422,#493,.T.);
#375=EDGE_CURVE('',#446,#447,#58,.T.);
#376=EDGE_CURVE('',#447,#423,#494,.T.);
#377=EDGE_CURVE('',#447,#385,#59,.T.);
#378=EDGE_CURVE('',#448,#448,#92,.T.);
#379=EDGE_CURVE('',#441,#442,#495,.T.);
#380=EDGE_CURVE('',#415,#443,#60,.F.);
#381=EDGE_CURVE('',#397,#387,#61,.T.);
#382=EDGE_CURVE('',#398,#385,#62,.F.);
#383=EDGE_CURVE('',#410,#447,#63,.F.);
#384=EDGE_CURVE('',#449,#449,#93,.T.);
#385=VERTEX_POINT('',#959);
#386=VERTEX_POINT('',#960);
#387=VERTEX_POINT('',#962);
#388=VERTEX_POINT('',#964);
#389=VERTEX_POINT('',#968);
#390=VERTEX_POINT('',#969);
#391=VERTEX_POINT('',#971);
#392=VERTEX_POINT('',#973);
#393=VERTEX_POINT('',#976);
#394=VERTEX_POINT('',#977);
#395=VERTEX_POINT('',#979);
#396=VERTEX_POINT('',#981);
#397=VERTEX_POINT('',#984);
#398=VERTEX_POINT('',#985);
#399=VERTEX_POINT('',#990);
#400=VERTEX_POINT('',#992);
#401=VERTEX_POINT('',#998);
#402=VERTEX_POINT('',#1000);
#403=VERTEX_POINT('',#1001);
#404=VERTEX_POINT('',#1003);
#405=VERTEX_POINT('',#1005);
#406=VERTEX_POINT('',#1008);
#407=VERTEX_POINT('',#1009);
#408=VERTEX_POINT('',#1011);
#409=VERTEX_POINT('',#1013);
#410=VERTEX_POINT('',#1033);
#411=VERTEX_POINT('',#1034);
#412=VERTEX_POINT('',#1036);
#413=VERTEX_POINT('',#1038);
#414=VERTEX_POINT('',#1040);
#415=VERTEX_POINT('',#1058);
#416=VERTEX_POINT('',#1082);
#417=VERTEX_POINT('',#1083);
#418=VERTEX_POINT('',#1090);
#419=VERTEX_POINT('',#1095);
#420=VERTEX_POINT('',#1097);
#421=VERTEX_POINT('',#1099);
#422=VERTEX_POINT('',#1101);
#423=VERTEX_POINT('',#1106);
#424=VERTEX_POINT('',#1113);
#425=VERTEX_POINT('',#1114);
#426=VERTEX_POINT('',#1119);
#427=VERTEX_POINT('',#1120);
#428=VERTEX_POINT('',#1130);
#429=VERTEX_POINT('',#1131);
#430=VERTEX_POINT('',#1133);
#431=VERTEX_POINT('',#1135);
#432=VERTEX_POINT('',#1147);
#433=VERTEX_POINT('',#1148);
#434=VERTEX_POINT('',#1153);
#435=VERTEX_POINT('',#1154);
#436=VERTEX_POINT('',#1164);
#437=VERTEX_POINT('',#1165);
#438=VERTEX_POINT('',#1167);
#439=VERTEX_POINT('',#1169);
#440=VERTEX_POINT('',#1191);
#441=VERTEX_POINT('',#1193);
#442=VERTEX_POINT('',#1195);
#443=VERTEX_POINT('',#1209);
#444=VERTEX_POINT('',#1223);
#445=VERTEX_POINT('',#1233);
#446=VERTEX_POINT('',#1240);
#447=VERTEX_POINT('',#1254);
#448=VERTEX_POINT('',#1270);
#449=VERTEX_POINT('',#1373);
#450=LINE('',#958,#496);
#451=LINE('',#963,#497);
#452=LINE('',#967,#498);
#453=LINE('',#972,#499);
#454=LINE('',#975,#500);
#455=LINE('',#980,#501);
#456=LINE('',#1002,#502);
#457=LINE('',#1006,#503);
#458=LINE('',#1010,#504);
#459=LINE('',#1014,#505);
#460=LINE('',#1037,#506);
#461=LINE('',#1084,#507);
#462=LINE('',#1098,#508);
#463=LINE('',#1115,#509);
#464=LINE('',#1116,#510);
#465=LINE('',#1121,#511);
#466=LINE('',#1122,#512);
#467=LINE('',#1124,#513);
#468=LINE('',#1125,#514);
#469=LINE('',#1132,#515);
#470=LINE('',#1136,#516);
#471=LINE('',#1138,#517);
#472=LINE('',#1139,#518);
#473=LINE('',#1141,#519);
#474=LINE('',#1142,#520);
#475=LINE('',#1149,#521);
#476=LINE('',#1150,#522);
#477=LINE('',#1155,#523);
#478=LINE('',#1156,#524);
#479=LINE('',#1158,#525);
#480=LINE('',#1159,#526);
#481=LINE('',#1166,#527);
#482=LINE('',#1170,#528);
#483=LINE('',#1172,#529);
#484=LINE('',#1173,#530);
#485=LINE('',#1175,#531);
#486=LINE('',#1176,#532);
#487=LINE('',#1192,#533);
#488=LINE('',#1196,#534);
#489=LINE('',#1210,#535);
#490=LINE('',#1224,#536);
#491=LINE('',#1230,#537);
#492=LINE('',#1234,#538);
#493=LINE('',#1241,#539);
#494=LINE('',#1255,#540);
#495=LINE('',#1271,#541);
#496=VECTOR('',#784,1.);
#497=VECTOR('',#787,1.);
#498=VECTOR('',#792,1.);
#499=VECTOR('',#795,1.);
#500=VECTOR('',#798,1.);
#501=VECTOR('',#801,1.);
#502=VECTOR('',#812,1.);
#503=VECTOR('',#815,1.);
#504=VECTOR('',#818,1.);
#505=VECTOR('',#821,1.);
#506=VECTOR('',#826,1.);
#507=VECTOR('',#831,1.);
#508=VECTOR('',#836,1.);
#509=VECTOR('',#843,1.);
#510=VECTOR('',#844,1.);
#511=VECTOR('',#849,1.);
#512=VECTOR('',#850,1.);
#513=VECTOR('',#853,1.);
#514=VECTOR('',#854,1.);
#515=VECTOR('',#863,1.);
#516=VECTOR('',#866,1.);
#517=VECTOR('',#869,1.);
#518=VECTOR('',#870,1.);
#519=VECTOR('',#873,1.);
#520=VECTOR('',#874,1.);
#521=VECTOR('',#883,1.);
#522=VECTOR('',#884,1.);
#523=VECTOR('',#889,1.);
#524=VECTOR('',#890,1.);
#525=VECTOR('',#893,1.);
#526=VECTOR('',#894,1.);
#527=VECTOR('',#903,1.);
#528=VECTOR('',#906,1.);
#529=VECTOR('',#909,1.);
#530=VECTOR('',#910,1.);
#531=VECTOR('',#913,1.);
#532=VECTOR('',#914,1.);
#533=VECTOR('',#921,1.);
#534=VECTOR('',#924,1.);
#535=VECTOR('',#925,1.);
#536=VECTOR('',#926,1.);
#537=VECTOR('',#929,1.);
#538=VECTOR('',#934,1.);
#539=VECTOR('',#937,1.);
#540=VECTOR('',#938,1.);
#541=VECTOR('',#943,1.);
#542=EDGE_LOOP('',(#94,#95,#96,#97));
#543=EDGE_LOOP('',(#98,#99,#100,#101));
#544=EDGE_LOOP('',(#102,#103,#104,#105));
#545=EDGE_LOOP('',(#106,#107,#108,#109));
#546=EDGE_LOOP('',(#110));
#547=EDGE_LOOP('',(#111,#112,#113,#114));
#548=EDGE_LOOP('',(#115,#116,#117,#118));
#549=EDGE_LOOP('',(#119,#120,#121,#122,#123,#124,#125,#126));
#550=EDGE_LOOP('',(#127,#128));
#551=EDGE_LOOP('',(#129,#130,#131,#132,#133,#134,#135,#136));
#552=EDGE_LOOP('',(#137));
#553=EDGE_LOOP('',(#138,#139,#140,#141));
#554=EDGE_LOOP('',(#142,#143,#144,#145));
#555=EDGE_LOOP('',(#146,#147,#148,#149));
#556=EDGE_LOOP('',(#150,#151,#152,#153));
#557=EDGE_LOOP('',(#154,#155,#156,#157));
#558=EDGE_LOOP('',(#158,#159,#160,#161));
#559=EDGE_LOOP('',(#162,#163,#164,#165));
#560=EDGE_LOOP('',(#166,#167,#168,#169));
#561=EDGE_LOOP('',(#170,#171,#172,#173));
#562=EDGE_LOOP('',(#174,#175,#176,#177));
#563=EDGE_LOOP('',(#178,#179,#180,#181));
#564=EDGE_LOOP('',(#182,#183,#184,#185));
#565=EDGE_LOOP('',(#186,#187,#188,#189));
#566=EDGE_LOOP('',(#190,#191,#192,#193));
#567=EDGE_LOOP('',(#194,#195,#196,#197));
#568=EDGE_LOOP('',(#198,#199,#200,#201));
#569=EDGE_LOOP('',(#202,#203,#204,#205));
#570=EDGE_LOOP('',(#206,#207,#208,#209));
#571=EDGE_LOOP('',(#210,#211,#212,#213));
#572=EDGE_LOOP('',(#214,#215,#216,#217));
#573=EDGE_LOOP('',(#218));
#574=EDGE_LOOP('',(#219,#220,#221,#222));
#575=EDGE_LOOP('',(#223,#224,#225,#226));
#576=EDGE_LOOP('',(#227,#228,#229,#230));
#577=EDGE_LOOP('',(#231,#232,#233,#234,#235));
#578=EDGE_LOOP('',(#236));
#579=EDGE_LOOP('',(#237,#238,#239,#240));
#580=EDGE_LOOP('',(#241,#242,#243,#244,#245));
#581=EDGE_LOOP('',(#246,#247,#248,#249));
#582=EDGE_LOOP('',(#250,#251,#252,#253));
#583=EDGE_LOOP('',(#254));
#584=EDGE_LOOP('',(#255,#256,#257,#258));
#585=EDGE_LOOP('',(#259,#260));
#586=EDGE_LOOP('',(#261,#262,#263,#264));
#587=EDGE_LOOP('',(#265,#266,#267,#268,#269));
#588=EDGE_LOOP('',(#270,#271,#272,#273));
#589=EDGE_LOOP('',(#274,#275,#276,#277,#278));
#590=EDGE_LOOP('',(#279,#280,#281,#282));
#591=EDGE_LOOP('',(#283));
#592=EDGE_LOOP('',(#284));
#593=EDGE_LOOP('',(#285));
#594=EDGE_LOOP('',(#286));
#595=EDGE_LOOP('',(#287));
#596=FACE_BOUND('',#542,.T.);
#597=FACE_BOUND('',#543,.T.);
#598=FACE_BOUND('',#544,.T.);
#599=FACE_BOUND('',#545,.T.);
#600=FACE_BOUND('',#546,.T.);
#601=FACE_BOUND('',#547,.T.);
#602=FACE_BOUND('',#548,.T.);
#603=FACE_BOUND('',#549,.T.);
#604=FACE_BOUND('',#550,.T.);
#605=FACE_BOUND('',#551,.T.);
#606=FACE_BOUND('',#552,.T.);
#607=FACE_BOUND('',#553,.T.);
#608=FACE_BOUND('',#554,.T.);
#609=FACE_BOUND('',#555,.T.);
#610=FACE_BOUND('',#556,.T.);
#611=FACE_BOUND('',#557,.T.);
#612=FACE_BOUND('',#558,.T.);
#613=FACE_BOUND('',#559,.T.);
#614=FACE_BOUND('',#560,.T.);
#615=FACE_BOUND('',#561,.T.);
#616=FACE_BOUND('',#562,.T.);
#617=FACE_BOUND('',#563,.T.);
#618=FACE_BOUND('',#564,.T.);
#619=FACE_BOUND('',#565,.T.);
#620=FACE_BOUND('',#566,.T.);
#621=FACE_BOUND('',#567,.T.);
#622=FACE_BOUND('',#568,.T.);
#623=FACE_BOUND('',#569,.T.);
#624=FACE_BOUND('',#570,.T.);
#625=FACE_BOUND('',#571,.T.);
#626=FACE_BOUND('',#572,.T.);
#627=FACE_BOUND('',#573,.T.);
#628=FACE_BOUND('',#574,.T.);
#629=FACE_BOUND('',#575,.T.);
#630=FACE_BOUND('',#576,.T.);
#631=FACE_BOUND('',#577,.T.);
#632=FACE_BOUND('',#578,.T.);
#633=FACE_BOUND('',#579,.T.);
#634=FACE_BOUND('',#580,.T.);
#635=FACE_BOUND('',#581,.T.);
#636=FACE_BOUND('',#582,.T.);
#637=FACE_BOUND('',#583,.T.);
#638=FACE_BOUND('',#584,.T.);
#639=FACE_BOUND('',#585,.T.);
#640=FACE_BOUND('',#586,.T.);
#641=FACE_BOUND('',#587,.T.);
#642=FACE_BOUND('',#588,.T.);
#643=FACE_BOUND('',#589,.T.);
#644=FACE_BOUND('',#590,.T.);
#645=FACE_BOUND('',#591,.T.);
#646=FACE_BOUND('',#592,.T.);
#647=FACE_BOUND('',#593,.T.);
#648=FACE_BOUND('',#594,.T.);
#649=FACE_BOUND('',#595,.T.);
#650=CYLINDRICAL_SURFACE('',#716,0.022);
#651=CYLINDRICAL_SURFACE('',#719,0.0201);
#652=CYLINDRICAL_SURFACE('',#740,0.0186);
#653=CYLINDRICAL_SURFACE('',#745,0.0186);
#654=CYLINDRICAL_SURFACE('',#754,0.0186);
#655=CYLINDRICAL_SURFACE('',#759,0.0186);
#656=CYLINDRICAL_SURFACE('',#766,0.00515);
#657=CYLINDRICAL_SURFACE('',#768,0.008);
#658=CYLINDRICAL_SURFACE('',#771,0.008);
#659=CYLINDRICAL_SURFACE('',#776,0.002075);
#660=CYLINDRICAL_SURFACE('',#777,0.002075);
#661=ADVANCED_FACE('',(#596),#650,.T.);
#662=ADVANCED_FACE('',(#597,#598,#599,#600,#601,#602),#651,.F.);
#663=ADVANCED_FACE('',(#603,#604),#29,.T.);
#664=ADVANCED_FACE('',(#605,#606),#30,.F.);
#665=ADVANCED_FACE('',(#607),#20,.F.);
#666=ADVANCED_FACE('',(#608),#652,.F.);
#667=ADVANCED_FACE('',(#609),#21,.F.);
#668=ADVANCED_FACE('',(#610),#31,.T.);
#669=ADVANCED_FACE('',(#611),#32,.F.);
#670=ADVANCED_FACE('',(#612),#653,.F.);
#671=ADVANCED_FACE('',(#613),#22,.F.);
#672=ADVANCED_FACE('',(#614),#23,.F.);
#673=ADVANCED_FACE('',(#615),#33,.F.);
#674=ADVANCED_FACE('',(#616),#34,.T.);
#675=ADVANCED_FACE('',(#617),#24,.F.);
#676=ADVANCED_FACE('',(#618),#654,.F.);
#677=ADVANCED_FACE('',(#619),#25,.F.);
#678=ADVANCED_FACE('',(#620),#35,.F.);
#679=ADVANCED_FACE('',(#621),#36,.T.);
#680=ADVANCED_FACE('',(#622),#655,.F.);
#681=ADVANCED_FACE('',(#623),#26,.F.);
#682=ADVANCED_FACE('',(#624),#27,.F.);
#683=ADVANCED_FACE('',(#625),#37,.T.);
#684=ADVANCED_FACE('',(#626),#38,.F.);
#685=ADVANCED_FACE('',(#627,#628),#656,.F.);
#686=ADVANCED_FACE('',(#629),#12,.F.);
#687=ADVANCED_FACE('',(#630),#13,.F.);
#688=ADVANCED_FACE('',(#631),#657,.T.);
#689=ADVANCED_FACE('',(#632,#633),#39,.T.);
#690=ADVANCED_FACE('',(#634),#658,.T.);
#691=ADVANCED_FACE('',(#635),#14,.T.);
#692=ADVANCED_FACE('',(#636),#15,.T.);
#693=ADVANCED_FACE('',(#637,#638),#40,.T.);
#694=ADVANCED_FACE('',(#639),#41,.F.);
#695=ADVANCED_FACE('',(#640),#16,.T.);
#696=ADVANCED_FACE('',(#641),#17,.T.);
#697=ADVANCED_FACE('',(#642),#28,.T.);
#698=ADVANCED_FACE('',(#643),#18,.T.);
#699=ADVANCED_FACE('',(#644),#19,.T.);
#700=ADVANCED_FACE('',(#645,#646),#659,.F.);
#701=ADVANCED_FACE('',(#647,#648),#660,.F.);
#702=ADVANCED_FACE('',(#649),#42,.T.);
#703=CLOSED_SHELL('',(#661,#662,#663,#664,#665,#666,#667,#668,#669,#670,
#671,#672,#673,#674,#675,#676,#677,#678,#679,#680,#681,#682,#683,#684,#685,
#686,#687,#688,#689,#690,#691,#692,#693,#694,#695,#696,#697,#698,#699,#700,
#701,#702));
#704=STYLED_ITEM('',(#705),#712);
#705=PRESENTATION_STYLE_ASSIGNMENT((#706));
#706=SURFACE_STYLE_USAGE(.BOTH.,#707);
#707=SURFACE_SIDE_STYLE('',(#708));
#708=SURFACE_STYLE_FILL_AREA(#709);
#709=FILL_AREA_STYLE('',(#710));
#710=FILL_AREA_STYLE_COLOUR('',#711);
#711=COLOUR_RGB('',0.917647058823529,0.917647058823529,0.917647058823529);
#712=MANIFOLD_SOLID_BREP('Base Ring',#703);
#713=SHAPE_DEFINITION_REPRESENTATION(#1381,#714);
#714=SHAPE_REPRESENTATION('Base Ring',(#715),#1376);
#715=AXIS2_PLACEMENT_3D('',#956,#780,#781);
#716=AXIS2_PLACEMENT_3D('',#957,#782,#783);
#717=AXIS2_PLACEMENT_3D('',#961,#785,#786);
#718=AXIS2_PLACEMENT_3D('',#965,#788,#789);
#719=AXIS2_PLACEMENT_3D('',#966,#790,#791);
#720=AXIS2_PLACEMENT_3D('',#970,#793,#794);
#721=AXIS2_PLACEMENT_3D('',#974,#796,#797);
#722=AXIS2_PLACEMENT_3D('',#978,#799,#800);
#723=AXIS2_PLACEMENT_3D('',#982,#802,#803);
#724=AXIS2_PLACEMENT_3D('',#983,#804,#805);
#725=AXIS2_PLACEMENT_3D('',#991,#806,#807);
#726=AXIS2_PLACEMENT_3D('',#997,#808,#809);
#727=AXIS2_PLACEMENT_3D('',#999,#810,#811);
#728=AXIS2_PLACEMENT_3D('',#1004,#813,#814);
#729=AXIS2_PLACEMENT_3D('',#1007,#816,#817);
#730=AXIS2_PLACEMENT_3D('',#1012,#819,#820);
#731=AXIS2_PLACEMENT_3D('',#1015,#822,#823);
#732=AXIS2_PLACEMENT_3D('',#1035,#824,#825);
#733=AXIS2_PLACEMENT_3D('',#1039,#827,#828);
#734=AXIS2_PLACEMENT_3D('',#1081,#829,#830);
#735=AXIS2_PLACEMENT_3D('',#1085,#832,#833);
#736=AXIS2_PLACEMENT_3D('',#1096,#834,#835);
#737=AXIS2_PLACEMENT_3D('',#1100,#837,#838);
#738=AXIS2_PLACEMENT_3D('',#1111,#839,#840);
#739=AXIS2_PLACEMENT_3D('',#1112,#841,#842);
#740=AXIS2_PLACEMENT_3D('',#1117,#845,#846);
#741=AXIS2_PLACEMENT_3D('',#1118,#847,#848);
#742=AXIS2_PLACEMENT_3D('',#1123,#851,#852);
#743=AXIS2_PLACEMENT_3D('',#1126,#855,#856);
#744=AXIS2_PLACEMENT_3D('',#1127,#857,#858);
#745=AXIS2_PLACEMENT_3D('',#1128,#859,#860);
#746=AXIS2_PLACEMENT_3D('',#1129,#861,#862);
#747=AXIS2_PLACEMENT_3D('',#1134,#864,#865);
#748=AXIS2_PLACEMENT_3D('',#1137,#867,#868);
#749=AXIS2_PLACEMENT_3D('',#1140,#871,#872);
#750=AXIS2_PLACEMENT_3D('',#1143,#875,#876);
#751=AXIS2_PLACEMENT_3D('',#1144,#877,#878);
#752=AXIS2_PLACEMENT_3D('',#1145,#879,#880);
#753=AXIS2_PLACEMENT_3D('',#1146,#881,#882);
#754=AXIS2_PLACEMENT_3D('',#1151,#885,#886);
#755=AXIS2_PLACEMENT_3D('',#1152,#887,#888);
#756=AXIS2_PLACEMENT_3D('',#1157,#891,#892);
#757=AXIS2_PLACEMENT_3D('',#1160,#895,#896);
#758=AXIS2_PLACEMENT_3D('',#1161,#897,#898);
#759=AXIS2_PLACEMENT_3D('',#1162,#899,#900);
#760=AXIS2_PLACEMENT_3D('',#1163,#901,#902);
#761=AXIS2_PLACEMENT_3D('',#1168,#904,#905);
#762=AXIS2_PLACEMENT_3D('',#1171,#907,#908);
#763=AXIS2_PLACEMENT_3D('',#1174,#911,#912);
#764=AXIS2_PLACEMENT_3D('',#1177,#915,#916);
#765=AXIS2_PLACEMENT_3D('',#1178,#917,#918);
#766=AXIS2_PLACEMENT_3D('',#1179,#919,#920);
#767=AXIS2_PLACEMENT_3D('',#1194,#922,#923);
#768=AXIS2_PLACEMENT_3D('',#1225,#927,#928);
#769=AXIS2_PLACEMENT_3D('',#1231,#930,#931);
#770=AXIS2_PLACEMENT_3D('',#1232,#932,#933);
#771=AXIS2_PLACEMENT_3D('',#1235,#935,#936);
#772=AXIS2_PLACEMENT_3D('',#1268,#939,#940);
#773=AXIS2_PLACEMENT_3D('',#1269,#941,#942);
#774=AXIS2_PLACEMENT_3D('',#1272,#944,#945);
#775=AXIS2_PLACEMENT_3D('',#1321,#946,#947);
#776=AXIS2_PLACEMENT_3D('',#1370,#948,#949);
#777=AXIS2_PLACEMENT_3D('',#1371,#950,#951);
#778=AXIS2_PLACEMENT_3D('',#1372,#952,#953);
#779=AXIS2_PLACEMENT_3D('',#1374,#954,#955);
#780=DIRECTION('',(0.,0.,1.));
#781=DIRECTION('',(1.,0.,0.));
#782=DIRECTION('',(0.,0.,-1.));
#783=DIRECTION('',(-1.,0.,0.));
#784=DIRECTION('',(0.,0.,-1.));
#785=DIRECTION('',(0.,0.,1.));
#786=DIRECTION('',(1.,0.,0.));
#787=DIRECTION('',(0.,0.,-1.));
#788=DIRECTION('',(0.,0.,1.));
#789=DIRECTION('',(1.,0.,0.));
#790=DIRECTION('',(0.,0.,-1.));
#791=DIRECTION('',(-1.,0.,0.));
#792=DIRECTION('',(0.,0.,1.));
#793=DIRECTION('',(0.,0.,1.));
#794=DIRECTION('',(1.,0.,0.));
#795=DIRECTION('',(0.,0.,1.));
#796=DIRECTION('',(0.,0.,1.));
#797=DIRECTION('',(1.,0.,0.));
#798=DIRECTION('',(0.,0.,1.));
#799=DIRECTION('',(0.,0.,1.));
#800=DIRECTION('',(1.,0.,0.));
#801=DIRECTION('',(0.,0.,1.));
#802=DIRECTION('',(0.,0.,1.));
#803=DIRECTION('',(1.,0.,0.));
#804=DIRECTION('',(0.,0.,-1.));
#805=DIRECTION('',(-1.,0.,0.));
#806=DIRECTION('',(0.,0.,1.));
#807=DIRECTION('',(1.,0.,0.));
#808=DIRECTION('',(0.,0.,1.));
#809=DIRECTION('',(1.,0.,0.));
#810=DIRECTION('',(0.,0.,-1.));
#811=DIRECTION('',(-1.,0.,0.));
#812=DIRECTION('',(0.,0.,1.));
#813=DIRECTION('',(0.,0.,-1.));
#814=DIRECTION('',(-1.,0.,0.));
#815=DIRECTION('',(0.,0.,1.));
#816=DIRECTION('',(0.,0.,-1.));
#817=DIRECTION('',(-1.,0.,0.));
#818=DIRECTION('',(0.,0.,1.));
#819=DIRECTION('',(0.,0.,-1.));
#820=DIRECTION('',(-1.,0.,0.));
#821=DIRECTION('',(0.,0.,1.));
#822=DIRECTION('',(0.,0.,1.));
#823=DIRECTION('',(1.,0.,0.));
#824=DIRECTION('',(0.,0.,-1.));
#825=DIRECTION('',(-1.,0.,0.));
#826=DIRECTION('',(-1.,2.16840434497101E-16,0.));
#827=DIRECTION('',(0.,0.,-1.));
#828=DIRECTION('',(-1.,0.,0.));
#829=DIRECTION('',(0.,0.,-1.));
#830=DIRECTION('',(-1.,0.,0.));
#831=DIRECTION('',(1.,0.,0.));
#832=DIRECTION('',(0.,0.,1.));
#833=DIRECTION('',(1.,0.,0.));
#834=DIRECTION('',(0.,0.,-1.));
#835=DIRECTION('',(-1.,0.,0.));
#836=DIRECTION('',(-1.,2.16840434497101E-16,0.));
#837=DIRECTION('',(0.,0.,-1.));
#838=DIRECTION('',(-1.,0.,0.));
#839=DIRECTION('',(0.,0.,1.));
#840=DIRECTION('',(1.,0.,0.));
#841=DIRECTION('',(0.,0.,1.));
#842=DIRECTION('',(1.,0.,0.));
#843=DIRECTION('',(-0.593029645775783,-0.385117954958023,0.707106781186548));
#844=DIRECTION('',(-0.5,-0.5,0.707106781186548));
#845=DIRECTION('',(0.,0.,1.));
#846=DIRECTION('',(1.,0.,0.));
#847=DIRECTION('',(0.,0.,1.));
#848=DIRECTION('',(1.,0.,0.));
#849=DIRECTION('',(0.,0.,-1.));
#850=DIRECTION('',(0.,0.,-1.));
#851=DIRECTION('',(0.,0.,-1.));
#852=DIRECTION('',(-1.,0.,0.));
#853=DIRECTION('',(-0.593029645775783,-0.385117954958023,-0.707106781186548));
#854=DIRECTION('',(-0.5,-0.5,-0.707106781186548));
#855=DIRECTION('',(-0.544639035015027,0.838670567945424,0.));
#856=DIRECTION('',(-0.838670567945424,-0.544639035015027,0.));
#857=DIRECTION('',(-0.707106781186547,0.707106781186548,0.));
#858=DIRECTION('',(-0.707106781186548,-0.707106781186547,0.));
#859=DIRECTION('',(0.,0.,1.));
#860=DIRECTION('',(1.,0.,0.));
#861=DIRECTION('',(0.,0.,1.));
#862=DIRECTION('',(1.,0.,0.));
#863=DIRECTION('',(0.,0.,-1.));
#864=DIRECTION('',(0.,0.,1.));
#865=DIRECTION('',(1.,0.,0.));
#866=DIRECTION('',(0.,0.,-1.));
#867=DIRECTION('',(0.,0.,1.));
#868=DIRECTION('',(1.,0.,0.));
#869=DIRECTION('',(0.5,0.5,0.707106781186548));
#870=DIRECTION('',(0.593029645775782,0.385117954958023,0.707106781186548));
#871=DIRECTION('',(0.,0.,-1.));
#872=DIRECTION('',(-1.,0.,0.));
#873=DIRECTION('',(0.593029645775783,0.385117954958023,-0.707106781186548));
#874=DIRECTION('',(0.5,0.5,-0.707106781186548));
#875=DIRECTION('',(-0.544639035015027,0.838670567945424,0.));
#876=DIRECTION('',(-0.838670567945424,-0.544639035015027,0.));
#877=DIRECTION('',(-0.707106781186547,0.707106781186548,0.));
#878=DIRECTION('',(-0.707106781186548,-0.707106781186547,0.));
#879=DIRECTION('',(0.,0.,1.));
#880=DIRECTION('',(1.,0.,0.));
#881=DIRECTION('',(0.,0.,-1.));
#882=DIRECTION('',(-1.,0.,0.));
#883=DIRECTION('',(0.385117954958023,-0.593029645775783,0.707106781186548));
#884=DIRECTION('',(0.5,-0.5,0.707106781186548));
#885=DIRECTION('',(0.,0.,-1.));
#886=DIRECTION('',(-1.,0.,0.));
#887=DIRECTION('',(0.,0.,-1.));
#888=DIRECTION('',(-1.,0.,0.));
#889=DIRECTION('',(0.,0.,-1.));
#890=DIRECTION('',(0.,0.,-1.));
#891=DIRECTION('',(0.,0.,-1.));
#892=DIRECTION('',(-1.,0.,0.));
#893=DIRECTION('',(0.5,-0.5,-0.707106781186548));
#894=DIRECTION('',(0.385117954958023,-0.593029645775783,-0.707106781186548));
#895=DIRECTION('',(-0.707106781186548,-0.707106781186547,0.));
#896=DIRECTION('',(0.707106781186547,-0.707106781186548,0.));
#897=DIRECTION('',(-0.838670567945424,-0.544639035015027,0.));
#898=DIRECTION('',(0.544639035015027,-0.838670567945424,0.));
#899=DIRECTION('',(0.,0.,-1.));
#900=DIRECTION('',(-1.,0.,0.));
#901=DIRECTION('',(0.,0.,-1.));
#902=DIRECTION('',(-1.,0.,0.));
#903=DIRECTION('',(0.,0.,-1.));
#904=DIRECTION('',(0.,0.,-1.));
#905=DIRECTION('',(-1.,0.,0.));
#906=DIRECTION('',(0.,0.,-1.));
#907=DIRECTION('',(0.,0.,1.));
#908=DIRECTION('',(1.,0.,0.));
#909=DIRECTION('',(-0.5,0.5,0.707106781186548));
#910=DIRECTION('',(-0.385117954958022,0.593029645775782,0.707106781186548));
#911=DIRECTION('',(0.,0.,-1.));
#912=DIRECTION('',(-1.,0.,0.));
#913=DIRECTION('',(-0.5,0.5,-0.707106781186548));
#914=DIRECTION('',(-0.385117954958023,0.593029645775783,-0.707106781186548));
#915=DIRECTION('',(-0.707106781186548,-0.707106781186547,0.));
#916=DIRECTION('',(0.707106781186547,-0.707106781186548,0.));
#917=DIRECTION('',(-0.838670567945424,-0.544639035015027,0.));
#918=DIRECTION('',(0.544639035015027,-0.838670567945424,0.));
#919=DIRECTION('',(0.,0.,-1.));
#920=DIRECTION('',(-1.,0.,0.));
#921=DIRECTION('',(0.,0.,-1.));
#922=DIRECTION('',(0.,0.,-1.));
#923=DIRECTION('',(-1.,0.,0.));
#924=DIRECTION('',(0.,0.,-1.));
#925=DIRECTION('',(0.,0.,-1.));
#926=DIRECTION('',(0.,0.,-1.));
#927=DIRECTION('',(0.,0.,-1.));
#928=DIRECTION('',(-1.,0.,0.));
#929=DIRECTION('',(0.,0.,-1.));
#930=DIRECTION('',(-2.16840434497101E-16,-1.,0.));
#931=DIRECTION('',(1.,-2.16840434497101E-16,0.));
#932=DIRECTION('',(-2.16840434497101E-16,-1.,0.));
#933=DIRECTION('',(1.,-2.16840434497101E-16,0.));
#934=DIRECTION('',(0.,0.,-1.));
#935=DIRECTION('',(0.,0.,-1.));
#936=DIRECTION('',(-1.,0.,0.));
#937=DIRECTION('',(0.,0.,-1.));
#938=DIRECTION('',(0.,0.,-1.));
#939=DIRECTION('',(0.,1.,0.));
#940=DIRECTION('',(0.,0.,1.));
#941=DIRECTION('',(0.,1.,0.));
#942=DIRECTION('',(0.,0.,1.));
#943=DIRECTION('',(1.,0.,0.));
#944=DIRECTION('',(0.,0.,-1.));
#945=DIRECTION('',(1.,0.,0.));
#946=DIRECTION('',(0.,0.,-1.));
#947=DIRECTION('',(-1.,0.,0.));
#948=DIRECTION('',(-2.16840434497101E-16,-1.,0.));
#949=DIRECTION('',(1.,-2.16840434497101E-16,0.));
#950=DIRECTION('',(-2.16840434497101E-16,-1.,0.));
#951=DIRECTION('',(1.,-2.16840434497101E-16,0.));
#952=DIRECTION('',(-2.16840434497101E-16,-1.,0.));
#953=DIRECTION('',(1.,-2.16840434497101E-16,0.));
#954=DIRECTION('',(-2.16840434497101E-16,-1.,0.));
#955=DIRECTION('',(1.,-2.16840434497101E-16,0.));
#956=CARTESIAN_POINT('',(0.,0.,0.));
#957=CARTESIAN_POINT('',(0.,1.34711147906209E-18,0.01));
#958=CARTESIAN_POINT('',(0.0205615962565918,-0.0078243695836091,0.01));
#959=CARTESIAN_POINT('',(0.0205615962565918,-0.0078243695836091,0.008));
#960=CARTESIAN_POINT('',(0.0205615962565918,-0.0078243695836091,0.));
#961=CARTESIAN_POINT('',(0.,1.34711147906209E-18,0.008));
#962=CARTESIAN_POINT('',(0.0205615962565919,0.00782436958360908,0.008));
#963=CARTESIAN_POINT('',(0.0205615962565919,0.00782436958360908,0.01));
#964=CARTESIAN_POINT('',(0.0205615962565919,0.00782436958360908,0.));
#965=CARTESIAN_POINT('',(0.,1.34711147906209E-18,0.));
#966=CARTESIAN_POINT('',(0.,1.23077003314309E-18,0.01));
#967=CARTESIAN_POINT('',(0.016857278415703,0.010947244603802,0.0045));
#968=CARTESIAN_POINT('',(0.016857278415703,0.010947244603802,0.003));
#969=CARTESIAN_POINT('',(0.016857278415703,0.010947244603802,0.009));
#970=CARTESIAN_POINT('',(0.,0.,0.003));
#971=CARTESIAN_POINT('',(0.0142128463018496,0.0142128463018496,0.003));
#972=CARTESIAN_POINT('',(0.0142128463018496,0.0142128463018496,0.0045));
#973=CARTESIAN_POINT('',(0.0142128463018496,0.0142128463018496,0.009));
#974=CARTESIAN_POINT('',(0.,0.,0.009));
#975=CARTESIAN_POINT('',(-0.016857278415703,-0.010947244603802,0.0045));
#976=CARTESIAN_POINT('',(-0.016857278415703,-0.010947244603802,0.003));
#977=CARTESIAN_POINT('',(-0.016857278415703,-0.010947244603802,0.009));
#978=CARTESIAN_POINT('',(0.,0.,0.003));
#979=CARTESIAN_POINT('',(-0.0142128463018496,-0.0142128463018496,0.003));
#980=CARTESIAN_POINT('',(-0.0142128463018496,-0.0142128463018496,0.0045));
#981=CARTESIAN_POINT('',(-0.0142128463018496,-0.0142128463018496,0.009));
#982=CARTESIAN_POINT('',(0.,0.,0.009));
#983=CARTESIAN_POINT('',(0.,1.34711147906209E-18,0.0099));
#984=CARTESIAN_POINT('',(0.0189319265767571,0.00675219639023331,0.0099));
#985=CARTESIAN_POINT('',(0.0189319265767571,-0.00675219639023328,0.0099));
#986=CARTESIAN_POINT('',(0.0189319265767571,-0.00675219639023331,0.00989999999999999));
#987=CARTESIAN_POINT('',(0.0189564968405575,-0.00668330585397548,0.0099333333333162));
#988=CARTESIAN_POINT('',(0.0189806910766063,-0.00661428120496008,0.0099666666666324));
#989=CARTESIAN_POINT('',(0.0190045078432988,-0.00654512655599539,0.0099999999999486));
#990=CARTESIAN_POINT('',(0.0190045078432911,-0.00654512655601773,0.01));
#991=CARTESIAN_POINT('',(0.,1.23077003314309E-18,0.01));
#992=CARTESIAN_POINT('',(0.0190045078432988,0.00654512655599538,0.01));
#993=CARTESIAN_POINT('',(0.0190045078432988,0.00654512655599532,0.0099999999999486));
#994=CARTESIAN_POINT('',(0.0189806910766063,0.00661428120496004,0.0099666666666324));
#995=CARTESIAN_POINT('',(0.0189564968405575,0.00668330585397547,0.00993333333331619));
#996=CARTESIAN_POINT('',(0.0189319265767571,0.00675219639023333,0.00989999999999999));
#997=CARTESIAN_POINT('',(0.,1.23077003314309E-18,0.));
#998=CARTESIAN_POINT('',(0.0201,1.23077003314309E-18,0.));
#999=CARTESIAN_POINT('',(0.,0.,0.003));
#1000=CARTESIAN_POINT('',(0.0142128463018496,-0.0142128463018496,0.003));
#1001=CARTESIAN_POINT('',(0.010947244603802,-0.016857278415703,0.003));
#1002=CARTESIAN_POINT('',(0.0142128463018496,-0.0142128463018496,0.0045));
#1003=CARTESIAN_POINT('',(0.0142128463018496,-0.0142128463018496,0.009));
#1004=CARTESIAN_POINT('',(0.,0.,0.009));
#1005=CARTESIAN_POINT('',(0.010947244603802,-0.016857278415703,0.009));
#1006=CARTESIAN_POINT('',(0.010947244603802,-0.016857278415703,0.0045));
#1007=CARTESIAN_POINT('',(0.,0.,0.003));
#1008=CARTESIAN_POINT('',(-0.0142128463018496,0.0142128463018496,0.003));
#1009=CARTESIAN_POINT('',(-0.010947244603802,0.016857278415703,0.003));
#1010=CARTESIAN_POINT('',(-0.0142128463018496,0.0142128463018496,0.0045));
#1011=CARTESIAN_POINT('',(-0.0142128463018496,0.0142128463018496,0.009));
#1012=CARTESIAN_POINT('',(0.,0.,0.009));
#1013=CARTESIAN_POINT('',(-0.010947244603802,0.016857278415703,0.009));
#1014=CARTESIAN_POINT('',(-0.010947244603802,0.016857278415703,0.0045));
#1015=CARTESIAN_POINT('',(0.,0.,0.01));
#1016=CARTESIAN_POINT('',(0.0237058364758559,-0.00316443352152014,0.01));
#1017=CARTESIAN_POINT('',(0.02389021358453,-0.00308344299844539,0.01));
#1018=CARTESIAN_POINT('',(0.0241704518386163,-0.0029745252381946,0.01));
#1019=CARTESIAN_POINT('',(0.0245392615554297,-0.00285717831378787,0.01));
#1020=CARTESIAN_POINT('',(0.0248378211402931,-0.00277762508403662,0.01));
#1021=CARTESIAN_POINT('',(0.0250608412561264,-0.0027284544754793,0.01));
#1022=CARTESIAN_POINT('',(0.0253411663129122,-0.00267467105587592,0.01));
#1023=CARTESIAN_POINT('',(0.0256015060515807,-0.00263275080283903,0.01));
#1024=CARTESIAN_POINT('',(0.0258098415750046,-0.00260226802049874,0.01));
#1025=CARTESIAN_POINT('',(0.0260195218019455,-0.00257428505035958,0.01));
#1026=CARTESIAN_POINT('',(0.0260618965562488,-0.00256911152695381,0.01));
#1027=CARTESIAN_POINT('',(0.0261919353953126,-0.00255300480514136,0.01));
#1028=CARTESIAN_POINT('',(0.0264224321889486,-0.00252604013207992,0.01));
#1029=CARTESIAN_POINT('',(0.0268569534903186,-0.00247807077865797,0.01));
#1030=CARTESIAN_POINT('',(0.0275163178044349,-0.00240945700913942,0.01));
#1031=CARTESIAN_POINT('',(0.0280533887304686,-0.00235560803282738,0.01));
#1032=CARTESIAN_POINT('',(0.0283458365769488,-0.00232671854826519,0.01));
#1033=CARTESIAN_POINT('',(0.0237058364758559,-0.00316443352152013,0.01));
#1034=CARTESIAN_POINT('',(0.0283458339952421,-0.00232671906554525,0.0099999997390251));
#1035=CARTESIAN_POINT('',(0.036,9.54097911787244E-18,0.01));
#1036=CARTESIAN_POINT('',(0.032,-0.00692820323027551,0.01));
#1037=CARTESIAN_POINT('',(0.036,-0.00692820323027551,0.01));
#1038=CARTESIAN_POINT('',(0.04,-0.00692820323027551,0.01));
#1039=CARTESIAN_POINT('',(0.036,8.67361737988404E-19,0.01));
#1040=CARTESIAN_POINT('',(0.0283458365769488,0.00232671854826519,0.01));
#1041=CARTESIAN_POINT('',(0.0283458365769488,0.00232671854826519,0.01));
#1042=CARTESIAN_POINT('',(0.0280536187236436,0.00235558531293268,0.01));
#1043=CARTESIAN_POINT('',(0.0275168943167012,0.00240939999191172,0.01));
#1044=CARTESIAN_POINT('',(0.0268576956154868,0.00247799770021848,0.01));
#1045=CARTESIAN_POINT('',(0.0264230515966529,0.00252597826307415,0.01));
#1046=CARTESIAN_POINT('',(0.0261922657794269,0.00255297311454853,0.01));
#1047=CARTESIAN_POINT('',(0.0260621000970625,0.00256908975975592,0.01));
#1048=CARTESIAN_POINT('',(0.0260193792491086,0.00257430547933948,0.01));
#1049=CARTESIAN_POINT('',(0.0258102082455385,0.00260220807177703,0.01));
#1050=CARTESIAN_POINT('',(0.0256021074488629,0.00263265032651505,0.01));
#1051=CARTESIAN_POINT('',(0.0253419211485346,0.00267454775641306,0.01));
#1052=CARTESIAN_POINT('',(0.0250615182780664,0.00272833567570045,0.01));
#1053=CARTESIAN_POINT('',(0.0248375585224438,0.00277769265062,0.01));
#1054=CARTESIAN_POINT('',(0.0245396350048872,0.00285702684723323,0.01));
#1055=CARTESIAN_POINT('',(0.0241708208407824,0.00297435560206366,0.01));
#1056=CARTESIAN_POINT('',(0.0238904508132662,0.0030833387920199,0.01));
#1057=CARTESIAN_POINT('',(0.0237058364758559,0.00316443352152014,0.01));
#1058=CARTESIAN_POINT('',(0.0237058364758559,0.00316443352152014,0.01));
#1059=CARTESIAN_POINT('',(0.0237058364758559,0.00316443352152014,0.01));
#1060=CARTESIAN_POINT('',(0.0233003310857569,0.00333889080419169,0.01));
#1061=CARTESIAN_POINT('',(0.0226864866413029,0.00365292717721273,0.01));
#1062=CARTESIAN_POINT('',(0.0219473580376417,0.00412098414627511,0.01));
#1063=CARTESIAN_POINT('',(0.0215335204756224,0.00440599085473433,0.01));
#1064=CARTESIAN_POINT('',(0.0211859154518173,0.0046601606955483,0.01));
#1065=CARTESIAN_POINT('',(0.0209708058716044,0.00482530072743962,0.01));
#1066=CARTESIAN_POINT('',(0.0206230442835706,0.00510085953234917,0.01));
#1067=CARTESIAN_POINT('',(0.0200069369021026,0.00561673881648727,0.01));
#1068=CARTESIAN_POINT('',(0.0194184236612547,0.00615142483392306,0.01));
#1069=CARTESIAN_POINT('',(0.0190045078432247,0.00654512655599489,0.01));
#1070=CARTESIAN_POINT('',(0.0190045078432247,-0.00654512655599487,0.01));
#1071=CARTESIAN_POINT('',(0.0194182112573269,-0.00615162686483979,0.01));
#1072=CARTESIAN_POINT('',(0.0200065556052483,-0.00561709936732569,0.01));
#1073=CARTESIAN_POINT('',(0.020622778290056,-0.00510111536894855,0.01));
#1074=CARTESIAN_POINT('',(0.0209706374672827,-0.00482545594940783,0.01));
#1075=CARTESIAN_POINT('',(0.0211859943248547,-0.00466010462146849,0.01));
#1076=CARTESIAN_POINT('',(0.0215333733877948,-0.00440605992908529,0.01));
#1077=CARTESIAN_POINT('',(0.0219471321177042,-0.00412107803114064,0.01));
#1078=CARTESIAN_POINT('',(0.0226861590741842,-0.00365307058686981,0.01));
#1079=CARTESIAN_POINT('',(0.0233001493231707,-0.00333896900242939,0.01));
#1080=CARTESIAN_POINT('',(0.0237058364758559,-0.00316443352152013,0.01));
#1081=CARTESIAN_POINT('',(0.036,1.7347234759768E-18,0.01));
#1082=CARTESIAN_POINT('',(0.0329504098636046,-0.00415,0.01));
#1083=CARTESIAN_POINT('',(0.0390495901363954,-0.00415,0.01));
#1084=CARTESIAN_POINT('',(0.036,-0.00415,0.01));
#1085=CARTESIAN_POINT('',(0.,0.,0.));
#1086=CARTESIAN_POINT('',(0.0245,0.005,0.));
#1087=CARTESIAN_POINT('',(0.0236504384385887,0.00536756544178478,0.));
#1088=CARTESIAN_POINT('',(0.0224208102355372,0.00605594755630471,0.));
#1089=CARTESIAN_POINT('',(0.0205615962565919,0.00782436958360909,0.));
#1090=CARTESIAN_POINT('',(0.0245,0.005,0.));
#1091=CARTESIAN_POINT('',(0.0292222791441371,0.00425,0.));
#1092=CARTESIAN_POINT('',(0.0258591305464506,0.00458222953602672,0.));
#1093=CARTESIAN_POINT('',(0.0253864679645956,0.00461646688852851,0.));
#1094=CARTESIAN_POINT('',(0.0245,0.005,0.));
#1095=CARTESIAN_POINT('',(0.0292222791441371,0.00425,0.));
#1096=CARTESIAN_POINT('',(0.036,8.67361737988404E-19,0.));
#1097=CARTESIAN_POINT('',(0.04,-0.00692820323027551,0.));
#1098=CARTESIAN_POINT('',(0.036,-0.00692820323027551,0.));
#1099=CARTESIAN_POINT('',(0.032,-0.00692820323027551,0.));
#1100=CARTESIAN_POINT('',(0.036,9.54097911787244E-18,0.));
#1101=CARTESIAN_POINT('',(0.0292222791441371,-0.00425,0.));
#1102=CARTESIAN_POINT('',(0.0292222791441371,-0.00425,0.));
#1103=CARTESIAN_POINT('',(0.0258591305464506,-0.00458222953602672,0.));
#1104=CARTESIAN_POINT('',(0.0253864679645956,-0.00461646688852851,0.));
#1105=CARTESIAN_POINT('',(0.0245,-0.005,0.));
#1106=CARTESIAN_POINT('',(0.0245,-0.005,0.));
#1107=CARTESIAN_POINT('',(0.0245,-0.005,0.));
#1108=CARTESIAN_POINT('',(0.0236504384385887,-0.00536756544178478,0.));
#1109=CARTESIAN_POINT('',(0.0224208102355372,-0.00605594755630471,0.));
#1110=CARTESIAN_POINT('',(0.0205615962565918,-0.0078243695836091,0.));
#1111=CARTESIAN_POINT('',(0.,0.,0.0075));
#1112=CARTESIAN_POINT('',(0.,0.,0.0075));
#1113=CARTESIAN_POINT('',(-0.0155992725637849,-0.0101302860512795,0.0075));
#1114=CARTESIAN_POINT('',(-0.0131521861300698,-0.0131521861300698,0.0075));
#1115=CARTESIAN_POINT('',(-0.0162282754897439,-0.0105387653275408,0.00825));
#1116=CARTESIAN_POINT('',(-0.0136825162159597,-0.0136825162159597,0.00825));
#1117=CARTESIAN_POINT('',(0.,0.,0.0025));
#1118=CARTESIAN_POINT('',(0.,0.,0.0045));
#1119=CARTESIAN_POINT('',(-0.0155992725637849,-0.0101302860512795,0.0045));
#1120=CARTESIAN_POINT('',(-0.0131521861300698,-0.0131521861300698,0.0045));
#1121=CARTESIAN_POINT('',(-0.0155992725637849,-0.0101302860512795,0.00525));
#1122=CARTESIAN_POINT('',(-0.0131521861300698,-0.0131521861300698,0.00525));
#1123=CARTESIAN_POINT('',(0.,0.,0.0045));
#1124=CARTESIAN_POINT('',(-0.0162282754897439,-0.0105387653275408,0.00375));
#1125=CARTESIAN_POINT('',(-0.0136825162159597,-0.0136825162159597,0.00375));
#1126=CARTESIAN_POINT('',(0.,0.,0.005));
#1127=CARTESIAN_POINT('',(0.,0.,0.005));
#1128=CARTESIAN_POINT('',(0.,0.,0.0025));
#1129=CARTESIAN_POINT('',(0.,0.,0.0075));
#1130=CARTESIAN_POINT('',(0.0155992725637849,0.0101302860512795,0.0075));
#1131=CARTESIAN_POINT('',(0.0131521861300698,0.0131521861300698,0.0075));
#1132=CARTESIAN_POINT('',(0.0131521861300698,0.0131521861300698,0.00525));
#1133=CARTESIAN_POINT('',(0.0131521861300698,0.0131521861300698,0.0045));
#1134=CARTESIAN_POINT('',(0.,0.,0.0045));
#1135=CARTESIAN_POINT('',(0.0155992725637849,0.0101302860512795,0.0045));
#1136=CARTESIAN_POINT('',(0.0155992725637849,0.0101302860512795,0.00525));
#1137=CARTESIAN_POINT('',(0.,0.,0.0075));
#1138=CARTESIAN_POINT('',(0.0136825162159597,0.0136825162159597,0.00825));
#1139=CARTESIAN_POINT('',(0.0162282754897439,0.0105387653275408,0.00825));
#1140=CARTESIAN_POINT('',(0.,0.,0.0045));
#1141=CARTESIAN_POINT('',(0.0162282754897439,0.0105387653275408,0.00375));
#1142=CARTESIAN_POINT('',(0.0136825162159597,0.0136825162159597,0.00375));
#1143=CARTESIAN_POINT('',(0.,0.,0.005));
#1144=CARTESIAN_POINT('',(0.,0.,0.005));
#1145=CARTESIAN_POINT('',(0.,0.,0.0075));
#1146=CARTESIAN_POINT('',(0.,0.,0.0075));
#1147=CARTESIAN_POINT('',(0.0131521861300698,-0.0131521861300698,0.0075));
#1148=CARTESIAN_POINT('',(0.0101302860512795,-0.0155992725637849,0.0075));
#1149=CARTESIAN_POINT('',(0.0105387653275408,-0.0162282754897439,0.00825));
#1150=CARTESIAN_POINT('',(0.0136825162159597,-0.0136825162159597,0.00825));
#1151=CARTESIAN_POINT('',(0.,0.,0.0025));
#1152=CARTESIAN_POINT('',(0.,0.,0.0045));
#1153=CARTESIAN_POINT('',(0.0131521861300698,-0.0131521861300698,0.0045));
#1154=CARTESIAN_POINT('',(0.0101302860512795,-0.0155992725637849,0.0045));
#1155=CARTESIAN_POINT('',(0.0101302860512795,-0.0155992725637849,0.00525));
#1156=CARTESIAN_POINT('',(0.0131521861300698,-0.0131521861300698,0.00525));
#1157=CARTESIAN_POINT('',(0.,0.,0.0045));
#1158=CARTESIAN_POINT('',(0.0136825162159597,-0.0136825162159597,0.00375));
#1159=CARTESIAN_POINT('',(0.0105387653275408,-0.0162282754897439,0.00375));
#1160=CARTESIAN_POINT('',(0.,0.,0.005));
#1161=CARTESIAN_POINT('',(0.,0.,0.005));
#1162=CARTESIAN_POINT('',(0.,0.,0.0025));
#1163=CARTESIAN_POINT('',(0.,0.,0.0075));
#1164=CARTESIAN_POINT('',(-0.0131521861300698,0.0131521861300698,0.0075));
#1165=CARTESIAN_POINT('',(-0.0101302860512795,0.0155992725637849,0.0075));
#1166=CARTESIAN_POINT('',(-0.0131521861300698,0.0131521861300698,0.00525));
#1167=CARTESIAN_POINT('',(-0.0131521861300698,0.0131521861300698,0.0045));
#1168=CARTESIAN_POINT('',(0.,0.,0.0045));
#1169=CARTESIAN_POINT('',(-0.0101302860512795,0.0155992725637849,0.0045));
#1170=CARTESIAN_POINT('',(-0.0101302860512795,0.0155992725637849,0.00525));
#1171=CARTESIAN_POINT('',(0.,0.,0.0075));
#1172=CARTESIAN_POINT('',(-0.0136825162159597,0.0136825162159597,0.00825));
#1173=CARTESIAN_POINT('',(-0.0105387653275408,0.0162282754897439,0.00825));
#1174=CARTESIAN_POINT('',(0.,0.,0.0045));
#1175=CARTESIAN_POINT('',(-0.0136825162159597,0.0136825162159597,0.00375));
#1176=CARTESIAN_POINT('',(-0.0105387653275408,0.0162282754897439,0.00375));
#1177=CARTESIAN_POINT('',(0.,0.,0.005));
#1178=CARTESIAN_POINT('',(0.,0.,0.005));
#1179=CARTESIAN_POINT('',(0.036,1.7347234759768E-18,0.01));
#1180=CARTESIAN_POINT('',(0.0376262667389228,0.00494139008614595,0.0066261494363881));
#1181=CARTESIAN_POINT('',(0.0382995599929312,0.00459956422387687,0.00499979882547636));
#1182=CARTESIAN_POINT('',(0.0376254932893526,0.00494122110969057,0.00337465526170645));
#1183=CARTESIAN_POINT('',(0.0360038021506202,0.00525439787529408,0.00269995696843687));
#1184=CARTESIAN_POINT('',(0.0343724053905592,0.00494118460918395,0.00337552376418055));
#1185=CARTESIAN_POINT('',(0.0337011570482279,0.0045996852720059,0.00499640878973562));
#1186=CARTESIAN_POINT('',(0.0343729734549871,0.00494094549265425,0.00662560258922853));
#1187=CARTESIAN_POINT('',(0.0359983738421166,0.00525441589182077,0.0072995614637559));
#1188=CARTESIAN_POINT('',(0.0376262667389228,0.00494139008614595,0.0066261494363881));
#1189=CARTESIAN_POINT('',(0.0382995599929312,0.00459956422387687,0.00499979882547636));
#1190=CARTESIAN_POINT('',(0.0376254932893526,0.00494122110969057,0.00337465526170645));
#1191=CARTESIAN_POINT('',(0.038075,0.00471347801522401,0.005));
#1192=CARTESIAN_POINT('',(0.0329504098636046,-0.00415,0.01));
#1193=CARTESIAN_POINT('',(0.0329504098636046,-0.00415,0.0015));
#1194=CARTESIAN_POINT('',(0.036,1.7347234759768E-18,0.0015));
#1195=CARTESIAN_POINT('',(0.0390495901363954,-0.00415,0.0015));
#1196=CARTESIAN_POINT('',(0.0390495901363954,-0.00415,0.01));
#1197=CARTESIAN_POINT('',(0.0245,0.005,0.008));
#1198=CARTESIAN_POINT('',(0.0245,0.005,0.));
#1199=CARTESIAN_POINT('',(0.0236504384385887,0.00536756544178478,0.008));
#1200=CARTESIAN_POINT('',(0.0236504384385887,0.00536756544178478,0.));
#1201=CARTESIAN_POINT('',(0.0224208102355372,0.00605594755630471,0.008));
#1202=CARTESIAN_POINT('',(0.0224208102355372,0.00605594755630471,0.));
#1203=CARTESIAN_POINT('',(0.0205615962565919,0.00782436958360909,0.008));
#1204=CARTESIAN_POINT('',(0.0205615962565919,0.00782436958360909,0.));
#1205=CARTESIAN_POINT('',(0.0205615962565919,0.00782436958360909,0.008));
#1206=CARTESIAN_POINT('',(0.0224208102355372,0.00605594755630471,0.008));
#1207=CARTESIAN_POINT('',(0.0236504384385887,0.00536756544178478,0.008));
#1208=CARTESIAN_POINT('',(0.0245,0.005,0.008));
#1209=CARTESIAN_POINT('',(0.0245,0.005,0.008));
#1210=CARTESIAN_POINT('',(0.0245,0.005,0.01));
#1211=CARTESIAN_POINT('',(0.0292222791441371,0.00425,0.008));
#1212=CARTESIAN_POINT('',(0.0292222791441371,0.00425,0.));
#1213=CARTESIAN_POINT('',(0.0258591305464506,0.00458222953602672,0.008));
#1214=CARTESIAN_POINT('',(0.0258591305464506,0.00458222953602672,0.));
#1215=CARTESIAN_POINT('',(0.0253864679645956,0.00461646688852851,0.008));
#1216=CARTESIAN_POINT('',(0.0253864679645956,0.00461646688852851,0.));
#1217=CARTESIAN_POINT('',(0.0245,0.005,0.008));
#1218=CARTESIAN_POINT('',(0.0245,0.005,0.));
#1219=CARTESIAN_POINT('',(0.0245,0.005,0.008));
#1220=CARTESIAN_POINT('',(0.0253864679645956,0.00461646688852851,0.008));
#1221=CARTESIAN_POINT('',(0.0258591305464507,0.00458222953602672,0.008));
#1222=CARTESIAN_POINT('',(0.0292222791441371,0.00425,0.008));
#1223=CARTESIAN_POINT('',(0.0292222791441371,0.00425,0.008));
#1224=CARTESIAN_POINT('',(0.0292222791441371,0.00425,0.01));
#1225=CARTESIAN_POINT('',(0.036,8.67361737988404E-19,0.01));
#1226=CARTESIAN_POINT('',(0.0292222789995495,0.00424999976941786,0.00799999996983123));
#1227=CARTESIAN_POINT('',(0.0288375202819069,0.00363640273832219,0.00864840531504638));
#1228=CARTESIAN_POINT('',(0.0285476633285272,0.00299069966317297,0.00931939621503014));
#1229=CARTESIAN_POINT('',(0.0283458265348807,0.00232672056033022,0.00999999898488556));
#1230=CARTESIAN_POINT('',(0.04,-0.00692820323027551,0.01));
#1231=CARTESIAN_POINT('',(0.036,-0.00692820323027551,0.01));
#1232=CARTESIAN_POINT('',(0.036,-0.00692820323027551,0.005));
#1233=CARTESIAN_POINT('',(0.038075,-0.00692820323027551,0.005));
#1234=CARTESIAN_POINT('',(0.032,-0.00692820323027551,0.01));
#1235=CARTESIAN_POINT('',(0.036,9.54097911787244E-18,0.01));
#1236=CARTESIAN_POINT('',(0.0283458265348807,-0.00232672056033022,0.00999999898488555));
#1237=CARTESIAN_POINT('',(0.0285476390046597,-0.00299061964535543,0.00931947823620824));
#1238=CARTESIAN_POINT('',(0.0288375747972987,-0.00363648967717768,0.00864831344429777));
#1239=CARTESIAN_POINT('',(0.0292222789995495,-0.00424999976941785,0.00799999996983123));
#1240=CARTESIAN_POINT('',(0.0292222791441371,-0.00425,0.008));
#1241=CARTESIAN_POINT('',(0.0292222791441371,-0.00425,0.01));
#1242=CARTESIAN_POINT('',(0.0292222791441371,-0.00425,0.008));
#1243=CARTESIAN_POINT('',(0.0292222791441371,-0.00425,0.));
#1244=CARTESIAN_POINT('',(0.0258591305464506,-0.00458222953602672,0.008));
#1245=CARTESIAN_POINT('',(0.0258591305464506,-0.00458222953602672,0.));
#1246=CARTESIAN_POINT('',(0.0253864679645956,-0.00461646688852851,0.008));
#1247=CARTESIAN_POINT('',(0.0253864679645956,-0.00461646688852851,0.));
#1248=CARTESIAN_POINT('',(0.0245,-0.005,0.008));
#1249=CARTESIAN_POINT('',(0.0245,-0.005,0.));
#1250=CARTESIAN_POINT('',(0.0292222791441371,-0.00425,0.008));
#1251=CARTESIAN_POINT('',(0.0258591305464507,-0.00458222953602672,0.008));
#1252=CARTESIAN_POINT('',(0.0253864679645956,-0.00461646688852851,0.008));
#1253=CARTESIAN_POINT('',(0.0245,-0.005,0.008));
#1254=CARTESIAN_POINT('',(0.0245,-0.005,0.008));
#1255=CARTESIAN_POINT('',(0.0245,-0.005,0.01));
#1256=CARTESIAN_POINT('',(0.0245,-0.005,0.008));
#1257=CARTESIAN_POINT('',(0.0245,-0.005,0.));
#1258=CARTESIAN_POINT('',(0.0236504384385887,-0.00536756544178478,0.008));
#1259=CARTESIAN_POINT('',(0.0236504384385887,-0.00536756544178478,0.));
#1260=CARTESIAN_POINT('',(0.0224208102355373,-0.00605594755630471,0.008));
#1261=CARTESIAN_POINT('',(0.0224208102355373,-0.00605594755630471,0.));
#1262=CARTESIAN_POINT('',(0.0205615962565918,-0.0078243695836091,0.008));
#1263=CARTESIAN_POINT('',(0.0205615962565918,-0.0078243695836091,0.));
#1264=CARTESIAN_POINT('',(0.0245,-0.005,0.008));
#1265=CARTESIAN_POINT('',(0.0236504384385887,-0.00536756544178478,0.008));
#1266=CARTESIAN_POINT('',(0.0224208102355373,-0.00605594755630471,0.008));
#1267=CARTESIAN_POINT('',(0.0205615962565918,-0.0078243695836091,0.008));
#1268=CARTESIAN_POINT('',(0.036,-0.00415,0.01));
#1269=CARTESIAN_POINT('',(0.036,-0.00415,0.005));
#1270=CARTESIAN_POINT('',(0.036,-0.00415,0.007075));
#1271=CARTESIAN_POINT('',(0.036,-0.00415,0.0015));
#1272=CARTESIAN_POINT('',(0.011,0.,0.0015));
#1273=CARTESIAN_POINT('',(0.0290581304922171,0.00225648348144151,0.01));
#1274=CARTESIAN_POINT('',(0.0286652813042974,0.00229524495715457,0.01));
#1275=CARTESIAN_POINT('',(0.0282724119250114,0.00233380817915768,0.01));
#1276=CARTESIAN_POINT('',(0.0274077339985059,0.00241997912537886,0.01));
#1277=CARTESIAN_POINT('',(0.0269357875355073,0.00246672597056112,0.01));
#1278=CARTESIAN_POINT('',(0.025993895322536,0.00257478380973104,0.01));
#1279=CARTESIAN_POINT('',(0.0255243991529647,0.00263414549754275,0.01));
#1280=CARTESIAN_POINT('',(0.024592359200599,0.00282611928490095,0.01));
#1281=CARTESIAN_POINT('',(0.0241412174418989,0.00297318563597626,0.01));
#1282=CARTESIAN_POINT('',(0.0237058364758559,0.00316443352152014,0.01));
#1283=CARTESIAN_POINT('',(0.0292546609806752,0.0042468048799079,0.008));
#1284=CARTESIAN_POINT('',(0.0288615612403243,0.00428559391002133,0.008));
#1285=CARTESIAN_POINT('',(0.0284681019391003,0.0043242232432262,0.008));
#1286=CARTESIAN_POINT('',(0.0276086667604705,0.00440984974351297,0.008));
#1287=CARTESIAN_POINT('',(0.02714085717209,0.00445660610373067,0.008));
#1288=CARTESIAN_POINT('',(0.0262425424046623,0.00455908801289567,0.008));
#1289=CARTESIAN_POINT('',(0.0258186413623099,0.0046138939479463,0.008));
#1290=CARTESIAN_POINT('',(0.025117413999519,0.00476156590144458,0.008));
#1291=CARTESIAN_POINT('',(0.0248558721891521,0.00484607762185942,0.008));
#1292=CARTESIAN_POINT('',(0.0245,0.005,0.008));
#1293=CARTESIAN_POINT('',(0.0245,0.005,0.008));
#1294=CARTESIAN_POINT('',(0.0242352788252853,0.00438814450717338,0.00866666666666667));
#1295=CARTESIAN_POINT('',(0.0239705576505706,0.00377628901434676,0.00933333333333333));
#1296=CARTESIAN_POINT('',(0.0237058364758559,0.00316443352152014,0.01));
#1297=CARTESIAN_POINT('',(0.0237058364758559,0.00316443352152014,0.01));
#1298=CARTESIAN_POINT('',(0.022731555306834,0.00358359057702596,0.01));
#1299=CARTESIAN_POINT('',(0.0218380081728289,0.00415761981320109,0.01));
#1300=CARTESIAN_POINT('',(0.0205815877925909,0.00512550765049041,0.01));
#1301=CARTESIAN_POINT('',(0.020177665605297,0.0054672955147134,0.01));
#1302=CARTESIAN_POINT('',(0.0195872137077983,0.0059960941187794,0.01));
#1303=CARTESIAN_POINT('',(0.0193932282718724,0.00617563702201626,0.01));
#1304=CARTESIAN_POINT('',(0.0190799039472021,0.00647338178657691,0.01));
#1305=CARTESIAN_POINT('',(0.0189583304440821,0.00658904518355147,0.01));
#1306=CARTESIAN_POINT('',(0.0188367593460463,0.00670471133117518,0.01));
#1307=CARTESIAN_POINT('',(0.0245,0.005,0.008));
#1308=CARTESIAN_POINT('',(0.0237159475577009,0.00533707154228104,0.008));
#1309=CARTESIAN_POINT('',(0.0229724630974705,0.00580814843164154,0.008));
#1310=CARTESIAN_POINT('',(0.021847283958839,0.0066751940716715,0.008));
#1311=CARTESIAN_POINT('',(0.0214801216197197,0.0069857905932729,0.008));
#1312=CARTESIAN_POINT('',(0.0209389614638349,0.00747024938505022,0.008));
#1313=CARTESIAN_POINT('',(0.0207626928598904,0.0076332655061471,0.008));
#1314=CARTESIAN_POINT('',(0.0204619719048899,0.00791904186420629,0.008));
#1315=CARTESIAN_POINT('',(0.0203392792622159,0.00803576786953573,0.008));
#1316=CARTESIAN_POINT('',(0.0202164210936608,0.00815265599762269,0.008));
#1317=CARTESIAN_POINT('',(0.0189319265767571,0.00675219639023333,0.00989999999999999));
#1318=CARTESIAN_POINT('',(0.0194556812051844,0.00709268803897151,0.00929230096263001));
#1319=CARTESIAN_POINT('',(0.0199990090200941,0.00744995015750208,0.00865896761492224));
#1320=CARTESIAN_POINT('',(0.0205615964317819,0.00782436924447955,0.00799999995687671));
#1321=CARTESIAN_POINT('',(0.,1.34711147906209E-18,0.01));
#1322=CARTESIAN_POINT('',(0.0205615964317819,-0.00782436924447951,0.00799999995687671));
#1323=CARTESIAN_POINT('',(0.0199990090200945,-0.00744995015750238,0.00865896761492173));
#1324=CARTESIAN_POINT('',(0.0194556812051848,-0.00709268803897179,0.00929230096262949));
#1325=CARTESIAN_POINT('',(0.0189319265767571,-0.00675219639023331,0.00989999999999999));
#1326=CARTESIAN_POINT('',(0.0245,-0.005,0.008));
#1327=CARTESIAN_POINT('',(0.0237159475577009,-0.00533707154228104,0.008));
#1328=CARTESIAN_POINT('',(0.0229724630974705,-0.00580814843164153,0.008));
#1329=CARTESIAN_POINT('',(0.021847283958839,-0.00667519407167149,0.008));
#1330=CARTESIAN_POINT('',(0.0214801216197197,-0.0069857905932729,0.008));
#1331=CARTESIAN_POINT('',(0.0209389614638349,-0.00747024938505022,0.008));
#1332=CARTESIAN_POINT('',(0.0207626928598904,-0.00763326550614709,0.008));
#1333=CARTESIAN_POINT('',(0.0204619719048899,-0.00791904186420628,0.008));
#1334=CARTESIAN_POINT('',(0.0203392792622159,-0.00803576786953572,0.008));
#1335=CARTESIAN_POINT('',(0.0202164210936608,-0.00815265599762268,0.008));
#1336=CARTESIAN_POINT('',(0.0237058364758559,-0.00316443352152013,0.01));
#1337=CARTESIAN_POINT('',(0.022731555306834,-0.00358359057702596,0.01));
#1338=CARTESIAN_POINT('',(0.0218380081728289,-0.00415761981320109,0.01));
#1339=CARTESIAN_POINT('',(0.0205815877925909,-0.00512550765049041,0.01));
#1340=CARTESIAN_POINT('',(0.020177665605297,-0.0054672955147134,0.01));
#1341=CARTESIAN_POINT('',(0.0195872137077983,-0.00599609411877938,0.01));
#1342=CARTESIAN_POINT('',(0.0193932282718725,-0.00617563702201625,0.01));
#1343=CARTESIAN_POINT('',(0.0190799039472021,-0.0064733817865769,0.01));
#1344=CARTESIAN_POINT('',(0.0189583304440821,-0.00658904518355145,0.01));
#1345=CARTESIAN_POINT('',(0.0188367593460463,-0.00670471133117516,0.01));
#1346=CARTESIAN_POINT('',(0.0245,-0.005,0.008));
#1347=CARTESIAN_POINT('',(0.0242352788252853,-0.00438814450717338,0.00866666666666667));
#1348=CARTESIAN_POINT('',(0.0239705576505706,-0.00377628901434675,0.00933333333333333));
#1349=CARTESIAN_POINT('',(0.0237058364758559,-0.00316443352152013,0.01));
#1350=CARTESIAN_POINT('',(0.0292546611020604,-0.00424680486793023,0.008));
#1351=CARTESIAN_POINT('',(0.0288615613213218,-0.00428559390206909,0.008));
#1352=CARTESIAN_POINT('',(0.028468101979287,-0.00432422323922234,0.008));
#1353=CARTESIAN_POINT('',(0.0276086667604705,-0.00440984974351297,0.008));
#1354=CARTESIAN_POINT('',(0.02714085717209,-0.00445660610373067,0.008));
#1355=CARTESIAN_POINT('',(0.0262425424046623,-0.00455908801289567,0.008));
#1356=CARTESIAN_POINT('',(0.0258186413623099,-0.00461389394794629,0.008));
#1357=CARTESIAN_POINT('',(0.025117413999519,-0.00476156590144458,0.008));
#1358=CARTESIAN_POINT('',(0.0248558721891522,-0.00484607762185941,0.008));
#1359=CARTESIAN_POINT('',(0.0245,-0.005,0.008));
#1360=CARTESIAN_POINT('',(0.029058130613525,-0.00225648346947235,0.01));
#1361=CARTESIAN_POINT('',(0.0286652813851735,-0.00229524494921595,0.01));
#1362=CARTESIAN_POINT('',(0.0282724119654433,-0.00233380817512837,0.01));
#1363=CARTESIAN_POINT('',(0.0274077339985059,-0.00241997912537886,0.01));
#1364=CARTESIAN_POINT('',(0.0269357875355073,-0.00246672597056112,0.01));
#1365=CARTESIAN_POINT('',(0.025993895322536,-0.00257478380973104,0.01));
#1366=CARTESIAN_POINT('',(0.0255243991529648,-0.00263414549754274,0.01));
#1367=CARTESIAN_POINT('',(0.024592359200599,-0.00282611928490095,0.01));
#1368=CARTESIAN_POINT('',(0.0241412174418989,-0.00297318563597625,0.01));
#1369=CARTESIAN_POINT('',(0.0237058364758559,-0.00316443352152014,0.01));
#1370=CARTESIAN_POINT('',(0.036,0.00607179676972449,0.005));
#1371=CARTESIAN_POINT('',(0.036,0.00607179676972449,0.005));
#1372=CARTESIAN_POINT('',(0.036,0.00607179676972449,0.005));
#1373=CARTESIAN_POINT('',(0.038075,0.00607179676972449,0.005));
#1374=CARTESIAN_POINT('',(0.036,0.00607179676972449,0.005));
#1375=MECHANICAL_DESIGN_GEOMETRIC_PRESENTATION_REPRESENTATION('',(#704),
#1376);
#1376=(
GEOMETRIC_REPRESENTATION_CONTEXT(3)
GLOBAL_UNCERTAINTY_ASSIGNED_CONTEXT((#1377))
GLOBAL_UNIT_ASSIGNED_CONTEXT((#1380,#1379,#1378))
REPRESENTATION_CONTEXT('Base Ring','TOP_LEVEL_ASSEMBLY_PART')
);
#1377=UNCERTAINTY_MEASURE_WITH_UNIT(LENGTH_MEASURE(2.E-5),#1380,
'DISTANCE_ACCURACY_VALUE','Maximum Tolerance applied to model');
#1378=(
NAMED_UNIT(*)
SI_UNIT($,.STERADIAN.)
SOLID_ANGLE_UNIT()
);
#1379=(
NAMED_UNIT(*)
PLANE_ANGLE_UNIT()
SI_UNIT($,.RADIAN.)
);
#1380=(
LENGTH_UNIT()
NAMED_UNIT(*)
SI_UNIT($,.METRE.)
);
#1381=PRODUCT_DEFINITION_SHAPE('','',#1382);
#1382=PRODUCT_DEFINITION('','',#1384,#1383);
#1383=PRODUCT_DEFINITION_CONTEXT('',#1390,'design');
#1384=PRODUCT_DEFINITION_FORMATION_WITH_SPECIFIED_SOURCE('','',#1386,
 .NOT_KNOWN.);
#1385=PRODUCT_RELATED_PRODUCT_CATEGORY('','',(#1386));
#1386=PRODUCT('Base Ring','Base Ring','Base Ring',(#1388));
#1387=PRODUCT_CATEGORY('','');
#1388=PRODUCT_CONTEXT('',#1390,'mechanical');
#1389=APPLICATION_PROTOCOL_DEFINITION('international standard',
'ap242_managed_model_based_3d_engineering',2020,#1390);
#1390=APPLICATION_CONTEXT('managed model based 3d engineering');
ENDSEC;
END-ISO-10303-21;
