ISO-10303-21;
HEADER;
/*Generated by software containing ST-Developer
 * from STEP Tools, Inc. (www.steptools.com) 
 */
/*OPTION: using custom renumber hook */
/*description */
/*implementation_level */
FILE_DESCRIPTION(('STEP AP242 Edition 2','STEP AP242 Edition 2''CAx-IF Rec.Pracs.---Representation and Presentation of Product Manufa
cturing Information (PMI)---4.0---2014-10-13','STEP AP242 Edition 2''CAx-IF Rec.Pracs.---Representation and Presentation of Product Manufa
cturing Information (PMI)---4.0---2014-10-13''CAx-IF Rec.Pracs.---3D Tessellated Geometry---0.4---2014-09-14','STEP AP242 Edition 2''CAx-IF Rec.Pracs.---Representation and Presentation of Product Manufa
cturing Information (PMI)---4.0---2014-10-13''CAx-IF Rec.Pracs.---3D Tessellated Geometry---0.4---2014-09-14''2;1','STEP AP242 Edition 2''CAx-IF Rec.Pracs.---Representation and Presentation of Product Manufa
cturing Information (PMI)---4.0---2014-10-13''CAx-IF Rec.Pracs.---3D Tessellated Geometry---0.4---2014-09-14''2;1''CAx-IF Rec.Pracs.---User Defined Attributes---1.5---2016-08-15'),'2;1');
/*name */
/*time_stamp */
/*author */
/*organization */
/*preprocessor_version */
/*originating_system */
/*authorisation */
FILE_NAME('/vol/tmp/translate-6691718469023211110/Part Studio 1 - Base.step','2026-02-25T16:50:13',(''),(''),'ST-DEVELOPER v20','ONSHAPE BY PTC INC, 1.211','  ');
FILE_SCHEMA(('AP242_MANAGED_MODEL_BASED_3D_ENGINEERING_MIM_LF { 1 0 10303 442 3 1 4 }'));
ENDSEC;
DATA;
#10=SHAPE_REPRESENTATION_RELATIONSHIP('','',#1087,#11);
#11=ADVANCED_BREP_SHAPE_REPRESENTATION('',(#1085),#1845);
#12=SPHERICAL_SURFACE('',#1131,0.02028765997411);
#13=PLANE('',#1113);
#14=PLANE('',#1132);
#15=PLANE('',#1140);
#16=PLANE('',#1141);
#17=PLANE('',#1143);
#18=PLANE('',#1144);
#19=PLANE('',#1150);
#20=PLANE('',#1151);
#21=PLANE('',#1155);
#22=PLANE('',#1156);
#23=PLANE('',#1157);
#24=PLANE('',#1158);
#25=PLANE('',#1159);
#26=PLANE('',#1160);
#27=PLANE('',#1170);
#28=PLANE('',#1171);
#29=PLANE('',#1181);
#30=PLANE('',#1182);
#31=PLANE('',#1188);
#32=PLANE('',#1189);
#33=PLANE('',#1195);
#34=PLANE('',#1196);
#35=PLANE('',#1199);
#36=PLANE('',#1200);
#37=CONICAL_SURFACE('',#1097,0.0185,0.785398163397448);
#38=CONICAL_SURFACE('',#1109,0.02,0.785398163397448);
#39=CONICAL_SURFACE('',#1121,0.0185,0.785398163397446);
#40=CONICAL_SURFACE('',#1136,0.0185,0.785398163397448);
#41=CONICAL_SURFACE('',#1138,0.02,0.785398163397448);
#42=CONICAL_SURFACE('',#1145,0.0185,0.785398163397446);
#43=CONICAL_SURFACE('',#1149,0.0185,0.785398163397447);
#44=CONICAL_SURFACE('',#1154,0.0185,0.785398163397446);
#45=CONICAL_SURFACE('',#1163,0.01875,0.785398163397449);
#46=CONICAL_SURFACE('',#1167,0.01975,0.785398163397448);
#47=CONICAL_SURFACE('',#1174,0.01975,0.785398163397448);
#48=CONICAL_SURFACE('',#1178,0.01875,0.785398163397449);
#49=CONICAL_SURFACE('',#1186,0.0101,0.785398163397445);
#50=CONICAL_SURFACE('',#1187,0.0101,0.785398163397449);
#51=CONICAL_SURFACE('',#1190,0.0101,0.785398163397448);
#52=CONICAL_SURFACE('',#1194,0.0101,0.785398163397448);
#53=CIRCLE('',#1090,0.0116);
#54=CIRCLE('',#1091,0.0116);
#55=CIRCLE('',#1092,0.0116);
#56=CIRCLE('',#1093,0.0116);
#57=CIRCLE('',#1094,0.0116);
#58=CIRCLE('',#1095,0.0116000000000001);
#59=CIRCLE('',#1096,0.0116);
#60=CIRCLE('',#1098,0.0185);
#61=CIRCLE('',#1099,0.02);
#62=CIRCLE('',#1100,0.0185);
#63=CIRCLE('',#1101,0.01975);
#64=CIRCLE('',#1103,0.0185);
#65=CIRCLE('',#1104,0.0185);
#66=CIRCLE('',#1105,0.0185);
#67=CIRCLE('',#1107,0.0185);
#68=CIRCLE('',#1108,0.0185);
#69=CIRCLE('',#1110,0.01975);
#70=CIRCLE('',#1111,0.0185);
#71=CIRCLE('',#1112,0.02);
#72=CIRCLE('',#1114,0.002075);
#73=CIRCLE('',#1115,0.02);
#74=CIRCLE('',#1116,0.0185);
#75=CIRCLE('',#1117,0.02);
#76=CIRCLE('',#1118,0.02);
#77=CIRCLE('',#1119,0.0185);
#78=CIRCLE('',#1120,0.02);
#79=CIRCLE('',#1122,0.02);
#80=CIRCLE('',#1123,0.0185);
#81=CIRCLE('',#1125,0.02);
#82=CIRCLE('',#1126,0.02);
#83=CIRCLE('',#1127,0.02);
#84=CIRCLE('',#1128,0.02);
#85=CIRCLE('',#1129,0.02);
#86=CIRCLE('',#1130,0.02);
#87=CIRCLE('',#1134,0.0185);
#88=CIRCLE('',#1135,0.0185);
#89=CIRCLE('',#1137,0.01975);
#90=CIRCLE('',#1139,0.01975);
#91=CIRCLE('',#1146,0.0185);
#92=CIRCLE('',#1148,0.0185);
#93=CIRCLE('',#1153,0.0185);
#94=CIRCLE('',#1162,0.01975);
#95=CIRCLE('',#1164,0.01875);
#96=CIRCLE('',#1166,0.01875);
#97=CIRCLE('',#1168,0.01975);
#98=CIRCLE('',#1173,0.01975);
#99=CIRCLE('',#1175,0.01875);
#100=CIRCLE('',#1177,0.01875);
#101=CIRCLE('',#1179,0.01975);
#102=CIRCLE('',#1184,0.0101);
#103=CIRCLE('',#1185,0.0101);
#104=CIRCLE('',#1191,0.0101);
#105=CIRCLE('',#1193,0.0101);
#106=CIRCLE('',#1198,0.002075);
#107=ORIENTED_EDGE('',*,*,#415,.F.);
#108=ORIENTED_EDGE('',*,*,#416,.T.);
#109=ORIENTED_EDGE('',*,*,#417,.T.);
#110=ORIENTED_EDGE('',*,*,#418,.F.);
#111=ORIENTED_EDGE('',*,*,#419,.F.);
#112=ORIENTED_EDGE('',*,*,#420,.T.);
#113=ORIENTED_EDGE('',*,*,#421,.T.);
#114=ORIENTED_EDGE('',*,*,#422,.F.);
#115=ORIENTED_EDGE('',*,*,#423,.T.);
#116=ORIENTED_EDGE('',*,*,#424,.F.);
#117=ORIENTED_EDGE('',*,*,#425,.T.);
#118=ORIENTED_EDGE('',*,*,#426,.F.);
#119=ORIENTED_EDGE('',*,*,#427,.F.);
#120=ORIENTED_EDGE('',*,*,#428,.F.);
#121=ORIENTED_EDGE('',*,*,#429,.T.);
#122=ORIENTED_EDGE('',*,*,#430,.F.);
#123=ORIENTED_EDGE('',*,*,#431,.F.);
#124=ORIENTED_EDGE('',*,*,#432,.F.);
#125=ORIENTED_EDGE('',*,*,#433,.T.);
#126=ORIENTED_EDGE('',*,*,#434,.T.);
#127=ORIENTED_EDGE('',*,*,#435,.F.);
#128=ORIENTED_EDGE('',*,*,#436,.F.);
#129=ORIENTED_EDGE('',*,*,#437,.T.);
#130=ORIENTED_EDGE('',*,*,#438,.T.);
#131=ORIENTED_EDGE('',*,*,#439,.T.);
#132=ORIENTED_EDGE('',*,*,#440,.F.);
#133=ORIENTED_EDGE('',*,*,#441,.F.);
#134=ORIENTED_EDGE('',*,*,#442,.T.);
#135=ORIENTED_EDGE('',*,*,#443,.T.);
#136=ORIENTED_EDGE('',*,*,#444,.F.);
#137=ORIENTED_EDGE('',*,*,#429,.F.);
#138=ORIENTED_EDGE('',*,*,#445,.F.);
#139=ORIENTED_EDGE('',*,*,#446,.T.);
#140=ORIENTED_EDGE('',*,*,#447,.F.);
#141=ORIENTED_EDGE('',*,*,#448,.T.);
#142=ORIENTED_EDGE('',*,*,#449,.T.);
#143=ORIENTED_EDGE('',*,*,#450,.F.);
#144=ORIENTED_EDGE('',*,*,#451,.F.);
#145=ORIENTED_EDGE('',*,*,#452,.T.);
#146=ORIENTED_EDGE('',*,*,#453,.T.);
#147=ORIENTED_EDGE('',*,*,#446,.F.);
#148=ORIENTED_EDGE('',*,*,#454,.T.);
#149=ORIENTED_EDGE('',*,*,#426,.T.);
#150=ORIENTED_EDGE('',*,*,#455,.T.);
#151=ORIENTED_EDGE('',*,*,#456,.F.);
#152=ORIENTED_EDGE('',*,*,#457,.T.);
#153=ORIENTED_EDGE('',*,*,#458,.F.);
#154=ORIENTED_EDGE('',*,*,#459,.T.);
#155=ORIENTED_EDGE('',*,*,#460,.F.);
#156=ORIENTED_EDGE('',*,*,#461,.F.);
#157=ORIENTED_EDGE('',*,*,#439,.F.);
#158=ORIENTED_EDGE('',*,*,#462,.T.);
#159=ORIENTED_EDGE('',*,*,#463,.F.);
#160=ORIENTED_EDGE('',*,*,#464,.F.);
#161=ORIENTED_EDGE('',*,*,#465,.F.);
#162=ORIENTED_EDGE('',*,*,#466,.F.);
#163=ORIENTED_EDGE('',*,*,#467,.F.);
#164=ORIENTED_EDGE('',*,*,#468,.T.);
#165=ORIENTED_EDGE('',*,*,#469,.F.);
#166=ORIENTED_EDGE('',*,*,#470,.F.);
#167=ORIENTED_EDGE('',*,*,#471,.F.);
#168=ORIENTED_EDGE('',*,*,#472,.T.);
#169=ORIENTED_EDGE('',*,*,#473,.F.);
#170=ORIENTED_EDGE('',*,*,#431,.T.);
#171=ORIENTED_EDGE('',*,*,#474,.T.);
#172=ORIENTED_EDGE('',*,*,#467,.T.);
#173=ORIENTED_EDGE('',*,*,#475,.T.);
#174=ORIENTED_EDGE('',*,*,#476,.F.);
#175=ORIENTED_EDGE('',*,*,#477,.F.);
#176=ORIENTED_EDGE('',*,*,#478,.T.);
#177=ORIENTED_EDGE('',*,*,#479,.T.);
#178=ORIENTED_EDGE('',*,*,#463,.T.);
#179=ORIENTED_EDGE('',*,*,#480,.T.);
#180=ORIENTED_EDGE('',*,*,#481,.F.);
#181=ORIENTED_EDGE('',*,*,#482,.F.);
#182=ORIENTED_EDGE('',*,*,#483,.T.);
#183=ORIENTED_EDGE('',*,*,#484,.T.);
#184=ORIENTED_EDGE('',*,*,#460,.T.);
#185=ORIENTED_EDGE('',*,*,#485,.T.);
#186=ORIENTED_EDGE('',*,*,#486,.F.);
#187=ORIENTED_EDGE('',*,*,#487,.F.);
#188=ORIENTED_EDGE('',*,*,#470,.T.);
#189=ORIENTED_EDGE('',*,*,#488,.T.);
#190=ORIENTED_EDGE('',*,*,#456,.T.);
#191=ORIENTED_EDGE('',*,*,#489,.T.);
#192=ORIENTED_EDGE('',*,*,#452,.F.);
#193=ORIENTED_EDGE('',*,*,#490,.F.);
#194=ORIENTED_EDGE('',*,*,#473,.T.);
#195=ORIENTED_EDGE('',*,*,#423,.F.);
#196=ORIENTED_EDGE('',*,*,#491,.T.);
#197=ORIENTED_EDGE('',*,*,#492,.T.);
#198=ORIENTED_EDGE('',*,*,#493,.F.);
#199=ORIENTED_EDGE('',*,*,#494,.F.);
#200=ORIENTED_EDGE('',*,*,#493,.T.);
#201=ORIENTED_EDGE('',*,*,#495,.T.);
#202=ORIENTED_EDGE('',*,*,#496,.F.);
#203=ORIENTED_EDGE('',*,*,#497,.F.);
#204=ORIENTED_EDGE('',*,*,#441,.T.);
#205=ORIENTED_EDGE('',*,*,#498,.T.);
#206=ORIENTED_EDGE('',*,*,#483,.F.);
#207=ORIENTED_EDGE('',*,*,#499,.F.);
#208=ORIENTED_EDGE('',*,*,#500,.T.);
#209=ORIENTED_EDGE('',*,*,#501,.T.);
#210=ORIENTED_EDGE('',*,*,#491,.F.);
#211=ORIENTED_EDGE('',*,*,#502,.F.);
#212=ORIENTED_EDGE('',*,*,#481,.T.);
#213=ORIENTED_EDGE('',*,*,#503,.T.);
#214=ORIENTED_EDGE('',*,*,#437,.F.);
#215=ORIENTED_EDGE('',*,*,#504,.F.);
#216=ORIENTED_EDGE('',*,*,#494,.T.);
#217=ORIENTED_EDGE('',*,*,#499,.T.);
#218=ORIENTED_EDGE('',*,*,#482,.T.);
#219=ORIENTED_EDGE('',*,*,#502,.T.);
#220=ORIENTED_EDGE('',*,*,#462,.F.);
#221=ORIENTED_EDGE('',*,*,#438,.F.);
#222=ORIENTED_EDGE('',*,*,#503,.F.);
#223=ORIENTED_EDGE('',*,*,#480,.F.);
#224=ORIENTED_EDGE('',*,*,#450,.T.);
#225=ORIENTED_EDGE('',*,*,#505,.T.);
#226=ORIENTED_EDGE('',*,*,#433,.F.);
#227=ORIENTED_EDGE('',*,*,#506,.F.);
#228=ORIENTED_EDGE('',*,*,#490,.T.);
#229=ORIENTED_EDGE('',*,*,#451,.T.);
#230=ORIENTED_EDGE('',*,*,#506,.T.);
#231=ORIENTED_EDGE('',*,*,#432,.T.);
#232=ORIENTED_EDGE('',*,*,#453,.F.);
#233=ORIENTED_EDGE('',*,*,#489,.F.);
#234=ORIENTED_EDGE('',*,*,#455,.F.);
#235=ORIENTED_EDGE('',*,*,#425,.F.);
#236=ORIENTED_EDGE('',*,*,#507,.T.);
#237=ORIENTED_EDGE('',*,*,#442,.F.);
#238=ORIENTED_EDGE('',*,*,#508,.F.);
#239=ORIENTED_EDGE('',*,*,#509,.T.);
#240=ORIENTED_EDGE('',*,*,#476,.T.);
#241=ORIENTED_EDGE('',*,*,#510,.F.);
#242=ORIENTED_EDGE('',*,*,#511,.T.);
#243=ORIENTED_EDGE('',*,*,#465,.T.);
#244=ORIENTED_EDGE('',*,*,#512,.F.);
#245=ORIENTED_EDGE('',*,*,#513,.F.);
#246=ORIENTED_EDGE('',*,*,#514,.F.);
#247=ORIENTED_EDGE('',*,*,#508,.T.);
#248=ORIENTED_EDGE('',*,*,#513,.T.);
#249=ORIENTED_EDGE('',*,*,#515,.T.);
#250=ORIENTED_EDGE('',*,*,#478,.F.);
#251=ORIENTED_EDGE('',*,*,#516,.F.);
#252=ORIENTED_EDGE('',*,*,#509,.F.);
#253=ORIENTED_EDGE('',*,*,#514,.T.);
#254=ORIENTED_EDGE('',*,*,#516,.T.);
#255=ORIENTED_EDGE('',*,*,#477,.T.);
#256=ORIENTED_EDGE('',*,*,#510,.T.);
#257=ORIENTED_EDGE('',*,*,#475,.F.);
#258=ORIENTED_EDGE('',*,*,#466,.T.);
#259=ORIENTED_EDGE('',*,*,#511,.F.);
#260=ORIENTED_EDGE('',*,*,#517,.T.);
#261=ORIENTED_EDGE('',*,*,#458,.T.);
#262=ORIENTED_EDGE('',*,*,#518,.F.);
#263=ORIENTED_EDGE('',*,*,#472,.F.);
#264=ORIENTED_EDGE('',*,*,#519,.F.);
#265=ORIENTED_EDGE('',*,*,#520,.T.);
#266=ORIENTED_EDGE('',*,*,#521,.T.);
#267=ORIENTED_EDGE('',*,*,#486,.T.);
#268=ORIENTED_EDGE('',*,*,#522,.F.);
#269=ORIENTED_EDGE('',*,*,#520,.F.);
#270=ORIENTED_EDGE('',*,*,#487,.T.);
#271=ORIENTED_EDGE('',*,*,#521,.F.);
#272=ORIENTED_EDGE('',*,*,#519,.T.);
#273=ORIENTED_EDGE('',*,*,#471,.T.);
#274=ORIENTED_EDGE('',*,*,#522,.T.);
#275=ORIENTED_EDGE('',*,*,#485,.F.);
#276=ORIENTED_EDGE('',*,*,#459,.F.);
#277=ORIENTED_EDGE('',*,*,#517,.F.);
#278=ORIENTED_EDGE('',*,*,#469,.T.);
#279=ORIENTED_EDGE('',*,*,#518,.T.);
#280=ORIENTED_EDGE('',*,*,#457,.F.);
#281=ORIENTED_EDGE('',*,*,#488,.F.);
#282=ORIENTED_EDGE('',*,*,#512,.T.);
#283=ORIENTED_EDGE('',*,*,#464,.T.);
#284=ORIENTED_EDGE('',*,*,#479,.F.);
#285=ORIENTED_EDGE('',*,*,#515,.F.);
#286=ORIENTED_EDGE('',*,*,#468,.F.);
#287=ORIENTED_EDGE('',*,*,#474,.F.);
#288=ORIENTED_EDGE('',*,*,#430,.T.);
#289=ORIENTED_EDGE('',*,*,#444,.T.);
#290=ORIENTED_EDGE('',*,*,#523,.F.);
#291=ORIENTED_EDGE('',*,*,#427,.T.);
#292=ORIENTED_EDGE('',*,*,#440,.T.);
#293=ORIENTED_EDGE('',*,*,#461,.T.);
#294=ORIENTED_EDGE('',*,*,#484,.F.);
#295=ORIENTED_EDGE('',*,*,#498,.F.);
#296=ORIENTED_EDGE('',*,*,#524,.F.);
#297=ORIENTED_EDGE('',*,*,#525,.T.);
#298=ORIENTED_EDGE('',*,*,#435,.T.);
#299=ORIENTED_EDGE('',*,*,#526,.F.);
#300=ORIENTED_EDGE('',*,*,#527,.F.);
#301=ORIENTED_EDGE('',*,*,#528,.T.);
#302=ORIENTED_EDGE('',*,*,#524,.T.);
#303=ORIENTED_EDGE('',*,*,#529,.F.);
#304=ORIENTED_EDGE('',*,*,#530,.F.);
#305=ORIENTED_EDGE('',*,*,#531,.T.);
#306=ORIENTED_EDGE('',*,*,#527,.T.);
#307=ORIENTED_EDGE('',*,*,#532,.F.);
#308=ORIENTED_EDGE('',*,*,#533,.F.);
#309=ORIENTED_EDGE('',*,*,#534,.T.);
#310=ORIENTED_EDGE('',*,*,#530,.T.);
#311=ORIENTED_EDGE('',*,*,#535,.F.);
#312=ORIENTED_EDGE('',*,*,#448,.F.);
#313=ORIENTED_EDGE('',*,*,#536,.T.);
#314=ORIENTED_EDGE('',*,*,#533,.T.);
#315=ORIENTED_EDGE('',*,*,#537,.F.);
#316=ORIENTED_EDGE('',*,*,#445,.T.);
#317=ORIENTED_EDGE('',*,*,#428,.T.);
#318=ORIENTED_EDGE('',*,*,#525,.F.);
#319=ORIENTED_EDGE('',*,*,#528,.F.);
#320=ORIENTED_EDGE('',*,*,#531,.F.);
#321=ORIENTED_EDGE('',*,*,#534,.F.);
#322=ORIENTED_EDGE('',*,*,#536,.F.);
#323=ORIENTED_EDGE('',*,*,#447,.T.);
#324=ORIENTED_EDGE('',*,*,#505,.F.);
#325=ORIENTED_EDGE('',*,*,#449,.F.);
#326=ORIENTED_EDGE('',*,*,#537,.T.);
#327=ORIENTED_EDGE('',*,*,#535,.T.);
#328=ORIENTED_EDGE('',*,*,#532,.T.);
#329=ORIENTED_EDGE('',*,*,#529,.T.);
#330=ORIENTED_EDGE('',*,*,#526,.T.);
#331=ORIENTED_EDGE('',*,*,#434,.F.);
#332=ORIENTED_EDGE('',*,*,#538,.T.);
#333=ORIENTED_EDGE('',*,*,#539,.F.);
#334=ORIENTED_EDGE('',*,*,#500,.F.);
#335=ORIENTED_EDGE('',*,*,#540,.T.);
#336=ORIENTED_EDGE('',*,*,#541,.T.);
#337=ORIENTED_EDGE('',*,*,#542,.F.);
#338=ORIENTED_EDGE('',*,*,#538,.F.);
#339=ORIENTED_EDGE('',*,*,#543,.T.);
#340=ORIENTED_EDGE('',*,*,#544,.T.);
#341=ORIENTED_EDGE('',*,*,#545,.F.);
#342=ORIENTED_EDGE('',*,*,#541,.F.);
#343=ORIENTED_EDGE('',*,*,#546,.T.);
#344=ORIENTED_EDGE('',*,*,#547,.T.);
#345=ORIENTED_EDGE('',*,*,#548,.F.);
#346=ORIENTED_EDGE('',*,*,#544,.F.);
#347=ORIENTED_EDGE('',*,*,#549,.T.);
#348=ORIENTED_EDGE('',*,*,#550,.T.);
#349=ORIENTED_EDGE('',*,*,#496,.T.);
#350=ORIENTED_EDGE('',*,*,#551,.F.);
#351=ORIENTED_EDGE('',*,*,#547,.F.);
#352=ORIENTED_EDGE('',*,*,#497,.T.);
#353=ORIENTED_EDGE('',*,*,#550,.F.);
#354=ORIENTED_EDGE('',*,*,#549,.F.);
#355=ORIENTED_EDGE('',*,*,#546,.F.);
#356=ORIENTED_EDGE('',*,*,#543,.F.);
#357=ORIENTED_EDGE('',*,*,#540,.F.);
#358=ORIENTED_EDGE('',*,*,#504,.T.);
#359=ORIENTED_EDGE('',*,*,#436,.T.);
#360=ORIENTED_EDGE('',*,*,#495,.F.);
#361=ORIENTED_EDGE('',*,*,#492,.F.);
#362=ORIENTED_EDGE('',*,*,#501,.F.);
#363=ORIENTED_EDGE('',*,*,#539,.T.);
#364=ORIENTED_EDGE('',*,*,#542,.T.);
#365=ORIENTED_EDGE('',*,*,#545,.T.);
#366=ORIENTED_EDGE('',*,*,#548,.T.);
#367=ORIENTED_EDGE('',*,*,#551,.T.);
#368=ORIENTED_EDGE('',*,*,#552,.F.);
#369=ORIENTED_EDGE('',*,*,#553,.F.);
#370=ORIENTED_EDGE('',*,*,#554,.T.);
#371=ORIENTED_EDGE('',*,*,#555,.T.);
#372=ORIENTED_EDGE('',*,*,#420,.F.);
#373=ORIENTED_EDGE('',*,*,#556,.F.);
#374=ORIENTED_EDGE('',*,*,#552,.T.);
#375=ORIENTED_EDGE('',*,*,#557,.T.);
#376=ORIENTED_EDGE('',*,*,#558,.T.);
#377=ORIENTED_EDGE('',*,*,#422,.T.);
#378=ORIENTED_EDGE('',*,*,#559,.F.);
#379=ORIENTED_EDGE('',*,*,#554,.F.);
#380=ORIENTED_EDGE('',*,*,#553,.T.);
#381=ORIENTED_EDGE('',*,*,#556,.T.);
#382=ORIENTED_EDGE('',*,*,#419,.T.);
#383=ORIENTED_EDGE('',*,*,#558,.F.);
#384=ORIENTED_EDGE('',*,*,#555,.F.);
#385=ORIENTED_EDGE('',*,*,#559,.T.);
#386=ORIENTED_EDGE('',*,*,#421,.F.);
#387=ORIENTED_EDGE('',*,*,#557,.F.);
#388=ORIENTED_EDGE('',*,*,#560,.T.);
#389=ORIENTED_EDGE('',*,*,#561,.T.);
#390=ORIENTED_EDGE('',*,*,#416,.F.);
#391=ORIENTED_EDGE('',*,*,#562,.F.);
#392=ORIENTED_EDGE('',*,*,#563,.T.);
#393=ORIENTED_EDGE('',*,*,#564,.T.);
#394=ORIENTED_EDGE('',*,*,#560,.F.);
#395=ORIENTED_EDGE('',*,*,#565,.F.);
#396=ORIENTED_EDGE('',*,*,#566,.T.);
#397=ORIENTED_EDGE('',*,*,#418,.T.);
#398=ORIENTED_EDGE('',*,*,#567,.F.);
#399=ORIENTED_EDGE('',*,*,#563,.F.);
#400=ORIENTED_EDGE('',*,*,#415,.T.);
#401=ORIENTED_EDGE('',*,*,#566,.F.);
#402=ORIENTED_EDGE('',*,*,#565,.T.);
#403=ORIENTED_EDGE('',*,*,#562,.T.);
#404=ORIENTED_EDGE('',*,*,#417,.F.);
#405=ORIENTED_EDGE('',*,*,#561,.F.);
#406=ORIENTED_EDGE('',*,*,#564,.F.);
#407=ORIENTED_EDGE('',*,*,#567,.T.);
#408=ORIENTED_EDGE('',*,*,#568,.T.);
#409=ORIENTED_EDGE('',*,*,#454,.F.);
#410=ORIENTED_EDGE('',*,*,#568,.F.);
#411=ORIENTED_EDGE('',*,*,#507,.F.);
#412=ORIENTED_EDGE('',*,*,#424,.T.);
#413=ORIENTED_EDGE('',*,*,#523,.T.);
#414=ORIENTED_EDGE('',*,*,#443,.F.);
#415=EDGE_CURVE('',#569,#570,#673,.T.);
#416=EDGE_CURVE('',#569,#571,#53,.T.);
#417=EDGE_CURVE('',#571,#572,#674,.T.);
#418=EDGE_CURVE('',#570,#572,#54,.T.);
#419=EDGE_CURVE('',#573,#574,#675,.T.);
#420=EDGE_CURVE('',#573,#575,#55,.T.);
#421=EDGE_CURVE('',#575,#576,#676,.T.);
#422=EDGE_CURVE('',#574,#576,#56,.T.);
#423=EDGE_CURVE('',#577,#577,#57,.T.);
#424=EDGE_CURVE('',#578,#579,#58,.T.);
#425=EDGE_CURVE('',#578,#580,#677,.T.);
#426=EDGE_CURVE('',#581,#580,#59,.T.);
#427=EDGE_CURVE('',#579,#581,#678,.T.);
#428=EDGE_CURVE('',#582,#583,#679,.T.);
#429=EDGE_CURVE('',#582,#584,#60,.T.);
#430=EDGE_CURVE('',#585,#584,#680,.T.);
#431=EDGE_CURVE('',#586,#585,#61,.T.);
#432=EDGE_CURVE('',#587,#586,#681,.T.);
#433=EDGE_CURVE('',#587,#588,#62,.T.);
#434=EDGE_CURVE('',#588,#589,#682,.T.);
#435=EDGE_CURVE('',#583,#589,#63,.T.);
#436=EDGE_CURVE('',#590,#591,#683,.T.);
#437=EDGE_CURVE('',#590,#592,#64,.T.);
#438=EDGE_CURVE('',#592,#593,#684,.T.);
#439=EDGE_CURVE('',#593,#594,#65,.T.);
#440=EDGE_CURVE('',#595,#594,#685,.T.);
#441=EDGE_CURVE('',#591,#595,#66,.T.);
#442=EDGE_CURVE('',#596,#597,#686,.T.);
#443=EDGE_CURVE('',#597,#598,#67,.T.);
#444=EDGE_CURVE('',#584,#598,#687,.T.);
#445=EDGE_CURVE('',#599,#582,#688,.T.);
#446=EDGE_CURVE('',#599,#596,#68,.T.);
#447=EDGE_CURVE('',#600,#599,#689,.T.);
#448=EDGE_CURVE('',#600,#601,#69,.T.);
#449=EDGE_CURVE('',#601,#602,#690,.T.);
#450=EDGE_CURVE('',#603,#602,#70,.T.);
#451=EDGE_CURVE('',#604,#603,#691,.T.);
#452=EDGE_CURVE('',#604,#605,#71,.T.);
#453=EDGE_CURVE('',#605,#596,#692,.T.);
#454=EDGE_CURVE('',#606,#606,#72,.T.);
#455=EDGE_CURVE('',#580,#607,#693,.T.);
#456=EDGE_CURVE('',#608,#607,#73,.T.);
#457=EDGE_CURVE('',#608,#609,#694,.T.);
#458=EDGE_CURVE('',#610,#609,#74,.T.);
#459=EDGE_CURVE('',#610,#611,#695,.T.);
#460=EDGE_CURVE('',#612,#611,#75,.T.);
#461=EDGE_CURVE('',#594,#612,#696,.T.);
#462=EDGE_CURVE('',#593,#613,#697,.T.);
#463=EDGE_CURVE('',#614,#613,#76,.T.);
#464=EDGE_CURVE('',#615,#614,#698,.T.);
#465=EDGE_CURVE('',#616,#615,#77,.T.);
#466=EDGE_CURVE('',#617,#616,#699,.T.);
#467=EDGE_CURVE('',#618,#617,#78,.T.);
#468=EDGE_CURVE('',#618,#581,#700,.T.);
#469=EDGE_CURVE('',#619,#620,#701,.T.);
#470=EDGE_CURVE('',#621,#619,#79,.T.);
#471=EDGE_CURVE('',#622,#621,#702,.T.);
#472=EDGE_CURVE('',#622,#620,#80,.T.);
#473=EDGE_CURVE('',#623,#623,#81,.T.);
#474=EDGE_CURVE('',#585,#618,#703,.T.);
#475=EDGE_CURVE('',#617,#624,#704,.T.);
#476=EDGE_CURVE('',#625,#624,#82,.T.);
#477=EDGE_CURVE('',#626,#625,#705,.T.);
#478=EDGE_CURVE('',#626,#627,#83,.T.);
#479=EDGE_CURVE('',#627,#614,#706,.T.);
#480=EDGE_CURVE('',#613,#628,#707,.T.);
#481=EDGE_CURVE('',#629,#628,#84,.T.);
#482=EDGE_CURVE('',#630,#629,#708,.T.);
#483=EDGE_CURVE('',#630,#631,#85,.T.);
#484=EDGE_CURVE('',#631,#612,#709,.T.);
#485=EDGE_CURVE('',#611,#632,#710,.T.);
#486=EDGE_CURVE('',#633,#632,#86,.T.);
#487=EDGE_CURVE('',#621,#633,#711,.T.);
#488=EDGE_CURVE('',#619,#608,#712,.T.);
#489=EDGE_CURVE('',#607,#605,#713,.T.);
#490=EDGE_CURVE('',#586,#604,#714,.T.);
#491=EDGE_CURVE('',#634,#635,#87,.T.);
#492=EDGE_CURVE('',#635,#636,#715,.T.);
#493=EDGE_CURVE('',#637,#636,#88,.T.);
#494=EDGE_CURVE('',#634,#637,#716,.T.);
#495=EDGE_CURVE('',#636,#638,#717,.T.);
#496=EDGE_CURVE('',#639,#638,#89,.T.);
#497=EDGE_CURVE('',#591,#639,#718,.T.);
#498=EDGE_CURVE('',#595,#631,#719,.T.);
#499=EDGE_CURVE('',#637,#630,#720,.T.);
#500=EDGE_CURVE('',#640,#641,#90,.T.);
#501=EDGE_CURVE('',#641,#635,#721,.T.);
#502=EDGE_CURVE('',#629,#634,#722,.T.);
#503=EDGE_CURVE('',#628,#592,#723,.T.);
#504=EDGE_CURVE('',#640,#590,#724,.T.);
#505=EDGE_CURVE('',#602,#588,#725,.T.);
#506=EDGE_CURVE('',#603,#587,#726,.T.);
#507=EDGE_CURVE('',#578,#597,#727,.T.);
#508=EDGE_CURVE('',#642,#643,#91,.T.);
#509=EDGE_CURVE('',#642,#625,#728,.T.);
#510=EDGE_CURVE('',#643,#624,#729,.T.);
#511=EDGE_CURVE('',#643,#616,#730,.T.);
#512=EDGE_CURVE('',#644,#615,#731,.T.);
#513=EDGE_CURVE('',#645,#644,#92,.T.);
#514=EDGE_CURVE('',#642,#645,#732,.T.);
#515=EDGE_CURVE('',#644,#627,#733,.T.);
#516=EDGE_CURVE('',#645,#626,#734,.T.);
#517=EDGE_CURVE('',#646,#610,#735,.T.);
#518=EDGE_CURVE('',#620,#609,#736,.T.);
#519=EDGE_CURVE('',#647,#622,#737,.T.);
#520=EDGE_CURVE('',#647,#646,#93,.T.);
#521=EDGE_CURVE('',#647,#633,#738,.T.);
#522=EDGE_CURVE('',#646,#632,#739,.T.);
#523=EDGE_CURVE('',#579,#598,#740,.T.);
#524=EDGE_CURVE('',#648,#649,#94,.T.);
#525=EDGE_CURVE('',#648,#583,#741,.T.);
#526=EDGE_CURVE('',#649,#589,#742,.T.);
#527=EDGE_CURVE('',#650,#651,#95,.T.);
#528=EDGE_CURVE('',#650,#648,#743,.T.);
#529=EDGE_CURVE('',#651,#649,#744,.T.);
#530=EDGE_CURVE('',#652,#653,#96,.T.);
#531=EDGE_CURVE('',#652,#650,#745,.T.);
#532=EDGE_CURVE('',#653,#651,#746,.T.);
#533=EDGE_CURVE('',#654,#655,#97,.T.);
#534=EDGE_CURVE('',#654,#652,#747,.T.);
#535=EDGE_CURVE('',#655,#653,#748,.T.);
#536=EDGE_CURVE('',#600,#654,#749,.T.);
#537=EDGE_CURVE('',#601,#655,#750,.T.);
#538=EDGE_CURVE('',#656,#657,#98,.T.);
#539=EDGE_CURVE('',#641,#657,#751,.T.);
#540=EDGE_CURVE('',#640,#656,#752,.T.);
#541=EDGE_CURVE('',#658,#659,#99,.T.);
#542=EDGE_CURVE('',#657,#659,#753,.T.);
#543=EDGE_CURVE('',#656,#658,#754,.T.);
#544=EDGE_CURVE('',#660,#661,#100,.T.);
#545=EDGE_CURVE('',#659,#661,#755,.T.);
#546=EDGE_CURVE('',#658,#660,#756,.T.);
#547=EDGE_CURVE('',#662,#663,#101,.T.);
#548=EDGE_CURVE('',#661,#663,#757,.T.);
#549=EDGE_CURVE('',#660,#662,#758,.T.);
#550=EDGE_CURVE('',#662,#639,#759,.T.);
#551=EDGE_CURVE('',#663,#638,#760,.T.);
#552=EDGE_CURVE('',#664,#665,#102,.T.);
#553=EDGE_CURVE('',#666,#664,#761,.T.);
#554=EDGE_CURVE('',#666,#667,#103,.T.);
#555=EDGE_CURVE('',#667,#665,#762,.T.);
#556=EDGE_CURVE('',#664,#573,#763,.T.);
#557=EDGE_CURVE('',#665,#575,#764,.T.);
#558=EDGE_CURVE('',#666,#574,#765,.T.);
#559=EDGE_CURVE('',#667,#576,#766,.T.);
#560=EDGE_CURVE('',#668,#669,#104,.T.);
#561=EDGE_CURVE('',#669,#571,#767,.T.);
#562=EDGE_CURVE('',#668,#569,#768,.T.);
#563=EDGE_CURVE('',#670,#671,#105,.T.);
#564=EDGE_CURVE('',#671,#669,#769,.T.);
#565=EDGE_CURVE('',#670,#668,#770,.T.);
#566=EDGE_CURVE('',#670,#570,#771,.T.);
#567=EDGE_CURVE('',#671,#572,#772,.T.);
#568=EDGE_CURVE('',#672,#672,#106,.T.);
#569=VERTEX_POINT('',#1530);
#570=VERTEX_POINT('',#1531);
#571=VERTEX_POINT('',#1533);
#572=VERTEX_POINT('',#1535);
#573=VERTEX_POINT('',#1538);
#574=VERTEX_POINT('',#1539);
#575=VERTEX_POINT('',#1541);
#576=VERTEX_POINT('',#1543);
#577=VERTEX_POINT('',#1546);
#578=VERTEX_POINT('',#1548);
#579=VERTEX_POINT('',#1549);
#580=VERTEX_POINT('',#1551);
#581=VERTEX_POINT('',#1553);
#582=VERTEX_POINT('',#1557);
#583=VERTEX_POINT('',#1558);
#584=VERTEX_POINT('',#1560);
#585=VERTEX_POINT('',#1562);
#586=VERTEX_POINT('',#1564);
#587=VERTEX_POINT('',#1566);
#588=VERTEX_POINT('',#1568);
#589=VERTEX_POINT('',#1570);
#590=VERTEX_POINT('',#1574);
#591=VERTEX_POINT('',#1575);
#592=VERTEX_POINT('',#1577);
#593=VERTEX_POINT('',#1579);
#594=VERTEX_POINT('',#1581);
#595=VERTEX_POINT('',#1583);
#596=VERTEX_POINT('',#1587);
#597=VERTEX_POINT('',#1588);
#598=VERTEX_POINT('',#1590);
#599=VERTEX_POINT('',#1593);
#600=VERTEX_POINT('',#1597);
#601=VERTEX_POINT('',#1599);
#602=VERTEX_POINT('',#1601);
#603=VERTEX_POINT('',#1603);
#604=VERTEX_POINT('',#1605);
#605=VERTEX_POINT('',#1607);
#606=VERTEX_POINT('',#1611);
#607=VERTEX_POINT('',#1613);
#608=VERTEX_POINT('',#1615);
#609=VERTEX_POINT('',#1617);
#610=VERTEX_POINT('',#1619);
#611=VERTEX_POINT('',#1621);
#612=VERTEX_POINT('',#1623);
#613=VERTEX_POINT('',#1626);
#614=VERTEX_POINT('',#1628);
#615=VERTEX_POINT('',#1630);
#616=VERTEX_POINT('',#1632);
#617=VERTEX_POINT('',#1634);
#618=VERTEX_POINT('',#1636);
#619=VERTEX_POINT('',#1640);
#620=VERTEX_POINT('',#1641);
#621=VERTEX_POINT('',#1643);
#622=VERTEX_POINT('',#1645);
#623=VERTEX_POINT('',#1649);
#624=VERTEX_POINT('',#1652);
#625=VERTEX_POINT('',#1654);
#626=VERTEX_POINT('',#1656);
#627=VERTEX_POINT('',#1658);
#628=VERTEX_POINT('',#1661);
#629=VERTEX_POINT('',#1663);
#630=VERTEX_POINT('',#1665);
#631=VERTEX_POINT('',#1667);
#632=VERTEX_POINT('',#1670);
#633=VERTEX_POINT('',#1672);
#634=VERTEX_POINT('',#1681);
#635=VERTEX_POINT('',#1682);
#636=VERTEX_POINT('',#1684);
#637=VERTEX_POINT('',#1686);
#638=VERTEX_POINT('',#1690);
#639=VERTEX_POINT('',#1692);
#640=VERTEX_POINT('',#1698);
#641=VERTEX_POINT('',#1699);
#642=VERTEX_POINT('',#1714);
#643=VERTEX_POINT('',#1715);
#644=VERTEX_POINT('',#1721);
#645=VERTEX_POINT('',#1723);
#646=VERTEX_POINT('',#1732);
#647=VERTEX_POINT('',#1735);
#648=VERTEX_POINT('',#1749);
#649=VERTEX_POINT('',#1750);
#650=VERTEX_POINT('',#1755);
#651=VERTEX_POINT('',#1756);
#652=VERTEX_POINT('',#1761);
#653=VERTEX_POINT('',#1762);
#654=VERTEX_POINT('',#1767);
#655=VERTEX_POINT('',#1768);
#656=VERTEX_POINT('',#1778);
#657=VERTEX_POINT('',#1779);
#658=VERTEX_POINT('',#1784);
#659=VERTEX_POINT('',#1785);
#660=VERTEX_POINT('',#1790);
#661=VERTEX_POINT('',#1791);
#662=VERTEX_POINT('',#1796);
#663=VERTEX_POINT('',#1797);
#664=VERTEX_POINT('',#1807);
#665=VERTEX_POINT('',#1808);
#666=VERTEX_POINT('',#1810);
#667=VERTEX_POINT('',#1812);
#668=VERTEX_POINT('',#1824);
#669=VERTEX_POINT('',#1825);
#670=VERTEX_POINT('',#1830);
#671=VERTEX_POINT('',#1831);
#672=VERTEX_POINT('',#1841);
#673=LINE('',#1529,#773);
#674=LINE('',#1534,#774);
#675=LINE('',#1537,#775);
#676=LINE('',#1542,#776);
#677=LINE('',#1550,#777);
#678=LINE('',#1554,#778);
#679=LINE('',#1556,#779);
#680=LINE('',#1561,#780);
#681=LINE('',#1565,#781);
#682=LINE('',#1569,#782);
#683=LINE('',#1573,#783);
#684=LINE('',#1578,#784);
#685=LINE('',#1582,#785);
#686=LINE('',#1586,#786);
#687=LINE('',#1591,#787);
#688=LINE('',#1592,#788);
#689=LINE('',#1596,#789);
#690=LINE('',#1600,#790);
#691=LINE('',#1604,#791);
#692=LINE('',#1608,#792);
#693=LINE('',#1612,#793);
#694=LINE('',#1616,#794);
#695=LINE('',#1620,#795);
#696=LINE('',#1624,#796);
#697=LINE('',#1625,#797);
#698=LINE('',#1629,#798);
#699=LINE('',#1633,#799);
#700=LINE('',#1637,#800);
#701=LINE('',#1639,#801);
#702=LINE('',#1644,#802);
#703=LINE('',#1650,#803);
#704=LINE('',#1651,#804);
#705=LINE('',#1655,#805);
#706=LINE('',#1659,#806);
#707=LINE('',#1660,#807);
#708=LINE('',#1664,#808);
#709=LINE('',#1668,#809);
#710=LINE('',#1669,#810);
#711=LINE('',#1673,#811);
#712=LINE('',#1674,#812);
#713=LINE('',#1675,#813);
#714=LINE('',#1676,#814);
#715=LINE('',#1683,#815);
#716=LINE('',#1687,#816);
#717=LINE('',#1689,#817);
#718=LINE('',#1693,#818);
#719=LINE('',#1694,#819);
#720=LINE('',#1695,#820);
#721=LINE('',#1700,#821);
#722=LINE('',#1701,#822);
#723=LINE('',#1702,#823);
#724=LINE('',#1703,#824);
#725=LINE('',#1707,#825);
#726=LINE('',#1708,#826);
#727=LINE('',#1711,#827);
#728=LINE('',#1716,#828);
#729=LINE('',#1717,#829);
#730=LINE('',#1719,#830);
#731=LINE('',#1720,#831);
#732=LINE('',#1724,#832);
#733=LINE('',#1726,#833);
#734=LINE('',#1727,#834);
#735=LINE('',#1731,#835);
#736=LINE('',#1733,#836);
#737=LINE('',#1734,#837);
#738=LINE('',#1738,#838);
#739=LINE('',#1739,#839);
#740=LINE('',#1745,#840);
#741=LINE('',#1751,#841);
#742=LINE('',#1752,#842);
#743=LINE('',#1757,#843);
#744=LINE('',#1758,#844);
#745=LINE('',#1763,#845);
#746=LINE('',#1764,#846);
#747=LINE('',#1769,#847);
#748=LINE('',#1770,#848);
#749=LINE('',#1772,#849);
#750=LINE('',#1773,#850);
#751=LINE('',#1780,#851);
#752=LINE('',#1781,#852);
#753=LINE('',#1786,#853);
#754=LINE('',#1787,#854);
#755=LINE('',#1792,#855);
#756=LINE('',#1793,#856);
#757=LINE('',#1798,#857);
#758=LINE('',#1799,#858);
#759=LINE('',#1801,#859);
#760=LINE('',#1802,#860);
#761=LINE('',#1809,#861);
#762=LINE('',#1813,#862);
#763=LINE('',#1815,#863);
#764=LINE('',#1816,#864);
#765=LINE('',#1818,#865);
#766=LINE('',#1819,#866);
#767=LINE('',#1826,#867);
#768=LINE('',#1827,#868);
#769=LINE('',#1832,#869);
#770=LINE('',#1833,#870);
#771=LINE('',#1835,#871);
#772=LINE('',#1836,#872);
#773=VECTOR('',#1205,1.);
#774=VECTOR('',#1208,1.);
#775=VECTOR('',#1211,1.);
#776=VECTOR('',#1214,1.);
#777=VECTOR('',#1221,1.);
#778=VECTOR('',#1224,1.);
#779=VECTOR('',#1227,1.);
#780=VECTOR('',#1230,1.);
#781=VECTOR('',#1233,1.);
#782=VECTOR('',#1236,1.);
#783=VECTOR('',#1241,1.);
#784=VECTOR('',#1244,1.);
#785=VECTOR('',#1247,1.);
#786=VECTOR('',#1252,1.);
#787=VECTOR('',#1255,1.);
#788=VECTOR('',#1256,1.);
#789=VECTOR('',#1261,1.);
#790=VECTOR('',#1264,1.);
#791=VECTOR('',#1267,1.);
#792=VECTOR('',#1270,1.);
#793=VECTOR('',#1275,1.);
#794=VECTOR('',#1278,1.);
#795=VECTOR('',#1281,1.);
#796=VECTOR('',#1284,1.);
#797=VECTOR('',#1285,1.);
#798=VECTOR('',#1288,1.);
#799=VECTOR('',#1291,1.);
#800=VECTOR('',#1294,1.);
#801=VECTOR('',#1297,1.);
#802=VECTOR('',#1300,1.);
#803=VECTOR('',#1307,1.);
#804=VECTOR('',#1308,1.);
#805=VECTOR('',#1311,1.);
#806=VECTOR('',#1314,1.);
#807=VECTOR('',#1315,1.);
#808=VECTOR('',#1318,1.);
#809=VECTOR('',#1321,1.);
#810=VECTOR('',#1322,1.);
#811=VECTOR('',#1325,1.);
#812=VECTOR('',#1326,1.);
#813=VECTOR('',#1327,1.);
#814=VECTOR('',#1328,1.);
#815=VECTOR('',#1337,1.);
#816=VECTOR('',#1340,1.);
#817=VECTOR('',#1343,1.);
#818=VECTOR('',#1346,1.);
#819=VECTOR('',#1347,1.);
#820=VECTOR('',#1348,1.);
#821=VECTOR('',#1353,1.);
#822=VECTOR('',#1354,1.);
#823=VECTOR('',#1355,1.);
#824=VECTOR('',#1356,1.);
#825=VECTOR('',#1363,1.);
#826=VECTOR('',#1364,1.);
#827=VECTOR('',#1369,1.);
#828=VECTOR('',#1374,1.);
#829=VECTOR('',#1375,1.);
#830=VECTOR('',#1378,1.);
#831=VECTOR('',#1379,1.);
#832=VECTOR('',#1382,1.);
#833=VECTOR('',#1385,1.);
#834=VECTOR('',#1386,1.);
#835=VECTOR('',#1393,1.);
#836=VECTOR('',#1394,1.);
#837=VECTOR('',#1395,1.);
#838=VECTOR('',#1400,1.);
#839=VECTOR('',#1401,1.);
#840=VECTOR('',#1412,1.);
#841=VECTOR('',#1419,1.);
#842=VECTOR('',#1420,1.);
#843=VECTOR('',#1425,1.);
#844=VECTOR('',#1426,1.);
#845=VECTOR('',#1431,1.);
#846=VECTOR('',#1432,1.);
#847=VECTOR('',#1437,1.);
#848=VECTOR('',#1438,1.);
#849=VECTOR('',#1441,1.);
#850=VECTOR('',#1442,1.);
#851=VECTOR('',#1451,1.);
#852=VECTOR('',#1452,1.);
#853=VECTOR('',#1457,1.);
#854=VECTOR('',#1458,1.);
#855=VECTOR('',#1463,1.);
#856=VECTOR('',#1464,1.);
#857=VECTOR('',#1469,1.);
#858=VECTOR('',#1470,1.);
#859=VECTOR('',#1473,1.);
#860=VECTOR('',#1474,1.);
#861=VECTOR('',#1483,1.);
#862=VECTOR('',#1486,1.);
#863=VECTOR('',#1489,1.);
#864=VECTOR('',#1490,1.);
#865=VECTOR('',#1493,1.);
#866=VECTOR('',#1494,1.);
#867=VECTOR('',#1503,1.);
#868=VECTOR('',#1504,1.);
#869=VECTOR('',#1509,1.);
#870=VECTOR('',#1510,1.);
#871=VECTOR('',#1513,1.);
#872=VECTOR('',#1514,1.);
#873=EDGE_LOOP('',(#107,#108,#109,#110));
#874=EDGE_LOOP('',(#111,#112,#113,#114));
#875=EDGE_LOOP('',(#115));
#876=EDGE_LOOP('',(#116,#117,#118,#119));
#877=EDGE_LOOP('',(#120,#121,#122,#123,#124,#125,#126,#127));
#878=EDGE_LOOP('',(#128,#129,#130,#131,#132,#133));
#879=EDGE_LOOP('',(#134,#135,#136,#137,#138,#139));
#880=EDGE_LOOP('',(#140,#141,#142,#143,#144,#145,#146,#147));
#881=EDGE_LOOP('',(#148));
#882=EDGE_LOOP('',(#149,#150,#151,#152,#153,#154,#155,#156,#157,#158,#159,#160,#161,#162,#163,#164));
#883=EDGE_LOOP('',(#165,#166,#167,#168));
#884=EDGE_LOOP('',(#169));
#885=EDGE_LOOP('',(#170,#171,#172,#173,#174,#175,#176,#177,#178,#179,#180,#181,#182,#183,#184,#185,#186,#187,#188,#189,#190,#191,#192,#193));
#886=EDGE_LOOP('',(#194));
#887=EDGE_LOOP('',(#195));
#888=EDGE_LOOP('',(#196,#197,#198,#199));
#889=EDGE_LOOP('',(#200,#201,#202,#203,#204,#205,#206,#207));
#890=EDGE_LOOP('',(#208,#209,#210,#211,#212,#213,#214,#215));
#891=EDGE_LOOP('',(#216,#217,#218,#219));
#892=EDGE_LOOP('',(#220,#221,#222,#223));
#893=EDGE_LOOP('',(#224,#225,#226,#227));
#894=EDGE_LOOP('',(#228,#229,#230,#231));
#895=EDGE_LOOP('',(#232,#233,#234,#235,#236,#237));
#896=EDGE_LOOP('',(#238,#239,#240,#241));
#897=EDGE_LOOP('',(#242,#243,#244,#245,#246,#247));
#898=EDGE_LOOP('',(#248,#249,#250,#251));
#899=EDGE_LOOP('',(#252,#253,#254,#255));
#900=EDGE_LOOP('',(#256,#257,#258,#259));
#901=EDGE_LOOP('',(#260,#261,#262,#263,#264,#265));
#902=EDGE_LOOP('',(#266,#267,#268,#269));
#903=EDGE_LOOP('',(#270,#271,#272,#273));
#904=EDGE_LOOP('',(#274,#275,#276,#277));
#905=EDGE_LOOP('',(#278,#279,#280,#281));
#906=EDGE_LOOP('',(#282,#283,#284,#285));
#907=EDGE_LOOP('',(#286,#287,#288,#289,#290,#291));
#908=EDGE_LOOP('',(#292,#293,#294,#295));
#909=EDGE_LOOP('',(#296,#297,#298,#299));
#910=EDGE_LOOP('',(#300,#301,#302,#303));
#911=EDGE_LOOP('',(#304,#305,#306,#307));
#912=EDGE_LOOP('',(#308,#309,#310,#311));
#913=EDGE_LOOP('',(#312,#313,#314,#315));
#914=EDGE_LOOP('',(#316,#317,#318,#319,#320,#321,#322,#323));
#915=EDGE_LOOP('',(#324,#325,#326,#327,#328,#329,#330,#331));
#916=EDGE_LOOP('',(#332,#333,#334,#335));
#917=EDGE_LOOP('',(#336,#337,#338,#339));
#918=EDGE_LOOP('',(#340,#341,#342,#343));
#919=EDGE_LOOP('',(#344,#345,#346,#347));
#920=EDGE_LOOP('',(#348,#349,#350,#351));
#921=EDGE_LOOP('',(#352,#353,#354,#355,#356,#357,#358,#359));
#922=EDGE_LOOP('',(#360,#361,#362,#363,#364,#365,#366,#367));
#923=EDGE_LOOP('',(#368,#369,#370,#371));
#924=EDGE_LOOP('',(#372,#373,#374,#375));
#925=EDGE_LOOP('',(#376,#377,#378,#379));
#926=EDGE_LOOP('',(#380,#381,#382,#383));
#927=EDGE_LOOP('',(#384,#385,#386,#387));
#928=EDGE_LOOP('',(#388,#389,#390,#391));
#929=EDGE_LOOP('',(#392,#393,#394,#395));
#930=EDGE_LOOP('',(#396,#397,#398,#399));
#931=EDGE_LOOP('',(#400,#401,#402,#403));
#932=EDGE_LOOP('',(#404,#405,#406,#407));
#933=EDGE_LOOP('',(#408));
#934=EDGE_LOOP('',(#409));
#935=EDGE_LOOP('',(#410));
#936=EDGE_LOOP('',(#411,#412,#413,#414));
#937=FACE_BOUND('',#873,.T.);
#938=FACE_BOUND('',#874,.T.);
#939=FACE_BOUND('',#875,.T.);
#940=FACE_BOUND('',#876,.T.);
#941=FACE_BOUND('',#877,.T.);
#942=FACE_BOUND('',#878,.T.);
#943=FACE_BOUND('',#879,.T.);
#944=FACE_BOUND('',#880,.T.);
#945=FACE_BOUND('',#881,.T.);
#946=FACE_BOUND('',#882,.T.);
#947=FACE_BOUND('',#883,.T.);
#948=FACE_BOUND('',#884,.T.);
#949=FACE_BOUND('',#885,.T.);
#950=FACE_BOUND('',#886,.T.);
#951=FACE_BOUND('',#887,.T.);
#952=FACE_BOUND('',#888,.T.);
#953=FACE_BOUND('',#889,.T.);
#954=FACE_BOUND('',#890,.T.);
#955=FACE_BOUND('',#891,.T.);
#956=FACE_BOUND('',#892,.T.);
#957=FACE_BOUND('',#893,.T.);
#958=FACE_BOUND('',#894,.T.);
#959=FACE_BOUND('',#895,.T.);
#960=FACE_BOUND('',#896,.T.);
#961=FACE_BOUND('',#897,.T.);
#962=FACE_BOUND('',#898,.T.);
#963=FACE_BOUND('',#899,.T.);
#964=FACE_BOUND('',#900,.T.);
#965=FACE_BOUND('',#901,.T.);
#966=FACE_BOUND('',#902,.T.);
#967=FACE_BOUND('',#903,.T.);
#968=FACE_BOUND('',#904,.T.);
#969=FACE_BOUND('',#905,.T.);
#970=FACE_BOUND('',#906,.T.);
#971=FACE_BOUND('',#907,.T.);
#972=FACE_BOUND('',#908,.T.);
#973=FACE_BOUND('',#909,.T.);
#974=FACE_BOUND('',#910,.T.);
#975=FACE_BOUND('',#911,.T.);
#976=FACE_BOUND('',#912,.T.);
#977=FACE_BOUND('',#913,.T.);
#978=FACE_BOUND('',#914,.T.);
#979=FACE_BOUND('',#915,.T.);
#980=FACE_BOUND('',#916,.T.);
#981=FACE_BOUND('',#917,.T.);
#982=FACE_BOUND('',#918,.T.);
#983=FACE_BOUND('',#919,.T.);
#984=FACE_BOUND('',#920,.T.);
#985=FACE_BOUND('',#921,.T.);
#986=FACE_BOUND('',#922,.T.);
#987=FACE_BOUND('',#923,.T.);
#988=FACE_BOUND('',#924,.T.);
#989=FACE_BOUND('',#925,.T.);
#990=FACE_BOUND('',#926,.T.);
#991=FACE_BOUND('',#927,.T.);
#992=FACE_BOUND('',#928,.T.);
#993=FACE_BOUND('',#929,.T.);
#994=FACE_BOUND('',#930,.T.);
#995=FACE_BOUND('',#931,.T.);
#996=FACE_BOUND('',#932,.T.);
#997=FACE_BOUND('',#933,.T.);
#998=FACE_BOUND('',#934,.T.);
#999=FACE_BOUND('',#935,.T.);
#1000=FACE_BOUND('',#936,.T.);
#1001=CYLINDRICAL_SURFACE('',#1089,0.0116);
#1002=CYLINDRICAL_SURFACE('',#1102,0.0185);
#1003=CYLINDRICAL_SURFACE('',#1106,0.0185);
#1004=CYLINDRICAL_SURFACE('',#1124,0.02);
#1005=CYLINDRICAL_SURFACE('',#1133,0.0185);
#1006=CYLINDRICAL_SURFACE('',#1142,0.0185);
#1007=CYLINDRICAL_SURFACE('',#1147,0.0185);
#1008=CYLINDRICAL_SURFACE('',#1152,0.0185);
#1009=CYLINDRICAL_SURFACE('',#1161,0.01975);
#1010=CYLINDRICAL_SURFACE('',#1165,0.01875);
#1011=CYLINDRICAL_SURFACE('',#1169,0.01975);
#1012=CYLINDRICAL_SURFACE('',#1172,0.01975);
#1013=CYLINDRICAL_SURFACE('',#1176,0.01875);
#1014=CYLINDRICAL_SURFACE('',#1180,0.01975);
#1015=CYLINDRICAL_SURFACE('',#1183,0.0101);
#1016=CYLINDRICAL_SURFACE('',#1192,0.0101);
#1017=CYLINDRICAL_SURFACE('',#1197,0.002075);
#1018=ADVANCED_FACE('',(#937,#938,#939,#940),#1001,.F.);
#1019=ADVANCED_FACE('',(#941),#37,.T.);
#1020=ADVANCED_FACE('',(#942),#1002,.T.);
#1021=ADVANCED_FACE('',(#943),#1003,.T.);
#1022=ADVANCED_FACE('',(#944),#38,.T.);
#1023=ADVANCED_FACE('',(#945,#946),#13,.F.);
#1024=ADVANCED_FACE('',(#947),#39,.T.);
#1025=ADVANCED_FACE('',(#948,#949),#1004,.T.);
#1026=ADVANCED_FACE('',(#950),#12,.T.);
#1027=ADVANCED_FACE('',(#951),#14,.F.);
#1028=ADVANCED_FACE('',(#952),#1005,.T.);
#1029=ADVANCED_FACE('',(#953),#40,.T.);
#1030=ADVANCED_FACE('',(#954),#41,.T.);
#1031=ADVANCED_FACE('',(#955),#15,.T.);
#1032=ADVANCED_FACE('',(#956),#16,.F.);
#1033=ADVANCED_FACE('',(#957),#1006,.T.);
#1034=ADVANCED_FACE('',(#958),#17,.F.);
#1035=ADVANCED_FACE('',(#959),#18,.T.);
#1036=ADVANCED_FACE('',(#960),#42,.T.);
#1037=ADVANCED_FACE('',(#961),#1007,.T.);
#1038=ADVANCED_FACE('',(#962),#43,.T.);
#1039=ADVANCED_FACE('',(#963),#19,.T.);
#1040=ADVANCED_FACE('',(#964),#20,.F.);
#1041=ADVANCED_FACE('',(#965),#1008,.T.);
#1042=ADVANCED_FACE('',(#966),#44,.T.);
#1043=ADVANCED_FACE('',(#967),#21,.F.);
#1044=ADVANCED_FACE('',(#968),#22,.T.);
#1045=ADVANCED_FACE('',(#969),#23,.T.);
#1046=ADVANCED_FACE('',(#970),#24,.F.);
#1047=ADVANCED_FACE('',(#971),#25,.T.);
#1048=ADVANCED_FACE('',(#972),#26,.F.);
#1049=ADVANCED_FACE('',(#973),#1009,.T.);
#1050=ADVANCED_FACE('',(#974),#45,.T.);
#1051=ADVANCED_FACE('',(#975),#1010,.T.);
#1052=ADVANCED_FACE('',(#976),#46,.T.);
#1053=ADVANCED_FACE('',(#977),#1011,.T.);
#1054=ADVANCED_FACE('',(#978),#27,.T.);
#1055=ADVANCED_FACE('',(#979),#28,.F.);
#1056=ADVANCED_FACE('',(#980),#1012,.T.);
#1057=ADVANCED_FACE('',(#981),#47,.T.);
#1058=ADVANCED_FACE('',(#982),#1013,.T.);
#1059=ADVANCED_FACE('',(#983),#48,.T.);
#1060=ADVANCED_FACE('',(#984),#1014,.T.);
#1061=ADVANCED_FACE('',(#985),#29,.F.);
#1062=ADVANCED_FACE('',(#986),#30,.T.);
#1063=ADVANCED_FACE('',(#987),#1015,.F.);
#1064=ADVANCED_FACE('',(#988),#49,.F.);
#1065=ADVANCED_FACE('',(#989),#50,.F.);
#1066=ADVANCED_FACE('',(#990),#31,.T.);
#1067=ADVANCED_FACE('',(#991),#32,.F.);
#1068=ADVANCED_FACE('',(#992),#51,.F.);
#1069=ADVANCED_FACE('',(#993),#1016,.F.);
#1070=ADVANCED_FACE('',(#994),#52,.F.);
#1071=ADVANCED_FACE('',(#995),#33,.F.);
#1072=ADVANCED_FACE('',(#996),#34,.T.);
#1073=ADVANCED_FACE('',(#997,#998),#1017,.F.);
#1074=ADVANCED_FACE('',(#999),#35,.F.);
#1075=ADVANCED_FACE('',(#1000),#36,.F.);
#1076=CLOSED_SHELL('',(#1018,#1019,#1020,#1021,#1022,#1023,#1024,#1025,#1026,#1027,#1028,#1029,#1030,#1031,#1032,#1033,#1034,#1035,#1036,#1037,#1038,#1039,#1040,#1041,#1042,#1043,#1044,#1045,#1046,#1047,#1048,#1049,#1050,#1051,#1052,#1053,#1054,#1055,#1056,#1057,#1058,#1059,#1060,#1061,#1062,#1063,#1064,#1065,#1066,#1067,#1068,#1069,#1070,#1071,#1072,#1073,#1074,#1075));
#1077=STYLED_ITEM('',(#1078),#1085);
#1078=PRESENTATION_STYLE_ASSIGNMENT((#1079));
#1079=SURFACE_STYLE_USAGE(.BOTH.,#1080);
#1080=SURFACE_SIDE_STYLE('',(#1081));
#1081=SURFACE_STYLE_FILL_AREA(#1082);
#1082=FILL_AREA_STYLE('',(#1083));
#1083=FILL_AREA_STYLE_COLOUR('',#1084);
#1084=COLOUR_RGB('',0.349019607843138,0.376470588235294,0.4);
#1085=MANIFOLD_SOLID_BREP('Base',#1076);
#1086=SHAPE_DEFINITION_REPRESENTATION(#1850,#1087);
#1087=SHAPE_REPRESENTATION('Base',(#1088),#1845);
#1088=AXIS2_PLACEMENT_3D('',#1527,#1201,#1202);
#1089=AXIS2_PLACEMENT_3D('',#1528,#1203,#1204);
#1090=AXIS2_PLACEMENT_3D('',#1532,#1206,#1207);
#1091=AXIS2_PLACEMENT_3D('',#1536,#1209,#1210);
#1092=AXIS2_PLACEMENT_3D('',#1540,#1212,#1213);
#1093=AXIS2_PLACEMENT_3D('',#1544,#1215,#1216);
#1094=AXIS2_PLACEMENT_3D('',#1545,#1217,#1218);
#1095=AXIS2_PLACEMENT_3D('',#1547,#1219,#1220);
#1096=AXIS2_PLACEMENT_3D('',#1552,#1222,#1223);
#1097=AXIS2_PLACEMENT_3D('',#1555,#1225,#1226);
#1098=AXIS2_PLACEMENT_3D('',#1559,#1228,#1229);
#1099=AXIS2_PLACEMENT_3D('',#1563,#1231,#1232);
#1100=AXIS2_PLACEMENT_3D('',#1567,#1234,#1235);
#1101=AXIS2_PLACEMENT_3D('',#1571,#1237,#1238);
#1102=AXIS2_PLACEMENT_3D('',#1572,#1239,#1240);
#1103=AXIS2_PLACEMENT_3D('',#1576,#1242,#1243);
#1104=AXIS2_PLACEMENT_3D('',#1580,#1245,#1246);
#1105=AXIS2_PLACEMENT_3D('',#1584,#1248,#1249);
#1106=AXIS2_PLACEMENT_3D('',#1585,#1250,#1251);
#1107=AXIS2_PLACEMENT_3D('',#1589,#1253,#1254);
#1108=AXIS2_PLACEMENT_3D('',#1594,#1257,#1258);
#1109=AXIS2_PLACEMENT_3D('',#1595,#1259,#1260);
#1110=AXIS2_PLACEMENT_3D('',#1598,#1262,#1263);
#1111=AXIS2_PLACEMENT_3D('',#1602,#1265,#1266);
#1112=AXIS2_PLACEMENT_3D('',#1606,#1268,#1269);
#1113=AXIS2_PLACEMENT_3D('',#1609,#1271,#1272);
#1114=AXIS2_PLACEMENT_3D('',#1610,#1273,#1274);
#1115=AXIS2_PLACEMENT_3D('',#1614,#1276,#1277);
#1116=AXIS2_PLACEMENT_3D('',#1618,#1279,#1280);
#1117=AXIS2_PLACEMENT_3D('',#1622,#1282,#1283);
#1118=AXIS2_PLACEMENT_3D('',#1627,#1286,#1287);
#1119=AXIS2_PLACEMENT_3D('',#1631,#1289,#1290);
#1120=AXIS2_PLACEMENT_3D('',#1635,#1292,#1293);
#1121=AXIS2_PLACEMENT_3D('',#1638,#1295,#1296);
#1122=AXIS2_PLACEMENT_3D('',#1642,#1298,#1299);
#1123=AXIS2_PLACEMENT_3D('',#1646,#1301,#1302);
#1124=AXIS2_PLACEMENT_3D('',#1647,#1303,#1304);
#1125=AXIS2_PLACEMENT_3D('',#1648,#1305,#1306);
#1126=AXIS2_PLACEMENT_3D('',#1653,#1309,#1310);
#1127=AXIS2_PLACEMENT_3D('',#1657,#1312,#1313);
#1128=AXIS2_PLACEMENT_3D('',#1662,#1316,#1317);
#1129=AXIS2_PLACEMENT_3D('',#1666,#1319,#1320);
#1130=AXIS2_PLACEMENT_3D('',#1671,#1323,#1324);
#1131=AXIS2_PLACEMENT_3D('',#1677,#1329,#1330);
#1132=AXIS2_PLACEMENT_3D('',#1678,#1331,#1332);
#1133=AXIS2_PLACEMENT_3D('',#1679,#1333,#1334);
#1134=AXIS2_PLACEMENT_3D('',#1680,#1335,#1336);
#1135=AXIS2_PLACEMENT_3D('',#1685,#1338,#1339);
#1136=AXIS2_PLACEMENT_3D('',#1688,#1341,#1342);
#1137=AXIS2_PLACEMENT_3D('',#1691,#1344,#1345);
#1138=AXIS2_PLACEMENT_3D('',#1696,#1349,#1350);
#1139=AXIS2_PLACEMENT_3D('',#1697,#1351,#1352);
#1140=AXIS2_PLACEMENT_3D('',#1704,#1357,#1358);
#1141=AXIS2_PLACEMENT_3D('',#1705,#1359,#1360);
#1142=AXIS2_PLACEMENT_3D('',#1706,#1361,#1362);
#1143=AXIS2_PLACEMENT_3D('',#1709,#1365,#1366);
#1144=AXIS2_PLACEMENT_3D('',#1710,#1367,#1368);
#1145=AXIS2_PLACEMENT_3D('',#1712,#1370,#1371);
#1146=AXIS2_PLACEMENT_3D('',#1713,#1372,#1373);
#1147=AXIS2_PLACEMENT_3D('',#1718,#1376,#1377);
#1148=AXIS2_PLACEMENT_3D('',#1722,#1380,#1381);
#1149=AXIS2_PLACEMENT_3D('',#1725,#1383,#1384);
#1150=AXIS2_PLACEMENT_3D('',#1728,#1387,#1388);
#1151=AXIS2_PLACEMENT_3D('',#1729,#1389,#1390);
#1152=AXIS2_PLACEMENT_3D('',#1730,#1391,#1392);
#1153=AXIS2_PLACEMENT_3D('',#1736,#1396,#1397);
#1154=AXIS2_PLACEMENT_3D('',#1737,#1398,#1399);
#1155=AXIS2_PLACEMENT_3D('',#1740,#1402,#1403);
#1156=AXIS2_PLACEMENT_3D('',#1741,#1404,#1405);
#1157=AXIS2_PLACEMENT_3D('',#1742,#1406,#1407);
#1158=AXIS2_PLACEMENT_3D('',#1743,#1408,#1409);
#1159=AXIS2_PLACEMENT_3D('',#1744,#1410,#1411);
#1160=AXIS2_PLACEMENT_3D('',#1746,#1413,#1414);
#1161=AXIS2_PLACEMENT_3D('',#1747,#1415,#1416);
#1162=AXIS2_PLACEMENT_3D('',#1748,#1417,#1418);
#1163=AXIS2_PLACEMENT_3D('',#1753,#1421,#1422);
#1164=AXIS2_PLACEMENT_3D('',#1754,#1423,#1424);
#1165=AXIS2_PLACEMENT_3D('',#1759,#1427,#1428);
#1166=AXIS2_PLACEMENT_3D('',#1760,#1429,#1430);
#1167=AXIS2_PLACEMENT_3D('',#1765,#1433,#1434);
#1168=AXIS2_PLACEMENT_3D('',#1766,#1435,#1436);
#1169=AXIS2_PLACEMENT_3D('',#1771,#1439,#1440);
#1170=AXIS2_PLACEMENT_3D('',#1774,#1443,#1444);
#1171=AXIS2_PLACEMENT_3D('',#1775,#1445,#1446);
#1172=AXIS2_PLACEMENT_3D('',#1776,#1447,#1448);
#1173=AXIS2_PLACEMENT_3D('',#1777,#1449,#1450);
#1174=AXIS2_PLACEMENT_3D('',#1782,#1453,#1454);
#1175=AXIS2_PLACEMENT_3D('',#1783,#1455,#1456);
#1176=AXIS2_PLACEMENT_3D('',#1788,#1459,#1460);
#1177=AXIS2_PLACEMENT_3D('',#1789,#1461,#1462);
#1178=AXIS2_PLACEMENT_3D('',#1794,#1465,#1466);
#1179=AXIS2_PLACEMENT_3D('',#1795,#1467,#1468);
#1180=AXIS2_PLACEMENT_3D('',#1800,#1471,#1472);
#1181=AXIS2_PLACEMENT_3D('',#1803,#1475,#1476);
#1182=AXIS2_PLACEMENT_3D('',#1804,#1477,#1478);
#1183=AXIS2_PLACEMENT_3D('',#1805,#1479,#1480);
#1184=AXIS2_PLACEMENT_3D('',#1806,#1481,#1482);
#1185=AXIS2_PLACEMENT_3D('',#1811,#1484,#1485);
#1186=AXIS2_PLACEMENT_3D('',#1814,#1487,#1488);
#1187=AXIS2_PLACEMENT_3D('',#1817,#1491,#1492);
#1188=AXIS2_PLACEMENT_3D('',#1820,#1495,#1496);
#1189=AXIS2_PLACEMENT_3D('',#1821,#1497,#1498);
#1190=AXIS2_PLACEMENT_3D('',#1822,#1499,#1500);
#1191=AXIS2_PLACEMENT_3D('',#1823,#1501,#1502);
#1192=AXIS2_PLACEMENT_3D('',#1828,#1505,#1506);
#1193=AXIS2_PLACEMENT_3D('',#1829,#1507,#1508);
#1194=AXIS2_PLACEMENT_3D('',#1834,#1511,#1512);
#1195=AXIS2_PLACEMENT_3D('',#1837,#1515,#1516);
#1196=AXIS2_PLACEMENT_3D('',#1838,#1517,#1518);
#1197=AXIS2_PLACEMENT_3D('',#1839,#1519,#1520);
#1198=AXIS2_PLACEMENT_3D('',#1840,#1521,#1522);
#1199=AXIS2_PLACEMENT_3D('',#1842,#1523,#1524);
#1200=AXIS2_PLACEMENT_3D('',#1843,#1525,#1526);
#1201=DIRECTION('',(0.,0.,1.));
#1202=DIRECTION('',(1.,0.,0.));
#1203=DIRECTION('',(0.,0.,-1.));
#1204=DIRECTION('',(-1.,0.,0.));
#1205=DIRECTION('',(5.30287619362454E-17,-5.59794356448655E-17,1.));
#1206=DIRECTION('',(0.,-8.65956056235494E-17,1.));
#1207=DIRECTION('',(0.,-1.,-8.65956056235494E-17));
#1208=DIRECTION('',(4.32978028117747E-17,-4.32978028117746E-17,1.));
#1209=DIRECTION('',(0.,-8.65956056235494E-17,1.));
#1210=DIRECTION('',(0.,-1.,-8.65956056235494E-17));
#1211=DIRECTION('',(5.30287619362454E-17,-5.59794356448655E-17,1.));
#1212=DIRECTION('',(0.,-8.65956056235494E-17,1.));
#1213=DIRECTION('',(0.,-1.,-8.65956056235494E-17));
#1214=DIRECTION('',(4.32978028117747E-17,-4.32978028117746E-17,1.));
#1215=DIRECTION('',(0.,-8.65956056235494E-17,1.));
#1216=DIRECTION('',(0.,-1.,-8.65956056235494E-17));
#1217=DIRECTION('',(0.,0.,1.));
#1218=DIRECTION('',(1.,0.,0.));
#1219=DIRECTION('',(0.,0.,1.));
#1220=DIRECTION('',(1.,0.,0.));
#1221=DIRECTION('',(0.,0.,-1.));
#1222=DIRECTION('',(0.,0.,1.));
#1223=DIRECTION('',(1.,0.,0.));
#1224=DIRECTION('',(0.,0.,-1.));
#1225=DIRECTION('',(0.,0.,-1.));
#1226=DIRECTION('',(-1.,0.,0.));
#1227=DIRECTION('',(0.353553390593274,-0.612372435695795,-0.707106781186548));
#1228=DIRECTION('',(0.,0.,-1.));
#1229=DIRECTION('',(-1.,0.,0.));
#1230=DIRECTION('',(0.,0.707106781186547,0.707106781186548));
#1231=DIRECTION('',(0.,0.,-1.));
#1232=DIRECTION('',(-1.,0.,0.));
#1233=DIRECTION('',(0.5,-0.5,-0.707106781186547));
#1234=DIRECTION('',(0.,0.,-1.));
#1235=DIRECTION('',(-1.,0.,0.));
#1236=DIRECTION('',(0.385117954958023,-0.593029645775783,-0.707106781186548));
#1237=DIRECTION('',(0.,0.,1.));
#1238=DIRECTION('',(1.,0.,0.));
#1239=DIRECTION('',(0.,0.,-1.));
#1240=DIRECTION('',(-1.,0.,0.));
#1241=DIRECTION('',(0.,0.,-1.));
#1242=DIRECTION('',(0.,0.,-1.));
#1243=DIRECTION('',(-1.,0.,0.));
#1244=DIRECTION('',(0.,0.,-1.));
#1245=DIRECTION('',(0.,0.,1.));
#1246=DIRECTION('',(1.,0.,0.));
#1247=DIRECTION('',(0.,0.,-1.));
#1248=DIRECTION('',(0.,0.,-1.));
#1249=DIRECTION('',(-1.,0.,0.));
#1250=DIRECTION('',(0.,0.,-1.));
#1251=DIRECTION('',(-1.,0.,0.));
#1252=DIRECTION('',(0.,0.,-1.));
#1253=DIRECTION('',(0.,0.,1.));
#1254=DIRECTION('',(1.,0.,0.));
#1255=DIRECTION('',(0.,0.,-1.));
#1256=DIRECTION('',(0.,0.,-1.));
#1257=DIRECTION('',(0.,0.,-1.));
#1258=DIRECTION('',(-1.,0.,0.));
#1259=DIRECTION('',(0.,0.,1.));
#1260=DIRECTION('',(1.,0.,0.));
#1261=DIRECTION('',(-0.353553390593274,0.612372435695795,-0.707106781186547));
#1262=DIRECTION('',(0.,0.,1.));
#1263=DIRECTION('',(1.,0.,0.));
#1264=DIRECTION('',(-0.385117954958023,0.593029645775783,-0.707106781186547));
#1265=DIRECTION('',(0.,0.,-1.));
#1266=DIRECTION('',(-1.,0.,0.));
#1267=DIRECTION('',(-0.5,0.5,-0.707106781186547));
#1268=DIRECTION('',(0.,0.,-1.));
#1269=DIRECTION('',(-1.,0.,0.));
#1270=DIRECTION('',(0.159064415961611,0.688983680194816,-0.707106781186547));
#1271=DIRECTION('',(0.,0.,1.));
#1272=DIRECTION('',(1.,0.,0.));
#1273=DIRECTION('',(0.,0.,1.));
#1274=DIRECTION('',(1.,0.,0.));
#1275=DIRECTION('',(-0.224951054343866,-0.974370064785235,0.));
#1276=DIRECTION('',(0.,0.,1.));
#1277=DIRECTION('',(1.,0.,0.));
#1278=DIRECTION('',(1.,0.,0.));
#1279=DIRECTION('',(0.,0.,1.));
#1280=DIRECTION('',(1.,0.,0.));
#1281=DIRECTION('',(-0.974370064785235,0.224951054343865,0.));
#1282=DIRECTION('',(0.,0.,1.));
#1283=DIRECTION('',(1.,0.,0.));
#1284=DIRECTION('',(0.,1.,0.));
#1285=DIRECTION('',(0.224951054343866,0.974370064785235,0.));
#1286=DIRECTION('',(0.,0.,1.));
#1287=DIRECTION('',(1.,0.,0.));
#1288=DIRECTION('',(1.,0.,0.));
#1289=DIRECTION('',(0.,0.,1.));
#1290=DIRECTION('',(1.,0.,0.));
#1291=DIRECTION('',(-0.974370064785235,0.224951054343865,0.));
#1292=DIRECTION('',(0.,0.,1.));
#1293=DIRECTION('',(1.,0.,0.));
#1294=DIRECTION('',(0.,1.,0.));
#1295=DIRECTION('',(0.,0.,-1.));
#1296=DIRECTION('',(-1.,0.,0.));
#1297=DIRECTION('',(0.707106781186546,0.,0.707106781186549));
#1298=DIRECTION('',(0.,0.,-1.));
#1299=DIRECTION('',(-1.,0.,0.));
#1300=DIRECTION('',(-0.5,-0.5,-0.707106781186548));
#1301=DIRECTION('',(0.,0.,-1.));
#1302=DIRECTION('',(-1.,0.,0.));
#1303=DIRECTION('',(0.,0.,-1.));
#1304=DIRECTION('',(-1.,0.,0.));
#1305=DIRECTION('',(0.,0.,1.));
#1306=DIRECTION('',(1.,0.,0.));
#1307=DIRECTION('',(0.,0.,-1.));
#1308=DIRECTION('',(0.,0.,1.));
#1309=DIRECTION('',(0.,0.,-1.));
#1310=DIRECTION('',(-1.,0.,0.));
#1311=DIRECTION('',(0.,0.,1.));
#1312=DIRECTION('',(0.,0.,-1.));
#1313=DIRECTION('',(-1.,0.,0.));
#1314=DIRECTION('',(0.,0.,-1.));
#1315=DIRECTION('',(0.,0.,1.));
#1316=DIRECTION('',(0.,0.,-1.));
#1317=DIRECTION('',(-1.,0.,0.));
#1318=DIRECTION('',(0.,0.,1.));
#1319=DIRECTION('',(0.,0.,-1.));
#1320=DIRECTION('',(-1.,0.,0.));
#1321=DIRECTION('',(0.,0.,-1.));
#1322=DIRECTION('',(0.,0.,1.));
#1323=DIRECTION('',(0.,0.,-1.));
#1324=DIRECTION('',(-1.,0.,0.));
#1325=DIRECTION('',(0.,0.,1.));
#1326=DIRECTION('',(0.,0.,-1.));
#1327=DIRECTION('',(0.,0.,1.));
#1328=DIRECTION('',(0.,0.,1.));
#1329=DIRECTION('',(0.,0.,1.));
#1330=DIRECTION('',(1.,0.,0.));
#1331=DIRECTION('',(0.,0.,1.));
#1332=DIRECTION('',(1.,0.,0.));
#1333=DIRECTION('',(0.,0.,-1.));
#1334=DIRECTION('',(-1.,0.,0.));
#1335=DIRECTION('',(0.,0.,-1.));
#1336=DIRECTION('',(-1.,0.,0.));
#1337=DIRECTION('',(0.,0.,-1.));
#1338=DIRECTION('',(0.,0.,-1.));
#1339=DIRECTION('',(-1.,0.,0.));
#1340=DIRECTION('',(0.,0.,-1.));
#1341=DIRECTION('',(0.,0.,-1.));
#1342=DIRECTION('',(-1.,0.,0.));
#1343=DIRECTION('',(-0.385117954958023,0.593029645775783,-0.707106781186547));
#1344=DIRECTION('',(0.,0.,1.));
#1345=DIRECTION('',(1.,0.,0.));
#1346=DIRECTION('',(-0.353553390593274,0.612372435695795,-0.707106781186547));
#1347=DIRECTION('',(0.,0.707106781186547,-0.707106781186548));
#1348=DIRECTION('',(-0.5,0.5,-0.707106781186548));
#1349=DIRECTION('',(0.,0.,1.));
#1350=DIRECTION('',(1.,0.,0.));
#1351=DIRECTION('',(0.,0.,1.));
#1352=DIRECTION('',(1.,0.,0.));
#1353=DIRECTION('',(0.385117954958023,-0.593029645775783,-0.707106781186547));
#1354=DIRECTION('',(0.5,-0.5,-0.707106781186547));
#1355=DIRECTION('',(-0.159064415961611,-0.688983680194816,-0.707106781186547));
#1356=DIRECTION('',(0.353553390593274,-0.612372435695795,-0.707106781186547));
#1357=DIRECTION('',(0.707106781186548,0.707106781186547,0.));
#1358=DIRECTION('',(-0.707106781186547,0.707106781186548,0.));
#1359=DIRECTION('',(0.974370064785235,-0.224951054343866,0.));
#1360=DIRECTION('',(0.224951054343866,0.974370064785235,0.));
#1361=DIRECTION('',(0.,0.,-1.));
#1362=DIRECTION('',(-1.,0.,0.));
#1363=DIRECTION('',(0.,0.,-1.));
#1364=DIRECTION('',(0.,0.,-1.));
#1365=DIRECTION('',(0.707106781186548,0.707106781186547,0.));
#1366=DIRECTION('',(-0.707106781186547,0.707106781186548,0.));
#1367=DIRECTION('',(0.974370064785235,-0.224951054343866,0.));
#1368=DIRECTION('',(0.224951054343866,0.974370064785235,0.));
#1369=DIRECTION('',(-0.224951054343866,-0.974370064785235,0.));
#1370=DIRECTION('',(0.,0.,1.));
#1371=DIRECTION('',(1.,0.,0.));
#1372=DIRECTION('',(0.,0.,-1.));
#1373=DIRECTION('',(-1.,0.,0.));
#1374=DIRECTION('',(0.5,0.5,0.707106781186547));
#1375=DIRECTION('',(0.688983680194816,-0.159064415961611,0.707106781186547));
#1376=DIRECTION('',(0.,0.,-1.));
#1377=DIRECTION('',(-1.,0.,0.));
#1378=DIRECTION('',(0.,0.,-1.));
#1379=DIRECTION('',(0.,0.,-1.));
#1380=DIRECTION('',(0.,0.,-1.));
#1381=DIRECTION('',(-1.,0.,0.));
#1382=DIRECTION('',(0.,0.,-1.));
#1383=DIRECTION('',(0.,0.,-1.));
#1384=DIRECTION('',(-1.,0.,0.));
#1385=DIRECTION('',(0.707106781186547,0.,-0.707106781186549));
#1386=DIRECTION('',(0.5,0.5,-0.707106781186548));
#1387=DIRECTION('',(0.707106781186547,-0.707106781186548,0.));
#1388=DIRECTION('',(0.707106781186548,0.707106781186547,0.));
#1389=DIRECTION('',(-0.224951054343866,-0.974370064785235,0.));
#1390=DIRECTION('',(0.974370064785235,-0.224951054343866,0.));
#1391=DIRECTION('',(0.,0.,-1.));
#1392=DIRECTION('',(-1.,0.,0.));
#1393=DIRECTION('',(0.,0.,-1.));
#1394=DIRECTION('',(0.,0.,-1.));
#1395=DIRECTION('',(0.,0.,-1.));
#1396=DIRECTION('',(0.,0.,-1.));
#1397=DIRECTION('',(-1.,0.,0.));
#1398=DIRECTION('',(0.,0.,1.));
#1399=DIRECTION('',(1.,0.,0.));
#1400=DIRECTION('',(-0.5,-0.5,0.707106781186548));
#1401=DIRECTION('',(-0.688983680194815,0.159064415961611,0.707106781186548));
#1402=DIRECTION('',(0.707106781186547,-0.707106781186548,0.));
#1403=DIRECTION('',(0.707106781186548,0.707106781186547,0.));
#1404=DIRECTION('',(-0.224951054343866,-0.974370064785235,0.));
#1405=DIRECTION('',(0.974370064785235,-0.224951054343866,0.));
#1406=DIRECTION('',(0.,1.,0.));
#1407=DIRECTION('',(0.,0.,1.));
#1408=DIRECTION('',(0.,1.,0.));
#1409=DIRECTION('',(0.,0.,1.));
#1410=DIRECTION('',(-1.,0.,0.));
#1411=DIRECTION('',(0.,0.,1.));
#1412=DIRECTION('',(0.,-1.,0.));
#1413=DIRECTION('',(-1.,0.,0.));
#1414=DIRECTION('',(0.,0.,1.));
#1415=DIRECTION('',(0.,0.,1.));
#1416=DIRECTION('',(1.,0.,0.));
#1417=DIRECTION('',(0.,0.,1.));
#1418=DIRECTION('',(1.,0.,0.));
#1419=DIRECTION('',(0.,0.,-1.));
#1420=DIRECTION('',(0.,0.,-1.));
#1421=DIRECTION('',(0.,0.,-1.));
#1422=DIRECTION('',(-1.,0.,0.));
#1423=DIRECTION('',(0.,0.,1.));
#1424=DIRECTION('',(1.,0.,0.));
#1425=DIRECTION('',(0.353553390593274,-0.612372435695795,-0.707106781186547));
#1426=DIRECTION('',(0.385117954958023,-0.593029645775783,-0.707106781186547));
#1427=DIRECTION('',(0.,0.,1.));
#1428=DIRECTION('',(1.,0.,0.));
#1429=DIRECTION('',(0.,0.,1.));
#1430=DIRECTION('',(1.,0.,0.));
#1431=DIRECTION('',(0.,0.,-1.));
#1432=DIRECTION('',(0.,0.,-1.));
#1433=DIRECTION('',(0.,0.,1.));
#1434=DIRECTION('',(1.,0.,0.));
#1435=DIRECTION('',(0.,0.,1.));
#1436=DIRECTION('',(1.,0.,0.));
#1437=DIRECTION('',(-0.353553390593274,0.612372435695795,-0.707106781186547));
#1438=DIRECTION('',(-0.385117954958023,0.593029645775783,-0.707106781186547));
#1439=DIRECTION('',(0.,0.,1.));
#1440=DIRECTION('',(1.,0.,0.));
#1441=DIRECTION('',(0.,0.,-1.));
#1442=DIRECTION('',(0.,0.,-1.));
#1443=DIRECTION('',(-0.866025403784439,-0.5,0.));
#1444=DIRECTION('',(0.5,-0.866025403784439,0.));
#1445=DIRECTION('',(-0.838670567945424,-0.544639035015027,0.));
#1446=DIRECTION('',(0.544639035015027,-0.838670567945424,0.));
#1447=DIRECTION('',(0.,0.,1.));
#1448=DIRECTION('',(1.,0.,0.));
#1449=DIRECTION('',(0.,0.,1.));
#1450=DIRECTION('',(1.,0.,0.));
#1451=DIRECTION('',(0.,0.,-1.));
#1452=DIRECTION('',(0.,0.,-1.));
#1453=DIRECTION('',(0.,0.,1.));
#1454=DIRECTION('',(1.,0.,0.));
#1455=DIRECTION('',(0.,0.,1.));
#1456=DIRECTION('',(1.,0.,0.));
#1457=DIRECTION('',(0.385117954958023,-0.593029645775783,-0.707106781186547));
#1458=DIRECTION('',(0.353553390593274,-0.612372435695795,-0.707106781186547));
#1459=DIRECTION('',(0.,0.,1.));
#1460=DIRECTION('',(1.,0.,0.));
#1461=DIRECTION('',(0.,0.,1.));
#1462=DIRECTION('',(1.,0.,0.));
#1463=DIRECTION('',(0.,0.,-1.));
#1464=DIRECTION('',(0.,0.,-1.));
#1465=DIRECTION('',(0.,0.,-1.));
#1466=DIRECTION('',(-1.,0.,0.));
#1467=DIRECTION('',(0.,0.,1.));
#1468=DIRECTION('',(1.,0.,0.));
#1469=DIRECTION('',(-0.385117954958023,0.593029645775783,-0.707106781186547));
#1470=DIRECTION('',(-0.353553390593274,0.612372435695795,-0.707106781186547));
#1471=DIRECTION('',(0.,0.,1.));
#1472=DIRECTION('',(1.,0.,0.));
#1473=DIRECTION('',(0.,0.,-1.));
#1474=DIRECTION('',(0.,0.,-1.));
#1475=DIRECTION('',(-0.866025403784439,-0.5,0.));
#1476=DIRECTION('',(0.5,-0.866025403784439,0.));
#1477=DIRECTION('',(-0.838670567945424,-0.544639035015027,0.));
#1478=DIRECTION('',(0.544639035015027,-0.838670567945424,0.));
#1479=DIRECTION('',(0.,-8.65956056235494E-17,1.));
#1480=DIRECTION('',(0.,-1.,-8.65956056235494E-17));
#1481=DIRECTION('',(0.,-8.65956056235494E-17,1.));
#1482=DIRECTION('',(0.,-1.,-8.65956056235494E-17));
#1483=DIRECTION('',(-5.30287619362454E-17,5.59794356448655E-17,-1.));
#1484=DIRECTION('',(0.,-8.65956056235494E-17,1.));
#1485=DIRECTION('',(0.,-1.,-8.65956056235494E-17));
#1486=DIRECTION('',(-4.32978028117747E-17,4.32978028117746E-17,-1.));
#1487=DIRECTION('',(0.,8.65956056235494E-17,-1.));
#1488=DIRECTION('',(0.,1.,8.65956056235494E-17));
#1489=DIRECTION('',(0.612372435695795,0.353553390593274,-0.707106781186548));
#1490=DIRECTION('',(0.5,0.5,-0.707106781186548));
#1491=DIRECTION('',(0.,-8.65956056235494E-17,1.));
#1492=DIRECTION('',(0.,-1.,-8.65956056235494E-17));
#1493=DIRECTION('',(0.612372435695794,0.353553390593274,0.707106781186548));
#1494=DIRECTION('',(0.5,0.5,0.707106781186548));
#1495=DIRECTION('',(0.5,-0.866025403784439,-7.49939943260923E-17));
#1496=DIRECTION('',(0.866025403784439,0.5,4.32978028117747E-17));
#1497=DIRECTION('',(0.707106781186548,-0.707106781186548,-6.12323399573677E-17));
#1498=DIRECTION('',(0.707106781186548,0.707106781186548,6.12323399573677E-17));
#1499=DIRECTION('',(0.,8.65956056235494E-17,-1.));
#1500=DIRECTION('',(0.,1.,8.65956056235494E-17));
#1501=DIRECTION('',(0.,-8.65956056235494E-17,1.));
#1502=DIRECTION('',(0.,-1.,-8.65956056235494E-17));
#1503=DIRECTION('',(-0.5,-0.5,-0.707106781186548));
#1504=DIRECTION('',(-0.612372435695794,-0.353553390593274,-0.707106781186548));
#1505=DIRECTION('',(0.,-8.65956056235494E-17,1.));
#1506=DIRECTION('',(0.,-1.,-8.65956056235494E-17));
#1507=DIRECTION('',(0.,-8.65956056235494E-17,1.));
#1508=DIRECTION('',(0.,-1.,-8.65956056235494E-17));
#1509=DIRECTION('',(-4.32978028117747E-17,4.32978028117746E-17,-1.));
#1510=DIRECTION('',(-5.30287619362454E-17,5.59794356448655E-17,-1.));
#1511=DIRECTION('',(0.,-8.65956056235494E-17,1.));
#1512=DIRECTION('',(0.,-1.,-8.65956056235494E-17));
#1513=DIRECTION('',(-0.612372435695794,-0.353553390593274,0.707106781186548));
#1514=DIRECTION('',(-0.5,-0.5,0.707106781186548));
#1515=DIRECTION('',(0.5,-0.866025403784439,-7.49939943260923E-17));
#1516=DIRECTION('',(0.866025403784439,0.5,4.32978028117747E-17));
#1517=DIRECTION('',(0.707106781186548,-0.707106781186548,-6.12323399573677E-17));
#1518=DIRECTION('',(0.707106781186548,0.707106781186548,6.12323399573677E-17));
#1519=DIRECTION('',(0.,0.,-1.));
#1520=DIRECTION('',(-1.,0.,0.));
#1521=DIRECTION('',(0.,0.,1.));
#1522=DIRECTION('',(1.,0.,0.));
#1523=DIRECTION('',(0.,0.,1.));
#1524=DIRECTION('',(1.,0.,0.));
#1525=DIRECTION('',(0.,0.,1.));
#1526=DIRECTION('',(1.,0.,0.));
#1527=CARTESIAN_POINT('',(0.,0.,0.));
#1528=CARTESIAN_POINT('',(0.,7.10295143505465E-19,0.01));
#1529=CARTESIAN_POINT('',(-0.0100458946838995,-0.0058,0.0045));
#1530=CARTESIAN_POINT('',(-0.0100458946838995,-0.0058,0.003));
#1531=CARTESIAN_POINT('',(-0.0100458946838995,-0.0058,0.009));
#1532=CARTESIAN_POINT('',(3.06658683336675E-19,-5.66445500207323E-19,0.003));
#1533=CARTESIAN_POINT('',(-0.00820243866176395,-0.00820243866176396,0.003));
#1534=CARTESIAN_POINT('',(-0.00820243866176395,-0.00820243866176396,0.0045));
#1535=CARTESIAN_POINT('',(-0.00820243866176395,-0.00820243866176395,0.009));
#1536=CARTESIAN_POINT('',(3.06658683336675E-19,-1.08601913394862E-18,0.009));
#1537=CARTESIAN_POINT('',(0.0100458946838995,0.0058,0.0075));
#1538=CARTESIAN_POINT('',(0.0100458946838995,0.0058,0.003));
#1539=CARTESIAN_POINT('',(0.0100458946838995,0.0058,0.009));
#1540=CARTESIAN_POINT('',(3.06658683336675E-19,-5.66445500207323E-19,0.003));
#1541=CARTESIAN_POINT('',(0.00820243866176395,0.00820243866176396,0.003));
#1542=CARTESIAN_POINT('',(0.00820243866176395,0.00820243866176396,0.0075));
#1543=CARTESIAN_POINT('',(0.00820243866176395,0.00820243866176395,0.009));
#1544=CARTESIAN_POINT('',(3.06658683336675E-19,-1.08601913394862E-18,0.009));
#1545=CARTESIAN_POINT('',(0.,7.10295143505465E-19,0.01));
#1546=CARTESIAN_POINT('',(0.0116,7.10295143505465E-19,0.01));
#1547=CARTESIAN_POINT('',(2.0569788298474E-17,1.196959198424E-16,0.001));
#1548=CARTESIAN_POINT('',(-0.00260943223038883,-0.0113026927515087,0.001));
#1549=CARTESIAN_POINT('',(-2.1308854305164E-18,-0.0116,0.001));
#1550=CARTESIAN_POINT('',(-0.00260943223038883,-0.0113026927515087,0.001));
#1551=CARTESIAN_POINT('',(-0.00260943223038883,-0.0113026927515087,0.));
#1552=CARTESIAN_POINT('',(0.,7.10295143505465E-19,0.));
#1553=CARTESIAN_POINT('',(-2.1308854305164E-18,-0.0116,0.));
#1554=CARTESIAN_POINT('',(-2.1308854305164E-18,-0.0116,0.001));
#1555=CARTESIAN_POINT('',(0.,0.,0.0045));
#1556=CARTESIAN_POINT('',(0.0095625,-0.0165627358473774,0.003875));
#1557=CARTESIAN_POINT('',(0.00925,-0.0160214699700121,0.0045));
#1558=CARTESIAN_POINT('',(0.009875,-0.0171040017247427,0.00325));
#1559=CARTESIAN_POINT('',(0.,0.,0.0045));
#1560=CARTESIAN_POINT('',(0.,-0.0185,0.0045));
#1561=CARTESIAN_POINT('',(0.,0.,0.023));
#1562=CARTESIAN_POINT('',(0.,-0.02,0.003));
#1563=CARTESIAN_POINT('',(0.,0.,0.003));
#1564=CARTESIAN_POINT('',(0.0141421356237309,-0.014142135623731,0.003));
#1565=CARTESIAN_POINT('',(0.013611805537841,-0.013611805537841,0.00375));
#1566=CARTESIAN_POINT('',(0.0130814754519511,-0.0130814754519511,0.0045));
#1567=CARTESIAN_POINT('',(0.,0.,0.0045));
#1568=CARTESIAN_POINT('',(0.010075822147778,-0.0155154055069903,0.0045));
#1569=CARTESIAN_POINT('',(0.0104162215446624,-0.0160395746119563,0.003875));
#1570=CARTESIAN_POINT('',(0.0107566209415468,-0.0165637437169221,0.00325));
#1571=CARTESIAN_POINT('',(0.,0.,0.00325));
#1572=CARTESIAN_POINT('',(0.,0.,0.0025));
#1573=CARTESIAN_POINT('',(-0.00925,0.0160214699700121,0.006));
#1574=CARTESIAN_POINT('',(-0.00925,0.0160214699700121,0.0075));
#1575=CARTESIAN_POINT('',(-0.00925,0.0160214699700121,0.0045));
#1576=CARTESIAN_POINT('',(0.,0.,0.0075));
#1577=CARTESIAN_POINT('',(0.00416159450536151,0.0180258461985268,0.0075));
#1578=CARTESIAN_POINT('',(0.00416159450536151,0.0180258461985268,0.00675));
#1579=CARTESIAN_POINT('',(0.0041615945053615,0.0180258461985268,0.));
#1580=CARTESIAN_POINT('',(4.33680868994202E-19,-7.63278329429795E-17,0.));
#1581=CARTESIAN_POINT('',(0.,0.0185,0.));
#1582=CARTESIAN_POINT('',(0.,0.0185,0.006));
#1583=CARTESIAN_POINT('',(0.,0.0185,0.0045));
#1584=CARTESIAN_POINT('',(0.,0.,0.0045));
#1585=CARTESIAN_POINT('',(0.,0.,0.0025));
#1586=CARTESIAN_POINT('',(-0.00416159450536151,-0.0180258461985268,0.00525));
#1587=CARTESIAN_POINT('',(-0.00416159450536151,-0.0180258461985268,0.0075));
#1588=CARTESIAN_POINT('',(-0.0041615945053615,-0.0180258461985268,0.001));
#1589=CARTESIAN_POINT('',(0.,0.,0.001));
#1590=CARTESIAN_POINT('',(0.,-0.0185,0.001));
#1591=CARTESIAN_POINT('',(0.,-0.0185,0.006));
#1592=CARTESIAN_POINT('',(0.00925,-0.0160214699700121,0.006));
#1593=CARTESIAN_POINT('',(0.00925,-0.0160214699700121,0.0075));
#1594=CARTESIAN_POINT('',(0.,0.,0.0075));
#1595=CARTESIAN_POINT('',(0.,0.,0.009));
#1596=CARTESIAN_POINT('',(0.0095625,-0.0165627358473774,0.008125));
#1597=CARTESIAN_POINT('',(0.009875,-0.0171040017247427,0.00875));
#1598=CARTESIAN_POINT('',(0.,0.,0.00875));
#1599=CARTESIAN_POINT('',(0.0107566209415468,-0.0165637437169221,0.00875));
#1600=CARTESIAN_POINT('',(0.0104162215446624,-0.0160395746119563,0.008125));
#1601=CARTESIAN_POINT('',(0.010075822147778,-0.0155154055069903,0.0075));
#1602=CARTESIAN_POINT('',(0.,0.,0.0075));
#1603=CARTESIAN_POINT('',(0.0130814754519511,-0.0130814754519511,0.0075));
#1604=CARTESIAN_POINT('',(0.013611805537841,-0.013611805537841,0.00825));
#1605=CARTESIAN_POINT('',(0.0141421356237309,-0.014142135623731,0.009));
#1606=CARTESIAN_POINT('',(0.,0.,0.009));
#1607=CARTESIAN_POINT('',(-0.00449902108687731,-0.0194874012957047,0.009));
#1608=CARTESIAN_POINT('',(-0.00433030779611941,-0.0187566237471158,0.00825));
#1609=CARTESIAN_POINT('',(0.,0.,0.));
#1610=CARTESIAN_POINT('',(-0.0135551139885635,0.00665348666167214,0.));
#1611=CARTESIAN_POINT('',(-0.0114801139885635,0.00665348666167214,0.));
#1612=CARTESIAN_POINT('',(-0.0043303077961194,-0.0187566237471158,0.));
#1613=CARTESIAN_POINT('',(-0.0044990210868773,-0.0194874012957047,0.));
#1614=CARTESIAN_POINT('',(0.,1.22464679914735E-18,0.));
#1615=CARTESIAN_POINT('',(-0.02,2.4492935982947E-18,0.));
#1616=CARTESIAN_POINT('',(-0.01925,0.,0.));
#1617=CARTESIAN_POINT('',(-0.0185,0.,0.));
#1618=CARTESIAN_POINT('',(4.5102810375397E-17,1.7347234759768E-18,0.));
#1619=CARTESIAN_POINT('',(-0.0180258461985268,0.0041615945053615,0.));
#1620=CARTESIAN_POINT('',(-0.0187566237471158,0.0043303077961194,0.));
#1621=CARTESIAN_POINT('',(-0.0194874012957047,0.0044990210868773,0.));
#1622=CARTESIAN_POINT('',(0.,1.22464679914735E-18,0.));
#1623=CARTESIAN_POINT('',(0.,0.02,0.));
#1624=CARTESIAN_POINT('',(0.,0.01925,0.));
#1625=CARTESIAN_POINT('',(0.0043303077961194,0.0187566237471158,0.));
#1626=CARTESIAN_POINT('',(0.0044990210868773,0.0194874012957047,0.));
#1627=CARTESIAN_POINT('',(0.,1.22464679914735E-18,0.));
#1628=CARTESIAN_POINT('',(0.02,0.,0.));
#1629=CARTESIAN_POINT('',(0.01925,0.,0.));
#1630=CARTESIAN_POINT('',(0.0185,0.,0.));
#1631=CARTESIAN_POINT('',(-7.63278329429795E-17,-4.33680868994202E-19,0.));
#1632=CARTESIAN_POINT('',(0.0180258461985268,-0.0041615945053615,0.));
#1633=CARTESIAN_POINT('',(0.0187566237471158,-0.0043303077961194,0.));
#1634=CARTESIAN_POINT('',(0.0194874012957047,-0.00449902108687729,0.));
#1635=CARTESIAN_POINT('',(0.,1.22464679914735E-18,0.));
#1636=CARTESIAN_POINT('',(-3.67394039744206E-18,-0.02,0.));
#1637=CARTESIAN_POINT('',(0.,-0.01925,0.));
#1638=CARTESIAN_POINT('',(0.,0.,0.0045));
#1639=CARTESIAN_POINT('',(0.,0.,0.023));
#1640=CARTESIAN_POINT('',(-0.02,0.,0.003));
#1641=CARTESIAN_POINT('',(-0.0185,0.,0.00449999999999995));
#1642=CARTESIAN_POINT('',(0.,0.,0.003));
#1643=CARTESIAN_POINT('',(-0.014142135623731,-0.0141421356237309,0.003));
#1644=CARTESIAN_POINT('',(-0.013611805537841,-0.013611805537841,0.00375));
#1645=CARTESIAN_POINT('',(-0.0130814754519511,-0.0130814754519511,0.0045));
#1646=CARTESIAN_POINT('',(0.,0.,0.0045));
#1647=CARTESIAN_POINT('',(0.,1.22464679914735E-18,0.01));
#1648=CARTESIAN_POINT('',(0.,1.22464679914735E-18,0.01));
#1649=CARTESIAN_POINT('',(0.02,1.22464679914735E-18,0.01));
#1650=CARTESIAN_POINT('',(-3.67394039744206E-18,-0.02,0.006));
#1651=CARTESIAN_POINT('',(0.0194874012957047,-0.00449902108687731,0.0075));
#1652=CARTESIAN_POINT('',(0.0194874012957047,-0.00449902108687731,0.009));
#1653=CARTESIAN_POINT('',(0.,0.,0.009));
#1654=CARTESIAN_POINT('',(0.014142135623731,0.0141421356237309,0.009));
#1655=CARTESIAN_POINT('',(0.014142135623731,0.0141421356237309,0.0075));
#1656=CARTESIAN_POINT('',(0.014142135623731,0.0141421356237309,0.003));
#1657=CARTESIAN_POINT('',(0.,0.,0.003));
#1658=CARTESIAN_POINT('',(0.02,0.,0.003));
#1659=CARTESIAN_POINT('',(0.02,0.,0.006));
#1660=CARTESIAN_POINT('',(0.00449902108687731,0.0194874012957047,0.0075));
#1661=CARTESIAN_POINT('',(0.00449902108687731,0.0194874012957047,0.009));
#1662=CARTESIAN_POINT('',(0.,0.,0.009));
#1663=CARTESIAN_POINT('',(-0.0141421356237309,0.014142135623731,0.009));
#1664=CARTESIAN_POINT('',(-0.0141421356237309,0.014142135623731,0.0075));
#1665=CARTESIAN_POINT('',(-0.0141421356237309,0.014142135623731,0.003));
#1666=CARTESIAN_POINT('',(0.,0.,0.003));
#1667=CARTESIAN_POINT('',(0.,0.02,0.003));
#1668=CARTESIAN_POINT('',(0.,0.02,0.006));
#1669=CARTESIAN_POINT('',(-0.0194874012957047,0.00449902108687731,0.0045));
#1670=CARTESIAN_POINT('',(-0.0194874012957047,0.00449902108687731,0.009));
#1671=CARTESIAN_POINT('',(0.,0.,0.009));
#1672=CARTESIAN_POINT('',(-0.014142135623731,-0.0141421356237309,0.009));
#1673=CARTESIAN_POINT('',(-0.014142135623731,-0.0141421356237309,0.0045));
#1674=CARTESIAN_POINT('',(-0.02,2.4492935982947E-18,0.006));
#1675=CARTESIAN_POINT('',(-0.00449902108687731,-0.0194874012957047,0.0045));
#1676=CARTESIAN_POINT('',(0.0141421356237309,-0.014142135623731,0.0045));
#1677=CARTESIAN_POINT('',(7.04731412115578E-19,0.,0.00659571634185585));
#1678=CARTESIAN_POINT('',(0.01,0.,0.01));
#1679=CARTESIAN_POINT('',(0.,0.,0.0025));
#1680=CARTESIAN_POINT('',(0.,0.,0.0075));
#1681=CARTESIAN_POINT('',(-0.0130814754519511,0.0130814754519511,0.0075));
#1682=CARTESIAN_POINT('',(-0.010075822147778,0.0155154055069903,0.0075));
#1683=CARTESIAN_POINT('',(-0.010075822147778,0.0155154055069903,0.006));
#1684=CARTESIAN_POINT('',(-0.010075822147778,0.0155154055069903,0.0045));
#1685=CARTESIAN_POINT('',(0.,0.,0.0045));
#1686=CARTESIAN_POINT('',(-0.0130814754519511,0.0130814754519511,0.0045));
#1687=CARTESIAN_POINT('',(-0.0130814754519511,0.0130814754519511,0.00675));
#1688=CARTESIAN_POINT('',(0.,0.,0.0045));
#1689=CARTESIAN_POINT('',(-0.0104162215446624,0.0160395746119563,0.003875));
#1690=CARTESIAN_POINT('',(-0.0107566209415468,0.0165637437169221,0.00325));
#1691=CARTESIAN_POINT('',(0.,0.,0.00325));
#1692=CARTESIAN_POINT('',(-0.009875,0.0171040017247427,0.00325));
#1693=CARTESIAN_POINT('',(-0.0095625,0.0165627358473774,0.003875));
#1694=CARTESIAN_POINT('',(0.,0.,0.023));
#1695=CARTESIAN_POINT('',(-0.013611805537841,0.013611805537841,0.00375));
#1696=CARTESIAN_POINT('',(0.,0.,0.009));
#1697=CARTESIAN_POINT('',(0.,0.,0.00875));
#1698=CARTESIAN_POINT('',(-0.009875,0.0171040017247427,0.00875));
#1699=CARTESIAN_POINT('',(-0.0107566209415468,0.0165637437169221,0.00875));
#1700=CARTESIAN_POINT('',(-0.0104162215446624,0.0160395746119563,0.008125));
#1701=CARTESIAN_POINT('',(-0.013611805537841,0.013611805537841,0.00825));
#1702=CARTESIAN_POINT('',(0.00433030779611941,0.0187566237471158,0.00825));
#1703=CARTESIAN_POINT('',(-0.0095625,0.0165627358473774,0.008125));
#1704=CARTESIAN_POINT('',(0.,0.,0.0045));
#1705=CARTESIAN_POINT('',(0.,0.,0.0045));
#1706=CARTESIAN_POINT('',(0.,0.,0.0025));
#1707=CARTESIAN_POINT('',(0.010075822147778,-0.0155154055069903,0.006));
#1708=CARTESIAN_POINT('',(0.0130814754519511,-0.0130814754519511,0.00525));
#1709=CARTESIAN_POINT('',(0.,0.,0.0045));
#1710=CARTESIAN_POINT('',(0.,0.,0.0045));
#1711=CARTESIAN_POINT('',(-0.0048364476683931,-0.0209489563928825,0.001));
#1712=CARTESIAN_POINT('',(0.,0.,0.0075));
#1713=CARTESIAN_POINT('',(0.,0.,0.0075));
#1714=CARTESIAN_POINT('',(0.0130814754519511,0.0130814754519511,0.0075));
#1715=CARTESIAN_POINT('',(0.0180258461985268,-0.00416159450536151,0.0075));
#1716=CARTESIAN_POINT('',(0.013611805537841,0.013611805537841,0.00825));
#1717=CARTESIAN_POINT('',(0.0187566237471158,-0.00433030779611941,0.00825));
#1718=CARTESIAN_POINT('',(0.,0.,0.0025));
#1719=CARTESIAN_POINT('',(0.0180258461985268,-0.00416159450536151,0.00675));
#1720=CARTESIAN_POINT('',(0.0185,0.,0.006));
#1721=CARTESIAN_POINT('',(0.0185,0.,0.00449999999999993));
#1722=CARTESIAN_POINT('',(0.,0.,0.0045));
#1723=CARTESIAN_POINT('',(0.0130814754519511,0.0130814754519511,0.0045));
#1724=CARTESIAN_POINT('',(0.0130814754519511,0.0130814754519511,0.00675));
#1725=CARTESIAN_POINT('',(0.,0.,0.0045));
#1726=CARTESIAN_POINT('',(0.,0.,0.023));
#1727=CARTESIAN_POINT('',(0.013611805537841,0.013611805537841,0.00375));
#1728=CARTESIAN_POINT('',(0.,0.,0.005));
#1729=CARTESIAN_POINT('',(0.,0.,0.005));
#1730=CARTESIAN_POINT('',(0.,0.,0.0025));
#1731=CARTESIAN_POINT('',(-0.0180258461985268,0.00416159450536151,0.00525));
#1732=CARTESIAN_POINT('',(-0.0180258461985268,0.00416159450536151,0.0075));
#1733=CARTESIAN_POINT('',(-0.0185,0.,0.006));
#1734=CARTESIAN_POINT('',(-0.0130814754519511,-0.0130814754519511,0.00525));
#1735=CARTESIAN_POINT('',(-0.0130814754519511,-0.0130814754519511,0.0075));
#1736=CARTESIAN_POINT('',(0.,0.,0.0075));
#1737=CARTESIAN_POINT('',(0.,0.,0.0075));
#1738=CARTESIAN_POINT('',(-0.013611805537841,-0.013611805537841,0.00825));
#1739=CARTESIAN_POINT('',(-0.0187566237471158,0.00433030779611941,0.00825));
#1740=CARTESIAN_POINT('',(0.,0.,0.005));
#1741=CARTESIAN_POINT('',(0.,0.,0.005));
#1742=CARTESIAN_POINT('',(-0.01925,0.,0.006));
#1743=CARTESIAN_POINT('',(0.01925,0.,0.006));
#1744=CARTESIAN_POINT('',(0.,-0.01925,0.006));
#1745=CARTESIAN_POINT('',(0.,-0.02075,0.001));
#1746=CARTESIAN_POINT('',(0.,0.01925,0.006));
#1747=CARTESIAN_POINT('',(0.,0.,0.0025));
#1748=CARTESIAN_POINT('',(0.,0.,0.00360355339059327));
#1749=CARTESIAN_POINT('',(0.009875,-0.0171040017247427,0.00360355339059327));
#1750=CARTESIAN_POINT('',(0.0107566209415468,-0.0165637437169221,0.00360355339059327));
#1751=CARTESIAN_POINT('',(0.009875,-0.0171040017247427,0.00342677669529664));
#1752=CARTESIAN_POINT('',(0.0107566209415468,-0.0165637437169221,0.00342677669529664));
#1753=CARTESIAN_POINT('',(0.,0.,0.00460355339059327));
#1754=CARTESIAN_POINT('',(0.,0.,0.00460355339059327));
#1755=CARTESIAN_POINT('',(0.009375,-0.0162379763209583,0.00460355339059327));
#1756=CARTESIAN_POINT('',(0.0102119819065317,-0.0157250731489767,0.00460355339059327));
#1757=CARTESIAN_POINT('',(0.009625,-0.0166709890228504,0.00410355339059327));
#1758=CARTESIAN_POINT('',(0.0104843014240393,-0.0161444084329494,0.00410355339059327));
#1759=CARTESIAN_POINT('',(0.,0.,0.0025));
#1760=CARTESIAN_POINT('',(0.,0.,0.00739644660940673));
#1761=CARTESIAN_POINT('',(0.009375,-0.0162379763209583,0.00739644660940673));
#1762=CARTESIAN_POINT('',(0.0102119819065317,-0.0157250731489767,0.00739644660940673));
#1763=CARTESIAN_POINT('',(0.009375,-0.0162379763209583,0.006));
#1764=CARTESIAN_POINT('',(0.0102119819065317,-0.0157250731489767,0.006));
#1765=CARTESIAN_POINT('',(0.,0.,0.00839644660940673));
#1766=CARTESIAN_POINT('',(0.,0.,0.00839644660940673));
#1767=CARTESIAN_POINT('',(0.009875,-0.0171040017247427,0.00839644660940673));
#1768=CARTESIAN_POINT('',(0.0107566209415468,-0.0165637437169221,0.00839644660940673));
#1769=CARTESIAN_POINT('',(0.009625,-0.0166709890228504,0.00789644660940673));
#1770=CARTESIAN_POINT('',(0.0104843014240393,-0.0161444084329494,0.00789644660940673));
#1771=CARTESIAN_POINT('',(0.,0.,0.0025));
#1772=CARTESIAN_POINT('',(0.009875,-0.0171040017247427,0.00857322330470337));
#1773=CARTESIAN_POINT('',(0.0107566209415468,-0.0165637437169221,0.00857322330470337));
#1774=CARTESIAN_POINT('',(0.,0.,0.00461959273993403));
#1775=CARTESIAN_POINT('',(0.,0.,0.00461959273993403));
#1776=CARTESIAN_POINT('',(0.,0.,0.0025));
#1777=CARTESIAN_POINT('',(0.,0.,0.00839644660940673));
#1778=CARTESIAN_POINT('',(-0.009875,0.0171040017247427,0.00839644660940673));
#1779=CARTESIAN_POINT('',(-0.0107566209415468,0.0165637437169221,0.00839644660940673));
#1780=CARTESIAN_POINT('',(-0.0107566209415468,0.0165637437169221,0.00857322330470337));
#1781=CARTESIAN_POINT('',(-0.009875,0.0171040017247427,0.00857322330470337));
#1782=CARTESIAN_POINT('',(0.,0.,0.00839644660940673));
#1783=CARTESIAN_POINT('',(0.,0.,0.00739644660940673));
#1784=CARTESIAN_POINT('',(-0.009375,0.0162379763209583,0.00739644660940673));
#1785=CARTESIAN_POINT('',(-0.0102119819065317,0.0157250731489767,0.00739644660940673));
#1786=CARTESIAN_POINT('',(-0.0104843014240393,0.0161444084329494,0.00789644660940673));
#1787=CARTESIAN_POINT('',(-0.009625,0.0166709890228504,0.00789644660940673));
#1788=CARTESIAN_POINT('',(0.,0.,0.0025));
#1789=CARTESIAN_POINT('',(0.,0.,0.00460355339059327));
#1790=CARTESIAN_POINT('',(-0.009375,0.0162379763209583,0.00460355339059327));
#1791=CARTESIAN_POINT('',(-0.0102119819065317,0.0157250731489767,0.00460355339059327));
#1792=CARTESIAN_POINT('',(-0.0102119819065317,0.0157250731489767,0.006));
#1793=CARTESIAN_POINT('',(-0.009375,0.0162379763209583,0.006));
#1794=CARTESIAN_POINT('',(0.,0.,0.00460355339059327));
#1795=CARTESIAN_POINT('',(0.,0.,0.00360355339059327));
#1796=CARTESIAN_POINT('',(-0.009875,0.0171040017247427,0.00360355339059327));
#1797=CARTESIAN_POINT('',(-0.0107566209415468,0.0165637437169221,0.00360355339059327));
#1798=CARTESIAN_POINT('',(-0.0104843014240393,0.0161444084329494,0.00410355339059327));
#1799=CARTESIAN_POINT('',(-0.009625,0.0166709890228504,0.00410355339059327));
#1800=CARTESIAN_POINT('',(0.,0.,0.0025));
#1801=CARTESIAN_POINT('',(-0.009875,0.0171040017247427,0.00342677669529664));
#1802=CARTESIAN_POINT('',(-0.0107566209415468,0.0165637437169221,0.00342677669529664));
#1803=CARTESIAN_POINT('',(0.,0.,0.00461959273993403));
#1804=CARTESIAN_POINT('',(0.,0.,0.00461959273993403));
#1805=CARTESIAN_POINT('',(3.06658683336675E-19,-5.23147697395548E-19,0.0025));
#1806=CARTESIAN_POINT('',(3.06658683336675E-19,-6.96338908642648E-19,0.0045));
#1807=CARTESIAN_POINT('',(0.00874685657822283,0.00505,0.0045));
#1808=CARTESIAN_POINT('',(0.00714177848998413,0.00714177848998413,0.0045));
#1809=CARTESIAN_POINT('',(0.00874685657822283,0.00505,0.00675));
#1810=CARTESIAN_POINT('',(0.00874685657822283,0.00505,0.0075));
#1811=CARTESIAN_POINT('',(3.06658683336675E-19,-9.56125725513295E-19,0.0075));
#1812=CARTESIAN_POINT('',(0.00714177848998413,0.00714177848998413,0.0075));
#1813=CARTESIAN_POINT('',(0.00714177848998413,0.00714177848998413,0.00675));
#1814=CARTESIAN_POINT('',(3.06658683336675E-19,-6.96338908642648E-19,0.0045));
#1815=CARTESIAN_POINT('',(0.00939637563106116,0.005425,0.00375));
#1816=CARTESIAN_POINT('',(0.00767210857587404,0.00767210857587404,0.00375));
#1817=CARTESIAN_POINT('',(3.06658683336675E-19,-9.56125725513295E-19,0.0075));
#1818=CARTESIAN_POINT('',(0.00939637563106116,0.005425,0.00825));
#1819=CARTESIAN_POINT('',(0.00767210857587404,0.00767210857587404,0.00825));
#1820=CARTESIAN_POINT('',(3.06658683336675E-19,-6.96338908642647E-19,0.0045));
#1821=CARTESIAN_POINT('',(3.06658683336675E-19,-6.96338908642647E-19,0.0045));
#1822=CARTESIAN_POINT('',(3.06658683336675E-19,-6.96338908642647E-19,0.0045));
#1823=CARTESIAN_POINT('',(3.06658683336675E-19,-6.96338908642647E-19,0.0045));
#1824=CARTESIAN_POINT('',(-0.00874685657822283,-0.00505,0.0045));
#1825=CARTESIAN_POINT('',(-0.00714177848998413,-0.00714177848998414,0.0045));
#1826=CARTESIAN_POINT('',(-0.00767210857587404,-0.00767210857587405,0.00375));
#1827=CARTESIAN_POINT('',(-0.00939637563106116,-0.005425,0.00375));
#1828=CARTESIAN_POINT('',(3.06658683336675E-19,-5.23147697395548E-19,0.0025));
#1829=CARTESIAN_POINT('',(3.06658683336675E-19,-9.56125725513295E-19,0.0075));
#1830=CARTESIAN_POINT('',(-0.00874685657822283,-0.00505,0.0075));
#1831=CARTESIAN_POINT('',(-0.00714177848998413,-0.00714177848998413,0.0075));
#1832=CARTESIAN_POINT('',(-0.00714177848998413,-0.00714177848998414,0.00525));
#1833=CARTESIAN_POINT('',(-0.00874685657822283,-0.00505,0.00525));
#1834=CARTESIAN_POINT('',(3.06658683336675E-19,-9.56125725513295E-19,0.0075));
#1835=CARTESIAN_POINT('',(-0.00939637563106116,-0.005425,0.00825));
#1836=CARTESIAN_POINT('',(-0.00767210857587404,-0.00767210857587405,0.00825));
#1837=CARTESIAN_POINT('',(3.06658683336675E-19,-6.96338908642647E-19,0.0045));
#1838=CARTESIAN_POINT('',(3.06658683336675E-19,-6.96338908642647E-19,0.0045));
#1839=CARTESIAN_POINT('',(-0.0135551139885635,0.00665348666167214,0.013));
#1840=CARTESIAN_POINT('',(-0.0135551139885635,0.00665348666167214,0.013));
#1841=CARTESIAN_POINT('',(-0.0114801139885635,0.00665348666167214,0.013));
#1842=CARTESIAN_POINT('',(0.,0.,0.013));
#1843=CARTESIAN_POINT('',(-0.000470949408370523,3.46944695195361E-18,0.001));
#1844=MECHANICAL_DESIGN_GEOMETRIC_PRESENTATION_REPRESENTATION('',(#1077),#1845);
#1845=(
GEOMETRIC_REPRESENTATION_CONTEXT(3)
GLOBAL_UNCERTAINTY_ASSIGNED_CONTEXT((#1846))
GLOBAL_UNIT_ASSIGNED_CONTEXT((#1849,#1848,#1847))
REPRESENTATION_CONTEXT('Base','TOP_LEVEL_ASSEMBLY_PART')
);
#1846=UNCERTAINTY_MEASURE_WITH_UNIT(LENGTH_MEASURE(1.E-08),#1849,'DISTANCE_ACCURACY_VALUE','Maximum Tolerance applied to model');
#1847=(
NAMED_UNIT(*)
SI_UNIT($,.STERADIAN.)
SOLID_ANGLE_UNIT()
);
#1848=(
NAMED_UNIT(*)
PLANE_ANGLE_UNIT()
SI_UNIT($,.RADIAN.)
);
#1849=(
LENGTH_UNIT()
NAMED_UNIT(*)
SI_UNIT($,.METRE.)
);
#1850=PRODUCT_DEFINITION_SHAPE('','',#1851);
#1851=PRODUCT_DEFINITION('','',#1853,#1852);
#1852=PRODUCT_DEFINITION_CONTEXT('',#1859,'design');
#1853=PRODUCT_DEFINITION_FORMATION_WITH_SPECIFIED_SOURCE('','',#1855,.NOT_KNOWN.);
#1854=PRODUCT_RELATED_PRODUCT_CATEGORY('','',(#1855));
#1855=PRODUCT('Base','Base','Base',(#1857));
#1856=PRODUCT_CATEGORY('','');
#1857=PRODUCT_CONTEXT('',#1859,'mechanical');
#1858=APPLICATION_PROTOCOL_DEFINITION('international standard','ap242_managed_model_based_3d_engineering',2020,#1859);
#1859=APPLICATION_CONTEXT('managed model based 3d engineering');
ENDSEC;
END-ISO-10303-21;
