ISO-10303-21;
HEADER;
/* Generated by software containing ST-Developer
 * from STEP Tools, Inc. (www.steptools.com) 
 */
/* OPTION: using custom renumber hook */

FILE_DESCRIPTION(
/* description */ ('STEP AP242 Edition 2',
'CAx-IF Rec.Pracs.---Representation and Presentation of Product Manufa
cturing Information (PMI)---4.0---2014-10-13',
'CAx-IF Rec.Pracs.---3D Tessellated Geometry---0.4---2014-09-14','2;1',
'CAx-IF Rec.Pracs.---User Defined Attributes---1.5---2016-08-15'),
/* implementation_level */ '2;1');

FILE_NAME(
/* name */ '69978a2935ce29a8c72b9b1c',
/* time_stamp */ '2026-02-19T22:09:46Z',
/* author */ (''),
/* organization */ (''),
/* preprocessor_version */ 'ST-DEVELOPER v20',
/* originating_system */ 'ONSHAPE BY PTC INC, 1.210',
/* authorisation */ '  ');

FILE_SCHEMA (('AP242_MANAGED_MODEL_BASED_3D_ENGINEERING_MIM_LF { 1 0 10303 442 3 1 4 }'));
ENDSEC;

DATA;
#10=SHAPE_REPRESENTATION_RELATIONSHIP('','',#296,#11);
#11=ADVANCED_BREP_SHAPE_REPRESENTATION('',(#294),#617);
#12=CONICAL_SURFACE('',#312,0.017,0.785398163397449);
#13=CONICAL_SURFACE('',#313,0.011,0.785398163397448);
#14=CONICAL_SURFACE('',#317,0.009,0.785398163397452);
#15=CONICAL_SURFACE('',#323,0.011,0.785398163397448);
#16=CONICAL_SURFACE('',#324,0.009,0.785398163397448);
#17=B_SPLINE_SURFACE_WITH_KNOTS('',3,3,((#452,#453,#454,#455,#456,#457,
#458,#459,#460,#461,#462,#463,#464,#465,#466,#467,#468,#469,#470),(#471,
#472,#473,#474,#475,#476,#477,#478,#479,#480,#481,#482,#483,#484,#485,#486,
#487,#488,#489),(#490,#491,#492,#493,#494,#495,#496,#497,#498,#499,#500,
#501,#502,#503,#504,#505,#506,#507,#508),(#509,#510,#511,#512,#513,#514,
#515,#516,#517,#518,#519,#520,#521,#522,#523,#524,#525,#526,#527),(#528,
#529,#530,#531,#532,#533,#534,#535,#536,#537,#538,#539,#540,#541,#542,#543,
#544,#545,#546),(#547,#548,#549,#550,#551,#552,#553,#554,#555,#556,#557,
#558,#559,#560,#561,#562,#563,#564,#565)),.UNSPECIFIED.,.F.,.T.,.F.,(4,
1,1,4),(1,1,1,1,1,1,1,1,1,1,1,1,1,1,1,1,1,1,1,1,1,1,1),(0.00589267339926563,
0.295840643657813,0.502946336699633,1.),(-1.17809724509617,-0.785398163397448,
-0.392699081698725,0.,0.392699081698724,0.785398163397448,1.17809724509617,
1.5707963267949,1.96349540849362,2.35619449019234,2.74889357189107,3.14159265358979,
3.53429173528852,3.92699081698724,4.31968989868597,4.71238898038469,5.10508806208341,
5.49778714378214,5.89048622548086,6.28318530717959,6.67588438887831,7.06858347057703,
7.46128255227576),.UNSPECIFIED.);
#18=PLANE('',#305);
#19=PLANE('',#307);
#20=PLANE('',#318);
#21=PLANE('',#319);
#22=PLANE('',#325);
#23=PLANE('',#326);
#24=PLANE('',#329);
#25=PLANE('',#333);
#26=LINE('',#429,#42);
#27=LINE('',#433,#43);
#28=LINE('',#437,#44);
#29=LINE('',#441,#45);
#30=LINE('',#576,#46);
#31=LINE('',#577,#47);
#32=LINE('',#582,#48);
#33=LINE('',#583,#49);
#34=LINE('',#585,#50);
#35=LINE('',#586,#51);
#36=LINE('',#593,#52);
#37=LINE('',#597,#53);
#38=LINE('',#599,#54);
#39=LINE('',#600,#55);
#40=LINE('',#602,#56);
#41=LINE('',#603,#57);
#42=VECTOR('',#340,1.);
#43=VECTOR('',#343,1.);
#44=VECTOR('',#346,1.);
#45=VECTOR('',#349,1.);
#46=VECTOR('',#374,1.);
#47=VECTOR('',#375,1.);
#48=VECTOR('',#380,1.);
#49=VECTOR('',#381,1.);
#50=VECTOR('',#384,1.);
#51=VECTOR('',#385,1.);
#52=VECTOR('',#394,1.);
#53=VECTOR('',#397,1.);
#54=VECTOR('',#400,1.);
#55=VECTOR('',#401,1.);
#56=VECTOR('',#404,1.);
#57=VECTOR('',#405,1.);
#58=ORIENTED_EDGE('',*,*,#124,.F.);
#59=ORIENTED_EDGE('',*,*,#125,.T.);
#60=ORIENTED_EDGE('',*,*,#126,.T.);
#61=ORIENTED_EDGE('',*,*,#127,.F.);
#62=ORIENTED_EDGE('',*,*,#128,.F.);
#63=ORIENTED_EDGE('',*,*,#129,.T.);
#64=ORIENTED_EDGE('',*,*,#130,.T.);
#65=ORIENTED_EDGE('',*,*,#131,.F.);
#66=ORIENTED_EDGE('',*,*,#132,.T.);
#67=ORIENTED_EDGE('',*,*,#133,.F.);
#68=ORIENTED_EDGE('',*,*,#134,.F.);
#69=ORIENTED_EDGE('',*,*,#132,.F.);
#70=ORIENTED_EDGE('',*,*,#135,.F.);
#71=ORIENTED_EDGE('',*,*,#135,.T.);
#72=ORIENTED_EDGE('',*,*,#136,.F.);
#73=ORIENTED_EDGE('',*,*,#136,.T.);
#74=ORIENTED_EDGE('',*,*,#137,.F.);
#75=ORIENTED_EDGE('',*,*,#133,.T.);
#76=ORIENTED_EDGE('',*,*,#137,.T.);
#77=ORIENTED_EDGE('',*,*,#138,.F.);
#78=ORIENTED_EDGE('',*,*,#139,.T.);
#79=ORIENTED_EDGE('',*,*,#128,.T.);
#80=ORIENTED_EDGE('',*,*,#140,.F.);
#81=ORIENTED_EDGE('',*,*,#141,.F.);
#82=ORIENTED_EDGE('',*,*,#142,.F.);
#83=ORIENTED_EDGE('',*,*,#138,.T.);
#84=ORIENTED_EDGE('',*,*,#143,.T.);
#85=ORIENTED_EDGE('',*,*,#130,.F.);
#86=ORIENTED_EDGE('',*,*,#144,.T.);
#87=ORIENTED_EDGE('',*,*,#141,.T.);
#88=ORIENTED_EDGE('',*,*,#145,.F.);
#89=ORIENTED_EDGE('',*,*,#139,.F.);
#90=ORIENTED_EDGE('',*,*,#142,.T.);
#91=ORIENTED_EDGE('',*,*,#144,.F.);
#92=ORIENTED_EDGE('',*,*,#129,.F.);
#93=ORIENTED_EDGE('',*,*,#140,.T.);
#94=ORIENTED_EDGE('',*,*,#131,.T.);
#95=ORIENTED_EDGE('',*,*,#145,.T.);
#96=ORIENTED_EDGE('',*,*,#143,.F.);
#97=ORIENTED_EDGE('',*,*,#146,.T.);
#98=ORIENTED_EDGE('',*,*,#147,.T.);
#99=ORIENTED_EDGE('',*,*,#148,.F.);
#100=ORIENTED_EDGE('',*,*,#149,.F.);
#101=ORIENTED_EDGE('',*,*,#124,.T.);
#102=ORIENTED_EDGE('',*,*,#150,.F.);
#103=ORIENTED_EDGE('',*,*,#146,.F.);
#104=ORIENTED_EDGE('',*,*,#151,.T.);
#105=ORIENTED_EDGE('',*,*,#152,.T.);
#106=ORIENTED_EDGE('',*,*,#148,.T.);
#107=ORIENTED_EDGE('',*,*,#153,.F.);
#108=ORIENTED_EDGE('',*,*,#126,.F.);
#109=ORIENTED_EDGE('',*,*,#149,.T.);
#110=ORIENTED_EDGE('',*,*,#152,.F.);
#111=ORIENTED_EDGE('',*,*,#125,.F.);
#112=ORIENTED_EDGE('',*,*,#151,.F.);
#113=ORIENTED_EDGE('',*,*,#147,.F.);
#114=ORIENTED_EDGE('',*,*,#150,.T.);
#115=ORIENTED_EDGE('',*,*,#127,.T.);
#116=ORIENTED_EDGE('',*,*,#153,.T.);
#117=ORIENTED_EDGE('',*,*,#154,.F.);
#118=ORIENTED_EDGE('',*,*,#134,.T.);
#119=ORIENTED_EDGE('',*,*,#155,.F.);
#120=ORIENTED_EDGE('',*,*,#154,.T.);
#121=ORIENTED_EDGE('',*,*,#155,.T.);
#122=ORIENTED_EDGE('',*,*,#156,.F.);
#123=ORIENTED_EDGE('',*,*,#156,.T.);
#124=EDGE_CURVE('',#157,#158,#182,.T.);
#125=EDGE_CURVE('',#157,#159,#26,.T.);
#126=EDGE_CURVE('',#159,#160,#183,.T.);
#127=EDGE_CURVE('',#158,#160,#27,.T.);
#128=EDGE_CURVE('',#161,#162,#184,.T.);
#129=EDGE_CURVE('',#161,#163,#28,.T.);
#130=EDGE_CURVE('',#163,#164,#185,.T.);
#131=EDGE_CURVE('',#162,#164,#29,.T.);
#132=EDGE_CURVE('',#165,#165,#186,.T.);
#133=EDGE_CURVE('',#166,#166,#187,.T.);
#134=EDGE_CURVE('',#167,#167,#188,.T.);
#135=EDGE_CURVE('',#168,#168,#189,.T.);
#136=EDGE_CURVE('',#169,#169,#190,.T.);
#137=EDGE_CURVE('',#170,#170,#191,.T.);
#138=EDGE_CURVE('',#171,#172,#192,.T.);
#139=EDGE_CURVE('',#171,#161,#30,.T.);
#140=EDGE_CURVE('',#172,#162,#31,.T.);
#141=EDGE_CURVE('',#173,#174,#193,.T.);
#142=EDGE_CURVE('',#171,#173,#32,.T.);
#143=EDGE_CURVE('',#172,#174,#33,.T.);
#144=EDGE_CURVE('',#163,#173,#34,.T.);
#145=EDGE_CURVE('',#164,#174,#35,.T.);
#146=EDGE_CURVE('',#175,#176,#194,.T.);
#147=EDGE_CURVE('',#176,#177,#36,.T.);
#148=EDGE_CURVE('',#178,#177,#195,.T.);
#149=EDGE_CURVE('',#175,#178,#37,.T.);
#150=EDGE_CURVE('',#176,#158,#38,.T.);
#151=EDGE_CURVE('',#175,#157,#39,.T.);
#152=EDGE_CURVE('',#159,#178,#40,.T.);
#153=EDGE_CURVE('',#160,#177,#41,.T.);
#154=EDGE_CURVE('',#179,#179,#196,.T.);
#155=EDGE_CURVE('',#180,#180,#197,.T.);
#156=EDGE_CURVE('',#181,#181,#198,.T.);
#157=VERTEX_POINT('',#427);
#158=VERTEX_POINT('',#428);
#159=VERTEX_POINT('',#430);
#160=VERTEX_POINT('',#432);
#161=VERTEX_POINT('',#435);
#162=VERTEX_POINT('',#436);
#163=VERTEX_POINT('',#438);
#164=VERTEX_POINT('',#440);
#165=VERTEX_POINT('',#443);
#166=VERTEX_POINT('',#445);
#167=VERTEX_POINT('',#448);
#168=VERTEX_POINT('',#451);
#169=VERTEX_POINT('',#567);
#170=VERTEX_POINT('',#570);
#171=VERTEX_POINT('',#574);
#172=VERTEX_POINT('',#575);
#173=VERTEX_POINT('',#580);
#174=VERTEX_POINT('',#581);
#175=VERTEX_POINT('',#591);
#176=VERTEX_POINT('',#592);
#177=VERTEX_POINT('',#594);
#178=VERTEX_POINT('',#596);
#179=VERTEX_POINT('',#608);
#180=VERTEX_POINT('',#611);
#181=VERTEX_POINT('',#614);
#182=CIRCLE('',#299,0.009);
#183=CIRCLE('',#300,0.009);
#184=CIRCLE('',#301,0.009);
#185=CIRCLE('',#302,0.009);
#186=CIRCLE('',#303,0.009);
#187=CIRCLE('',#304,0.009);
#188=CIRCLE('',#306,0.002075);
#189=CIRCLE('',#308,0.00166292293766319);
#190=CIRCLE('',#309,0.0169999984378265);
#191=CIRCLE('',#311,0.017);
#192=CIRCLE('',#314,0.011);
#193=CIRCLE('',#316,0.011);
#194=CIRCLE('',#321,0.011);
#195=CIRCLE('',#322,0.011);
#196=CIRCLE('',#328,0.002075);
#197=CIRCLE('',#330,0.00105);
#198=CIRCLE('',#332,0.00105);
#199=EDGE_LOOP('',(#58,#59,#60,#61));
#200=EDGE_LOOP('',(#62,#63,#64,#65));
#201=EDGE_LOOP('',(#66));
#202=EDGE_LOOP('',(#67));
#203=EDGE_LOOP('',(#68));
#204=EDGE_LOOP('',(#69));
#205=EDGE_LOOP('',(#70));
#206=EDGE_LOOP('',(#71));
#207=EDGE_LOOP('',(#72));
#208=EDGE_LOOP('',(#73));
#209=EDGE_LOOP('',(#74));
#210=EDGE_LOOP('',(#75));
#211=EDGE_LOOP('',(#76));
#212=EDGE_LOOP('',(#77,#78,#79,#80));
#213=EDGE_LOOP('',(#81,#82,#83,#84));
#214=EDGE_LOOP('',(#85,#86,#87,#88));
#215=EDGE_LOOP('',(#89,#90,#91,#92));
#216=EDGE_LOOP('',(#93,#94,#95,#96));
#217=EDGE_LOOP('',(#97,#98,#99,#100));
#218=EDGE_LOOP('',(#101,#102,#103,#104));
#219=EDGE_LOOP('',(#105,#106,#107,#108));
#220=EDGE_LOOP('',(#109,#110,#111,#112));
#221=EDGE_LOOP('',(#113,#114,#115,#116));
#222=EDGE_LOOP('',(#117));
#223=EDGE_LOOP('',(#118));
#224=EDGE_LOOP('',(#119));
#225=EDGE_LOOP('',(#120));
#226=EDGE_LOOP('',(#121));
#227=EDGE_LOOP('',(#122));
#228=EDGE_LOOP('',(#123));
#229=FACE_BOUND('',#199,.T.);
#230=FACE_BOUND('',#200,.T.);
#231=FACE_BOUND('',#201,.T.);
#232=FACE_BOUND('',#202,.T.);
#233=FACE_BOUND('',#203,.T.);
#234=FACE_BOUND('',#204,.T.);
#235=FACE_BOUND('',#205,.T.);
#236=FACE_BOUND('',#206,.T.);
#237=FACE_BOUND('',#207,.T.);
#238=FACE_BOUND('',#208,.T.);
#239=FACE_BOUND('',#209,.T.);
#240=FACE_BOUND('',#210,.T.);
#241=FACE_BOUND('',#211,.T.);
#242=FACE_BOUND('',#212,.T.);
#243=FACE_BOUND('',#213,.T.);
#244=FACE_BOUND('',#214,.T.);
#245=FACE_BOUND('',#215,.T.);
#246=FACE_BOUND('',#216,.T.);
#247=FACE_BOUND('',#217,.T.);
#248=FACE_BOUND('',#218,.T.);
#249=FACE_BOUND('',#219,.T.);
#250=FACE_BOUND('',#220,.T.);
#251=FACE_BOUND('',#221,.T.);
#252=FACE_BOUND('',#222,.T.);
#253=FACE_BOUND('',#223,.T.);
#254=FACE_BOUND('',#224,.T.);
#255=FACE_BOUND('',#225,.T.);
#256=FACE_BOUND('',#226,.T.);
#257=FACE_BOUND('',#227,.T.);
#258=FACE_BOUND('',#228,.T.);
#259=CYLINDRICAL_SURFACE('',#298,0.009);
#260=CYLINDRICAL_SURFACE('',#310,0.0169999992189132);
#261=CYLINDRICAL_SURFACE('',#315,0.011);
#262=CYLINDRICAL_SURFACE('',#320,0.011);
#263=CYLINDRICAL_SURFACE('',#327,0.002075);
#264=CYLINDRICAL_SURFACE('',#331,0.00105);
#265=ADVANCED_FACE('',(#229,#230,#231,#232),#259,.T.);
#266=ADVANCED_FACE('',(#233,#234),#18,.F.);
#267=ADVANCED_FACE('',(#235),#19,.T.);
#268=ADVANCED_FACE('',(#236,#237),#17,.T.);
#269=ADVANCED_FACE('',(#238,#239),#260,.T.);
#270=ADVANCED_FACE('',(#240,#241),#12,.T.);
#271=ADVANCED_FACE('',(#242),#13,.T.);
#272=ADVANCED_FACE('',(#243),#261,.T.);
#273=ADVANCED_FACE('',(#244),#14,.T.);
#274=ADVANCED_FACE('',(#245),#20,.T.);
#275=ADVANCED_FACE('',(#246),#21,.F.);
#276=ADVANCED_FACE('',(#247),#262,.T.);
#277=ADVANCED_FACE('',(#248),#15,.T.);
#278=ADVANCED_FACE('',(#249),#16,.T.);
#279=ADVANCED_FACE('',(#250),#22,.F.);
#280=ADVANCED_FACE('',(#251),#23,.T.);
#281=ADVANCED_FACE('',(#252,#253),#263,.F.);
#282=ADVANCED_FACE('',(#254,#255),#24,.T.);
#283=ADVANCED_FACE('',(#256,#257),#264,.F.);
#284=ADVANCED_FACE('',(#258),#25,.T.);
#285=CLOSED_SHELL('',(#265,#266,#267,#268,#269,#270,#271,#272,#273,#274,
#275,#276,#277,#278,#279,#280,#281,#282,#283,#284));
#286=STYLED_ITEM('',(#287),#294);
#287=PRESENTATION_STYLE_ASSIGNMENT((#288));
#288=SURFACE_STYLE_USAGE(.BOTH.,#289);
#289=SURFACE_SIDE_STYLE('',(#290));
#290=SURFACE_STYLE_FILL_AREA(#291);
#291=FILL_AREA_STYLE('',(#292));
#292=FILL_AREA_STYLE_COLOUR('',#293);
#293=COLOUR_RGB('',0.941176470588235,0.874509803921569,0.67843137254902);
#294=MANIFOLD_SOLID_BREP('head',#285);
#295=SHAPE_DEFINITION_REPRESENTATION(#622,#296);
#296=SHAPE_REPRESENTATION('head',(#297),#617);
#297=AXIS2_PLACEMENT_3D('',#424,#334,#335);
#298=AXIS2_PLACEMENT_3D('',#425,#336,#337);
#299=AXIS2_PLACEMENT_3D('',#426,#338,#339);
#300=AXIS2_PLACEMENT_3D('',#431,#341,#342);
#301=AXIS2_PLACEMENT_3D('',#434,#344,#345);
#302=AXIS2_PLACEMENT_3D('',#439,#347,#348);
#303=AXIS2_PLACEMENT_3D('',#442,#350,#351);
#304=AXIS2_PLACEMENT_3D('',#444,#352,#353);
#305=AXIS2_PLACEMENT_3D('',#446,#354,#355);
#306=AXIS2_PLACEMENT_3D('',#447,#356,#357);
#307=AXIS2_PLACEMENT_3D('',#449,#358,#359);
#308=AXIS2_PLACEMENT_3D('',#450,#360,#361);
#309=AXIS2_PLACEMENT_3D('',#566,#362,#363);
#310=AXIS2_PLACEMENT_3D('',#568,#364,#365);
#311=AXIS2_PLACEMENT_3D('',#569,#366,#367);
#312=AXIS2_PLACEMENT_3D('',#571,#368,#369);
#313=AXIS2_PLACEMENT_3D('',#572,#370,#371);
#314=AXIS2_PLACEMENT_3D('',#573,#372,#373);
#315=AXIS2_PLACEMENT_3D('',#578,#376,#377);
#316=AXIS2_PLACEMENT_3D('',#579,#378,#379);
#317=AXIS2_PLACEMENT_3D('',#584,#382,#383);
#318=AXIS2_PLACEMENT_3D('',#587,#386,#387);
#319=AXIS2_PLACEMENT_3D('',#588,#388,#389);
#320=AXIS2_PLACEMENT_3D('',#589,#390,#391);
#321=AXIS2_PLACEMENT_3D('',#590,#392,#393);
#322=AXIS2_PLACEMENT_3D('',#595,#395,#396);
#323=AXIS2_PLACEMENT_3D('',#598,#398,#399);
#324=AXIS2_PLACEMENT_3D('',#601,#402,#403);
#325=AXIS2_PLACEMENT_3D('',#604,#406,#407);
#326=AXIS2_PLACEMENT_3D('',#605,#408,#409);
#327=AXIS2_PLACEMENT_3D('',#606,#410,#411);
#328=AXIS2_PLACEMENT_3D('',#607,#412,#413);
#329=AXIS2_PLACEMENT_3D('',#609,#414,#415);
#330=AXIS2_PLACEMENT_3D('',#610,#416,#417);
#331=AXIS2_PLACEMENT_3D('',#612,#418,#419);
#332=AXIS2_PLACEMENT_3D('',#613,#420,#421);
#333=AXIS2_PLACEMENT_3D('',#615,#422,#423);
#334=DIRECTION('',(0.,0.,1.));
#335=DIRECTION('',(1.,0.,0.));
#336=DIRECTION('',(0.,0.,-1.));
#337=DIRECTION('',(-1.,0.,0.));
#338=DIRECTION('',(0.,0.,-1.));
#339=DIRECTION('',(-1.,0.,0.));
#340=DIRECTION('',(0.,0.,-1.));
#341=DIRECTION('',(0.,0.,-1.));
#342=DIRECTION('',(-1.,0.,0.));
#343=DIRECTION('',(0.,0.,-1.));
#344=DIRECTION('',(0.,0.,-1.));
#345=DIRECTION('',(-1.,0.,0.));
#346=DIRECTION('',(0.,0.,-1.));
#347=DIRECTION('',(0.,0.,-1.));
#348=DIRECTION('',(-1.,0.,0.));
#349=DIRECTION('',(0.,0.,-1.));
#350=DIRECTION('',(0.,0.,1.));
#351=DIRECTION('',(1.,0.,0.));
#352=DIRECTION('',(0.,0.,1.));
#353=DIRECTION('',(1.,0.,0.));
#354=DIRECTION('',(0.,0.,1.));
#355=DIRECTION('',(1.,0.,0.));
#356=DIRECTION('',(0.,0.,-1.));
#357=DIRECTION('',(-1.,0.,0.));
#358=DIRECTION('',(0.,0.,1.));
#359=DIRECTION('',(1.,0.,0.));
#360=DIRECTION('',(0.,0.,-1.));
#361=DIRECTION('',(-1.,0.,0.));
#362=DIRECTION('',(0.,0.,-1.));
#363=DIRECTION('',(-1.,0.,0.));
#364=DIRECTION('',(0.,0.,-1.));
#365=DIRECTION('',(-1.,0.,0.));
#366=DIRECTION('',(0.,0.,-1.));
#367=DIRECTION('',(-1.,0.,0.));
#368=DIRECTION('',(0.,0.,1.));
#369=DIRECTION('',(1.,0.,0.));
#370=DIRECTION('',(0.,0.,-1.));
#371=DIRECTION('',(-1.,0.,0.));
#372=DIRECTION('',(0.,0.,-1.));
#373=DIRECTION('',(-1.,0.,0.));
#374=DIRECTION('',(0.18301270189222,0.68301270189222,0.707106781186547));
#375=DIRECTION('',(0.612372435695795,0.353553390593274,0.707106781186547));
#376=DIRECTION('',(0.,0.,-1.));
#377=DIRECTION('',(-1.,0.,0.));
#378=DIRECTION('',(0.,0.,-1.));
#379=DIRECTION('',(-1.,0.,0.));
#380=DIRECTION('',(0.,0.,-1.));
#381=DIRECTION('',(0.,0.,-1.));
#382=DIRECTION('',(0.,0.,1.));
#383=DIRECTION('',(1.,0.,0.));
#384=DIRECTION('',(-0.183012701892219,-0.683012701892219,0.707106781186548));
#385=DIRECTION('',(-0.612372435695794,-0.353553390593274,0.707106781186548));
#386=DIRECTION('',(0.965925826289068,-0.258819045102521,0.));
#387=DIRECTION('',(0.258819045102521,0.965925826289068,0.));
#388=DIRECTION('',(0.5,-0.866025403784439,0.));
#389=DIRECTION('',(0.866025403784439,0.5,0.));
#390=DIRECTION('',(0.,0.,-1.));
#391=DIRECTION('',(-1.,0.,0.));
#392=DIRECTION('',(0.,0.,-1.));
#393=DIRECTION('',(-1.,0.,0.));
#394=DIRECTION('',(0.,0.,-1.));
#395=DIRECTION('',(0.,0.,-1.));
#396=DIRECTION('',(-1.,0.,0.));
#397=DIRECTION('',(0.,0.,-1.));
#398=DIRECTION('',(0.,0.,-1.));
#399=DIRECTION('',(-1.,0.,0.));
#400=DIRECTION('',(-0.612372435695795,-0.353553390593274,0.707106781186548));
#401=DIRECTION('',(-0.18301270189222,-0.683012701892219,0.707106781186548));
#402=DIRECTION('',(0.,0.,1.));
#403=DIRECTION('',(1.,0.,0.));
#404=DIRECTION('',(0.18301270189222,0.683012701892219,0.707106781186548));
#405=DIRECTION('',(0.612372435695795,0.353553390593274,0.707106781186548));
#406=DIRECTION('',(0.965925826289068,-0.258819045102521,0.));
#407=DIRECTION('',(0.258819045102521,0.965925826289068,0.));
#408=DIRECTION('',(0.5,-0.866025403784439,0.));
#409=DIRECTION('',(0.866025403784439,0.5,0.));
#410=DIRECTION('',(0.,0.,-1.));
#411=DIRECTION('',(-1.,0.,0.));
#412=DIRECTION('',(0.,0.,-1.));
#413=DIRECTION('',(-1.,0.,0.));
#414=DIRECTION('',(0.,0.,-1.));
#415=DIRECTION('',(1.,0.,0.));
#416=DIRECTION('',(0.,0.,-1.));
#417=DIRECTION('',(-1.,0.,0.));
#418=DIRECTION('',(0.,0.,-1.));
#419=DIRECTION('',(-1.,0.,0.));
#420=DIRECTION('',(0.,0.,-1.));
#421=DIRECTION('',(-1.,0.,0.));
#422=DIRECTION('',(0.,0.,-1.));
#423=DIRECTION('',(1.,0.,0.));
#424=CARTESIAN_POINT('',(0.,0.,0.));
#425=CARTESIAN_POINT('',(0.,5.51091059616309E-19,0.065));
#426=CARTESIAN_POINT('',(0.,0.,0.0565));
#427=CARTESIAN_POINT('',(0.00232937140592269,0.00869333243660162,0.0565));
#428=CARTESIAN_POINT('',(0.00779422863405995,0.0045,0.0565));
#429=CARTESIAN_POINT('',(0.00232937140592269,0.00869333243660162,0.05425));
#430=CARTESIAN_POINT('',(0.00232937140592269,0.00869333243660162,0.0475));
#431=CARTESIAN_POINT('',(0.,0.,0.0475));
#432=CARTESIAN_POINT('',(0.00779422863405995,0.0045,0.0475));
#433=CARTESIAN_POINT('',(0.00779422863405995,0.0045,0.05425));
#434=CARTESIAN_POINT('',(0.,0.,0.0565));
#435=CARTESIAN_POINT('',(-0.00232937140592269,-0.00869333243660161,0.0565));
#436=CARTESIAN_POINT('',(-0.00779422863405995,-0.0045,0.0565));
#437=CARTESIAN_POINT('',(-0.00232937140592269,-0.00869333243660162,0.05425));
#438=CARTESIAN_POINT('',(-0.00232937140592269,-0.00869333243660162,0.0475));
#439=CARTESIAN_POINT('',(0.,0.,0.0475));
#440=CARTESIAN_POINT('',(-0.00779422863405995,-0.0045,0.0475));
#441=CARTESIAN_POINT('',(-0.00779422863405995,-0.0045,0.05425));
#442=CARTESIAN_POINT('',(0.,5.51091059616309E-19,0.04));
#443=CARTESIAN_POINT('',(0.009,5.51091059616309E-19,0.04));
#444=CARTESIAN_POINT('',(0.,0.,0.0643284271247462));
#445=CARTESIAN_POINT('',(0.009,0.,0.0643284271247462));
#446=CARTESIAN_POINT('',(0.,0.,0.04));
#447=CARTESIAN_POINT('',(-5.42101086242752E-19,7.58941520739853E-19,0.04));
#448=CARTESIAN_POINT('',(-0.002075,7.58941520739853E-19,0.04));
#449=CARTESIAN_POINT('',(-0.000831461468831596,0.,0.10502860986762));
#450=CARTESIAN_POINT('',(0.,0.,0.10502860986762));
#451=CARTESIAN_POINT('',(-0.00166292293766319,0.,0.10502860986762));
#452=CARTESIAN_POINT('',(-0.0161148403360607,-0.00667498542267332,0.0913924733699325));
#453=CARTESIAN_POINT('',(-0.0174425774887094,-1.2793585635329E-17,0.0913924733699325));
#454=CARTESIAN_POINT('',(-0.0161148403360607,0.00667498542267336,0.0913924733699325));
#455=CARTESIAN_POINT('',(-0.0123337648236382,0.0123337648236382,0.0913924733699325));
#456=CARTESIAN_POINT('',(-0.00667498542267336,0.0161148403360607,0.0913924733699325));
#457=CARTESIAN_POINT('',(-5.53620734325411E-18,0.0174425774887094,0.0913924733699325));
#458=CARTESIAN_POINT('',(0.00667498542267336,0.0161148403360607,0.0913924733699325));
#459=CARTESIAN_POINT('',(0.0123337648236382,0.0123337648236382,0.0913924733699325));
#460=CARTESIAN_POINT('',(0.0161148403360607,0.00667498542267336,0.0913924733699325));
#461=CARTESIAN_POINT('',(0.0174425774887094,2.68009165445141E-18,0.0913924733699325));
#462=CARTESIAN_POINT('',(0.0161148403360607,-0.00667498542267336,0.0913924733699325));
#463=CARTESIAN_POINT('',(0.0123337648236382,-0.0123337648236382,0.0913924733699325));
#464=CARTESIAN_POINT('',(0.00667498542267336,-0.0161148403360607,0.0913924733699325));
#465=CARTESIAN_POINT('',(3.51010453342182E-18,-0.0174425774887094,0.0913924733699325));
#466=CARTESIAN_POINT('',(-0.00667498542267336,-0.0161148403360607,0.0913924733699325));
#467=CARTESIAN_POINT('',(-0.0123337648236382,-0.0123337648236382,0.0913924733699325));
#468=CARTESIAN_POINT('',(-0.0161148403360607,-0.00667498542267332,0.0913924733699325));
#469=CARTESIAN_POINT('',(-0.0174425774887094,-1.2793585635329E-17,0.0913924733699325));
#470=CARTESIAN_POINT('',(-0.0161148403360607,0.00667498542267336,0.0913924733699325));
#471=CARTESIAN_POINT('',(-0.0159485983824027,-0.00660612575083275,0.0929638095671884));
#472=CARTESIAN_POINT('',(-0.0172626384947085,-1.30104260698261E-17,0.0929638095671883));
#473=CARTESIAN_POINT('',(-0.0159485983824027,0.00660612575083279,0.0929638095671884));
#474=CARTESIAN_POINT('',(-0.0122065287407803,0.0122065287407803,0.0929638095671884));
#475=CARTESIAN_POINT('',(-0.00660612575083279,0.0159485983824027,0.0929638095671884));
#476=CARTESIAN_POINT('',(-5.19739416435239E-18,0.0172626384947085,0.0929638095671884));
#477=CARTESIAN_POINT('',(0.00660612575083278,0.0159485983824027,0.0929638095671884));
#478=CARTESIAN_POINT('',(0.0122065287407803,0.0122065287407803,0.0929638095671883));
#479=CARTESIAN_POINT('',(0.0159485983824027,0.00660612575083279,0.0929638095671883));
#480=CARTESIAN_POINT('',(0.0172626384947085,1.38429006382994E-18,0.0929638095671883));
#481=CARTESIAN_POINT('',(0.0159485983824027,-0.00660612575083278,0.0929638095671884));
#482=CARTESIAN_POINT('',(0.0122065287407803,-0.0122065287407803,0.0929638095671883));
#483=CARTESIAN_POINT('',(0.00660612575083278,-0.0159485983824027,0.0929638095671884));
#484=CARTESIAN_POINT('',(5.0821976835258E-18,-0.0172626384947085,0.0929638095671884));
#485=CARTESIAN_POINT('',(-0.00660612575083278,-0.0159485983824027,0.0929638095671884));
#486=CARTESIAN_POINT('',(-0.0122065287407803,-0.0122065287407803,0.0929638095671883));
#487=CARTESIAN_POINT('',(-0.0159485983824027,-0.00660612575083275,0.0929638095671884));
#488=CARTESIAN_POINT('',(-0.0172626384947085,-1.30104260698261E-17,0.0929638095671883));
#489=CARTESIAN_POINT('',(-0.0159485983824027,0.00660612575083279,0.0929638095671884));
#490=CARTESIAN_POINT('',(-0.0148555748214347,-0.0061533805678865,0.0959176618127172));
#491=CARTESIAN_POINT('',(-0.016079558317581,-1.14925430283463E-17,0.0959176618127172));
#492=CARTESIAN_POINT('',(-0.0148555748214347,0.00615338056788653,0.0959176618127172));
#493=CARTESIAN_POINT('',(-0.0113699647248461,0.0113699647248461,0.0959176618127172));
#494=CARTESIAN_POINT('',(-0.00615338056788653,0.0148555748214347,0.0959176618127172));
#495=CARTESIAN_POINT('',(4.54009659728305E-19,0.016079558317581,0.0959176618127172));
#496=CARTESIAN_POINT('',(0.00615338056788653,0.0148555748214347,0.0959176618127172));
#497=CARTESIAN_POINT('',(0.0113699647248461,0.0113699647248461,0.0959176618127172));
#498=CARTESIAN_POINT('',(0.0148555748214347,0.00615338056788653,0.0959176618127172));
#499=CARTESIAN_POINT('',(0.016079558317581,3.2352688118174E-18,0.0959176618127172));
#500=CARTESIAN_POINT('',(0.0148555748214347,-0.00615338056788653,0.0959176618127172));
#501=CARTESIAN_POINT('',(0.0113699647248461,-0.0113699647248461,0.0959176618127172));
#502=CARTESIAN_POINT('',(0.00615338056788654,-0.0148555748214347,0.0959176618127172));
#503=CARTESIAN_POINT('',(4.26226979058364E-18,-0.016079558317581,0.0959176618127172));
#504=CARTESIAN_POINT('',(-0.00615338056788653,-0.0148555748214347,0.0959176618127172));
#505=CARTESIAN_POINT('',(-0.0113699647248461,-0.0113699647248461,0.0959176618127172));
#506=CARTESIAN_POINT('',(-0.0148555748214347,-0.0061533805678865,0.0959176618127172));
#507=CARTESIAN_POINT('',(-0.016079558317581,-1.14925430283463E-17,0.0959176618127172));
#508=CARTESIAN_POINT('',(-0.0148555748214347,0.00615338056788653,0.0959176618127172));
#509=CARTESIAN_POINT('',(-0.0102997538308455,-0.0042662977258404,0.101537036411134));
#510=CARTESIAN_POINT('',(-0.0111483732114388,-8.99887803162969E-18,0.101537036411134));
#511=CARTESIAN_POINT('',(-0.0102997538308454,0.00426629772584043,0.101537036411134));
#512=CARTESIAN_POINT('',(-0.00788309029700683,0.00788309029700683,0.101537036411134));
#513=CARTESIAN_POINT('',(-0.00426629772584042,0.0102997538308455,0.101537036411134));
#514=CARTESIAN_POINT('',(-2.80198498951723E-18,0.0111483732114388,0.101537036411134));
#515=CARTESIAN_POINT('',(0.00426629772584042,0.0102997538308455,0.101537036411134));
#516=CARTESIAN_POINT('',(0.00788309029700684,0.00788309029700683,0.101537036411134));
#517=CARTESIAN_POINT('',(0.0102997538308454,0.00426629772584043,0.101537036411134));
#518=CARTESIAN_POINT('',(0.0111483732114388,3.52498054955797E-19,0.101537036411134));
#519=CARTESIAN_POINT('',(0.0102997538308455,-0.00426629772584042,0.101537036411134));
#520=CARTESIAN_POINT('',(0.00788309029700685,-0.00788309029700683,0.101537036411134));
#521=CARTESIAN_POINT('',(0.00426629772584042,-0.0102997538308454,0.101537036411134));
#522=CARTESIAN_POINT('',(3.04254234653745E-18,-0.0111483732114388,0.101537036411134));
#523=CARTESIAN_POINT('',(-0.00426629772584042,-0.0102997538308454,0.101537036411134));
#524=CARTESIAN_POINT('',(-0.00788309029700684,-0.00788309029700683,0.101537036411134));
#525=CARTESIAN_POINT('',(-0.0102997538308455,-0.0042662977258404,0.101537036411134));
#526=CARTESIAN_POINT('',(-0.0111483732114388,-8.99887803162969E-18,0.101537036411134));
#527=CARTESIAN_POINT('',(-0.0102997538308454,0.00426629772584043,0.101537036411134));
#528=CARTESIAN_POINT('',(-0.00527207567159656,-0.00218376524503252,0.104369897382339));
#529=CARTESIAN_POINT('',(-0.00570645358628739,-4.06575814682064E-18,0.104369897382339));
#530=CARTESIAN_POINT('',(-0.00527207567159655,0.00218376524503253,0.104369897382339));
#531=CARTESIAN_POINT('',(-0.00403507202739011,0.00403507202739011,0.104369897382339));
#532=CARTESIAN_POINT('',(-0.00218376524503254,0.00527207567159655,0.104369897382339));
#533=CARTESIAN_POINT('',(-6.7762635780344E-20,0.00570645358628739,0.104369897382339));
#534=CARTESIAN_POINT('',(0.00218376524503253,0.00527207567159655,0.104369897382339));
#535=CARTESIAN_POINT('',(0.00403507202739011,0.00403507202739011,0.104369897382339));
#536=CARTESIAN_POINT('',(0.00527207567159655,0.00218376524503253,0.104369897382339));
#537=CARTESIAN_POINT('',(0.00570645358628739,1.46899004983292E-18,0.104369897382339));
#538=CARTESIAN_POINT('',(0.00527207567159655,-0.00218376524503254,0.104369897382339));
#539=CARTESIAN_POINT('',(0.0040350720273901,-0.0040350720273901,0.104369897382339));
#540=CARTESIAN_POINT('',(0.00218376524503254,-0.00527207567159655,0.104369897382339));
#541=CARTESIAN_POINT('',(-7.11507675693612E-20,-0.00570645358628739,0.104369897382339));
#542=CARTESIAN_POINT('',(-0.00218376524503253,-0.00527207567159655,0.104369897382339));
#543=CARTESIAN_POINT('',(-0.00403507202739011,-0.00403507202739011,0.104369897382339));
#544=CARTESIAN_POINT('',(-0.00527207567159656,-0.00218376524503252,0.104369897382339));
#545=CARTESIAN_POINT('',(-0.00570645358628739,-4.06575814682064E-18,0.104369897382339));
#546=CARTESIAN_POINT('',(-0.00527207567159655,0.00218376524503253,0.104369897382339));
#547=CARTESIAN_POINT('',(-0.00157633765259578,-0.000652940434584537,0.10502860986762));
#548=CARTESIAN_POINT('',(-0.00170621558019689,-1.2603850255144E-18,0.10502860986762));
#549=CARTESIAN_POINT('',(-0.00157633765259578,0.000652940434584541,0.10502860986762));
#550=CARTESIAN_POINT('',(-0.00120647660692336,0.00120647660692336,0.10502860986762));
#551=CARTESIAN_POINT('',(-0.000652940434584541,0.00157633765259578,0.10502860986762));
#552=CARTESIAN_POINT('',(-1.9015889665859E-19,0.00170621558019689,0.10502860986762));
#553=CARTESIAN_POINT('',(0.000652940434584541,0.00157633765259578,0.10502860986762));
#554=CARTESIAN_POINT('',(0.00120647660692336,0.00120647660692336,0.10502860986762));
#555=CARTESIAN_POINT('',(0.00157633765259578,0.000652940434584541,0.10502860986762));
#556=CARTESIAN_POINT('',(0.00170621558019689,2.81107405008796E-19,0.10502860986762));
#557=CARTESIAN_POINT('',(0.00157633765259578,-0.000652940434584541,0.10502860986762));
#558=CARTESIAN_POINT('',(0.00120647660692336,-0.00120647660692336,0.10502860986762));
#559=CARTESIAN_POINT('',(0.000652940434584541,-0.00157633765259578,0.10502860986762));
#560=CARTESIAN_POINT('',(5.05678669510817E-19,-0.00170621558019689,0.10502860986762));
#561=CARTESIAN_POINT('',(-0.000652940434584541,-0.00157633765259578,0.10502860986762));
#562=CARTESIAN_POINT('',(-0.00120647660692336,-0.00120647660692336,0.10502860986762));
#563=CARTESIAN_POINT('',(-0.00157633765259578,-0.000652940434584537,0.10502860986762));
#564=CARTESIAN_POINT('',(-0.00170621558019689,-1.2603850255144E-18,0.10502860986762));
#565=CARTESIAN_POINT('',(-0.00157633765259578,0.000652940434584541,0.10502860986762));
#566=CARTESIAN_POINT('',(0.,0.,0.0913924733699325));
#567=CARTESIAN_POINT('',(-0.0169999984378265,0.,0.0913924733699325));
#568=CARTESIAN_POINT('',(0.,0.,0.086));
#569=CARTESIAN_POINT('',(0.,0.,0.0723284271247462));
#570=CARTESIAN_POINT('',(-0.017,0.,0.0723284271247462));
#571=CARTESIAN_POINT('',(0.,0.,0.0723284271247462));
#572=CARTESIAN_POINT('',(0.,0.,0.0545));
#573=CARTESIAN_POINT('',(0.,0.,0.0545));
#574=CARTESIAN_POINT('',(-0.00284700949612773,-0.0106251840891797,0.0545));
#575=CARTESIAN_POINT('',(-0.00952627944162883,-0.0055,0.0545));
#576=CARTESIAN_POINT('',(-0.00258819045102521,-0.00965925826289068,0.0555));
#577=CARTESIAN_POINT('',(-0.00866025403784439,-0.005,0.0555));
#578=CARTESIAN_POINT('',(0.,0.,0.0605));
#579=CARTESIAN_POINT('',(0.,0.,0.0495));
#580=CARTESIAN_POINT('',(-0.00284700949612773,-0.0106251840891797,0.0495));
#581=CARTESIAN_POINT('',(-0.00952627944162882,-0.0055,0.0495));
#582=CARTESIAN_POINT('',(-0.00284700949612773,-0.0106251840891797,0.05325));
#583=CARTESIAN_POINT('',(-0.00952627944162883,-0.0055,0.05325));
#584=CARTESIAN_POINT('',(0.,0.,0.0475));
#585=CARTESIAN_POINT('',(-0.00258819045102521,-0.00965925826289068,0.0485));
#586=CARTESIAN_POINT('',(-0.00866025403784439,-0.005,0.0485));
#587=CARTESIAN_POINT('',(8.97958947138486E-19,3.35122841383188E-18,0.0515));
#588=CARTESIAN_POINT('',(3.00462919747432E-18,1.7347234759768E-18,0.0515));
#589=CARTESIAN_POINT('',(0.,0.,0.0605));
#590=CARTESIAN_POINT('',(0.,0.,0.0545));
#591=CARTESIAN_POINT('',(0.00284700949612773,0.0106251840891797,0.0545));
#592=CARTESIAN_POINT('',(0.00952627944162883,0.0055,0.0545));
#593=CARTESIAN_POINT('',(0.00952627944162883,0.0055,0.05325));
#594=CARTESIAN_POINT('',(0.00952627944162883,0.0055,0.0495));
#595=CARTESIAN_POINT('',(0.,0.,0.0495));
#596=CARTESIAN_POINT('',(0.00284700949612773,0.0106251840891797,0.0495));
#597=CARTESIAN_POINT('',(0.00284700949612773,0.0106251840891797,0.05325));
#598=CARTESIAN_POINT('',(0.,0.,0.0545));
#599=CARTESIAN_POINT('',(0.00866025403784439,0.005,0.0555));
#600=CARTESIAN_POINT('',(0.00258819045102521,0.00965925826289068,0.0555));
#601=CARTESIAN_POINT('',(0.,0.,0.0475));
#602=CARTESIAN_POINT('',(0.00258819045102521,0.00965925826289069,0.0485));
#603=CARTESIAN_POINT('',(0.00866025403784439,0.005,0.0485));
#604=CARTESIAN_POINT('',(8.97958947138486E-19,3.35122841383188E-18,0.0515));
#605=CARTESIAN_POINT('',(3.00462919747432E-18,1.7347234759768E-18,0.0515));
#606=CARTESIAN_POINT('',(-5.42101086242752E-19,7.58941520739853E-19,0.055));
#607=CARTESIAN_POINT('',(-5.42101086242752E-19,7.58941520739853E-19,0.055));
#608=CARTESIAN_POINT('',(-0.002075,7.58941520739853E-19,0.055));
#609=CARTESIAN_POINT('',(1.49528495967388E-5,-0.000934498656541109,0.055));
#610=CARTESIAN_POINT('',(0.,0.,0.055));
#611=CARTESIAN_POINT('',(-0.00105,0.,0.055));
#612=CARTESIAN_POINT('',(0.,0.,0.093));
#613=CARTESIAN_POINT('',(0.,0.,0.093));
#614=CARTESIAN_POINT('',(-0.00105,0.,0.093));
#615=CARTESIAN_POINT('',(1.49528495967388E-5,-0.000934498656541109,0.093));
#616=MECHANICAL_DESIGN_GEOMETRIC_PRESENTATION_REPRESENTATION('',(#286),
#617);
#617=(
GEOMETRIC_REPRESENTATION_CONTEXT(3)
GLOBAL_UNCERTAINTY_ASSIGNED_CONTEXT((#618))
GLOBAL_UNIT_ASSIGNED_CONTEXT((#621,#620,#619))
REPRESENTATION_CONTEXT('head','TOP_LEVEL_ASSEMBLY_PART')
);
#618=UNCERTAINTY_MEASURE_WITH_UNIT(LENGTH_MEASURE(2.E-5),#621,
'DISTANCE_ACCURACY_VALUE','Maximum Tolerance applied to model');
#619=(
NAMED_UNIT(*)
SI_UNIT($,.STERADIAN.)
SOLID_ANGLE_UNIT()
);
#620=(
NAMED_UNIT(*)
PLANE_ANGLE_UNIT()
SI_UNIT($,.RADIAN.)
);
#621=(
LENGTH_UNIT()
NAMED_UNIT(*)
SI_UNIT($,.METRE.)
);
#622=PRODUCT_DEFINITION_SHAPE('','',#623);
#623=PRODUCT_DEFINITION('','',#625,#624);
#624=PRODUCT_DEFINITION_CONTEXT('',#631,'design');
#625=PRODUCT_DEFINITION_FORMATION_WITH_SPECIFIED_SOURCE('','',#627,
 .NOT_KNOWN.);
#626=PRODUCT_RELATED_PRODUCT_CATEGORY('','',(#627));
#627=PRODUCT('head','head','head',(#629));
#628=PRODUCT_CATEGORY('','');
#629=PRODUCT_CONTEXT('',#631,'mechanical');
#630=APPLICATION_PROTOCOL_DEFINITION('international standard',
'ap242_managed_model_based_3d_engineering',2020,#631);
#631=APPLICATION_CONTEXT('managed model based 3d engineering');
ENDSEC;
END-ISO-10303-21;
