ISO-10303-21;
HEADER;
/*Generated by software containing ST-Developer
 * from STEP Tools, Inc. (www.steptools.com) 
 */
/*OPTION: using custom renumber hook */
/*description */
/*implementation_level */
FILE_DESCRIPTION(('STEP AP242 Edition 2','STEP AP242 Edition 2''CAx-IF Rec.Pracs.---Representation and Presentation of Product Manufa
cturing Information (PMI)---4.0---2014-10-13','STEP AP242 Edition 2''CAx-IF Rec.Pracs.---Representation and Presentation of Product Manufa
cturing Information (PMI)---4.0---2014-10-13''CAx-IF Rec.Pracs.---3D Tessellated Geometry---0.4---2014-09-14','STEP AP242 Edition 2''CAx-IF Rec.Pracs.---Representation and Presentation of Product Manufa
cturing Information (PMI)---4.0---2014-10-13''CAx-IF Rec.Pracs.---3D Tessellated Geometry---0.4---2014-09-14''2;1','STEP AP242 Edition 2''CAx-IF Rec.Pracs.---Representation and Presentation of Product Manufa
cturing Information (PMI)---4.0---2014-10-13''CAx-IF Rec.Pracs.---3D Tessellated Geometry---0.4---2014-09-14''2;1''CAx-IF Rec.Pracs.---User Defined Attributes---1.5---2016-08-15'),'2;1');
/*name */
/*time_stamp */
/*author */
/*organization */
/*preprocessor_version */
/*originating_system */
/*authorisation */
FILE_NAME('/vol/tmp/translate-6472732199432204942/Part Studio 1 - Insulator.step','2026-02-20T22:00:21',(''),(''),'ST-DEVELOPER v20','ONSHAPE BY PTC INC, 1.211','  ');
FILE_SCHEMA(('AP242_MANAGED_MODEL_BASED_3D_ENGINEERING_MIM_LF { 1 0 10303 442 3 1 4 }'));
ENDSEC;
DATA;
#10=SHAPE_REPRESENTATION_RELATIONSHIP('','',#427,#11);
#11=ADVANCED_BREP_SHAPE_REPRESENTATION('',(#425),#961);
#12=B_SPLINE_SURFACE_WITH_KNOTS('',3,3,((#732,#733,#734,#735,#736,#737,
#738,#739,#740,#741,#742,#743,#744,#745,#746,#747,#748,#749,#750),(#751,
#752,#753,#754,#755,#756,#757,#758,#759,#760,#761,#762,#763,#764,#765,#766,
#767,#768,#769),(#770,#771,#772,#773,#774,#775,#776,#777,#778,#779,#780,
#781,#782,#783,#784,#785,#786,#787,#788),(#789,#790,#791,#792,#793,#794,
#795,#796,#797,#798,#799,#800,#801,#802,#803,#804,#805,#806,#807),(#808,
#809,#810,#811,#812,#813,#814,#815,#816,#817,#818,#819,#820,#821,#822,#823,
#824,#825,#826),(#827,#828,#829,#830,#831,#832,#833,#834,#835,#836,#837,
#838,#839,#840,#841,#842,#843,#844,#845),(#846,#847,#848,#849,#850,#851,
#852,#853,#854,#855,#856,#857,#858,#859,#860,#861,#862,#863,#864),(#865,
#866,#867,#868,#869,#870,#871,#872,#873,#874,#875,#876,#877,#878,#879,#880,
#881,#882,#883),(#884,#885,#886,#887,#888,#889,#890,#891,#892,#893,#894,
#895,#896,#897,#898,#899,#900,#901,#902),(#903,#904,#905,#906,#907,#908,
#909,#910,#911,#912,#913,#914,#915,#916,#917,#918,#919,#920,#921),(#922,
#923,#924,#925,#926,#927,#928,#929,#930,#931,#932,#933,#934,#935,#936,#937,
#938,#939,#940),(#941,#942,#943,#944,#945,#946,#947,#948,#949,#950,#951,
#952,#953,#954,#955,#956,#957,#958,#959)),.UNSPECIFIED.,.F.,.T.,.F.,(4,1,1,1,1,1,1,1,1,4),(1,1,1,1,1,1,1,1,1,1,1,1,1,1,1,1,1,1,1,1,1,1,1),(0.,0.25,0.354166666666667,0.4375,0.5,0.5625,0.625,0.6875,0.770833333333333,1.),(-1.17809724509617,-0.785398163397448,-0.392699081698725,0.,0.392699081698724,0.785398163397448,1.17809724509617,1.5707963267949,1.96349540849362,2.35619449019234,2.74889357189107,3.14159265358979,3.53429173528852,3.92699081698724,4.31968989868597,4.71238898038469,5.10508806208341,5.49778714378214,5.89048622548086,6.28318530717959,6.67588438887831,7.06858347057703,7.46128255227576),.UNSPECIFIED.);
#13=PLANE('',#458);
#14=PLANE('',#459);
#15=PLANE('',#461);
#16=PLANE('',#462);
#17=PLANE('',#463);
#18=PLANE('',#464);
#19=PLANE('',#465);
#20=PLANE('',#466);
#21=PLANE('',#467);
#22=PLANE('',#468);
#23=PLANE('',#469);
#24=B_SPLINE_CURVE_WITH_KNOTS('',3,(#598,#599,#600,#601),.UNSPECIFIED.,.F.,.F.,(4,4),(7.62298191161412E-07,0.00254815083053115),.UNSPECIFIED.);
#25=B_SPLINE_CURVE_WITH_KNOTS('',3,(#614,#615,#616,#617),.UNSPECIFIED.,.F.,.F.,(4,4),(3.10600117111235E-07,0.000781335567707714),.UNSPECIFIED.);
#26=B_SPLINE_CURVE_WITH_KNOTS('',3,(#628,#629,#630,#631),.UNSPECIFIED.,.F.,.F.,(4,4),(7.62298191168627E-07,0.00254815083053116),.UNSPECIFIED.);
#27=B_SPLINE_CURVE_WITH_KNOTS('',3,(#633,#634,#635,#636),.UNSPECIFIED.,.F.,.F.,(4,4),(3.10600117118952E-07,0.000781335567707721),.UNSPECIFIED.);
#28=B_SPLINE_CURVE_WITH_KNOTS('',3,(#680,#681,#682,#683),.UNSPECIFIED.,.F.,.F.,(4,4),(3.10600117108616E-07,0.000781335567707708),.UNSPECIFIED.);
#29=B_SPLINE_CURVE_WITH_KNOTS('',3,(#685,#686,#687,#688),.UNSPECIFIED.,.F.,.F.,(4,4),(0.000915707525668205,0.00346309605800817),.UNSPECIFIED.);
#30=B_SPLINE_CURVE_WITH_KNOTS('',3,(#695,#696,#697,#698),.UNSPECIFIED.,.F.,.F.,(4,4),(0.000915707525668197,0.00346309605800817),.UNSPECIFIED.);
#31=B_SPLINE_CURVE_WITH_KNOTS('',3,(#701,#702,#703,#704),.UNSPECIFIED.,.F.,.F.,(4,4),(3.10600117112873E-07,0.000781335567707716),.UNSPECIFIED.);
#32=CONICAL_SURFACE('',#432,0.0111,0.785398163397448);
#33=CONICAL_SURFACE('',#438,0.0111,0.785398163397448);
#34=CONICAL_SURFACE('',#447,0.009,0.785398163397448);
#35=CONICAL_SURFACE('',#453,0.0111,0.785398163397448);
#36=CONICAL_SURFACE('',#455,0.0111,0.785398163397448);
#37=CIRCLE('',#430,0.0111);
#38=CIRCLE('',#431,0.0111);
#39=CIRCLE('',#433,0.0111);
#40=CIRCLE('',#434,0.0091);
#41=CIRCLE('',#435,0.0111);
#42=CIRCLE('',#437,0.0111);
#43=CIRCLE('',#439,0.0111);
#44=CIRCLE('',#440,0.0091);
#45=CIRCLE('',#442,0.0091);
#46=CIRCLE('',#443,0.0091);
#47=CIRCLE('',#444,0.0091);
#48=CIRCLE('',#445,0.0091);
#49=CIRCLE('',#446,0.0091);
#50=CIRCLE('',#448,0.0125);
#51=CIRCLE('',#449,0.0111);
#52=CIRCLE('',#450,0.0111);
#53=CIRCLE('',#452,0.0125);
#54=CIRCLE('',#454,0.0111);
#55=CIRCLE('',#456,0.0111);
#56=CIRCLE('',#470,0.0212258320271348);
#57=ORIENTED_EDGE('',*,*,#173,.F.);
#58=ORIENTED_EDGE('',*,*,#174,.F.);
#59=ORIENTED_EDGE('',*,*,#175,.F.);
#60=ORIENTED_EDGE('',*,*,#176,.T.);
#61=ORIENTED_EDGE('',*,*,#177,.F.);
#62=ORIENTED_EDGE('',*,*,#178,.T.);
#63=ORIENTED_EDGE('',*,*,#179,.T.);
#64=ORIENTED_EDGE('',*,*,#180,.F.);
#65=ORIENTED_EDGE('',*,*,#181,.F.);
#66=ORIENTED_EDGE('',*,*,#182,.T.);
#67=ORIENTED_EDGE('',*,*,#183,.T.);
#68=ORIENTED_EDGE('',*,*,#184,.F.);
#69=ORIENTED_EDGE('',*,*,#182,.F.);
#70=ORIENTED_EDGE('',*,*,#185,.F.);
#71=ORIENTED_EDGE('',*,*,#186,.T.);
#72=ORIENTED_EDGE('',*,*,#187,.F.);
#73=ORIENTED_EDGE('',*,*,#188,.T.);
#74=ORIENTED_EDGE('',*,*,#189,.F.);
#75=ORIENTED_EDGE('',*,*,#186,.F.);
#76=ORIENTED_EDGE('',*,*,#190,.T.);
#77=ORIENTED_EDGE('',*,*,#191,.T.);
#78=ORIENTED_EDGE('',*,*,#192,.F.);
#79=ORIENTED_EDGE('',*,*,#193,.T.);
#80=ORIENTED_EDGE('',*,*,#194,.F.);
#81=ORIENTED_EDGE('',*,*,#195,.F.);
#82=ORIENTED_EDGE('',*,*,#191,.F.);
#83=ORIENTED_EDGE('',*,*,#196,.F.);
#84=ORIENTED_EDGE('',*,*,#180,.T.);
#85=ORIENTED_EDGE('',*,*,#197,.T.);
#86=ORIENTED_EDGE('',*,*,#198,.F.);
#87=ORIENTED_EDGE('',*,*,#199,.F.);
#88=ORIENTED_EDGE('',*,*,#200,.F.);
#89=ORIENTED_EDGE('',*,*,#201,.F.);
#90=ORIENTED_EDGE('',*,*,#202,.T.);
#91=ORIENTED_EDGE('',*,*,#203,.F.);
#92=ORIENTED_EDGE('',*,*,#204,.F.);
#93=ORIENTED_EDGE('',*,*,#205,.F.);
#94=ORIENTED_EDGE('',*,*,#206,.T.);
#95=ORIENTED_EDGE('',*,*,#207,.T.);
#96=ORIENTED_EDGE('',*,*,#198,.T.);
#97=ORIENTED_EDGE('',*,*,#208,.F.);
#98=ORIENTED_EDGE('',*,*,#209,.T.);
#99=ORIENTED_EDGE('',*,*,#210,.T.);
#100=ORIENTED_EDGE('',*,*,#194,.T.);
#101=ORIENTED_EDGE('',*,*,#211,.T.);
#102=ORIENTED_EDGE('',*,*,#204,.T.);
#103=ORIENTED_EDGE('',*,*,#212,.T.);
#104=ORIENTED_EDGE('',*,*,#213,.T.);
#105=ORIENTED_EDGE('',*,*,#214,.T.);
#106=ORIENTED_EDGE('',*,*,#215,.T.);
#107=ORIENTED_EDGE('',*,*,#202,.F.);
#108=ORIENTED_EDGE('',*,*,#216,.F.);
#109=ORIENTED_EDGE('',*,*,#174,.T.);
#110=ORIENTED_EDGE('',*,*,#217,.F.);
#111=ORIENTED_EDGE('',*,*,#218,.F.);
#112=ORIENTED_EDGE('',*,*,#176,.F.);
#113=ORIENTED_EDGE('',*,*,#219,.T.);
#114=ORIENTED_EDGE('',*,*,#200,.T.);
#115=ORIENTED_EDGE('',*,*,#220,.F.);
#116=ORIENTED_EDGE('',*,*,#221,.F.);
#117=ORIENTED_EDGE('',*,*,#214,.F.);
#118=ORIENTED_EDGE('',*,*,#222,.T.);
#119=ORIENTED_EDGE('',*,*,#221,.T.);
#120=ORIENTED_EDGE('',*,*,#223,.T.);
#121=ORIENTED_EDGE('',*,*,#206,.F.);
#122=ORIENTED_EDGE('',*,*,#224,.T.);
#123=ORIENTED_EDGE('',*,*,#216,.T.);
#124=ORIENTED_EDGE('',*,*,#201,.T.);
#125=ORIENTED_EDGE('',*,*,#219,.F.);
#126=ORIENTED_EDGE('',*,*,#175,.T.);
#127=ORIENTED_EDGE('',*,*,#205,.T.);
#128=ORIENTED_EDGE('',*,*,#193,.F.);
#129=ORIENTED_EDGE('',*,*,#215,.F.);
#130=ORIENTED_EDGE('',*,*,#224,.F.);
#131=ORIENTED_EDGE('',*,*,#178,.F.);
#132=ORIENTED_EDGE('',*,*,#225,.T.);
#133=ORIENTED_EDGE('',*,*,#187,.T.);
#134=ORIENTED_EDGE('',*,*,#226,.T.);
#135=ORIENTED_EDGE('',*,*,#209,.F.);
#136=ORIENTED_EDGE('',*,*,#227,.T.);
#137=ORIENTED_EDGE('',*,*,#196,.T.);
#138=ORIENTED_EDGE('',*,*,#190,.F.);
#139=ORIENTED_EDGE('',*,*,#185,.T.);
#140=ORIENTED_EDGE('',*,*,#181,.T.);
#141=ORIENTED_EDGE('',*,*,#179,.F.);
#142=ORIENTED_EDGE('',*,*,#227,.F.);
#143=ORIENTED_EDGE('',*,*,#208,.T.);
#144=ORIENTED_EDGE('',*,*,#197,.F.);
#145=ORIENTED_EDGE('',*,*,#226,.F.);
#146=ORIENTED_EDGE('',*,*,#192,.T.);
#147=ORIENTED_EDGE('',*,*,#195,.T.);
#148=ORIENTED_EDGE('',*,*,#210,.F.);
#149=ORIENTED_EDGE('',*,*,#223,.F.);
#150=ORIENTED_EDGE('',*,*,#220,.T.);
#151=ORIENTED_EDGE('',*,*,#199,.T.);
#152=ORIENTED_EDGE('',*,*,#207,.F.);
#153=ORIENTED_EDGE('',*,*,#225,.F.);
#154=ORIENTED_EDGE('',*,*,#177,.T.);
#155=ORIENTED_EDGE('',*,*,#228,.T.);
#156=ORIENTED_EDGE('',*,*,#188,.F.);
#157=ORIENTED_EDGE('',*,*,#183,.F.);
#158=ORIENTED_EDGE('',*,*,#184,.T.);
#159=ORIENTED_EDGE('',*,*,#189,.T.);
#160=ORIENTED_EDGE('',*,*,#228,.F.);
#161=ORIENTED_EDGE('',*,*,#213,.F.);
#162=ORIENTED_EDGE('',*,*,#229,.T.);
#163=ORIENTED_EDGE('',*,*,#217,.T.);
#164=ORIENTED_EDGE('',*,*,#222,.F.);
#165=ORIENTED_EDGE('',*,*,#212,.F.);
#166=ORIENTED_EDGE('',*,*,#173,.T.);
#167=ORIENTED_EDGE('',*,*,#218,.T.);
#168=ORIENTED_EDGE('',*,*,#229,.F.);
#169=ORIENTED_EDGE('',*,*,#203,.T.);
#170=ORIENTED_EDGE('',*,*,#230,.F.);
#171=ORIENTED_EDGE('',*,*,#230,.T.);
#172=ORIENTED_EDGE('',*,*,#211,.F.);
#173=EDGE_CURVE('',#231,#232,#271,.T.);
#174=EDGE_CURVE('',#233,#231,#37,.T.);
#175=EDGE_CURVE('',#234,#233,#272,.T.);
#176=EDGE_CURVE('',#234,#232,#38,.T.);
#177=EDGE_CURVE('',#235,#236,#24,.T.);
#178=EDGE_CURVE('',#235,#237,#39,.T.);
#179=EDGE_CURVE('',#237,#238,#273,.T.);
#180=EDGE_CURVE('',#239,#238,#40,.T.);
#181=EDGE_CURVE('',#240,#239,#274,.T.);
#182=EDGE_CURVE('',#240,#241,#41,.T.);
#183=EDGE_CURVE('',#241,#236,#25,.T.);
#184=EDGE_CURVE('',#241,#242,#275,.T.);
#185=EDGE_CURVE('',#243,#240,#276,.T.);
#186=EDGE_CURVE('',#243,#242,#42,.T.);
#187=EDGE_CURVE('',#244,#245,#43,.T.);
#188=EDGE_CURVE('',#244,#246,#26,.T.);
#189=EDGE_CURVE('',#242,#246,#27,.T.);
#190=EDGE_CURVE('',#243,#247,#277,.T.);
#191=EDGE_CURVE('',#247,#248,#44,.T.);
#192=EDGE_CURVE('',#245,#248,#278,.T.);
#193=EDGE_CURVE('',#249,#250,#279,.T.);
#194=EDGE_CURVE('',#251,#250,#45,.F.);
#195=EDGE_CURVE('',#248,#251,#280,.T.);
#196=EDGE_CURVE('',#239,#247,#281,.T.);
#197=EDGE_CURVE('',#238,#252,#282,.T.);
#198=EDGE_CURVE('',#253,#252,#46,.F.);
#199=EDGE_CURVE('',#254,#253,#283,.T.);
#200=EDGE_CURVE('',#255,#254,#47,.T.);
#201=EDGE_CURVE('',#256,#255,#284,.T.);
#202=EDGE_CURVE('',#256,#249,#48,.T.);
#203=EDGE_CURVE('',#257,#257,#49,.T.);
#204=EDGE_CURVE('',#258,#258,#50,.T.);
#205=EDGE_CURVE('',#259,#250,#285,.F.);
#206=EDGE_CURVE('',#259,#260,#51,.F.);
#207=EDGE_CURVE('',#260,#253,#286,.F.);
#208=EDGE_CURVE('',#261,#252,#287,.F.);
#209=EDGE_CURVE('',#261,#262,#52,.F.);
#210=EDGE_CURVE('',#262,#251,#288,.F.);
#211=EDGE_CURVE('',#263,#263,#53,.T.);
#212=EDGE_CURVE('',#231,#264,#28,.T.);
#213=EDGE_CURVE('',#264,#265,#29,.T.);
#214=EDGE_CURVE('',#265,#266,#54,.T.);
#215=EDGE_CURVE('',#266,#249,#289,.T.);
#216=EDGE_CURVE('',#233,#256,#290,.T.);
#217=EDGE_CURVE('',#267,#268,#30,.T.);
#218=EDGE_CURVE('',#232,#267,#31,.T.);
#219=EDGE_CURVE('',#234,#255,#291,.T.);
#220=EDGE_CURVE('',#269,#254,#292,.T.);
#221=EDGE_CURVE('',#268,#269,#55,.T.);
#222=EDGE_CURVE('',#265,#268,#293,.T.);
#223=EDGE_CURVE('',#269,#260,#294,.T.);
#224=EDGE_CURVE('',#259,#266,#295,.T.);
#225=EDGE_CURVE('',#235,#244,#296,.T.);
#226=EDGE_CURVE('',#245,#262,#297,.T.);
#227=EDGE_CURVE('',#261,#237,#298,.T.);
#228=EDGE_CURVE('',#236,#246,#299,.T.);
#229=EDGE_CURVE('',#264,#267,#300,.T.);
#230=EDGE_CURVE('',#270,#270,#56,.T.);
#231=VERTEX_POINT('',#590);
#232=VERTEX_POINT('',#591);
#233=VERTEX_POINT('',#593);
#234=VERTEX_POINT('',#595);
#235=VERTEX_POINT('',#602);
#236=VERTEX_POINT('',#603);
#237=VERTEX_POINT('',#605);
#238=VERTEX_POINT('',#607);
#239=VERTEX_POINT('',#609);
#240=VERTEX_POINT('',#611);
#241=VERTEX_POINT('',#613);
#242=VERTEX_POINT('',#620);
#243=VERTEX_POINT('',#622);
#244=VERTEX_POINT('',#626);
#245=VERTEX_POINT('',#627);
#246=VERTEX_POINT('',#632);
#247=VERTEX_POINT('',#638);
#248=VERTEX_POINT('',#640);
#249=VERTEX_POINT('',#644);
#250=VERTEX_POINT('',#645);
#251=VERTEX_POINT('',#647);
#252=VERTEX_POINT('',#651);
#253=VERTEX_POINT('',#653);
#254=VERTEX_POINT('',#655);
#255=VERTEX_POINT('',#657);
#256=VERTEX_POINT('',#659);
#257=VERTEX_POINT('',#662);
#258=VERTEX_POINT('',#665);
#259=VERTEX_POINT('',#667);
#260=VERTEX_POINT('',#669);
#261=VERTEX_POINT('',#672);
#262=VERTEX_POINT('',#674);
#263=VERTEX_POINT('',#678);
#264=VERTEX_POINT('',#684);
#265=VERTEX_POINT('',#689);
#266=VERTEX_POINT('',#691);
#267=VERTEX_POINT('',#699);
#268=VERTEX_POINT('',#700);
#269=VERTEX_POINT('',#707);
#270=VERTEX_POINT('',#731);
#271=LINE('',#589,#301);
#272=LINE('',#594,#302);
#273=LINE('',#606,#303);
#274=LINE('',#610,#304);
#275=LINE('',#619,#305);
#276=LINE('',#621,#306);
#277=LINE('',#637,#307);
#278=LINE('',#641,#308);
#279=LINE('',#643,#309);
#280=LINE('',#648,#310);
#281=LINE('',#649,#311);
#282=LINE('',#650,#312);
#283=LINE('',#654,#313);
#284=LINE('',#658,#314);
#285=LINE('',#666,#315);
#286=LINE('',#670,#316);
#287=LINE('',#671,#317);
#288=LINE('',#675,#318);
#289=LINE('',#692,#319);
#290=LINE('',#693,#320);
#291=LINE('',#705,#321);
#292=LINE('',#706,#322);
#293=LINE('',#710,#323);
#294=LINE('',#711,#324);
#295=LINE('',#712,#325);
#296=LINE('',#716,#326);
#297=LINE('',#717,#327);
#298=LINE('',#718,#328);
#299=LINE('',#724,#329);
#300=LINE('',#727,#330);
#301=VECTOR('',#475,1.);
#302=VECTOR('',#478,1.);
#303=VECTOR('',#485,1.);
#304=VECTOR('',#488,1.);
#305=VECTOR('',#493,1.);
#306=VECTOR('',#494,1.);
#307=VECTOR('',#501,1.);
#308=VECTOR('',#504,1.);
#309=VECTOR('',#507,1.);
#310=VECTOR('',#510,1.);
#311=VECTOR('',#511,1.);
#312=VECTOR('',#512,1.);
#313=VECTOR('',#515,1.);
#314=VECTOR('',#518,1.);
#315=VECTOR('',#527,1.);
#316=VECTOR('',#530,1.);
#317=VECTOR('',#531,1.);
#318=VECTOR('',#534,1.);
#319=VECTOR('',#543,1.);
#320=VECTOR('',#544,1.);
#321=VECTOR('',#547,1.);
#322=VECTOR('',#548,1.);
#323=VECTOR('',#553,1.);
#324=VECTOR('',#554,1.);
#325=VECTOR('',#555,1.);
#326=VECTOR('',#562,1.);
#327=VECTOR('',#563,1.);
#328=VECTOR('',#564,1.);
#329=VECTOR('',#575,1.);
#330=VECTOR('',#580,1.);
#331=EDGE_LOOP('',(#57,#58,#59,#60));
#332=EDGE_LOOP('',(#61,#62,#63,#64,#65,#66,#67));
#333=EDGE_LOOP('',(#68,#69,#70,#71));
#334=EDGE_LOOP('',(#72,#73,#74,#75,#76,#77,#78));
#335=EDGE_LOOP('',(#79,#80,#81,#82,#83,#84,#85,#86,#87,#88,#89,#90));
#336=EDGE_LOOP('',(#91));
#337=EDGE_LOOP('',(#92));
#338=EDGE_LOOP('',(#93,#94,#95,#96,#97,#98,#99,#100));
#339=EDGE_LOOP('',(#101));
#340=EDGE_LOOP('',(#102));
#341=EDGE_LOOP('',(#103,#104,#105,#106,#107,#108,#109));
#342=EDGE_LOOP('',(#110,#111,#112,#113,#114,#115,#116));
#343=EDGE_LOOP('',(#117,#118,#119,#120,#121,#122));
#344=EDGE_LOOP('',(#123,#124,#125,#126));
#345=EDGE_LOOP('',(#127,#128,#129,#130));
#346=EDGE_LOOP('',(#131,#132,#133,#134,#135,#136));
#347=EDGE_LOOP('',(#137,#138,#139,#140));
#348=EDGE_LOOP('',(#141,#142,#143,#144));
#349=EDGE_LOOP('',(#145,#146,#147,#148));
#350=EDGE_LOOP('',(#149,#150,#151,#152));
#351=EDGE_LOOP('',(#153,#154,#155,#156));
#352=EDGE_LOOP('',(#157,#158,#159,#160));
#353=EDGE_LOOP('',(#161,#162,#163,#164));
#354=EDGE_LOOP('',(#165,#166,#167,#168));
#355=EDGE_LOOP('',(#169));
#356=EDGE_LOOP('',(#170));
#357=EDGE_LOOP('',(#171));
#358=EDGE_LOOP('',(#172));
#359=FACE_BOUND('',#331,.T.);
#360=FACE_BOUND('',#332,.T.);
#361=FACE_BOUND('',#333,.T.);
#362=FACE_BOUND('',#334,.T.);
#363=FACE_BOUND('',#335,.T.);
#364=FACE_BOUND('',#336,.T.);
#365=FACE_BOUND('',#337,.T.);
#366=FACE_BOUND('',#338,.T.);
#367=FACE_BOUND('',#339,.T.);
#368=FACE_BOUND('',#340,.T.);
#369=FACE_BOUND('',#341,.T.);
#370=FACE_BOUND('',#342,.T.);
#371=FACE_BOUND('',#343,.T.);
#372=FACE_BOUND('',#344,.T.);
#373=FACE_BOUND('',#345,.T.);
#374=FACE_BOUND('',#346,.T.);
#375=FACE_BOUND('',#347,.T.);
#376=FACE_BOUND('',#348,.T.);
#377=FACE_BOUND('',#349,.T.);
#378=FACE_BOUND('',#350,.T.);
#379=FACE_BOUND('',#351,.T.);
#380=FACE_BOUND('',#352,.T.);
#381=FACE_BOUND('',#353,.T.);
#382=FACE_BOUND('',#354,.T.);
#383=FACE_BOUND('',#355,.T.);
#384=FACE_BOUND('',#356,.T.);
#385=FACE_BOUND('',#357,.T.);
#386=FACE_BOUND('',#358,.T.);
#387=CYLINDRICAL_SURFACE('',#429,0.0111);
#388=CYLINDRICAL_SURFACE('',#436,0.0111);
#389=CYLINDRICAL_SURFACE('',#441,0.0091);
#390=CYLINDRICAL_SURFACE('',#451,0.0125);
#391=CYLINDRICAL_SURFACE('',#457,0.0111);
#392=CYLINDRICAL_SURFACE('',#460,0.0111);
#393=ADVANCED_FACE('',(#359),#387,.F.);
#394=ADVANCED_FACE('',(#360),#32,.F.);
#395=ADVANCED_FACE('',(#361),#388,.F.);
#396=ADVANCED_FACE('',(#362),#33,.F.);
#397=ADVANCED_FACE('',(#363,#364),#389,.F.);
#398=ADVANCED_FACE('',(#365,#366),#34,.F.);
#399=ADVANCED_FACE('',(#367,#368),#390,.T.);
#400=ADVANCED_FACE('',(#369),#35,.F.);
#401=ADVANCED_FACE('',(#370),#36,.F.);
#402=ADVANCED_FACE('',(#371),#391,.F.);
#403=ADVANCED_FACE('',(#372),#13,.T.);
#404=ADVANCED_FACE('',(#373),#14,.F.);
#405=ADVANCED_FACE('',(#374),#392,.F.);
#406=ADVANCED_FACE('',(#375),#15,.F.);
#407=ADVANCED_FACE('',(#376),#16,.T.);
#408=ADVANCED_FACE('',(#377),#17,.F.);
#409=ADVANCED_FACE('',(#378),#18,.F.);
#410=ADVANCED_FACE('',(#379),#19,.F.);
#411=ADVANCED_FACE('',(#380),#20,.T.);
#412=ADVANCED_FACE('',(#381),#21,.T.);
#413=ADVANCED_FACE('',(#382),#22,.T.);
#414=ADVANCED_FACE('',(#383,#384),#23,.F.);
#415=ADVANCED_FACE('',(#385,#386),#12,.T.);
#416=CLOSED_SHELL('',(#393,#394,#395,#396,#397,#398,#399,#400,#401,#402,#403,#404,#405,#406,#407,#408,#409,#410,#411,#412,#413,#414,#415));
#417=STYLED_ITEM('',(#418),#425);
#418=PRESENTATION_STYLE_ASSIGNMENT((#419));
#419=SURFACE_STYLE_USAGE(.BOTH.,#420);
#420=SURFACE_SIDE_STYLE('',(#421));
#421=SURFACE_STYLE_FILL_AREA(#422);
#422=FILL_AREA_STYLE('',(#423));
#423=FILL_AREA_STYLE_COLOUR('',#424);
#424=COLOUR_RGB('',0.647058823529412,0.647058823529412,0.647058823529412);
#425=MANIFOLD_SOLID_BREP('Insulator',#416);
#426=SHAPE_DEFINITION_REPRESENTATION(#966,#427);
#427=SHAPE_REPRESENTATION('Insulator',(#428),#961);
#428=AXIS2_PLACEMENT_3D('',#587,#471,#472);
#429=AXIS2_PLACEMENT_3D('',#588,#473,#474);
#430=AXIS2_PLACEMENT_3D('',#592,#476,#477);
#431=AXIS2_PLACEMENT_3D('',#596,#479,#480);
#432=AXIS2_PLACEMENT_3D('',#597,#481,#482);
#433=AXIS2_PLACEMENT_3D('',#604,#483,#484);
#434=AXIS2_PLACEMENT_3D('',#608,#486,#487);
#435=AXIS2_PLACEMENT_3D('',#612,#489,#490);
#436=AXIS2_PLACEMENT_3D('',#618,#491,#492);
#437=AXIS2_PLACEMENT_3D('',#623,#495,#496);
#438=AXIS2_PLACEMENT_3D('',#624,#497,#498);
#439=AXIS2_PLACEMENT_3D('',#625,#499,#500);
#440=AXIS2_PLACEMENT_3D('',#639,#502,#503);
#441=AXIS2_PLACEMENT_3D('',#642,#505,#506);
#442=AXIS2_PLACEMENT_3D('',#646,#508,#509);
#443=AXIS2_PLACEMENT_3D('',#652,#513,#514);
#444=AXIS2_PLACEMENT_3D('',#656,#516,#517);
#445=AXIS2_PLACEMENT_3D('',#660,#519,#520);
#446=AXIS2_PLACEMENT_3D('',#661,#521,#522);
#447=AXIS2_PLACEMENT_3D('',#663,#523,#524);
#448=AXIS2_PLACEMENT_3D('',#664,#525,#526);
#449=AXIS2_PLACEMENT_3D('',#668,#528,#529);
#450=AXIS2_PLACEMENT_3D('',#673,#532,#533);
#451=AXIS2_PLACEMENT_3D('',#676,#535,#536);
#452=AXIS2_PLACEMENT_3D('',#677,#537,#538);
#453=AXIS2_PLACEMENT_3D('',#679,#539,#540);
#454=AXIS2_PLACEMENT_3D('',#690,#541,#542);
#455=AXIS2_PLACEMENT_3D('',#694,#545,#546);
#456=AXIS2_PLACEMENT_3D('',#708,#549,#550);
#457=AXIS2_PLACEMENT_3D('',#709,#551,#552);
#458=AXIS2_PLACEMENT_3D('',#713,#556,#557);
#459=AXIS2_PLACEMENT_3D('',#714,#558,#559);
#460=AXIS2_PLACEMENT_3D('',#715,#560,#561);
#461=AXIS2_PLACEMENT_3D('',#719,#565,#566);
#462=AXIS2_PLACEMENT_3D('',#720,#567,#568);
#463=AXIS2_PLACEMENT_3D('',#721,#569,#570);
#464=AXIS2_PLACEMENT_3D('',#722,#571,#572);
#465=AXIS2_PLACEMENT_3D('',#723,#573,#574);
#466=AXIS2_PLACEMENT_3D('',#725,#576,#577);
#467=AXIS2_PLACEMENT_3D('',#726,#578,#579);
#468=AXIS2_PLACEMENT_3D('',#728,#581,#582);
#469=AXIS2_PLACEMENT_3D('',#729,#583,#584);
#470=AXIS2_PLACEMENT_3D('',#730,#585,#586);
#471=DIRECTION('',(0.,0.,1.));
#472=DIRECTION('',(1.,0.,0.));
#473=DIRECTION('',(0.,0.,1.));
#474=DIRECTION('',(1.,0.,0.));
#475=DIRECTION('',(0.,6.12323399573677E-17,1.));
#476=DIRECTION('',(0.,0.,1.));
#477=DIRECTION('',(1.,0.,0.));
#478=DIRECTION('',(0.,0.,-1.));
#479=DIRECTION('',(0.,0.,1.));
#480=DIRECTION('',(1.,0.,0.));
#481=DIRECTION('',(0.,0.,1.));
#482=DIRECTION('',(1.,0.,0.));
#483=DIRECTION('',(0.,0.,1.));
#484=DIRECTION('',(1.,0.,0.));
#485=DIRECTION('',(-0.707106781186548,0.,-0.707106781186548));
#486=DIRECTION('',(0.,0.,1.));
#487=DIRECTION('',(1.,0.,0.));
#488=DIRECTION('',(0.612372435695795,0.353553390593274,-0.707106781186548));
#489=DIRECTION('',(0.,0.,1.));
#490=DIRECTION('',(1.,0.,0.));
#491=DIRECTION('',(0.,0.,1.));
#492=DIRECTION('',(1.,0.,0.));
#493=DIRECTION('',(0.,6.12323399573677E-17,1.));
#494=DIRECTION('',(0.,0.,-1.));
#495=DIRECTION('',(0.,0.,1.));
#496=DIRECTION('',(1.,0.,0.));
#497=DIRECTION('',(0.,0.,-1.));
#498=DIRECTION('',(-1.,0.,0.));
#499=DIRECTION('',(0.,0.,1.));
#500=DIRECTION('',(1.,0.,0.));
#501=DIRECTION('',(0.612372435695795,0.353553390593274,0.707106781186548));
#502=DIRECTION('',(0.,0.,1.));
#503=DIRECTION('',(1.,0.,0.));
#504=DIRECTION('',(-0.473146789255814,0.525482745498759,0.707106781186548));
#505=DIRECTION('',(0.,0.,-1.));
#506=DIRECTION('',(-1.,0.,0.));
#507=DIRECTION('',(0.,0.,1.));
#508=DIRECTION('',(0.,0.,1.));
#509=DIRECTION('',(1.,0.,0.));
#510=DIRECTION('',(0.,6.12323399573677E-17,1.));
#511=DIRECTION('',(-3.33847688608258E-16,-1.92747052886311E-16,1.));
#512=DIRECTION('',(3.85494105772624E-16,0.,1.));
#513=DIRECTION('',(0.,0.,1.));
#514=DIRECTION('',(1.,0.,0.));
#515=DIRECTION('',(0.,6.12323399573677E-17,1.));
#516=DIRECTION('',(0.,0.,1.));
#517=DIRECTION('',(1.,0.,0.));
#518=DIRECTION('',(0.,0.,1.));
#519=DIRECTION('',(0.,0.,1.));
#520=DIRECTION('',(1.,0.,0.));
#521=DIRECTION('',(0.,0.,1.));
#522=DIRECTION('',(1.,0.,0.));
#523=DIRECTION('',(0.,0.,1.));
#524=DIRECTION('',(1.,0.,0.));
#525=DIRECTION('',(0.,0.,-1.));
#526=DIRECTION('',(-1.,0.,0.));
#527=DIRECTION('',(-0.707106781186547,4.32978028117747E-17,0.707106781186548));
#528=DIRECTION('',(0.,0.,1.));
#529=DIRECTION('',(1.,0.,0.));
#530=DIRECTION('',(-0.473146789255815,0.525482745498759,0.707106781186548));
#531=DIRECTION('',(0.707106781186547,1.21802425745963E-16,0.707106781186548));
#532=DIRECTION('',(0.,0.,1.));
#533=DIRECTION('',(1.,0.,0.));
#534=DIRECTION('',(0.473146789255814,-0.525482745498759,0.707106781186548));
#535=DIRECTION('',(0.,0.,-1.));
#536=DIRECTION('',(-1.,0.,0.));
#537=DIRECTION('',(0.,0.,1.));
#538=DIRECTION('',(1.,0.,0.));
#539=DIRECTION('',(0.,0.,1.));
#540=DIRECTION('',(1.,0.,0.));
#541=DIRECTION('',(0.,0.,1.));
#542=DIRECTION('',(1.,0.,0.));
#543=DIRECTION('',(0.707106781186548,0.,-0.707106781186548));
#544=DIRECTION('',(-0.612372435695795,-0.353553390593274,-0.707106781186548));
#545=DIRECTION('',(0.,0.,-1.));
#546=DIRECTION('',(-1.,0.,0.));
#547=DIRECTION('',(-0.612372435695795,-0.353553390593274,0.707106781186548));
#548=DIRECTION('',(0.473146789255815,-0.525482745498759,0.707106781186548));
#549=DIRECTION('',(0.,0.,1.));
#550=DIRECTION('',(1.,0.,0.));
#551=DIRECTION('',(0.,0.,1.));
#552=DIRECTION('',(1.,0.,0.));
#553=DIRECTION('',(0.,6.12323399573677E-17,1.));
#554=DIRECTION('',(0.,6.12323399573677E-17,1.));
#555=DIRECTION('',(0.,0.,-1.));
#556=DIRECTION('',(-0.5,0.866025403784439,0.));
#557=DIRECTION('',(-0.866025403784439,-0.5,0.));
#558=DIRECTION('',(0.,-1.,0.));
#559=DIRECTION('',(1.,0.,0.));
#560=DIRECTION('',(0.,0.,1.));
#561=DIRECTION('',(1.,0.,0.));
#562=DIRECTION('',(0.,6.12323399573677E-17,1.));
#563=DIRECTION('',(0.,6.12323399573677E-17,1.));
#564=DIRECTION('',(0.,0.,-1.));
#565=DIRECTION('',(-0.5,0.866025403784439,0.));
#566=DIRECTION('',(-0.866025403784439,-0.5,0.));
#567=DIRECTION('',(0.,-1.,0.));
#568=DIRECTION('',(1.,0.,0.));
#569=DIRECTION('',(-0.743144825477395,-0.669130606358858,4.09724327644451E-17));
#570=DIRECTION('',(0.669130606358858,-0.743144825477395,0.));
#571=DIRECTION('',(0.743144825477395,0.669130606358858,-4.09724327644451E-17));
#572=DIRECTION('',(-0.669130606358858,0.743144825477395,0.));
#573=DIRECTION('',(-0.308670150327702,-0.951169142842993,5.82423123115201E-17));
#574=DIRECTION('',(0.951169142842993,-0.308670150327702,0.));
#575=DIRECTION('',(0.,6.12323399573677E-17,1.));
#576=DIRECTION('',(-0.676318488708842,0.736609327819427,-4.51043127768072E-17));
#577=DIRECTION('',(-0.736609327819427,-0.676318488708842,0.));
#578=DIRECTION('',(-0.308670150327701,-0.951169142842993,5.82423123115202E-17));
#579=DIRECTION('',(0.951169142842993,-0.308670150327701,0.));
#580=DIRECTION('',(0.,6.12323399573677E-17,1.));
#581=DIRECTION('',(0.676318488708847,-0.736609327819422,4.51043127768069E-17));
#582=DIRECTION('',(0.736609327819422,0.676318488708847,0.));
#583=DIRECTION('',(0.,0.,1.));
#584=DIRECTION('',(1.,0.,0.));
#585=DIRECTION('',(0.,0.,1.));
#586=DIRECTION('',(1.,0.,0.));
#587=CARTESIAN_POINT('',(0.,0.,0.));
#588=CARTESIAN_POINT('',(0.,0.,0.0555));
#589=CARTESIAN_POINT('',(0.00282644677273662,0.0107341137799488,0.0435));
#590=CARTESIAN_POINT('',(0.00282644677273663,0.0107341137799488,0.0445));
#591=CARTESIAN_POINT('',(0.00282644677273662,0.0107341137799488,0.0495));
#592=CARTESIAN_POINT('',(0.,0.,0.0445));
#593=CARTESIAN_POINT('',(0.00961288198200728,0.00555,0.0445));
#594=CARTESIAN_POINT('',(0.00961288198200728,0.00555,0.04575));
#595=CARTESIAN_POINT('',(0.00961288198200728,0.00555,0.0495));
#596=CARTESIAN_POINT('',(0.,0.,0.0495));
#597=CARTESIAN_POINT('',(0.,0.,0.0445));
#598=CARTESIAN_POINT('',(-6.55831893748613E-06,-0.0110999980625428,0.0445));
#599=CARTESIAN_POINT('',(-0.000786296942962219,-0.0108469599566443,0.0442474226386813));
#600=CARTESIAN_POINT('',(-0.001577863548742,-0.0105900834746443,0.0440736023901705));
#601=CARTESIAN_POINT('',(-0.00238448117604497,-0.0103283226867235,0.044));
#602=CARTESIAN_POINT('',(-6.55831893748866E-06,-0.0110999980625428,0.0445));
#603=CARTESIAN_POINT('',(-0.00238448117604497,-0.0103283226867235,0.044));
#604=CARTESIAN_POINT('',(0.,0.,0.0445));
#605=CARTESIAN_POINT('',(0.0111,0.,0.0445));
#606=CARTESIAN_POINT('',(0.0101,0.,0.0435));
#607=CARTESIAN_POINT('',(0.0091,0.,0.0425));
#608=CARTESIAN_POINT('',(0.,0.,0.0425));
#609=CARTESIAN_POINT('',(-0.0078808311744384,-0.00455,0.0425));
#610=CARTESIAN_POINT('',(-0.00874685657822284,-0.00505,0.0435));
#611=CARTESIAN_POINT('',(-0.00961288198200728,-0.00555,0.0445));
#612=CARTESIAN_POINT('',(0.,0.,0.0445));
#613=CARTESIAN_POINT('',(-0.00282644677273663,-0.0107341137799488,0.0445));
#614=CARTESIAN_POINT('',(-0.00282644677273662,-0.0107341137799488,0.0445));
#615=CARTESIAN_POINT('',(-0.00267972082531158,-0.0105993972249594,0.0443323625306419));
#616=CARTESIAN_POINT('',(-0.00253243227970028,-0.0104641641199608,0.0441656415828626));
#617=CARTESIAN_POINT('',(-0.00238448117604497,-0.0103283226867235,0.044));
#618=CARTESIAN_POINT('',(0.,0.,0.0555));
#619=CARTESIAN_POINT('',(-0.00282644677273663,-0.0107341137799488,0.0435));
#620=CARTESIAN_POINT('',(-0.00282644677273663,-0.0107341137799488,0.0495));
#621=CARTESIAN_POINT('',(-0.00961288198200728,-0.00555,0.04825));
#622=CARTESIAN_POINT('',(-0.00961288198200728,-0.00555,0.0495));
#623=CARTESIAN_POINT('',(0.,0.,0.0495));
#624=CARTESIAN_POINT('',(0.,0.,0.0495));
#625=CARTESIAN_POINT('',(0.,0.,0.0495));
#626=CARTESIAN_POINT('',(-6.55831893748866E-06,-0.0110999980625428,0.0495));
#627=CARTESIAN_POINT('',(0.00742734973058333,-0.00824890756279909,0.0495));
#628=CARTESIAN_POINT('',(-6.55831893748536E-06,-0.0110999980625428,0.0495));
#629=CARTESIAN_POINT('',(-0.000786296942962216,-0.0108469599566443,0.0497525773613187));
#630=CARTESIAN_POINT('',(-0.00157786354874199,-0.0105900834746443,0.0499263976098295));
#631=CARTESIAN_POINT('',(-0.00238448117604497,-0.0103283226867235,0.05));
#632=CARTESIAN_POINT('',(-0.00238448117604497,-0.0103283226867235,0.05));
#633=CARTESIAN_POINT('',(-0.00282644677273662,-0.0107341137799488,0.0495));
#634=CARTESIAN_POINT('',(-0.00267972082531158,-0.0105993972249594,0.0496676374693581));
#635=CARTESIAN_POINT('',(-0.00253243227970027,-0.0104641641199608,0.0498343584171374));
#636=CARTESIAN_POINT('',(-0.00238448117604497,-0.0103283226867235,0.05));
#637=CARTESIAN_POINT('',(-0.00874685657822284,-0.00505,0.0505));
#638=CARTESIAN_POINT('',(-0.0078808311744384,-0.00455,0.0515));
#639=CARTESIAN_POINT('',(0.,0.,0.0515));
#640=CARTESIAN_POINT('',(0.00608908851786561,-0.00676261791184429,0.0515));
#641=CARTESIAN_POINT('',(6.93597394150912E-18,6.24517898807923E-18,0.0606));
#642=CARTESIAN_POINT('',(0.,5.57214293612046E-19,0.035));
#643=CARTESIAN_POINT('',(-0.0091,0.,0.04475));
#644=CARTESIAN_POINT('',(-0.0091,0.,0.0425));
#645=CARTESIAN_POINT('',(-0.0091,4.5801790288111E-18,0.0566));
#646=CARTESIAN_POINT('',(0.,0.,0.0566));
#647=CARTESIAN_POINT('',(0.00608908851786561,-0.00676261791184429,0.0566));
#648=CARTESIAN_POINT('',(0.00608908851786561,-0.00676261791184429,0.0445));
#649=CARTESIAN_POINT('',(-0.0078808311744384,-0.00455,0.04925));
#650=CARTESIAN_POINT('',(0.0091,0.,0.04925));
#651=CARTESIAN_POINT('',(0.0091,4.48507395607098E-18,0.0566));
#652=CARTESIAN_POINT('',(0.,0.,0.0566));
#653=CARTESIAN_POINT('',(-0.00608908851786561,0.00676261791184429,0.0566));
#654=CARTESIAN_POINT('',(-0.00608908851786561,0.00676261791184429,0.0445));
#655=CARTESIAN_POINT('',(-0.00608908851786561,0.0067626179118443,0.0515));
#656=CARTESIAN_POINT('',(0.,0.,0.0515));
#657=CARTESIAN_POINT('',(0.0078808311744384,0.00455,0.0515));
#658=CARTESIAN_POINT('',(0.0078808311744384,0.00455,0.04475));
#659=CARTESIAN_POINT('',(0.0078808311744384,0.00455,0.0425));
#660=CARTESIAN_POINT('',(0.,0.,0.0425));
#661=CARTESIAN_POINT('',(0.,5.57214293612046E-19,-0.105));
#662=CARTESIAN_POINT('',(0.0091,5.57214293612046E-19,-0.105));
#663=CARTESIAN_POINT('',(0.,0.,0.0565));
#664=CARTESIAN_POINT('',(0.,0.,0.06));
#665=CARTESIAN_POINT('',(-0.0125,0.,0.06));
#666=CARTESIAN_POINT('',(0.,2.52342753630811E-18,0.0475));
#667=CARTESIAN_POINT('',(-0.0111,4.0753397891951E-18,0.0586));
#668=CARTESIAN_POINT('',(0.,0.,0.0586));
#669=CARTESIAN_POINT('',(-0.00742734973058332,0.00824890756279908,0.0586));
#670=CARTESIAN_POINT('',(1.38049612899468E-18,1.24300429768432E-18,0.0475));
#671=CARTESIAN_POINT('',(-3.23913863514718E-34,2.91755671005004E-18,0.0475));
#672=CARTESIAN_POINT('',(0.0111,4.20889918120625E-18,0.0586));
#673=CARTESIAN_POINT('',(0.,0.,0.0586));
#674=CARTESIAN_POINT('',(0.00742734973058332,-0.00824890756279908,0.0586));
#675=CARTESIAN_POINT('',(6.53709922821997E-18,5.88603058306554E-18,0.0475));
#676=CARTESIAN_POINT('',(0.,7.65404249467096E-19,0.06));
#677=CARTESIAN_POINT('',(0.,0.,-0.00612300716030736));
#678=CARTESIAN_POINT('',(0.0125,0.,-0.00612300716030736));
#679=CARTESIAN_POINT('',(0.,0.,0.0445));
#680=CARTESIAN_POINT('',(0.00282644677273662,0.0107341137799488,0.0445));
#681=CARTESIAN_POINT('',(0.00267972082531158,0.0105993972249594,0.0443323625306419));
#682=CARTESIAN_POINT('',(0.00253243227970027,0.0104641641199608,0.0441656415828626));
#683=CARTESIAN_POINT('',(0.00238448117604497,0.0103283226867235,0.044));
#684=CARTESIAN_POINT('',(0.00238448117604497,0.0103283226867235,0.044));
#685=CARTESIAN_POINT('',(0.00238448117604498,0.0103283226867235,0.044));
#686=CARTESIAN_POINT('',(0.00157786354874201,0.0105900834746444,0.0440736023901705));
#687=CARTESIAN_POINT('',(0.000786296942962239,0.0108469599566443,0.0442474226386813));
#688=CARTESIAN_POINT('',(6.55831893751165E-06,0.0110999980625428,0.0445));
#689=CARTESIAN_POINT('',(6.55831893750991E-06,0.0110999980625428,0.0445));
#690=CARTESIAN_POINT('',(0.,0.,0.0445));
#691=CARTESIAN_POINT('',(-0.0111,0.,0.0445));
#692=CARTESIAN_POINT('',(-0.0101,0.,0.0435));
#693=CARTESIAN_POINT('',(0.00874685657822284,0.00505,0.0435));
#694=CARTESIAN_POINT('',(0.,0.,0.0495));
#695=CARTESIAN_POINT('',(0.00238448117604498,0.0103283226867235,0.05));
#696=CARTESIAN_POINT('',(0.00157786354874201,0.0105900834746444,0.0499263976098295));
#697=CARTESIAN_POINT('',(0.000786296942962235,0.0108469599566443,0.0497525773613187));
#698=CARTESIAN_POINT('',(6.55831893750523E-06,0.0110999980625428,0.0495));
#699=CARTESIAN_POINT('',(0.00238448117604497,0.0103283226867235,0.05));
#700=CARTESIAN_POINT('',(6.55831893750037E-06,0.0110999980625428,0.0495));
#701=CARTESIAN_POINT('',(0.00282644677273662,0.0107341137799488,0.0495));
#702=CARTESIAN_POINT('',(0.00267972082531158,0.0105993972249594,0.0496676374693581));
#703=CARTESIAN_POINT('',(0.00253243227970027,0.0104641641199608,0.0498343584171374));
#704=CARTESIAN_POINT('',(0.00238448117604497,0.0103283226867235,0.05));
#705=CARTESIAN_POINT('',(0.00874685657822284,0.00505,0.0505));
#706=CARTESIAN_POINT('',(1.77937084228382E-18,1.602152702698E-18,0.0606));
#707=CARTESIAN_POINT('',(-0.00742734973058333,0.00824890756279909,0.0495));
#708=CARTESIAN_POINT('',(0.,0.,0.0495));
#709=CARTESIAN_POINT('',(0.,0.,0.0555));
#710=CARTESIAN_POINT('',(6.55831893748779E-06,0.0110999980625428,0.0435));
#711=CARTESIAN_POINT('',(-0.00742734973058333,0.00824890756279908,0.0445));
#712=CARTESIAN_POINT('',(-0.0111,0.,0.04575));
#713=CARTESIAN_POINT('',(0.,0.,0.0265));
#714=CARTESIAN_POINT('',(0.,0.,0.0265));
#715=CARTESIAN_POINT('',(0.,0.,0.0555));
#716=CARTESIAN_POINT('',(-6.55831893748866E-06,-0.0110999980625428,0.0435));
#717=CARTESIAN_POINT('',(0.00742734973058332,-0.00824890756279908,0.0445));
#718=CARTESIAN_POINT('',(0.0111,0.,0.04825));
#719=CARTESIAN_POINT('',(0.,0.,0.0265));
#720=CARTESIAN_POINT('',(0.,0.,0.0265));
#721=CARTESIAN_POINT('',(0.00659093647263475,-0.00731997653095233,0.0445));
#722=CARTESIAN_POINT('',(-0.00659093647263475,0.00731997653095234,0.0445));
#723=CARTESIAN_POINT('',(-0.00119551974749123,-0.0107141603746331,0.0435));
#724=CARTESIAN_POINT('',(-0.00238448117604497,-0.0103283226867235,0.0435));
#725=CARTESIAN_POINT('',(-0.00260546397439081,-0.0105312182333362,0.0435));
#726=CARTESIAN_POINT('',(0.00119551974749123,0.0107141603746331,0.0435));
#727=CARTESIAN_POINT('',(0.00238448117604497,0.0103283226867235,0.0435));
#728=CARTESIAN_POINT('',(0.0026054639743908,0.0105312182333362,0.0435));
#729=CARTESIAN_POINT('',(0.,0.,-0.105));
#730=CARTESIAN_POINT('',(0.,0.,-0.105));
#731=CARTESIAN_POINT('',(0.0212258320271348,0.,-0.105));
#732=CARTESIAN_POINT('',(-0.0118491483947756,0.0049080779676874,-0.00612300716030737));
#733=CARTESIAN_POINT('',(-0.0128254258026122,9.75781955236954E-18,-0.00612300716030737));
#734=CARTESIAN_POINT('',(-0.0118491483947756,-0.00490807796768743,-0.00612300716030737));
#735=CARTESIAN_POINT('',(-0.00906894555663202,-0.00906894555663201,-0.00612300716030737));
#736=CARTESIAN_POINT('',(-0.00490807796768743,-0.0118491483947756,-0.00612300716030737));
#737=CARTESIAN_POINT('',(-1.575481281893E-18,-0.0128254258026122,-0.00612300716030737));
#738=CARTESIAN_POINT('',(0.00490807796768743,-0.0118491483947756,-0.00612300716030737));
#739=CARTESIAN_POINT('',(0.00906894555663202,-0.00906894555663202,-0.00612300716030737));
#740=CARTESIAN_POINT('',(0.0118491483947756,-0.00490807796768743,-0.00612300716030737));
#741=CARTESIAN_POINT('',(0.0128254258026122,-2.0855936394871E-18,-0.00612300716030737));
#742=CARTESIAN_POINT('',(0.0118491483947756,0.00490807796768743,-0.00612300716030737));
#743=CARTESIAN_POINT('',(0.00906894555663202,0.00906894555663202,-0.00612300716030737));
#744=CARTESIAN_POINT('',(0.00490807796768743,0.0118491483947756,-0.00612300716030737));
#745=CARTESIAN_POINT('',(5.57686492472231E-18,0.0128254258026122,-0.00612300716030737));
#746=CARTESIAN_POINT('',(-0.00490807796768743,0.0118491483947756,-0.00612300716030737));
#747=CARTESIAN_POINT('',(-0.00906894555663202,0.00906894555663201,-0.00612300716030737));
#748=CARTESIAN_POINT('',(-0.0118491483947756,0.0049080779676874,-0.00612300716030737));
#749=CARTESIAN_POINT('',(-0.0128254258026122,9.75781955236954E-18,-0.00612300716030737));
#750=CARTESIAN_POINT('',(-0.0118491483947756,-0.00490807796768743,-0.00612300716030737));
#751=CARTESIAN_POINT('',(-0.0127947342652727,0.00529975245963567,-0.0232158767292945));
#752=CARTESIAN_POINT('',(-0.013848920573545,9.86623976961809E-18,-0.0232158767292945));
#753=CARTESIAN_POINT('',(-0.0127947342652727,-0.0052997524596357,-0.0232158767292945));
#754=CARTESIAN_POINT('',(-0.00979266564966754,-0.00979266564966753,-0.0232158767292945));
#755=CARTESIAN_POINT('',(-0.0052997524596357,-0.0127947342652727,-0.0232158767292945));
#756=CARTESIAN_POINT('',(-3.2492183856675E-18,-0.013848920573545,-0.0232158767292945));
#757=CARTESIAN_POINT('',(0.0052997524596357,-0.0127947342652727,-0.0232158767292945));
#758=CARTESIAN_POINT('',(0.00979266564966753,-0.00979266564966754,-0.0232158767292945));
#759=CARTESIAN_POINT('',(0.0127947342652727,-0.0052997524596357,-0.0232158767292945));
#760=CARTESIAN_POINT('',(0.013848920573545,-2.11871395121372E-18,-0.0232158767292945));
#761=CARTESIAN_POINT('',(0.0127947342652727,0.0052997524596357,-0.0232158767292945));
#762=CARTESIAN_POINT('',(0.00979266564966754,0.00979266564966753,-0.0232158767292945));
#763=CARTESIAN_POINT('',(0.0052997524596357,0.0127947342652727,-0.0232158767292945));
#764=CARTESIAN_POINT('',(3.93023287525995E-18,0.013848920573545,-0.0232158767292945));
#765=CARTESIAN_POINT('',(-0.0052997524596357,0.0127947342652727,-0.0232158767292945));
#766=CARTESIAN_POINT('',(-0.00979266564966754,0.00979266564966753,-0.0232158767292945));
#767=CARTESIAN_POINT('',(-0.0127947342652727,0.00529975245963567,-0.0232158767292945));
#768=CARTESIAN_POINT('',(-0.013848920573545,9.86623976961809E-18,-0.0232158767292945));
#769=CARTESIAN_POINT('',(-0.0127947342652727,-0.0052997524596357,-0.0232158767292945));
#770=CARTESIAN_POINT('',(-0.0142786426381127,0.00591440743298499,-0.039229708580661));
#771=CARTESIAN_POINT('',(-0.0154550914222556,1.12757025938492E-17,-0.039229708580661));
#772=CARTESIAN_POINT('',(-0.0142786426381127,-0.00591440743298502,-0.039229708580661));
#773=CARTESIAN_POINT('',(-0.010928399948535,-0.010928399948535,-0.039229708580661));
#774=CARTESIAN_POINT('',(-0.00591440743298502,-0.0142786426381127,-0.039229708580661));
#775=CARTESIAN_POINT('',(-2.77826806699411E-19,-0.0154550914222556,-0.039229708580661));
#776=CARTESIAN_POINT('',(0.00591440743298501,-0.0142786426381127,-0.039229708580661));
#777=CARTESIAN_POINT('',(0.010928399948535,-0.010928399948535,-0.039229708580661));
#778=CARTESIAN_POINT('',(0.0142786426381127,-0.00591440743298502,-0.039229708580661));
#779=CARTESIAN_POINT('',(0.0154550914222556,-3.1635621788764E-18,-0.039229708580661));
#780=CARTESIAN_POINT('',(0.0142786426381127,0.00591440743298502,-0.039229708580661));
#781=CARTESIAN_POINT('',(0.010928399948535,0.010928399948535,-0.039229708580661));
#782=CARTESIAN_POINT('',(0.00591440743298502,0.0142786426381127,-0.039229708580661));
#783=CARTESIAN_POINT('',(4.26904605416167E-18,0.0154550914222556,-0.039229708580661));
#784=CARTESIAN_POINT('',(-0.00591440743298502,0.0142786426381127,-0.039229708580661));
#785=CARTESIAN_POINT('',(-0.010928399948535,0.010928399948535,-0.039229708580661));
#786=CARTESIAN_POINT('',(-0.0142786426381127,0.00591440743298499,-0.039229708580661));
#787=CARTESIAN_POINT('',(-0.0154550914222556,1.12757025938492E-17,-0.039229708580661));
#788=CARTESIAN_POINT('',(-0.0142786426381127,-0.00591440743298502,-0.039229708580661));
#789=CARTESIAN_POINT('',(-0.0154314436698023,0.00639191325502849,-0.0514401026096601));
#790=CARTESIAN_POINT('',(-0.0167028742674454,1.24683249835833E-17,-0.0514401026096601));
#791=CARTESIAN_POINT('',(-0.0154314436698022,-0.00639191325502853,-0.0514401026096601));
#792=CARTESIAN_POINT('',(-0.0118107156598169,-0.0118107156598169,-0.0514401026096601));
#793=CARTESIAN_POINT('',(-0.00639191325502853,-0.0154314436698022,-0.0514401026096601));
#794=CARTESIAN_POINT('',(-2.75793927626E-18,-0.0167028742674454,-0.0514401026096601));
#795=CARTESIAN_POINT('',(0.00639191325502852,-0.0154314436698022,-0.0514401026096601));
#796=CARTESIAN_POINT('',(0.0118107156598169,-0.0118107156598169,-0.0514401026096601));
#797=CARTESIAN_POINT('',(0.0154314436698022,-0.00639191325502853,-0.0514401026096601));
#798=CARTESIAN_POINT('',(0.0167028742674454,-1.67024309286707E-18,-0.0514401026096601));
#799=CARTESIAN_POINT('',(0.0154314436698022,0.00639191325502853,-0.0514401026096601));
#800=CARTESIAN_POINT('',(0.0118107156598169,0.0118107156598169,-0.0514401026096601));
#801=CARTESIAN_POINT('',(0.00639191325502853,0.0154314436698022,-0.0514401026096601));
#802=CARTESIAN_POINT('',(6.64073830647371E-18,0.0167028742674454,-0.0514401026096601));
#803=CARTESIAN_POINT('',(-0.00639191325502853,0.0154314436698022,-0.0514401026096601));
#804=CARTESIAN_POINT('',(-0.0118107156598169,0.0118107156598169,-0.0514401026096601));
#805=CARTESIAN_POINT('',(-0.0154314436698023,0.00639191325502849,-0.0514401026096601));
#806=CARTESIAN_POINT('',(-0.0167028742674454,1.24683249835833E-17,-0.0514401026096601));
#807=CARTESIAN_POINT('',(-0.0154314436698022,-0.00639191325502853,-0.0514401026096601));
#808=CARTESIAN_POINT('',(-0.0157655552691409,0.00653030681082073,-0.0569819093608899));
#809=CARTESIAN_POINT('',(-0.0170645140565967,1.33356867215717E-17,-0.0569819093608898));
#810=CARTESIAN_POINT('',(-0.0157655552691409,-0.00653030681082077,-0.0569819093608899));
#811=CARTESIAN_POINT('',(-0.0120664336070727,-0.0120664336070727,-0.0569819093608898));
#812=CARTESIAN_POINT('',(-0.00653030681082076,-0.0157655552691409,-0.0569819093608899));
#813=CARTESIAN_POINT('',(-6.51198929849106E-18,-0.0170645140565968,-0.0569819093608898));
#814=CARTESIAN_POINT('',(0.00653030681082077,-0.0157655552691409,-0.0569819093608898));
#815=CARTESIAN_POINT('',(0.0120664336070727,-0.0120664336070727,-0.0569819093608898));
#816=CARTESIAN_POINT('',(0.0157655552691409,-0.00653030681082077,-0.0569819093608898));
#817=CARTESIAN_POINT('',(0.0170645140565968,-2.33619627786617E-18,-0.0569819093608898));
#818=CARTESIAN_POINT('',(0.0157655552691409,0.00653030681082076,-0.0569819093608898));
#819=CARTESIAN_POINT('',(0.0120664336070727,0.0120664336070727,-0.0569819093608898));
#820=CARTESIAN_POINT('',(0.00653030681082077,0.0157655552691409,-0.0569819093608898));
#821=CARTESIAN_POINT('',(2.33103467084383E-18,0.0170645140565968,-0.0569819093608898));
#822=CARTESIAN_POINT('',(-0.00653030681082076,0.0157655552691409,-0.0569819093608899));
#823=CARTESIAN_POINT('',(-0.0120664336070727,0.0120664336070727,-0.0569819093608899));
#824=CARTESIAN_POINT('',(-0.0157655552691409,0.00653030681082073,-0.0569819093608899));
#825=CARTESIAN_POINT('',(-0.0170645140565967,1.33356867215717E-17,-0.0569819093608898));
#826=CARTESIAN_POINT('',(-0.0157655552691409,-0.00653030681082077,-0.0569819093608899));
#827=CARTESIAN_POINT('',(-0.0157771004980475,0.00653508900121453,-0.0611118428493636));
#828=CARTESIAN_POINT('',(-0.0170770105223158,1.40946282423116E-17,-0.0611118428493636));
#829=CARTESIAN_POINT('',(-0.0157771004980474,-0.00653508900121457,-0.0611118428493636));
#830=CARTESIAN_POINT('',(-0.0120752699427235,-0.0120752699427235,-0.0611118428493636));
#831=CARTESIAN_POINT('',(-0.00653508900121457,-0.0157771004980475,-0.0611118428493636));
#832=CARTESIAN_POINT('',(-5.0618688927917E-18,-0.0170770105223158,-0.0611118428493636));
#833=CARTESIAN_POINT('',(0.00653508900121457,-0.0157771004980475,-0.0611118428493636));
#834=CARTESIAN_POINT('',(0.0120752699427235,-0.0120752699427235,-0.0611118428493636));
#835=CARTESIAN_POINT('',(0.0157771004980475,-0.00653508900121457,-0.0611118428493636));
#836=CARTESIAN_POINT('',(0.0170770105223158,-2.27302614884672E-18,-0.0611118428493636));
#837=CARTESIAN_POINT('',(0.0157771004980475,0.00653508900121456,-0.0611118428493636));
#838=CARTESIAN_POINT('',(0.0120752699427235,0.0120752699427235,-0.0611118428493636));
#839=CARTESIAN_POINT('',(0.00653508900121457,0.0157771004980474,-0.0611118428493636));
#840=CARTESIAN_POINT('',(3.63207727782644E-18,0.0170770105223158,-0.0611118428493636));
#841=CARTESIAN_POINT('',(-0.00653508900121457,0.0157771004980475,-0.0611118428493636));
#842=CARTESIAN_POINT('',(-0.0120752699427235,0.0120752699427235,-0.0611118428493636));
#843=CARTESIAN_POINT('',(-0.0157771004980475,0.00653508900121453,-0.0611118428493636));
#844=CARTESIAN_POINT('',(-0.0170770105223158,1.40946282423116E-17,-0.0611118428493636));
#845=CARTESIAN_POINT('',(-0.0157771004980474,-0.00653508900121457,-0.0611118428493636));
#846=CARTESIAN_POINT('',(-0.015528579608385,0.00643214827818332,-0.0647122972263822));
#847=CARTESIAN_POINT('',(-0.0168080134497354,1.00830802041152E-17,-0.0647122972263821));
#848=CARTESIAN_POINT('',(-0.015528579608385,-0.00643214827818335,-0.0647122972263822));
#849=CARTESIAN_POINT('',(-0.0118850602885826,-0.0118850602885826,-0.0647122972263822));
#850=CARTESIAN_POINT('',(-0.00643214827818335,-0.015528579608385,-0.0647122972263822));
#851=CARTESIAN_POINT('',(-3.38135552543917E-18,-0.0168080134497354,-0.0647122972263822));
#852=CARTESIAN_POINT('',(0.00643214827818334,-0.015528579608385,-0.0647122972263822));
#853=CARTESIAN_POINT('',(0.0118850602885826,-0.0118850602885826,-0.0647122972263822));
#854=CARTESIAN_POINT('',(0.015528579608385,-0.00643214827818335,-0.0647122972263822));
#855=CARTESIAN_POINT('',(0.0168080134497354,-1.9374422830564E-18,-0.0647122972263821));
#856=CARTESIAN_POINT('',(0.015528579608385,0.00643214827818335,-0.0647122972263822));
#857=CARTESIAN_POINT('',(0.0118850602885826,0.0118850602885826,-0.0647122972263822));
#858=CARTESIAN_POINT('',(0.00643214827818335,0.015528579608385,-0.0647122972263822));
#859=CARTESIAN_POINT('',(6.80336863234654E-18,0.0168080134497354,-0.0647122972263822));
#860=CARTESIAN_POINT('',(-0.00643214827818335,0.015528579608385,-0.0647122972263822));
#861=CARTESIAN_POINT('',(-0.0118850602885826,0.0118850602885826,-0.0647122972263822));
#862=CARTESIAN_POINT('',(-0.015528579608385,0.00643214827818332,-0.0647122972263822));
#863=CARTESIAN_POINT('',(-0.0168080134497354,1.00830802041152E-17,-0.0647122972263821));
#864=CARTESIAN_POINT('',(-0.015528579608385,-0.00643214827818335,-0.0647122972263822));
#865=CARTESIAN_POINT('',(-0.0150697814377955,0.00624210785353316,-0.0684349429599672));
#866=CARTESIAN_POINT('',(-0.0163114138883809,1.23599047663348E-17,-0.0684349429599672));
#867=CARTESIAN_POINT('',(-0.0150697814377954,-0.0062421078535332,-0.0684349429599672));
#868=CARTESIAN_POINT('',(-0.0115339113712146,-0.0115339113712146,-0.0684349429599672));
#869=CARTESIAN_POINT('',(-0.00624210785353319,-0.0150697814377954,-0.0684349429599672));
#870=CARTESIAN_POINT('',(-6.38324029050841E-18,-0.0163114138883809,-0.0684349429599672));
#871=CARTESIAN_POINT('',(0.00624210785353319,-0.0150697814377954,-0.0684349429599672));
#872=CARTESIAN_POINT('',(0.0115339113712145,-0.0115339113712146,-0.0684349429599672));
#873=CARTESIAN_POINT('',(0.0150697814377955,-0.0062421078535332,-0.0684349429599672));
#874=CARTESIAN_POINT('',(0.0163114138883809,-1.90655205026122E-18,-0.0684349429599672));
#875=CARTESIAN_POINT('',(0.0150697814377955,0.00624210785353319,-0.0684349429599672));
#876=CARTESIAN_POINT('',(0.0115339113712146,0.0115339113712146,-0.0684349429599672));
#877=CARTESIAN_POINT('',(0.0062421078535332,0.0150697814377954,-0.0684349429599672));
#878=CARTESIAN_POINT('',(3.150962563786E-18,0.0163114138883809,-0.0684349429599672));
#879=CARTESIAN_POINT('',(-0.00624210785353319,0.0150697814377954,-0.0684349429599672));
#880=CARTESIAN_POINT('',(-0.0115339113712146,0.0115339113712146,-0.0684349429599672));
#881=CARTESIAN_POINT('',(-0.0150697814377955,0.00624210785353316,-0.0684349429599672));
#882=CARTESIAN_POINT('',(-0.0163114138883809,1.23599047663348E-17,-0.0684349429599672));
#883=CARTESIAN_POINT('',(-0.0150697814377954,-0.0062421078535332,-0.0684349429599672));
#884=CARTESIAN_POINT('',(-0.0145843711728083,0.00604104433846036,-0.072929089564347));
#885=CARTESIAN_POINT('',(-0.0157860096036169,1.19262238973405E-17,-0.072929089564347));
#886=CARTESIAN_POINT('',(-0.0145843711728083,-0.00604104433846039,-0.072929089564347));
#887=CARTESIAN_POINT('',(-0.0111623944385935,-0.0111623944385935,-0.072929089564347));
#888=CARTESIAN_POINT('',(-0.00604104433846039,-0.0145843711728083,-0.072929089564347));
#889=CARTESIAN_POINT('',(1.18584612615602E-18,-0.0157860096036169,-0.072929089564347));
#890=CARTESIAN_POINT('',(0.00604104433846038,-0.0145843711728083,-0.072929089564347));
#891=CARTESIAN_POINT('',(0.0111623944385935,-0.0111623944385935,-0.072929089564347));
#892=CARTESIAN_POINT('',(0.0145843711728083,-0.00604104433846039,-0.072929089564347));
#893=CARTESIAN_POINT('',(0.0157860096036169,-2.44110924931749E-18,-0.072929089564347));
#894=CARTESIAN_POINT('',(0.0145843711728083,0.00604104433846039,-0.072929089564347));
#895=CARTESIAN_POINT('',(0.0111623944385935,0.0111623944385935,-0.072929089564347));
#896=CARTESIAN_POINT('',(0.00604104433846039,0.0145843711728083,-0.072929089564347));
#897=CARTESIAN_POINT('',(5.88179678573386E-18,0.0157860096036169,-0.072929089564347));
#898=CARTESIAN_POINT('',(-0.00604104433846039,0.0145843711728083,-0.072929089564347));
#899=CARTESIAN_POINT('',(-0.0111623944385935,0.0111623944385935,-0.072929089564347));
#900=CARTESIAN_POINT('',(-0.0145843711728083,0.00604104433846036,-0.072929089564347));
#901=CARTESIAN_POINT('',(-0.0157860096036169,1.19262238973405E-17,-0.072929089564347));
#902=CARTESIAN_POINT('',(-0.0145843711728083,-0.00604104433846039,-0.072929089564347));
#903=CARTESIAN_POINT('',(-0.0142282879951791,0.00589354985695344,-0.0822524231438906));
#904=CARTESIAN_POINT('',(-0.0154005879494957,1.14925430283463E-17,-0.0822524231438906));
#905=CARTESIAN_POINT('',(-0.0142282879951791,-0.00589354985695347,-0.0822524231438906));
#906=CARTESIAN_POINT('',(-0.0108898601733483,-0.0108898601733483,-0.0822524231438906));
#907=CARTESIAN_POINT('',(-0.00589354985695347,-0.0142282879951791,-0.0822524231438906));
#908=CARTESIAN_POINT('',(9.28348110190713E-19,-0.0154005879494957,-0.0822524231438906));
#909=CARTESIAN_POINT('',(0.00589354985695347,-0.0142282879951791,-0.0822524231438906));
#910=CARTESIAN_POINT('',(0.0108898601733483,-0.0108898601733483,-0.0822524231438906));
#911=CARTESIAN_POINT('',(0.0142282879951791,-0.00589354985695347,-0.0822524231438906));
#912=CARTESIAN_POINT('',(0.0154005879494957,-1.06560715231531E-18,-0.0822524231438906));
#913=CARTESIAN_POINT('',(0.0142282879951791,0.00589354985695347,-0.0822524231438906));
#914=CARTESIAN_POINT('',(0.0108898601733483,0.0108898601733483,-0.0822524231438906));
#915=CARTESIAN_POINT('',(0.00589354985695347,0.0142282879951791,-0.0822524231438906));
#916=CARTESIAN_POINT('',(4.69595065957784E-18,0.0154005879494957,-0.0822524231438906));
#917=CARTESIAN_POINT('',(-0.00589354985695346,0.0142282879951791,-0.0822524231438906));
#918=CARTESIAN_POINT('',(-0.0108898601733483,0.0108898601733483,-0.0822524231438906));
#919=CARTESIAN_POINT('',(-0.0142282879951791,0.00589354985695344,-0.0822524231438906));
#920=CARTESIAN_POINT('',(-0.0154005879494957,1.14925430283463E-17,-0.0822524231438906));
#921=CARTESIAN_POINT('',(-0.0142282879951791,-0.00589354985695347,-0.0822524231438906));
#922=CARTESIAN_POINT('',(-0.0160064803192611,0.00663010123409594,-0.0933652029521789));
#923=CARTESIAN_POINT('',(-0.0173252894517019,1.16009632455949E-17,-0.0933652029521789));
#924=CARTESIAN_POINT('',(-0.0160064803192611,-0.00663010123409597,-0.0933652029521789));
#925=CARTESIAN_POINT('',(-0.0122508296573182,-0.0122508296573182,-0.0933652029521789));
#926=CARTESIAN_POINT('',(-0.00663010123409597,-0.0160064803192611,-0.0933652029521789));
#927=CARTESIAN_POINT('',(-5.50232602536394E-18,-0.0173252894517019,-0.0933652029521789));
#928=CARTESIAN_POINT('',(0.00663010123409596,-0.0160064803192611,-0.0933652029521789));
#929=CARTESIAN_POINT('',(0.0122508296573182,-0.0122508296573182,-0.0933652029521789));
#930=CARTESIAN_POINT('',(0.0160064803192611,-0.00663010123409597,-0.0933652029521789));
#931=CARTESIAN_POINT('',(0.0173252894517019,-2.26197501586301E-18,-0.0933652029521789));
#932=CARTESIAN_POINT('',(0.0160064803192611,0.00663010123409596,-0.0933652029521789));
#933=CARTESIAN_POINT('',(0.0122508296573182,0.0122508296573182,-0.0933652029521789));
#934=CARTESIAN_POINT('',(0.00663010123409598,0.0160064803192611,-0.0933652029521789));
#935=CARTESIAN_POINT('',(3.32036915323686E-18,0.0173252894517019,-0.0933652029521789));
#936=CARTESIAN_POINT('',(-0.00663010123409597,0.0160064803192611,-0.0933652029521789));
#937=CARTESIAN_POINT('',(-0.0122508296573182,0.0122508296573182,-0.0933652029521789));
#938=CARTESIAN_POINT('',(-0.0160064803192611,0.00663010123409594,-0.0933652029521789));
#939=CARTESIAN_POINT('',(-0.0173252894517019,1.16009632455949E-17,-0.0933652029521789));
#940=CARTESIAN_POINT('',(-0.0160064803192611,-0.00663010123409597,-0.0933652029521789));
#941=CARTESIAN_POINT('',(-0.020120642679368,0.00833424308145712,-0.105));
#942=CARTESIAN_POINT('',(-0.0217784267010182,1.62630325872826E-17,-0.105));
#943=CARTESIAN_POINT('',(-0.020120642679368,-0.00833424308145717,-0.105));
#944=CARTESIAN_POINT('',(-0.0153996732038641,-0.0153996732038641,-0.105));
#945=CARTESIAN_POINT('',(-0.00833424308145717,-0.020120642679368,-0.105));
#946=CARTESIAN_POINT('',(-3.93700913883799E-18,-0.0217784267010182,-0.105));
#947=CARTESIAN_POINT('',(0.00833424308145716,-0.020120642679368,-0.105));
#948=CARTESIAN_POINT('',(0.0153996732038641,-0.0153996732038641,-0.105));
#949=CARTESIAN_POINT('',(0.020120642679368,-0.00833424308145716,-0.105));
#950=CARTESIAN_POINT('',(0.0217784267010182,-3.81013948520705E-18,-0.105));
#951=CARTESIAN_POINT('',(0.020120642679368,0.00833424308145716,-0.105));
#952=CARTESIAN_POINT('',(0.0153996732038641,0.0153996732038641,-0.105));
#953=CARTESIAN_POINT('',(0.00833424308145717,0.020120642679368,-0.105));
#954=CARTESIAN_POINT('',(4.97377746627725E-18,0.0217784267010182,-0.105));
#955=CARTESIAN_POINT('',(-0.00833424308145716,0.020120642679368,-0.105));
#956=CARTESIAN_POINT('',(-0.0153996732038641,0.0153996732038641,-0.105));
#957=CARTESIAN_POINT('',(-0.020120642679368,0.00833424308145712,-0.105));
#958=CARTESIAN_POINT('',(-0.0217784267010182,1.62630325872826E-17,-0.105));
#959=CARTESIAN_POINT('',(-0.020120642679368,-0.00833424308145717,-0.105));
#960=MECHANICAL_DESIGN_GEOMETRIC_PRESENTATION_REPRESENTATION('',(#417),#961);
#961=(
GEOMETRIC_REPRESENTATION_CONTEXT(3)
GLOBAL_UNCERTAINTY_ASSIGNED_CONTEXT((#962))
GLOBAL_UNIT_ASSIGNED_CONTEXT((#965,#964,#963))
REPRESENTATION_CONTEXT('Insulator','TOP_LEVEL_ASSEMBLY_PART')
);
#962=UNCERTAINTY_MEASURE_WITH_UNIT(LENGTH_MEASURE(2.E-05),#965,'DISTANCE_ACCURACY_VALUE','Maximum Tolerance applied to model');
#963=(
NAMED_UNIT(*)
SI_UNIT($,.STERADIAN.)
SOLID_ANGLE_UNIT()
);
#964=(
NAMED_UNIT(*)
PLANE_ANGLE_UNIT()
SI_UNIT($,.RADIAN.)
);
#965=(
LENGTH_UNIT()
NAMED_UNIT(*)
SI_UNIT($,.METRE.)
);
#966=PRODUCT_DEFINITION_SHAPE('','',#967);
#967=PRODUCT_DEFINITION('','',#969,#968);
#968=PRODUCT_DEFINITION_CONTEXT('',#975,'design');
#969=PRODUCT_DEFINITION_FORMATION_WITH_SPECIFIED_SOURCE('','',#971,.NOT_KNOWN.);
#970=PRODUCT_RELATED_PRODUCT_CATEGORY('','',(#971));
#971=PRODUCT('Insulator','Insulator','Insulator',(#973));
#972=PRODUCT_CATEGORY('','');
#973=PRODUCT_CONTEXT('',#975,'mechanical');
#974=APPLICATION_PROTOCOL_DEFINITION('international standard','ap242_managed_model_based_3d_engineering',2020,#975);
#975=APPLICATION_CONTEXT('managed model based 3d engineering');
ENDSEC;
END-ISO-10303-21;
