ISO-10303-21;
HEADER;
/*Generated by software containing ST-Developer
 * from STEP Tools, Inc. (www.steptools.com) 
 */
/*OPTION: using custom renumber hook */
/*description */
/*implementation_level */
FILE_DESCRIPTION(('STEP AP242 Edition 2','STEP AP242 Edition 2''CAx-IF Rec.Pracs.---Representation and Presentation of Product Manufa
cturing Information (PMI)---4.0---2014-10-13','STEP AP242 Edition 2''CAx-IF Rec.Pracs.---Representation and Presentation of Product Manufa
cturing Information (PMI)---4.0---2014-10-13''CAx-IF Rec.Pracs.---3D Tessellated Geometry---0.4---2014-09-14','STEP AP242 Edition 2''CAx-IF Rec.Pracs.---Representation and Presentation of Product Manufa
cturing Information (PMI)---4.0---2014-10-13''CAx-IF Rec.Pracs.---3D Tessellated Geometry---0.4---2014-09-14''2;1','STEP AP242 Edition 2''CAx-IF Rec.Pracs.---Representation and Presentation of Product Manufa
cturing Information (PMI)---4.0---2014-10-13''CAx-IF Rec.Pracs.---3D Tessellated Geometry---0.4---2014-09-14''2;1''CAx-IF Rec.Pracs.---User Defined Attributes---1.5---2016-08-15'),'2;1');
/*name */
/*time_stamp */
/*author */
/*organization */
/*preprocessor_version */
/*originating_system */
/*authorisation */
FILE_NAME('/vol/tmp/translate-7934096341541272155/Part Studio 1 - Accessory Base Ring.step','2026-02-25T18:18:30',(''),(''),'ST-DEVELOPER v20','ONSHAPE BY PTC INC, 1.211','  ');
FILE_SCHEMA(('AP242_MANAGED_MODEL_BASED_3D_ENGINEERING_MIM_LF { 1 0 10303 442 3 1 4 }'));
ENDSEC;
DATA;
#10=SHAPE_REPRESENTATION_RELATIONSHIP('','',#776,#11);
#11=ADVANCED_BREP_SHAPE_REPRESENTATION('',(#774),#1474);
#12=B_SPLINE_SURFACE_WITH_KNOTS('',3,1,((#1298,#1299),(#1300,#1301),(#1302,
#1303),(#1304,#1305)),.SURF_OF_LINEAR_EXTRUSION.,.F.,.F.,.F.,(4,4),(2,2),(0.438560315059606,0.734031127308518),(0.,1.),.PIECEWISE_BEZIER_KNOTS.);
#13=B_SPLINE_SURFACE_WITH_KNOTS('',3,1,((#1312,#1313),(#1314,#1315),(#1316,
#1317),(#1318,#1319)),.SURF_OF_LINEAR_EXTRUSION.,.F.,.F.,.F.,(4,4),(2,2),(0.,0.438560315059606),(0.,1.),.PIECEWISE_BEZIER_KNOTS.);
#14=B_SPLINE_SURFACE_WITH_KNOTS('',3,1,((#1343,#1344),(#1345,#1346),(#1347,
#1348),(#1349,#1350)),.SURF_OF_LINEAR_EXTRUSION.,.F.,.F.,.F.,(4,4),(2,2),(0.,0.438560315059606),(0.,1.),.PIECEWISE_BEZIER_KNOTS.);
#15=B_SPLINE_SURFACE_WITH_KNOTS('',3,1,((#1357,#1358),(#1359,#1360),(#1361,
#1362),(#1363,#1364)),.SURF_OF_LINEAR_EXTRUSION.,.F.,.F.,.F.,(4,4),(2,2),(0.438560315059606,0.734031127308518),(0.,1.),.PIECEWISE_BEZIER_KNOTS.);
#16=B_SPLINE_SURFACE_WITH_KNOTS('',1,3,((#1374,#1375,#1376,#1377,#1378,
#1379,#1380,#1381,#1382,#1383),(#1384,#1385,#1386,#1387,#1388,#1389,#1390,
#1391,#1392,#1393)),.RULED_SURF.,.F.,.F.,.F.,(2,2),(4,2,2,2,4),(0.,1.),(0.000238030028335486,0.00142069498758288,0.00284138997516576,0.00426208496274863,0.00568277995033151),.UNSPECIFIED.);
#17=B_SPLINE_SURFACE_WITH_KNOTS('',1,3,((#1398,#1399,#1400,#1401,#1402,
#1403,#1404,#1405),(#1406,#1407,#1408,#1409,#1410,#1411,#1412,#1413)),.RULED_SURF.,.F.,.F.,.F.,(2,2),(4,2,2,4),(0.,1.),(0.,0.00212711592007996,0.00319067388011994,0.00407604044385308),.UNSPECIFIED.);
#18=B_SPLINE_SURFACE_WITH_KNOTS('',1,3,((#1423,#1424,#1425,#1426,#1427,
#1428,#1429,#1430),(#1431,#1432,#1433,#1434,#1435,#1436,#1437,#1438)),.RULED_SURF.,.F.,.F.,.F.,(2,2),(4,2,2,4),(0.,1.),(0.,0.00212711592007996,0.00319067388011994,0.00407603175193632),.UNSPECIFIED.);
#19=B_SPLINE_SURFACE_WITH_KNOTS('',1,3,((#1443,#1444,#1445,#1446,#1447,
#1448,#1449,#1450,#1451,#1452),(#1453,#1454,#1455,#1456,#1457,#1458,#1459,
#1460,#1461,#1462)),.RULED_SURF.,.F.,.F.,.F.,(2,2),(4,2,2,2,4),(0.,1.),(0.000238029906603774,0.00142069498758288,0.00284138997516576,0.00426208496274863,0.00568277995033151),.UNSPECIFIED.);
#20=CONICAL_SURFACE('',#803,0.0187,0.78539816339745);
#21=CONICAL_SURFACE('',#807,0.0187,0.785398163397449);
#22=CONICAL_SURFACE('',#813,0.0187,0.78539816339745);
#23=CONICAL_SURFACE('',#814,0.0187,0.785398163397449);
#24=CONICAL_SURFACE('',#817,0.0187,0.78539816339745);
#25=CONICAL_SURFACE('',#821,0.0187,0.785398163397448);
#26=CONICAL_SURFACE('',#827,0.0187,0.785398163397449);
#27=CONICAL_SURFACE('',#828,0.0187,0.785398163397448);
#28=CONICAL_SURFACE('',#840,0.021,0.785398163397449);
#29=B_SPLINE_CURVE_WITH_KNOTS('',3,(#1106,#1107,#1108,#1109,#1110,#1111,#1112,#1113,#1114,#1115,#1116,#1117,#1118,#1119,#1120,#1121,#1122),.UNSPECIFIED.,.F.,.F.,(4,1,1,1,1,1,1,1,1,1,1,1,1,1,4),(0.,0.125,0.1875,0.25,0.3125,0.375,0.4375,0.46875,0.5,0.53125,0.5625,0.625,0.75,0.875,1.),.UNSPECIFIED.);
#30=B_SPLINE_CURVE_WITH_KNOTS('',3,(#1131,#1132,#1133,#1134,#1135,#1136,#1137,#1138,#1139,#1140,#1141,#1142,#1143,#1144,#1145,#1146,#1147),.UNSPECIFIED.,.F.,.F.,(4,1,1,1,1,1,1,1,1,1,1,1,1,1,4),(0.,0.125,0.25,0.375,0.4375,0.46875,0.5,0.53125,0.5625,0.625,0.6875,0.75,0.8125,0.875,1.),.UNSPECIFIED.);
#31=B_SPLINE_CURVE_WITH_KNOTS('',3,(#1149,#1150,#1151,#1152,#1153,#1154,#1155,#1156,#1157,#1158,#1159,#1160,#1161,#1162),.UNSPECIFIED.,.F.,.F.,(4,1,1,1,1,1,1,1,1,1,1,4),(0.,0.25,0.375,0.5,0.625,0.6875,0.71875,0.75,0.78125,0.8125,0.875,1.),.UNSPECIFIED.);
#32=B_SPLINE_CURVE_WITH_KNOTS('',3,(#1166,#1167,#1168,#1169,#1170,#1171,#1172,#1173,#1174,#1175,#1176,#1177,#1178,#1179),.UNSPECIFIED.,.F.,.F.,(4,1,1,1,1,1,1,1,1,1,1,4),(0.,0.125,0.1875,0.21875,0.25,0.28125,0.3125,0.375,0.5,0.625,0.75,1.),.UNSPECIFIED.);
#33=B_SPLINE_CURVE_WITH_KNOTS('',3,(#1186,#1187,#1188,#1189),.UNSPECIFIED.,.F.,.F.,(4,4),(0.438560315059606,0.734031127308518),.PIECEWISE_BEZIER_KNOTS.);
#34=B_SPLINE_CURVE_WITH_KNOTS('',3,(#1191,#1192,#1193,#1194),.UNSPECIFIED.,.F.,.F.,(4,4),(0.,0.438560315059606),.PIECEWISE_BEZIER_KNOTS.);
#35=B_SPLINE_CURVE_WITH_KNOTS('',3,(#1202,#1203,#1204,#1205),.UNSPECIFIED.,.F.,.F.,(4,4),(0.,0.438560315059606),.PIECEWISE_BEZIER_KNOTS.);
#36=B_SPLINE_CURVE_WITH_KNOTS('',3,(#1207,#1208,#1209,#1210),.UNSPECIFIED.,.F.,.F.,(4,4),(0.438560315059606,0.734031127308518),.PIECEWISE_BEZIER_KNOTS.);
#37=B_SPLINE_CURVE_WITH_KNOTS('',3,(#1281,#1282,#1283,#1284,#1285,#1286,#1287,#1288,#1289,#1290,#1291),.UNSPECIFIED.,.T.,.F.,(1,1,1,1,1,1,1,1,1,1,1,1,1,1,1),(-0.00491647504088309,-0.00327765002725539,-0.0016388250136277,8.67361737988404E-19,0.0016388250136277,0.00327765002725539,0.00491647504088309,0.00655530005451078,0.00819412506813848,0.00983295008176618,0.0114717750953939,0.0131106001090216,0.0147494251226493,0.016388250136277,0.0180270751499047),.UNSPECIFIED.);
#38=B_SPLINE_CURVE_WITH_KNOTS('',3,(#1306,#1307,#1308,#1309),.UNSPECIFIED.,.F.,.F.,(4,4),(0.,1.),.UNSPECIFIED.);
#39=B_SPLINE_CURVE_WITH_KNOTS('',3,(#1320,#1321,#1322,#1323),.UNSPECIFIED.,.F.,.F.,(4,4),(0.,1.),.UNSPECIFIED.);
#40=B_SPLINE_CURVE_WITH_KNOTS('',3,(#1327,#1328,#1329,#1330),.UNSPECIFIED.,.F.,.F.,(4,4),(0.,0.00291241148144442),.UNSPECIFIED.);
#41=B_SPLINE_CURVE_WITH_KNOTS('',3,(#1337,#1338,#1339,#1340),.UNSPECIFIED.,.F.,.F.,(4,4),(0.,0.00291491180383787),.UNSPECIFIED.);
#42=B_SPLINE_CURVE_WITH_KNOTS('',3,(#1351,#1352,#1353,#1354),.UNSPECIFIED.,.F.,.F.,(4,4),(0.,1.),.UNSPECIFIED.);
#43=B_SPLINE_CURVE_WITH_KNOTS('',3,(#1365,#1366,#1367,#1368),.UNSPECIFIED.,.F.,.F.,(4,4),(0.,1.),.UNSPECIFIED.);
#44=B_SPLINE_CURVE_WITH_KNOTS('',3,(#1394,#1395,#1396,#1397),.UNSPECIFIED.,.F.,.F.,(4,4),(0.,1.),.UNSPECIFIED.);
#45=B_SPLINE_CURVE_WITH_KNOTS('',3,(#1414,#1415,#1416,#1417),.UNSPECIFIED.,.F.,.F.,(4,4),(0.,1.),.UNSPECIFIED.);
#46=B_SPLINE_CURVE_WITH_KNOTS('',3,(#1419,#1420,#1421,#1422),.UNSPECIFIED.,.F.,.F.,(4,4),(0.,1.),.UNSPECIFIED.);
#47=B_SPLINE_CURVE_WITH_KNOTS('',3,(#1439,#1440,#1441,#1442),.UNSPECIFIED.,.F.,.F.,(4,4),(0.,1.),.UNSPECIFIED.);
#48=PLANE('',#795);
#49=PLANE('',#800);
#50=PLANE('',#808);
#51=PLANE('',#809);
#52=PLANE('',#815);
#53=PLANE('',#816);
#54=PLANE('',#822);
#55=PLANE('',#823);
#56=PLANE('',#829);
#57=PLANE('',#830);
#58=PLANE('',#834);
#59=PLANE('',#837);
#60=PLANE('',#839);
#61=PLANE('',#841);
#62=PLANE('',#842);
#63=PLANE('',#843);
#64=PLANE('',#847);
#65=CIRCLE('',#779,0.0202);
#66=CIRCLE('',#780,0.0202);
#67=CIRCLE('',#781,0.0202);
#68=CIRCLE('',#782,0.0202);
#69=CIRCLE('',#783,0.0202);
#70=CIRCLE('',#784,0.0202);
#71=CIRCLE('',#785,0.0202);
#72=CIRCLE('',#786,0.0202);
#73=CIRCLE('',#787,0.0202);
#74=CIRCLE('',#788,0.0202);
#75=CIRCLE('',#789,0.0202);
#76=CIRCLE('',#791,0.023);
#77=CIRCLE('',#792,0.023);
#78=CIRCLE('',#793,0.023);
#79=CIRCLE('',#794,0.023);
#80=CIRCLE('',#796,0.008);
#81=CIRCLE('',#797,0.008);
#82=CIRCLE('',#798,0.021);
#83=CIRCLE('',#799,0.00515);
#84=CIRCLE('',#801,0.008);
#85=CIRCLE('',#802,0.008);
#86=CIRCLE('',#804,0.0187);
#87=CIRCLE('',#806,0.0187);
#88=CIRCLE('',#811,0.0187);
#89=CIRCLE('',#812,0.0187);
#90=CIRCLE('',#818,0.0187);
#91=CIRCLE('',#820,0.0187);
#92=CIRCLE('',#825,0.0187);
#93=CIRCLE('',#826,0.0187);
#94=CIRCLE('',#832,0.00515);
#95=CIRCLE('',#835,0.002075);
#96=CIRCLE('',#838,0.002075);
#97=CIRCLE('',#846,0.002075);
#98=ORIENTED_EDGE('',*,*,#310,.F.);
#99=ORIENTED_EDGE('',*,*,#311,.T.);
#100=ORIENTED_EDGE('',*,*,#312,.T.);
#101=ORIENTED_EDGE('',*,*,#313,.F.);
#102=ORIENTED_EDGE('',*,*,#314,.F.);
#103=ORIENTED_EDGE('',*,*,#315,.T.);
#104=ORIENTED_EDGE('',*,*,#316,.T.);
#105=ORIENTED_EDGE('',*,*,#317,.F.);
#106=ORIENTED_EDGE('',*,*,#318,.T.);
#107=ORIENTED_EDGE('',*,*,#319,.F.);
#108=ORIENTED_EDGE('',*,*,#320,.T.);
#109=ORIENTED_EDGE('',*,*,#321,.T.);
#110=ORIENTED_EDGE('',*,*,#322,.F.);
#111=ORIENTED_EDGE('',*,*,#323,.F.);
#112=ORIENTED_EDGE('',*,*,#324,.T.);
#113=ORIENTED_EDGE('',*,*,#325,.T.);
#114=ORIENTED_EDGE('',*,*,#326,.F.);
#115=ORIENTED_EDGE('',*,*,#327,.F.);
#116=ORIENTED_EDGE('',*,*,#328,.T.);
#117=ORIENTED_EDGE('',*,*,#329,.F.);
#118=ORIENTED_EDGE('',*,*,#330,.F.);
#119=ORIENTED_EDGE('',*,*,#331,.T.);
#120=ORIENTED_EDGE('',*,*,#332,.T.);
#121=ORIENTED_EDGE('',*,*,#333,.T.);
#122=ORIENTED_EDGE('',*,*,#334,.F.);
#123=ORIENTED_EDGE('',*,*,#335,.T.);
#124=ORIENTED_EDGE('',*,*,#336,.T.);
#125=ORIENTED_EDGE('',*,*,#337,.T.);
#126=ORIENTED_EDGE('',*,*,#338,.F.);
#127=ORIENTED_EDGE('',*,*,#339,.T.);
#128=ORIENTED_EDGE('',*,*,#340,.F.);
#129=ORIENTED_EDGE('',*,*,#341,.F.);
#130=ORIENTED_EDGE('',*,*,#342,.F.);
#131=ORIENTED_EDGE('',*,*,#343,.T.);
#132=ORIENTED_EDGE('',*,*,#344,.T.);
#133=ORIENTED_EDGE('',*,*,#345,.T.);
#134=ORIENTED_EDGE('',*,*,#346,.T.);
#135=ORIENTED_EDGE('',*,*,#318,.F.);
#136=ORIENTED_EDGE('',*,*,#347,.T.);
#137=ORIENTED_EDGE('',*,*,#348,.F.);
#138=ORIENTED_EDGE('',*,*,#329,.T.);
#139=ORIENTED_EDGE('',*,*,#349,.T.);
#140=ORIENTED_EDGE('',*,*,#337,.F.);
#141=ORIENTED_EDGE('',*,*,#350,.F.);
#142=ORIENTED_EDGE('',*,*,#351,.F.);
#143=ORIENTED_EDGE('',*,*,#352,.T.);
#144=ORIENTED_EDGE('',*,*,#353,.T.);
#145=ORIENTED_EDGE('',*,*,#354,.T.);
#146=ORIENTED_EDGE('',*,*,#355,.T.);
#147=ORIENTED_EDGE('',*,*,#356,.T.);
#148=ORIENTED_EDGE('',*,*,#333,.F.);
#149=ORIENTED_EDGE('',*,*,#357,.F.);
#150=ORIENTED_EDGE('',*,*,#358,.F.);
#151=ORIENTED_EDGE('',*,*,#359,.T.);
#152=ORIENTED_EDGE('',*,*,#317,.T.);
#153=ORIENTED_EDGE('',*,*,#360,.F.);
#154=ORIENTED_EDGE('',*,*,#361,.F.);
#155=ORIENTED_EDGE('',*,*,#362,.F.);
#156=ORIENTED_EDGE('',*,*,#358,.T.);
#157=ORIENTED_EDGE('',*,*,#363,.T.);
#158=ORIENTED_EDGE('',*,*,#364,.F.);
#159=ORIENTED_EDGE('',*,*,#361,.T.);
#160=ORIENTED_EDGE('',*,*,#365,.T.);
#161=ORIENTED_EDGE('',*,*,#315,.F.);
#162=ORIENTED_EDGE('',*,*,#314,.T.);
#163=ORIENTED_EDGE('',*,*,#359,.F.);
#164=ORIENTED_EDGE('',*,*,#362,.T.);
#165=ORIENTED_EDGE('',*,*,#364,.T.);
#166=ORIENTED_EDGE('',*,*,#316,.F.);
#167=ORIENTED_EDGE('',*,*,#365,.F.);
#168=ORIENTED_EDGE('',*,*,#363,.F.);
#169=ORIENTED_EDGE('',*,*,#360,.T.);
#170=ORIENTED_EDGE('',*,*,#366,.T.);
#171=ORIENTED_EDGE('',*,*,#367,.T.);
#172=ORIENTED_EDGE('',*,*,#368,.F.);
#173=ORIENTED_EDGE('',*,*,#369,.F.);
#174=ORIENTED_EDGE('',*,*,#313,.T.);
#175=ORIENTED_EDGE('',*,*,#370,.F.);
#176=ORIENTED_EDGE('',*,*,#366,.F.);
#177=ORIENTED_EDGE('',*,*,#371,.T.);
#178=ORIENTED_EDGE('',*,*,#372,.F.);
#179=ORIENTED_EDGE('',*,*,#368,.T.);
#180=ORIENTED_EDGE('',*,*,#373,.T.);
#181=ORIENTED_EDGE('',*,*,#311,.F.);
#182=ORIENTED_EDGE('',*,*,#369,.T.);
#183=ORIENTED_EDGE('',*,*,#372,.T.);
#184=ORIENTED_EDGE('',*,*,#310,.T.);
#185=ORIENTED_EDGE('',*,*,#371,.F.);
#186=ORIENTED_EDGE('',*,*,#367,.F.);
#187=ORIENTED_EDGE('',*,*,#370,.T.);
#188=ORIENTED_EDGE('',*,*,#312,.F.);
#189=ORIENTED_EDGE('',*,*,#373,.F.);
#190=ORIENTED_EDGE('',*,*,#374,.T.);
#191=ORIENTED_EDGE('',*,*,#375,.T.);
#192=ORIENTED_EDGE('',*,*,#321,.F.);
#193=ORIENTED_EDGE('',*,*,#376,.F.);
#194=ORIENTED_EDGE('',*,*,#377,.T.);
#195=ORIENTED_EDGE('',*,*,#378,.F.);
#196=ORIENTED_EDGE('',*,*,#374,.F.);
#197=ORIENTED_EDGE('',*,*,#379,.T.);
#198=ORIENTED_EDGE('',*,*,#380,.T.);
#199=ORIENTED_EDGE('',*,*,#319,.T.);
#200=ORIENTED_EDGE('',*,*,#381,.F.);
#201=ORIENTED_EDGE('',*,*,#377,.F.);
#202=ORIENTED_EDGE('',*,*,#320,.F.);
#203=ORIENTED_EDGE('',*,*,#380,.F.);
#204=ORIENTED_EDGE('',*,*,#379,.F.);
#205=ORIENTED_EDGE('',*,*,#376,.T.);
#206=ORIENTED_EDGE('',*,*,#322,.T.);
#207=ORIENTED_EDGE('',*,*,#375,.F.);
#208=ORIENTED_EDGE('',*,*,#378,.T.);
#209=ORIENTED_EDGE('',*,*,#381,.T.);
#210=ORIENTED_EDGE('',*,*,#382,.F.);
#211=ORIENTED_EDGE('',*,*,#383,.T.);
#212=ORIENTED_EDGE('',*,*,#384,.T.);
#213=ORIENTED_EDGE('',*,*,#385,.F.);
#214=ORIENTED_EDGE('',*,*,#325,.F.);
#215=ORIENTED_EDGE('',*,*,#386,.F.);
#216=ORIENTED_EDGE('',*,*,#382,.T.);
#217=ORIENTED_EDGE('',*,*,#387,.T.);
#218=ORIENTED_EDGE('',*,*,#388,.T.);
#219=ORIENTED_EDGE('',*,*,#323,.T.);
#220=ORIENTED_EDGE('',*,*,#389,.F.);
#221=ORIENTED_EDGE('',*,*,#384,.F.);
#222=ORIENTED_EDGE('',*,*,#383,.F.);
#223=ORIENTED_EDGE('',*,*,#386,.T.);
#224=ORIENTED_EDGE('',*,*,#324,.F.);
#225=ORIENTED_EDGE('',*,*,#388,.F.);
#226=ORIENTED_EDGE('',*,*,#385,.T.);
#227=ORIENTED_EDGE('',*,*,#389,.T.);
#228=ORIENTED_EDGE('',*,*,#326,.T.);
#229=ORIENTED_EDGE('',*,*,#387,.F.);
#230=ORIENTED_EDGE('',*,*,#390,.T.);
#231=ORIENTED_EDGE('',*,*,#391,.T.);
#232=ORIENTED_EDGE('',*,*,#392,.T.);
#233=ORIENTED_EDGE('',*,*,#393,.F.);
#234=ORIENTED_EDGE('',*,*,#347,.F.);
#235=ORIENTED_EDGE('',*,*,#336,.F.);
#236=ORIENTED_EDGE('',*,*,#394,.T.);
#237=ORIENTED_EDGE('',*,*,#395,.T.);
#238=ORIENTED_EDGE('',*,*,#350,.T.);
#239=ORIENTED_EDGE('',*,*,#395,.F.);
#240=ORIENTED_EDGE('',*,*,#396,.T.);
#241=ORIENTED_EDGE('',*,*,#397,.T.);
#242=ORIENTED_EDGE('',*,*,#351,.T.);
#243=ORIENTED_EDGE('',*,*,#352,.F.);
#244=ORIENTED_EDGE('',*,*,#397,.F.);
#245=ORIENTED_EDGE('',*,*,#398,.T.);
#246=ORIENTED_EDGE('',*,*,#342,.T.);
#247=ORIENTED_EDGE('',*,*,#399,.T.);
#248=ORIENTED_EDGE('',*,*,#400,.F.);
#249=ORIENTED_EDGE('',*,*,#353,.F.);
#250=ORIENTED_EDGE('',*,*,#399,.F.);
#251=ORIENTED_EDGE('',*,*,#341,.T.);
#252=ORIENTED_EDGE('',*,*,#401,.T.);
#253=ORIENTED_EDGE('',*,*,#354,.F.);
#254=ORIENTED_EDGE('',*,*,#401,.F.);
#255=ORIENTED_EDGE('',*,*,#340,.T.);
#256=ORIENTED_EDGE('',*,*,#402,.T.);
#257=ORIENTED_EDGE('',*,*,#403,.T.);
#258=ORIENTED_EDGE('',*,*,#403,.F.);
#259=ORIENTED_EDGE('',*,*,#404,.T.);
#260=ORIENTED_EDGE('',*,*,#405,.T.);
#261=ORIENTED_EDGE('',*,*,#355,.F.);
#262=ORIENTED_EDGE('',*,*,#405,.F.);
#263=ORIENTED_EDGE('',*,*,#406,.T.);
#264=ORIENTED_EDGE('',*,*,#334,.T.);
#265=ORIENTED_EDGE('',*,*,#356,.F.);
#266=ORIENTED_EDGE('',*,*,#407,.F.);
#267=ORIENTED_EDGE('',*,*,#408,.F.);
#268=ORIENTED_EDGE('',*,*,#391,.F.);
#269=ORIENTED_EDGE('',*,*,#348,.T.);
#270=ORIENTED_EDGE('',*,*,#393,.T.);
#271=ORIENTED_EDGE('',*,*,#408,.T.);
#272=ORIENTED_EDGE('',*,*,#392,.F.);
#273=ORIENTED_EDGE('',*,*,#398,.F.);
#274=ORIENTED_EDGE('',*,*,#396,.F.);
#275=ORIENTED_EDGE('',*,*,#409,.F.);
#276=ORIENTED_EDGE('',*,*,#343,.F.);
#277=ORIENTED_EDGE('',*,*,#409,.T.);
#278=ORIENTED_EDGE('',*,*,#394,.F.);
#279=ORIENTED_EDGE('',*,*,#410,.F.);
#280=ORIENTED_EDGE('',*,*,#344,.F.);
#281=ORIENTED_EDGE('',*,*,#410,.T.);
#282=ORIENTED_EDGE('',*,*,#335,.F.);
#283=ORIENTED_EDGE('',*,*,#411,.F.);
#284=ORIENTED_EDGE('',*,*,#345,.F.);
#285=ORIENTED_EDGE('',*,*,#411,.T.);
#286=ORIENTED_EDGE('',*,*,#406,.F.);
#287=ORIENTED_EDGE('',*,*,#412,.F.);
#288=ORIENTED_EDGE('',*,*,#346,.F.);
#289=ORIENTED_EDGE('',*,*,#402,.F.);
#290=ORIENTED_EDGE('',*,*,#339,.F.);
#291=ORIENTED_EDGE('',*,*,#412,.T.);
#292=ORIENTED_EDGE('',*,*,#404,.F.);
#293=ORIENTED_EDGE('',*,*,#413,.T.);
#294=ORIENTED_EDGE('',*,*,#338,.T.);
#295=ORIENTED_EDGE('',*,*,#349,.F.);
#296=ORIENTED_EDGE('',*,*,#328,.F.);
#297=ORIENTED_EDGE('',*,*,#330,.T.);
#298=ORIENTED_EDGE('',*,*,#357,.T.);
#299=ORIENTED_EDGE('',*,*,#332,.F.);
#300=ORIENTED_EDGE('',*,*,#414,.F.);
#301=ORIENTED_EDGE('',*,*,#327,.T.);
#302=ORIENTED_EDGE('',*,*,#414,.T.);
#303=ORIENTED_EDGE('',*,*,#331,.F.);
#304=ORIENTED_EDGE('',*,*,#413,.F.);
#305=ORIENTED_EDGE('',*,*,#407,.T.);
#306=ORIENTED_EDGE('',*,*,#400,.T.);
#307=ORIENTED_EDGE('',*,*,#415,.F.);
#308=ORIENTED_EDGE('',*,*,#390,.F.);
#309=ORIENTED_EDGE('',*,*,#415,.T.);
#310=EDGE_CURVE('',#416,#417,#487,.T.);
#311=EDGE_CURVE('',#416,#418,#65,.T.);
#312=EDGE_CURVE('',#418,#419,#488,.T.);
#313=EDGE_CURVE('',#417,#419,#66,.T.);
#314=EDGE_CURVE('',#420,#421,#489,.T.);
#315=EDGE_CURVE('',#420,#422,#67,.T.);
#316=EDGE_CURVE('',#422,#423,#490,.T.);
#317=EDGE_CURVE('',#421,#423,#68,.T.);
#318=EDGE_CURVE('',#424,#424,#69,.T.);
#319=EDGE_CURVE('',#425,#426,#70,.T.);
#320=EDGE_CURVE('',#425,#427,#491,.T.);
#321=EDGE_CURVE('',#427,#428,#71,.T.);
#322=EDGE_CURVE('',#426,#428,#492,.T.);
#323=EDGE_CURVE('',#429,#430,#72,.T.);
#324=EDGE_CURVE('',#429,#431,#493,.T.);
#325=EDGE_CURVE('',#431,#432,#73,.T.);
#326=EDGE_CURVE('',#430,#432,#494,.T.);
#327=EDGE_CURVE('',#433,#434,#74,.T.);
#328=EDGE_CURVE('',#433,#435,#495,.T.);
#329=EDGE_CURVE('',#436,#435,#75,.T.);
#330=EDGE_CURVE('',#434,#436,#496,.T.);
#331=EDGE_CURVE('',#437,#438,#76,.T.);
#332=EDGE_CURVE('',#438,#439,#497,.T.);
#333=EDGE_CURVE('',#439,#440,#77,.T.);
#334=EDGE_CURVE('',#441,#440,#498,.T.);
#335=EDGE_CURVE('',#441,#442,#78,.F.);
#336=EDGE_CURVE('',#442,#443,#499,.T.);
#337=EDGE_CURVE('',#443,#444,#79,.T.);
#338=EDGE_CURVE('',#437,#444,#500,.T.);
#339=EDGE_CURVE('',#445,#446,#29,.T.);
#340=EDGE_CURVE('',#447,#446,#80,.T.);
#341=EDGE_CURVE('',#448,#447,#501,.T.);
#342=EDGE_CURVE('',#449,#448,#81,.T.);
#343=EDGE_CURVE('',#449,#450,#30,.T.);
#344=EDGE_CURVE('',#450,#451,#31,.T.);
#345=EDGE_CURVE('',#451,#452,#82,.T.);
#346=EDGE_CURVE('',#452,#445,#32,.T.);
#347=EDGE_CURVE('',#453,#454,#83,.T.);
#348=EDGE_CURVE('',#453,#454,#502,.T.);
#349=EDGE_CURVE('',#435,#444,#503,.T.);
#350=EDGE_CURVE('',#455,#443,#33,.T.);
#351=EDGE_CURVE('',#456,#455,#34,.T.);
#352=EDGE_CURVE('',#456,#457,#84,.T.);
#353=EDGE_CURVE('',#457,#458,#504,.T.);
#354=EDGE_CURVE('',#458,#459,#85,.T.);
#355=EDGE_CURVE('',#459,#460,#35,.T.);
#356=EDGE_CURVE('',#460,#440,#36,.T.);
#357=EDGE_CURVE('',#436,#439,#505,.T.);
#358=EDGE_CURVE('',#461,#462,#86,.T.);
#359=EDGE_CURVE('',#461,#421,#506,.T.);
#360=EDGE_CURVE('',#462,#423,#507,.T.);
#361=EDGE_CURVE('',#463,#464,#87,.T.);
#362=EDGE_CURVE('',#461,#463,#508,.T.);
#363=EDGE_CURVE('',#462,#464,#509,.T.);
#364=EDGE_CURVE('',#463,#420,#510,.T.);
#365=EDGE_CURVE('',#464,#422,#511,.T.);
#366=EDGE_CURVE('',#465,#466,#88,.T.);
#367=EDGE_CURVE('',#466,#467,#512,.T.);
#368=EDGE_CURVE('',#468,#467,#89,.T.);
#369=EDGE_CURVE('',#465,#468,#513,.T.);
#370=EDGE_CURVE('',#466,#419,#514,.T.);
#371=EDGE_CURVE('',#465,#417,#515,.T.);
#372=EDGE_CURVE('',#468,#416,#516,.T.);
#373=EDGE_CURVE('',#467,#418,#517,.T.);
#374=EDGE_CURVE('',#469,#470,#90,.T.);
#375=EDGE_CURVE('',#470,#428,#518,.T.);
#376=EDGE_CURVE('',#469,#427,#519,.T.);
#377=EDGE_CURVE('',#471,#472,#91,.T.);
#378=EDGE_CURVE('',#470,#472,#520,.T.);
#379=EDGE_CURVE('',#469,#471,#521,.T.);
#380=EDGE_CURVE('',#471,#425,#522,.T.);
#381=EDGE_CURVE('',#472,#426,#523,.T.);
#382=EDGE_CURVE('',#473,#474,#92,.T.);
#383=EDGE_CURVE('',#473,#475,#524,.T.);
#384=EDGE_CURVE('',#475,#476,#93,.T.);
#385=EDGE_CURVE('',#474,#476,#525,.T.);
#386=EDGE_CURVE('',#473,#431,#526,.T.);
#387=EDGE_CURVE('',#474,#432,#527,.T.);
#388=EDGE_CURVE('',#475,#429,#528,.T.);
#389=EDGE_CURVE('',#476,#430,#529,.T.);
#390=EDGE_CURVE('',#477,#477,#37,.T.);
#391=EDGE_CURVE('',#453,#478,#530,.T.);
#392=EDGE_CURVE('',#478,#479,#94,.T.);
#393=EDGE_CURVE('',#454,#479,#531,.T.);
#394=EDGE_CURVE('',#442,#480,#38,.T.);
#395=EDGE_CURVE('',#480,#455,#532,.T.);
#396=EDGE_CURVE('',#480,#481,#39,.T.);
#397=EDGE_CURVE('',#481,#456,#533,.T.);
#398=EDGE_CURVE('',#481,#449,#40,.T.);
#399=EDGE_CURVE('',#448,#457,#534,.T.);
#400=EDGE_CURVE('',#482,#482,#95,.T.);
#401=EDGE_CURVE('',#447,#458,#535,.T.);
#402=EDGE_CURVE('',#446,#483,#41,.T.);
#403=EDGE_CURVE('',#483,#459,#536,.T.);
#404=EDGE_CURVE('',#483,#484,#42,.T.);
#405=EDGE_CURVE('',#484,#460,#537,.T.);
#406=EDGE_CURVE('',#484,#441,#43,.T.);
#407=EDGE_CURVE('',#485,#485,#96,.T.);
#408=EDGE_CURVE('',#478,#479,#538,.T.);
#409=EDGE_CURVE('',#450,#480,#44,.F.);
#410=EDGE_CURVE('',#451,#442,#45,.T.);
#411=EDGE_CURVE('',#452,#441,#46,.F.);
#412=EDGE_CURVE('',#445,#484,#47,.F.);
#413=EDGE_CURVE('',#433,#437,#539,.T.);
#414=EDGE_CURVE('',#434,#438,#540,.T.);
#415=EDGE_CURVE('',#486,#486,#97,.T.);
#416=VERTEX_POINT('',#1047);
#417=VERTEX_POINT('',#1048);
#418=VERTEX_POINT('',#1050);
#419=VERTEX_POINT('',#1052);
#420=VERTEX_POINT('',#1055);
#421=VERTEX_POINT('',#1056);
#422=VERTEX_POINT('',#1058);
#423=VERTEX_POINT('',#1060);
#424=VERTEX_POINT('',#1063);
#425=VERTEX_POINT('',#1065);
#426=VERTEX_POINT('',#1066);
#427=VERTEX_POINT('',#1068);
#428=VERTEX_POINT('',#1070);
#429=VERTEX_POINT('',#1073);
#430=VERTEX_POINT('',#1074);
#431=VERTEX_POINT('',#1076);
#432=VERTEX_POINT('',#1078);
#433=VERTEX_POINT('',#1081);
#434=VERTEX_POINT('',#1082);
#435=VERTEX_POINT('',#1084);
#436=VERTEX_POINT('',#1086);
#437=VERTEX_POINT('',#1090);
#438=VERTEX_POINT('',#1091);
#439=VERTEX_POINT('',#1093);
#440=VERTEX_POINT('',#1095);
#441=VERTEX_POINT('',#1097);
#442=VERTEX_POINT('',#1099);
#443=VERTEX_POINT('',#1101);
#444=VERTEX_POINT('',#1103);
#445=VERTEX_POINT('',#1123);
#446=VERTEX_POINT('',#1124);
#447=VERTEX_POINT('',#1126);
#448=VERTEX_POINT('',#1128);
#449=VERTEX_POINT('',#1130);
#450=VERTEX_POINT('',#1148);
#451=VERTEX_POINT('',#1163);
#452=VERTEX_POINT('',#1165);
#453=VERTEX_POINT('',#1181);
#454=VERTEX_POINT('',#1182);
#455=VERTEX_POINT('',#1190);
#456=VERTEX_POINT('',#1195);
#457=VERTEX_POINT('',#1197);
#458=VERTEX_POINT('',#1199);
#459=VERTEX_POINT('',#1201);
#460=VERTEX_POINT('',#1206);
#461=VERTEX_POINT('',#1214);
#462=VERTEX_POINT('',#1215);
#463=VERTEX_POINT('',#1220);
#464=VERTEX_POINT('',#1221);
#465=VERTEX_POINT('',#1231);
#466=VERTEX_POINT('',#1232);
#467=VERTEX_POINT('',#1234);
#468=VERTEX_POINT('',#1236);
#469=VERTEX_POINT('',#1248);
#470=VERTEX_POINT('',#1249);
#471=VERTEX_POINT('',#1254);
#472=VERTEX_POINT('',#1255);
#473=VERTEX_POINT('',#1265);
#474=VERTEX_POINT('',#1266);
#475=VERTEX_POINT('',#1268);
#476=VERTEX_POINT('',#1270);
#477=VERTEX_POINT('',#1292);
#478=VERTEX_POINT('',#1294);
#479=VERTEX_POINT('',#1296);
#480=VERTEX_POINT('',#1310);
#481=VERTEX_POINT('',#1324);
#482=VERTEX_POINT('',#1334);
#483=VERTEX_POINT('',#1341);
#484=VERTEX_POINT('',#1355);
#485=VERTEX_POINT('',#1371);
#486=VERTEX_POINT('',#1471);
#487=LINE('',#1046,#541);
#488=LINE('',#1051,#542);
#489=LINE('',#1054,#543);
#490=LINE('',#1059,#544);
#491=LINE('',#1067,#545);
#492=LINE('',#1071,#546);
#493=LINE('',#1075,#547);
#494=LINE('',#1079,#548);
#495=LINE('',#1083,#549);
#496=LINE('',#1087,#550);
#497=LINE('',#1092,#551);
#498=LINE('',#1096,#552);
#499=LINE('',#1100,#553);
#500=LINE('',#1104,#554);
#501=LINE('',#1127,#555);
#502=LINE('',#1183,#556);
#503=LINE('',#1185,#557);
#504=LINE('',#1198,#558);
#505=LINE('',#1211,#559);
#506=LINE('',#1216,#560);
#507=LINE('',#1217,#561);
#508=LINE('',#1222,#562);
#509=LINE('',#1223,#563);
#510=LINE('',#1225,#564);
#511=LINE('',#1226,#565);
#512=LINE('',#1233,#566);
#513=LINE('',#1237,#567);
#514=LINE('',#1239,#568);
#515=LINE('',#1240,#569);
#516=LINE('',#1242,#570);
#517=LINE('',#1243,#571);
#518=LINE('',#1250,#572);
#519=LINE('',#1251,#573);
#520=LINE('',#1256,#574);
#521=LINE('',#1257,#575);
#522=LINE('',#1259,#576);
#523=LINE('',#1260,#577);
#524=LINE('',#1267,#578);
#525=LINE('',#1271,#579);
#526=LINE('',#1273,#580);
#527=LINE('',#1274,#581);
#528=LINE('',#1276,#582);
#529=LINE('',#1277,#583);
#530=LINE('',#1293,#584);
#531=LINE('',#1297,#585);
#532=LINE('',#1311,#586);
#533=LINE('',#1325,#587);
#534=LINE('',#1331,#588);
#535=LINE('',#1335,#589);
#536=LINE('',#1342,#590);
#537=LINE('',#1356,#591);
#538=LINE('',#1372,#592);
#539=LINE('',#1464,#593);
#540=LINE('',#1466,#594);
#541=VECTOR('',#852,1.);
#542=VECTOR('',#855,1.);
#543=VECTOR('',#858,1.);
#544=VECTOR('',#861,1.);
#545=VECTOR('',#868,1.);
#546=VECTOR('',#871,1.);
#547=VECTOR('',#874,1.);
#548=VECTOR('',#877,1.);
#549=VECTOR('',#880,1.);
#550=VECTOR('',#883,1.);
#551=VECTOR('',#888,1.);
#552=VECTOR('',#891,1.);
#553=VECTOR('',#894,1.);
#554=VECTOR('',#897,1.);
#555=VECTOR('',#902,1.);
#556=VECTOR('',#909,1.);
#557=VECTOR('',#912,1.);
#558=VECTOR('',#915,1.);
#559=VECTOR('',#918,1.);
#560=VECTOR('',#923,1.);
#561=VECTOR('',#924,1.);
#562=VECTOR('',#929,1.);
#563=VECTOR('',#930,1.);
#564=VECTOR('',#933,1.);
#565=VECTOR('',#934,1.);
#566=VECTOR('',#943,1.);
#567=VECTOR('',#946,1.);
#568=VECTOR('',#949,1.);
#569=VECTOR('',#950,1.);
#570=VECTOR('',#953,1.);
#571=VECTOR('',#954,1.);
#572=VECTOR('',#963,1.);
#573=VECTOR('',#964,1.);
#574=VECTOR('',#969,1.);
#575=VECTOR('',#970,1.);
#576=VECTOR('',#973,1.);
#577=VECTOR('',#974,1.);
#578=VECTOR('',#983,1.);
#579=VECTOR('',#986,1.);
#580=VECTOR('',#989,1.);
#581=VECTOR('',#990,1.);
#582=VECTOR('',#993,1.);
#583=VECTOR('',#994,1.);
#584=VECTOR('',#1001,1.);
#585=VECTOR('',#1004,1.);
#586=VECTOR('',#1005,1.);
#587=VECTOR('',#1006,1.);
#588=VECTOR('',#1009,1.);
#589=VECTOR('',#1014,1.);
#590=VECTOR('',#1017,1.);
#591=VECTOR('',#1018,1.);
#592=VECTOR('',#1023,1.);
#593=VECTOR('',#1030,1.);
#594=VECTOR('',#1033,1.);
#595=EDGE_LOOP('',(#98,#99,#100,#101));
#596=EDGE_LOOP('',(#102,#103,#104,#105));
#597=EDGE_LOOP('',(#106));
#598=EDGE_LOOP('',(#107,#108,#109,#110));
#599=EDGE_LOOP('',(#111,#112,#113,#114));
#600=EDGE_LOOP('',(#115,#116,#117,#118));
#601=EDGE_LOOP('',(#119,#120,#121,#122,#123,#124,#125,#126));
#602=EDGE_LOOP('',(#127,#128,#129,#130,#131,#132,#133,#134));
#603=EDGE_LOOP('',(#135));
#604=EDGE_LOOP('',(#136,#137));
#605=EDGE_LOOP('',(#138,#139,#140,#141,#142,#143,#144,#145,#146,#147,#148,#149));
#606=EDGE_LOOP('',(#150,#151,#152,#153));
#607=EDGE_LOOP('',(#154,#155,#156,#157));
#608=EDGE_LOOP('',(#158,#159,#160,#161));
#609=EDGE_LOOP('',(#162,#163,#164,#165));
#610=EDGE_LOOP('',(#166,#167,#168,#169));
#611=EDGE_LOOP('',(#170,#171,#172,#173));
#612=EDGE_LOOP('',(#174,#175,#176,#177));
#613=EDGE_LOOP('',(#178,#179,#180,#181));
#614=EDGE_LOOP('',(#182,#183,#184,#185));
#615=EDGE_LOOP('',(#186,#187,#188,#189));
#616=EDGE_LOOP('',(#190,#191,#192,#193));
#617=EDGE_LOOP('',(#194,#195,#196,#197));
#618=EDGE_LOOP('',(#198,#199,#200,#201));
#619=EDGE_LOOP('',(#202,#203,#204,#205));
#620=EDGE_LOOP('',(#206,#207,#208,#209));
#621=EDGE_LOOP('',(#210,#211,#212,#213));
#622=EDGE_LOOP('',(#214,#215,#216,#217));
#623=EDGE_LOOP('',(#218,#219,#220,#221));
#624=EDGE_LOOP('',(#222,#223,#224,#225));
#625=EDGE_LOOP('',(#226,#227,#228,#229));
#626=EDGE_LOOP('',(#230));
#627=EDGE_LOOP('',(#231,#232,#233,#234));
#628=EDGE_LOOP('',(#235,#236,#237,#238));
#629=EDGE_LOOP('',(#239,#240,#241,#242));
#630=EDGE_LOOP('',(#243,#244,#245,#246,#247));
#631=EDGE_LOOP('',(#248));
#632=EDGE_LOOP('',(#249,#250,#251,#252));
#633=EDGE_LOOP('',(#253,#254,#255,#256,#257));
#634=EDGE_LOOP('',(#258,#259,#260,#261));
#635=EDGE_LOOP('',(#262,#263,#264,#265));
#636=EDGE_LOOP('',(#266));
#637=EDGE_LOOP('',(#267,#268,#269,#270));
#638=EDGE_LOOP('',(#271,#272));
#639=EDGE_LOOP('',(#273,#274,#275,#276));
#640=EDGE_LOOP('',(#277,#278,#279,#280));
#641=EDGE_LOOP('',(#281,#282,#283,#284));
#642=EDGE_LOOP('',(#285,#286,#287,#288));
#643=EDGE_LOOP('',(#289,#290,#291,#292));
#644=EDGE_LOOP('',(#293,#294,#295,#296));
#645=EDGE_LOOP('',(#297,#298,#299,#300));
#646=EDGE_LOOP('',(#301,#302,#303,#304));
#647=EDGE_LOOP('',(#305));
#648=EDGE_LOOP('',(#306));
#649=EDGE_LOOP('',(#307));
#650=EDGE_LOOP('',(#308));
#651=EDGE_LOOP('',(#309));
#652=FACE_BOUND('',#595,.T.);
#653=FACE_BOUND('',#596,.T.);
#654=FACE_BOUND('',#597,.T.);
#655=FACE_BOUND('',#598,.T.);
#656=FACE_BOUND('',#599,.T.);
#657=FACE_BOUND('',#600,.T.);
#658=FACE_BOUND('',#601,.T.);
#659=FACE_BOUND('',#602,.T.);
#660=FACE_BOUND('',#603,.T.);
#661=FACE_BOUND('',#604,.T.);
#662=FACE_BOUND('',#605,.T.);
#663=FACE_BOUND('',#606,.T.);
#664=FACE_BOUND('',#607,.T.);
#665=FACE_BOUND('',#608,.T.);
#666=FACE_BOUND('',#609,.T.);
#667=FACE_BOUND('',#610,.T.);
#668=FACE_BOUND('',#611,.T.);
#669=FACE_BOUND('',#612,.T.);
#670=FACE_BOUND('',#613,.T.);
#671=FACE_BOUND('',#614,.T.);
#672=FACE_BOUND('',#615,.T.);
#673=FACE_BOUND('',#616,.T.);
#674=FACE_BOUND('',#617,.T.);
#675=FACE_BOUND('',#618,.T.);
#676=FACE_BOUND('',#619,.T.);
#677=FACE_BOUND('',#620,.T.);
#678=FACE_BOUND('',#621,.T.);
#679=FACE_BOUND('',#622,.T.);
#680=FACE_BOUND('',#623,.T.);
#681=FACE_BOUND('',#624,.T.);
#682=FACE_BOUND('',#625,.T.);
#683=FACE_BOUND('',#626,.T.);
#684=FACE_BOUND('',#627,.T.);
#685=FACE_BOUND('',#628,.T.);
#686=FACE_BOUND('',#629,.T.);
#687=FACE_BOUND('',#630,.T.);
#688=FACE_BOUND('',#631,.T.);
#689=FACE_BOUND('',#632,.T.);
#690=FACE_BOUND('',#633,.T.);
#691=FACE_BOUND('',#634,.T.);
#692=FACE_BOUND('',#635,.T.);
#693=FACE_BOUND('',#636,.T.);
#694=FACE_BOUND('',#637,.T.);
#695=FACE_BOUND('',#638,.T.);
#696=FACE_BOUND('',#639,.T.);
#697=FACE_BOUND('',#640,.T.);
#698=FACE_BOUND('',#641,.T.);
#699=FACE_BOUND('',#642,.T.);
#700=FACE_BOUND('',#643,.T.);
#701=FACE_BOUND('',#644,.T.);
#702=FACE_BOUND('',#645,.T.);
#703=FACE_BOUND('',#646,.T.);
#704=FACE_BOUND('',#647,.T.);
#705=FACE_BOUND('',#648,.T.);
#706=FACE_BOUND('',#649,.T.);
#707=FACE_BOUND('',#650,.T.);
#708=FACE_BOUND('',#651,.T.);
#709=CYLINDRICAL_SURFACE('',#778,0.0202);
#710=CYLINDRICAL_SURFACE('',#790,0.023);
#711=CYLINDRICAL_SURFACE('',#805,0.0187);
#712=CYLINDRICAL_SURFACE('',#810,0.0187);
#713=CYLINDRICAL_SURFACE('',#819,0.0187);
#714=CYLINDRICAL_SURFACE('',#824,0.0187);
#715=CYLINDRICAL_SURFACE('',#831,0.00515);
#716=CYLINDRICAL_SURFACE('',#833,0.008);
#717=CYLINDRICAL_SURFACE('',#836,0.008);
#718=CYLINDRICAL_SURFACE('',#844,0.002075);
#719=CYLINDRICAL_SURFACE('',#845,0.002075);
#720=ADVANCED_FACE('',(#652,#653,#654,#655,#656,#657),#709,.F.);
#721=ADVANCED_FACE('',(#658),#710,.T.);
#722=ADVANCED_FACE('',(#659,#660,#661),#48,.T.);
#723=ADVANCED_FACE('',(#662),#49,.F.);
#724=ADVANCED_FACE('',(#663),#20,.F.);
#725=ADVANCED_FACE('',(#664),#711,.F.);
#726=ADVANCED_FACE('',(#665),#21,.F.);
#727=ADVANCED_FACE('',(#666),#50,.T.);
#728=ADVANCED_FACE('',(#667),#51,.F.);
#729=ADVANCED_FACE('',(#668),#712,.F.);
#730=ADVANCED_FACE('',(#669),#22,.F.);
#731=ADVANCED_FACE('',(#670),#23,.F.);
#732=ADVANCED_FACE('',(#671),#52,.F.);
#733=ADVANCED_FACE('',(#672),#53,.T.);
#734=ADVANCED_FACE('',(#673),#24,.F.);
#735=ADVANCED_FACE('',(#674),#713,.F.);
#736=ADVANCED_FACE('',(#675),#25,.F.);
#737=ADVANCED_FACE('',(#676),#54,.F.);
#738=ADVANCED_FACE('',(#677),#55,.T.);
#739=ADVANCED_FACE('',(#678),#714,.F.);
#740=ADVANCED_FACE('',(#679),#26,.F.);
#741=ADVANCED_FACE('',(#680),#27,.F.);
#742=ADVANCED_FACE('',(#681),#56,.T.);
#743=ADVANCED_FACE('',(#682),#57,.F.);
#744=ADVANCED_FACE('',(#683,#684),#715,.F.);
#745=ADVANCED_FACE('',(#685),#12,.F.);
#746=ADVANCED_FACE('',(#686),#13,.F.);
#747=ADVANCED_FACE('',(#687),#716,.T.);
#748=ADVANCED_FACE('',(#688,#689),#58,.T.);
#749=ADVANCED_FACE('',(#690),#717,.T.);
#750=ADVANCED_FACE('',(#691),#14,.T.);
#751=ADVANCED_FACE('',(#692),#15,.T.);
#752=ADVANCED_FACE('',(#693,#694),#59,.T.);
#753=ADVANCED_FACE('',(#695),#60,.F.);
#754=ADVANCED_FACE('',(#696),#16,.T.);
#755=ADVANCED_FACE('',(#697),#17,.T.);
#756=ADVANCED_FACE('',(#698),#28,.T.);
#757=ADVANCED_FACE('',(#699),#18,.T.);
#758=ADVANCED_FACE('',(#700),#19,.T.);
#759=ADVANCED_FACE('',(#701),#61,.T.);
#760=ADVANCED_FACE('',(#702),#62,.F.);
#761=ADVANCED_FACE('',(#703),#63,.F.);
#762=ADVANCED_FACE('',(#704,#705),#718,.F.);
#763=ADVANCED_FACE('',(#706,#707),#719,.F.);
#764=ADVANCED_FACE('',(#708),#64,.T.);
#765=CLOSED_SHELL('',(#720,#721,#722,#723,#724,#725,#726,#727,#728,#729,#730,#731,#732,#733,#734,#735,#736,#737,#738,#739,#740,#741,#742,#743,#744,#745,#746,#747,#748,#749,#750,#751,#752,#753,#754,#755,#756,#757,#758,#759,#760,#761,#762,#763,#764));
#766=STYLED_ITEM('',(#767),#774);
#767=PRESENTATION_STYLE_ASSIGNMENT((#768));
#768=SURFACE_STYLE_USAGE(.BOTH.,#769);
#769=SURFACE_SIDE_STYLE('',(#770));
#770=SURFACE_STYLE_FILL_AREA(#771);
#771=FILL_AREA_STYLE('',(#772));
#772=FILL_AREA_STYLE_COLOUR('',#773);
#773=COLOUR_RGB('',1.,0.756862745098039,0.0549019607843137);
#774=MANIFOLD_SOLID_BREP('Accessory Base Ring',#765);
#775=SHAPE_DEFINITION_REPRESENTATION(#1479,#776);
#776=SHAPE_REPRESENTATION('Accessory Base Ring',(#777),#1474);
#777=AXIS2_PLACEMENT_3D('',#1044,#848,#849);
#778=AXIS2_PLACEMENT_3D('',#1045,#850,#851);
#779=AXIS2_PLACEMENT_3D('',#1049,#853,#854);
#780=AXIS2_PLACEMENT_3D('',#1053,#856,#857);
#781=AXIS2_PLACEMENT_3D('',#1057,#859,#860);
#782=AXIS2_PLACEMENT_3D('',#1061,#862,#863);
#783=AXIS2_PLACEMENT_3D('',#1062,#864,#865);
#784=AXIS2_PLACEMENT_3D('',#1064,#866,#867);
#785=AXIS2_PLACEMENT_3D('',#1069,#869,#870);
#786=AXIS2_PLACEMENT_3D('',#1072,#872,#873);
#787=AXIS2_PLACEMENT_3D('',#1077,#875,#876);
#788=AXIS2_PLACEMENT_3D('',#1080,#878,#879);
#789=AXIS2_PLACEMENT_3D('',#1085,#881,#882);
#790=AXIS2_PLACEMENT_3D('',#1088,#884,#885);
#791=AXIS2_PLACEMENT_3D('',#1089,#886,#887);
#792=AXIS2_PLACEMENT_3D('',#1094,#889,#890);
#793=AXIS2_PLACEMENT_3D('',#1098,#892,#893);
#794=AXIS2_PLACEMENT_3D('',#1102,#895,#896);
#795=AXIS2_PLACEMENT_3D('',#1105,#898,#899);
#796=AXIS2_PLACEMENT_3D('',#1125,#900,#901);
#797=AXIS2_PLACEMENT_3D('',#1129,#903,#904);
#798=AXIS2_PLACEMENT_3D('',#1164,#905,#906);
#799=AXIS2_PLACEMENT_3D('',#1180,#907,#908);
#800=AXIS2_PLACEMENT_3D('',#1184,#910,#911);
#801=AXIS2_PLACEMENT_3D('',#1196,#913,#914);
#802=AXIS2_PLACEMENT_3D('',#1200,#916,#917);
#803=AXIS2_PLACEMENT_3D('',#1212,#919,#920);
#804=AXIS2_PLACEMENT_3D('',#1213,#921,#922);
#805=AXIS2_PLACEMENT_3D('',#1218,#925,#926);
#806=AXIS2_PLACEMENT_3D('',#1219,#927,#928);
#807=AXIS2_PLACEMENT_3D('',#1224,#931,#932);
#808=AXIS2_PLACEMENT_3D('',#1227,#935,#936);
#809=AXIS2_PLACEMENT_3D('',#1228,#937,#938);
#810=AXIS2_PLACEMENT_3D('',#1229,#939,#940);
#811=AXIS2_PLACEMENT_3D('',#1230,#941,#942);
#812=AXIS2_PLACEMENT_3D('',#1235,#944,#945);
#813=AXIS2_PLACEMENT_3D('',#1238,#947,#948);
#814=AXIS2_PLACEMENT_3D('',#1241,#951,#952);
#815=AXIS2_PLACEMENT_3D('',#1244,#955,#956);
#816=AXIS2_PLACEMENT_3D('',#1245,#957,#958);
#817=AXIS2_PLACEMENT_3D('',#1246,#959,#960);
#818=AXIS2_PLACEMENT_3D('',#1247,#961,#962);
#819=AXIS2_PLACEMENT_3D('',#1252,#965,#966);
#820=AXIS2_PLACEMENT_3D('',#1253,#967,#968);
#821=AXIS2_PLACEMENT_3D('',#1258,#971,#972);
#822=AXIS2_PLACEMENT_3D('',#1261,#975,#976);
#823=AXIS2_PLACEMENT_3D('',#1262,#977,#978);
#824=AXIS2_PLACEMENT_3D('',#1263,#979,#980);
#825=AXIS2_PLACEMENT_3D('',#1264,#981,#982);
#826=AXIS2_PLACEMENT_3D('',#1269,#984,#985);
#827=AXIS2_PLACEMENT_3D('',#1272,#987,#988);
#828=AXIS2_PLACEMENT_3D('',#1275,#991,#992);
#829=AXIS2_PLACEMENT_3D('',#1278,#995,#996);
#830=AXIS2_PLACEMENT_3D('',#1279,#997,#998);
#831=AXIS2_PLACEMENT_3D('',#1280,#999,#1000);
#832=AXIS2_PLACEMENT_3D('',#1295,#1002,#1003);
#833=AXIS2_PLACEMENT_3D('',#1326,#1007,#1008);
#834=AXIS2_PLACEMENT_3D('',#1332,#1010,#1011);
#835=AXIS2_PLACEMENT_3D('',#1333,#1012,#1013);
#836=AXIS2_PLACEMENT_3D('',#1336,#1015,#1016);
#837=AXIS2_PLACEMENT_3D('',#1369,#1019,#1020);
#838=AXIS2_PLACEMENT_3D('',#1370,#1021,#1022);
#839=AXIS2_PLACEMENT_3D('',#1373,#1024,#1025);
#840=AXIS2_PLACEMENT_3D('',#1418,#1026,#1027);
#841=AXIS2_PLACEMENT_3D('',#1463,#1028,#1029);
#842=AXIS2_PLACEMENT_3D('',#1465,#1031,#1032);
#843=AXIS2_PLACEMENT_3D('',#1467,#1034,#1035);
#844=AXIS2_PLACEMENT_3D('',#1468,#1036,#1037);
#845=AXIS2_PLACEMENT_3D('',#1469,#1038,#1039);
#846=AXIS2_PLACEMENT_3D('',#1470,#1040,#1041);
#847=AXIS2_PLACEMENT_3D('',#1472,#1042,#1043);
#848=DIRECTION('',(0.,0.,1.));
#849=DIRECTION('',(1.,0.,0.));
#850=DIRECTION('',(0.,0.,-1.));
#851=DIRECTION('',(-1.,0.,0.));
#852=DIRECTION('',(0.,0.,1.));
#853=DIRECTION('',(0.,0.,1.));
#854=DIRECTION('',(1.,0.,0.));
#855=DIRECTION('',(0.,0.,1.));
#856=DIRECTION('',(0.,0.,1.));
#857=DIRECTION('',(1.,0.,0.));
#858=DIRECTION('',(0.,0.,1.));
#859=DIRECTION('',(0.,0.,1.));
#860=DIRECTION('',(1.,0.,0.));
#861=DIRECTION('',(0.,0.,1.));
#862=DIRECTION('',(0.,0.,1.));
#863=DIRECTION('',(1.,0.,0.));
#864=DIRECTION('',(0.,0.,1.));
#865=DIRECTION('',(1.,0.,0.));
#866=DIRECTION('',(0.,0.,-1.));
#867=DIRECTION('',(-1.,0.,0.));
#868=DIRECTION('',(0.,0.,1.));
#869=DIRECTION('',(0.,0.,-1.));
#870=DIRECTION('',(-1.,0.,0.));
#871=DIRECTION('',(0.,0.,1.));
#872=DIRECTION('',(0.,0.,-1.));
#873=DIRECTION('',(-1.,0.,0.));
#874=DIRECTION('',(0.,0.,1.));
#875=DIRECTION('',(0.,0.,-1.));
#876=DIRECTION('',(-1.,0.,0.));
#877=DIRECTION('',(0.,0.,1.));
#878=DIRECTION('',(0.,0.,1.));
#879=DIRECTION('',(1.,0.,0.));
#880=DIRECTION('',(0.,0.,-1.));
#881=DIRECTION('',(0.,0.,1.));
#882=DIRECTION('',(1.,0.,0.));
#883=DIRECTION('',(0.,0.,-1.));
#884=DIRECTION('',(0.,0.,-1.));
#885=DIRECTION('',(-1.,0.,0.));
#886=DIRECTION('',(0.,0.,1.));
#887=DIRECTION('',(1.,0.,0.));
#888=DIRECTION('',(0.,0.,-1.));
#889=DIRECTION('',(0.,0.,1.));
#890=DIRECTION('',(1.,0.,0.));
#891=DIRECTION('',(0.,0.,-1.));
#892=DIRECTION('',(0.,0.,1.));
#893=DIRECTION('',(1.,0.,0.));
#894=DIRECTION('',(0.,0.,-1.));
#895=DIRECTION('',(0.,0.,1.));
#896=DIRECTION('',(1.,0.,0.));
#897=DIRECTION('',(0.,0.,-1.));
#898=DIRECTION('',(0.,0.,1.));
#899=DIRECTION('',(1.,0.,0.));
#900=DIRECTION('',(0.,0.,-1.));
#901=DIRECTION('',(-1.,0.,0.));
#902=DIRECTION('',(-1.,2.16840434497101E-16,0.));
#903=DIRECTION('',(0.,0.,-1.));
#904=DIRECTION('',(-1.,0.,0.));
#905=DIRECTION('',(0.,0.,1.));
#906=DIRECTION('',(1.,0.,0.));
#907=DIRECTION('',(0.,0.,-1.));
#908=DIRECTION('',(-1.,0.,0.));
#909=DIRECTION('',(1.,0.,0.));
#910=DIRECTION('',(0.,0.,1.));
#911=DIRECTION('',(1.,0.,0.));
#912=DIRECTION('',(-0.224951054343866,-0.974370064785235,0.));
#913=DIRECTION('',(0.,0.,-1.));
#914=DIRECTION('',(-1.,0.,0.));
#915=DIRECTION('',(-1.,2.16840434497101E-16,0.));
#916=DIRECTION('',(0.,0.,-1.));
#917=DIRECTION('',(-1.,0.,0.));
#918=DIRECTION('',(0.,-1.,0.));
#919=DIRECTION('',(0.,0.,1.));
#920=DIRECTION('',(1.,0.,0.));
#921=DIRECTION('',(0.,0.,1.));
#922=DIRECTION('',(1.,0.,0.));
#923=DIRECTION('',(-0.593029645775783,-0.385117954958023,0.707106781186548));
#924=DIRECTION('',(-0.5,-0.5,0.707106781186548));
#925=DIRECTION('',(0.,0.,1.));
#926=DIRECTION('',(1.,0.,0.));
#927=DIRECTION('',(0.,0.,1.));
#928=DIRECTION('',(1.,0.,0.));
#929=DIRECTION('',(0.,0.,-1.));
#930=DIRECTION('',(0.,0.,-1.));
#931=DIRECTION('',(0.,0.,-1.));
#932=DIRECTION('',(-1.,0.,0.));
#933=DIRECTION('',(-0.593029645775782,-0.385117954958023,-0.707106781186548));
#934=DIRECTION('',(-0.5,-0.5,-0.707106781186548));
#935=DIRECTION('',(-0.544639035015027,0.838670567945424,0.));
#936=DIRECTION('',(-0.838670567945424,-0.544639035015027,0.));
#937=DIRECTION('',(-0.707106781186547,0.707106781186548,0.));
#938=DIRECTION('',(-0.707106781186548,-0.707106781186547,0.));
#939=DIRECTION('',(0.,0.,1.));
#940=DIRECTION('',(1.,0.,0.));
#941=DIRECTION('',(0.,0.,1.));
#942=DIRECTION('',(1.,0.,0.));
#943=DIRECTION('',(0.,0.,-1.));
#944=DIRECTION('',(0.,0.,1.));
#945=DIRECTION('',(1.,0.,0.));
#946=DIRECTION('',(0.,0.,-1.));
#947=DIRECTION('',(0.,0.,1.));
#948=DIRECTION('',(1.,0.,0.));
#949=DIRECTION('',(0.5,0.5,0.707106781186548));
#950=DIRECTION('',(0.593029645775783,0.385117954958023,0.707106781186548));
#951=DIRECTION('',(0.,0.,-1.));
#952=DIRECTION('',(-1.,0.,0.));
#953=DIRECTION('',(0.593029645775783,0.385117954958023,-0.707106781186548));
#954=DIRECTION('',(0.5,0.5,-0.707106781186548));
#955=DIRECTION('',(-0.544639035015027,0.838670567945424,0.));
#956=DIRECTION('',(-0.838670567945424,-0.544639035015027,0.));
#957=DIRECTION('',(-0.707106781186547,0.707106781186548,0.));
#958=DIRECTION('',(-0.707106781186548,-0.707106781186547,0.));
#959=DIRECTION('',(0.,0.,1.));
#960=DIRECTION('',(1.,0.,0.));
#961=DIRECTION('',(0.,0.,-1.));
#962=DIRECTION('',(-1.,0.,0.));
#963=DIRECTION('',(0.385117954958023,-0.593029645775783,0.707106781186548));
#964=DIRECTION('',(0.5,-0.5,0.707106781186548));
#965=DIRECTION('',(0.,0.,-1.));
#966=DIRECTION('',(-1.,0.,0.));
#967=DIRECTION('',(0.,0.,-1.));
#968=DIRECTION('',(-1.,0.,0.));
#969=DIRECTION('',(0.,0.,-1.));
#970=DIRECTION('',(0.,0.,-1.));
#971=DIRECTION('',(0.,0.,-1.));
#972=DIRECTION('',(-1.,0.,0.));
#973=DIRECTION('',(0.5,-0.5,-0.707106781186548));
#974=DIRECTION('',(0.385117954958023,-0.593029645775782,-0.707106781186548));
#975=DIRECTION('',(-0.707106781186548,-0.707106781186547,0.));
#976=DIRECTION('',(0.707106781186547,-0.707106781186548,0.));
#977=DIRECTION('',(-0.838670567945424,-0.544639035015027,0.));
#978=DIRECTION('',(0.544639035015027,-0.838670567945424,0.));
#979=DIRECTION('',(0.,0.,-1.));
#980=DIRECTION('',(-1.,0.,0.));
#981=DIRECTION('',(0.,0.,-1.));
#982=DIRECTION('',(-1.,0.,0.));
#983=DIRECTION('',(0.,0.,-1.));
#984=DIRECTION('',(0.,0.,-1.));
#985=DIRECTION('',(-1.,0.,0.));
#986=DIRECTION('',(0.,0.,-1.));
#987=DIRECTION('',(0.,0.,1.));
#988=DIRECTION('',(1.,0.,0.));
#989=DIRECTION('',(-0.5,0.5,0.707106781186548));
#990=DIRECTION('',(-0.385117954958023,0.593029645775783,0.707106781186548));
#991=DIRECTION('',(0.,0.,-1.));
#992=DIRECTION('',(-1.,0.,0.));
#993=DIRECTION('',(-0.5,0.5,-0.707106781186548));
#994=DIRECTION('',(-0.385117954958023,0.593029645775783,-0.707106781186548));
#995=DIRECTION('',(-0.707106781186548,-0.707106781186547,0.));
#996=DIRECTION('',(0.707106781186547,-0.707106781186548,0.));
#997=DIRECTION('',(-0.838670567945424,-0.544639035015027,0.));
#998=DIRECTION('',(0.544639035015027,-0.838670567945424,0.));
#999=DIRECTION('',(0.,0.,-1.));
#1000=DIRECTION('',(-1.,0.,0.));
#1001=DIRECTION('',(0.,0.,-1.));
#1002=DIRECTION('',(0.,0.,-1.));
#1003=DIRECTION('',(-1.,0.,0.));
#1004=DIRECTION('',(0.,0.,-1.));
#1005=DIRECTION('',(0.,0.,-1.));
#1006=DIRECTION('',(0.,0.,-1.));
#1007=DIRECTION('',(0.,0.,-1.));
#1008=DIRECTION('',(-1.,0.,0.));
#1009=DIRECTION('',(0.,0.,-1.));
#1010=DIRECTION('',(-2.16840434497101E-16,-1.,0.));
#1011=DIRECTION('',(1.,-2.16840434497101E-16,0.));
#1012=DIRECTION('',(-2.16840434497101E-16,-1.,0.));
#1013=DIRECTION('',(1.,-2.16840434497101E-16,0.));
#1014=DIRECTION('',(0.,0.,-1.));
#1015=DIRECTION('',(0.,0.,-1.));
#1016=DIRECTION('',(-1.,0.,0.));
#1017=DIRECTION('',(0.,0.,-1.));
#1018=DIRECTION('',(0.,0.,-1.));
#1019=DIRECTION('',(0.,1.,0.));
#1020=DIRECTION('',(0.,0.,1.));
#1021=DIRECTION('',(0.,1.,0.));
#1022=DIRECTION('',(0.,0.,1.));
#1023=DIRECTION('',(1.,0.,0.));
#1024=DIRECTION('',(0.,0.,-1.));
#1025=DIRECTION('',(1.,0.,0.));
#1026=DIRECTION('',(0.,0.,-1.));
#1027=DIRECTION('',(-1.,0.,0.));
#1028=DIRECTION('',(0.974370064785235,-0.224951054343866,0.));
#1029=DIRECTION('',(0.224951054343866,0.974370064785235,0.));
#1030=DIRECTION('',(-0.224951054343866,-0.974370064785235,0.));
#1031=DIRECTION('',(1.,0.,0.));
#1032=DIRECTION('',(0.,0.,-1.));
#1033=DIRECTION('',(0.,-1.,0.));
#1034=DIRECTION('',(0.,0.,1.));
#1035=DIRECTION('',(1.,0.,0.));
#1036=DIRECTION('',(-2.16840434497101E-16,-1.,0.));
#1037=DIRECTION('',(1.,-2.16840434497101E-16,0.));
#1038=DIRECTION('',(-2.16840434497101E-16,-1.,0.));
#1039=DIRECTION('',(1.,-2.16840434497101E-16,0.));
#1040=DIRECTION('',(-2.16840434497101E-16,-1.,0.));
#1041=DIRECTION('',(1.,-2.16840434497101E-16,0.));
#1042=DIRECTION('',(-2.16840434497101E-16,-1.,0.));
#1043=DIRECTION('',(1.,-2.16840434497101E-16,0.));
#1044=CARTESIAN_POINT('',(0.,0.,0.));
#1045=CARTESIAN_POINT('',(0.,1.23689326713883E-18,0.01));
#1046=CARTESIAN_POINT('',(0.0169411454724975,0.0110017085073035,0.0045));
#1047=CARTESIAN_POINT('',(0.0169411454724975,0.0110017085073035,0.003));
#1048=CARTESIAN_POINT('',(0.0169411454724975,0.0110017085073035,0.009));
#1049=CARTESIAN_POINT('',(0.,0.,0.003));
#1050=CARTESIAN_POINT('',(0.0142835569799683,0.0142835569799683,0.003));
#1051=CARTESIAN_POINT('',(0.0142835569799683,0.0142835569799683,0.0045));
#1052=CARTESIAN_POINT('',(0.0142835569799683,0.0142835569799683,0.009));
#1053=CARTESIAN_POINT('',(0.,0.,0.009));
#1054=CARTESIAN_POINT('',(-0.0169411454724975,-0.0110017085073035,0.0045));
#1055=CARTESIAN_POINT('',(-0.0169411454724975,-0.0110017085073035,0.003));
#1056=CARTESIAN_POINT('',(-0.0169411454724976,-0.0110017085073035,0.009));
#1057=CARTESIAN_POINT('',(0.,0.,0.003));
#1058=CARTESIAN_POINT('',(-0.0142835569799683,-0.0142835569799683,0.003));
#1059=CARTESIAN_POINT('',(-0.0142835569799683,-0.0142835569799683,0.0045));
#1060=CARTESIAN_POINT('',(-0.0142835569799683,-0.0142835569799683,0.009));
#1061=CARTESIAN_POINT('',(0.,0.,0.009));
#1062=CARTESIAN_POINT('',(0.,1.23689326713883E-18,0.01));
#1063=CARTESIAN_POINT('',(0.0202,1.23689326713883E-18,0.01));
#1064=CARTESIAN_POINT('',(0.,0.,0.003));
#1065=CARTESIAN_POINT('',(0.0142835569799683,-0.0142835569799683,0.003));
#1066=CARTESIAN_POINT('',(0.0110017085073035,-0.0169411454724975,0.003));
#1067=CARTESIAN_POINT('',(0.0142835569799683,-0.0142835569799683,0.0045));
#1068=CARTESIAN_POINT('',(0.0142835569799682,-0.0142835569799683,0.009));
#1069=CARTESIAN_POINT('',(0.,0.,0.009));
#1070=CARTESIAN_POINT('',(0.0110017085073035,-0.0169411454724976,0.009));
#1071=CARTESIAN_POINT('',(0.0110017085073035,-0.0169411454724975,0.0045));
#1072=CARTESIAN_POINT('',(0.,0.,0.003));
#1073=CARTESIAN_POINT('',(-0.0142835569799683,0.0142835569799683,0.003));
#1074=CARTESIAN_POINT('',(-0.0110017085073035,0.0169411454724975,0.003));
#1075=CARTESIAN_POINT('',(-0.0142835569799683,0.0142835569799683,0.0045));
#1076=CARTESIAN_POINT('',(-0.0142835569799683,0.0142835569799683,0.009));
#1077=CARTESIAN_POINT('',(0.,0.,0.009));
#1078=CARTESIAN_POINT('',(-0.0110017085073035,0.0169411454724976,0.009));
#1079=CARTESIAN_POINT('',(-0.0110017085073035,0.0169411454724975,0.0045));
#1080=CARTESIAN_POINT('',(0.,1.23689326713883E-18,0.001));
#1081=CARTESIAN_POINT('',(-0.00454401129774607,-0.0196822753086617,0.001));
#1082=CARTESIAN_POINT('',(0.,-0.0202,0.001));
#1083=CARTESIAN_POINT('',(-0.00454401129774607,-0.0196822753086617,0.01));
#1084=CARTESIAN_POINT('',(-0.00454401129774607,-0.0196822753086617,0.));
#1085=CARTESIAN_POINT('',(0.,1.23689326713883E-18,0.));
#1086=CARTESIAN_POINT('',(0.,-0.0202,0.));
#1087=CARTESIAN_POINT('',(0.,-0.0202,0.01));
#1088=CARTESIAN_POINT('',(0.,1.40834381901946E-18,0.01));
#1089=CARTESIAN_POINT('',(1.04083408558608E-17,1.07552855510562E-16,0.001));
#1090=CARTESIAN_POINT('',(-0.00517387424990889,-0.0224105114900604,0.001));
#1091=CARTESIAN_POINT('',(0.,-0.023,0.001));
#1092=CARTESIAN_POINT('',(0.,-0.023,0.001));
#1093=CARTESIAN_POINT('',(0.,-0.023,0.));
#1094=CARTESIAN_POINT('',(0.,1.40834381901946E-18,0.));
#1095=CARTESIAN_POINT('',(0.0220581011832589,-0.00651461220558138,0.));
#1096=CARTESIAN_POINT('',(0.0220581011832589,-0.00651461220558139,0.01));
#1097=CARTESIAN_POINT('',(0.022058134776301,-0.00651454181090878,0.00799998772127566));
#1098=CARTESIAN_POINT('',(0.,1.40834381901946E-18,0.008));
#1099=CARTESIAN_POINT('',(0.022058134776301,0.00651454181090879,0.00799998772127566));
#1100=CARTESIAN_POINT('',(0.0220581011832589,0.00651461220558139,0.01));
#1101=CARTESIAN_POINT('',(0.0220581011832589,0.00651461220558139,0.));
#1102=CARTESIAN_POINT('',(0.,1.40834381901946E-18,0.));
#1103=CARTESIAN_POINT('',(-0.00517387424990889,-0.0224105114900604,0.));
#1104=CARTESIAN_POINT('',(-0.00517387424990889,-0.0224105114900604,0.001));
#1105=CARTESIAN_POINT('',(0.,0.,0.01));
#1106=CARTESIAN_POINT('',(0.0237058364758559,-0.00316443352152013,0.01));
#1107=CARTESIAN_POINT('',(0.0238902135845291,-0.00308344299844576,0.01));
#1108=CARTESIAN_POINT('',(0.0241704518386148,-0.00297452523819524,0.01));
#1109=CARTESIAN_POINT('',(0.0245392615554286,-0.00285717831378834,0.01));
#1110=CARTESIAN_POINT('',(0.024837821140293,-0.00277762508403664,0.01));
#1111=CARTESIAN_POINT('',(0.0250608412561281,-0.00272845447547871,0.01));
#1112=CARTESIAN_POINT('',(0.0253411663129143,-0.00267467105587518,0.01));
#1113=CARTESIAN_POINT('',(0.0256015060515822,-0.00263275080283846,0.01));
#1114=CARTESIAN_POINT('',(0.0258098415750057,-0.00260226802049838,0.01));
#1115=CARTESIAN_POINT('',(0.0260195218019445,-0.00257428505035974,0.01));
#1116=CARTESIAN_POINT('',(0.0260618965562518,-0.00256911152695349,0.01));
#1117=CARTESIAN_POINT('',(0.0261919353953183,-0.0025530048051408,0.01));
#1118=CARTESIAN_POINT('',(0.0264224321889588,-0.0025260401320789,0.01));
#1119=CARTESIAN_POINT('',(0.026856953490331,-0.00247807077865674,0.01));
#1120=CARTESIAN_POINT('',(0.0275163178044444,-0.00240945700913847,0.01));
#1121=CARTESIAN_POINT('',(0.0280533887304724,-0.002355608032827,0.01));
#1122=CARTESIAN_POINT('',(0.0283458365769488,-0.00232671854826519,0.01));
#1123=CARTESIAN_POINT('',(0.0237058364758559,-0.00316443352152013,0.01));
#1124=CARTESIAN_POINT('',(0.0283458339952421,-0.00232671906554525,0.0099999997390251));
#1125=CARTESIAN_POINT('',(0.036,9.54097911787244E-18,0.01));
#1126=CARTESIAN_POINT('',(0.032,-0.00692820323027551,0.01));
#1127=CARTESIAN_POINT('',(0.036,-0.00692820323027551,0.01));
#1128=CARTESIAN_POINT('',(0.04,-0.00692820323027551,0.01));
#1129=CARTESIAN_POINT('',(0.036,8.67361737988404E-19,0.01));
#1130=CARTESIAN_POINT('',(0.0283458365769488,0.00232671854826519,0.01));
#1131=CARTESIAN_POINT('',(0.0283458365769488,0.00232671854826519,0.01));
#1132=CARTESIAN_POINT('',(0.0280536187236456,0.00235558531293248,0.01));
#1133=CARTESIAN_POINT('',(0.0275168943167061,0.00240939999191122,0.01));
#1134=CARTESIAN_POINT('',(0.0268576956154931,0.00247799770021784,0.01));
#1135=CARTESIAN_POINT('',(0.0264230515966581,0.00252597826307363,0.01));
#1136=CARTESIAN_POINT('',(0.0261922657794299,0.00255297311454823,0.01));
#1137=CARTESIAN_POINT('',(0.0260621000970641,0.00256908975975575,0.01));
#1138=CARTESIAN_POINT('',(0.0260193792491082,0.00257430547933955,0.01));
#1139=CARTESIAN_POINT('',(0.0258102082455387,0.00260220807177691,0.01));
#1140=CARTESIAN_POINT('',(0.0256021074488629,0.00263265032651486,0.01));
#1141=CARTESIAN_POINT('',(0.0253419211485348,0.0026745477564128,0.01));
#1142=CARTESIAN_POINT('',(0.0250615182780664,0.00272833567570028,0.01));
#1143=CARTESIAN_POINT('',(0.024837558522444,0.00277769265061991,0.01));
#1144=CARTESIAN_POINT('',(0.024539635004886,0.00285702684723374,0.01));
#1145=CARTESIAN_POINT('',(0.0241708208407809,0.0029743556020643,0.01));
#1146=CARTESIAN_POINT('',(0.0238904508132654,0.00308333879202028,0.01));
#1147=CARTESIAN_POINT('',(0.0237058364758559,0.00316443352152013,0.01));
#1148=CARTESIAN_POINT('',(0.0237058364758559,0.00316443352152013,0.01));
#1149=CARTESIAN_POINT('',(0.0237058364758559,0.00316443352152013,0.01));
#1150=CARTESIAN_POINT('',(0.0234142536426978,0.0032900678032434,0.01));
#1151=CARTESIAN_POINT('',(0.0229716443319073,0.00350705313655583,0.01));
#1152=CARTESIAN_POINT('',(0.0223826050354811,0.00384544759497315,0.01));
#1153=CARTESIAN_POINT('',(0.0219182256420062,0.00413975806069515,0.01));
#1154=CARTESIAN_POINT('',(0.0215895867024894,0.00436553136180332,0.01));
#1155=CARTESIAN_POINT('',(0.0213426957590516,0.00454430170275362,0.01));
#1156=CARTESIAN_POINT('',(0.0212116454934129,0.00464155491760459,0.01));
#1157=CARTESIAN_POINT('',(0.0210874087304686,0.00473567034002372,0.01));
#1158=CARTESIAN_POINT('',(0.021061505935678,0.00475579721300163,0.01));
#1159=CARTESIAN_POINT('',(0.0209686234976584,0.0048277993959259,0.01));
#1160=CARTESIAN_POINT('',(0.0207744910702517,0.00498008183355744,0.01));
#1161=CARTESIAN_POINT('',(0.0205160492466689,0.00518442224614556,0.01));
#1162=CARTESIAN_POINT('',(0.0203070570383694,0.00535025884179402,0.01));
#1163=CARTESIAN_POINT('',(0.0203070400766034,0.0053502374660731,0.01));
#1164=CARTESIAN_POINT('',(0.,1.40834381901946E-18,0.01));
#1165=CARTESIAN_POINT('',(0.0203070570383694,-0.00535025884179401,0.01));
#1166=CARTESIAN_POINT('',(0.0203070570383694,-0.00535025884179401,0.01));
#1167=CARTESIAN_POINT('',(0.0205158228710799,-0.00518460187656016,0.01));
#1168=CARTESIAN_POINT('',(0.0207740813499259,-0.00498040632218616,0.01));
#1169=CARTESIAN_POINT('',(0.0209683444637577,-0.00482802164697419,0.01));
#1170=CARTESIAN_POINT('',(0.0210613186553556,-0.00475594435818572,0.01));
#1171=CARTESIAN_POINT('',(0.0210875225933825,-0.00473558557946266,0.01));
#1172=CARTESIAN_POINT('',(0.0212113773220795,-0.00464174681466477,0.01));
#1173=CARTESIAN_POINT('',(0.0213422711905823,-0.00454460369662629,0.01));
#1174=CARTESIAN_POINT('',(0.0215889175422951,-0.00436600594613252,0.01));
#1175=CARTESIAN_POINT('',(0.0219185145514126,-0.00413957038183335,0.01));
#1176=CARTESIAN_POINT('',(0.0223823101719698,-0.00384559127345297,0.01));
#1177=CARTESIAN_POINT('',(0.0229713948028672,-0.00350715067273024,0.01));
#1178=CARTESIAN_POINT('',(0.023414083063839,-0.00329014130054832,0.01));
#1179=CARTESIAN_POINT('',(0.0237058364758559,-0.00316443352152013,0.01));
#1180=CARTESIAN_POINT('',(0.036,1.7347234759768E-18,0.01));
#1181=CARTESIAN_POINT('',(0.0329504098636046,-0.00415,0.01));
#1182=CARTESIAN_POINT('',(0.0390495901363954,-0.00415,0.01));
#1183=CARTESIAN_POINT('',(0.036,-0.00415,0.01));
#1184=CARTESIAN_POINT('',(0.,0.,0.));
#1185=CARTESIAN_POINT('',(-0.0048364476683931,-0.0209489563928825,0.));
#1186=CARTESIAN_POINT('',(0.0245,0.005,0.));
#1187=CARTESIAN_POINT('',(0.023902760804985,0.00525839738818008,0.));
#1188=CARTESIAN_POINT('',(0.023117690879558,0.00567534389213674,0.));
#1189=CARTESIAN_POINT('',(0.0220581011832589,0.00651461220558139,0.));
#1190=CARTESIAN_POINT('',(0.0245,0.005,0.));
#1191=CARTESIAN_POINT('',(0.0292222791441371,0.00425,0.));
#1192=CARTESIAN_POINT('',(0.0258591305464506,0.00458222953602672,0.));
#1193=CARTESIAN_POINT('',(0.0253864679645956,0.00461646688852851,0.));
#1194=CARTESIAN_POINT('',(0.0245,0.005,0.));
#1195=CARTESIAN_POINT('',(0.0292222791441371,0.00425,0.));
#1196=CARTESIAN_POINT('',(0.036,8.67361737988404E-19,0.));
#1197=CARTESIAN_POINT('',(0.04,-0.00692820323027551,0.));
#1198=CARTESIAN_POINT('',(0.036,-0.00692820323027551,0.));
#1199=CARTESIAN_POINT('',(0.032,-0.00692820323027551,0.));
#1200=CARTESIAN_POINT('',(0.036,9.54097911787244E-18,0.));
#1201=CARTESIAN_POINT('',(0.0292222791441371,-0.00425,0.));
#1202=CARTESIAN_POINT('',(0.0292222791441371,-0.00425,0.));
#1203=CARTESIAN_POINT('',(0.0258591305464506,-0.00458222953602671,0.));
#1204=CARTESIAN_POINT('',(0.0253864679645956,-0.00461646688852851,0.));
#1205=CARTESIAN_POINT('',(0.0245,-0.005,0.));
#1206=CARTESIAN_POINT('',(0.0245,-0.005,0.));
#1207=CARTESIAN_POINT('',(0.0245,-0.005,0.));
#1208=CARTESIAN_POINT('',(0.023902760804985,-0.00525839738818008,0.));
#1209=CARTESIAN_POINT('',(0.023117690879558,-0.00567534389213674,0.));
#1210=CARTESIAN_POINT('',(0.0220581011832589,-0.00651461220558139,0.));
#1211=CARTESIAN_POINT('',(0.,-0.02075,0.));
#1212=CARTESIAN_POINT('',(0.,0.,0.0075));
#1213=CARTESIAN_POINT('',(0.,0.,0.0075));
#1214=CARTESIAN_POINT('',(-0.0156831396205795,-0.010184749954781,0.0075));
#1215=CARTESIAN_POINT('',(-0.0132228968081884,-0.0132228968081884,0.0075));
#1216=CARTESIAN_POINT('',(-0.0163121425465385,-0.0105932292310423,0.00825));
#1217=CARTESIAN_POINT('',(-0.0137532268940784,-0.0137532268940783,0.00825));
#1218=CARTESIAN_POINT('',(0.,0.,0.0025));
#1219=CARTESIAN_POINT('',(0.,0.,0.0045));
#1220=CARTESIAN_POINT('',(-0.0156831396205795,-0.010184749954781,0.0045));
#1221=CARTESIAN_POINT('',(-0.0132228968081884,-0.0132228968081884,0.0045));
#1222=CARTESIAN_POINT('',(-0.0156831396205795,-0.010184749954781,0.00525));
#1223=CARTESIAN_POINT('',(-0.0132228968081884,-0.0132228968081884,0.00525));
#1224=CARTESIAN_POINT('',(0.,0.,0.0045));
#1225=CARTESIAN_POINT('',(-0.0163121425465385,-0.0105932292310423,0.00375));
#1226=CARTESIAN_POINT('',(-0.0137532268940784,-0.0137532268940783,0.00375));
#1227=CARTESIAN_POINT('',(0.,0.,0.005));
#1228=CARTESIAN_POINT('',(0.,0.,0.005));
#1229=CARTESIAN_POINT('',(0.,0.,0.0025));
#1230=CARTESIAN_POINT('',(0.,0.,0.0075));
#1231=CARTESIAN_POINT('',(0.0156831396205795,0.010184749954781,0.0075));
#1232=CARTESIAN_POINT('',(0.0132228968081884,0.0132228968081884,0.0075));
#1233=CARTESIAN_POINT('',(0.0132228968081884,0.0132228968081884,0.00525));
#1234=CARTESIAN_POINT('',(0.0132228968081884,0.0132228968081884,0.0045));
#1235=CARTESIAN_POINT('',(0.,0.,0.0045));
#1236=CARTESIAN_POINT('',(0.0156831396205795,0.010184749954781,0.0045));
#1237=CARTESIAN_POINT('',(0.0156831396205795,0.010184749954781,0.00525));
#1238=CARTESIAN_POINT('',(0.,0.,0.0075));
#1239=CARTESIAN_POINT('',(0.0137532268940784,0.0137532268940783,0.00825));
#1240=CARTESIAN_POINT('',(0.0163121425465385,0.0105932292310423,0.00825));
#1241=CARTESIAN_POINT('',(0.,0.,0.0045));
#1242=CARTESIAN_POINT('',(0.0163121425465385,0.0105932292310423,0.00375));
#1243=CARTESIAN_POINT('',(0.0137532268940784,0.0137532268940783,0.00375));
#1244=CARTESIAN_POINT('',(0.,0.,0.005));
#1245=CARTESIAN_POINT('',(0.,0.,0.005));
#1246=CARTESIAN_POINT('',(0.,0.,0.0075));
#1247=CARTESIAN_POINT('',(0.,0.,0.0075));
#1248=CARTESIAN_POINT('',(0.0132228968081884,-0.0132228968081884,0.0075));
#1249=CARTESIAN_POINT('',(0.010184749954781,-0.0156831396205795,0.0075));
#1250=CARTESIAN_POINT('',(0.0105932292310423,-0.0163121425465385,0.00825));
#1251=CARTESIAN_POINT('',(0.0137532268940783,-0.0137532268940783,0.00825));
#1252=CARTESIAN_POINT('',(0.,0.,0.0025));
#1253=CARTESIAN_POINT('',(0.,0.,0.0045));
#1254=CARTESIAN_POINT('',(0.0132228968081884,-0.0132228968081884,0.0045));
#1255=CARTESIAN_POINT('',(0.010184749954781,-0.0156831396205795,0.0045));
#1256=CARTESIAN_POINT('',(0.010184749954781,-0.0156831396205795,0.00525));
#1257=CARTESIAN_POINT('',(0.0132228968081884,-0.0132228968081884,0.00525));
#1258=CARTESIAN_POINT('',(0.,0.,0.0045));
#1259=CARTESIAN_POINT('',(0.0137532268940783,-0.0137532268940783,0.00375));
#1260=CARTESIAN_POINT('',(0.0105932292310423,-0.0163121425465385,0.00375));
#1261=CARTESIAN_POINT('',(0.,0.,0.005));
#1262=CARTESIAN_POINT('',(0.,0.,0.005));
#1263=CARTESIAN_POINT('',(0.,0.,0.0025));
#1264=CARTESIAN_POINT('',(0.,0.,0.0075));
#1265=CARTESIAN_POINT('',(-0.0132228968081884,0.0132228968081884,0.0075));
#1266=CARTESIAN_POINT('',(-0.010184749954781,0.0156831396205795,0.0075));
#1267=CARTESIAN_POINT('',(-0.0132228968081884,0.0132228968081884,0.00525));
#1268=CARTESIAN_POINT('',(-0.0132228968081884,0.0132228968081884,0.0045));
#1269=CARTESIAN_POINT('',(0.,0.,0.0045));
#1270=CARTESIAN_POINT('',(-0.010184749954781,0.0156831396205795,0.0045));
#1271=CARTESIAN_POINT('',(-0.010184749954781,0.0156831396205795,0.00525));
#1272=CARTESIAN_POINT('',(0.,0.,0.0075));
#1273=CARTESIAN_POINT('',(-0.0137532268940783,0.0137532268940783,0.00825));
#1274=CARTESIAN_POINT('',(-0.0105932292310423,0.0163121425465385,0.00825));
#1275=CARTESIAN_POINT('',(0.,0.,0.0045));
#1276=CARTESIAN_POINT('',(-0.0137532268940783,0.0137532268940783,0.00375));
#1277=CARTESIAN_POINT('',(-0.0105932292310423,0.0163121425465385,0.00375));
#1278=CARTESIAN_POINT('',(0.,0.,0.005));
#1279=CARTESIAN_POINT('',(0.,0.,0.005));
#1280=CARTESIAN_POINT('',(0.036,1.7347234759768E-18,0.01));
#1281=CARTESIAN_POINT('',(0.0376262667389228,0.00494139008614595,0.0066261494363881));
#1282=CARTESIAN_POINT('',(0.0382995599929312,0.00459956422387687,0.00499979882547636));
#1283=CARTESIAN_POINT('',(0.0376254932893526,0.00494122110969057,0.00337465526170645));
#1284=CARTESIAN_POINT('',(0.0360038021506202,0.00525439787529408,0.00269995696843687));
#1285=CARTESIAN_POINT('',(0.0343724053905592,0.00494118460918395,0.00337552376418055));
#1286=CARTESIAN_POINT('',(0.0337011570482279,0.0045996852720059,0.00499640878973562));
#1287=CARTESIAN_POINT('',(0.0343729734549871,0.00494094549265425,0.00662560258922853));
#1288=CARTESIAN_POINT('',(0.0359983738421166,0.00525441589182077,0.0072995614637559));
#1289=CARTESIAN_POINT('',(0.0376262667389228,0.00494139008614595,0.0066261494363881));
#1290=CARTESIAN_POINT('',(0.0382995599929312,0.00459956422387687,0.00499979882547636));
#1291=CARTESIAN_POINT('',(0.0376254932893526,0.00494122110969057,0.00337465526170645));
#1292=CARTESIAN_POINT('',(0.038075,0.00471347801522401,0.005));
#1293=CARTESIAN_POINT('',(0.0329504098636046,-0.00415,0.01));
#1294=CARTESIAN_POINT('',(0.0329504098636046,-0.00415,0.0015));
#1295=CARTESIAN_POINT('',(0.036,1.7347234759768E-18,0.0015));
#1296=CARTESIAN_POINT('',(0.0390495901363954,-0.00415,0.0015));
#1297=CARTESIAN_POINT('',(0.0390495901363954,-0.00415,0.01));
#1298=CARTESIAN_POINT('',(0.0245,0.005,0.008));
#1299=CARTESIAN_POINT('',(0.0245,0.005,0.));
#1300=CARTESIAN_POINT('',(0.023902760804985,0.00525839738818008,0.008));
#1301=CARTESIAN_POINT('',(0.023902760804985,0.00525839738818008,0.));
#1302=CARTESIAN_POINT('',(0.023117690879558,0.00567534389213674,0.008));
#1303=CARTESIAN_POINT('',(0.023117690879558,0.00567534389213674,0.));
#1304=CARTESIAN_POINT('',(0.0220581011832589,0.00651461220558139,0.008));
#1305=CARTESIAN_POINT('',(0.0220581011832589,0.00651461220558139,0.));
#1306=CARTESIAN_POINT('',(0.0220581014391742,0.00651461200287881,0.008));
#1307=CARTESIAN_POINT('',(0.0231176910059662,0.00567534382500197,0.008));
#1308=CARTESIAN_POINT('',(0.0239027608530673,0.00525839736737711,0.008));
#1309=CARTESIAN_POINT('',(0.0245,0.005,0.008));
#1310=CARTESIAN_POINT('',(0.0245,0.005,0.008));
#1311=CARTESIAN_POINT('',(0.0245,0.005,0.01));
#1312=CARTESIAN_POINT('',(0.0292222791441371,0.00425,0.008));
#1313=CARTESIAN_POINT('',(0.0292222791441371,0.00425,0.));
#1314=CARTESIAN_POINT('',(0.0258591305464506,0.00458222953602672,0.008));
#1315=CARTESIAN_POINT('',(0.0258591305464506,0.00458222953602672,0.));
#1316=CARTESIAN_POINT('',(0.0253864679645956,0.00461646688852851,0.008));
#1317=CARTESIAN_POINT('',(0.0253864679645956,0.00461646688852851,0.));
#1318=CARTESIAN_POINT('',(0.0245,0.005,0.008));
#1319=CARTESIAN_POINT('',(0.0245,0.005,0.));
#1320=CARTESIAN_POINT('',(0.0245,0.005,0.008));
#1321=CARTESIAN_POINT('',(0.0253864679645956,0.00461646688852851,0.008));
#1322=CARTESIAN_POINT('',(0.0258591305464507,0.00458222953602672,0.008));
#1323=CARTESIAN_POINT('',(0.0292222791441371,0.00425,0.008));
#1324=CARTESIAN_POINT('',(0.0292222791441371,0.00425,0.00799999999999946));
#1325=CARTESIAN_POINT('',(0.0292222791441371,0.00425,0.01));
#1326=CARTESIAN_POINT('',(0.036,8.67361737988404E-19,0.01));
#1327=CARTESIAN_POINT('',(0.0292222789995494,0.00424999976941785,0.00799999996983124));
#1328=CARTESIAN_POINT('',(0.0288375202819069,0.00363640273832219,0.00864840531504639));
#1329=CARTESIAN_POINT('',(0.0285476633285272,0.00299069966317297,0.00931939621503013));
#1330=CARTESIAN_POINT('',(0.0283458265348807,0.00232672056033022,0.00999999898488555));
#1331=CARTESIAN_POINT('',(0.04,-0.00692820323027551,0.01));
#1332=CARTESIAN_POINT('',(0.036,-0.00692820323027551,0.01));
#1333=CARTESIAN_POINT('',(0.036,-0.00692820323027551,0.005));
#1334=CARTESIAN_POINT('',(0.038075,-0.00692820323027551,0.005));
#1335=CARTESIAN_POINT('',(0.032,-0.00692820323027551,0.01));
#1336=CARTESIAN_POINT('',(0.036,9.54097911787244E-18,0.01));
#1337=CARTESIAN_POINT('',(0.0283458265348807,-0.00232672056033021,0.00999999898488556));
#1338=CARTESIAN_POINT('',(0.0285476390046597,-0.00299061964535543,0.00931947823620824));
#1339=CARTESIAN_POINT('',(0.0288375747972987,-0.00363648967717769,0.00864831344429779));
#1340=CARTESIAN_POINT('',(0.0292222789995494,-0.00424999976941786,0.00799999996983124));
#1341=CARTESIAN_POINT('',(0.0292222791441371,-0.00425,0.008));
#1342=CARTESIAN_POINT('',(0.0292222791441371,-0.00425,0.01));
#1343=CARTESIAN_POINT('',(0.0292222791441371,-0.00425,0.008));
#1344=CARTESIAN_POINT('',(0.0292222791441371,-0.00425,0.));
#1345=CARTESIAN_POINT('',(0.0258591305464506,-0.00458222953602671,0.008));
#1346=CARTESIAN_POINT('',(0.0258591305464506,-0.00458222953602671,0.));
#1347=CARTESIAN_POINT('',(0.0253864679645956,-0.00461646688852851,0.008));
#1348=CARTESIAN_POINT('',(0.0253864679645956,-0.00461646688852851,0.));
#1349=CARTESIAN_POINT('',(0.0245,-0.005,0.008));
#1350=CARTESIAN_POINT('',(0.0245,-0.005,0.));
#1351=CARTESIAN_POINT('',(0.0292222791441371,-0.00425,0.008));
#1352=CARTESIAN_POINT('',(0.0258591305464507,-0.00458222953602671,0.008));
#1353=CARTESIAN_POINT('',(0.0253864679645956,-0.00461646688852851,0.008));
#1354=CARTESIAN_POINT('',(0.0245,-0.005,0.008));
#1355=CARTESIAN_POINT('',(0.0245,-0.005,0.008));
#1356=CARTESIAN_POINT('',(0.0245,-0.005,0.01));
#1357=CARTESIAN_POINT('',(0.0245,-0.005,0.008));
#1358=CARTESIAN_POINT('',(0.0245,-0.005,0.));
#1359=CARTESIAN_POINT('',(0.023902760804985,-0.00525839738818008,0.008));
#1360=CARTESIAN_POINT('',(0.023902760804985,-0.00525839738818008,0.));
#1361=CARTESIAN_POINT('',(0.023117690879558,-0.00567534389213674,0.008));
#1362=CARTESIAN_POINT('',(0.023117690879558,-0.00567534389213674,0.));
#1363=CARTESIAN_POINT('',(0.0220581011832589,-0.00651461220558139,0.008));
#1364=CARTESIAN_POINT('',(0.0220581011832589,-0.00651461220558139,0.));
#1365=CARTESIAN_POINT('',(0.0245,-0.005,0.008));
#1366=CARTESIAN_POINT('',(0.0239027608530673,-0.00525839736737711,0.008));
#1367=CARTESIAN_POINT('',(0.0231176910059662,-0.00567534382500197,0.008));
#1368=CARTESIAN_POINT('',(0.0220581014391742,-0.00651461200287881,0.008));
#1369=CARTESIAN_POINT('',(0.036,-0.00415,0.01));
#1370=CARTESIAN_POINT('',(0.036,-0.00415,0.005));
#1371=CARTESIAN_POINT('',(0.036,-0.00415,0.007075));
#1372=CARTESIAN_POINT('',(0.036,-0.00415,0.0015));
#1373=CARTESIAN_POINT('',(0.0105,0.,0.0015));
#1374=CARTESIAN_POINT('',(0.0290581304922171,0.0022564834814415,0.01));
#1375=CARTESIAN_POINT('',(0.0286652813042974,0.00229524495715457,0.01));
#1376=CARTESIAN_POINT('',(0.0282724119250114,0.00233380817915768,0.01));
#1377=CARTESIAN_POINT('',(0.0274077339985059,0.00241997912537886,0.01));
#1378=CARTESIAN_POINT('',(0.0269357875355073,0.00246672597056111,0.01));
#1379=CARTESIAN_POINT('',(0.0259938953225361,0.00257478380973103,0.01));
#1380=CARTESIAN_POINT('',(0.0255243991529647,0.00263414549754274,0.01));
#1381=CARTESIAN_POINT('',(0.024592359200599,0.00282611928490095,0.01));
#1382=CARTESIAN_POINT('',(0.0241412174418989,0.00297318563597625,0.01));
#1383=CARTESIAN_POINT('',(0.0237058364758559,0.00316443352152013,0.01));
#1384=CARTESIAN_POINT('',(0.0292546609806752,0.0042468048799079,0.008));
#1385=CARTESIAN_POINT('',(0.0288615612403243,0.00428559391002134,0.008));
#1386=CARTESIAN_POINT('',(0.0284681019391003,0.0043242232432262,0.008));
#1387=CARTESIAN_POINT('',(0.0276086667604705,0.00440984974351297,0.008));
#1388=CARTESIAN_POINT('',(0.02714085717209,0.00445660610373067,0.008));
#1389=CARTESIAN_POINT('',(0.0262425424046623,0.00455908801289567,0.008));
#1390=CARTESIAN_POINT('',(0.0258186413623099,0.00461389394794629,0.008));
#1391=CARTESIAN_POINT('',(0.025117413999519,0.00476156590144458,0.008));
#1392=CARTESIAN_POINT('',(0.0248558721891522,0.00484607762185941,0.008));
#1393=CARTESIAN_POINT('',(0.0245,0.005,0.008));
#1394=CARTESIAN_POINT('',(0.0245,0.005,0.008));
#1395=CARTESIAN_POINT('',(0.0242352788252853,0.00438814450717338,0.00866666666666667));
#1396=CARTESIAN_POINT('',(0.0239705576505706,0.00377628901434675,0.00933333333333333));
#1397=CARTESIAN_POINT('',(0.0237058364758559,0.00316443352152013,0.01));
#1398=CARTESIAN_POINT('',(0.0237058364758559,0.00316443352152013,0.01));
#1399=CARTESIAN_POINT('',(0.0230541577869462,0.00344522228781607,0.01));
#1400=CARTESIAN_POINT('',(0.0224351029385971,0.00379692539645408,0.01));
#1401=CARTESIAN_POINT('',(0.0215506394937037,0.0043895396471676,0.01));
#1402=CARTESIAN_POINT('',(0.0212634360663651,0.00459840674614474,0.01));
#1403=CARTESIAN_POINT('',(0.0207501188377753,0.00499728241392012,0.01));
#1404=CARTESIAN_POINT('',(0.0205193881155984,0.00518185043126323,0.01));
#1405=CARTESIAN_POINT('',(0.0202879317442947,0.00536543161020858,0.01));
#1406=CARTESIAN_POINT('',(0.0245,0.005,0.008));
#1407=CARTESIAN_POINT('',(0.023971941915359,0.00522774373656719,0.008));
#1408=CARTESIAN_POINT('',(0.0234669734132384,0.00551347504638193,0.008));
#1409=CARTESIAN_POINT('',(0.022708452591633,0.00602095687349196,0.008));
#1410=CARTESIAN_POINT('',(0.0224545587668331,0.00620569361382369,0.008));
#1411=CARTESIAN_POINT('',(0.0220011877806169,0.00655794301903279,0.008));
#1412=CARTESIAN_POINT('',(0.0217600525120447,0.00675054940965059,0.008));
#1413=CARTESIAN_POINT('',(0.0215282923162446,0.00693434178911393,0.008));
#1414=CARTESIAN_POINT('',(0.0203069872388532,0.00535029589736631,0.0100000143593306));
#1415=CARTESIAN_POINT('',(0.0208493983254228,0.00570474977678764,0.00938519640797678));
#1416=CARTESIAN_POINT('',(0.021433937105115,0.00609124907767486,0.00871851676905036));
#1417=CARTESIAN_POINT('',(0.022058168369343,0.00651447141623617,0.00799997544255134));
#1418=CARTESIAN_POINT('',(0.,1.40834381901946E-18,0.01));
#1419=CARTESIAN_POINT('',(0.022058168369343,-0.00651447141623614,0.00799997544255132));
#1420=CARTESIAN_POINT('',(0.0214339457709775,-0.00609125495303991,0.00871850679393268));
#1421=CARTESIAN_POINT('',(0.0208494146259715,-0.00570476056078553,0.00938517781403594));
#1422=CARTESIAN_POINT('',(0.0203070100502144,-0.00535031080409888,0.0099999885028611));
#1423=CARTESIAN_POINT('',(0.0245,-0.005,0.008));
#1424=CARTESIAN_POINT('',(0.023971941915359,-0.00522774373656719,0.008));
#1425=CARTESIAN_POINT('',(0.0234669734132385,-0.00551347504638193,0.008));
#1426=CARTESIAN_POINT('',(0.022708452591633,-0.00602095687349195,0.008));
#1427=CARTESIAN_POINT('',(0.0224545587668331,-0.00620569361382369,0.008));
#1428=CARTESIAN_POINT('',(0.0220011898025848,-0.00655794144805224,0.008));
#1429=CARTESIAN_POINT('',(0.02176005724664,-0.00675054562790098,0.008));
#1430=CARTESIAN_POINT('',(0.0215282991420314,-0.00693433637607188,0.008));
#1431=CARTESIAN_POINT('',(0.0237058364758559,-0.00316443352152013,0.01));
#1432=CARTESIAN_POINT('',(0.0230541577869462,-0.00344522228781606,0.01));
#1433=CARTESIAN_POINT('',(0.0224351029385971,-0.00379692539645409,0.01));
#1434=CARTESIAN_POINT('',(0.0215506394937037,-0.00438953964716759,0.01));
#1435=CARTESIAN_POINT('',(0.0212634360663651,-0.00459840674614474,0.01));
#1436=CARTESIAN_POINT('',(0.0207501211270947,-0.00499728063499329,0.01));
#1437=CARTESIAN_POINT('',(0.020519392645908,-0.00518184680734119,0.01));
#1438=CARTESIAN_POINT('',(0.0202879385611303,-0.00536542620338904,0.01));
#1439=CARTESIAN_POINT('',(0.0245,-0.005,0.008));
#1440=CARTESIAN_POINT('',(0.0242352788252853,-0.00438814450717338,0.00866666666666667));
#1441=CARTESIAN_POINT('',(0.0239705576505706,-0.00377628901434675,0.00933333333333333));
#1442=CARTESIAN_POINT('',(0.0237058364758559,-0.00316443352152013,0.01));
#1443=CARTESIAN_POINT('',(0.0292546611020604,-0.00424680486793023,0.008));
#1444=CARTESIAN_POINT('',(0.0288615613213218,-0.00428559390206909,0.008));
#1445=CARTESIAN_POINT('',(0.028468101979287,-0.00432422323922234,0.008));
#1446=CARTESIAN_POINT('',(0.0276086667604705,-0.00440984974351297,0.008));
#1447=CARTESIAN_POINT('',(0.02714085717209,-0.00445660610373066,0.008));
#1448=CARTESIAN_POINT('',(0.0262425424046623,-0.00455908801289567,0.008));
#1449=CARTESIAN_POINT('',(0.0258186413623099,-0.00461389394794629,0.008));
#1450=CARTESIAN_POINT('',(0.025117413999519,-0.00476156590144458,0.008));
#1451=CARTESIAN_POINT('',(0.0248558721891522,-0.00484607762185941,0.008));
#1452=CARTESIAN_POINT('',(0.0245,-0.005,0.008));
#1453=CARTESIAN_POINT('',(0.029058130613525,-0.00225648346947235,0.01));
#1454=CARTESIAN_POINT('',(0.0286652813851735,-0.00229524494921594,0.01));
#1455=CARTESIAN_POINT('',(0.0282724119654433,-0.00233380817512837,0.01));
#1456=CARTESIAN_POINT('',(0.0274077339985058,-0.00241997912537886,0.01));
#1457=CARTESIAN_POINT('',(0.0269357875355073,-0.00246672597056111,0.01));
#1458=CARTESIAN_POINT('',(0.0259938953225361,-0.00257478380973103,0.01));
#1459=CARTESIAN_POINT('',(0.0255243991529647,-0.00263414549754274,0.01));
#1460=CARTESIAN_POINT('',(0.024592359200599,-0.00282611928490094,0.01));
#1461=CARTESIAN_POINT('',(0.0241412174418989,-0.00297318563597625,0.01));
#1462=CARTESIAN_POINT('',(0.0237058364758559,-0.00316443352152013,0.01));
#1463=CARTESIAN_POINT('',(-0.0048364476683931,-0.0209489563928825,0.001));
#1464=CARTESIAN_POINT('',(-0.0048364476683931,-0.0209489563928825,0.001));
#1465=CARTESIAN_POINT('',(0.,-0.02075,0.001));
#1466=CARTESIAN_POINT('',(0.,-0.02075,0.001));
#1467=CARTESIAN_POINT('',(-0.000470949408370523,3.46944695195361E-18,0.001));
#1468=CARTESIAN_POINT('',(0.036,0.00607179676972449,0.005));
#1469=CARTESIAN_POINT('',(0.036,0.00607179676972449,0.005));
#1470=CARTESIAN_POINT('',(0.036,0.00607179676972449,0.005));
#1471=CARTESIAN_POINT('',(0.038075,0.00607179676972449,0.005));
#1472=CARTESIAN_POINT('',(0.036,0.00607179676972449,0.005));
#1473=MECHANICAL_DESIGN_GEOMETRIC_PRESENTATION_REPRESENTATION('',(#766),#1474);
#1474=(
GEOMETRIC_REPRESENTATION_CONTEXT(3)
GLOBAL_UNCERTAINTY_ASSIGNED_CONTEXT((#1475))
GLOBAL_UNIT_ASSIGNED_CONTEXT((#1478,#1477,#1476))
REPRESENTATION_CONTEXT('Accessory Base Ring','TOP_LEVEL_ASSEMBLY_PART')
);
#1475=UNCERTAINTY_MEASURE_WITH_UNIT(LENGTH_MEASURE(2.E-05),#1478,'DISTANCE_ACCURACY_VALUE','Maximum Tolerance applied to model');
#1476=(
NAMED_UNIT(*)
SI_UNIT($,.STERADIAN.)
SOLID_ANGLE_UNIT()
);
#1477=(
NAMED_UNIT(*)
PLANE_ANGLE_UNIT()
SI_UNIT($,.RADIAN.)
);
#1478=(
LENGTH_UNIT()
NAMED_UNIT(*)
SI_UNIT($,.METRE.)
);
#1479=PRODUCT_DEFINITION_SHAPE('','',#1480);
#1480=PRODUCT_DEFINITION('','',#1482,#1481);
#1481=PRODUCT_DEFINITION_CONTEXT('',#1488,'design');
#1482=PRODUCT_DEFINITION_FORMATION_WITH_SPECIFIED_SOURCE('','',#1484,.NOT_KNOWN.);
#1483=PRODUCT_RELATED_PRODUCT_CATEGORY('','',(#1484));
#1484=PRODUCT('Accessory Base Ring','Accessory Base Ring','Accessory Base Ring',(#1486));
#1485=PRODUCT_CATEGORY('','');
#1486=PRODUCT_CONTEXT('',#1488,'mechanical');
#1487=APPLICATION_PROTOCOL_DEFINITION('international standard','ap242_managed_model_based_3d_engineering',2020,#1488);
#1488=APPLICATION_CONTEXT('managed model based 3d engineering');
ENDSEC;
END-ISO-10303-21;
