ISO-10303-21;
HEADER;
/*Generated by software containing ST-Developer
 * from STEP Tools, Inc. (www.steptools.com) 
 */
/*OPTION: using custom renumber hook */
/*description */
/*implementation_level */
FILE_DESCRIPTION(('STEP AP242 Edition 2','STEP AP242 Edition 2''CAx-IF Rec.Pracs.---Representation and Presentation of Product Manufa
cturing Information (PMI)---4.0---2014-10-13','STEP AP242 Edition 2''CAx-IF Rec.Pracs.---Representation and Presentation of Product Manufa
cturing Information (PMI)---4.0---2014-10-13''CAx-IF Rec.Pracs.---3D Tessellated Geometry---0.4---2014-09-14','STEP AP242 Edition 2''CAx-IF Rec.Pracs.---Representation and Presentation of Product Manufa
cturing Information (PMI)---4.0---2014-10-13''CAx-IF Rec.Pracs.---3D Tessellated Geometry---0.4---2014-09-14''2;1','STEP AP242 Edition 2''CAx-IF Rec.Pracs.---Representation and Presentation of Product Manufa
cturing Information (PMI)---4.0---2014-10-13''CAx-IF Rec.Pracs.---3D Tessellated Geometry---0.4---2014-09-14''2;1''CAx-IF Rec.Pracs.---User Defined Attributes---1.5---2016-08-15'),'2;1');
/*name */
/*time_stamp */
/*author */
/*organization */
/*preprocessor_version */
/*originating_system */
/*authorisation */
FILE_NAME('/vol/tmp/translate-14142522993375227269/M1 - Perinium Pad.step','2026-02-26T20:25:27',(''),(''),'ST-DEVELOPER v20','ONSHAPE BY PTC INC, 1.211','  ');
FILE_SCHEMA(('AP242_MANAGED_MODEL_BASED_3D_ENGINEERING_MIM_LF { 1 0 10303 442 3 1 4 }'));
ENDSEC;
DATA;
#10=SHAPE_REPRESENTATION_RELATIONSHIP('','',#534,#11);
#11=ADVANCED_BREP_SHAPE_REPRESENTATION('',(#532),#1288);
#12=TOROIDAL_SURFACE('',#572,0.0046,0.0004);
#13=TOROIDAL_SURFACE('',#576,0.0046,0.0004);
#14=(
B_SPLINE_SURFACE(3,2,((#983,#984,#985),(#986,#987,#988),(#989,#990,#991),(#992,#993,#994),(#995,#996,#997),(#998,#999,#1000),(#1001,#1002,#1003)),.UNSPECIFIED.,.F.,.F.,.F.)
B_SPLINE_SURFACE_WITH_KNOTS((4,1,1,1,4),(3,3),(3.46944695195361E-18,0.00494583824718133,0.00989167649436266,0.014837514741544,0.0197833529887253),(0.,1.),.UNSPECIFIED.)
BOUNDED_SURFACE()
GEOMETRIC_REPRESENTATION_ITEM()
RATIONAL_B_SPLINE_SURFACE(((1.,0.707106781186548,1.),(1.,0.707106781186548,
1.),(1.,0.707106781186549,1.),(1.,0.707106781186546,1.),(1.,0.707106781186549,
1.),(1.,0.707106781186547,1.),(1.,0.707106781186547,1.)))
REPRESENTATION_ITEM('')
SURFACE()
);
#15=(
B_SPLINE_SURFACE(3,2,((#1006,#1007,#1008),(#1009,#1010,#1011),(#1012,#1013,
#1014),(#1015,#1016,#1017),(#1018,#1019,#1020),(#1021,#1022,#1023),(#1024,
#1025,#1026)),.UNSPECIFIED.,.F.,.F.,.F.)
B_SPLINE_SURFACE_WITH_KNOTS((4,1,1,1,4),(3,3),(-9.43255890062389E-18,0.00110496223432092,0.00220992446864184,0.00331488670296277,0.00441984893728369),(0.,1.),.UNSPECIFIED.)
BOUNDED_SURFACE()
GEOMETRIC_REPRESENTATION_ITEM()
RATIONAL_B_SPLINE_SURFACE(((1.,0.904742363595847,1.),(1.,0.904742362500702,
1.),(1.,0.891422302722385,1.),(1.,0.843173705029593,1.),(1.,0.779967583799012,
1.),(1.,0.731864779090786,1.),(1.,0.707106781186548,1.)))
REPRESENTATION_ITEM('')
SURFACE()
);
#16=(
B_SPLINE_SURFACE(3,2,((#1028,#1029,#1030),(#1031,#1032,#1033),(#1034,#1035,
#1036),(#1037,#1038,#1039),(#1040,#1041,#1042),(#1043,#1044,#1045),(#1046,
#1047,#1048)),.UNSPECIFIED.,.F.,.F.,.F.)
B_SPLINE_SURFACE_WITH_KNOTS((4,1,1,1,4),(3,3),(-2.24429849704499E-17,0.000993741059587107,0.00198748211917424,0.00298122317876137,0.00397496423834849),(0.,1.),.UNSPECIFIED.)
BOUNDED_SURFACE()
GEOMETRIC_REPRESENTATION_ITEM()
RATIONAL_B_SPLINE_SURFACE(((1.,0.707106781186547,1.),(1.,0.693787105931444,
1.),(1.,0.669000901317105,1.),(1.,0.644591748084479,1.),(1.,0.634909361522466,
1.),(1.,0.633778148748252,1.),(1.,0.633778148694927,1.)))
REPRESENTATION_ITEM('')
SURFACE()
);
#17=(
B_SPLINE_SURFACE(3,2,((#1062,#1063,#1064),(#1065,#1066,#1067),(#1068,#1069,
#1070),(#1071,#1072,#1073),(#1074,#1075,#1076),(#1077,#1078,#1079),(#1080,
#1081,#1082)),.UNSPECIFIED.,.F.,.F.,.F.)
B_SPLINE_SURFACE_WITH_KNOTS((4,1,1,1,4),(3,3),(-6.37944558290471E-16,0.00110149308614198,0.0022029861722846,0.00330447925842722,0.00440597234456983),(0.,1.),.UNSPECIFIED.)
BOUNDED_SURFACE()
GEOMETRIC_REPRESENTATION_ITEM()
RATIONAL_B_SPLINE_SURFACE(((1.,0.707106781186588,1.),(1.,0.731886518120536,
1.),(1.,0.779488772218765,1.),(1.,0.842781630873817,1.),(1.,0.891250333063522,
1.),(1.,0.904742363026586,1.),(1.,0.904742363595847,1.)))
REPRESENTATION_ITEM('')
SURFACE()
);
#18=(
B_SPLINE_SURFACE(3,2,((#1084,#1085,#1086),(#1087,#1088,#1089),(#1090,#1091,
#1092),(#1093,#1094,#1095),(#1096,#1097,#1098),(#1099,#1100,#1101),(#1102,
#1103,#1104)),.UNSPECIFIED.,.F.,.F.,.F.)
B_SPLINE_SURFACE_WITH_KNOTS((4,1,1,1,4),(3,3),(-9.43255890062389E-18,0.000993737102373872,0.00198747420474775,0.00298121130712163,0.00397494840949552),(0.,1.),.UNSPECIFIED.)
BOUNDED_SURFACE()
GEOMETRIC_REPRESENTATION_ITEM()
RATIONAL_B_SPLINE_SURFACE(((1.,0.633778148694926,1.),(1.,0.63377814878866,
1.),(1.,0.63489327130903,1.),(1.,0.644571026201331,1.),(1.,0.668881076600015,
1.),(1.,0.693792337163379,1.),(1.,0.707106781186547,1.)))
REPRESENTATION_ITEM('')
SURFACE()
);
#19=(
B_SPLINE_SURFACE(3,2,((#1111,#1112,#1113),(#1114,#1115,#1116),(#1117,#1118,
#1119),(#1120,#1121,#1122),(#1123,#1124,#1125),(#1126,#1127,#1128),(#1129,
#1130,#1131)),.UNSPECIFIED.,.F.,.F.,.F.)
B_SPLINE_SURFACE_WITH_KNOTS((4,1,1,1,4),(3,3),(6.67868538251071E-17,0.00496068761545649,0.00992137523091292,0.0148820628463693,0.0198427504618258),(0.,1.),.UNSPECIFIED.)
BOUNDED_SURFACE()
GEOMETRIC_REPRESENTATION_ITEM()
RATIONAL_B_SPLINE_SURFACE(((1.,0.707106781186547,1.),(1.,0.707106781186547,
1.),(1.,0.707106781186547,1.),(1.,0.707106781186547,1.),(1.,0.707106781186548,
1.),(1.,0.707106781186547,1.),(1.,0.707106781186547,1.)))
REPRESENTATION_ITEM('')
SURFACE()
);
#20=(
B_SPLINE_SURFACE(3,2,((#1132,#1133,#1134),(#1135,#1136,#1137),(#1138,#1139,
#1140),(#1141,#1142,#1143),(#1144,#1145,#1146)),.UNSPECIFIED.,.F.,.F.,.F.)
B_SPLINE_SURFACE_WITH_KNOTS((4,1,4),(3,3),(-3.14418630020796E-18,0.00322280964789018,0.00644561929578037),(0.,1.),.UNSPECIFIED.)
BOUNDED_SURFACE()
GEOMETRIC_REPRESENTATION_ITEM()
RATIONAL_B_SPLINE_SURFACE(((1.,0.698453828559978,1.),(1.,0.698453828748957,
1.),(1.,0.712793517399459,1.),(1.,0.722457317858113,1.),(1.,0.723421771603521,
1.)))
REPRESENTATION_ITEM('')
SURFACE()
);
#21=(
B_SPLINE_SURFACE(3,2,((#1151,#1152,#1153),(#1154,#1155,#1156),(#1157,#1158,
#1159),(#1160,#1161,#1162)),.UNSPECIFIED.,.F.,.F.,.F.)
B_SPLINE_SURFACE_WITH_KNOTS((4,4),(3,3),(0.0154541449206642,0.0162828990372603),(0.,1.),.PIECEWISE_BEZIER_KNOTS.)
BOUNDED_SURFACE()
GEOMETRIC_REPRESENTATION_ITEM()
RATIONAL_B_SPLINE_SURFACE(((1.,0.707106781186549,1.),(1.,0.713153645454693,
1.),(1.,0.718625543633017,1.),(1.,0.723421771603221,1.)))
REPRESENTATION_ITEM('')
SURFACE()
);
#22=(
B_SPLINE_SURFACE(3,2,((#1164,#1165,#1166),(#1167,#1168,#1169),(#1170,#1171,
#1172),(#1173,#1174,#1175),(#1176,#1177,#1178)),.UNSPECIFIED.,.F.,.F.,.F.)
B_SPLINE_SURFACE_WITH_KNOTS((4,1,4),(3,3),(1.34441069388203E-17,0.00322263943682682,0.00644527887365363),(0.,1.),.UNSPECIFIED.)
BOUNDED_SURFACE()
GEOMETRIC_REPRESENTATION_ITEM()
RATIONAL_B_SPLINE_SURFACE(((1.,0.723421771603505,1.),(1.,0.722457141089583,
1.),(1.,0.712810460701226,1.),(1.,0.698453828576729,1.),(1.,0.698453828559969,
1.)))
REPRESENTATION_ITEM('')
SURFACE()
);
#23=(
B_SPLINE_SURFACE(3,2,((#1180,#1181,#1182),(#1183,#1184,#1185),(#1186,#1187,
#1188),(#1189,#1190,#1191),(#1192,#1193,#1194),(#1195,#1196,#1197),(#1198,
#1199,#1200)),.UNSPECIFIED.,.F.,.F.,.F.)
B_SPLINE_SURFACE_WITH_KNOTS((4,1,1,1,4),(3,3),(1.90819582357449E-17,0.00494767834357579,0.00989535668715157,0.0148430350307273,0.0197907133743031),(0.,1.),.UNSPECIFIED.)
BOUNDED_SURFACE()
GEOMETRIC_REPRESENTATION_ITEM()
RATIONAL_B_SPLINE_SURFACE(((1.,0.707106781186549,1.),(1.,0.707106781186549,
1.),(1.,0.707106781186547,1.),(1.,0.707106781186548,1.),(1.,0.707106781186547,
1.),(1.,0.707106781186549,1.),(1.,0.707106781186549,1.)))
REPRESENTATION_ITEM('')
SURFACE()
);
#24=(
B_SPLINE_SURFACE(3,2,((#1202,#1203,#1204),(#1205,#1206,#1207),(#1208,#1209,
#1210),(#1211,#1212,#1213)),.UNSPECIFIED.,.F.,.F.,.F.)
B_SPLINE_SURFACE_WITH_KNOTS((4,4),(3,3),(0.0154541449206643,0.0162828990372763),(0.,1.),.PIECEWISE_BEZIER_KNOTS.)
BOUNDED_SURFACE()
GEOMETRIC_REPRESENTATION_ITEM()
RATIONAL_B_SPLINE_SURFACE(((1.,0.707106781186548,1.),(1.,0.713153645457154,
1.),(1.,0.718625543635429,1.),(1.,0.723421771603503,1.)))
REPRESENTATION_ITEM('')
SURFACE()
);
#25=(
B_SPLINE_SURFACE(3,2,((#1215,#1216,#1217),(#1218,#1219,#1220),(#1221,#1222,
#1223),(#1224,#1225,#1226),(#1227,#1228,#1229),(#1230,#1231,#1232)),.UNSPECIFIED.,.F.,.F.,.F.)
B_SPLINE_SURFACE_WITH_KNOTS((4,1,1,4),(3,3),(0.0168095052579506,0.0200534254551122,0.0216753855536931,0.0232973456522739),(0.,1.),.UNSPECIFIED.)
BOUNDED_SURFACE()
GEOMETRIC_REPRESENTATION_ITEM()
RATIONAL_B_SPLINE_SURFACE(((1.,0.707106781186549,1.),(1.,0.667288558504592,
1.),(1.,0.597078586408119,1.),(1.,0.495962862530078,1.),(1.,0.445360885684923,
1.),(1.,0.429140123838235,1.)))
REPRESENTATION_ITEM('')
SURFACE()
);
#26=(
B_SPLINE_SURFACE(3,2,((#1237,#1238,#1239),(#1240,#1241,#1242),(#1243,#1244,
#1245),(#1246,#1247,#1248),(#1249,#1250,#1251),(#1252,#1253,#1254),(#1255,
#1256,#1257)),.UNSPECIFIED.,.F.,.F.,.F.)
B_SPLINE_SURFACE_WITH_KNOTS((4,1,1,1,4),(3,3),(-5.20417042793042E-18,0.00496279472511528,0.00992558945023057,0.0148883841753459,0.0198511789004611),(0.,1.),.UNSPECIFIED.)
BOUNDED_SURFACE()
GEOMETRIC_REPRESENTATION_ITEM()
RATIONAL_B_SPLINE_SURFACE(((1.,0.707106781186548,1.),(1.,0.707106781186548,
1.),(1.,0.707106781186546,1.),(1.,0.707106781186552,1.),(1.,0.70710678118654,
1.),(1.,0.707106781186549,1.),(1.,0.707106781186549,1.)))
REPRESENTATION_ITEM('')
SURFACE()
);
#27=(
B_SPLINE_SURFACE(3,2,((#1261,#1262,#1263),(#1264,#1265,#1266),(#1267,#1268,
#1269),(#1270,#1271,#1272),(#1273,#1274,#1275),(#1276,#1277,#1278)),.UNSPECIFIED.,.F.,.F.,.F.)
B_SPLINE_SURFACE_WITH_KNOTS((4,1,1,4),(3,3),(0.0168095052579506,0.0200534254551123,0.0216753855536931,0.023297345652274),(0.,1.),.UNSPECIFIED.)
BOUNDED_SURFACE()
GEOMETRIC_REPRESENTATION_ITEM()
RATIONAL_B_SPLINE_SURFACE(((1.,0.707106781186548,1.),(1.,0.667288558511246,
1.),(1.,0.597078586407095,1.),(1.,0.495962862529564,1.),(1.,0.445360885686748,
1.),(1.,0.429140123838235,1.)))
REPRESENTATION_ITEM('')
SURFACE()
);
#28=CYLINDRICAL_SURFACE('',#546,0.005);
#29=CYLINDRICAL_SURFACE('',#547,0.005);
#30=CYLINDRICAL_SURFACE('',#548,0.005);
#31=CYLINDRICAL_SURFACE('',#550,0.005);
#32=CYLINDRICAL_SURFACE('',#551,0.005);
#33=CYLINDRICAL_SURFACE('',#557,0.0025);
#34=CYLINDRICAL_SURFACE('',#559,0.0025);
#35=CYLINDRICAL_SURFACE('',#565,0.0004);
#36=CYLINDRICAL_SURFACE('',#574,0.0004);
#37=CYLINDRICAL_SURFACE('',#577,0.002075);
#38=CIRCLE('',#537,0.0046);
#39=CIRCLE('',#538,0.0046);
#40=CIRCLE('',#543,0.005);
#41=CIRCLE('',#545,0.002075);
#42=CIRCLE('',#549,0.005);
#43=CIRCLE('',#552,0.005);
#44=CIRCLE('',#553,0.0025);
#45=CIRCLE('',#554,0.0025);
#46=CIRCLE('',#555,0.0025);
#47=CIRCLE('',#556,0.0025);
#48=CIRCLE('',#558,0.0025);
#49=CIRCLE('',#560,0.0025);
#50=CIRCLE('',#561,0.0025);
#51=CIRCLE('',#562,0.0025);
#52=CIRCLE('',#563,0.0004);
#53=CIRCLE('',#564,0.0004);
#54=CIRCLE('',#566,0.0004);
#55=CIRCLE('',#567,0.0004);
#56=CIRCLE('',#568,0.0004);
#57=CIRCLE('',#569,0.0004);
#58=CIRCLE('',#570,0.0004);
#59=CIRCLE('',#571,0.0004);
#60=CIRCLE('',#573,0.0004);
#61=CIRCLE('',#575,0.0004);
#62=PLANE('',#536);
#63=PLANE('',#539);
#64=PLANE('',#540);
#65=PLANE('',#541);
#66=PLANE('',#542);
#67=PLANE('',#544);
#68=LINE('',#720,#85);
#69=LINE('',#747,#86);
#70=LINE('',#789,#87);
#71=LINE('',#837,#88);
#72=LINE('',#860,#89);
#73=LINE('',#862,#90);
#74=LINE('',#865,#91);
#75=LINE('',#867,#92);
#76=LINE('',#869,#93);
#77=LINE('',#871,#94);
#78=LINE('',#882,#95);
#79=LINE('',#892,#96);
#80=LINE('',#903,#97);
#81=LINE('',#913,#98);
#82=LINE('',#920,#99);
#83=LINE('',#921,#100);
#84=LINE('',#1059,#101);
#85=VECTOR('',#580,1.);
#86=VECTOR('',#581,1.);
#87=VECTOR('',#586,1.);
#88=VECTOR('',#589,1.);
#89=VECTOR('',#590,1.);
#90=VECTOR('',#593,1.);
#91=VECTOR('',#594,1.);
#92=VECTOR('',#595,1.);
#93=VECTOR('',#596,1.);
#94=VECTOR('',#599,1.);
#95=VECTOR('',#600,1.);
#96=VECTOR('',#603,1.);
#97=VECTOR('',#604,1.);
#98=VECTOR('',#607,1.);
#99=VECTOR('',#614,1.);
#100=VECTOR('',#615,1.);
#101=VECTOR('',#644,1.);
#102=ORIENTED_EDGE('',*,*,#254,.T.);
#103=ORIENTED_EDGE('',*,*,#255,.T.);
#104=ORIENTED_EDGE('',*,*,#256,.T.);
#105=ORIENTED_EDGE('',*,*,#257,.T.);
#106=ORIENTED_EDGE('',*,*,#258,.T.);
#107=ORIENTED_EDGE('',*,*,#259,.T.);
#108=ORIENTED_EDGE('',*,*,#260,.T.);
#109=ORIENTED_EDGE('',*,*,#261,.T.);
#110=ORIENTED_EDGE('',*,*,#262,.T.);
#111=ORIENTED_EDGE('',*,*,#263,.T.);
#112=ORIENTED_EDGE('',*,*,#264,.T.);
#113=ORIENTED_EDGE('',*,*,#265,.F.);
#114=ORIENTED_EDGE('',*,*,#256,.F.);
#115=ORIENTED_EDGE('',*,*,#266,.T.);
#116=ORIENTED_EDGE('',*,*,#267,.T.);
#117=ORIENTED_EDGE('',*,*,#268,.T.);
#118=ORIENTED_EDGE('',*,*,#269,.T.);
#119=ORIENTED_EDGE('',*,*,#270,.T.);
#120=ORIENTED_EDGE('',*,*,#271,.T.);
#121=ORIENTED_EDGE('',*,*,#272,.T.);
#122=ORIENTED_EDGE('',*,*,#273,.T.);
#123=ORIENTED_EDGE('',*,*,#274,.T.);
#124=ORIENTED_EDGE('',*,*,#275,.T.);
#125=ORIENTED_EDGE('',*,*,#276,.T.);
#126=ORIENTED_EDGE('',*,*,#277,.T.);
#127=ORIENTED_EDGE('',*,*,#278,.T.);
#128=ORIENTED_EDGE('',*,*,#279,.T.);
#129=ORIENTED_EDGE('',*,*,#280,.T.);
#130=ORIENTED_EDGE('',*,*,#281,.T.);
#131=ORIENTED_EDGE('',*,*,#282,.T.);
#132=ORIENTED_EDGE('',*,*,#283,.T.);
#133=ORIENTED_EDGE('',*,*,#284,.T.);
#134=ORIENTED_EDGE('',*,*,#285,.T.);
#135=ORIENTED_EDGE('',*,*,#286,.T.);
#136=ORIENTED_EDGE('',*,*,#287,.T.);
#137=ORIENTED_EDGE('',*,*,#288,.T.);
#138=ORIENTED_EDGE('',*,*,#289,.T.);
#139=ORIENTED_EDGE('',*,*,#290,.T.);
#140=ORIENTED_EDGE('',*,*,#291,.F.);
#141=ORIENTED_EDGE('',*,*,#292,.T.);
#142=ORIENTED_EDGE('',*,*,#293,.T.);
#143=ORIENTED_EDGE('',*,*,#264,.F.);
#144=ORIENTED_EDGE('',*,*,#294,.T.);
#145=ORIENTED_EDGE('',*,*,#291,.T.);
#146=ORIENTED_EDGE('',*,*,#295,.F.);
#147=ORIENTED_EDGE('',*,*,#296,.F.);
#148=ORIENTED_EDGE('',*,*,#294,.F.);
#149=ORIENTED_EDGE('',*,*,#265,.T.);
#150=ORIENTED_EDGE('',*,*,#295,.T.);
#151=ORIENTED_EDGE('',*,*,#292,.F.);
#152=ORIENTED_EDGE('',*,*,#297,.T.);
#153=ORIENTED_EDGE('',*,*,#298,.T.);
#154=ORIENTED_EDGE('',*,*,#287,.F.);
#155=ORIENTED_EDGE('',*,*,#299,.T.);
#156=ORIENTED_EDGE('',*,*,#300,.T.);
#157=ORIENTED_EDGE('',*,*,#279,.F.);
#158=ORIENTED_EDGE('',*,*,#301,.T.);
#159=ORIENTED_EDGE('',*,*,#289,.F.);
#160=ORIENTED_EDGE('',*,*,#285,.F.);
#161=ORIENTED_EDGE('',*,*,#302,.T.);
#162=ORIENTED_EDGE('',*,*,#303,.T.);
#163=ORIENTED_EDGE('',*,*,#281,.F.);
#164=ORIENTED_EDGE('',*,*,#304,.T.);
#165=ORIENTED_EDGE('',*,*,#305,.T.);
#166=ORIENTED_EDGE('',*,*,#283,.F.);
#167=ORIENTED_EDGE('',*,*,#306,.T.);
#168=ORIENTED_EDGE('',*,*,#307,.F.);
#169=ORIENTED_EDGE('',*,*,#276,.F.);
#170=ORIENTED_EDGE('',*,*,#308,.F.);
#171=ORIENTED_EDGE('',*,*,#286,.F.);
#172=ORIENTED_EDGE('',*,*,#308,.T.);
#173=ORIENTED_EDGE('',*,*,#275,.F.);
#174=ORIENTED_EDGE('',*,*,#309,.F.);
#175=ORIENTED_EDGE('',*,*,#306,.F.);
#176=ORIENTED_EDGE('',*,*,#303,.F.);
#177=ORIENTED_EDGE('',*,*,#310,.T.);
#178=ORIENTED_EDGE('',*,*,#311,.F.);
#179=ORIENTED_EDGE('',*,*,#277,.F.);
#180=ORIENTED_EDGE('',*,*,#307,.T.);
#181=ORIENTED_EDGE('',*,*,#309,.T.);
#182=ORIENTED_EDGE('',*,*,#274,.F.);
#183=ORIENTED_EDGE('',*,*,#312,.F.);
#184=ORIENTED_EDGE('',*,*,#282,.F.);
#185=ORIENTED_EDGE('',*,*,#311,.T.);
#186=ORIENTED_EDGE('',*,*,#313,.T.);
#187=ORIENTED_EDGE('',*,*,#314,.F.);
#188=ORIENTED_EDGE('',*,*,#278,.F.);
#189=ORIENTED_EDGE('',*,*,#312,.T.);
#190=ORIENTED_EDGE('',*,*,#273,.F.);
#191=ORIENTED_EDGE('',*,*,#315,.F.);
#192=ORIENTED_EDGE('',*,*,#301,.F.);
#193=ORIENTED_EDGE('',*,*,#314,.T.);
#194=ORIENTED_EDGE('',*,*,#316,.T.);
#195=ORIENTED_EDGE('',*,*,#297,.F.);
#196=ORIENTED_EDGE('',*,*,#317,.F.);
#197=ORIENTED_EDGE('',*,*,#271,.F.);
#198=ORIENTED_EDGE('',*,*,#315,.T.);
#199=ORIENTED_EDGE('',*,*,#272,.F.);
#200=ORIENTED_EDGE('',*,*,#317,.T.);
#201=ORIENTED_EDGE('',*,*,#290,.F.);
#202=ORIENTED_EDGE('',*,*,#318,.F.);
#203=ORIENTED_EDGE('',*,*,#316,.F.);
#204=ORIENTED_EDGE('',*,*,#319,.F.);
#205=ORIENTED_EDGE('',*,*,#260,.F.);
#206=ORIENTED_EDGE('',*,*,#319,.T.);
#207=ORIENTED_EDGE('',*,*,#313,.F.);
#208=ORIENTED_EDGE('',*,*,#320,.F.);
#209=ORIENTED_EDGE('',*,*,#261,.F.);
#210=ORIENTED_EDGE('',*,*,#318,.T.);
#211=ORIENTED_EDGE('',*,*,#259,.F.);
#212=ORIENTED_EDGE('',*,*,#321,.F.);
#213=ORIENTED_EDGE('',*,*,#298,.F.);
#214=ORIENTED_EDGE('',*,*,#320,.T.);
#215=ORIENTED_EDGE('',*,*,#310,.F.);
#216=ORIENTED_EDGE('',*,*,#322,.F.);
#217=ORIENTED_EDGE('',*,*,#262,.F.);
#218=ORIENTED_EDGE('',*,*,#321,.T.);
#219=ORIENTED_EDGE('',*,*,#258,.F.);
#220=ORIENTED_EDGE('',*,*,#323,.F.);
#221=ORIENTED_EDGE('',*,*,#288,.F.);
#222=ORIENTED_EDGE('',*,*,#322,.T.);
#223=ORIENTED_EDGE('',*,*,#302,.F.);
#224=ORIENTED_EDGE('',*,*,#324,.F.);
#225=ORIENTED_EDGE('',*,*,#263,.F.);
#226=ORIENTED_EDGE('',*,*,#257,.F.);
#227=ORIENTED_EDGE('',*,*,#270,.F.);
#228=ORIENTED_EDGE('',*,*,#325,.F.);
#229=ORIENTED_EDGE('',*,*,#299,.F.);
#230=ORIENTED_EDGE('',*,*,#323,.T.);
#231=ORIENTED_EDGE('',*,*,#324,.T.);
#232=ORIENTED_EDGE('',*,*,#284,.F.);
#233=ORIENTED_EDGE('',*,*,#326,.F.);
#234=ORIENTED_EDGE('',*,*,#254,.F.);
#235=ORIENTED_EDGE('',*,*,#325,.T.);
#236=ORIENTED_EDGE('',*,*,#269,.F.);
#237=ORIENTED_EDGE('',*,*,#327,.F.);
#238=ORIENTED_EDGE('',*,*,#300,.F.);
#239=ORIENTED_EDGE('',*,*,#326,.T.);
#240=ORIENTED_EDGE('',*,*,#305,.F.);
#241=ORIENTED_EDGE('',*,*,#328,.F.);
#242=ORIENTED_EDGE('',*,*,#266,.F.);
#243=ORIENTED_EDGE('',*,*,#255,.F.);
#244=ORIENTED_EDGE('',*,*,#327,.T.);
#245=ORIENTED_EDGE('',*,*,#268,.F.);
#246=ORIENTED_EDGE('',*,*,#329,.F.);
#247=ORIENTED_EDGE('',*,*,#280,.F.);
#248=ORIENTED_EDGE('',*,*,#328,.T.);
#249=ORIENTED_EDGE('',*,*,#304,.F.);
#250=ORIENTED_EDGE('',*,*,#329,.T.);
#251=ORIENTED_EDGE('',*,*,#267,.F.);
#252=ORIENTED_EDGE('',*,*,#296,.T.);
#253=ORIENTED_EDGE('',*,*,#293,.F.);
#254=EDGE_CURVE('',#330,#331,#376,.T.);
#255=EDGE_CURVE('',#331,#332,#377,.T.);
#256=EDGE_CURVE('',#332,#333,#68,.T.);
#257=EDGE_CURVE('',#333,#334,#378,.T.);
#258=EDGE_CURVE('',#334,#335,#379,.T.);
#259=EDGE_CURVE('',#335,#336,#380,.T.);
#260=EDGE_CURVE('',#336,#337,#381,.T.);
#261=EDGE_CURVE('',#337,#338,#69,.F.);
#262=EDGE_CURVE('',#338,#339,#382,.T.);
#263=EDGE_CURVE('',#339,#330,#383,.T.);
#264=EDGE_CURVE('',#340,#341,#384,.T.);
#265=EDGE_CURVE('',#340,#341,#385,.T.);
#266=EDGE_CURVE('',#332,#342,#386,.T.);
#267=EDGE_CURVE('',#342,#343,#38,.F.);
#268=EDGE_CURVE('',#343,#344,#70,.T.);
#269=EDGE_CURVE('',#344,#345,#39,.F.);
#270=EDGE_CURVE('',#345,#333,#387,.T.);
#271=EDGE_CURVE('',#346,#347,#388,.T.);
#272=EDGE_CURVE('',#347,#348,#389,.T.);
#273=EDGE_CURVE('',#348,#349,#390,.T.);
#274=EDGE_CURVE('',#349,#350,#71,.F.);
#275=EDGE_CURVE('',#350,#351,#391,.T.);
#276=EDGE_CURVE('',#351,#352,#392,.T.);
#277=EDGE_CURVE('',#352,#353,#393,.T.);
#278=EDGE_CURVE('',#353,#346,#72,.T.);
#279=EDGE_CURVE('',#354,#355,#73,.T.);
#280=EDGE_CURVE('',#355,#356,#74,.F.);
#281=EDGE_CURVE('',#356,#357,#75,.F.);
#282=EDGE_CURVE('',#357,#354,#76,.F.);
#283=EDGE_CURVE('',#358,#359,#77,.T.);
#284=EDGE_CURVE('',#359,#360,#394,.T.);
#285=EDGE_CURVE('',#360,#361,#78,.F.);
#286=EDGE_CURVE('',#361,#358,#395,.T.);
#287=EDGE_CURVE('',#362,#363,#79,.T.);
#288=EDGE_CURVE('',#363,#364,#396,.T.);
#289=EDGE_CURVE('',#364,#365,#80,.F.);
#290=EDGE_CURVE('',#365,#362,#397,.T.);
#291=EDGE_CURVE('',#366,#367,#81,.T.);
#292=EDGE_CURVE('',#366,#367,#40,.T.);
#293=EDGE_CURVE('',#368,#368,#41,.T.);
#294=EDGE_CURVE('',#340,#366,#82,.T.);
#295=EDGE_CURVE('',#341,#367,#83,.T.);
#296=EDGE_CURVE('',#369,#369,#398,.T.);
#297=EDGE_CURVE('',#362,#370,#399,.T.);
#298=EDGE_CURVE('',#370,#363,#400,.T.);
#299=EDGE_CURVE('',#364,#371,#401,.T.);
#300=EDGE_CURVE('',#371,#355,#42,.T.);
#301=EDGE_CURVE('',#354,#365,#402,.T.);
#302=EDGE_CURVE('',#360,#372,#403,.T.);
#303=EDGE_CURVE('',#372,#361,#404,.T.);
#304=EDGE_CURVE('',#356,#373,#43,.T.);
#305=EDGE_CURVE('',#373,#359,#405,.T.);
#306=EDGE_CURVE('',#358,#357,#406,.T.);
#307=EDGE_CURVE('',#352,#361,#44,.T.);
#308=EDGE_CURVE('',#358,#351,#45,.T.);
#309=EDGE_CURVE('',#357,#350,#46,.T.);
#310=EDGE_CURVE('',#372,#374,#407,.T.);
#311=EDGE_CURVE('',#353,#374,#47,.T.);
#312=EDGE_CURVE('',#354,#349,#48,.T.);
#313=EDGE_CURVE('',#374,#375,#84,.T.);
#314=EDGE_CURVE('',#346,#375,#49,.T.);
#315=EDGE_CURVE('',#365,#348,#50,.T.);
#316=EDGE_CURVE('',#375,#370,#408,.T.);
#317=EDGE_CURVE('',#347,#362,#51,.T.);
#318=EDGE_CURVE('',#370,#336,#52,.T.);
#319=EDGE_CURVE('',#337,#375,#53,.T.);
#320=EDGE_CURVE('',#338,#374,#54,.T.);
#321=EDGE_CURVE('',#363,#335,#55,.T.);
#322=EDGE_CURVE('',#339,#372,#56,.T.);
#323=EDGE_CURVE('',#364,#334,#57,.T.);
#324=EDGE_CURVE('',#330,#360,#58,.T.);
#325=EDGE_CURVE('',#371,#345,#409,.F.);
#326=EDGE_CURVE('',#331,#359,#59,.T.);
#327=EDGE_CURVE('',#355,#344,#60,.T.);
#328=EDGE_CURVE('',#342,#373,#410,.T.);
#329=EDGE_CURVE('',#356,#343,#61,.T.);
#330=VERTEX_POINT('',#711);
#331=VERTEX_POINT('',#712);
#332=VERTEX_POINT('',#719);
#333=VERTEX_POINT('',#721);
#334=VERTEX_POINT('',#727);
#335=VERTEX_POINT('',#735);
#336=VERTEX_POINT('',#740);
#337=VERTEX_POINT('',#746);
#338=VERTEX_POINT('',#748);
#339=VERTEX_POINT('',#754);
#340=VERTEX_POINT('',#765);
#341=VERTEX_POINT('',#766);
#342=VERTEX_POINT('',#786);
#343=VERTEX_POINT('',#788);
#344=VERTEX_POINT('',#790);
#345=VERTEX_POINT('',#792);
#346=VERTEX_POINT('',#820);
#347=VERTEX_POINT('',#821);
#348=VERTEX_POINT('',#829);
#349=VERTEX_POINT('',#836);
#350=VERTEX_POINT('',#838);
#351=VERTEX_POINT('',#845);
#352=VERTEX_POINT('',#853);
#353=VERTEX_POINT('',#859);
#354=VERTEX_POINT('',#863);
#355=VERTEX_POINT('',#864);
#356=VERTEX_POINT('',#866);
#357=VERTEX_POINT('',#868);
#358=VERTEX_POINT('',#872);
#359=VERTEX_POINT('',#873);
#360=VERTEX_POINT('',#881);
#361=VERTEX_POINT('',#883);
#362=VERTEX_POINT('',#893);
#363=VERTEX_POINT('',#894);
#364=VERTEX_POINT('',#902);
#365=VERTEX_POINT('',#904);
#366=VERTEX_POINT('',#914);
#367=VERTEX_POINT('',#915);
#368=VERTEX_POINT('',#919);
#369=VERTEX_POINT('',#934);
#370=VERTEX_POINT('',#940);
#371=VERTEX_POINT('',#951);
#372=VERTEX_POINT('',#965);
#373=VERTEX_POINT('',#972);
#374=VERTEX_POINT('',#1054);
#375=VERTEX_POINT('',#1060);
#376=B_SPLINE_CURVE_WITH_KNOTS('',3,(#704,#705,#706,#707,#708,#709,#710),.UNSPECIFIED.,.F.,.F.,(4,1,1,1,4),(0.,0.00492928743150718,0.00985857486301436,0.0147878622945215,0.0197171497260287),.UNSPECIFIED.);
#377=B_SPLINE_CURVE_WITH_KNOTS('',3,(#713,#714,#715,#716,#717,#718),.UNSPECIFIED.,.F.,.F.,(4,1,1,4),(0.,0.00321043866921468,0.00481565800382202,0.00642087733842936),.UNSPECIFIED.);
#378=B_SPLINE_CURVE_WITH_KNOTS('',3,(#722,#723,#724,#725,#726),.UNSPECIFIED.,.F.,.F.,(4,1,4),(-6.00000000088917E-08,0.00327016042034017,0.00654038084068034),.UNSPECIFIED.);
#379=B_SPLINE_CURVE_WITH_KNOTS('',3,(#728,#729,#730,#731,#732,#733,#734),.UNSPECIFIED.,.F.,.F.,(4,1,1,1,4),(0.,0.00491465624823943,0.00982931249647886,0.0147439687447183,0.0196586249929577),.UNSPECIFIED.);
#380=B_SPLINE_CURVE_WITH_KNOTS('',3,(#736,#737,#738,#739),.UNSPECIFIED.,.F.,.F.,(4,4),(0.,0.000821054393744564),.UNSPECIFIED.);
#381=B_SPLINE_CURVE_WITH_KNOTS('',3,(#741,#742,#743,#744,#745),.UNSPECIFIED.,.F.,.F.,(4,1,4),(0.,0.0032374649740172,0.00647492994803441),.UNSPECIFIED.);
#382=B_SPLINE_CURVE_WITH_KNOTS('',3,(#749,#750,#751,#752,#753),.UNSPECIFIED.,.F.,.F.,(4,1,4),(0.,0.00323803018392367,0.00647606036784733),.UNSPECIFIED.);
#383=B_SPLINE_CURVE_WITH_KNOTS('',3,(#755,#756,#757,#758),.UNSPECIFIED.,.F.,.F.,(4,4),(0.,0.000821054393760325),.UNSPECIFIED.);
#384=B_SPLINE_CURVE_WITH_KNOTS('',3,(#759,#760,#761,#762,#763,#764),.UNSPECIFIED.,.F.,.F.,(4,1,1,4),(0.,0.322291743296325,0.696525376779203,1.),.UNSPECIFIED.);
#385=B_SPLINE_CURVE_WITH_KNOTS('',3,(#767,#768,#769,#770,#771,#772,#773,#774,#775,#776,#777,#778,#779,#780),.UNSPECIFIED.,.F.,.F.,(4,1,1,1,1,1,1,1,1,1,1,4),(0.,0.00164965003884576,0.00329930007769152,0.00494895011653728,0.00659860015538304,0.0082482501942288,0.00989790023307456,0.0131972003107661,0.0164965003884576,0.0197958004661491,0.0230951005438406,0.0263944006215322),.UNSPECIFIED.);
#386=B_SPLINE_CURVE_WITH_KNOTS('',3,(#782,#783,#784,#785),.UNSPECIFIED.,.F.,.F.,(4,4),(0.,0.000368490658573086),.UNSPECIFIED.);
#387=B_SPLINE_CURVE_WITH_KNOTS('',3,(#793,#794,#795,#796),.UNSPECIFIED.,.F.,.F.,(4,4),(0.,0.000370235320359091),.UNSPECIFIED.);
#388=B_SPLINE_CURVE_WITH_KNOTS('',3,(#815,#816,#817,#818,#819),.UNSPECIFIED.,.F.,.F.,(4,1,4),(1.73472347597681E-17,0.0020782458057785,0.00415649161155699),.UNSPECIFIED.);
#389=B_SPLINE_CURVE_WITH_KNOTS('',3,(#822,#823,#824,#825,#826,#827,#828),.UNSPECIFIED.,.F.,.F.,(4,1,1,1,4),(0.,0.00515758422193287,0.0103151684438657,0.0154727526657986,0.0206303368877315),.UNSPECIFIED.);
#390=B_SPLINE_CURVE_WITH_KNOTS('',3,(#830,#831,#832,#833,#834,#835),.UNSPECIFIED.,.F.,.F.,(4,1,1,4),(0.,0.00228600979251442,0.00342901468877162,0.00457201958502883),.UNSPECIFIED.);
#391=B_SPLINE_CURVE_WITH_KNOTS('',3,(#839,#840,#841,#842,#843,#844),.UNSPECIFIED.,.F.,.F.,(4,1,1,4),(0.,0.0011447272111122,0.00228945442222441,0.00457890884444882),.UNSPECIFIED.);
#392=B_SPLINE_CURVE_WITH_KNOTS('',3,(#846,#847,#848,#849,#850,#851,#852),.UNSPECIFIED.,.F.,.F.,(4,1,1,1,4),(0.,0.00514105171959807,0.0102821034391961,0.0154231551587942,0.0205642068783923),.UNSPECIFIED.);
#393=B_SPLINE_CURVE_WITH_KNOTS('',3,(#854,#855,#856,#857,#858),.UNSPECIFIED.,.F.,.F.,(4,1,4),(0.,0.00208424750196175,0.0041684950039235),.UNSPECIFIED.);
#394=B_SPLINE_CURVE_WITH_KNOTS('',3,(#874,#875,#876,#877,#878,#879,#880),.UNSPECIFIED.,.F.,.F.,(4,1,1,1,4),(0.,0.00494733701288958,0.00989467402577916,0.0148420110386687,0.0197893480515583),.UNSPECIFIED.);
#395=B_SPLINE_CURVE_WITH_KNOTS('',3,(#884,#885,#886,#887,#888,#889,#890),.UNSPECIFIED.,.F.,.F.,(4,1,1,1,4),(0.,0.00496035384056803,0.00992070768113607,0.0148810615217041,0.0198414153622721),.UNSPECIFIED.);
#396=B_SPLINE_CURVE_WITH_KNOTS('',3,(#895,#896,#897,#898,#899,#900,#901),.UNSPECIFIED.,.F.,.F.,(4,1,1,1,4),(0.,0.00496245283039865,0.0099249056607973,0.014887358491196,0.0198498113215946),.UNSPECIFIED.);
#397=B_SPLINE_CURVE_WITH_KNOTS('',3,(#905,#906,#907,#908,#909,#910,#911),.UNSPECIFIED.,.F.,.F.,(4,1,1,1,4),(0.,0.00494550502233301,0.00989101004466602,0.014836515066999,0.019782020089332),.UNSPECIFIED.);
#398=B_SPLINE_CURVE_WITH_KNOTS('',3,(#923,#924,#925,#926,#927,#928,#929,#930,#931,#932,#933),.UNSPECIFIED.,.T.,.F.,(1,1,1,1,1,1,1,1,1,1,1,1,1,1,1),(-0.00491965070068809,-0.00327976713379206,-0.00163988356689603,1.73472347597681E-18,0.00163988356689603,0.00327976713379206,0.00491965070068809,0.00655953426758412,0.00819941783448016,0.00983930140137619,0.0114791849682722,0.0131190685351682,0.0147589521020643,0.0163988356689603,0.0180387192358563),.UNSPECIFIED.);
#399=B_SPLINE_CURVE_WITH_KNOTS('',3,(#936,#937,#938,#939),.UNSPECIFIED.,.F.,.F.,(4,4),(0.,0.000875557438434868),.UNSPECIFIED.);
#400=B_SPLINE_CURVE_WITH_KNOTS('',3,(#941,#942,#943,#944),.UNSPECIFIED.,.F.,.F.,(4,4),(7.94192707588542E-17,0.000897672539165204),.UNSPECIFIED.);
#401=B_SPLINE_CURVE_WITH_KNOTS('',3,(#946,#947,#948,#949,#950),.UNSPECIFIED.,.F.,.F.,(4,1,4),(0.,0.003271634629113,0.006543269258226),.UNSPECIFIED.);
#402=B_SPLINE_CURVE_WITH_KNOTS('',3,(#953,#954,#955,#956,#957,#958,#959),.UNSPECIFIED.,.F.,.F.,(4,1,1,1,4),(0.,0.00204505787910266,0.00409011575820532,0.00613517363730799,0.00818023151641065),.UNSPECIFIED.);
#403=B_SPLINE_CURVE_WITH_KNOTS('',3,(#961,#962,#963,#964),.UNSPECIFIED.,.F.,.F.,(4,4),(0.,0.000897672539182537),.UNSPECIFIED.);
#404=B_SPLINE_CURVE_WITH_KNOTS('',3,(#966,#967,#968,#969),.UNSPECIFIED.,.F.,.F.,(4,4),(0.00704194209025871,0.00792389945416552),.UNSPECIFIED.);
#405=B_SPLINE_CURVE_WITH_KNOTS('',3,(#973,#974,#975,#976,#977),.UNSPECIFIED.,.F.,.F.,(4,1,4),(0.,0.00329313187946688,0.00658626375893375),.UNSPECIFIED.);
#406=B_SPLINE_CURVE_WITH_KNOTS('',3,(#978,#979,#980,#981,#982),.UNSPECIFIED.,.F.,.F.,(4,1,4),(0.,0.00405532244611994,0.00811064489223988),.UNSPECIFIED.);
#407=B_SPLINE_CURVE_WITH_KNOTS('',3,(#1049,#1050,#1051,#1052,#1053),.UNSPECIFIED.,.F.,.F.,(4,1,4),(0.,0.00350100487889459,0.00700200975778918),.UNSPECIFIED.);
#408=B_SPLINE_CURVE_WITH_KNOTS('',3,(#1105,#1106,#1107,#1108,#1109),.UNSPECIFIED.,.F.,.F.,(4,1,4),(1.56125112837913E-17,0.00350119044699594,0.00700238089399186),.UNSPECIFIED.);
#409=B_SPLINE_CURVE_WITH_KNOTS('',3,(#1233,#1234,#1235,#1236),.UNSPECIFIED.,.F.,.F.,(4,4),(0.,0.000630731876204007),.UNSPECIFIED.);
#410=B_SPLINE_CURVE_WITH_KNOTS('',3,(#1279,#1280,#1281,#1282),.UNSPECIFIED.,.F.,.F.,(4,4),(0.,0.00063073187618311),.UNSPECIFIED.);
#411=EDGE_LOOP('',(#102,#103,#104,#105,#106,#107,#108,#109,#110,#111));
#412=EDGE_LOOP('',(#112,#113));
#413=EDGE_LOOP('',(#114,#115,#116,#117,#118,#119));
#414=EDGE_LOOP('',(#120,#121,#122,#123,#124,#125,#126,#127));
#415=EDGE_LOOP('',(#128,#129,#130,#131));
#416=EDGE_LOOP('',(#132,#133,#134,#135));
#417=EDGE_LOOP('',(#136,#137,#138,#139));
#418=EDGE_LOOP('',(#140,#141));
#419=EDGE_LOOP('',(#142));
#420=EDGE_LOOP('',(#143,#144,#145,#146));
#421=EDGE_LOOP('',(#147));
#422=EDGE_LOOP('',(#148,#149,#150,#151));
#423=EDGE_LOOP('',(#152,#153,#154));
#424=EDGE_LOOP('',(#155,#156,#157,#158,#159));
#425=EDGE_LOOP('',(#160,#161,#162));
#426=EDGE_LOOP('',(#163,#164,#165,#166,#167));
#427=EDGE_LOOP('',(#168,#169,#170,#171));
#428=EDGE_LOOP('',(#172,#173,#174,#175));
#429=EDGE_LOOP('',(#176,#177,#178,#179,#180));
#430=EDGE_LOOP('',(#181,#182,#183,#184));
#431=EDGE_LOOP('',(#185,#186,#187,#188));
#432=EDGE_LOOP('',(#189,#190,#191,#192));
#433=EDGE_LOOP('',(#193,#194,#195,#196,#197));
#434=EDGE_LOOP('',(#198,#199,#200,#201));
#435=EDGE_LOOP('',(#202,#203,#204,#205));
#436=EDGE_LOOP('',(#206,#207,#208,#209));
#437=EDGE_LOOP('',(#210,#211,#212,#213));
#438=EDGE_LOOP('',(#214,#215,#216,#217));
#439=EDGE_LOOP('',(#218,#219,#220,#221));
#440=EDGE_LOOP('',(#222,#223,#224,#225));
#441=EDGE_LOOP('',(#226,#227,#228,#229,#230));
#442=EDGE_LOOP('',(#231,#232,#233,#234));
#443=EDGE_LOOP('',(#235,#236,#237,#238));
#444=EDGE_LOOP('',(#239,#240,#241,#242,#243));
#445=EDGE_LOOP('',(#244,#245,#246,#247));
#446=EDGE_LOOP('',(#248,#249,#250,#251));
#447=EDGE_LOOP('',(#252));
#448=EDGE_LOOP('',(#253));
#449=FACE_BOUND('',#411,.T.);
#450=FACE_BOUND('',#412,.T.);
#451=FACE_BOUND('',#413,.T.);
#452=FACE_BOUND('',#414,.T.);
#453=FACE_BOUND('',#415,.T.);
#454=FACE_BOUND('',#416,.T.);
#455=FACE_BOUND('',#417,.T.);
#456=FACE_BOUND('',#418,.T.);
#457=FACE_BOUND('',#419,.T.);
#458=FACE_BOUND('',#420,.T.);
#459=FACE_BOUND('',#421,.T.);
#460=FACE_BOUND('',#422,.T.);
#461=FACE_BOUND('',#423,.T.);
#462=FACE_BOUND('',#424,.T.);
#463=FACE_BOUND('',#425,.T.);
#464=FACE_BOUND('',#426,.T.);
#465=FACE_BOUND('',#427,.T.);
#466=FACE_BOUND('',#428,.T.);
#467=FACE_BOUND('',#429,.T.);
#468=FACE_BOUND('',#430,.T.);
#469=FACE_BOUND('',#431,.T.);
#470=FACE_BOUND('',#432,.T.);
#471=FACE_BOUND('',#433,.T.);
#472=FACE_BOUND('',#434,.T.);
#473=FACE_BOUND('',#435,.T.);
#474=FACE_BOUND('',#436,.T.);
#475=FACE_BOUND('',#437,.T.);
#476=FACE_BOUND('',#438,.T.);
#477=FACE_BOUND('',#439,.T.);
#478=FACE_BOUND('',#440,.T.);
#479=FACE_BOUND('',#441,.T.);
#480=FACE_BOUND('',#442,.T.);
#481=FACE_BOUND('',#443,.T.);
#482=FACE_BOUND('',#444,.T.);
#483=FACE_BOUND('',#445,.T.);
#484=FACE_BOUND('',#446,.T.);
#485=FACE_BOUND('',#447,.T.);
#486=FACE_BOUND('',#448,.T.);
#487=B_SPLINE_SURFACE_WITH_KNOTS('',3,1,((#682,#683),(#684,#685),(#686,
#687),(#688,#689),(#690,#691),(#692,#693),(#694,#695),(#696,#697),(#698,
#699),(#700,#701),(#702,#703)),.SURF_OF_LINEAR_EXTRUSION.,.F.,.F.,.F.,(4,1,1,1,1,1,1,1,4),(2,2),(0.,0.12303713765458,0.246074275309159,0.369111412963739,0.492148550618318,0.615185688272898,0.738222825927477,0.861259963582057,0.984297101236636),(0.,1.),.UNSPECIFIED.);
#488=B_SPLINE_SURFACE_WITH_KNOTS('',3,1,((#797,#798),(#799,#800),(#801,
#802),(#803,#804),(#805,#806),(#807,#808),(#809,#810),(#811,#812),(#813,
#814)),.SURF_OF_LINEAR_EXTRUSION.,.F.,.F.,.F.,(4,1,1,1,1,1,4),(2,2),(0.0903158045426264,0.293474091411796,0.496632378280966,0.598211521715551,0.699790665150135,0.80136980858472,0.902948952019305),(0.,1.),.UNSPECIFIED.);
#489=ADVANCED_FACE('',(#449,#450),#487,.F.);
#490=ADVANCED_FACE('',(#451),#62,.F.);
#491=ADVANCED_FACE('',(#452),#488,.T.);
#492=ADVANCED_FACE('',(#453),#63,.F.);
#493=ADVANCED_FACE('',(#454),#64,.T.);
#494=ADVANCED_FACE('',(#455),#65,.F.);
#495=ADVANCED_FACE('',(#456),#66,.T.);
#496=ADVANCED_FACE('',(#457,#458),#67,.F.);
#497=ADVANCED_FACE('',(#459,#460),#28,.T.);
#498=ADVANCED_FACE('',(#461),#29,.T.);
#499=ADVANCED_FACE('',(#462),#30,.T.);
#500=ADVANCED_FACE('',(#463),#31,.T.);
#501=ADVANCED_FACE('',(#464),#32,.T.);
#502=ADVANCED_FACE('',(#465),#14,.T.);
#503=ADVANCED_FACE('',(#466),#15,.T.);
#504=ADVANCED_FACE('',(#467),#16,.T.);
#505=ADVANCED_FACE('',(#468),#33,.T.);
#506=ADVANCED_FACE('',(#469),#34,.T.);
#507=ADVANCED_FACE('',(#470),#17,.T.);
#508=ADVANCED_FACE('',(#471),#18,.T.);
#509=ADVANCED_FACE('',(#472),#19,.T.);
#510=ADVANCED_FACE('',(#473),#20,.T.);
#511=ADVANCED_FACE('',(#474),#35,.T.);
#512=ADVANCED_FACE('',(#475),#21,.T.);
#513=ADVANCED_FACE('',(#476),#22,.T.);
#514=ADVANCED_FACE('',(#477),#23,.T.);
#515=ADVANCED_FACE('',(#478),#24,.T.);
#516=ADVANCED_FACE('',(#479),#25,.T.);
#517=ADVANCED_FACE('',(#480),#26,.T.);
#518=ADVANCED_FACE('',(#481),#12,.T.);
#519=ADVANCED_FACE('',(#482),#27,.T.);
#520=ADVANCED_FACE('',(#483),#36,.T.);
#521=ADVANCED_FACE('',(#484),#13,.T.);
#522=ADVANCED_FACE('',(#485,#486),#37,.F.);
#523=CLOSED_SHELL('',(#489,#490,#491,#492,#493,#494,#495,#496,#497,#498,#499,#500,#501,#502,#503,#504,#505,#506,#507,#508,#509,#510,#511,#512,#513,#514,#515,#516,#517,#518,#519,#520,#521,#522));
#524=STYLED_ITEM('',(#525),#532);
#525=PRESENTATION_STYLE_ASSIGNMENT((#526));
#526=SURFACE_STYLE_USAGE(.BOTH.,#527);
#527=SURFACE_SIDE_STYLE('',(#528));
#528=SURFACE_STYLE_FILL_AREA(#529);
#529=FILL_AREA_STYLE('',(#530));
#530=FILL_AREA_STYLE_COLOUR('',#531);
#531=COLOUR_RGB('',0.972549019607843,0.529411764705882,0.00392156862745098);
#532=MANIFOLD_SOLID_BREP('Perinium Pad',#523);
#533=SHAPE_DEFINITION_REPRESENTATION(#1293,#534);
#534=SHAPE_REPRESENTATION('Perinium Pad',(#535),#1288);
#535=AXIS2_PLACEMENT_3D('',#681,#578,#579);
#536=AXIS2_PLACEMENT_3D('',#781,#582,#583);
#537=AXIS2_PLACEMENT_3D('',#787,#584,#585);
#538=AXIS2_PLACEMENT_3D('',#791,#587,#588);
#539=AXIS2_PLACEMENT_3D('',#861,#591,#592);
#540=AXIS2_PLACEMENT_3D('',#870,#597,#598);
#541=AXIS2_PLACEMENT_3D('',#891,#601,#602);
#542=AXIS2_PLACEMENT_3D('',#912,#605,#606);
#543=AXIS2_PLACEMENT_3D('',#916,#608,#609);
#544=AXIS2_PLACEMENT_3D('',#917,#610,#611);
#545=AXIS2_PLACEMENT_3D('',#918,#612,#613);
#546=AXIS2_PLACEMENT_3D('',#922,#616,#617);
#547=AXIS2_PLACEMENT_3D('',#935,#618,#619);
#548=AXIS2_PLACEMENT_3D('',#945,#620,#621);
#549=AXIS2_PLACEMENT_3D('',#952,#622,#623);
#550=AXIS2_PLACEMENT_3D('',#960,#624,#625);
#551=AXIS2_PLACEMENT_3D('',#970,#626,#627);
#552=AXIS2_PLACEMENT_3D('',#971,#628,#629);
#553=AXIS2_PLACEMENT_3D('',#1004,#630,#631);
#554=AXIS2_PLACEMENT_3D('',#1005,#632,#633);
#555=AXIS2_PLACEMENT_3D('',#1027,#634,#635);
#556=AXIS2_PLACEMENT_3D('',#1055,#636,#637);
#557=AXIS2_PLACEMENT_3D('',#1056,#638,#639);
#558=AXIS2_PLACEMENT_3D('',#1057,#640,#641);
#559=AXIS2_PLACEMENT_3D('',#1058,#642,#643);
#560=AXIS2_PLACEMENT_3D('',#1061,#645,#646);
#561=AXIS2_PLACEMENT_3D('',#1083,#647,#648);
#562=AXIS2_PLACEMENT_3D('',#1110,#649,#650);
#563=AXIS2_PLACEMENT_3D('',#1147,#651,#652);
#564=AXIS2_PLACEMENT_3D('',#1148,#653,#654);
#565=AXIS2_PLACEMENT_3D('',#1149,#655,#656);
#566=AXIS2_PLACEMENT_3D('',#1150,#657,#658);
#567=AXIS2_PLACEMENT_3D('',#1163,#659,#660);
#568=AXIS2_PLACEMENT_3D('',#1179,#661,#662);
#569=AXIS2_PLACEMENT_3D('',#1201,#663,#664);
#570=AXIS2_PLACEMENT_3D('',#1214,#665,#666);
#571=AXIS2_PLACEMENT_3D('',#1258,#667,#668);
#572=AXIS2_PLACEMENT_3D('',#1259,#669,#670);
#573=AXIS2_PLACEMENT_3D('',#1260,#671,#672);
#574=AXIS2_PLACEMENT_3D('',#1283,#673,#674);
#575=AXIS2_PLACEMENT_3D('',#1284,#675,#676);
#576=AXIS2_PLACEMENT_3D('',#1285,#677,#678);
#577=AXIS2_PLACEMENT_3D('',#1286,#679,#680);
#578=DIRECTION('',(0.,0.,1.));
#579=DIRECTION('',(1.,0.,0.));
#580=DIRECTION('',(0.,1.,0.));
#581=DIRECTION('',(0.,1.,0.));
#582=DIRECTION('',(0.,0.,1.));
#583=DIRECTION('',(1.,0.,0.));
#584=DIRECTION('',(0.,0.,1.));
#585=DIRECTION('',(1.,0.,0.));
#586=DIRECTION('',(0.,1.,0.));
#587=DIRECTION('',(0.,0.,1.));
#588=DIRECTION('',(1.,0.,0.));
#589=DIRECTION('',(0.,1.,0.));
#590=DIRECTION('',(0.,1.,0.));
#591=DIRECTION('',(1.,0.,0.));
#592=DIRECTION('',(0.,0.,-1.));
#593=DIRECTION('',(0.,0.,-1.));
#594=DIRECTION('',(0.,1.,0.));
#595=DIRECTION('',(0.,0.,-1.));
#596=DIRECTION('',(0.,-1.,0.));
#597=DIRECTION('',(0.,-1.,0.));
#598=DIRECTION('',(1.,0.,0.));
#599=DIRECTION('',(0.,0.,-1.));
#600=DIRECTION('',(0.,0.,-1.));
#601=DIRECTION('',(0.,-1.,0.));
#602=DIRECTION('',(1.,0.,0.));
#603=DIRECTION('',(0.,0.,-1.));
#604=DIRECTION('',(0.,0.,-1.));
#605=DIRECTION('',(0.,0.,-1.));
#606=DIRECTION('',(1.,0.,0.));
#607=DIRECTION('',(1.,0.,0.));
#608=DIRECTION('',(0.,0.,-1.));
#609=DIRECTION('',(-1.,0.,0.));
#610=DIRECTION('',(0.,1.,0.));
#611=DIRECTION('',(0.,0.,1.));
#612=DIRECTION('',(0.,1.,0.));
#613=DIRECTION('',(0.,0.,1.));
#614=DIRECTION('',(0.,0.,-1.));
#615=DIRECTION('',(0.,0.,-1.));
#616=DIRECTION('',(0.,0.,-1.));
#617=DIRECTION('',(-1.,0.,0.));
#618=DIRECTION('',(0.,0.,1.));
#619=DIRECTION('',(1.,0.,0.));
#620=DIRECTION('',(0.,0.,-1.));
#621=DIRECTION('',(-1.,0.,0.));
#622=DIRECTION('',(0.,0.,1.));
#623=DIRECTION('',(1.,0.,0.));
#624=DIRECTION('',(0.,0.,-1.));
#625=DIRECTION('',(-1.,0.,0.));
#626=DIRECTION('',(0.,0.,1.));
#627=DIRECTION('',(1.,0.,0.));
#628=DIRECTION('',(0.,0.,1.));
#629=DIRECTION('',(1.,0.,0.));
#630=DIRECTION('',(0.95601432997114,-1.1835080873336E-14,0.293319963333272));
#631=DIRECTION('',(0.293319963333272,0.,-0.95601432997114));
#632=DIRECTION('',(-0.818323020610754,0.,-0.57475858752914));
#633=DIRECTION('',(-0.57475858752914,0.,0.818323020610754));
#634=DIRECTION('',(0.,1.,-9.00258652494505E-16));
#635=DIRECTION('',(0.,9.00258652494505E-16,1.));
#636=DIRECTION('',(0.,1.,0.));
#637=DIRECTION('',(0.,0.,1.));
#638=DIRECTION('',(0.,1.,0.));
#639=DIRECTION('',(0.,0.,1.));
#640=DIRECTION('',(0.,1.,0.));
#641=DIRECTION('',(0.,0.,1.));
#642=DIRECTION('',(0.,1.,0.));
#643=DIRECTION('',(0.,0.,1.));
#644=DIRECTION('',(0.,1.,0.));
#645=DIRECTION('',(1.38777878078143E-15,1.,2.78342426189514E-16));
#646=DIRECTION('',(-1.,1.38777878078143E-15,0.));
#647=DIRECTION('',(0.818323020610754,0.,0.574758587529139));
#648=DIRECTION('',(0.574758587529139,0.,-0.818323020610754));
#649=DIRECTION('',(-0.956014329971148,8.77454484972864E-15,-0.293319963333247));
#650=DIRECTION('',(-0.293319963333247,0.,0.956014329971148));
#651=DIRECTION('',(-0.949340777895522,0.166421128384614,-0.266563492346416));
#652=DIRECTION('',(-0.27033335332889,0.,0.962766782807736));
#653=DIRECTION('',(-1.29886744995664E-14,-1.,-8.15925941952896E-16));
#654=DIRECTION('',(1.,-1.29886744995664E-14,0.));
#655=DIRECTION('',(0.,1.,0.));
#656=DIRECTION('',(0.,0.,1.));
#657=DIRECTION('',(0.,-1.,0.));
#658=DIRECTION('',(0.,0.,-1.));
#659=DIRECTION('',(-0.955766357370309,0.,-0.294126962584342));
#660=DIRECTION('',(-0.294126962584342,0.,0.955766357370309));
#661=DIRECTION('',(-0.949340777895215,-0.166421128387976,-0.266563492345408));
#662=DIRECTION('',(-0.270333353328024,0.,0.962766782807979));
#663=DIRECTION('',(-0.817269584697253,0.,-0.576255521386806));
#664=DIRECTION('',(-0.576255521386806,0.,0.817269584697253));
#665=DIRECTION('',(-0.955766357370325,1.40287586422278E-14,-0.294126962584289));
#666=DIRECTION('',(-0.294126962584289,0.,0.955766357370325));
#667=DIRECTION('',(-0.817269584697253,-9.9964398111095E-15,-0.576255521386806));
#668=DIRECTION('',(-0.576255521386806,0.,0.817269584697253));
#669=DIRECTION('',(0.,0.,1.));
#670=DIRECTION('',(1.,0.,0.));
#671=DIRECTION('',(0.,-1.,0.));
#672=DIRECTION('',(0.,0.,-1.));
#673=DIRECTION('',(0.,1.,0.));
#674=DIRECTION('',(0.,0.,1.));
#675=DIRECTION('',(0.,-1.,0.));
#676=DIRECTION('',(0.,0.,-1.));
#677=DIRECTION('',(0.,0.,1.));
#678=DIRECTION('',(1.,0.,0.));
#679=DIRECTION('',(-2.16840434497101E-16,-1.,0.));
#680=DIRECTION('',(1.,-2.16840434497101E-16,0.));
#681=CARTESIAN_POINT('',(0.,0.,0.));
#682=CARTESIAN_POINT('',(0.03,-0.0136,0.014));
#683=CARTESIAN_POINT('',(0.03,0.0136,0.014));
#684=CARTESIAN_POINT('',(0.0307838117072549,-0.0136,0.0147232204260907));
#685=CARTESIAN_POINT('',(0.0307838117072549,0.0136,0.0147232204260907));
#686=CARTESIAN_POINT('',(0.0324608671152475,-0.0136,0.016172891518578));
#687=CARTESIAN_POINT('',(0.0324608671152475,0.0136,0.016172891518578));
#688=CARTESIAN_POINT('',(0.0353695221240054,-0.0136,0.0182857848160043));
#689=CARTESIAN_POINT('',(0.0353695221240054,0.0136,0.0182857848160043));
#690=CARTESIAN_POINT('',(0.0387795000440403,-0.0136,0.0202592745318393));
#691=CARTESIAN_POINT('',(0.0387795000440403,0.0136,0.0202592745318393));
#692=CARTESIAN_POINT('',(0.0426257216347968,-0.0136,0.0220413092320445));
#693=CARTESIAN_POINT('',(0.0426257216347968,0.0136,0.0220413092320445));
#694=CARTESIAN_POINT('',(0.0465669015347182,-0.0136,0.0236162420067267));
#695=CARTESIAN_POINT('',(0.0465669015347182,0.0136,0.0236162420067267));
#696=CARTESIAN_POINT('',(0.0502735946798277,-0.0136,0.024978764794719));
#697=CARTESIAN_POINT('',(0.0502735946798277,0.0136,0.024978764794719));
#698=CARTESIAN_POINT('',(0.0535709309582897,-0.0136,0.0260514145542545));
#699=CARTESIAN_POINT('',(0.0535709309582897,0.0136,0.0260514145542545));
#700=CARTESIAN_POINT('',(0.0556148573196299,-0.0136,0.0264189276798192));
#701=CARTESIAN_POINT('',(0.0556148573196299,0.0136,0.0264189276798192));
#702=CARTESIAN_POINT('',(0.0566171239849194,-0.0136,0.0264818883285746));
#703=CARTESIAN_POINT('',(0.0566171239849194,0.0136,0.0264818883285746));
#704=CARTESIAN_POINT('',(0.0521176507850337,-0.0136,0.0255643368607261));
#705=CARTESIAN_POINT('',(0.050544499800289,-0.0136,0.0250802163252379));
#706=CARTESIAN_POINT('',(0.0474580662439942,-0.0136,0.0239520309297143));
#707=CARTESIAN_POINT('',(0.0428660547831775,-0.0136,0.0221571162614526));
#708=CARTESIAN_POINT('',(0.0383800835639311,-0.0136,0.0200849803882728));
#709=CARTESIAN_POINT('',(0.0355763704345633,-0.0136,0.0183844338703115));
#710=CARTESIAN_POINT('',(0.0342305022085548,-0.0136,0.0174354642636868));
#711=CARTESIAN_POINT('',(0.0521176507850337,-0.0136,0.0255643368607261));
#712=CARTESIAN_POINT('',(0.0342305022085547,-0.0136,0.0174354642636867));
#713=CARTESIAN_POINT('',(0.0342305022085547,-0.0136,0.0174354642636867));
#714=CARTESIAN_POINT('',(0.0333431552680455,-0.0135999999999989,0.0168097973069715));
#715=CARTESIAN_POINT('',(0.0320761768011187,-0.0132182062928152,0.0158266883261973));
#716=CARTESIAN_POINT('',(0.030708960331027,-0.0120316453246159,0.0146482977866086));
#717=CARTESIAN_POINT('',(0.0301867272105598,-0.011178653725847,0.0141722951301566));
#718=CARTESIAN_POINT('',(0.03,-0.0107077497317471,0.014));
#719=CARTESIAN_POINT('',(0.03,-0.0107077497317471,0.014));
#720=CARTESIAN_POINT('',(0.03,-0.014,0.014));
#721=CARTESIAN_POINT('',(0.03,0.0107077497317471,0.014));
#722=CARTESIAN_POINT('',(0.03,0.0107077497317471,0.014));
#723=CARTESIAN_POINT('',(0.0303804085359806,0.0116670951771481,0.0143510068940834));
#724=CARTESIAN_POINT('',(0.0316606455020084,0.0130966678887694,0.0155058500931663));
#725=CARTESIAN_POINT('',(0.0333431554196151,0.0136,0.0168097974138667));
#726=CARTESIAN_POINT('',(0.0342305022085547,0.0136,0.0174354642636867));
#727=CARTESIAN_POINT('',(0.0342305022085547,0.0136,0.0174354642636867));
#728=CARTESIAN_POINT('',(0.0342305022085547,0.0136,0.0174354642636867));
#729=CARTESIAN_POINT('',(0.0355786612618763,0.0136,0.0183860491291461));
#730=CARTESIAN_POINT('',(0.0383829260593973,0.0136,0.0200860741662984));
#731=CARTESIAN_POINT('',(0.042857374186432,0.0136,0.0221533536975112));
#732=CARTESIAN_POINT('',(0.0474553533851107,0.0136,0.0239511803277427));
#733=CARTESIAN_POINT('',(0.0505450749133945,0.0136,0.025080393310096));
#734=CARTESIAN_POINT('',(0.0521176507850337,0.0136,0.0255643368607261));
#735=CARTESIAN_POINT('',(0.0521176507850338,0.0136,0.0255643368607261));
#736=CARTESIAN_POINT('',(0.0521176507850338,0.0136,0.0255643368607261));
#737=CARTESIAN_POINT('',(0.0523801791763644,0.0135999999999987,0.0256451271895784));
#738=CARTESIAN_POINT('',(0.0526417215925103,0.013577230973669,0.0257224616999681));
#739=CARTESIAN_POINT('',(0.0529024095412457,0.013530907780815,0.0257956597460707));
#740=CARTESIAN_POINT('',(0.0529024095412457,0.0135309077808152,0.0257956597460707));
#741=CARTESIAN_POINT('',(0.0529024095412457,0.0135309077808152,0.0257956597460707));
#742=CARTESIAN_POINT('',(0.0539271280493888,0.0133488194514301,0.0260833883999729));
#743=CARTESIAN_POINT('',(0.0558529863562391,0.0122107901638727,0.026464445577466));
#744=CARTESIAN_POINT('',(0.0566171239849195,0.0100794385258444,0.0264818883285746));
#745=CARTESIAN_POINT('',(0.0566171239849195,0.009,0.0264818883285746));
#746=CARTESIAN_POINT('',(0.0566171239849194,0.009,0.0264818883285745));
#747=CARTESIAN_POINT('',(0.0566171239849194,0.009,0.0264818883285745));
#748=CARTESIAN_POINT('',(0.0566171239849195,-0.009,0.0264818883285745));
#749=CARTESIAN_POINT('',(0.0566171239849195,-0.009,0.0264818883285745));
#750=CARTESIAN_POINT('',(0.0566171239849195,-0.0100797527844854,0.0264818883285745));
#751=CARTESIAN_POINT('',(0.0558511604284335,-0.0122127480572216,0.0264641744362331));
#752=CARTESIAN_POINT('',(0.0539273338291658,-0.013348782885202,0.0260834461805514));
#753=CARTESIAN_POINT('',(0.0529024095412606,-0.0135309077808123,0.0257956597460748));
#754=CARTESIAN_POINT('',(0.0529024095412606,-0.0135309077808123,0.0257956597460748));
#755=CARTESIAN_POINT('',(0.0529024095412606,-0.0135309077808123,0.0257956597460748));
#756=CARTESIAN_POINT('',(0.0526417215925144,-0.0135772309736714,0.0257224616999919));
#757=CARTESIAN_POINT('',(0.0523801791763649,-0.0136,0.0256451271895956));
#758=CARTESIAN_POINT('',(0.0521176507850337,-0.0136,0.0255643368607261));
#759=CARTESIAN_POINT('',(0.03,-0.004,0.014));
#760=CARTESIAN_POINT('',(0.0320531690379246,-0.004,0.0158944521658708));
#761=CARTESIAN_POINT('',(0.0372928372739559,-0.004,0.0200139609658726));
#762=CARTESIAN_POINT('',(0.0488247032394763,-0.004,0.0245418954948625));
#763=CARTESIAN_POINT('',(0.0545388494334679,-0.004,0.0264224128315926));
#764=CARTESIAN_POINT('',(0.057,-0.004,0.0265));
#765=CARTESIAN_POINT('',(0.035,-0.004,0.0179640798096857));
#766=CARTESIAN_POINT('',(0.041,-0.004,0.021273982597363));
#767=CARTESIAN_POINT('',(0.035,-0.004,0.0179640798096857));
#768=CARTESIAN_POINT('',(0.0346073452389684,-0.00370550892922627,0.0177013664718582));
#769=CARTESIAN_POINT('',(0.0339066846265984,-0.00300407481328432,0.0172113032557964));
#770=CARTESIAN_POINT('',(0.0331659971053987,-0.0015897917351599,0.0166593707065201));
#771=CARTESIAN_POINT('',(0.0329061520877371,6.65490262004933E-05,0.0164584401257201));
#772=CARTESIAN_POINT('',(0.0332120523659666,0.0017229229081738,0.0166945788018038));
#773=CARTESIAN_POINT('',(0.0339847810565861,0.00310773865162219,0.0172677762794807));
#774=CARTESIAN_POINT('',(0.0354335090572764,0.00448280114294557,0.0182753406825264));
#775=CARTESIAN_POINT('',(0.0377633586992406,0.00527549201136813,0.0197034459495686));
#776=CARTESIAN_POINT('',(0.0407668048240714,0.0045492676406824,0.0211913930499381));
#777=CARTESIAN_POINT('',(0.0429852961400213,0.00201975245079779,0.0221570650640846));
#778=CARTESIAN_POINT('',(0.0431614213804196,-0.00152440678381454,0.0222297903219865));
#779=CARTESIAN_POINT('',(0.041838522725821,-0.00337110795563449,0.0216615056873114));
#780=CARTESIAN_POINT('',(0.041,-0.00400000000000019,0.021273982597363));
#781=CARTESIAN_POINT('',(0.0295,-0.014,0.014));
#782=CARTESIAN_POINT('',(0.03,-0.0107077497317471,0.014));
#783=CARTESIAN_POINT('',(0.0300000000000015,-0.0108315165167001,0.014));
#784=CARTESIAN_POINT('',(0.0299903023473976,-0.0109849676354264,0.014));
#785=CARTESIAN_POINT('',(0.0298766019561422,-0.0110390165697974,0.014));
#786=CARTESIAN_POINT('',(0.0298766019561419,-0.011039016569797,0.014));
#787=CARTESIAN_POINT('',(0.034,-0.009,0.014));
#788=CARTESIAN_POINT('',(0.0294,-0.009,0.014));
#789=CARTESIAN_POINT('',(0.0294,-0.014,0.014));
#790=CARTESIAN_POINT('',(0.0294,0.009,0.014));
#791=CARTESIAN_POINT('',(0.034,0.009,0.014));
#792=CARTESIAN_POINT('',(0.0298766019561419,0.011039016569797,0.014));
#793=CARTESIAN_POINT('',(0.0298766019561419,0.011039016569797,0.014));
#794=CARTESIAN_POINT('',(0.0299899982273677,0.0109851122027696,0.014));
#795=CARTESIAN_POINT('',(0.03,0.0108316676678867,0.014));
#796=CARTESIAN_POINT('',(0.03,0.0107077497317471,0.014));
#797=CARTESIAN_POINT('',(0.029907206277574,-0.0115000000000001,0.0179029032101983));
#798=CARTESIAN_POINT('',(0.029907206277574,0.0115,0.0179029032101983));
#799=CARTESIAN_POINT('',(0.0314473879648402,-0.0115000000000001,0.0191760208599722));
#800=CARTESIAN_POINT('',(0.0314473879648402,0.0115,0.0191760208599722));
#801=CARTESIAN_POINT('',(0.0349302969297925,-0.0115000000000001,0.0217147962786252));
#802=CARTESIAN_POINT('',(0.0349302969297925,0.0115,0.0217147962786252));
#803=CARTESIAN_POINT('',(0.0404835792518984,-0.0115000000000001,0.0244043297599925));
#804=CARTESIAN_POINT('',(0.0404835792518984,0.0115,0.0244043297599925));
#805=CARTESIAN_POINT('',(0.0449411339149523,-0.0115000000000001,0.0262021057191269));
#806=CARTESIAN_POINT('',(0.0449411339149523,0.0115,0.0262021057191269));
#807=CARTESIAN_POINT('',(0.0481138387839973,-0.0115000000000001,0.0273797753255732));
#808=CARTESIAN_POINT('',(0.0481138387839973,0.0115,0.0273797753255732));
#809=CARTESIAN_POINT('',(0.0510566361876496,-0.0115000000000001,0.028414390553343));
#810=CARTESIAN_POINT('',(0.0510566361876496,0.0115,0.028414390553343));
#811=CARTESIAN_POINT('',(0.0530154122529099,-0.0115000000000001,0.0289505295595459));
#812=CARTESIAN_POINT('',(0.0530154122529099,0.0115,0.0289505295595459));
#813=CARTESIAN_POINT('',(0.0540083737088158,-0.0115000000000001,0.0291496847163886));
#814=CARTESIAN_POINT('',(0.0540083737088158,0.0115,0.0291496847163886));
#815=CARTESIAN_POINT('',(0.0540083737088159,0.009,0.0291496847163886));
#816=CARTESIAN_POINT('',(0.0540083737088159,0.00970547610897139,0.0291496847163886));
#817=CARTESIAN_POINT('',(0.0532938917656349,0.0110288710190653,0.0290141219741917));
#818=CARTESIAN_POINT('',(0.0519388207128206,0.0115,0.0286475137368471));
#819=CARTESIAN_POINT('',(0.0512667000916669,0.0115,0.0284412967484906));
#820=CARTESIAN_POINT('',(0.0540083737088158,0.009,0.0291496847163886));
#821=CARTESIAN_POINT('',(0.0512667000916669,0.0115,0.0284412967484906));
#822=CARTESIAN_POINT('',(0.0512667000916669,0.0115,0.0284412967484906));
#823=CARTESIAN_POINT('',(0.0496202392826095,0.0115,0.0279361371405211));
#824=CARTESIAN_POINT('',(0.0463910884043893,0.0115,0.0267579210847754));
#825=CARTESIAN_POINT('',(0.0415834137121613,0.0115,0.0248751766177966));
#826=CARTESIAN_POINT('',(0.0369082857932334,0.0115,0.022703307526877));
#827=CARTESIAN_POINT('',(0.033975405450641,0.0115,0.0209224004543436));
#828=CARTESIAN_POINT('',(0.0325631035311772,0.0115,0.0199304539540607));
#829=CARTESIAN_POINT('',(0.0325631035311772,0.0115,0.0199304539540607));
#830=CARTESIAN_POINT('',(0.0325631035311772,0.0115,0.0199304539540608));
#831=CARTESIAN_POINT('',(0.0319314573993964,0.0115000000000001,0.0194868100269356));
#832=CARTESIAN_POINT('',(0.031015513511073,0.0112023987925904,0.0188002822475305));
#833=CARTESIAN_POINT('',(0.0301088184070246,0.0101461737787374,0.0180705722753746));
#834=CARTESIAN_POINT('',(0.029907206277575,0.0093892338225393,0.0179029032101992));
#835=CARTESIAN_POINT('',(0.029907206277575,0.009,0.0179029032101992));
#836=CARTESIAN_POINT('',(0.029907206277575,0.009,0.0179029032101992));
#837=CARTESIAN_POINT('',(0.029907206277575,0.009,0.0179029032101992));
#838=CARTESIAN_POINT('',(0.029907206277575,-0.009,0.0179029032101992));
#839=CARTESIAN_POINT('',(0.029907206277575,-0.009,0.0179029032101992));
#840=CARTESIAN_POINT('',(0.029907206277575,-0.00938871545188271,0.0179029032101992));
#841=CARTESIAN_POINT('',(0.0301061518937134,-0.0101389661076175,0.0180683404440628));
#842=CARTESIAN_POINT('',(0.0310084842602143,-0.011199669947258,0.0187948717675845));
#843=CARTESIAN_POINT('',(0.0319318099117177,-0.0115,0.0194870576180199));
#844=CARTESIAN_POINT('',(0.0325631035311772,-0.0115,0.0199304539540607));
#845=CARTESIAN_POINT('',(0.0325631035311772,-0.0115,0.0199304539540607));
#846=CARTESIAN_POINT('',(0.0325631035311772,-0.0115,0.0199304539540608));
#847=CARTESIAN_POINT('',(0.0339749566815359,-0.0115,0.0209220852562003));
#848=CARTESIAN_POINT('',(0.0369071207408214,-0.0115,0.0227027094209199));
#849=CARTESIAN_POINT('',(0.0415828454837462,-0.0115,0.0248749173978593));
#850=CARTESIAN_POINT('',(0.0463892971803779,-0.0115,0.0267573101711557));
#851=CARTESIAN_POINT('',(0.0496218256676071,-0.0115,0.0279366238679412));
#852=CARTESIAN_POINT('',(0.0512667000916669,-0.0115,0.0284412967484906));
#853=CARTESIAN_POINT('',(0.0512667000916669,-0.0115,0.0284412967484906));
#854=CARTESIAN_POINT('',(0.0512667000916669,-0.0115,0.0284412967484906));
#855=CARTESIAN_POINT('',(0.0519389169637187,-0.0115000000000003,0.028647543268109));
#856=CARTESIAN_POINT('',(0.0532899309649703,-0.0110321283514572,0.0290131659442062));
#857=CARTESIAN_POINT('',(0.0540083737088158,-0.00970564016506051,0.0291496847163886));
#858=CARTESIAN_POINT('',(0.0540083737088158,-0.009,0.0291496847163886));
#859=CARTESIAN_POINT('',(0.0540083737088159,-0.009,0.0291496847163886));
#860=CARTESIAN_POINT('',(0.0540083737088158,-0.009,0.0291496847163886));
#861=CARTESIAN_POINT('',(0.029,-0.014,0.0155663768060379));
#862=CARTESIAN_POINT('',(0.029,0.009,0.0155663768060379));
#863=CARTESIAN_POINT('',(0.029,0.009,0.0159759864611403));
#864=CARTESIAN_POINT('',(0.029,0.009,0.0144));
#865=CARTESIAN_POINT('',(0.029,-0.014,0.0144));
#866=CARTESIAN_POINT('',(0.029,-0.009,0.0144));
#867=CARTESIAN_POINT('',(0.029,-0.009,0.0171327536120757));
#868=CARTESIAN_POINT('',(0.029,-0.009,0.0159759864611403));
#869=CARTESIAN_POINT('',(0.029,0.009,0.0159759864611403));
#870=CARTESIAN_POINT('',(0.043,-0.014,0.0217507451725351));
#871=CARTESIAN_POINT('',(0.034,-0.014,0.014));
#872=CARTESIAN_POINT('',(0.034,-0.014,0.0178846464025339));
#873=CARTESIAN_POINT('',(0.034,-0.014,0.0177623720975656));
#874=CARTESIAN_POINT('',(0.034,-0.014,0.0177623720975657));
#875=CARTESIAN_POINT('',(0.0353574280448044,-0.014,0.0187194925145619));
#876=CARTESIAN_POINT('',(0.0381800312773198,-0.014,0.0204319152390363));
#877=CARTESIAN_POINT('',(0.0426830656858944,-0.014,0.0225144275626626));
#878=CARTESIAN_POINT('',(0.0473094459405418,-0.014,0.0243239003401587));
#879=CARTESIAN_POINT('',(0.0504161579788895,-0.014,0.0254592328149982));
#880=CARTESIAN_POINT('',(0.052,-0.014,0.0259466434036742));
#881=CARTESIAN_POINT('',(0.052,-0.014,0.0259466434036742));
#882=CARTESIAN_POINT('',(0.052,-0.014,0.0217507451725351));
#883=CARTESIAN_POINT('',(0.052,-0.014,0.0260512609235628));
#884=CARTESIAN_POINT('',(0.052,-0.014,0.0260512609235628));
#885=CARTESIAN_POINT('',(0.0504163885867512,-0.014,0.0255653844810179));
#886=CARTESIAN_POINT('',(0.0473109232979472,-0.014,0.0244308916680993));
#887=CARTESIAN_POINT('',(0.042686775294128,-0.014,0.0226244777560213));
#888=CARTESIAN_POINT('',(0.0381825828337228,-0.014,0.0205454478370799));
#889=CARTESIAN_POINT('',(0.0353583496004785,-0.014,0.0188386988709089));
#890=CARTESIAN_POINT('',(0.034,-0.014,0.0178846464025339));
#891=CARTESIAN_POINT('',(0.043,0.014,0.0217507451725351));
#892=CARTESIAN_POINT('',(0.052,0.014,0.0265));
#893=CARTESIAN_POINT('',(0.052,0.014,0.0260512609235628));
#894=CARTESIAN_POINT('',(0.052,0.014,0.0259466434036742));
#895=CARTESIAN_POINT('',(0.052,0.014,0.0259466434036742));
#896=CARTESIAN_POINT('',(0.0504161705667902,0.014,0.0254592366887912));
#897=CARTESIAN_POINT('',(0.0473095210694828,0.014,0.02432391089586));
#898=CARTESIAN_POINT('',(0.042684100265264,0.014,0.022514877165723));
#899=CARTESIAN_POINT('',(0.0381795425278859,0.014,0.0204317017351966));
#900=CARTESIAN_POINT('',(0.0353571991649382,0.014,0.018719331131722));
#901=CARTESIAN_POINT('',(0.034,0.014,0.0177623720975656));
#902=CARTESIAN_POINT('',(0.034,0.014,0.0177623720975656));
#903=CARTESIAN_POINT('',(0.034,0.014,0.0217507451725351));
#904=CARTESIAN_POINT('',(0.034,0.014,0.0178846464025339));
#905=CARTESIAN_POINT('',(0.034,0.014,0.0178846464025339));
#906=CARTESIAN_POINT('',(0.0353585739399232,0.014,0.0188388564382987));
#907=CARTESIAN_POINT('',(0.0381830599554012,0.014,0.0205456557743602));
#908=CARTESIAN_POINT('',(0.0426857647003759,0.014,0.0226240393306361));
#909=CARTESIAN_POINT('',(0.0473108511884415,0.014,0.0244308818002964));
#910=CARTESIAN_POINT('',(0.0504163780430526,0.014,0.0255653812460483));
#911=CARTESIAN_POINT('',(0.052,0.014,0.0260512609235628));
#912=CARTESIAN_POINT('',(0.0115,0.,0.0015));
#913=CARTESIAN_POINT('',(0.038,-0.004,0.0015));
#914=CARTESIAN_POINT('',(0.035,-0.004,0.0015));
#915=CARTESIAN_POINT('',(0.041,-0.004,0.0015));
#916=CARTESIAN_POINT('',(0.038,0.,0.0015));
#917=CARTESIAN_POINT('',(0.038,-0.004,0.026060653431255));
#918=CARTESIAN_POINT('',(0.038,-0.004,0.005));
#919=CARTESIAN_POINT('',(0.038,-0.004,0.007075));
#920=CARTESIAN_POINT('',(0.035,-0.004,0.026060653431255));
#921=CARTESIAN_POINT('',(0.041,-0.004,0.026060653431255));
#922=CARTESIAN_POINT('',(0.038,0.,0.026060653431255));
#923=CARTESIAN_POINT('',(0.0396263507747696,0.00478519930459198,0.00662622101861978));
#924=CARTESIAN_POINT('',(0.0402995100770903,0.00443112125719837,0.0049997307083979));
#925=CARTESIAN_POINT('',(0.0396256089168691,0.00478495799803187,0.00337485614778862));
#926=CARTESIAN_POINT('',(0.0380040714076113,0.00510750664508872,0.00269990373282691));
#927=CARTESIAN_POINT('',(0.0363724626226214,0.0047850119861409,0.0033755371991526));
#928=CARTESIAN_POINT('',(0.0357011724531839,0.00443124657980301,0.00499589449883205));
#929=CARTESIAN_POINT('',(0.0363728570865791,0.00478464836933613,0.00662548687987028));
#930=CARTESIAN_POINT('',(0.0379978586893801,0.00510753771668221,0.00729957214625506));
#931=CARTESIAN_POINT('',(0.0396263507747696,0.00478519930459198,0.00662622101861978));
#932=CARTESIAN_POINT('',(0.0402995100770903,0.00443112125719837,0.0049997307083979));
#933=CARTESIAN_POINT('',(0.0396256089168691,0.00478495799803187,0.00337485614778862));
#934=CARTESIAN_POINT('',(0.040075,0.00454910705523625,0.005));
#935=CARTESIAN_POINT('',(0.052,0.009,0.0217507451725351));
#936=CARTESIAN_POINT('',(0.052,0.014,0.0260512609235628));
#937=CARTESIAN_POINT('',(0.0522907454481119,0.014,0.0260958635207759));
#938=CARTESIAN_POINT('',(0.0525785066619483,0.0139748322008152,0.0261390520001933));
#939=CARTESIAN_POINT('',(0.0528633436955584,0.0139248997617555,0.0261807664591955));
#940=CARTESIAN_POINT('',(0.0528633436955584,0.0139248997617555,0.0261807664591956));
#941=CARTESIAN_POINT('',(0.0528633436955588,0.0139248997617554,0.0261807664591938));
#942=CARTESIAN_POINT('',(0.0525766750078901,0.0139751532930323,0.0261067127835847));
#943=CARTESIAN_POINT('',(0.0522889383010049,0.014,0.0260284476863402));
#944=CARTESIAN_POINT('',(0.052,0.014,0.0259466434036742));
#945=CARTESIAN_POINT('',(0.034,0.009,0.0155663768060379));
#946=CARTESIAN_POINT('',(0.034,0.014,0.0177623720975656));
#947=CARTESIAN_POINT('',(0.0330712996196746,0.014,0.0171599329106127));
#948=CARTESIAN_POINT('',(0.0312984745580684,0.0134975788916901,0.0159016525547955));
#949=CARTESIAN_POINT('',(0.0299306344426529,0.0120874874703493,0.0147778244360597));
#950=CARTESIAN_POINT('',(0.029482639136152,0.0111432337310183,0.0144));
#951=CARTESIAN_POINT('',(0.029482639136152,0.0111432337310183,0.0144));
#952=CARTESIAN_POINT('',(0.034,0.009,0.0144));
#953=CARTESIAN_POINT('',(0.029,0.009,0.0159759864611403));
#954=CARTESIAN_POINT('',(0.029,0.00968384381984513,0.0159759864611403));
#955=CARTESIAN_POINT('',(0.0292852602779492,0.011037540269523,0.0160946104920522));
#956=CARTESIAN_POINT('',(0.0304428064817439,0.0126966825620815,0.0165633335913409));
#957=CARTESIAN_POINT('',(0.0321060132830102,0.0137580966463362,0.0172047496708022));
#958=CARTESIAN_POINT('',(0.0333558219568793,0.014,0.0176584234729229));
#959=CARTESIAN_POINT('',(0.034,0.014,0.0178846464025339));
#960=CARTESIAN_POINT('',(0.052,-0.009,0.0280007451725351));
#961=CARTESIAN_POINT('',(0.052,-0.014,0.0259466434036742));
#962=CARTESIAN_POINT('',(0.0522889383010106,-0.014,0.0260284476863418));
#963=CARTESIAN_POINT('',(0.0525766750079013,-0.0139751532930314,0.0261067127835877));
#964=CARTESIAN_POINT('',(0.0528633436955754,-0.0139248997617525,0.026180766459198));
#965=CARTESIAN_POINT('',(0.0528633436955754,-0.0139248997617525,0.026180766459198));
#966=CARTESIAN_POINT('',(0.0528633436955754,-0.0139248997617525,0.026180766459198));
#967=CARTESIAN_POINT('',(0.0525796285140236,-0.0139746355381503,0.0261392162957269));
#968=CARTESIAN_POINT('',(0.0522919058645974,-0.014,0.0260960415376269));
#969=CARTESIAN_POINT('',(0.052,-0.014,0.0260512609235628));
#970=CARTESIAN_POINT('',(0.034,-0.009,0.0217507451725351));
#971=CARTESIAN_POINT('',(0.034,-0.009,0.0144));
#972=CARTESIAN_POINT('',(0.029482639136152,-0.0111432337310183,0.0144));
#973=CARTESIAN_POINT('',(0.0294826391361521,-0.0111432337310183,0.0144));
#974=CARTESIAN_POINT('',(0.0299306344426529,-0.0120874874703493,0.0147778244360597));
#975=CARTESIAN_POINT('',(0.0312984745580684,-0.0134975788916901,0.0159016525547955));
#976=CARTESIAN_POINT('',(0.0330712996196746,-0.014,0.0171599329106127));
#977=CARTESIAN_POINT('',(0.034,-0.014,0.0177623720975657));
#978=CARTESIAN_POINT('',(0.034,-0.014,0.0178846464025339));
#979=CARTESIAN_POINT('',(0.0327119316661956,-0.014,0.0174323015964292));
#980=CARTESIAN_POINT('',(0.0301875875936343,-0.0130000546940335,0.0164759087070628));
#981=CARTESIAN_POINT('',(0.029,-0.0103676115269938,0.0159759864611403));
#982=CARTESIAN_POINT('',(0.029,-0.009,0.0159759864611403));
#983=CARTESIAN_POINT('',(0.034,-0.014,0.0178846464025339));
#984=CARTESIAN_POINT('',(0.0325631035311771,-0.014,0.0199304539540608));
#985=CARTESIAN_POINT('',(0.0325631035311771,-0.0115,0.0199304539540608));
#986=CARTESIAN_POINT('',(0.0353583496005463,-0.014,0.0188386988709208));
#987=CARTESIAN_POINT('',(0.0340089486984344,-0.014000000000002,0.0209459599402898));
#988=CARTESIAN_POINT('',(0.0340089486983938,-0.0114999999999914,0.020945959940285));
#989=CARTESIAN_POINT('',(0.03818258283364,-0.014,0.0205454478372198));
#990=CARTESIAN_POINT('',(0.0370380413131055,-0.0139999999999984,0.0227739705937785));
#991=CARTESIAN_POINT('',(0.0370380413131807,-0.0115000000000038,0.0227739705936057));
#992=CARTESIAN_POINT('',(0.0426867752943163,-0.014,0.0226244777555138));
#993=CARTESIAN_POINT('',(0.0417140806074568,-0.0140000000000026,0.024928835232634));
#994=CARTESIAN_POINT('',(0.0417140806072544,-0.0114999999999995,0.024928835233246));
#995=CARTESIAN_POINT('',(0.0473109232972772,-0.014,0.0244308916699895));
#996=CARTESIAN_POINT('',(0.0464478824484102,-0.0139999999999914,0.0267765790863672));
#997=CARTESIAN_POINT('',(0.0464478824491445,-0.0114999999999983,0.0267765790840919));
#998=CARTESIAN_POINT('',(0.0504163885881895,-0.014,0.0255653844769457));
#999=CARTESIAN_POINT('',(0.0495785125782243,-0.0140000000000183,0.0279233347377056));
#1000=CARTESIAN_POINT('',(0.0495785125766458,-0.0115000000000043,0.0279233347426067));
#1001=CARTESIAN_POINT('',(0.052,-0.014,0.0260512609235628));
#1002=CARTESIAN_POINT('',(0.0512667000916669,-0.014,0.0284412967484906));
#1003=CARTESIAN_POINT('',(0.0512667000916669,-0.0115,0.0284412967484906));
#1004=CARTESIAN_POINT('',(0.052,-0.0115,0.0260512609235628));
#1005=CARTESIAN_POINT('',(0.034,-0.0115,0.0178846464025339));
#1006=CARTESIAN_POINT('',(0.029,-0.009,0.0159759864611403));
#1007=CARTESIAN_POINT('',(0.029,-0.009,0.0171530044589574));
#1008=CARTESIAN_POINT('',(0.029907206277575,-0.009,0.0179029032101991));
#1009=CARTESIAN_POINT('',(0.029,-0.00974893248925114,0.0159759864728986));
#1010=CARTESIAN_POINT('',(0.0290000000173924,-0.00960320135769097,0.0171530044739914));
#1011=CARTESIAN_POINT('',(0.0299072062926447,-0.00937446624462654,0.0179029032226558));
#1012=CARTESIAN_POINT('',(0.0293468428772886,-0.0112053322925894,0.0161202736885044));
#1013=CARTESIAN_POINT('',(0.0292169040655077,-0.0108012650606698,0.0173420498937737));
#1014=CARTESIAN_POINT('',(0.0300908604030174,-0.0101026661464756,0.0180557054160083));
#1015=CARTESIAN_POINT('',(0.0305898835817727,-0.0128216081677688,0.0166213330811791));
#1016=CARTESIAN_POINT('',(0.0300171509714556,-0.0122572082528289,0.0180142931573722));
#1017=CARTESIAN_POINT('',(0.0307500485450024,-0.01091080408325,0.0185871391854938));
#1018=CARTESIAN_POINT('',(0.0321931220813306,-0.0137786160621466,0.0172366750306351));
#1019=CARTESIAN_POINT('',(0.0311339230566798,-0.0133496751278634,0.0188976200421981));
#1020=CARTESIAN_POINT('',(0.0316017235127637,-0.01138930803343,0.0192409201299242));
#1021=CARTESIAN_POINT('',(0.0333908208199914,-0.014,0.0176707143995535));
#1022=CARTESIAN_POINT('',(0.0320527927332363,-0.0138308567397905,0.0195720312927674));
#1023=CARTESIAN_POINT('',(0.0322388943682364,-0.011499999994924,0.0197027419187612));
#1024=CARTESIAN_POINT('',(0.034,-0.014,0.0178846464025339));
#1025=CARTESIAN_POINT('',(0.0325631035311771,-0.014,0.0199304539540608));
#1026=CARTESIAN_POINT('',(0.0325631035311771,-0.0115,0.0199304539540608));
#1027=CARTESIAN_POINT('',(0.0315,-0.009,0.0159759864611403));
#1028=CARTESIAN_POINT('',(0.052,-0.014,0.0260512609235628));
#1029=CARTESIAN_POINT('',(0.0512667000916668,-0.014,0.0284412967484906));
#1030=CARTESIAN_POINT('',(0.0512667000916669,-0.0115,0.0284412967484906));
#1031=CARTESIAN_POINT('',(0.0526421951204669,-0.014,0.0261497786151311));
#1032=CARTESIAN_POINT('',(0.0519146791085315,-0.0140959925125295,0.028640106722257));
#1033=CARTESIAN_POINT('',(0.0516090018006424,-0.0114999999934648,0.0285463202001042));
#1034=CARTESIAN_POINT('',(0.0539142048049555,-0.0137544382065567,0.0263352570180087));
#1035=CARTESIAN_POINT('',(0.0532822060844828,-0.0140317015586061,0.02903023758068));
#1036=CARTESIAN_POINT('',(0.0522941750045513,-0.0113772191063126,0.0287462588683953));
#1037=CARTESIAN_POINT('',(0.0555859037393154,-0.0126706501960857,0.0265476573170189));
#1038=CARTESIAN_POINT('',(0.0552515138854843,-0.0130448082509436,0.0294754833029917));
#1039=CARTESIAN_POINT('',(0.0532141168821755,-0.0108353250972258,0.0289801992952132));
#1040=CARTESIAN_POINT('',(0.0567268307392952,-0.0110022810386484,0.0266718591762445));
#1041=CARTESIAN_POINT('',(0.0566621323397626,-0.0112435289737612,0.0297078645346576));
#1042=CARTESIAN_POINT('',(0.0538535101199648,-0.010001140519558,0.0291194745554349));
#1043=CARTESIAN_POINT('',(0.057,-0.00967245964930099,0.0266985005953756));
#1044=CARTESIAN_POINT('',(0.0569999999864263,-0.00975476476110042,0.0297497057926661));
#1045=CARTESIAN_POINT('',(0.0540083737026454,-0.00933622982464962,0.029149684715151));
#1046=CARTESIAN_POINT('',(0.057,-0.009,0.0266985005964546));
#1047=CARTESIAN_POINT('',(0.057,-0.009,0.0297497057944394));
#1048=CARTESIAN_POINT('',(0.0540083737088159,-0.009,0.0291496847163886));
#1049=CARTESIAN_POINT('',(0.0528633436955754,-0.0139248997617525,0.026180766459198));
#1050=CARTESIAN_POINT('',(0.0539875783292497,-0.0137278194290993,0.0264950940505803));
#1051=CARTESIAN_POINT('',(0.0561099941177338,-0.0125102429962026,0.0269060969980369));
#1052=CARTESIAN_POINT('',(0.0569905310859638,-0.0101841721537834,0.0269158825410779));
#1053=CARTESIAN_POINT('',(0.0569905310859638,-0.009,0.0269158825410779));
#1054=CARTESIAN_POINT('',(0.0569905310859638,-0.009,0.0269158825410779));
#1055=CARTESIAN_POINT('',(0.0545,-0.009,0.0266985005964546));
#1056=CARTESIAN_POINT('',(0.0315,0.009,0.0159759864611403));
#1057=CARTESIAN_POINT('',(0.0315,0.009,0.0159759864611403));
#1058=CARTESIAN_POINT('',(0.0545,-0.009,0.0266985005964546));
#1059=CARTESIAN_POINT('',(0.0569905310859638,-0.009,0.0269158825410779));
#1060=CARTESIAN_POINT('',(0.0569905310859637,0.009,0.0269158825410779));
#1061=CARTESIAN_POINT('',(0.0545,0.009,0.0266985005964546));
#1062=CARTESIAN_POINT('',(0.033999999999999,0.014,0.0178846464025335));
#1063=CARTESIAN_POINT('',(0.0325631035311763,0.0139999999999997,0.0199304539540601));
#1064=CARTESIAN_POINT('',(0.0325631035311766,0.0115,0.0199304539540603));
#1065=CARTESIAN_POINT('',(0.0333902859234176,0.0139999999999999,0.0176705265540388));
#1066=CARTESIAN_POINT('',(0.0320523598199903,0.0138307132477846,0.0195717272308269));
#1067=CARTESIAN_POINT('',(0.0322386096927104,0.0114999999935924,0.0197025419736305));
#1068=CARTESIAN_POINT('',(0.0322050826053384,0.0137816255728418,0.0172410531026532));
#1069=CARTESIAN_POINT('',(0.0311425981200111,0.0133548609805593,0.0189040745976342));
#1070=CARTESIAN_POINT('',(0.0316080848994158,0.0113908127893955,0.0192455773270835));
#1071=CARTESIAN_POINT('',(0.0305999419053224,0.0128304285039384,0.0166253307653633));
#1072=CARTESIAN_POINT('',(0.0300238704241236,0.012265912313499,0.0180198477579069));
#1073=CARTESIAN_POINT('',(0.0307553861645833,0.0109152142511694,0.0185913822730132));
#1074=CARTESIAN_POINT('',(0.0293513105751707,0.0112180517255298,0.0161221212013232));
#1075=CARTESIAN_POINT('',(0.0292197217542022,0.0108119474934183,0.0173444882955074));
#1076=CARTESIAN_POINT('',(0.0300932266502037,0.010109025862993,0.0180576624248082));
#1077=CARTESIAN_POINT('',(0.029,0.0097500647995583,0.0159759864672856));
#1078=CARTESIAN_POINT('',(0.029000000009067,0.00960411333689025,0.0171530044668039));
#1079=CARTESIAN_POINT('',(0.0299072062854289,0.00937503239978012,0.0179029032166911));
#1080=CARTESIAN_POINT('',(0.029,0.009,0.0159759864611403));
#1081=CARTESIAN_POINT('',(0.029,0.009,0.0171530044589574));
#1082=CARTESIAN_POINT('',(0.029907206277575,0.009,0.0179029032101991));
#1083=CARTESIAN_POINT('',(0.034,0.0115,0.0178846464025339));
#1084=CARTESIAN_POINT('',(0.057,0.009,0.0266985005964547));
#1085=CARTESIAN_POINT('',(0.057,0.009,0.0297497057944395));
#1086=CARTESIAN_POINT('',(0.0540083737088158,0.009,0.0291496847163886));
#1087=CARTESIAN_POINT('',(0.057,0.00967206793290885,0.0266985005945736));
#1088=CARTESIAN_POINT('',(0.05699999997678,0.00975432510087446,0.0297497057913456));
#1089=CARTESIAN_POINT('',(0.0540083736982669,0.00933603396645442,0.0291496847142729));
#1090=CARTESIAN_POINT('',(0.0567292333784167,0.010995877731612,0.0266721112602894));
#1091=CARTESIAN_POINT('',(0.056665124017826,0.0112364156864711,0.0297083108502226));
#1092=CARTESIAN_POINT('',(0.0538548622835599,0.009997938865966,0.0291197579234726));
#1093=CARTESIAN_POINT('',(0.0555881673281602,0.0126683857126631,0.0265479024489874));
#1094=CARTESIAN_POINT('',(0.0552542854544193,0.0130424633922739,0.029475947041489));
#1095=CARTESIAN_POINT('',(0.0532153861171374,0.0108341928557716,0.028980475509984));
#1096=CARTESIAN_POINT('',(0.0539208333677093,0.0137521824867347,0.026336186209229));
#1097=CARTESIAN_POINT('',(0.0532896404316075,0.0140302587156882,0.0290322269288167));
#1098=CARTESIAN_POINT('',(0.052297770178086,0.0113760912454472,0.0287472670853674));
#1099=CARTESIAN_POINT('',(0.0526419429004698,0.014,0.0261497399227881));
#1100=CARTESIAN_POINT('',(0.0519144197328867,0.0140959540925671,0.0286400271422613));
#1101=CARTESIAN_POINT('',(0.0516088673627448,0.0114999999955204,0.0285462789524806));
#1102=CARTESIAN_POINT('',(0.052,0.014,0.0260512609235628));
#1103=CARTESIAN_POINT('',(0.0512667000916668,0.014,0.0284412967484906));
#1104=CARTESIAN_POINT('',(0.0512667000916668,0.0115,0.0284412967484906));
#1105=CARTESIAN_POINT('',(0.0569905310859638,0.009,0.0269158825410779));
#1106=CARTESIAN_POINT('',(0.0569905310859638,0.0101838761073676,0.0269158825410779));
#1107=CARTESIAN_POINT('',(0.0561120744539826,0.0125080448185083,0.0269063883253476));
#1108=CARTESIAN_POINT('',(0.0539873695724544,0.0137278560245411,0.026495035683743));
#1109=CARTESIAN_POINT('',(0.0528633436955589,0.0139248997617554,0.0261807664591934));
#1110=CARTESIAN_POINT('',(0.052,0.0115,0.0260512609235628));
#1111=CARTESIAN_POINT('',(0.052,0.014,0.0260512609235628));
#1112=CARTESIAN_POINT('',(0.0512667000916669,0.014,0.0284412967484906));
#1113=CARTESIAN_POINT('',(0.0512667000916669,0.0115,0.0284412967484906));
#1114=CARTESIAN_POINT('',(0.0504163780445239,0.014,0.0255653812419986));
#1115=CARTESIAN_POINT('',(0.0495785013384099,0.0140000000000386,0.0279233312892071));
#1116=CARTESIAN_POINT('',(0.049578501336688,0.0114999999999885,0.027923331294014));
#1117=CARTESIAN_POINT('',(0.0473108511877582,0.014,0.0244308818021774));
#1118=CARTESIAN_POINT('',(0.0464478139145634,0.0139999999999805,0.0267765710652407));
#1119=CARTESIAN_POINT('',(0.0464478139153645,0.0115000000000045,0.0267765710630096));
#1120=CARTESIAN_POINT('',(0.0426857647005603,0.014,0.022624039330127));
#1121=CARTESIAN_POINT('',(0.0417130366659041,0.0140000000000104,0.0249283824898686));
#1122=CARTESIAN_POINT('',(0.0417130366656832,0.0115000000000014,0.0249283824904671));
#1123=CARTESIAN_POINT('',(0.0381830599553469,0.014,0.0205456557745156));
#1124=CARTESIAN_POINT('',(0.037038537619959,0.0139999999999778,0.0227741866393636));
#1125=CARTESIAN_POINT('',(0.0370385376200417,0.0114999999999897,0.0227741866392008));
#1126=CARTESIAN_POINT('',(0.0353585739399268,0.014,0.0188388564382754));
#1127=CARTESIAN_POINT('',(0.0340091874883236,0.0140000000000448,0.0209461276571264));
#1128=CARTESIAN_POINT('',(0.034009187488278,0.011500000000023,0.0209461276571072));
#1129=CARTESIAN_POINT('',(0.034,0.014,0.0178846464025339));
#1130=CARTESIAN_POINT('',(0.0325631035311771,0.014,0.0199304539540608));
#1131=CARTESIAN_POINT('',(0.0325631035311771,0.0115,0.0199304539540608));
#1132=CARTESIAN_POINT('',(0.0566171239849194,0.009,0.0264818883285745));
#1133=CARTESIAN_POINT('',(0.0570261687748336,0.009,0.0265075838108597));
#1134=CARTESIAN_POINT('',(0.0569905310859638,0.009,0.0269158825410779));
#1135=CARTESIAN_POINT('',(0.0566171239763284,0.0100897360377754,0.0264818883280349));
#1136=CARTESIAN_POINT('',(0.0570261687652232,0.0101875742863424,0.0265075838106678));
#1137=CARTESIAN_POINT('',(0.0569905310859273,0.0101851944248551,0.0269158825414965));
#1138=CARTESIAN_POINT('',(0.0558354205311622,0.012229211579224,0.0264622761537751));
#1139=CARTESIAN_POINT('',(0.056175385325762,0.0124824259419512,0.026516871008565));
#1140=CARTESIAN_POINT('',(0.0561089610895085,0.0125127274385768,0.0269062206760548));
#1141=CARTESIAN_POINT('',(0.0539227587312899,0.0133495958614503,0.0260821615479985));
#1142=CARTESIAN_POINT('',(0.0540690153620496,0.0137122905665154,0.0261208376736322));
#1143=CARTESIAN_POINT('',(0.0539840262986429,0.0137284421063921,0.0264941009315362));
#1144=CARTESIAN_POINT('',(0.0529024095412455,0.013530907780815,0.0257956597460706));
#1145=CARTESIAN_POINT('',(0.0529635745101735,0.0139073291215219,0.0258128341349795));
#1146=CARTESIAN_POINT('',(0.0528633436955588,0.0139248997617554,0.0261807664591934));
#1147=CARTESIAN_POINT('',(0.0527942761999142,0.0135309077808152,0.0261807664591938));
#1148=CARTESIAN_POINT('',(0.0565920461122096,0.009,0.0268811014299381));
#1149=CARTESIAN_POINT('',(0.0565920461122095,-1.7347234759768E-18,0.0268811014299381));
#1150=CARTESIAN_POINT('',(0.0565920461122095,-0.009,0.0268811014299381));
#1151=CARTESIAN_POINT('',(0.052,0.014,0.0259466434036742));
#1152=CARTESIAN_POINT('',(0.0521176507850337,0.014,0.0255643368607261));
#1153=CARTESIAN_POINT('',(0.0521176507850337,0.0136,0.0255643368607261));
#1154=CARTESIAN_POINT('',(0.0522907437403762,0.014,0.0260289588433342));
#1155=CARTESIAN_POINT('',(0.0524011364005711,0.0139932167613757,0.0256515765540247));
#1156=CARTESIAN_POINT('',(0.0523823133380583,0.0135999999986057,0.0256457839552285));
#1157=CARTESIAN_POINT('',(0.0525784512428779,0.0139748419158769,0.0261071716288214));
#1158=CARTESIAN_POINT('',(0.0526834601101072,0.0139624498266403,0.0257347905102886));
#1159=CARTESIAN_POINT('',(0.052643839879461,0.0135768545619189,0.0257230564895111));
#1160=CARTESIAN_POINT('',(0.0528633436955589,0.0139248997617554,0.0261807664591938));
#1161=CARTESIAN_POINT('',(0.0529635745101736,0.0139073291215222,0.0258128341349796));
#1162=CARTESIAN_POINT('',(0.0529024095412456,0.013530907780815,0.0257956597460706));
#1163=CARTESIAN_POINT('',(0.052,0.0136,0.0259466434036742));
#1164=CARTESIAN_POINT('',(0.0529024095412606,-0.0135309077808123,0.0257956597460749));
#1165=CARTESIAN_POINT('',(0.0529635745101898,-0.013907329121519,0.0258128341349841));
#1166=CARTESIAN_POINT('',(0.0528633436955754,-0.0139248997617525,0.0261807664591981));
#1167=CARTESIAN_POINT('',(0.0539229457173214,-0.0133495626276801,0.0260822140514305));
#1168=CARTESIAN_POINT('',(0.0540692182125019,-0.0137122547690091,0.0261208941915988));
#1169=CARTESIAN_POINT('',(0.0539842316731345,-0.013728406103874,0.0264941583511349));
#1170=CARTESIAN_POINT('',(0.0558335479547796,-0.0122312414481657,0.026461998581144));
#1171=CARTESIAN_POINT('',(0.0561733223603435,-0.0124846111708256,0.0265165997543075));
#1172=CARTESIAN_POINT('',(0.0561068715266489,-0.0125149339939301,0.0269059280701561));
#1173=CARTESIAN_POINT('',(0.0566171239836169,-0.0100900095453708,0.0264818883284927));
#1174=CARTESIAN_POINT('',(0.0570261687733947,-0.0101878723535738,0.0265075838108327));
#1175=CARTESIAN_POINT('',(0.0569905310859565,-0.0101854918943843,0.0269158825411612));
#1176=CARTESIAN_POINT('',(0.0566171239849194,-0.00899999999999999,0.0264818883285745));
#1177=CARTESIAN_POINT('',(0.0570261687748336,-0.00899999999999999,0.0265075838108597));
#1178=CARTESIAN_POINT('',(0.0569905310859638,-0.009,0.0269158825410779));
#1179=CARTESIAN_POINT('',(0.0527942761999294,-0.0135309077808123,0.026180766459198));
#1180=CARTESIAN_POINT('',(0.034,0.014,0.0177623720975656));
#1181=CARTESIAN_POINT('',(0.0342305022085547,0.014,0.0174354642636867));
#1182=CARTESIAN_POINT('',(0.0342305022085547,0.0136,0.0174354642636867));
#1183=CARTESIAN_POINT('',(0.0353571991649,0.014,0.0187193311317921));
#1184=CARTESIAN_POINT('',(0.0355736916138713,0.0139999999999043,0.018382545038115));
#1185=CARTESIAN_POINT('',(0.0355736916141437,0.0135999999999971,0.0183825450381727));
#1186=CARTESIAN_POINT('',(0.0381795425278685,0.014,0.0204317017353252));
#1187=CARTESIAN_POINT('',(0.0383631104916617,0.0140000000000512,0.0200753509411458));
#1188=CARTESIAN_POINT('',(0.0383631104915556,0.0136000000000013,0.0200753509409536));
#1189=CARTESIAN_POINT('',(0.0426841002653824,0.014,0.0225148771651677));
#1190=CARTESIAN_POINT('',(0.0428399252256135,0.0139999999999644,0.0221462571376501));
#1191=CARTESIAN_POINT('',(0.0428399252255763,0.0135999999999996,0.0221462571382362));
#1192=CARTESIAN_POINT('',(0.0473095210690267,0.014,0.0243239108979526));
#1193=CARTESIAN_POINT('',(0.0474476328081476,0.0140000000000912,0.0239486108764124));
#1194=CARTESIAN_POINT('',(0.0474476328084026,0.0136000000000001,0.0239486108742604));
#1195=CARTESIAN_POINT('',(0.0504161705677755,0.014,0.0254592366842788));
#1196=CARTESIAN_POINT('',(0.0505505291509132,0.013999999999811,0.0250820717890555));
#1197=CARTESIAN_POINT('',(0.0505505291503429,0.0136,0.0250820717936863));
#1198=CARTESIAN_POINT('',(0.052,0.014,0.0259466434036742));
#1199=CARTESIAN_POINT('',(0.0521176507850337,0.014,0.0255643368607261));
#1200=CARTESIAN_POINT('',(0.0521176507850337,0.0136,0.0255643368607261));
#1201=CARTESIAN_POINT('',(0.034,0.0136,0.0177623720975656));
#1202=CARTESIAN_POINT('',(0.0521176507850337,-0.0136,0.0255643368607261));
#1203=CARTESIAN_POINT('',(0.0521176507850337,-0.014,0.0255643368607261));
#1204=CARTESIAN_POINT('',(0.052,-0.014,0.0259466434036742));
#1205=CARTESIAN_POINT('',(0.0523823133380634,-0.0135999999986025,0.02564578395523));
#1206=CARTESIAN_POINT('',(0.0524011364005689,-0.0139932167613717,0.0256515765540298));
#1207=CARTESIAN_POINT('',(0.0522907437403818,-0.014,0.0260289588433358));
#1208=CARTESIAN_POINT('',(0.052643839879439,-0.0135768545619181,0.025723056489505));
#1209=CARTESIAN_POINT('',(0.0526834601100845,-0.013962449826638,0.0257347905102873));
#1210=CARTESIAN_POINT('',(0.0525784512428522,-0.0139748419158824,0.026107171628819));
#1211=CARTESIAN_POINT('',(0.0529024095412606,-0.0135309077808123,0.0257956597460748));
#1212=CARTESIAN_POINT('',(0.0529635745101898,-0.013907329121519,0.0258128341349841));
#1213=CARTESIAN_POINT('',(0.0528633436955754,-0.0139248997617525,0.026180766459198));
#1214=CARTESIAN_POINT('',(0.052,-0.0136,0.0259466434036742));
#1215=CARTESIAN_POINT('',(0.0342305022085547,0.0136,0.0174354642636867));
#1216=CARTESIAN_POINT('',(0.0342305022085547,0.014,0.0174354642636867));
#1217=CARTESIAN_POINT('',(0.034,0.014,0.0177623720975656));
#1218=CARTESIAN_POINT('',(0.0333407618901962,0.0135999999930921,0.0168081097399717));
#1219=CARTESIAN_POINT('',(0.0332323379316233,0.0140477373198382,0.0167316601713507));
#1220=CARTESIAN_POINT('',(0.0330228037999669,0.014,0.0171284741282538));
#1221=CARTESIAN_POINT('',(0.0320705361425544,0.0132182896386163,0.0158224319663167));
#1222=CARTESIAN_POINT('',(0.0318082654565582,0.0136619769784397,0.0156098158124605));
#1223=CARTESIAN_POINT('',(0.0316276841887682,0.0135850974319244,0.0161323974584752));
#1224=CARTESIAN_POINT('',(0.0306932574091568,0.0120145898318514,0.0146344601433322));
#1225=CARTESIAN_POINT('',(0.0302948812212427,0.0124934143333012,0.0142851594810749));
#1226=CARTESIAN_POINT('',(0.0301179655684464,0.0122767280778535,0.0149344145609128));
#1227=CARTESIAN_POINT('',(0.0301752260388891,0.0111568967758212,0.0141616804767454));
#1228=CARTESIAN_POINT('',(0.0296849438662464,0.0116155635234167,0.0137092987650139));
#1229=CARTESIAN_POINT('',(0.0295477982205317,0.0113444530184888,0.0144556575675524));
#1230=CARTESIAN_POINT('',(0.0299863504870105,0.010673207048364,0.013987405640272));
#1231=CARTESIAN_POINT('',(0.0294399366058445,0.0110682311599073,0.0134832313898736));
#1232=CARTESIAN_POINT('',(0.0293424987109304,0.0108187033134392,0.014281382731079));
#1233=CARTESIAN_POINT('',(0.0298766019561419,0.011039016569797,0.014));
#1234=CARTESIAN_POINT('',(0.0296839632610041,0.011130589835956,0.014));
#1235=CARTESIAN_POINT('',(0.029499453645991,0.0111786742000887,0.0141934403857556));
#1236=CARTESIAN_POINT('',(0.0294826391361526,0.0111432337310207,0.0144000000000261));
#1237=CARTESIAN_POINT('',(0.052,-0.014,0.0259466434036742));
#1238=CARTESIAN_POINT('',(0.0521176507850337,-0.014,0.0255643368607261));
#1239=CARTESIAN_POINT('',(0.0521176507850337,-0.0136,0.0255643368607261));
#1240=CARTESIAN_POINT('',(0.0504161579799128,-0.014,0.0254592328104765));
#1241=CARTESIAN_POINT('',(0.0505505166968244,-0.0140000000000711,0.0250820679566102));
#1242=CARTESIAN_POINT('',(0.050550516695245,-0.0136000000000043,0.0250820679607619));
#1243=CARTESIAN_POINT('',(0.0473094459400674,-0.014,0.0243239003422553));
#1244=CARTESIAN_POINT('',(0.0474475570924873,-0.0139999999999672,0.0239486000168672));
#1245=CARTESIAN_POINT('',(0.0474475570932196,-0.0135999999999983,0.0239486000149414));
#1246=CARTESIAN_POINT('',(0.0426830656860198,-0.014,0.022514427562107));
#1247=CARTESIAN_POINT('',(0.0428388961477154,-0.0140000000000081,0.0221458099006817));
#1248=CARTESIAN_POINT('',(0.0428388961475215,-0.0135999999999995,0.0221458099011943));
#1249=CARTESIAN_POINT('',(0.0381800312772927,-0.014,0.0204319152391623));
#1250=CARTESIAN_POINT('',(0.0383635960794627,-0.0140000000000003,0.020075563105028));
#1251=CARTESIAN_POINT('',(0.038363596079506,-0.0136000000000039,0.0200755631049035));
#1252=CARTESIAN_POINT('',(0.035357428044784,-0.014,0.0187194925146383));
#1253=CARTESIAN_POINT('',(0.0355739181313419,-0.0139999999999939,0.0183827047551704));
#1254=CARTESIAN_POINT('',(0.0355739181313702,-0.0135999999999914,0.0183827047551192));
#1255=CARTESIAN_POINT('',(0.034,-0.014,0.0177623720975656));
#1256=CARTESIAN_POINT('',(0.0342305022085547,-0.014,0.0174354642636868));
#1257=CARTESIAN_POINT('',(0.0342305022085547,-0.0136,0.0174354642636868));
#1258=CARTESIAN_POINT('',(0.034,-0.0136,0.0177623720975656));
#1259=CARTESIAN_POINT('',(0.034,0.009,0.0144));
#1260=CARTESIAN_POINT('',(0.0294,0.009,0.0144));
#1261=CARTESIAN_POINT('',(0.034,-0.014,0.0177623720975656));
#1262=CARTESIAN_POINT('',(0.0342305022085547,-0.014,0.0174354642636867));
#1263=CARTESIAN_POINT('',(0.0342305022085547,-0.0136,0.0174354642636867));
#1264=CARTESIAN_POINT('',(0.0330228037999669,-0.014,0.0171284741282538));
#1265=CARTESIAN_POINT('',(0.033232337931635,-0.0140477373198496,0.0167316601713639));
#1266=CARTESIAN_POINT('',(0.0333407618901962,-0.0135999999931036,0.0168081097399717));
#1267=CARTESIAN_POINT('',(0.031627684188768,-0.0135850974319239,0.0161323974584748));
#1268=CARTESIAN_POINT('',(0.0318082654565505,-0.0136619769784365,0.0156098158124538));
#1269=CARTESIAN_POINT('',(0.0320705361425538,-0.0132182896386135,0.0158224319663161));
#1270=CARTESIAN_POINT('',(0.0301179655684468,-0.0122767280778543,0.0149344145609134));
#1271=CARTESIAN_POINT('',(0.030294881221245,-0.0124934143332996,0.0142851594810761));
#1272=CARTESIAN_POINT('',(0.0306932574091579,-0.0120145898318524,0.0146344601433331));
#1273=CARTESIAN_POINT('',(0.029547798220531,-0.011344453018487,0.014455657567551));
#1274=CARTESIAN_POINT('',(0.0296849438662496,-0.0116155635234283,0.0137092987650191));
#1275=CARTESIAN_POINT('',(0.0301752260388869,-0.0111568967758203,0.0141616804767433));
#1276=CARTESIAN_POINT('',(0.0293424987109304,-0.0108187033134392,0.014281382731079));
#1277=CARTESIAN_POINT('',(0.0294399366058445,-0.0110682311599073,0.0134832313898736));
#1278=CARTESIAN_POINT('',(0.0299863504870106,-0.010673207048364,0.013987405640272));
#1279=CARTESIAN_POINT('',(0.0298766019561419,-0.011039016569797,0.014));
#1280=CARTESIAN_POINT('',(0.0296839632610105,-0.0111305898359529,0.014));
#1281=CARTESIAN_POINT('',(0.0294994536460762,-0.011178674200244,0.0141934403857752));
#1282=CARTESIAN_POINT('',(0.0294826391361522,-0.0111432337310185,0.0144000000000044));
#1283=CARTESIAN_POINT('',(0.0294,-0.014,0.0144));
#1284=CARTESIAN_POINT('',(0.0294,-0.009,0.0144));
#1285=CARTESIAN_POINT('',(0.034,-0.009,0.0144));
#1286=CARTESIAN_POINT('',(0.038,0.00607179676972449,0.005));
#1287=MECHANICAL_DESIGN_GEOMETRIC_PRESENTATION_REPRESENTATION('',(#524),#1288);
#1288=(
GEOMETRIC_REPRESENTATION_CONTEXT(3)
GLOBAL_UNCERTAINTY_ASSIGNED_CONTEXT((#1289))
GLOBAL_UNIT_ASSIGNED_CONTEXT((#1292,#1291,#1290))
REPRESENTATION_CONTEXT('Perinium Pad','TOP_LEVEL_ASSEMBLY_PART')
);
#1289=UNCERTAINTY_MEASURE_WITH_UNIT(LENGTH_MEASURE(2.E-05),#1292,'DISTANCE_ACCURACY_VALUE','Maximum Tolerance applied to model');
#1290=(
NAMED_UNIT(*)
SI_UNIT($,.STERADIAN.)
SOLID_ANGLE_UNIT()
);
#1291=(
NAMED_UNIT(*)
PLANE_ANGLE_UNIT()
SI_UNIT($,.RADIAN.)
);
#1292=(
LENGTH_UNIT()
NAMED_UNIT(*)
SI_UNIT($,.METRE.)
);
#1293=PRODUCT_DEFINITION_SHAPE('','',#1294);
#1294=PRODUCT_DEFINITION('','',#1296,#1295);
#1295=PRODUCT_DEFINITION_CONTEXT('',#1302,'design');
#1296=PRODUCT_DEFINITION_FORMATION_WITH_SPECIFIED_SOURCE('','',#1298,.NOT_KNOWN.);
#1297=PRODUCT_RELATED_PRODUCT_CATEGORY('','',(#1298));
#1298=PRODUCT('Perinium Pad','Perinium Pad','Perinium Pad',(#1300));
#1299=PRODUCT_CATEGORY('','');
#1300=PRODUCT_CONTEXT('',#1302,'mechanical');
#1301=APPLICATION_PROTOCOL_DEFINITION('international standard','ap242_managed_model_based_3d_engineering',2020,#1302);
#1302=APPLICATION_CONTEXT('managed model based 3d engineering');
ENDSEC;
END-ISO-10303-21;
