ISO-10303-21;
HEADER;
/*Generated by software containing ST-Developer
 * from STEP Tools, Inc. (www.steptools.com) 
 */
/*OPTION: using custom renumber hook */
/*description */
/*implementation_level */
FILE_DESCRIPTION(('STEP AP242 Edition 2','STEP AP242 Edition 2''CAx-IF Rec.Pracs.---Representation and Presentation of Product Manufa
cturing Information (PMI)---4.0---2014-10-13','STEP AP242 Edition 2''CAx-IF Rec.Pracs.---Representation and Presentation of Product Manufa
cturing Information (PMI)---4.0---2014-10-13''CAx-IF Rec.Pracs.---3D Tessellated Geometry---0.4---2014-09-14','STEP AP242 Edition 2''CAx-IF Rec.Pracs.---Representation and Presentation of Product Manufa
cturing Information (PMI)---4.0---2014-10-13''CAx-IF Rec.Pracs.---3D Tessellated Geometry---0.4---2014-09-14''2;1','STEP AP242 Edition 2''CAx-IF Rec.Pracs.---Representation and Presentation of Product Manufa
cturing Information (PMI)---4.0---2014-10-13''CAx-IF Rec.Pracs.---3D Tessellated Geometry---0.4---2014-09-14''2;1''CAx-IF Rec.Pracs.---User Defined Attributes---1.5---2016-08-15'),'2;1');
/*name */
/*time_stamp */
/*author */
/*organization */
/*preprocessor_version */
/*originating_system */
/*authorisation */
FILE_NAME('/vol/tmp/translate-17656808522993316774/Part Studio 1 - Head.step','2026-02-26T20:04:12',(''),(''),'ST-DEVELOPER v20','ONSHAPE BY PTC INC, 1.211','  ');
FILE_SCHEMA(('AP242_MANAGED_MODEL_BASED_3D_ENGINEERING_MIM_LF { 1 0 10303 442 3 1 4 }'));
ENDSEC;
DATA;
#10=SHAPE_REPRESENTATION_RELATIONSHIP('','',#296,#11);
#11=ADVANCED_BREP_SHAPE_REPRESENTATION('',(#294),#579);
#12=LINE('',#516,#28);
#13=LINE('',#520,#29);
#14=LINE('',#524,#30);
#15=LINE('',#528,#31);
#16=LINE('',#538,#32);
#17=LINE('',#539,#33);
#18=LINE('',#544,#34);
#19=LINE('',#545,#35);
#20=LINE('',#547,#36);
#21=LINE('',#548,#37);
#22=LINE('',#552,#38);
#23=LINE('',#556,#39);
#24=LINE('',#561,#40);
#25=LINE('',#562,#41);
#26=LINE('',#564,#42);
#27=LINE('',#565,#43);
#28=VECTOR('',#354,1.);
#29=VECTOR('',#357,1.);
#30=VECTOR('',#360,1.);
#31=VECTOR('',#363,1.);
#32=VECTOR('',#374,1.);
#33=VECTOR('',#375,1.);
#34=VECTOR('',#380,1.);
#35=VECTOR('',#381,1.);
#36=VECTOR('',#384,1.);
#37=VECTOR('',#385,1.);
#38=VECTOR('',#392,1.);
#39=VECTOR('',#395,1.);
#40=VECTOR('',#400,1.);
#41=VECTOR('',#401,1.);
#42=VECTOR('',#404,1.);
#43=VECTOR('',#405,1.);
#44=CONICAL_SURFACE('',#303,0.0065,0.785398163397448);
#45=CONICAL_SURFACE('',#313,0.0085,0.785398163397448);
#46=CONICAL_SURFACE('',#317,0.0065,0.78539816339745);
#47=CONICAL_SURFACE('',#320,0.0085,0.785398163397448);
#48=CONICAL_SURFACE('',#322,0.0065,0.785398163397448);
#49=CYLINDRICAL_SURFACE('',#301,0.019);
#50=CYLINDRICAL_SURFACE('',#305,0.0065);
#51=CYLINDRICAL_SURFACE('',#315,0.0085);
#52=CYLINDRICAL_SURFACE('',#324,0.0085);
#53=CYLINDRICAL_SURFACE('',#327,0.002075);
#54=CYLINDRICAL_SURFACE('',#331,0.00105);
#55=B_SPLINE_SURFACE_WITH_KNOTS('',3,3,((#428,#429,#430,#431,#432,#433,
#434,#435,#436,#437,#438,#439,#440,#441,#442,#443,#444,#445,#446),(#447,
#448,#449,#450,#451,#452,#453,#454,#455,#456,#457,#458,#459,#460,#461,#462,
#463,#464,#465),(#466,#467,#468,#469,#470,#471,#472,#473,#474,#475,#476,
#477,#478,#479,#480,#481,#482,#483,#484),(#485,#486,#487,#488,#489,#490,
#491,#492,#493,#494,#495,#496,#497,#498,#499,#500,#501,#502,#503)),.UNSPECIFIED.,.F.,.T.,.F.,(4,4),(1,1,1,1,1,1,1,1,1,1,1,1,1,1,1,1,1,1,1,1,1,1,1),(0.,1.),(-1.17809724509617,-0.785398163397448,-0.392699081698725,0.,0.392699081698724,0.785398163397448,1.17809724509617,1.5707963267949,1.96349540849362,2.35619449019234,2.74889357189107,3.14159265358979,3.53429173528852,3.92699081698724,4.31968989868597,4.71238898038469,5.10508806208341,5.49778714378214,5.89048622548086,6.28318530717959,6.67588438887831,7.06858347057703,7.46128255227576),.UNSPECIFIED.);
#56=ORIENTED_EDGE('',*,*,#122,.F.);
#57=ORIENTED_EDGE('',*,*,#122,.T.);
#58=ORIENTED_EDGE('',*,*,#123,.F.);
#59=ORIENTED_EDGE('',*,*,#123,.T.);
#60=ORIENTED_EDGE('',*,*,#124,.F.);
#61=ORIENTED_EDGE('',*,*,#124,.T.);
#62=ORIENTED_EDGE('',*,*,#125,.F.);
#63=ORIENTED_EDGE('',*,*,#126,.F.);
#64=ORIENTED_EDGE('',*,*,#127,.T.);
#65=ORIENTED_EDGE('',*,*,#128,.T.);
#66=ORIENTED_EDGE('',*,*,#129,.F.);
#67=ORIENTED_EDGE('',*,*,#130,.F.);
#68=ORIENTED_EDGE('',*,*,#131,.T.);
#69=ORIENTED_EDGE('',*,*,#132,.T.);
#70=ORIENTED_EDGE('',*,*,#133,.F.);
#71=ORIENTED_EDGE('',*,*,#125,.T.);
#72=ORIENTED_EDGE('',*,*,#134,.T.);
#73=ORIENTED_EDGE('',*,*,#135,.F.);
#74=ORIENTED_EDGE('',*,*,#134,.F.);
#75=ORIENTED_EDGE('',*,*,#136,.F.);
#76=ORIENTED_EDGE('',*,*,#137,.T.);
#77=ORIENTED_EDGE('',*,*,#130,.T.);
#78=ORIENTED_EDGE('',*,*,#138,.F.);
#79=ORIENTED_EDGE('',*,*,#139,.F.);
#80=ORIENTED_EDGE('',*,*,#140,.F.);
#81=ORIENTED_EDGE('',*,*,#136,.T.);
#82=ORIENTED_EDGE('',*,*,#141,.T.);
#83=ORIENTED_EDGE('',*,*,#132,.F.);
#84=ORIENTED_EDGE('',*,*,#142,.T.);
#85=ORIENTED_EDGE('',*,*,#139,.T.);
#86=ORIENTED_EDGE('',*,*,#143,.F.);
#87=ORIENTED_EDGE('',*,*,#137,.F.);
#88=ORIENTED_EDGE('',*,*,#140,.T.);
#89=ORIENTED_EDGE('',*,*,#142,.F.);
#90=ORIENTED_EDGE('',*,*,#131,.F.);
#91=ORIENTED_EDGE('',*,*,#138,.T.);
#92=ORIENTED_EDGE('',*,*,#133,.T.);
#93=ORIENTED_EDGE('',*,*,#143,.T.);
#94=ORIENTED_EDGE('',*,*,#141,.F.);
#95=ORIENTED_EDGE('',*,*,#126,.T.);
#96=ORIENTED_EDGE('',*,*,#144,.F.);
#97=ORIENTED_EDGE('',*,*,#145,.F.);
#98=ORIENTED_EDGE('',*,*,#146,.T.);
#99=ORIENTED_EDGE('',*,*,#147,.T.);
#100=ORIENTED_EDGE('',*,*,#148,.F.);
#101=ORIENTED_EDGE('',*,*,#128,.F.);
#102=ORIENTED_EDGE('',*,*,#149,.T.);
#103=ORIENTED_EDGE('',*,*,#150,.F.);
#104=ORIENTED_EDGE('',*,*,#145,.T.);
#105=ORIENTED_EDGE('',*,*,#151,.T.);
#106=ORIENTED_EDGE('',*,*,#147,.F.);
#107=ORIENTED_EDGE('',*,*,#146,.F.);
#108=ORIENTED_EDGE('',*,*,#150,.T.);
#109=ORIENTED_EDGE('',*,*,#149,.F.);
#110=ORIENTED_EDGE('',*,*,#127,.F.);
#111=ORIENTED_EDGE('',*,*,#144,.T.);
#112=ORIENTED_EDGE('',*,*,#129,.T.);
#113=ORIENTED_EDGE('',*,*,#148,.T.);
#114=ORIENTED_EDGE('',*,*,#151,.F.);
#115=ORIENTED_EDGE('',*,*,#152,.F.);
#116=ORIENTED_EDGE('',*,*,#135,.T.);
#117=ORIENTED_EDGE('',*,*,#153,.F.);
#118=ORIENTED_EDGE('',*,*,#152,.T.);
#119=ORIENTED_EDGE('',*,*,#153,.T.);
#120=ORIENTED_EDGE('',*,*,#154,.F.);
#121=ORIENTED_EDGE('',*,*,#154,.T.);
#122=EDGE_CURVE('',#155,#155,#180,.T.);
#123=EDGE_CURVE('',#156,#156,#181,.T.);
#124=EDGE_CURVE('',#157,#157,#182,.T.);
#125=EDGE_CURVE('',#158,#158,#183,.T.);
#126=EDGE_CURVE('',#159,#160,#184,.T.);
#127=EDGE_CURVE('',#159,#161,#12,.T.);
#128=EDGE_CURVE('',#161,#162,#185,.T.);
#129=EDGE_CURVE('',#160,#162,#13,.T.);
#130=EDGE_CURVE('',#163,#164,#186,.T.);
#131=EDGE_CURVE('',#163,#165,#14,.T.);
#132=EDGE_CURVE('',#165,#166,#187,.T.);
#133=EDGE_CURVE('',#164,#166,#15,.T.);
#134=EDGE_CURVE('',#167,#167,#188,.T.);
#135=EDGE_CURVE('',#168,#168,#189,.T.);
#136=EDGE_CURVE('',#169,#170,#190,.T.);
#137=EDGE_CURVE('',#169,#163,#16,.T.);
#138=EDGE_CURVE('',#170,#164,#17,.T.);
#139=EDGE_CURVE('',#171,#172,#191,.T.);
#140=EDGE_CURVE('',#169,#171,#18,.T.);
#141=EDGE_CURVE('',#170,#172,#19,.T.);
#142=EDGE_CURVE('',#165,#171,#20,.T.);
#143=EDGE_CURVE('',#166,#172,#21,.T.);
#144=EDGE_CURVE('',#173,#160,#22,.T.);
#145=EDGE_CURVE('',#174,#173,#192,.T.);
#146=EDGE_CURVE('',#174,#159,#23,.T.);
#147=EDGE_CURVE('',#175,#176,#193,.T.);
#148=EDGE_CURVE('',#162,#176,#24,.T.);
#149=EDGE_CURVE('',#161,#175,#25,.T.);
#150=EDGE_CURVE('',#174,#175,#26,.T.);
#151=EDGE_CURVE('',#173,#176,#27,.T.);
#152=EDGE_CURVE('',#177,#177,#194,.T.);
#153=EDGE_CURVE('',#178,#178,#195,.T.);
#154=EDGE_CURVE('',#179,#179,#196,.T.);
#155=VERTEX_POINT('',#427);
#156=VERTEX_POINT('',#505);
#157=VERTEX_POINT('',#508);
#158=VERTEX_POINT('',#511);
#159=VERTEX_POINT('',#514);
#160=VERTEX_POINT('',#515);
#161=VERTEX_POINT('',#517);
#162=VERTEX_POINT('',#519);
#163=VERTEX_POINT('',#522);
#164=VERTEX_POINT('',#523);
#165=VERTEX_POINT('',#525);
#166=VERTEX_POINT('',#527);
#167=VERTEX_POINT('',#530);
#168=VERTEX_POINT('',#533);
#169=VERTEX_POINT('',#536);
#170=VERTEX_POINT('',#537);
#171=VERTEX_POINT('',#542);
#172=VERTEX_POINT('',#543);
#173=VERTEX_POINT('',#553);
#174=VERTEX_POINT('',#555);
#175=VERTEX_POINT('',#559);
#176=VERTEX_POINT('',#560);
#177=VERTEX_POINT('',#570);
#178=VERTEX_POINT('',#573);
#179=VERTEX_POINT('',#576);
#180=CIRCLE('',#299,0.002);
#181=CIRCLE('',#300,0.019);
#182=CIRCLE('',#302,0.019);
#183=CIRCLE('',#304,0.0065);
#184=CIRCLE('',#306,0.0065);
#185=CIRCLE('',#307,0.0065);
#186=CIRCLE('',#308,0.0065);
#187=CIRCLE('',#309,0.0065);
#188=CIRCLE('',#310,0.0065);
#189=CIRCLE('',#312,0.002075);
#190=CIRCLE('',#314,0.0085);
#191=CIRCLE('',#316,0.0085);
#192=CIRCLE('',#321,0.0085);
#193=CIRCLE('',#323,0.0085);
#194=CIRCLE('',#328,0.002075);
#195=CIRCLE('',#330,0.00105);
#196=CIRCLE('',#332,0.00105);
#197=EDGE_LOOP('',(#56));
#198=EDGE_LOOP('',(#57));
#199=EDGE_LOOP('',(#58));
#200=EDGE_LOOP('',(#59));
#201=EDGE_LOOP('',(#60));
#202=EDGE_LOOP('',(#61));
#203=EDGE_LOOP('',(#62));
#204=EDGE_LOOP('',(#63,#64,#65,#66));
#205=EDGE_LOOP('',(#67,#68,#69,#70));
#206=EDGE_LOOP('',(#71));
#207=EDGE_LOOP('',(#72));
#208=EDGE_LOOP('',(#73));
#209=EDGE_LOOP('',(#74));
#210=EDGE_LOOP('',(#75,#76,#77,#78));
#211=EDGE_LOOP('',(#79,#80,#81,#82));
#212=EDGE_LOOP('',(#83,#84,#85,#86));
#213=EDGE_LOOP('',(#87,#88,#89,#90));
#214=EDGE_LOOP('',(#91,#92,#93,#94));
#215=EDGE_LOOP('',(#95,#96,#97,#98));
#216=EDGE_LOOP('',(#99,#100,#101,#102));
#217=EDGE_LOOP('',(#103,#104,#105,#106));
#218=EDGE_LOOP('',(#107,#108,#109,#110));
#219=EDGE_LOOP('',(#111,#112,#113,#114));
#220=EDGE_LOOP('',(#115));
#221=EDGE_LOOP('',(#116));
#222=EDGE_LOOP('',(#117));
#223=EDGE_LOOP('',(#118));
#224=EDGE_LOOP('',(#119));
#225=EDGE_LOOP('',(#120));
#226=EDGE_LOOP('',(#121));
#227=FACE_BOUND('',#197,.T.);
#228=FACE_BOUND('',#198,.T.);
#229=FACE_BOUND('',#199,.T.);
#230=FACE_BOUND('',#200,.T.);
#231=FACE_BOUND('',#201,.T.);
#232=FACE_BOUND('',#202,.T.);
#233=FACE_BOUND('',#203,.T.);
#234=FACE_BOUND('',#204,.T.);
#235=FACE_BOUND('',#205,.T.);
#236=FACE_BOUND('',#206,.T.);
#237=FACE_BOUND('',#207,.T.);
#238=FACE_BOUND('',#208,.T.);
#239=FACE_BOUND('',#209,.T.);
#240=FACE_BOUND('',#210,.T.);
#241=FACE_BOUND('',#211,.T.);
#242=FACE_BOUND('',#212,.T.);
#243=FACE_BOUND('',#213,.T.);
#244=FACE_BOUND('',#214,.T.);
#245=FACE_BOUND('',#215,.T.);
#246=FACE_BOUND('',#216,.T.);
#247=FACE_BOUND('',#217,.T.);
#248=FACE_BOUND('',#218,.T.);
#249=FACE_BOUND('',#219,.T.);
#250=FACE_BOUND('',#220,.T.);
#251=FACE_BOUND('',#221,.T.);
#252=FACE_BOUND('',#222,.T.);
#253=FACE_BOUND('',#223,.T.);
#254=FACE_BOUND('',#224,.T.);
#255=FACE_BOUND('',#225,.T.);
#256=FACE_BOUND('',#226,.T.);
#257=PLANE('',#298);
#258=PLANE('',#311);
#259=PLANE('',#318);
#260=PLANE('',#319);
#261=PLANE('',#325);
#262=PLANE('',#326);
#263=PLANE('',#329);
#264=PLANE('',#333);
#265=ADVANCED_FACE('',(#227),#257,.F.);
#266=ADVANCED_FACE('',(#228,#229),#55,.T.);
#267=ADVANCED_FACE('',(#230,#231),#49,.T.);
#268=ADVANCED_FACE('',(#232,#233),#44,.T.);
#269=ADVANCED_FACE('',(#234,#235,#236,#237),#50,.T.);
#270=ADVANCED_FACE('',(#238,#239),#258,.F.);
#271=ADVANCED_FACE('',(#240),#45,.T.);
#272=ADVANCED_FACE('',(#241),#51,.T.);
#273=ADVANCED_FACE('',(#242),#46,.T.);
#274=ADVANCED_FACE('',(#243),#259,.T.);
#275=ADVANCED_FACE('',(#244),#260,.F.);
#276=ADVANCED_FACE('',(#245),#47,.T.);
#277=ADVANCED_FACE('',(#246),#48,.T.);
#278=ADVANCED_FACE('',(#247),#52,.T.);
#279=ADVANCED_FACE('',(#248),#261,.F.);
#280=ADVANCED_FACE('',(#249),#262,.T.);
#281=ADVANCED_FACE('',(#250,#251),#53,.F.);
#282=ADVANCED_FACE('',(#252,#253),#263,.T.);
#283=ADVANCED_FACE('',(#254,#255),#54,.F.);
#284=ADVANCED_FACE('',(#256),#264,.T.);
#285=CLOSED_SHELL('',(#265,#266,#267,#268,#269,#270,#271,#272,#273,#274,#275,#276,#277,#278,#279,#280,#281,#282,#283,#284));
#286=STYLED_ITEM('',(#287),#294);
#287=PRESENTATION_STYLE_ASSIGNMENT((#288));
#288=SURFACE_STYLE_USAGE(.BOTH.,#289);
#289=SURFACE_SIDE_STYLE('',(#290));
#290=SURFACE_STYLE_FILL_AREA(#291);
#291=FILL_AREA_STYLE('',(#292));
#292=FILL_AREA_STYLE_COLOUR('',#293);
#293=COLOUR_RGB('',0.262745098039216,0.282352941176471,0.301960784313725);
#294=MANIFOLD_SOLID_BREP('Head',#285);
#295=SHAPE_DEFINITION_REPRESENTATION(#584,#296);
#296=SHAPE_REPRESENTATION('Head',(#297),#579);
#297=AXIS2_PLACEMENT_3D('',#424,#334,#335);
#298=AXIS2_PLACEMENT_3D('',#425,#336,#337);
#299=AXIS2_PLACEMENT_3D('',#426,#338,#339);
#300=AXIS2_PLACEMENT_3D('',#504,#340,#341);
#301=AXIS2_PLACEMENT_3D('',#506,#342,#343);
#302=AXIS2_PLACEMENT_3D('',#507,#344,#345);
#303=AXIS2_PLACEMENT_3D('',#509,#346,#347);
#304=AXIS2_PLACEMENT_3D('',#510,#348,#349);
#305=AXIS2_PLACEMENT_3D('',#512,#350,#351);
#306=AXIS2_PLACEMENT_3D('',#513,#352,#353);
#307=AXIS2_PLACEMENT_3D('',#518,#355,#356);
#308=AXIS2_PLACEMENT_3D('',#521,#358,#359);
#309=AXIS2_PLACEMENT_3D('',#526,#361,#362);
#310=AXIS2_PLACEMENT_3D('',#529,#364,#365);
#311=AXIS2_PLACEMENT_3D('',#531,#366,#367);
#312=AXIS2_PLACEMENT_3D('',#532,#368,#369);
#313=AXIS2_PLACEMENT_3D('',#534,#370,#371);
#314=AXIS2_PLACEMENT_3D('',#535,#372,#373);
#315=AXIS2_PLACEMENT_3D('',#540,#376,#377);
#316=AXIS2_PLACEMENT_3D('',#541,#378,#379);
#317=AXIS2_PLACEMENT_3D('',#546,#382,#383);
#318=AXIS2_PLACEMENT_3D('',#549,#386,#387);
#319=AXIS2_PLACEMENT_3D('',#550,#388,#389);
#320=AXIS2_PLACEMENT_3D('',#551,#390,#391);
#321=AXIS2_PLACEMENT_3D('',#554,#393,#394);
#322=AXIS2_PLACEMENT_3D('',#557,#396,#397);
#323=AXIS2_PLACEMENT_3D('',#558,#398,#399);
#324=AXIS2_PLACEMENT_3D('',#563,#402,#403);
#325=AXIS2_PLACEMENT_3D('',#566,#406,#407);
#326=AXIS2_PLACEMENT_3D('',#567,#408,#409);
#327=AXIS2_PLACEMENT_3D('',#568,#410,#411);
#328=AXIS2_PLACEMENT_3D('',#569,#412,#413);
#329=AXIS2_PLACEMENT_3D('',#571,#414,#415);
#330=AXIS2_PLACEMENT_3D('',#572,#416,#417);
#331=AXIS2_PLACEMENT_3D('',#574,#418,#419);
#332=AXIS2_PLACEMENT_3D('',#575,#420,#421);
#333=AXIS2_PLACEMENT_3D('',#577,#422,#423);
#334=DIRECTION('',(0.,0.,1.));
#335=DIRECTION('',(1.,0.,0.));
#336=DIRECTION('',(0.,0.,-1.));
#337=DIRECTION('',(-1.,0.,0.));
#338=DIRECTION('',(0.,0.,-1.));
#339=DIRECTION('',(-1.,0.,0.));
#340=DIRECTION('',(0.,0.,-1.));
#341=DIRECTION('',(-1.,0.,0.));
#342=DIRECTION('',(0.,0.,-1.));
#343=DIRECTION('',(-1.,0.,0.));
#344=DIRECTION('',(0.,0.,-1.));
#345=DIRECTION('',(-1.,0.,0.));
#346=DIRECTION('',(0.,0.,1.));
#347=DIRECTION('',(1.,0.,0.));
#348=DIRECTION('',(0.,0.,-1.));
#349=DIRECTION('',(-1.,0.,0.));
#350=DIRECTION('',(0.,0.,-1.));
#351=DIRECTION('',(-1.,0.,0.));
#352=DIRECTION('',(0.,0.,-1.));
#353=DIRECTION('',(-1.,0.,0.));
#354=DIRECTION('',(-4.98866081743603E-17,-1.86179356323993E-16,-1.));
#355=DIRECTION('',(0.,0.,-1.));
#356=DIRECTION('',(-1.,0.,0.));
#357=DIRECTION('',(-1.66923844304128E-16,-9.63735264431559E-17,-1.));
#358=DIRECTION('',(0.,0.,-1.));
#359=DIRECTION('',(-1.,0.,0.));
#360=DIRECTION('',(4.98866081743603E-17,1.86179356323993E-16,-1.));
#361=DIRECTION('',(0.,0.,-1.));
#362=DIRECTION('',(-1.,0.,0.));
#363=DIRECTION('',(1.66923844304128E-16,9.63735264431559E-17,-1.));
#364=DIRECTION('',(0.,0.,1.));
#365=DIRECTION('',(1.,0.,0.));
#366=DIRECTION('',(0.,0.,1.));
#367=DIRECTION('',(1.,0.,0.));
#368=DIRECTION('',(0.,0.,-1.));
#369=DIRECTION('',(-1.,0.,0.));
#370=DIRECTION('',(0.,0.,-1.));
#371=DIRECTION('',(-1.,0.,0.));
#372=DIRECTION('',(0.,0.,-1.));
#373=DIRECTION('',(-1.,0.,0.));
#374=DIRECTION('',(0.18301270189222,0.683012701892219,0.707106781186547));
#375=DIRECTION('',(0.612372435695795,0.353553390593274,0.707106781186547));
#376=DIRECTION('',(0.,0.,-1.));
#377=DIRECTION('',(-1.,0.,0.));
#378=DIRECTION('',(0.,0.,-1.));
#379=DIRECTION('',(-1.,0.,0.));
#380=DIRECTION('',(0.,0.,-1.));
#381=DIRECTION('',(0.,0.,-1.));
#382=DIRECTION('',(0.,0.,1.));
#383=DIRECTION('',(1.,0.,0.));
#384=DIRECTION('',(-0.18301270189222,-0.683012701892219,0.707106781186548));
#385=DIRECTION('',(-0.612372435695795,-0.353553390593274,0.707106781186548));
#386=DIRECTION('',(0.965925826289068,-0.258819045102521,0.));
#387=DIRECTION('',(0.258819045102521,0.965925826289068,0.));
#388=DIRECTION('',(0.5,-0.866025403784439,0.));
#389=DIRECTION('',(0.866025403784439,0.5,0.));
#390=DIRECTION('',(0.,0.,-1.));
#391=DIRECTION('',(-1.,0.,0.));
#392=DIRECTION('',(-0.612372435695795,-0.353553390593274,0.707106781186547));
#393=DIRECTION('',(0.,0.,-1.));
#394=DIRECTION('',(-1.,0.,0.));
#395=DIRECTION('',(-0.18301270189222,-0.683012701892219,0.707106781186547));
#396=DIRECTION('',(0.,0.,1.));
#397=DIRECTION('',(1.,0.,0.));
#398=DIRECTION('',(0.,0.,-1.));
#399=DIRECTION('',(-1.,0.,0.));
#400=DIRECTION('',(0.612372435695795,0.353553390593274,0.707106781186547));
#401=DIRECTION('',(0.18301270189222,0.683012701892219,0.707106781186547));
#402=DIRECTION('',(0.,0.,-1.));
#403=DIRECTION('',(-1.,0.,0.));
#404=DIRECTION('',(0.,0.,-1.));
#405=DIRECTION('',(0.,0.,-1.));
#406=DIRECTION('',(0.965925826289068,-0.258819045102521,0.));
#407=DIRECTION('',(0.258819045102521,0.965925826289068,0.));
#408=DIRECTION('',(0.5,-0.866025403784439,0.));
#409=DIRECTION('',(0.866025403784439,0.5,0.));
#410=DIRECTION('',(0.,0.,-1.));
#411=DIRECTION('',(-1.,0.,0.));
#412=DIRECTION('',(0.,0.,-1.));
#413=DIRECTION('',(-1.,0.,0.));
#414=DIRECTION('',(0.,0.,-1.));
#415=DIRECTION('',(1.,0.,0.));
#416=DIRECTION('',(0.,0.,-1.));
#417=DIRECTION('',(-1.,0.,0.));
#418=DIRECTION('',(0.,0.,-1.));
#419=DIRECTION('',(-1.,0.,0.));
#420=DIRECTION('',(0.,0.,-1.));
#421=DIRECTION('',(-1.,0.,0.));
#422=DIRECTION('',(0.,0.,-1.));
#423=DIRECTION('',(1.,0.,0.));
#424=CARTESIAN_POINT('',(0.,0.,0.));
#425=CARTESIAN_POINT('',(-0.001,0.,0.10465));
#426=CARTESIAN_POINT('',(0.,0.,0.10465));
#427=CARTESIAN_POINT('',(-0.002,0.,0.10465));
#428=CARTESIAN_POINT('',(-0.0180107055600589,-0.00746027851088485,0.0870952380952381));
#429=CARTESIAN_POINT('',(-0.0194946472199706,-1.45283091113058E-17,0.0870952380952381));
#430=CARTESIAN_POINT('',(-0.0180107055600589,0.0074602785108849,0.0870952380952381));
#431=CARTESIAN_POINT('',(-0.0137847972460807,0.0137847972460807,0.0870952380952381));
#432=CARTESIAN_POINT('',(-0.00746027851088489,0.0180107055600589,0.0870952380952381));
#433=CARTESIAN_POINT('',(-3.75405002223106E-18,0.0194946472199706,0.0870952380952381));
#434=CARTESIAN_POINT('',(0.00746027851088489,0.0180107055600589,0.0870952380952381));
#435=CARTESIAN_POINT('',(0.0137847972460807,0.0137847972460807,0.0870952380952381));
#436=CARTESIAN_POINT('',(0.0180107055600589,0.00746027851088489,0.0870952380952381));
#437=CARTESIAN_POINT('',(0.0194946472199706,2.69598675710223E-18,0.0870952380952381));
#438=CARTESIAN_POINT('',(0.0180107055600589,-0.00746027851088489,0.0870952380952381));
#439=CARTESIAN_POINT('',(0.0137847972460807,-0.0137847972460807,0.0870952380952381));
#440=CARTESIAN_POINT('',(0.0074602785108849,-0.0180107055600589,0.0870952380952381));
#441=CARTESIAN_POINT('',(5.00088252058939E-18,-0.0194946472199706,0.0870952380952381));
#442=CARTESIAN_POINT('',(-0.0074602785108849,-0.0180107055600589,0.0870952380952381));
#443=CARTESIAN_POINT('',(-0.0137847972460807,-0.0137847972460807,0.0870952380952381));
#444=CARTESIAN_POINT('',(-0.0180107055600589,-0.00746027851088485,0.0870952380952381));
#445=CARTESIAN_POINT('',(-0.0194946472199706,-1.45283091113058E-17,0.0870952380952381));
#446=CARTESIAN_POINT('',(-0.0180107055600589,0.0074602785108849,0.0870952380952381));
#447=CARTESIAN_POINT('',(-0.0180107055600589,-0.00746027851088486,0.0979523809523809));
#448=CARTESIAN_POINT('',(-0.0194946472199706,-1.53956708492942E-17,0.0979523809523809));
#449=CARTESIAN_POINT('',(-0.0180107055600589,0.00746027851088491,0.0979523809523809));
#450=CARTESIAN_POINT('',(-0.0137847972460807,0.0137847972460807,0.0979523809523809));
#451=CARTESIAN_POINT('',(-0.00746027851088491,0.0180107055600589,0.0979523809523809));
#452=CARTESIAN_POINT('',(-5.84113920426566E-18,0.0194946472199706,0.0979523809523809));
#453=CARTESIAN_POINT('',(0.0074602785108849,0.0180107055600589,0.0979523809523809));
#454=CARTESIAN_POINT('',(0.0137847972460806,0.0137847972460807,0.0979523809523809));
#455=CARTESIAN_POINT('',(0.0180107055600589,0.0074602785108849,0.0979523809523809));
#456=CARTESIAN_POINT('',(0.0194946472199706,1.99879923217314E-18,0.0979523809523809));
#457=CARTESIAN_POINT('',(0.0180107055600589,-0.00746027851088489,0.0979523809523809));
#458=CARTESIAN_POINT('',(0.0137847972460807,-0.0137847972460807,0.0979523809523809));
#459=CARTESIAN_POINT('',(0.0074602785108849,-0.0180107055600589,0.0979523809523809));
#460=CARTESIAN_POINT('',(2.20906192643922E-18,-0.0194946472199706,0.0979523809523809));
#461=CARTESIAN_POINT('',(-0.0074602785108849,-0.0180107055600589,0.0979523809523809));
#462=CARTESIAN_POINT('',(-0.0137847972460807,-0.0137847972460807,0.0979523809523809));
#463=CARTESIAN_POINT('',(-0.0180107055600589,-0.00746027851088486,0.0979523809523809));
#464=CARTESIAN_POINT('',(-0.0194946472199706,-1.53956708492942E-17,0.0979523809523809));
#465=CARTESIAN_POINT('',(-0.0180107055600589,0.00746027851088491,0.0979523809523809));
#466=CARTESIAN_POINT('',(-0.0102918317486051,-0.0042630162919342,0.10315));
#467=CARTESIAN_POINT('',(-0.0111397984114118,-8.90401034153721E-18,0.10315));
#468=CARTESIAN_POINT('',(-0.0102918317486051,0.00426301629193423,0.10315));
#469=CARTESIAN_POINT('',(-0.00787702699776038,0.00787702699776038,0.10315));
#470=CARTESIAN_POINT('',(-0.00426301629193423,0.0102918317486051,0.10315));
#471=CARTESIAN_POINT('',(-2.89007641603167E-18,0.0111397984114118,0.10315));
#472=CARTESIAN_POINT('',(0.00426301629193423,0.0102918317486051,0.10315));
#473=CARTESIAN_POINT('',(0.00787702699776038,0.00787702699776038,0.10315));
#474=CARTESIAN_POINT('',(0.0102918317486051,0.00426301629193423,0.10315));
#475=CARTESIAN_POINT('',(0.0111397984114118,1.05498449888891E-18,0.10315));
#476=CARTESIAN_POINT('',(0.0102918317486051,-0.00426301629193422,0.10315));
#477=CARTESIAN_POINT('',(0.00787702699776038,-0.00787702699776038,0.10315));
#478=CARTESIAN_POINT('',(0.00426301629193423,-0.0102918317486051,0.10315));
#479=CARTESIAN_POINT('',(5.20671152677218E-18,-0.0111397984114118,0.10315));
#480=CARTESIAN_POINT('',(-0.00426301629193423,-0.0102918317486051,0.10315));
#481=CARTESIAN_POINT('',(-0.00787702699776039,-0.00787702699776038,0.10315));
#482=CARTESIAN_POINT('',(-0.0102918317486051,-0.0042630162919342,0.10315));
#483=CARTESIAN_POINT('',(-0.0111397984114118,-8.90401034153721E-18,0.10315));
#484=CARTESIAN_POINT('',(-0.0102918317486051,0.00426301629193423,0.10315));
#485=CARTESIAN_POINT('',(-0.00189586374316409,-0.000785292474829985,0.10465));
#486=CARTESIAN_POINT('',(-0.00205206812841795,-1.50433051432364E-18,0.10465));
#487=CARTESIAN_POINT('',(-0.00189586374316409,0.000785292474829989,0.10465));
#488=CARTESIAN_POINT('',(-0.00145103128906112,0.00145103128906112,0.10465));
#489=CARTESIAN_POINT('',(-0.000785292474829989,0.00189586374316409,0.10465));
#490=CARTESIAN_POINT('',(-6.40356908124251E-19,0.00205206812841795,0.10465));
#491=CARTESIAN_POINT('',(0.000785292474829989,0.00189586374316409,0.10465));
#492=CARTESIAN_POINT('',(0.00145103128906112,0.00145103128906112,0.10465));
#493=CARTESIAN_POINT('',(0.00189586374316409,0.000785292474829989,0.10465));
#494=CARTESIAN_POINT('',(0.00205206812841795,2.88376668231912E-19,0.10465));
#495=CARTESIAN_POINT('',(0.00189586374316409,-0.000785292474829989,0.10465));
#496=CARTESIAN_POINT('',(0.00145103128906112,-0.00145103128906112,0.10465));
#497=CARTESIAN_POINT('',(0.000785292474829989,-0.00189586374316409,0.10465));
#498=CARTESIAN_POINT('',(4.7857361519868E-19,-0.00205206812841796,0.10465));
#499=CARTESIAN_POINT('',(-0.000785292474829989,-0.00189586374316409,0.10465));
#500=CARTESIAN_POINT('',(-0.00145103128906112,-0.00145103128906112,0.10465));
#501=CARTESIAN_POINT('',(-0.00189586374316409,-0.000785292474829985,0.10465));
#502=CARTESIAN_POINT('',(-0.00205206812841795,-1.50433051432364E-18,0.10465));
#503=CARTESIAN_POINT('',(-0.00189586374316409,0.000785292474829989,0.10465));
#504=CARTESIAN_POINT('',(0.,0.,0.0870952380952381));
#505=CARTESIAN_POINT('',(-0.019,0.,0.0870952380952381));
#506=CARTESIAN_POINT('',(0.,0.,0.082325));
#507=CARTESIAN_POINT('',(0.,0.,0.069));
#508=CARTESIAN_POINT('',(-0.019,0.,0.069));
#509=CARTESIAN_POINT('',(0.,0.,0.0565));
#510=CARTESIAN_POINT('',(0.,0.,0.0565));
#511=CARTESIAN_POINT('',(-0.0065,0.,0.0565));
#512=CARTESIAN_POINT('',(0.,3.9801020972289E-19,0.06));
#513=CARTESIAN_POINT('',(0.,0.,0.0515));
#514=CARTESIAN_POINT('',(0.00168232379316638,0.00627851787087894,0.0515));
#515=CARTESIAN_POINT('',(0.00562916512459885,0.00325,0.0515));
#516=CARTESIAN_POINT('',(0.00168232379316638,0.00627851787087894,0.04925));
#517=CARTESIAN_POINT('',(0.00168232379316638,0.00627851787087894,0.0425));
#518=CARTESIAN_POINT('',(0.,0.,0.0425));
#519=CARTESIAN_POINT('',(0.00562916512459885,0.00325,0.0425));
#520=CARTESIAN_POINT('',(0.00562916512459885,0.00325,0.04925));
#521=CARTESIAN_POINT('',(0.,0.,0.0515));
#522=CARTESIAN_POINT('',(-0.00168232379316638,-0.00627851787087894,0.0515));
#523=CARTESIAN_POINT('',(-0.00562916512459885,-0.00325,0.0515));
#524=CARTESIAN_POINT('',(-0.00168232379316638,-0.00627851787087894,0.04925));
#525=CARTESIAN_POINT('',(-0.00168232379316638,-0.00627851787087894,0.0425));
#526=CARTESIAN_POINT('',(0.,0.,0.0425));
#527=CARTESIAN_POINT('',(-0.00562916512459885,-0.00325,0.0425));
#528=CARTESIAN_POINT('',(-0.00562916512459885,-0.00325,0.04925));
#529=CARTESIAN_POINT('',(0.,3.9801020972289E-19,0.035));
#530=CARTESIAN_POINT('',(0.0065,3.9801020972289E-19,0.035));
#531=CARTESIAN_POINT('',(0.,0.,0.035));
#532=CARTESIAN_POINT('',(0.,-1.27057105411538E-19,0.035));
#533=CARTESIAN_POINT('',(-0.002075,-1.27057105411538E-19,0.035));
#534=CARTESIAN_POINT('',(0.,0.,0.0495));
#535=CARTESIAN_POINT('',(0.,0.,0.0495));
#536=CARTESIAN_POINT('',(-0.00219996188337142,-0.00821036952345708,0.0495));
#537=CARTESIAN_POINT('',(-0.00736121593216773,-0.00425,0.0495));
#538=CARTESIAN_POINT('',(-0.0019411428382689,-0.00724444369716801,0.0505));
#539=CARTESIAN_POINT('',(-0.00649519052838329,-0.00375,0.0505));
#540=CARTESIAN_POINT('',(0.,0.,0.0555));
#541=CARTESIAN_POINT('',(0.,0.,0.0445));
#542=CARTESIAN_POINT('',(-0.00219996188337142,-0.00821036952345708,0.0445));
#543=CARTESIAN_POINT('',(-0.00736121593216773,-0.00425,0.0445));
#544=CARTESIAN_POINT('',(-0.00219996188337142,-0.00821036952345708,0.04825));
#545=CARTESIAN_POINT('',(-0.00736121593216773,-0.00425,0.04825));
#546=CARTESIAN_POINT('',(0.,0.,0.0425));
#547=CARTESIAN_POINT('',(-0.0019411428382689,-0.00724444369716801,0.0435));
#548=CARTESIAN_POINT('',(-0.00649519052838329,-0.00375,0.0435));
#549=CARTESIAN_POINT('',(0.,0.,0.0475));
#550=CARTESIAN_POINT('',(0.,0.,0.0475));
#551=CARTESIAN_POINT('',(0.,0.,0.0495));
#552=CARTESIAN_POINT('',(0.00649519052838329,0.00375,0.0505));
#553=CARTESIAN_POINT('',(0.00736121593216773,0.00425,0.0495));
#554=CARTESIAN_POINT('',(0.,0.,0.0495));
#555=CARTESIAN_POINT('',(0.00219996188337142,0.00821036952345708,0.0495));
#556=CARTESIAN_POINT('',(0.0019411428382689,0.00724444369716801,0.0505));
#557=CARTESIAN_POINT('',(0.,0.,0.0425));
#558=CARTESIAN_POINT('',(0.,0.,0.0445));
#559=CARTESIAN_POINT('',(0.00219996188337142,0.00821036952345708,0.0445));
#560=CARTESIAN_POINT('',(0.00736121593216773,0.00425,0.0445));
#561=CARTESIAN_POINT('',(0.00649519052838329,0.00375,0.0435));
#562=CARTESIAN_POINT('',(0.0019411428382689,0.00724444369716801,0.0435));
#563=CARTESIAN_POINT('',(0.,0.,0.0555));
#564=CARTESIAN_POINT('',(0.00219996188337142,0.00821036952345708,0.04825));
#565=CARTESIAN_POINT('',(0.00736121593216773,0.00425,0.04825));
#566=CARTESIAN_POINT('',(0.,0.,0.0475));
#567=CARTESIAN_POINT('',(0.,0.,0.0475));
#568=CARTESIAN_POINT('',(0.,-1.27057105411538E-19,0.05));
#569=CARTESIAN_POINT('',(0.,-1.27057105411538E-19,0.05));
#570=CARTESIAN_POINT('',(-0.002075,-1.27057105411538E-19,0.05));
#571=CARTESIAN_POINT('',(0.,0.,0.05));
#572=CARTESIAN_POINT('',(0.,-6.42939569552361E-20,0.05));
#573=CARTESIAN_POINT('',(-0.00105,-6.42939569552361E-20,0.05));
#574=CARTESIAN_POINT('',(0.,-6.42939569552361E-20,0.088));
#575=CARTESIAN_POINT('',(0.,-6.42939569552361E-20,0.088));
#576=CARTESIAN_POINT('',(-0.00105,-6.42939569552361E-20,0.088));
#577=CARTESIAN_POINT('',(0.,0.,0.088));
#578=MECHANICAL_DESIGN_GEOMETRIC_PRESENTATION_REPRESENTATION('',(#286),#579);
#579=(
GEOMETRIC_REPRESENTATION_CONTEXT(3)
GLOBAL_UNCERTAINTY_ASSIGNED_CONTEXT((#580))
GLOBAL_UNIT_ASSIGNED_CONTEXT((#583,#582,#581))
REPRESENTATION_CONTEXT('Head','TOP_LEVEL_ASSEMBLY_PART')
);
#580=UNCERTAINTY_MEASURE_WITH_UNIT(LENGTH_MEASURE(2.E-05),#583,'DISTANCE_ACCURACY_VALUE','Maximum Tolerance applied to model');
#581=(
NAMED_UNIT(*)
SI_UNIT($,.STERADIAN.)
SOLID_ANGLE_UNIT()
);
#582=(
NAMED_UNIT(*)
PLANE_ANGLE_UNIT()
SI_UNIT($,.RADIAN.)
);
#583=(
LENGTH_UNIT()
NAMED_UNIT(*)
SI_UNIT($,.METRE.)
);
#584=PRODUCT_DEFINITION_SHAPE('','',#585);
#585=PRODUCT_DEFINITION('','',#587,#586);
#586=PRODUCT_DEFINITION_CONTEXT('',#593,'design');
#587=PRODUCT_DEFINITION_FORMATION_WITH_SPECIFIED_SOURCE('','',#589,.NOT_KNOWN.);
#588=PRODUCT_RELATED_PRODUCT_CATEGORY('','',(#589));
#589=PRODUCT('Head','Head','Head',(#591));
#590=PRODUCT_CATEGORY('','');
#591=PRODUCT_CONTEXT('',#593,'mechanical');
#592=APPLICATION_PROTOCOL_DEFINITION('international standard','ap242_managed_model_based_3d_engineering',2020,#593);
#593=APPLICATION_CONTEXT('managed model based 3d engineering');
ENDSEC;
END-ISO-10303-21;
