ISO-10303-21;
HEADER;
/*Generated by software containing ST-Developer
 * from STEP Tools, Inc. (www.steptools.com) 
 */
/*OPTION: using custom renumber hook */
/*description */
/*implementation_level */
FILE_DESCRIPTION(('STEP AP242 Edition 2','STEP AP242 Edition 2''CAx-IF Rec.Pracs.---Representation and Presentation of Product Manufa
cturing Information (PMI)---4.0---2014-10-13','STEP AP242 Edition 2''CAx-IF Rec.Pracs.---Representation and Presentation of Product Manufa
cturing Information (PMI)---4.0---2014-10-13''CAx-IF Rec.Pracs.---3D Tessellated Geometry---0.4---2014-09-14','STEP AP242 Edition 2''CAx-IF Rec.Pracs.---Representation and Presentation of Product Manufa
cturing Information (PMI)---4.0---2014-10-13''CAx-IF Rec.Pracs.---3D Tessellated Geometry---0.4---2014-09-14''2;1','STEP AP242 Edition 2''CAx-IF Rec.Pracs.---Representation and Presentation of Product Manufa
cturing Information (PMI)---4.0---2014-10-13''CAx-IF Rec.Pracs.---3D Tessellated Geometry---0.4---2014-09-14''2;1''CAx-IF Rec.Pracs.---User Defined Attributes---1.5---2016-08-15'),'2;1');
/*name */
/*time_stamp */
/*author */
/*organization */
/*preprocessor_version */
/*originating_system */
/*authorisation */
FILE_NAME('/vol/tmp/translate-1428816224616919280/Part Studio 1 - Head.step','2026-02-26T20:14:45',(''),(''),'ST-DEVELOPER v20','ONSHAPE BY PTC INC, 1.211','  ');
FILE_SCHEMA(('AP242_MANAGED_MODEL_BASED_3D_ENGINEERING_MIM_LF { 1 0 10303 442 3 1 4 }'));
ENDSEC;
DATA;
#10=SHAPE_REPRESENTATION_RELATIONSHIP('','',#274,#11);
#11=ADVANCED_BREP_SHAPE_REPRESENTATION('',(#272),#467);
#12=PLANE('',#286);
#13=PLANE('',#293);
#14=PLANE('',#294);
#15=PLANE('',#300);
#16=PLANE('',#301);
#17=PLANE('',#304);
#18=PLANE('',#308);
#19=LINE('',#404,#35);
#20=LINE('',#408,#36);
#21=LINE('',#412,#37);
#22=LINE('',#416,#38);
#23=LINE('',#426,#39);
#24=LINE('',#427,#40);
#25=LINE('',#432,#41);
#26=LINE('',#433,#42);
#27=LINE('',#435,#43);
#28=LINE('',#436,#44);
#29=LINE('',#440,#45);
#30=LINE('',#444,#46);
#31=LINE('',#449,#47);
#32=LINE('',#450,#48);
#33=LINE('',#452,#49);
#34=LINE('',#453,#50);
#35=VECTOR('',#323,1.);
#36=VECTOR('',#326,1.);
#37=VECTOR('',#329,1.);
#38=VECTOR('',#332,1.);
#39=VECTOR('',#343,1.);
#40=VECTOR('',#344,1.);
#41=VECTOR('',#349,1.);
#42=VECTOR('',#350,1.);
#43=VECTOR('',#353,1.);
#44=VECTOR('',#354,1.);
#45=VECTOR('',#361,1.);
#46=VECTOR('',#364,1.);
#47=VECTOR('',#369,1.);
#48=VECTOR('',#370,1.);
#49=VECTOR('',#373,1.);
#50=VECTOR('',#374,1.);
#51=CYLINDRICAL_SURFACE('',#280,0.009);
#52=CYLINDRICAL_SURFACE('',#290,0.011);
#53=CYLINDRICAL_SURFACE('',#299,0.011);
#54=CYLINDRICAL_SURFACE('',#302,0.002075);
#55=CYLINDRICAL_SURFACE('',#306,0.00105);
#56=CONICAL_SURFACE('',#278,0.009,0.785398163397448);
#57=CONICAL_SURFACE('',#288,0.011,0.785398163397448);
#58=CONICAL_SURFACE('',#292,0.009,0.78539816339745);
#59=CONICAL_SURFACE('',#295,0.011,0.785398163397448);
#60=CONICAL_SURFACE('',#297,0.009,0.785398163397448);
#61=ORIENTED_EDGE('',*,*,#123,.F.);
#62=ORIENTED_EDGE('',*,*,#123,.T.);
#63=ORIENTED_EDGE('',*,*,#124,.F.);
#64=ORIENTED_EDGE('',*,*,#125,.F.);
#65=ORIENTED_EDGE('',*,*,#126,.T.);
#66=ORIENTED_EDGE('',*,*,#127,.T.);
#67=ORIENTED_EDGE('',*,*,#128,.F.);
#68=ORIENTED_EDGE('',*,*,#129,.F.);
#69=ORIENTED_EDGE('',*,*,#130,.T.);
#70=ORIENTED_EDGE('',*,*,#131,.T.);
#71=ORIENTED_EDGE('',*,*,#132,.F.);
#72=ORIENTED_EDGE('',*,*,#124,.T.);
#73=ORIENTED_EDGE('',*,*,#133,.T.);
#74=ORIENTED_EDGE('',*,*,#134,.F.);
#75=ORIENTED_EDGE('',*,*,#133,.F.);
#76=ORIENTED_EDGE('',*,*,#135,.F.);
#77=ORIENTED_EDGE('',*,*,#136,.T.);
#78=ORIENTED_EDGE('',*,*,#129,.T.);
#79=ORIENTED_EDGE('',*,*,#137,.F.);
#80=ORIENTED_EDGE('',*,*,#138,.F.);
#81=ORIENTED_EDGE('',*,*,#139,.F.);
#82=ORIENTED_EDGE('',*,*,#135,.T.);
#83=ORIENTED_EDGE('',*,*,#140,.T.);
#84=ORIENTED_EDGE('',*,*,#131,.F.);
#85=ORIENTED_EDGE('',*,*,#141,.T.);
#86=ORIENTED_EDGE('',*,*,#138,.T.);
#87=ORIENTED_EDGE('',*,*,#142,.F.);
#88=ORIENTED_EDGE('',*,*,#136,.F.);
#89=ORIENTED_EDGE('',*,*,#139,.T.);
#90=ORIENTED_EDGE('',*,*,#141,.F.);
#91=ORIENTED_EDGE('',*,*,#130,.F.);
#92=ORIENTED_EDGE('',*,*,#137,.T.);
#93=ORIENTED_EDGE('',*,*,#132,.T.);
#94=ORIENTED_EDGE('',*,*,#142,.T.);
#95=ORIENTED_EDGE('',*,*,#140,.F.);
#96=ORIENTED_EDGE('',*,*,#125,.T.);
#97=ORIENTED_EDGE('',*,*,#143,.F.);
#98=ORIENTED_EDGE('',*,*,#144,.F.);
#99=ORIENTED_EDGE('',*,*,#145,.T.);
#100=ORIENTED_EDGE('',*,*,#146,.T.);
#101=ORIENTED_EDGE('',*,*,#147,.F.);
#102=ORIENTED_EDGE('',*,*,#127,.F.);
#103=ORIENTED_EDGE('',*,*,#148,.T.);
#104=ORIENTED_EDGE('',*,*,#149,.F.);
#105=ORIENTED_EDGE('',*,*,#144,.T.);
#106=ORIENTED_EDGE('',*,*,#150,.T.);
#107=ORIENTED_EDGE('',*,*,#146,.F.);
#108=ORIENTED_EDGE('',*,*,#145,.F.);
#109=ORIENTED_EDGE('',*,*,#149,.T.);
#110=ORIENTED_EDGE('',*,*,#148,.F.);
#111=ORIENTED_EDGE('',*,*,#126,.F.);
#112=ORIENTED_EDGE('',*,*,#143,.T.);
#113=ORIENTED_EDGE('',*,*,#128,.T.);
#114=ORIENTED_EDGE('',*,*,#147,.T.);
#115=ORIENTED_EDGE('',*,*,#150,.F.);
#116=ORIENTED_EDGE('',*,*,#151,.F.);
#117=ORIENTED_EDGE('',*,*,#134,.T.);
#118=ORIENTED_EDGE('',*,*,#152,.F.);
#119=ORIENTED_EDGE('',*,*,#151,.T.);
#120=ORIENTED_EDGE('',*,*,#152,.T.);
#121=ORIENTED_EDGE('',*,*,#153,.F.);
#122=ORIENTED_EDGE('',*,*,#153,.T.);
#123=EDGE_CURVE('',#154,#154,#177,.T.);
#124=EDGE_CURVE('',#155,#155,#178,.T.);
#125=EDGE_CURVE('',#156,#157,#179,.T.);
#126=EDGE_CURVE('',#156,#158,#19,.T.);
#127=EDGE_CURVE('',#158,#159,#180,.T.);
#128=EDGE_CURVE('',#157,#159,#20,.T.);
#129=EDGE_CURVE('',#160,#161,#181,.T.);
#130=EDGE_CURVE('',#160,#162,#21,.T.);
#131=EDGE_CURVE('',#162,#163,#182,.T.);
#132=EDGE_CURVE('',#161,#163,#22,.T.);
#133=EDGE_CURVE('',#164,#164,#183,.T.);
#134=EDGE_CURVE('',#165,#165,#184,.T.);
#135=EDGE_CURVE('',#166,#167,#185,.T.);
#136=EDGE_CURVE('',#166,#160,#23,.T.);
#137=EDGE_CURVE('',#167,#161,#24,.T.);
#138=EDGE_CURVE('',#168,#169,#186,.T.);
#139=EDGE_CURVE('',#166,#168,#25,.T.);
#140=EDGE_CURVE('',#167,#169,#26,.T.);
#141=EDGE_CURVE('',#162,#168,#27,.T.);
#142=EDGE_CURVE('',#163,#169,#28,.T.);
#143=EDGE_CURVE('',#170,#157,#29,.T.);
#144=EDGE_CURVE('',#171,#170,#187,.T.);
#145=EDGE_CURVE('',#171,#156,#30,.T.);
#146=EDGE_CURVE('',#172,#173,#188,.T.);
#147=EDGE_CURVE('',#159,#173,#31,.T.);
#148=EDGE_CURVE('',#158,#172,#32,.T.);
#149=EDGE_CURVE('',#171,#172,#33,.T.);
#150=EDGE_CURVE('',#170,#173,#34,.T.);
#151=EDGE_CURVE('',#174,#174,#189,.T.);
#152=EDGE_CURVE('',#175,#175,#190,.T.);
#153=EDGE_CURVE('',#176,#176,#191,.T.);
#154=VERTEX_POINT('',#396);
#155=VERTEX_POINT('',#399);
#156=VERTEX_POINT('',#402);
#157=VERTEX_POINT('',#403);
#158=VERTEX_POINT('',#405);
#159=VERTEX_POINT('',#407);
#160=VERTEX_POINT('',#410);
#161=VERTEX_POINT('',#411);
#162=VERTEX_POINT('',#413);
#163=VERTEX_POINT('',#415);
#164=VERTEX_POINT('',#418);
#165=VERTEX_POINT('',#421);
#166=VERTEX_POINT('',#424);
#167=VERTEX_POINT('',#425);
#168=VERTEX_POINT('',#430);
#169=VERTEX_POINT('',#431);
#170=VERTEX_POINT('',#441);
#171=VERTEX_POINT('',#443);
#172=VERTEX_POINT('',#447);
#173=VERTEX_POINT('',#448);
#174=VERTEX_POINT('',#458);
#175=VERTEX_POINT('',#461);
#176=VERTEX_POINT('',#464);
#177=CIRCLE('',#277,0.0125);
#178=CIRCLE('',#279,0.009);
#179=CIRCLE('',#281,0.009);
#180=CIRCLE('',#282,0.009);
#181=CIRCLE('',#283,0.009);
#182=CIRCLE('',#284,0.009);
#183=CIRCLE('',#285,0.009);
#184=CIRCLE('',#287,0.002075);
#185=CIRCLE('',#289,0.011);
#186=CIRCLE('',#291,0.011);
#187=CIRCLE('',#296,0.011);
#188=CIRCLE('',#298,0.011);
#189=CIRCLE('',#303,0.002075);
#190=CIRCLE('',#305,0.00105);
#191=CIRCLE('',#307,0.00105);
#192=EDGE_LOOP('',(#61));
#193=EDGE_LOOP('',(#62));
#194=EDGE_LOOP('',(#63));
#195=EDGE_LOOP('',(#64,#65,#66,#67));
#196=EDGE_LOOP('',(#68,#69,#70,#71));
#197=EDGE_LOOP('',(#72));
#198=EDGE_LOOP('',(#73));
#199=EDGE_LOOP('',(#74));
#200=EDGE_LOOP('',(#75));
#201=EDGE_LOOP('',(#76,#77,#78,#79));
#202=EDGE_LOOP('',(#80,#81,#82,#83));
#203=EDGE_LOOP('',(#84,#85,#86,#87));
#204=EDGE_LOOP('',(#88,#89,#90,#91));
#205=EDGE_LOOP('',(#92,#93,#94,#95));
#206=EDGE_LOOP('',(#96,#97,#98,#99));
#207=EDGE_LOOP('',(#100,#101,#102,#103));
#208=EDGE_LOOP('',(#104,#105,#106,#107));
#209=EDGE_LOOP('',(#108,#109,#110,#111));
#210=EDGE_LOOP('',(#112,#113,#114,#115));
#211=EDGE_LOOP('',(#116));
#212=EDGE_LOOP('',(#117));
#213=EDGE_LOOP('',(#118));
#214=EDGE_LOOP('',(#119));
#215=EDGE_LOOP('',(#120));
#216=EDGE_LOOP('',(#121));
#217=EDGE_LOOP('',(#122));
#218=FACE_BOUND('',#192,.T.);
#219=FACE_BOUND('',#193,.T.);
#220=FACE_BOUND('',#194,.T.);
#221=FACE_BOUND('',#195,.T.);
#222=FACE_BOUND('',#196,.T.);
#223=FACE_BOUND('',#197,.T.);
#224=FACE_BOUND('',#198,.T.);
#225=FACE_BOUND('',#199,.T.);
#226=FACE_BOUND('',#200,.T.);
#227=FACE_BOUND('',#201,.T.);
#228=FACE_BOUND('',#202,.T.);
#229=FACE_BOUND('',#203,.T.);
#230=FACE_BOUND('',#204,.T.);
#231=FACE_BOUND('',#205,.T.);
#232=FACE_BOUND('',#206,.T.);
#233=FACE_BOUND('',#207,.T.);
#234=FACE_BOUND('',#208,.T.);
#235=FACE_BOUND('',#209,.T.);
#236=FACE_BOUND('',#210,.T.);
#237=FACE_BOUND('',#211,.T.);
#238=FACE_BOUND('',#212,.T.);
#239=FACE_BOUND('',#213,.T.);
#240=FACE_BOUND('',#214,.T.);
#241=FACE_BOUND('',#215,.T.);
#242=FACE_BOUND('',#216,.T.);
#243=FACE_BOUND('',#217,.T.);
#244=SPHERICAL_SURFACE('',#276,0.017);
#245=ADVANCED_FACE('',(#218),#244,.T.);
#246=ADVANCED_FACE('',(#219,#220),#56,.T.);
#247=ADVANCED_FACE('',(#221,#222,#223,#224),#51,.T.);
#248=ADVANCED_FACE('',(#225,#226),#12,.F.);
#249=ADVANCED_FACE('',(#227),#57,.T.);
#250=ADVANCED_FACE('',(#228),#52,.T.);
#251=ADVANCED_FACE('',(#229),#58,.T.);
#252=ADVANCED_FACE('',(#230),#13,.T.);
#253=ADVANCED_FACE('',(#231),#14,.F.);
#254=ADVANCED_FACE('',(#232),#59,.T.);
#255=ADVANCED_FACE('',(#233),#60,.T.);
#256=ADVANCED_FACE('',(#234),#53,.T.);
#257=ADVANCED_FACE('',(#235),#15,.F.);
#258=ADVANCED_FACE('',(#236),#16,.T.);
#259=ADVANCED_FACE('',(#237,#238),#54,.F.);
#260=ADVANCED_FACE('',(#239,#240),#17,.T.);
#261=ADVANCED_FACE('',(#241,#242),#55,.F.);
#262=ADVANCED_FACE('',(#243),#18,.T.);
#263=CLOSED_SHELL('',(#245,#246,#247,#248,#249,#250,#251,#252,#253,#254,#255,#256,#257,#258,#259,#260,#261,#262));
#264=STYLED_ITEM('',(#265),#272);
#265=PRESENTATION_STYLE_ASSIGNMENT((#266));
#266=SURFACE_STYLE_USAGE(.BOTH.,#267);
#267=SURFACE_SIDE_STYLE('',(#268));
#268=SURFACE_STYLE_FILL_AREA(#269);
#269=FILL_AREA_STYLE('',(#270));
#270=FILL_AREA_STYLE_COLOUR('',#271);
#271=COLOUR_RGB('',0.262745098039216,0.282352941176471,0.301960784313725);
#272=MANIFOLD_SOLID_BREP('Head',#263);
#273=SHAPE_DEFINITION_REPRESENTATION(#472,#274);
#274=SHAPE_REPRESENTATION('Head',(#275),#467);
#275=AXIS2_PLACEMENT_3D('',#393,#309,#310);
#276=AXIS2_PLACEMENT_3D('',#394,#311,#312);
#277=AXIS2_PLACEMENT_3D('',#395,#313,#314);
#278=AXIS2_PLACEMENT_3D('',#397,#315,#316);
#279=AXIS2_PLACEMENT_3D('',#398,#317,#318);
#280=AXIS2_PLACEMENT_3D('',#400,#319,#320);
#281=AXIS2_PLACEMENT_3D('',#401,#321,#322);
#282=AXIS2_PLACEMENT_3D('',#406,#324,#325);
#283=AXIS2_PLACEMENT_3D('',#409,#327,#328);
#284=AXIS2_PLACEMENT_3D('',#414,#330,#331);
#285=AXIS2_PLACEMENT_3D('',#417,#333,#334);
#286=AXIS2_PLACEMENT_3D('',#419,#335,#336);
#287=AXIS2_PLACEMENT_3D('',#420,#337,#338);
#288=AXIS2_PLACEMENT_3D('',#422,#339,#340);
#289=AXIS2_PLACEMENT_3D('',#423,#341,#342);
#290=AXIS2_PLACEMENT_3D('',#428,#345,#346);
#291=AXIS2_PLACEMENT_3D('',#429,#347,#348);
#292=AXIS2_PLACEMENT_3D('',#434,#351,#352);
#293=AXIS2_PLACEMENT_3D('',#437,#355,#356);
#294=AXIS2_PLACEMENT_3D('',#438,#357,#358);
#295=AXIS2_PLACEMENT_3D('',#439,#359,#360);
#296=AXIS2_PLACEMENT_3D('',#442,#362,#363);
#297=AXIS2_PLACEMENT_3D('',#445,#365,#366);
#298=AXIS2_PLACEMENT_3D('',#446,#367,#368);
#299=AXIS2_PLACEMENT_3D('',#451,#371,#372);
#300=AXIS2_PLACEMENT_3D('',#454,#375,#376);
#301=AXIS2_PLACEMENT_3D('',#455,#377,#378);
#302=AXIS2_PLACEMENT_3D('',#456,#379,#380);
#303=AXIS2_PLACEMENT_3D('',#457,#381,#382);
#304=AXIS2_PLACEMENT_3D('',#459,#383,#384);
#305=AXIS2_PLACEMENT_3D('',#460,#385,#386);
#306=AXIS2_PLACEMENT_3D('',#462,#387,#388);
#307=AXIS2_PLACEMENT_3D('',#463,#389,#390);
#308=AXIS2_PLACEMENT_3D('',#465,#391,#392);
#309=DIRECTION('',(0.,0.,1.));
#310=DIRECTION('',(1.,0.,0.));
#311=DIRECTION('',(0.,0.,-1.));
#312=DIRECTION('',(-1.,0.,0.));
#313=DIRECTION('',(0.,0.,-1.));
#314=DIRECTION('',(-1.,0.,0.));
#315=DIRECTION('',(0.,0.,1.));
#316=DIRECTION('',(1.,0.,0.));
#317=DIRECTION('',(0.,0.,-1.));
#318=DIRECTION('',(-1.,0.,0.));
#319=DIRECTION('',(0.,0.,-1.));
#320=DIRECTION('',(-1.,0.,0.));
#321=DIRECTION('',(0.,0.,-1.));
#322=DIRECTION('',(-1.,0.,0.));
#323=DIRECTION('',(0.,0.,-1.));
#324=DIRECTION('',(0.,0.,-1.));
#325=DIRECTION('',(-1.,0.,0.));
#326=DIRECTION('',(0.,0.,-1.));
#327=DIRECTION('',(0.,0.,-1.));
#328=DIRECTION('',(-1.,0.,0.));
#329=DIRECTION('',(0.,0.,-1.));
#330=DIRECTION('',(0.,0.,-1.));
#331=DIRECTION('',(-1.,0.,0.));
#332=DIRECTION('',(0.,0.,-1.));
#333=DIRECTION('',(0.,0.,1.));
#334=DIRECTION('',(1.,0.,0.));
#335=DIRECTION('',(0.,0.,1.));
#336=DIRECTION('',(1.,0.,0.));
#337=DIRECTION('',(0.,0.,-1.));
#338=DIRECTION('',(-1.,0.,0.));
#339=DIRECTION('',(0.,0.,-1.));
#340=DIRECTION('',(-1.,0.,0.));
#341=DIRECTION('',(0.,0.,-1.));
#342=DIRECTION('',(-1.,0.,0.));
#343=DIRECTION('',(0.18301270189222,0.683012701892219,0.707106781186548));
#344=DIRECTION('',(0.612372435695795,0.353553390593274,0.707106781186548));
#345=DIRECTION('',(0.,0.,-1.));
#346=DIRECTION('',(-1.,0.,0.));
#347=DIRECTION('',(0.,0.,-1.));
#348=DIRECTION('',(-1.,0.,0.));
#349=DIRECTION('',(0.,0.,-1.));
#350=DIRECTION('',(0.,0.,-1.));
#351=DIRECTION('',(0.,0.,1.));
#352=DIRECTION('',(1.,0.,0.));
#353=DIRECTION('',(-0.18301270189222,-0.683012701892219,0.707106781186548));
#354=DIRECTION('',(-0.612372435695795,-0.353553390593274,0.707106781186548));
#355=DIRECTION('',(0.965925826289068,-0.258819045102521,0.));
#356=DIRECTION('',(0.258819045102521,0.965925826289068,0.));
#357=DIRECTION('',(0.5,-0.866025403784439,0.));
#358=DIRECTION('',(0.866025403784439,0.5,0.));
#359=DIRECTION('',(0.,0.,-1.));
#360=DIRECTION('',(-1.,0.,0.));
#361=DIRECTION('',(-0.612372435695795,-0.353553390593274,0.707106781186548));
#362=DIRECTION('',(0.,0.,-1.));
#363=DIRECTION('',(-1.,0.,0.));
#364=DIRECTION('',(-0.18301270189222,-0.683012701892219,0.707106781186548));
#365=DIRECTION('',(0.,0.,1.));
#366=DIRECTION('',(1.,0.,0.));
#367=DIRECTION('',(0.,0.,-1.));
#368=DIRECTION('',(-1.,0.,0.));
#369=DIRECTION('',(0.612372435695795,0.353553390593274,0.707106781186548));
#370=DIRECTION('',(0.18301270189222,0.683012701892219,0.707106781186548));
#371=DIRECTION('',(0.,0.,-1.));
#372=DIRECTION('',(-1.,0.,0.));
#373=DIRECTION('',(0.,0.,-1.));
#374=DIRECTION('',(0.,0.,-1.));
#375=DIRECTION('',(0.965925826289068,-0.258819045102521,0.));
#376=DIRECTION('',(0.258819045102521,0.965925826289068,0.));
#377=DIRECTION('',(0.5,-0.866025403784439,0.));
#378=DIRECTION('',(0.866025403784439,0.5,0.));
#379=DIRECTION('',(0.,0.,-1.));
#380=DIRECTION('',(-1.,0.,0.));
#381=DIRECTION('',(0.,0.,-1.));
#382=DIRECTION('',(-1.,0.,0.));
#383=DIRECTION('',(0.,0.,-1.));
#384=DIRECTION('',(1.,0.,0.));
#385=DIRECTION('',(0.,0.,-1.));
#386=DIRECTION('',(-1.,0.,0.));
#387=DIRECTION('',(0.,0.,-1.));
#388=DIRECTION('',(-1.,0.,0.));
#389=DIRECTION('',(0.,0.,-1.));
#390=DIRECTION('',(-1.,0.,0.));
#391=DIRECTION('',(0.,0.,-1.));
#392=DIRECTION('',(1.,0.,0.));
#393=CARTESIAN_POINT('',(0.,0.,0.));
#394=CARTESIAN_POINT('',(1.16830323209614E-17,0.,0.0715217186218029));
#395=CARTESIAN_POINT('',(0.,0.,0.06));
#396=CARTESIAN_POINT('',(-0.0125,0.,0.06));
#397=CARTESIAN_POINT('',(0.,0.,0.0565));
#398=CARTESIAN_POINT('',(0.,0.,0.0565));
#399=CARTESIAN_POINT('',(-0.009,0.,0.0565));
#400=CARTESIAN_POINT('',(0.,5.51091059616309E-19,0.06));
#401=CARTESIAN_POINT('',(0.,0.,0.0515));
#402=CARTESIAN_POINT('',(0.00232937140592269,0.00869333243660161,0.0515));
#403=CARTESIAN_POINT('',(0.00779422863405995,0.0045,0.0515));
#404=CARTESIAN_POINT('',(0.00232937140592269,0.00869333243660162,0.04925));
#405=CARTESIAN_POINT('',(0.00232937140592269,0.00869333243660162,0.0425));
#406=CARTESIAN_POINT('',(0.,0.,0.0425));
#407=CARTESIAN_POINT('',(0.00779422863405995,0.0045,0.0425));
#408=CARTESIAN_POINT('',(0.00779422863405995,0.0045,0.04925));
#409=CARTESIAN_POINT('',(0.,0.,0.0515));
#410=CARTESIAN_POINT('',(-0.00232937140592269,-0.00869333243660162,0.0515));
#411=CARTESIAN_POINT('',(-0.00779422863405995,-0.0045,0.0515));
#412=CARTESIAN_POINT('',(-0.00232937140592269,-0.00869333243660162,0.04925));
#413=CARTESIAN_POINT('',(-0.00232937140592269,-0.00869333243660162,0.0425));
#414=CARTESIAN_POINT('',(0.,0.,0.0425));
#415=CARTESIAN_POINT('',(-0.00779422863405995,-0.0045,0.0425));
#416=CARTESIAN_POINT('',(-0.00779422863405995,-0.0045,0.04925));
#417=CARTESIAN_POINT('',(0.,5.51091059616309E-19,0.035));
#418=CARTESIAN_POINT('',(0.009,5.51091059616309E-19,0.035));
#419=CARTESIAN_POINT('',(0.,0.,0.035));
#420=CARTESIAN_POINT('',(0.,-1.27057105411538E-19,0.035));
#421=CARTESIAN_POINT('',(-0.002075,-1.27057105411538E-19,0.035));
#422=CARTESIAN_POINT('',(0.,0.,0.0495));
#423=CARTESIAN_POINT('',(0.,0.,0.0495));
#424=CARTESIAN_POINT('',(-0.00284700949612773,-0.0106251840891797,0.0495));
#425=CARTESIAN_POINT('',(-0.00952627944162883,-0.0055,0.0495));
#426=CARTESIAN_POINT('',(-0.00258819045102521,-0.00965925826289069,0.0505));
#427=CARTESIAN_POINT('',(-0.00866025403784439,-0.005,0.0505));
#428=CARTESIAN_POINT('',(0.,0.,0.0555));
#429=CARTESIAN_POINT('',(0.,0.,0.0445));
#430=CARTESIAN_POINT('',(-0.00284700949612773,-0.0106251840891797,0.0445));
#431=CARTESIAN_POINT('',(-0.00952627944162883,-0.0055,0.0445));
#432=CARTESIAN_POINT('',(-0.00284700949612773,-0.0106251840891797,0.04825));
#433=CARTESIAN_POINT('',(-0.00952627944162883,-0.0055,0.04825));
#434=CARTESIAN_POINT('',(0.,0.,0.0425));
#435=CARTESIAN_POINT('',(-0.00258819045102521,-0.00965925826289069,0.0435));
#436=CARTESIAN_POINT('',(-0.00866025403784439,-0.005,0.0435));
#437=CARTESIAN_POINT('',(0.,0.,0.0475));
#438=CARTESIAN_POINT('',(0.,0.,0.0475));
#439=CARTESIAN_POINT('',(0.,0.,0.0495));
#440=CARTESIAN_POINT('',(0.00866025403784439,0.005,0.0505));
#441=CARTESIAN_POINT('',(0.00952627944162883,0.0055,0.0495));
#442=CARTESIAN_POINT('',(0.,0.,0.0495));
#443=CARTESIAN_POINT('',(0.00284700949612773,0.0106251840891797,0.0495));
#444=CARTESIAN_POINT('',(0.00258819045102521,0.00965925826289068,0.0505));
#445=CARTESIAN_POINT('',(0.,0.,0.0425));
#446=CARTESIAN_POINT('',(0.,0.,0.0445));
#447=CARTESIAN_POINT('',(0.00284700949612773,0.0106251840891797,0.0445));
#448=CARTESIAN_POINT('',(0.00952627944162883,0.0055,0.0445));
#449=CARTESIAN_POINT('',(0.00866025403784439,0.005,0.0435));
#450=CARTESIAN_POINT('',(0.00258819045102521,0.00965925826289069,0.0435));
#451=CARTESIAN_POINT('',(0.,0.,0.0555));
#452=CARTESIAN_POINT('',(0.00284700949612773,0.0106251840891797,0.04825));
#453=CARTESIAN_POINT('',(0.00952627944162883,0.0055,0.04825));
#454=CARTESIAN_POINT('',(0.,0.,0.0475));
#455=CARTESIAN_POINT('',(0.,0.,0.0475));
#456=CARTESIAN_POINT('',(0.,-1.27057105411538E-19,0.05));
#457=CARTESIAN_POINT('',(0.,-1.27057105411538E-19,0.05));
#458=CARTESIAN_POINT('',(-0.002075,-1.27057105411538E-19,0.05));
#459=CARTESIAN_POINT('',(0.,0.,0.05));
#460=CARTESIAN_POINT('',(0.,-6.42939569552361E-20,0.05));
#461=CARTESIAN_POINT('',(-0.00105,-6.42939569552361E-20,0.05));
#462=CARTESIAN_POINT('',(0.,-6.42939569552361E-20,0.088));
#463=CARTESIAN_POINT('',(0.,-6.42939569552361E-20,0.088));
#464=CARTESIAN_POINT('',(-0.00105,-6.42939569552361E-20,0.088));
#465=CARTESIAN_POINT('',(0.,0.,0.088));
#466=MECHANICAL_DESIGN_GEOMETRIC_PRESENTATION_REPRESENTATION('',(#264),#467);
#467=(
GEOMETRIC_REPRESENTATION_CONTEXT(3)
GLOBAL_UNCERTAINTY_ASSIGNED_CONTEXT((#468))
GLOBAL_UNIT_ASSIGNED_CONTEXT((#471,#470,#469))
REPRESENTATION_CONTEXT('Head','TOP_LEVEL_ASSEMBLY_PART')
);
#468=UNCERTAINTY_MEASURE_WITH_UNIT(LENGTH_MEASURE(1.E-08),#471,'DISTANCE_ACCURACY_VALUE','Maximum Tolerance applied to model');
#469=(
NAMED_UNIT(*)
SI_UNIT($,.STERADIAN.)
SOLID_ANGLE_UNIT()
);
#470=(
NAMED_UNIT(*)
PLANE_ANGLE_UNIT()
SI_UNIT($,.RADIAN.)
);
#471=(
LENGTH_UNIT()
NAMED_UNIT(*)
SI_UNIT($,.METRE.)
);
#472=PRODUCT_DEFINITION_SHAPE('','',#473);
#473=PRODUCT_DEFINITION('','',#475,#474);
#474=PRODUCT_DEFINITION_CONTEXT('',#481,'design');
#475=PRODUCT_DEFINITION_FORMATION_WITH_SPECIFIED_SOURCE('','',#477,.NOT_KNOWN.);
#476=PRODUCT_RELATED_PRODUCT_CATEGORY('','',(#477));
#477=PRODUCT('Head','Head','Head',(#479));
#478=PRODUCT_CATEGORY('','');
#479=PRODUCT_CONTEXT('',#481,'mechanical');
#480=APPLICATION_PROTOCOL_DEFINITION('international standard','ap242_managed_model_based_3d_engineering',2020,#481);
#481=APPLICATION_CONTEXT('managed model based 3d engineering');
ENDSEC;
END-ISO-10303-21;
