ISO-10303-21;
HEADER;
/*Generated by software containing ST-Developer
 * from STEP Tools, Inc. (www.steptools.com) 
 */
/*OPTION: using custom renumber hook */
/*description */
/*implementation_level */
FILE_DESCRIPTION(('STEP AP242 Edition 2','STEP AP242 Edition 2''CAx-IF Rec.Pracs.---Representation and Presentation of Product Manufa
cturing Information (PMI)---4.0---2014-10-13','STEP AP242 Edition 2''CAx-IF Rec.Pracs.---Representation and Presentation of Product Manufa
cturing Information (PMI)---4.0---2014-10-13''CAx-IF Rec.Pracs.---3D Tessellated Geometry---0.4---2014-09-14','STEP AP242 Edition 2''CAx-IF Rec.Pracs.---Representation and Presentation of Product Manufa
cturing Information (PMI)---4.0---2014-10-13''CAx-IF Rec.Pracs.---3D Tessellated Geometry---0.4---2014-09-14''2;1','STEP AP242 Edition 2''CAx-IF Rec.Pracs.---Representation and Presentation of Product Manufa
cturing Information (PMI)---4.0---2014-10-13''CAx-IF Rec.Pracs.---3D Tessellated Geometry---0.4---2014-09-14''2;1''CAx-IF Rec.Pracs.---User Defined Attributes---1.5---2016-08-15'),'2;1');
/*name */
/*time_stamp */
/*author */
/*organization */
/*preprocessor_version */
/*originating_system */
/*authorisation */
FILE_NAME('/vol/tmp/translate-18047740458065067559/M1 - Insulator.step','2026-02-26T20:26:39',(''),(''),'ST-DEVELOPER v20','ONSHAPE BY PTC INC, 1.211','  ');
FILE_SCHEMA(('AP242_MANAGED_MODEL_BASED_3D_ENGINEERING_MIM_LF { 1 0 10303 442 3 1 4 }'));
ENDSEC;
DATA;
#10=SHAPE_REPRESENTATION_RELATIONSHIP('','',#513,#11);
#11=ADVANCED_BREP_SHAPE_REPRESENTATION('',(#511),#1107);
#12=B_SPLINE_SURFACE_WITH_KNOTS('',3,3,((#861,#862,#863,#864,#865,#866,
#867,#868,#869,#870,#871,#872,#873,#874,#875,#876,#877,#878,#879),(#880,
#881,#882,#883,#884,#885,#886,#887,#888,#889,#890,#891,#892,#893,#894,#895,
#896,#897,#898),(#899,#900,#901,#902,#903,#904,#905,#906,#907,#908,#909,
#910,#911,#912,#913,#914,#915,#916,#917),(#918,#919,#920,#921,#922,#923,
#924,#925,#926,#927,#928,#929,#930,#931,#932,#933,#934,#935,#936),(#937,
#938,#939,#940,#941,#942,#943,#944,#945,#946,#947,#948,#949,#950,#951,#952,
#953,#954,#955),(#956,#957,#958,#959,#960,#961,#962,#963,#964,#965,#966,
#967,#968,#969,#970,#971,#972,#973,#974),(#975,#976,#977,#978,#979,#980,
#981,#982,#983,#984,#985,#986,#987,#988,#989,#990,#991,#992,#993),(#994,
#995,#996,#997,#998,#999,#1000,#1001,#1002,#1003,#1004,#1005,#1006,#1007,
#1008,#1009,#1010,#1011,#1012),(#1013,#1014,#1015,#1016,#1017,#1018,#1019,
#1020,#1021,#1022,#1023,#1024,#1025,#1026,#1027,#1028,#1029,#1030,#1031),(#1032,#1033,#1034,#1035,#1036,#1037,#1038,#1039,#1040,#1041,#1042,#1043,
#1044,#1045,#1046,#1047,#1048,#1049,#1050),(#1051,#1052,#1053,#1054,#1055,
#1056,#1057,#1058,#1059,#1060,#1061,#1062,#1063,#1064,#1065,#1066,#1067,
#1068,#1069),(#1070,#1071,#1072,#1073,#1074,#1075,#1076,#1077,#1078,#1079,
#1080,#1081,#1082,#1083,#1084,#1085,#1086,#1087,#1088)),.UNSPECIFIED.,.F.,.T.,.F.,(4,1,1,1,1,1,1,1,1,4),(1,1,1,1,1,1,1,1,1,1,1,1,1,1,1,1,1,1,1,1,1,1,1),(0.,0.25,0.354166666666667,0.4375,0.5,0.5625,0.625,0.6875,0.770833333333333,1.),(-1.17809724509617,-0.785398163397448,-0.392699081698725,0.,0.392699081698724,0.785398163397448,1.17809724509617,1.5707963267949,1.96349540849362,2.35619449019234,2.74889357189107,3.14159265358979,3.53429173528852,3.92699081698724,4.31968989868597,4.71238898038469,5.10508806208341,5.49778714378214,5.89048622548086,6.28318530717959,6.67588438887831,7.06858347057703,7.46128255227576),.UNSPECIFIED.);
#13=PLANE('',#546);
#14=PLANE('',#547);
#15=PLANE('',#549);
#16=PLANE('',#550);
#17=PLANE('',#551);
#18=PLANE('',#552);
#19=PLANE('',#553);
#20=PLANE('',#554);
#21=PLANE('',#555);
#22=PLANE('',#556);
#23=PLANE('',#557);
#24=PLANE('',#559);
#25=PLANE('',#560);
#26=PLANE('',#561);
#27=PLANE('',#563);
#28=B_SPLINE_CURVE_WITH_KNOTS('',3,(#719,#720,#721,#722),.UNSPECIFIED.,.F.,.F.,(4,4),(7.62298191167673E-07,0.00254815083053117),.UNSPECIFIED.);
#29=B_SPLINE_CURVE_WITH_KNOTS('',3,(#735,#736,#737,#738),.UNSPECIFIED.,.F.,.F.,(4,4),(3.10600117110744E-07,0.000781335567707722),.UNSPECIFIED.);
#30=B_SPLINE_CURVE_WITH_KNOTS('',3,(#749,#750,#751,#752),.UNSPECIFIED.,.F.,.F.,(4,4),(7.62298191175247E-07,0.00254815083053118),.UNSPECIFIED.);
#31=B_SPLINE_CURVE_WITH_KNOTS('',3,(#754,#755,#756,#757),.UNSPECIFIED.,.F.,.F.,(4,4),(3.10600117112873E-07,0.000781335567707717),.UNSPECIFIED.);
#32=B_SPLINE_CURVE_WITH_KNOTS('',3,(#809,#810,#811,#812),.UNSPECIFIED.,.F.,.F.,(4,4),(3.10600117107224E-07,0.000781335567707711),.UNSPECIFIED.);
#33=B_SPLINE_CURVE_WITH_KNOTS('',3,(#814,#815,#816,#817),.UNSPECIFIED.,.F.,.F.,(4,4),(0.000915707525668206,0.00346309605800818),.UNSPECIFIED.);
#34=B_SPLINE_CURVE_WITH_KNOTS('',3,(#824,#825,#826,#827),.UNSPECIFIED.,.F.,.F.,(4,4),(0.000915707525668216,0.00346309605800818),.UNSPECIFIED.);
#35=B_SPLINE_CURVE_WITH_KNOTS('',3,(#830,#831,#832,#833),.UNSPECIFIED.,.F.,.F.,(4,4),(3.1060011711099E-07,0.000781335567707711),.UNSPECIFIED.);
#36=CONICAL_SURFACE('',#518,0.0111,0.785398163397449);
#37=CONICAL_SURFACE('',#524,0.0111,0.785398163397445);
#38=CONICAL_SURFACE('',#533,0.009,0.785398163397448);
#39=CONICAL_SURFACE('',#541,0.0111,0.785398163397446);
#40=CONICAL_SURFACE('',#543,0.0111,0.785398163397448);
#41=CIRCLE('',#516,0.0111);
#42=CIRCLE('',#517,0.0111);
#43=CIRCLE('',#519,0.0111);
#44=CIRCLE('',#520,0.0091);
#45=CIRCLE('',#521,0.0111);
#46=CIRCLE('',#523,0.0111);
#47=CIRCLE('',#525,0.0111);
#48=CIRCLE('',#526,0.0091);
#49=CIRCLE('',#528,0.0091);
#50=CIRCLE('',#529,0.0091);
#51=CIRCLE('',#530,0.0091);
#52=CIRCLE('',#531,0.0091);
#53=CIRCLE('',#532,0.0091);
#54=CIRCLE('',#534,0.0125);
#55=CIRCLE('',#535,0.0111);
#56=CIRCLE('',#536,0.0111);
#57=CIRCLE('',#538,0.0125);
#58=CIRCLE('',#539,0.0125);
#59=CIRCLE('',#540,0.0125);
#60=CIRCLE('',#542,0.0111);
#61=CIRCLE('',#544,0.0111);
#62=CIRCLE('',#558,0.0212258320271348);
#63=CIRCLE('',#562,0.0116000000000001);
#64=CIRCLE('',#564,0.0116000000000001);
#65=ORIENTED_EDGE('',*,*,#205,.F.);
#66=ORIENTED_EDGE('',*,*,#206,.F.);
#67=ORIENTED_EDGE('',*,*,#207,.F.);
#68=ORIENTED_EDGE('',*,*,#208,.T.);
#69=ORIENTED_EDGE('',*,*,#209,.F.);
#70=ORIENTED_EDGE('',*,*,#210,.T.);
#71=ORIENTED_EDGE('',*,*,#211,.T.);
#72=ORIENTED_EDGE('',*,*,#212,.F.);
#73=ORIENTED_EDGE('',*,*,#213,.F.);
#74=ORIENTED_EDGE('',*,*,#214,.T.);
#75=ORIENTED_EDGE('',*,*,#215,.T.);
#76=ORIENTED_EDGE('',*,*,#216,.F.);
#77=ORIENTED_EDGE('',*,*,#214,.F.);
#78=ORIENTED_EDGE('',*,*,#217,.F.);
#79=ORIENTED_EDGE('',*,*,#218,.T.);
#80=ORIENTED_EDGE('',*,*,#219,.F.);
#81=ORIENTED_EDGE('',*,*,#220,.T.);
#82=ORIENTED_EDGE('',*,*,#221,.F.);
#83=ORIENTED_EDGE('',*,*,#218,.F.);
#84=ORIENTED_EDGE('',*,*,#222,.T.);
#85=ORIENTED_EDGE('',*,*,#223,.T.);
#86=ORIENTED_EDGE('',*,*,#224,.F.);
#87=ORIENTED_EDGE('',*,*,#225,.T.);
#88=ORIENTED_EDGE('',*,*,#226,.F.);
#89=ORIENTED_EDGE('',*,*,#227,.F.);
#90=ORIENTED_EDGE('',*,*,#223,.F.);
#91=ORIENTED_EDGE('',*,*,#228,.F.);
#92=ORIENTED_EDGE('',*,*,#212,.T.);
#93=ORIENTED_EDGE('',*,*,#229,.T.);
#94=ORIENTED_EDGE('',*,*,#230,.F.);
#95=ORIENTED_EDGE('',*,*,#231,.F.);
#96=ORIENTED_EDGE('',*,*,#232,.F.);
#97=ORIENTED_EDGE('',*,*,#233,.F.);
#98=ORIENTED_EDGE('',*,*,#234,.T.);
#99=ORIENTED_EDGE('',*,*,#235,.F.);
#100=ORIENTED_EDGE('',*,*,#236,.F.);
#101=ORIENTED_EDGE('',*,*,#237,.F.);
#102=ORIENTED_EDGE('',*,*,#238,.T.);
#103=ORIENTED_EDGE('',*,*,#239,.T.);
#104=ORIENTED_EDGE('',*,*,#230,.T.);
#105=ORIENTED_EDGE('',*,*,#240,.F.);
#106=ORIENTED_EDGE('',*,*,#241,.T.);
#107=ORIENTED_EDGE('',*,*,#242,.T.);
#108=ORIENTED_EDGE('',*,*,#226,.T.);
#109=ORIENTED_EDGE('',*,*,#243,.T.);
#110=ORIENTED_EDGE('',*,*,#244,.T.);
#111=ORIENTED_EDGE('',*,*,#245,.T.);
#112=ORIENTED_EDGE('',*,*,#246,.F.);
#113=ORIENTED_EDGE('',*,*,#247,.T.);
#114=ORIENTED_EDGE('',*,*,#236,.T.);
#115=ORIENTED_EDGE('',*,*,#248,.T.);
#116=ORIENTED_EDGE('',*,*,#249,.T.);
#117=ORIENTED_EDGE('',*,*,#250,.T.);
#118=ORIENTED_EDGE('',*,*,#251,.T.);
#119=ORIENTED_EDGE('',*,*,#234,.F.);
#120=ORIENTED_EDGE('',*,*,#252,.F.);
#121=ORIENTED_EDGE('',*,*,#206,.T.);
#122=ORIENTED_EDGE('',*,*,#253,.F.);
#123=ORIENTED_EDGE('',*,*,#254,.F.);
#124=ORIENTED_EDGE('',*,*,#208,.F.);
#125=ORIENTED_EDGE('',*,*,#255,.T.);
#126=ORIENTED_EDGE('',*,*,#232,.T.);
#127=ORIENTED_EDGE('',*,*,#256,.F.);
#128=ORIENTED_EDGE('',*,*,#257,.F.);
#129=ORIENTED_EDGE('',*,*,#250,.F.);
#130=ORIENTED_EDGE('',*,*,#258,.T.);
#131=ORIENTED_EDGE('',*,*,#257,.T.);
#132=ORIENTED_EDGE('',*,*,#259,.T.);
#133=ORIENTED_EDGE('',*,*,#238,.F.);
#134=ORIENTED_EDGE('',*,*,#260,.T.);
#135=ORIENTED_EDGE('',*,*,#252,.T.);
#136=ORIENTED_EDGE('',*,*,#233,.T.);
#137=ORIENTED_EDGE('',*,*,#255,.F.);
#138=ORIENTED_EDGE('',*,*,#207,.T.);
#139=ORIENTED_EDGE('',*,*,#237,.T.);
#140=ORIENTED_EDGE('',*,*,#225,.F.);
#141=ORIENTED_EDGE('',*,*,#251,.F.);
#142=ORIENTED_EDGE('',*,*,#260,.F.);
#143=ORIENTED_EDGE('',*,*,#210,.F.);
#144=ORIENTED_EDGE('',*,*,#261,.T.);
#145=ORIENTED_EDGE('',*,*,#219,.T.);
#146=ORIENTED_EDGE('',*,*,#262,.T.);
#147=ORIENTED_EDGE('',*,*,#241,.F.);
#148=ORIENTED_EDGE('',*,*,#263,.T.);
#149=ORIENTED_EDGE('',*,*,#228,.T.);
#150=ORIENTED_EDGE('',*,*,#222,.F.);
#151=ORIENTED_EDGE('',*,*,#217,.T.);
#152=ORIENTED_EDGE('',*,*,#213,.T.);
#153=ORIENTED_EDGE('',*,*,#211,.F.);
#154=ORIENTED_EDGE('',*,*,#263,.F.);
#155=ORIENTED_EDGE('',*,*,#240,.T.);
#156=ORIENTED_EDGE('',*,*,#229,.F.);
#157=ORIENTED_EDGE('',*,*,#262,.F.);
#158=ORIENTED_EDGE('',*,*,#224,.T.);
#159=ORIENTED_EDGE('',*,*,#227,.T.);
#160=ORIENTED_EDGE('',*,*,#242,.F.);
#161=ORIENTED_EDGE('',*,*,#259,.F.);
#162=ORIENTED_EDGE('',*,*,#256,.T.);
#163=ORIENTED_EDGE('',*,*,#231,.T.);
#164=ORIENTED_EDGE('',*,*,#239,.F.);
#165=ORIENTED_EDGE('',*,*,#261,.F.);
#166=ORIENTED_EDGE('',*,*,#209,.T.);
#167=ORIENTED_EDGE('',*,*,#264,.T.);
#168=ORIENTED_EDGE('',*,*,#220,.F.);
#169=ORIENTED_EDGE('',*,*,#215,.F.);
#170=ORIENTED_EDGE('',*,*,#216,.T.);
#171=ORIENTED_EDGE('',*,*,#221,.T.);
#172=ORIENTED_EDGE('',*,*,#264,.F.);
#173=ORIENTED_EDGE('',*,*,#249,.F.);
#174=ORIENTED_EDGE('',*,*,#265,.T.);
#175=ORIENTED_EDGE('',*,*,#253,.T.);
#176=ORIENTED_EDGE('',*,*,#258,.F.);
#177=ORIENTED_EDGE('',*,*,#248,.F.);
#178=ORIENTED_EDGE('',*,*,#205,.T.);
#179=ORIENTED_EDGE('',*,*,#254,.T.);
#180=ORIENTED_EDGE('',*,*,#265,.F.);
#181=ORIENTED_EDGE('',*,*,#235,.T.);
#182=ORIENTED_EDGE('',*,*,#266,.F.);
#183=ORIENTED_EDGE('',*,*,#266,.T.);
#184=ORIENTED_EDGE('',*,*,#247,.F.);
#185=ORIENTED_EDGE('',*,*,#267,.T.);
#186=ORIENTED_EDGE('',*,*,#268,.F.);
#187=ORIENTED_EDGE('',*,*,#269,.F.);
#188=ORIENTED_EDGE('',*,*,#243,.F.);
#189=ORIENTED_EDGE('',*,*,#270,.F.);
#190=ORIENTED_EDGE('',*,*,#271,.T.);
#191=ORIENTED_EDGE('',*,*,#272,.T.);
#192=ORIENTED_EDGE('',*,*,#245,.F.);
#193=ORIENTED_EDGE('',*,*,#269,.T.);
#194=ORIENTED_EDGE('',*,*,#273,.T.);
#195=ORIENTED_EDGE('',*,*,#270,.T.);
#196=ORIENTED_EDGE('',*,*,#244,.F.);
#197=ORIENTED_EDGE('',*,*,#246,.T.);
#198=ORIENTED_EDGE('',*,*,#272,.F.);
#199=ORIENTED_EDGE('',*,*,#274,.F.);
#200=ORIENTED_EDGE('',*,*,#267,.F.);
#201=ORIENTED_EDGE('',*,*,#274,.T.);
#202=ORIENTED_EDGE('',*,*,#271,.F.);
#203=ORIENTED_EDGE('',*,*,#273,.F.);
#204=ORIENTED_EDGE('',*,*,#268,.T.);
#205=EDGE_CURVE('',#275,#276,#323,.T.);
#206=EDGE_CURVE('',#277,#275,#41,.T.);
#207=EDGE_CURVE('',#278,#277,#324,.T.);
#208=EDGE_CURVE('',#278,#276,#42,.T.);
#209=EDGE_CURVE('',#279,#280,#28,.T.);
#210=EDGE_CURVE('',#279,#281,#43,.T.);
#211=EDGE_CURVE('',#281,#282,#325,.T.);
#212=EDGE_CURVE('',#283,#282,#44,.T.);
#213=EDGE_CURVE('',#284,#283,#326,.T.);
#214=EDGE_CURVE('',#284,#285,#45,.T.);
#215=EDGE_CURVE('',#285,#280,#29,.T.);
#216=EDGE_CURVE('',#285,#286,#327,.T.);
#217=EDGE_CURVE('',#287,#284,#328,.T.);
#218=EDGE_CURVE('',#287,#286,#46,.T.);
#219=EDGE_CURVE('',#288,#289,#47,.T.);
#220=EDGE_CURVE('',#288,#290,#30,.T.);
#221=EDGE_CURVE('',#286,#290,#31,.T.);
#222=EDGE_CURVE('',#287,#291,#329,.T.);
#223=EDGE_CURVE('',#291,#292,#48,.T.);
#224=EDGE_CURVE('',#289,#292,#330,.T.);
#225=EDGE_CURVE('',#293,#294,#331,.T.);
#226=EDGE_CURVE('',#295,#294,#49,.F.);
#227=EDGE_CURVE('',#292,#295,#332,.T.);
#228=EDGE_CURVE('',#283,#291,#333,.T.);
#229=EDGE_CURVE('',#282,#296,#334,.T.);
#230=EDGE_CURVE('',#297,#296,#50,.F.);
#231=EDGE_CURVE('',#298,#297,#335,.T.);
#232=EDGE_CURVE('',#299,#298,#51,.T.);
#233=EDGE_CURVE('',#300,#299,#336,.T.);
#234=EDGE_CURVE('',#300,#293,#52,.T.);
#235=EDGE_CURVE('',#301,#301,#53,.T.);
#236=EDGE_CURVE('',#302,#302,#54,.T.);
#237=EDGE_CURVE('',#303,#294,#337,.F.);
#238=EDGE_CURVE('',#303,#304,#55,.F.);
#239=EDGE_CURVE('',#304,#297,#338,.F.);
#240=EDGE_CURVE('',#305,#296,#339,.F.);
#241=EDGE_CURVE('',#305,#306,#56,.F.);
#242=EDGE_CURVE('',#306,#295,#340,.F.);
#243=EDGE_CURVE('',#307,#308,#341,.F.);
#244=EDGE_CURVE('',#308,#309,#57,.T.);
#245=EDGE_CURVE('',#309,#310,#342,.T.);
#246=EDGE_CURVE('',#307,#310,#58,.T.);
#247=EDGE_CURVE('',#311,#311,#59,.T.);
#248=EDGE_CURVE('',#275,#312,#32,.T.);
#249=EDGE_CURVE('',#312,#313,#33,.T.);
#250=EDGE_CURVE('',#313,#314,#60,.T.);
#251=EDGE_CURVE('',#314,#293,#343,.T.);
#252=EDGE_CURVE('',#277,#300,#344,.T.);
#253=EDGE_CURVE('',#315,#316,#34,.T.);
#254=EDGE_CURVE('',#276,#315,#35,.T.);
#255=EDGE_CURVE('',#278,#299,#345,.T.);
#256=EDGE_CURVE('',#317,#298,#346,.T.);
#257=EDGE_CURVE('',#316,#317,#61,.T.);
#258=EDGE_CURVE('',#313,#316,#347,.T.);
#259=EDGE_CURVE('',#317,#304,#348,.T.);
#260=EDGE_CURVE('',#303,#314,#349,.T.);
#261=EDGE_CURVE('',#279,#288,#350,.T.);
#262=EDGE_CURVE('',#289,#306,#351,.T.);
#263=EDGE_CURVE('',#305,#281,#352,.T.);
#264=EDGE_CURVE('',#280,#290,#353,.T.);
#265=EDGE_CURVE('',#312,#315,#354,.T.);
#266=EDGE_CURVE('',#318,#318,#62,.T.);
#267=EDGE_CURVE('',#307,#319,#355,.T.);
#268=EDGE_CURVE('',#320,#319,#356,.T.);
#269=EDGE_CURVE('',#308,#320,#357,.T.);
#270=EDGE_CURVE('',#321,#309,#358,.T.);
#271=EDGE_CURVE('',#321,#322,#359,.T.);
#272=EDGE_CURVE('',#322,#310,#360,.T.);
#273=EDGE_CURVE('',#320,#321,#63,.T.);
#274=EDGE_CURVE('',#319,#322,#64,.T.);
#275=VERTEX_POINT('',#711);
#276=VERTEX_POINT('',#712);
#277=VERTEX_POINT('',#714);
#278=VERTEX_POINT('',#716);
#279=VERTEX_POINT('',#723);
#280=VERTEX_POINT('',#724);
#281=VERTEX_POINT('',#726);
#282=VERTEX_POINT('',#728);
#283=VERTEX_POINT('',#730);
#284=VERTEX_POINT('',#732);
#285=VERTEX_POINT('',#734);
#286=VERTEX_POINT('',#741);
#287=VERTEX_POINT('',#743);
#288=VERTEX_POINT('',#747);
#289=VERTEX_POINT('',#748);
#290=VERTEX_POINT('',#753);
#291=VERTEX_POINT('',#759);
#292=VERTEX_POINT('',#761);
#293=VERTEX_POINT('',#765);
#294=VERTEX_POINT('',#766);
#295=VERTEX_POINT('',#768);
#296=VERTEX_POINT('',#772);
#297=VERTEX_POINT('',#774);
#298=VERTEX_POINT('',#776);
#299=VERTEX_POINT('',#778);
#300=VERTEX_POINT('',#780);
#301=VERTEX_POINT('',#783);
#302=VERTEX_POINT('',#786);
#303=VERTEX_POINT('',#788);
#304=VERTEX_POINT('',#790);
#305=VERTEX_POINT('',#793);
#306=VERTEX_POINT('',#795);
#307=VERTEX_POINT('',#799);
#308=VERTEX_POINT('',#800);
#309=VERTEX_POINT('',#802);
#310=VERTEX_POINT('',#804);
#311=VERTEX_POINT('',#807);
#312=VERTEX_POINT('',#813);
#313=VERTEX_POINT('',#818);
#314=VERTEX_POINT('',#820);
#315=VERTEX_POINT('',#828);
#316=VERTEX_POINT('',#829);
#317=VERTEX_POINT('',#836);
#318=VERTEX_POINT('',#860);
#319=VERTEX_POINT('',#1091);
#320=VERTEX_POINT('',#1093);
#321=VERTEX_POINT('',#1097);
#322=VERTEX_POINT('',#1099);
#323=LINE('',#710,#361);
#324=LINE('',#715,#362);
#325=LINE('',#727,#363);
#326=LINE('',#731,#364);
#327=LINE('',#740,#365);
#328=LINE('',#742,#366);
#329=LINE('',#758,#367);
#330=LINE('',#762,#368);
#331=LINE('',#764,#369);
#332=LINE('',#769,#370);
#333=LINE('',#770,#371);
#334=LINE('',#771,#372);
#335=LINE('',#775,#373);
#336=LINE('',#779,#374);
#337=LINE('',#787,#375);
#338=LINE('',#791,#376);
#339=LINE('',#792,#377);
#340=LINE('',#796,#378);
#341=LINE('',#798,#379);
#342=LINE('',#803,#380);
#343=LINE('',#821,#381);
#344=LINE('',#822,#382);
#345=LINE('',#834,#383);
#346=LINE('',#835,#384);
#347=LINE('',#839,#385);
#348=LINE('',#840,#386);
#349=LINE('',#841,#387);
#350=LINE('',#845,#388);
#351=LINE('',#846,#389);
#352=LINE('',#847,#390);
#353=LINE('',#853,#391);
#354=LINE('',#856,#392);
#355=LINE('',#1090,#393);
#356=LINE('',#1092,#394);
#357=LINE('',#1094,#395);
#358=LINE('',#1096,#396);
#359=LINE('',#1098,#397);
#360=LINE('',#1100,#398);
#361=VECTOR('',#570,1.);
#362=VECTOR('',#573,1.);
#363=VECTOR('',#580,1.);
#364=VECTOR('',#583,1.);
#365=VECTOR('',#588,1.);
#366=VECTOR('',#589,1.);
#367=VECTOR('',#596,1.);
#368=VECTOR('',#599,1.);
#369=VECTOR('',#602,1.);
#370=VECTOR('',#605,1.);
#371=VECTOR('',#606,1.);
#372=VECTOR('',#607,1.);
#373=VECTOR('',#610,1.);
#374=VECTOR('',#613,1.);
#375=VECTOR('',#622,1.);
#376=VECTOR('',#625,1.);
#377=VECTOR('',#626,1.);
#378=VECTOR('',#629,1.);
#379=VECTOR('',#632,1.);
#380=VECTOR('',#635,1.);
#381=VECTOR('',#644,1.);
#382=VECTOR('',#645,1.);
#383=VECTOR('',#648,1.);
#384=VECTOR('',#649,1.);
#385=VECTOR('',#654,1.);
#386=VECTOR('',#655,1.);
#387=VECTOR('',#656,1.);
#388=VECTOR('',#663,1.);
#389=VECTOR('',#664,1.);
#390=VECTOR('',#665,1.);
#391=VECTOR('',#676,1.);
#392=VECTOR('',#681,1.);
#393=VECTOR('',#690,1.);
#394=VECTOR('',#691,1.);
#395=VECTOR('',#692,1.);
#396=VECTOR('',#695,1.);
#397=VECTOR('',#696,1.);
#398=VECTOR('',#697,1.);
#399=EDGE_LOOP('',(#65,#66,#67,#68));
#400=EDGE_LOOP('',(#69,#70,#71,#72,#73,#74,#75));
#401=EDGE_LOOP('',(#76,#77,#78,#79));
#402=EDGE_LOOP('',(#80,#81,#82,#83,#84,#85,#86));
#403=EDGE_LOOP('',(#87,#88,#89,#90,#91,#92,#93,#94,#95,#96,#97,#98));
#404=EDGE_LOOP('',(#99));
#405=EDGE_LOOP('',(#100));
#406=EDGE_LOOP('',(#101,#102,#103,#104,#105,#106,#107,#108));
#407=EDGE_LOOP('',(#109,#110,#111,#112));
#408=EDGE_LOOP('',(#113));
#409=EDGE_LOOP('',(#114));
#410=EDGE_LOOP('',(#115,#116,#117,#118,#119,#120,#121));
#411=EDGE_LOOP('',(#122,#123,#124,#125,#126,#127,#128));
#412=EDGE_LOOP('',(#129,#130,#131,#132,#133,#134));
#413=EDGE_LOOP('',(#135,#136,#137,#138));
#414=EDGE_LOOP('',(#139,#140,#141,#142));
#415=EDGE_LOOP('',(#143,#144,#145,#146,#147,#148));
#416=EDGE_LOOP('',(#149,#150,#151,#152));
#417=EDGE_LOOP('',(#153,#154,#155,#156));
#418=EDGE_LOOP('',(#157,#158,#159,#160));
#419=EDGE_LOOP('',(#161,#162,#163,#164));
#420=EDGE_LOOP('',(#165,#166,#167,#168));
#421=EDGE_LOOP('',(#169,#170,#171,#172));
#422=EDGE_LOOP('',(#173,#174,#175,#176));
#423=EDGE_LOOP('',(#177,#178,#179,#180));
#424=EDGE_LOOP('',(#181));
#425=EDGE_LOOP('',(#182));
#426=EDGE_LOOP('',(#183));
#427=EDGE_LOOP('',(#184));
#428=EDGE_LOOP('',(#185,#186,#187,#188));
#429=EDGE_LOOP('',(#189,#190,#191,#192));
#430=EDGE_LOOP('',(#193,#194,#195,#196));
#431=EDGE_LOOP('',(#197,#198,#199,#200));
#432=EDGE_LOOP('',(#201,#202,#203,#204));
#433=FACE_BOUND('',#399,.T.);
#434=FACE_BOUND('',#400,.T.);
#435=FACE_BOUND('',#401,.T.);
#436=FACE_BOUND('',#402,.T.);
#437=FACE_BOUND('',#403,.T.);
#438=FACE_BOUND('',#404,.T.);
#439=FACE_BOUND('',#405,.T.);
#440=FACE_BOUND('',#406,.T.);
#441=FACE_BOUND('',#407,.T.);
#442=FACE_BOUND('',#408,.T.);
#443=FACE_BOUND('',#409,.T.);
#444=FACE_BOUND('',#410,.T.);
#445=FACE_BOUND('',#411,.T.);
#446=FACE_BOUND('',#412,.T.);
#447=FACE_BOUND('',#413,.T.);
#448=FACE_BOUND('',#414,.T.);
#449=FACE_BOUND('',#415,.T.);
#450=FACE_BOUND('',#416,.T.);
#451=FACE_BOUND('',#417,.T.);
#452=FACE_BOUND('',#418,.T.);
#453=FACE_BOUND('',#419,.T.);
#454=FACE_BOUND('',#420,.T.);
#455=FACE_BOUND('',#421,.T.);
#456=FACE_BOUND('',#422,.T.);
#457=FACE_BOUND('',#423,.T.);
#458=FACE_BOUND('',#424,.T.);
#459=FACE_BOUND('',#425,.T.);
#460=FACE_BOUND('',#426,.T.);
#461=FACE_BOUND('',#427,.T.);
#462=FACE_BOUND('',#428,.T.);
#463=FACE_BOUND('',#429,.T.);
#464=FACE_BOUND('',#430,.T.);
#465=FACE_BOUND('',#431,.T.);
#466=FACE_BOUND('',#432,.T.);
#467=CYLINDRICAL_SURFACE('',#515,0.0111);
#468=CYLINDRICAL_SURFACE('',#522,0.0111);
#469=CYLINDRICAL_SURFACE('',#527,0.0091);
#470=CYLINDRICAL_SURFACE('',#537,0.0125);
#471=CYLINDRICAL_SURFACE('',#545,0.0111);
#472=CYLINDRICAL_SURFACE('',#548,0.0111);
#473=CYLINDRICAL_SURFACE('',#565,0.0116000000000001);
#474=ADVANCED_FACE('',(#433),#467,.F.);
#475=ADVANCED_FACE('',(#434),#36,.F.);
#476=ADVANCED_FACE('',(#435),#468,.F.);
#477=ADVANCED_FACE('',(#436),#37,.F.);
#478=ADVANCED_FACE('',(#437,#438),#469,.F.);
#479=ADVANCED_FACE('',(#439,#440),#38,.F.);
#480=ADVANCED_FACE('',(#441,#442,#443),#470,.T.);
#481=ADVANCED_FACE('',(#444),#39,.F.);
#482=ADVANCED_FACE('',(#445),#40,.F.);
#483=ADVANCED_FACE('',(#446),#471,.F.);
#484=ADVANCED_FACE('',(#447),#13,.T.);
#485=ADVANCED_FACE('',(#448),#14,.F.);
#486=ADVANCED_FACE('',(#449),#472,.F.);
#487=ADVANCED_FACE('',(#450),#15,.F.);
#488=ADVANCED_FACE('',(#451),#16,.T.);
#489=ADVANCED_FACE('',(#452),#17,.F.);
#490=ADVANCED_FACE('',(#453),#18,.F.);
#491=ADVANCED_FACE('',(#454),#19,.F.);
#492=ADVANCED_FACE('',(#455),#20,.T.);
#493=ADVANCED_FACE('',(#456),#21,.T.);
#494=ADVANCED_FACE('',(#457),#22,.T.);
#495=ADVANCED_FACE('',(#458,#459),#23,.F.);
#496=ADVANCED_FACE('',(#460,#461),#12,.T.);
#497=ADVANCED_FACE('',(#462),#24,.F.);
#498=ADVANCED_FACE('',(#463),#25,.F.);
#499=ADVANCED_FACE('',(#464),#26,.F.);
#500=ADVANCED_FACE('',(#465),#27,.T.);
#501=ADVANCED_FACE('',(#466),#473,.T.);
#502=CLOSED_SHELL('',(#474,#475,#476,#477,#478,#479,#480,#481,#482,#483,#484,#485,#486,#487,#488,#489,#490,#491,#492,#493,#494,#495,#496,#497,#498,#499,#500,#501));
#503=STYLED_ITEM('',(#504),#511);
#504=PRESENTATION_STYLE_ASSIGNMENT((#505));
#505=SURFACE_STYLE_USAGE(.BOTH.,#506);
#506=SURFACE_SIDE_STYLE('',(#507));
#507=SURFACE_STYLE_FILL_AREA(#508);
#508=FILL_AREA_STYLE('',(#509));
#509=FILL_AREA_STYLE_COLOUR('',#510);
#510=COLOUR_RGB('',0.647058823529412,0.647058823529412,0.647058823529412);
#511=MANIFOLD_SOLID_BREP('Insulator',#502);
#512=SHAPE_DEFINITION_REPRESENTATION(#1112,#513);
#513=SHAPE_REPRESENTATION('Insulator',(#514),#1107);
#514=AXIS2_PLACEMENT_3D('',#708,#566,#567);
#515=AXIS2_PLACEMENT_3D('',#709,#568,#569);
#516=AXIS2_PLACEMENT_3D('',#713,#571,#572);
#517=AXIS2_PLACEMENT_3D('',#717,#574,#575);
#518=AXIS2_PLACEMENT_3D('',#718,#576,#577);
#519=AXIS2_PLACEMENT_3D('',#725,#578,#579);
#520=AXIS2_PLACEMENT_3D('',#729,#581,#582);
#521=AXIS2_PLACEMENT_3D('',#733,#584,#585);
#522=AXIS2_PLACEMENT_3D('',#739,#586,#587);
#523=AXIS2_PLACEMENT_3D('',#744,#590,#591);
#524=AXIS2_PLACEMENT_3D('',#745,#592,#593);
#525=AXIS2_PLACEMENT_3D('',#746,#594,#595);
#526=AXIS2_PLACEMENT_3D('',#760,#597,#598);
#527=AXIS2_PLACEMENT_3D('',#763,#600,#601);
#528=AXIS2_PLACEMENT_3D('',#767,#603,#604);
#529=AXIS2_PLACEMENT_3D('',#773,#608,#609);
#530=AXIS2_PLACEMENT_3D('',#777,#611,#612);
#531=AXIS2_PLACEMENT_3D('',#781,#614,#615);
#532=AXIS2_PLACEMENT_3D('',#782,#616,#617);
#533=AXIS2_PLACEMENT_3D('',#784,#618,#619);
#534=AXIS2_PLACEMENT_3D('',#785,#620,#621);
#535=AXIS2_PLACEMENT_3D('',#789,#623,#624);
#536=AXIS2_PLACEMENT_3D('',#794,#627,#628);
#537=AXIS2_PLACEMENT_3D('',#797,#630,#631);
#538=AXIS2_PLACEMENT_3D('',#801,#633,#634);
#539=AXIS2_PLACEMENT_3D('',#805,#636,#637);
#540=AXIS2_PLACEMENT_3D('',#806,#638,#639);
#541=AXIS2_PLACEMENT_3D('',#808,#640,#641);
#542=AXIS2_PLACEMENT_3D('',#819,#642,#643);
#543=AXIS2_PLACEMENT_3D('',#823,#646,#647);
#544=AXIS2_PLACEMENT_3D('',#837,#650,#651);
#545=AXIS2_PLACEMENT_3D('',#838,#652,#653);
#546=AXIS2_PLACEMENT_3D('',#842,#657,#658);
#547=AXIS2_PLACEMENT_3D('',#843,#659,#660);
#548=AXIS2_PLACEMENT_3D('',#844,#661,#662);
#549=AXIS2_PLACEMENT_3D('',#848,#666,#667);
#550=AXIS2_PLACEMENT_3D('',#849,#668,#669);
#551=AXIS2_PLACEMENT_3D('',#850,#670,#671);
#552=AXIS2_PLACEMENT_3D('',#851,#672,#673);
#553=AXIS2_PLACEMENT_3D('',#852,#674,#675);
#554=AXIS2_PLACEMENT_3D('',#854,#677,#678);
#555=AXIS2_PLACEMENT_3D('',#855,#679,#680);
#556=AXIS2_PLACEMENT_3D('',#857,#682,#683);
#557=AXIS2_PLACEMENT_3D('',#858,#684,#685);
#558=AXIS2_PLACEMENT_3D('',#859,#686,#687);
#559=AXIS2_PLACEMENT_3D('',#1089,#688,#689);
#560=AXIS2_PLACEMENT_3D('',#1095,#693,#694);
#561=AXIS2_PLACEMENT_3D('',#1101,#698,#699);
#562=AXIS2_PLACEMENT_3D('',#1102,#700,#701);
#563=AXIS2_PLACEMENT_3D('',#1103,#702,#703);
#564=AXIS2_PLACEMENT_3D('',#1104,#704,#705);
#565=AXIS2_PLACEMENT_3D('',#1105,#706,#707);
#566=DIRECTION('',(0.,0.,1.));
#567=DIRECTION('',(1.,0.,0.));
#568=DIRECTION('',(0.,0.,1.));
#569=DIRECTION('',(1.,0.,0.));
#570=DIRECTION('',(0.,6.12323399573677E-17,1.));
#571=DIRECTION('',(0.,0.,1.));
#572=DIRECTION('',(1.,0.,0.));
#573=DIRECTION('',(0.,0.,-1.));
#574=DIRECTION('',(0.,0.,1.));
#575=DIRECTION('',(1.,0.,0.));
#576=DIRECTION('',(0.,0.,1.));
#577=DIRECTION('',(1.,0.,0.));
#578=DIRECTION('',(0.,0.,1.));
#579=DIRECTION('',(1.,0.,0.));
#580=DIRECTION('',(-0.707106781186547,0.,-0.707106781186548));
#581=DIRECTION('',(0.,0.,1.));
#582=DIRECTION('',(1.,0.,0.));
#583=DIRECTION('',(0.612372435695794,0.353553390593274,-0.707106781186548));
#584=DIRECTION('',(0.,0.,1.));
#585=DIRECTION('',(1.,0.,0.));
#586=DIRECTION('',(0.,0.,1.));
#587=DIRECTION('',(1.,0.,0.));
#588=DIRECTION('',(0.,6.12323399573677E-17,1.));
#589=DIRECTION('',(0.,0.,-1.));
#590=DIRECTION('',(0.,0.,1.));
#591=DIRECTION('',(1.,0.,0.));
#592=DIRECTION('',(0.,0.,-1.));
#593=DIRECTION('',(-1.,0.,0.));
#594=DIRECTION('',(0.,0.,1.));
#595=DIRECTION('',(1.,0.,0.));
#596=DIRECTION('',(0.612372435695794,0.353553390593274,0.707106781186548));
#597=DIRECTION('',(0.,0.,1.));
#598=DIRECTION('',(1.,0.,0.));
#599=DIRECTION('',(-0.473146789255813,0.525482745498757,0.70710678118655));
#600=DIRECTION('',(0.,0.,-1.));
#601=DIRECTION('',(-1.,0.,0.));
#602=DIRECTION('',(-3.85494105772625E-16,0.,1.));
#603=DIRECTION('',(0.,0.,1.));
#604=DIRECTION('',(1.,0.,0.));
#605=DIRECTION('',(0.,6.12323399573677E-17,1.));
#606=DIRECTION('',(-3.33847688608258E-16,-1.92747052886311E-16,1.));
#607=DIRECTION('',(3.85494105772624E-16,0.,1.));
#608=DIRECTION('',(0.,0.,1.));
#609=DIRECTION('',(1.,0.,0.));
#610=DIRECTION('',(0.,6.12323399573677E-17,1.));
#611=DIRECTION('',(0.,0.,1.));
#612=DIRECTION('',(1.,0.,0.));
#613=DIRECTION('',(3.33847688608259E-16,1.92747052886312E-16,1.));
#614=DIRECTION('',(0.,0.,1.));
#615=DIRECTION('',(1.,0.,0.));
#616=DIRECTION('',(0.,0.,1.));
#617=DIRECTION('',(1.,0.,0.));
#618=DIRECTION('',(0.,0.,1.));
#619=DIRECTION('',(1.,0.,0.));
#620=DIRECTION('',(0.,0.,-1.));
#621=DIRECTION('',(-1.,0.,0.));
#622=DIRECTION('',(-0.707106781186547,4.32978028117747E-17,0.707106781186548));
#623=DIRECTION('',(0.,0.,1.));
#624=DIRECTION('',(1.,0.,0.));
#625=DIRECTION('',(-0.473146789255815,0.525482745498759,0.707106781186548));
#626=DIRECTION('',(0.707106781186547,1.21802425745963E-16,0.707106781186548));
#627=DIRECTION('',(0.,0.,1.));
#628=DIRECTION('',(1.,0.,0.));
#629=DIRECTION('',(0.473146789255814,-0.525482745498759,0.707106781186548));
#630=DIRECTION('',(0.,0.,-1.));
#631=DIRECTION('',(-1.,0.,0.));
#632=DIRECTION('',(0.,0.,-1.));
#633=DIRECTION('',(0.,0.,1.));
#634=DIRECTION('',(1.,0.,0.));
#635=DIRECTION('',(0.,0.,-1.));
#636=DIRECTION('',(0.,0.,1.));
#637=DIRECTION('',(1.,0.,0.));
#638=DIRECTION('',(0.,0.,1.));
#639=DIRECTION('',(1.,0.,0.));
#640=DIRECTION('',(0.,0.,1.));
#641=DIRECTION('',(1.,0.,0.));
#642=DIRECTION('',(0.,0.,1.));
#643=DIRECTION('',(1.,0.,0.));
#644=DIRECTION('',(0.707106781186548,0.,-0.707106781186547));
#645=DIRECTION('',(-0.612372435695795,-0.353553390593274,-0.707106781186547));
#646=DIRECTION('',(0.,0.,-1.));
#647=DIRECTION('',(-1.,0.,0.));
#648=DIRECTION('',(-0.612372435695795,-0.353553390593274,0.707106781186547));
#649=DIRECTION('',(0.473146789255815,-0.525482745498759,0.707106781186548));
#650=DIRECTION('',(0.,0.,1.));
#651=DIRECTION('',(1.,0.,0.));
#652=DIRECTION('',(0.,0.,1.));
#653=DIRECTION('',(1.,0.,0.));
#654=DIRECTION('',(0.,6.12323399573677E-17,1.));
#655=DIRECTION('',(0.,6.12323399573677E-17,1.));
#656=DIRECTION('',(0.,0.,-1.));
#657=DIRECTION('',(-0.5,0.866025403784439,0.));
#658=DIRECTION('',(-0.866025403784439,-0.5,0.));
#659=DIRECTION('',(0.,-1.,0.));
#660=DIRECTION('',(1.,0.,0.));
#661=DIRECTION('',(0.,0.,1.));
#662=DIRECTION('',(1.,0.,0.));
#663=DIRECTION('',(0.,6.12323399573677E-17,1.));
#664=DIRECTION('',(0.,6.12323399573677E-17,1.));
#665=DIRECTION('',(0.,0.,-1.));
#666=DIRECTION('',(-0.5,0.866025403784439,0.));
#667=DIRECTION('',(-0.866025403784439,-0.5,0.));
#668=DIRECTION('',(0.,-1.,0.));
#669=DIRECTION('',(1.,0.,0.));
#670=DIRECTION('',(-0.743144825477395,-0.669130606358858,4.09724327644451E-17));
#671=DIRECTION('',(0.669130606358858,-0.743144825477395,0.));
#672=DIRECTION('',(0.743144825477395,0.669130606358858,-4.09724327644451E-17));
#673=DIRECTION('',(-0.669130606358858,0.743144825477395,0.));
#674=DIRECTION('',(-0.3086701503277,-0.951169142842993,5.82423123115202E-17));
#675=DIRECTION('',(0.951169142842993,-0.3086701503277,0.));
#676=DIRECTION('',(0.,6.12323399573677E-17,1.));
#677=DIRECTION('',(-0.676318488708841,0.736609327819428,-4.51043127768073E-17));
#678=DIRECTION('',(-0.736609327819428,-0.676318488708841,0.));
#679=DIRECTION('',(-0.308670150327702,-0.951169142842993,5.82423123115201E-17));
#680=DIRECTION('',(0.951169142842993,-0.308670150327702,0.));
#681=DIRECTION('',(0.,6.12323399573677E-17,1.));
#682=DIRECTION('',(0.676318488708844,-0.736609327819426,4.51043127768071E-17));
#683=DIRECTION('',(0.736609327819426,0.676318488708844,0.));
#684=DIRECTION('',(0.,0.,1.));
#685=DIRECTION('',(1.,0.,0.));
#686=DIRECTION('',(0.,0.,1.));
#687=DIRECTION('',(1.,0.,0.));
#688=DIRECTION('',(-0.974370064785235,0.224951054343865,0.));
#689=DIRECTION('',(-0.224951054343865,-0.974370064785235,0.));
#690=DIRECTION('',(0.224951054343865,0.974370064785235,0.));
#691=DIRECTION('',(0.,0.,-1.));
#692=DIRECTION('',(0.224951054343865,0.974370064785235,0.));
#693=DIRECTION('',(1.,0.,0.));
#694=DIRECTION('',(0.,0.,-1.));
#695=DIRECTION('',(0.,-1.,0.));
#696=DIRECTION('',(0.,0.,-1.));
#697=DIRECTION('',(0.,-1.,0.));
#698=DIRECTION('',(0.,0.,1.));
#699=DIRECTION('',(1.,0.,0.));
#700=DIRECTION('',(0.,0.,1.));
#701=DIRECTION('',(1.,0.,0.));
#702=DIRECTION('',(0.,0.,1.));
#703=DIRECTION('',(1.,0.,0.));
#704=DIRECTION('',(0.,0.,1.));
#705=DIRECTION('',(1.,0.,0.));
#706=DIRECTION('',(0.,0.,-1.));
#707=DIRECTION('',(-1.,0.,0.));
#708=CARTESIAN_POINT('',(0.,0.,0.));
#709=CARTESIAN_POINT('',(0.,0.,0.0755));
#710=CARTESIAN_POINT('',(0.00282644677273662,0.0107341137799488,0.0635));
#711=CARTESIAN_POINT('',(0.00282644677273663,0.0107341137799488,0.0645));
#712=CARTESIAN_POINT('',(0.00282644677273663,0.0107341137799488,0.0695));
#713=CARTESIAN_POINT('',(0.,0.,0.0645));
#714=CARTESIAN_POINT('',(0.00961288198200728,0.00555,0.0645));
#715=CARTESIAN_POINT('',(0.00961288198200728,0.00555,0.06575));
#716=CARTESIAN_POINT('',(0.00961288198200727,0.00555,0.0695));
#717=CARTESIAN_POINT('',(0.,0.,0.0695));
#718=CARTESIAN_POINT('',(0.,0.,0.0645));
#719=CARTESIAN_POINT('',(-6.5583189374697E-06,-0.0110999980625428,0.0645));
#720=CARTESIAN_POINT('',(-0.000786296942962207,-0.0108469599566443,0.0642474226386813));
#721=CARTESIAN_POINT('',(-0.00157786354874199,-0.0105900834746444,0.0640736023901705));
#722=CARTESIAN_POINT('',(-0.00238448117604497,-0.0103283226867235,0.064));
#723=CARTESIAN_POINT('',(-6.55831893747131E-06,-0.0110999980625428,0.0645));
#724=CARTESIAN_POINT('',(-0.00238448117604497,-0.0103283226867235,0.064));
#725=CARTESIAN_POINT('',(0.,0.,0.0645));
#726=CARTESIAN_POINT('',(0.0111,0.,0.0645));
#727=CARTESIAN_POINT('',(0.0101,0.,0.0635));
#728=CARTESIAN_POINT('',(0.0091,0.,0.0625));
#729=CARTESIAN_POINT('',(0.,0.,0.0625));
#730=CARTESIAN_POINT('',(-0.0078808311744384,-0.00455,0.0625));
#731=CARTESIAN_POINT('',(-0.00874685657822284,-0.00505,0.0635));
#732=CARTESIAN_POINT('',(-0.00961288198200728,-0.00555,0.0645));
#733=CARTESIAN_POINT('',(0.,0.,0.0645));
#734=CARTESIAN_POINT('',(-0.00282644677273664,-0.0107341137799488,0.0645));
#735=CARTESIAN_POINT('',(-0.00282644677273664,-0.0107341137799488,0.0645));
#736=CARTESIAN_POINT('',(-0.0026797208253116,-0.0105993972249594,0.0643323625306419));
#737=CARTESIAN_POINT('',(-0.00253243227970028,-0.0104641641199608,0.0641656415828626));
#738=CARTESIAN_POINT('',(-0.00238448117604498,-0.0103283226867235,0.064));
#739=CARTESIAN_POINT('',(0.,0.,0.0755));
#740=CARTESIAN_POINT('',(-0.00282644677273664,-0.0107341137799488,0.0635));
#741=CARTESIAN_POINT('',(-0.00282644677273663,-0.0107341137799488,0.0695));
#742=CARTESIAN_POINT('',(-0.00961288198200728,-0.00555,0.06825));
#743=CARTESIAN_POINT('',(-0.00961288198200727,-0.00555,0.0695));
#744=CARTESIAN_POINT('',(0.,0.,0.0695));
#745=CARTESIAN_POINT('',(0.,0.,0.0695));
#746=CARTESIAN_POINT('',(0.,0.,0.0695));
#747=CARTESIAN_POINT('',(-6.55831893747131E-06,-0.0110999980625427,0.0695));
#748=CARTESIAN_POINT('',(0.00742734973058333,-0.00824890756279908,0.0695));
#749=CARTESIAN_POINT('',(-6.55831893747395E-06,-0.0110999980625428,0.0695));
#750=CARTESIAN_POINT('',(-0.000786296942962209,-0.0108469599566443,0.0697525773613187));
#751=CARTESIAN_POINT('',(-0.00157786354874199,-0.0105900834746443,0.0699263976098295));
#752=CARTESIAN_POINT('',(-0.00238448117604497,-0.0103283226867235,0.07));
#753=CARTESIAN_POINT('',(-0.00238448117604497,-0.0103283226867235,0.07));
#754=CARTESIAN_POINT('',(-0.00282644677273664,-0.0107341137799488,0.0695));
#755=CARTESIAN_POINT('',(-0.0026797208253116,-0.0105993972249594,0.0696676374693581));
#756=CARTESIAN_POINT('',(-0.00253243227970029,-0.0104641641199608,0.0698343584171375));
#757=CARTESIAN_POINT('',(-0.00238448117604498,-0.0103283226867235,0.07));
#758=CARTESIAN_POINT('',(-0.00874685657822283,-0.00505,0.0705));
#759=CARTESIAN_POINT('',(-0.0078808311744384,-0.00455,0.0715));
#760=CARTESIAN_POINT('',(0.,0.,0.0715));
#761=CARTESIAN_POINT('',(0.00608908851786561,-0.00676261791184429,0.0715));
#762=CARTESIAN_POINT('',(4.35767239189647E-18,3.92366584538862E-18,0.0806));
#763=CARTESIAN_POINT('',(0.,5.57214293612046E-19,0.035));
#764=CARTESIAN_POINT('',(-0.0091,0.,0.06475));
#765=CARTESIAN_POINT('',(-0.0091,0.,0.0625));
#766=CARTESIAN_POINT('',(-0.0091,5.80482582795845E-18,0.0766));
#767=CARTESIAN_POINT('',(0.,0.,0.0766));
#768=CARTESIAN_POINT('',(0.00608908851786561,-0.00676261791184428,0.0766));
#769=CARTESIAN_POINT('',(0.00608908851786561,-0.00676261791184429,0.0645));
#770=CARTESIAN_POINT('',(-0.0078808311744384,-0.00455,0.06925));
#771=CARTESIAN_POINT('',(0.0091,0.,0.06925));
#772=CARTESIAN_POINT('',(0.0091,5.70972075521833E-18,0.0766));
#773=CARTESIAN_POINT('',(0.,0.,0.0766));
#774=CARTESIAN_POINT('',(-0.00608908851786561,0.0067626179118443,0.0766));
#775=CARTESIAN_POINT('',(-0.00608908851786561,0.00676261791184429,0.0645));
#776=CARTESIAN_POINT('',(-0.00608908851786561,0.0067626179118443,0.0715));
#777=CARTESIAN_POINT('',(0.,0.,0.0715));
#778=CARTESIAN_POINT('',(0.0078808311744384,0.00455,0.0715));
#779=CARTESIAN_POINT('',(0.0078808311744384,0.00455,0.06475));
#780=CARTESIAN_POINT('',(0.0078808311744384,0.00455,0.0625));
#781=CARTESIAN_POINT('',(0.,0.,0.0625));
#782=CARTESIAN_POINT('',(0.,5.57214293612046E-19,-0.105));
#783=CARTESIAN_POINT('',(0.0091,5.57214293612046E-19,-0.105));
#784=CARTESIAN_POINT('',(0.,0.,0.0765));
#785=CARTESIAN_POINT('',(0.,0.,0.08));
#786=CARTESIAN_POINT('',(-0.0125,0.,0.08));
#787=CARTESIAN_POINT('',(0.,3.74807433545546E-18,0.0675));
#788=CARTESIAN_POINT('',(-0.0111,5.29998658834245E-18,0.0786));
#789=CARTESIAN_POINT('',(0.,0.,0.0786));
#790=CARTESIAN_POINT('',(-0.00742734973058333,0.00824890756279908,0.0786));
#791=CARTESIAN_POINT('',(2.02507151639784E-18,1.82338258335697E-18,0.0675));
#792=CARTESIAN_POINT('',(-4.59876970859407E-34,4.14220350919739E-18,0.0675));
#793=CARTESIAN_POINT('',(0.0111,5.4335459803536E-18,0.0786));
#794=CARTESIAN_POINT('',(0.,0.,0.0786));
#795=CARTESIAN_POINT('',(0.00742734973058332,-0.00824890756279908,0.0786));
#796=CARTESIAN_POINT('',(3.95879767860733E-18,3.56451744037493E-18,0.0675));
#797=CARTESIAN_POINT('',(0.,7.65404249467096E-19,0.08));
#798=CARTESIAN_POINT('',(-0.00281188817929831,-0.0121796258098154,0.08));
#799=CARTESIAN_POINT('',(-0.00281188817929831,-0.0121796258098154,0.));
#800=CARTESIAN_POINT('',(-0.00281188817929831,-0.0121796258098154,0.001));
#801=CARTESIAN_POINT('',(0.,7.65404249467096E-19,0.001));
#802=CARTESIAN_POINT('',(0.,-0.0125,0.001));
#803=CARTESIAN_POINT('',(0.,-0.0125,0.08));
#804=CARTESIAN_POINT('',(0.,-0.0125,0.));
#805=CARTESIAN_POINT('',(0.,7.65404249467096E-19,0.));
#806=CARTESIAN_POINT('',(0.,0.,-0.00612300716030735));
#807=CARTESIAN_POINT('',(0.0125,0.,-0.00612300716030735));
#808=CARTESIAN_POINT('',(0.,0.,0.0645));
#809=CARTESIAN_POINT('',(0.00282644677273662,0.0107341137799488,0.0645));
#810=CARTESIAN_POINT('',(0.00267972082531158,0.0105993972249594,0.0643323625306419));
#811=CARTESIAN_POINT('',(0.00253243227970027,0.0104641641199608,0.0641656415828626));
#812=CARTESIAN_POINT('',(0.00238448117604497,0.0103283226867235,0.064));
#813=CARTESIAN_POINT('',(0.00238448117604497,0.0103283226867235,0.064));
#814=CARTESIAN_POINT('',(0.00238448117604497,0.0103283226867235,0.064));
#815=CARTESIAN_POINT('',(0.001577863548742,0.0105900834746443,0.0640736023901705));
#816=CARTESIAN_POINT('',(0.000786296942962227,0.0108469599566443,0.0642474226386813));
#817=CARTESIAN_POINT('',(6.55831893749877E-06,0.0110999980625427,0.0645));
#818=CARTESIAN_POINT('',(6.5583189375047E-06,0.0110999980625428,0.0645));
#819=CARTESIAN_POINT('',(0.,0.,0.0645));
#820=CARTESIAN_POINT('',(-0.0111,0.,0.0645));
#821=CARTESIAN_POINT('',(-0.0101,0.,0.0635));
#822=CARTESIAN_POINT('',(0.00874685657822284,0.00505,0.0635));
#823=CARTESIAN_POINT('',(0.,0.,0.0695));
#824=CARTESIAN_POINT('',(0.00238448117604497,0.0103283226867235,0.07));
#825=CARTESIAN_POINT('',(0.001577863548742,0.0105900834746443,0.0699263976098295));
#826=CARTESIAN_POINT('',(0.000786296942962235,0.0108469599566443,0.0697525773613187));
#827=CARTESIAN_POINT('',(6.55831893751259E-06,0.0110999980625427,0.0695));
#828=CARTESIAN_POINT('',(0.00238448117604497,0.0103283226867235,0.07));
#829=CARTESIAN_POINT('',(6.55831893751424E-06,0.0110999980625427,0.0695));
#830=CARTESIAN_POINT('',(0.00282644677273662,0.0107341137799488,0.0695));
#831=CARTESIAN_POINT('',(0.00267972082531158,0.0105993972249594,0.0696676374693581));
#832=CARTESIAN_POINT('',(0.00253243227970027,0.0104641641199608,0.0698343584171374));
#833=CARTESIAN_POINT('',(0.00238448117604497,0.0103283226867235,0.07));
#834=CARTESIAN_POINT('',(0.00874685657822284,0.00505,0.0705));
#835=CARTESIAN_POINT('',(2.42394622968699E-18,2.18253098837066E-18,0.0806));
#836=CARTESIAN_POINT('',(-0.00742734973058332,0.00824890756279908,0.0695));
#837=CARTESIAN_POINT('',(0.,0.,0.0695));
#838=CARTESIAN_POINT('',(0.,0.,0.0755));
#839=CARTESIAN_POINT('',(6.55831893748866E-06,0.0110999980625427,0.0635));
#840=CARTESIAN_POINT('',(-0.00742734973058333,0.00824890756279908,0.0645));
#841=CARTESIAN_POINT('',(-0.0111,0.,0.06575));
#842=CARTESIAN_POINT('',(1.50231459873716E-18,8.67361737988403E-19,0.0365));
#843=CARTESIAN_POINT('',(-1.7347234759768E-18,0.,0.0365));
#844=CARTESIAN_POINT('',(0.,0.,0.0755));
#845=CARTESIAN_POINT('',(-6.55831893747131E-06,-0.0110999980625428,0.0635));
#846=CARTESIAN_POINT('',(0.00742734973058332,-0.00824890756279908,0.0645));
#847=CARTESIAN_POINT('',(0.0111,0.,0.06825));
#848=CARTESIAN_POINT('',(1.50231459873716E-18,8.67361737988403E-19,0.0365));
#849=CARTESIAN_POINT('',(-1.7347234759768E-18,0.,0.0365));
#850=CARTESIAN_POINT('',(0.00659093647263475,-0.00731997653095233,0.0645));
#851=CARTESIAN_POINT('',(-0.00659093647263475,0.00731997653095234,0.0645));
#852=CARTESIAN_POINT('',(-0.00119551974749123,-0.0107141603746331,0.0635));
#853=CARTESIAN_POINT('',(-0.00238448117604497,-0.0103283226867235,0.0635));
#854=CARTESIAN_POINT('',(-0.0026054639743908,-0.0105312182333361,0.0635));
#855=CARTESIAN_POINT('',(0.00119551974749123,0.0107141603746331,0.0635));
#856=CARTESIAN_POINT('',(0.00238448117604497,0.0103283226867235,0.0635));
#857=CARTESIAN_POINT('',(0.0026054639743908,0.0105312182333362,0.0635));
#858=CARTESIAN_POINT('',(0.,0.,-0.105));
#859=CARTESIAN_POINT('',(0.,0.,-0.105));
#860=CARTESIAN_POINT('',(0.0212258320271348,0.,-0.105));
#861=CARTESIAN_POINT('',(-0.0118491483947756,0.0049080779676874,-0.00612300716030735));
#862=CARTESIAN_POINT('',(-0.0128254258026122,9.75781955236954E-18,-0.00612300716030735));
#863=CARTESIAN_POINT('',(-0.0118491483947756,-0.00490807796768743,-0.00612300716030735));
#864=CARTESIAN_POINT('',(-0.00906894555663202,-0.00906894555663201,-0.00612300716030735));
#865=CARTESIAN_POINT('',(-0.00490807796768743,-0.0118491483947756,-0.00612300716030735));
#866=CARTESIAN_POINT('',(-1.575481281893E-18,-0.0128254258026122,-0.00612300716030735));
#867=CARTESIAN_POINT('',(0.00490807796768743,-0.0118491483947756,-0.00612300716030735));
#868=CARTESIAN_POINT('',(0.00906894555663202,-0.00906894555663202,-0.00612300716030735));
#869=CARTESIAN_POINT('',(0.0118491483947756,-0.00490807796768743,-0.00612300716030735));
#870=CARTESIAN_POINT('',(0.0128254258026122,-2.0855936394871E-18,-0.00612300716030735));
#871=CARTESIAN_POINT('',(0.0118491483947756,0.00490807796768743,-0.00612300716030735));
#872=CARTESIAN_POINT('',(0.00906894555663202,0.00906894555663202,-0.00612300716030735));
#873=CARTESIAN_POINT('',(0.00490807796768743,0.0118491483947756,-0.00612300716030735));
#874=CARTESIAN_POINT('',(5.57686492472231E-18,0.0128254258026122,-0.00612300716030735));
#875=CARTESIAN_POINT('',(-0.00490807796768743,0.0118491483947756,-0.00612300716030735));
#876=CARTESIAN_POINT('',(-0.00906894555663202,0.00906894555663201,-0.00612300716030735));
#877=CARTESIAN_POINT('',(-0.0118491483947756,0.0049080779676874,-0.00612300716030735));
#878=CARTESIAN_POINT('',(-0.0128254258026122,9.75781955236954E-18,-0.00612300716030735));
#879=CARTESIAN_POINT('',(-0.0118491483947756,-0.00490807796768743,-0.00612300716030735));
#880=CARTESIAN_POINT('',(-0.0127947342652727,0.00529975245963567,-0.0232158767292944));
#881=CARTESIAN_POINT('',(-0.013848920573545,9.86623976961809E-18,-0.0232158767292944));
#882=CARTESIAN_POINT('',(-0.0127947342652727,-0.0052997524596357,-0.0232158767292944));
#883=CARTESIAN_POINT('',(-0.00979266564966754,-0.00979266564966753,-0.0232158767292944));
#884=CARTESIAN_POINT('',(-0.0052997524596357,-0.0127947342652727,-0.0232158767292944));
#885=CARTESIAN_POINT('',(-3.2492183856675E-18,-0.013848920573545,-0.0232158767292944));
#886=CARTESIAN_POINT('',(0.0052997524596357,-0.0127947342652727,-0.0232158767292944));
#887=CARTESIAN_POINT('',(0.00979266564966753,-0.00979266564966754,-0.0232158767292944));
#888=CARTESIAN_POINT('',(0.0127947342652727,-0.0052997524596357,-0.0232158767292944));
#889=CARTESIAN_POINT('',(0.013848920573545,-2.11871395121372E-18,-0.0232158767292944));
#890=CARTESIAN_POINT('',(0.0127947342652727,0.0052997524596357,-0.0232158767292944));
#891=CARTESIAN_POINT('',(0.00979266564966754,0.00979266564966753,-0.0232158767292944));
#892=CARTESIAN_POINT('',(0.0052997524596357,0.0127947342652727,-0.0232158767292944));
#893=CARTESIAN_POINT('',(3.93023287525995E-18,0.013848920573545,-0.0232158767292944));
#894=CARTESIAN_POINT('',(-0.0052997524596357,0.0127947342652727,-0.0232158767292944));
#895=CARTESIAN_POINT('',(-0.00979266564966754,0.00979266564966753,-0.0232158767292944));
#896=CARTESIAN_POINT('',(-0.0127947342652727,0.00529975245963567,-0.0232158767292944));
#897=CARTESIAN_POINT('',(-0.013848920573545,9.86623976961809E-18,-0.0232158767292944));
#898=CARTESIAN_POINT('',(-0.0127947342652727,-0.0052997524596357,-0.0232158767292944));
#899=CARTESIAN_POINT('',(-0.0142786426381127,0.00591440743298499,-0.039229708580661));
#900=CARTESIAN_POINT('',(-0.0154550914222556,1.12757025938492E-17,-0.0392297085806609));
#901=CARTESIAN_POINT('',(-0.0142786426381127,-0.00591440743298502,-0.039229708580661));
#902=CARTESIAN_POINT('',(-0.010928399948535,-0.010928399948535,-0.0392297085806609));
#903=CARTESIAN_POINT('',(-0.00591440743298502,-0.0142786426381127,-0.039229708580661));
#904=CARTESIAN_POINT('',(-2.77826806699411E-19,-0.0154550914222556,-0.039229708580661));
#905=CARTESIAN_POINT('',(0.00591440743298501,-0.0142786426381127,-0.0392297085806609));
#906=CARTESIAN_POINT('',(0.010928399948535,-0.010928399948535,-0.039229708580661));
#907=CARTESIAN_POINT('',(0.0142786426381127,-0.00591440743298502,-0.0392297085806609));
#908=CARTESIAN_POINT('',(0.0154550914222556,-3.1635621788764E-18,-0.0392297085806609));
#909=CARTESIAN_POINT('',(0.0142786426381127,0.00591440743298502,-0.039229708580661));
#910=CARTESIAN_POINT('',(0.010928399948535,0.010928399948535,-0.0392297085806609));
#911=CARTESIAN_POINT('',(0.00591440743298502,0.0142786426381127,-0.0392297085806609));
#912=CARTESIAN_POINT('',(4.26904605416167E-18,0.0154550914222556,-0.039229708580661));
#913=CARTESIAN_POINT('',(-0.00591440743298502,0.0142786426381127,-0.039229708580661));
#914=CARTESIAN_POINT('',(-0.010928399948535,0.010928399948535,-0.0392297085806609));
#915=CARTESIAN_POINT('',(-0.0142786426381127,0.00591440743298499,-0.039229708580661));
#916=CARTESIAN_POINT('',(-0.0154550914222556,1.12757025938492E-17,-0.0392297085806609));
#917=CARTESIAN_POINT('',(-0.0142786426381127,-0.00591440743298502,-0.039229708580661));
#918=CARTESIAN_POINT('',(-0.0154314436698023,0.00639191325502849,-0.05144010260966));
#919=CARTESIAN_POINT('',(-0.0167028742674454,1.24683249835833E-17,-0.05144010260966));
#920=CARTESIAN_POINT('',(-0.0154314436698022,-0.00639191325502853,-0.05144010260966));
#921=CARTESIAN_POINT('',(-0.0118107156598169,-0.0118107156598169,-0.05144010260966));
#922=CARTESIAN_POINT('',(-0.00639191325502853,-0.0154314436698022,-0.05144010260966));
#923=CARTESIAN_POINT('',(-2.75793927626E-18,-0.0167028742674454,-0.05144010260966));
#924=CARTESIAN_POINT('',(0.00639191325502852,-0.0154314436698022,-0.05144010260966));
#925=CARTESIAN_POINT('',(0.0118107156598169,-0.0118107156598169,-0.05144010260966));
#926=CARTESIAN_POINT('',(0.0154314436698022,-0.00639191325502853,-0.05144010260966));
#927=CARTESIAN_POINT('',(0.0167028742674454,-1.67024309286707E-18,-0.05144010260966));
#928=CARTESIAN_POINT('',(0.0154314436698022,0.00639191325502853,-0.05144010260966));
#929=CARTESIAN_POINT('',(0.0118107156598169,0.0118107156598169,-0.05144010260966));
#930=CARTESIAN_POINT('',(0.00639191325502853,0.0154314436698022,-0.05144010260966));
#931=CARTESIAN_POINT('',(6.64073830647371E-18,0.0167028742674454,-0.05144010260966));
#932=CARTESIAN_POINT('',(-0.00639191325502853,0.0154314436698022,-0.05144010260966));
#933=CARTESIAN_POINT('',(-0.0118107156598169,0.0118107156598169,-0.05144010260966));
#934=CARTESIAN_POINT('',(-0.0154314436698023,0.00639191325502849,-0.05144010260966));
#935=CARTESIAN_POINT('',(-0.0167028742674454,1.24683249835833E-17,-0.05144010260966));
#936=CARTESIAN_POINT('',(-0.0154314436698022,-0.00639191325502853,-0.05144010260966));
#937=CARTESIAN_POINT('',(-0.0157655552691409,0.00653030681082073,-0.0569819093608898));
#938=CARTESIAN_POINT('',(-0.0170645140565967,1.33356867215717E-17,-0.0569819093608898));
#939=CARTESIAN_POINT('',(-0.0157655552691409,-0.00653030681082077,-0.0569819093608898));
#940=CARTESIAN_POINT('',(-0.0120664336070727,-0.0120664336070727,-0.0569819093608898));
#941=CARTESIAN_POINT('',(-0.00653030681082076,-0.0157655552691409,-0.0569819093608898));
#942=CARTESIAN_POINT('',(-6.51198929849106E-18,-0.0170645140565968,-0.0569819093608898));
#943=CARTESIAN_POINT('',(0.00653030681082077,-0.0157655552691409,-0.0569819093608898));
#944=CARTESIAN_POINT('',(0.0120664336070727,-0.0120664336070727,-0.0569819093608898));
#945=CARTESIAN_POINT('',(0.0157655552691409,-0.00653030681082077,-0.0569819093608898));
#946=CARTESIAN_POINT('',(0.0170645140565968,-2.33619627786617E-18,-0.0569819093608898));
#947=CARTESIAN_POINT('',(0.0157655552691409,0.00653030681082076,-0.0569819093608898));
#948=CARTESIAN_POINT('',(0.0120664336070727,0.0120664336070727,-0.0569819093608898));
#949=CARTESIAN_POINT('',(0.00653030681082077,0.0157655552691409,-0.0569819093608898));
#950=CARTESIAN_POINT('',(2.33103467084383E-18,0.0170645140565968,-0.0569819093608898));
#951=CARTESIAN_POINT('',(-0.00653030681082076,0.0157655552691409,-0.0569819093608898));
#952=CARTESIAN_POINT('',(-0.0120664336070727,0.0120664336070727,-0.0569819093608898));
#953=CARTESIAN_POINT('',(-0.0157655552691409,0.00653030681082073,-0.0569819093608898));
#954=CARTESIAN_POINT('',(-0.0170645140565967,1.33356867215717E-17,-0.0569819093608898));
#955=CARTESIAN_POINT('',(-0.0157655552691409,-0.00653030681082077,-0.0569819093608898));
#956=CARTESIAN_POINT('',(-0.0157771004980475,0.00653508900121453,-0.0611118428493635));
#957=CARTESIAN_POINT('',(-0.0170770105223158,1.40946282423116E-17,-0.0611118428493635));
#958=CARTESIAN_POINT('',(-0.0157771004980474,-0.00653508900121457,-0.0611118428493635));
#959=CARTESIAN_POINT('',(-0.0120752699427235,-0.0120752699427235,-0.0611118428493635));
#960=CARTESIAN_POINT('',(-0.00653508900121457,-0.0157771004980475,-0.0611118428493635));
#961=CARTESIAN_POINT('',(-5.0618688927917E-18,-0.0170770105223158,-0.0611118428493635));
#962=CARTESIAN_POINT('',(0.00653508900121457,-0.0157771004980475,-0.0611118428493635));
#963=CARTESIAN_POINT('',(0.0120752699427235,-0.0120752699427235,-0.0611118428493635));
#964=CARTESIAN_POINT('',(0.0157771004980475,-0.00653508900121457,-0.0611118428493635));
#965=CARTESIAN_POINT('',(0.0170770105223158,-2.27302614884672E-18,-0.0611118428493635));
#966=CARTESIAN_POINT('',(0.0157771004980475,0.00653508900121456,-0.0611118428493635));
#967=CARTESIAN_POINT('',(0.0120752699427235,0.0120752699427235,-0.0611118428493635));
#968=CARTESIAN_POINT('',(0.00653508900121457,0.0157771004980474,-0.0611118428493635));
#969=CARTESIAN_POINT('',(3.63207727782644E-18,0.0170770105223158,-0.0611118428493635));
#970=CARTESIAN_POINT('',(-0.00653508900121457,0.0157771004980475,-0.0611118428493635));
#971=CARTESIAN_POINT('',(-0.0120752699427235,0.0120752699427235,-0.0611118428493635));
#972=CARTESIAN_POINT('',(-0.0157771004980475,0.00653508900121453,-0.0611118428493635));
#973=CARTESIAN_POINT('',(-0.0170770105223158,1.40946282423116E-17,-0.0611118428493635));
#974=CARTESIAN_POINT('',(-0.0157771004980474,-0.00653508900121457,-0.0611118428493635));
#975=CARTESIAN_POINT('',(-0.015528579608385,0.00643214827818332,-0.0647122972263822));
#976=CARTESIAN_POINT('',(-0.0168080134497354,1.00830802041152E-17,-0.0647122972263821));
#977=CARTESIAN_POINT('',(-0.015528579608385,-0.00643214827818335,-0.0647122972263821));
#978=CARTESIAN_POINT('',(-0.0118850602885826,-0.0118850602885826,-0.0647122972263821));
#979=CARTESIAN_POINT('',(-0.00643214827818335,-0.015528579608385,-0.0647122972263821));
#980=CARTESIAN_POINT('',(-3.38135552543917E-18,-0.0168080134497354,-0.0647122972263821));
#981=CARTESIAN_POINT('',(0.00643214827818334,-0.015528579608385,-0.0647122972263821));
#982=CARTESIAN_POINT('',(0.0118850602885826,-0.0118850602885826,-0.0647122972263821));
#983=CARTESIAN_POINT('',(0.015528579608385,-0.00643214827818335,-0.0647122972263821));
#984=CARTESIAN_POINT('',(0.0168080134497354,-1.9374422830564E-18,-0.0647122972263821));
#985=CARTESIAN_POINT('',(0.015528579608385,0.00643214827818335,-0.0647122972263821));
#986=CARTESIAN_POINT('',(0.0118850602885826,0.0118850602885826,-0.0647122972263821));
#987=CARTESIAN_POINT('',(0.00643214827818335,0.015528579608385,-0.0647122972263821));
#988=CARTESIAN_POINT('',(6.80336863234654E-18,0.0168080134497354,-0.0647122972263821));
#989=CARTESIAN_POINT('',(-0.00643214827818335,0.015528579608385,-0.0647122972263822));
#990=CARTESIAN_POINT('',(-0.0118850602885826,0.0118850602885826,-0.0647122972263821));
#991=CARTESIAN_POINT('',(-0.015528579608385,0.00643214827818332,-0.0647122972263822));
#992=CARTESIAN_POINT('',(-0.0168080134497354,1.00830802041152E-17,-0.0647122972263821));
#993=CARTESIAN_POINT('',(-0.015528579608385,-0.00643214827818335,-0.0647122972263821));
#994=CARTESIAN_POINT('',(-0.0150697814377955,0.00624210785353316,-0.0684349429599672));
#995=CARTESIAN_POINT('',(-0.0163114138883809,1.23599047663348E-17,-0.0684349429599671));
#996=CARTESIAN_POINT('',(-0.0150697814377954,-0.0062421078535332,-0.0684349429599672));
#997=CARTESIAN_POINT('',(-0.0115339113712146,-0.0115339113712146,-0.0684349429599671));
#998=CARTESIAN_POINT('',(-0.00624210785353319,-0.0150697814377954,-0.0684349429599672));
#999=CARTESIAN_POINT('',(-6.38324029050841E-18,-0.0163114138883809,-0.0684349429599671));
#1000=CARTESIAN_POINT('',(0.00624210785353319,-0.0150697814377954,-0.0684349429599672));
#1001=CARTESIAN_POINT('',(0.0115339113712145,-0.0115339113712146,-0.0684349429599672));
#1002=CARTESIAN_POINT('',(0.0150697814377955,-0.0062421078535332,-0.0684349429599671));
#1003=CARTESIAN_POINT('',(0.0163114138883809,-1.90655205026122E-18,-0.0684349429599671));
#1004=CARTESIAN_POINT('',(0.0150697814377955,0.00624210785353319,-0.0684349429599672));
#1005=CARTESIAN_POINT('',(0.0115339113712146,0.0115339113712146,-0.0684349429599671));
#1006=CARTESIAN_POINT('',(0.0062421078535332,0.0150697814377954,-0.0684349429599671));
#1007=CARTESIAN_POINT('',(3.150962563786E-18,0.0163114138883809,-0.0684349429599672));
#1008=CARTESIAN_POINT('',(-0.00624210785353319,0.0150697814377954,-0.0684349429599672));
#1009=CARTESIAN_POINT('',(-0.0115339113712146,0.0115339113712146,-0.0684349429599671));
#1010=CARTESIAN_POINT('',(-0.0150697814377955,0.00624210785353316,-0.0684349429599672));
#1011=CARTESIAN_POINT('',(-0.0163114138883809,1.23599047663348E-17,-0.0684349429599671));
#1012=CARTESIAN_POINT('',(-0.0150697814377954,-0.0062421078535332,-0.0684349429599672));
#1013=CARTESIAN_POINT('',(-0.0145843711728083,0.00604104433846036,-0.072929089564347));
#1014=CARTESIAN_POINT('',(-0.0157860096036169,1.19262238973405E-17,-0.0729290895643469));
#1015=CARTESIAN_POINT('',(-0.0145843711728083,-0.00604104433846039,-0.0729290895643469));
#1016=CARTESIAN_POINT('',(-0.0111623944385935,-0.0111623944385935,-0.072929089564347));
#1017=CARTESIAN_POINT('',(-0.00604104433846039,-0.0145843711728083,-0.072929089564347));
#1018=CARTESIAN_POINT('',(1.18584612615602E-18,-0.0157860096036169,-0.0729290895643469));
#1019=CARTESIAN_POINT('',(0.00604104433846038,-0.0145843711728083,-0.0729290895643469));
#1020=CARTESIAN_POINT('',(0.0111623944385935,-0.0111623944385935,-0.072929089564347));
#1021=CARTESIAN_POINT('',(0.0145843711728083,-0.00604104433846039,-0.0729290895643469));
#1022=CARTESIAN_POINT('',(0.0157860096036169,-2.44110924931749E-18,-0.072929089564347));
#1023=CARTESIAN_POINT('',(0.0145843711728083,0.00604104433846039,-0.0729290895643469));
#1024=CARTESIAN_POINT('',(0.0111623944385935,0.0111623944385935,-0.0729290895643469));
#1025=CARTESIAN_POINT('',(0.00604104433846039,0.0145843711728083,-0.072929089564347));
#1026=CARTESIAN_POINT('',(5.88179678573386E-18,0.0157860096036169,-0.072929089564347));
#1027=CARTESIAN_POINT('',(-0.00604104433846039,0.0145843711728083,-0.072929089564347));
#1028=CARTESIAN_POINT('',(-0.0111623944385935,0.0111623944385935,-0.0729290895643469));
#1029=CARTESIAN_POINT('',(-0.0145843711728083,0.00604104433846036,-0.072929089564347));
#1030=CARTESIAN_POINT('',(-0.0157860096036169,1.19262238973405E-17,-0.0729290895643469));
#1031=CARTESIAN_POINT('',(-0.0145843711728083,-0.00604104433846039,-0.0729290895643469));
#1032=CARTESIAN_POINT('',(-0.0142282879951791,0.00589354985695344,-0.0822524231438906));
#1033=CARTESIAN_POINT('',(-0.0154005879494957,1.14925430283463E-17,-0.0822524231438906));
#1034=CARTESIAN_POINT('',(-0.0142282879951791,-0.00589354985695347,-0.0822524231438906));
#1035=CARTESIAN_POINT('',(-0.0108898601733483,-0.0108898601733483,-0.0822524231438906));
#1036=CARTESIAN_POINT('',(-0.00589354985695347,-0.0142282879951791,-0.0822524231438906));
#1037=CARTESIAN_POINT('',(9.28348110190713E-19,-0.0154005879494957,-0.0822524231438906));
#1038=CARTESIAN_POINT('',(0.00589354985695347,-0.0142282879951791,-0.0822524231438906));
#1039=CARTESIAN_POINT('',(0.0108898601733483,-0.0108898601733483,-0.0822524231438906));
#1040=CARTESIAN_POINT('',(0.0142282879951791,-0.00589354985695347,-0.0822524231438906));
#1041=CARTESIAN_POINT('',(0.0154005879494957,-1.06560715231531E-18,-0.0822524231438906));
#1042=CARTESIAN_POINT('',(0.0142282879951791,0.00589354985695347,-0.0822524231438906));
#1043=CARTESIAN_POINT('',(0.0108898601733483,0.0108898601733483,-0.0822524231438906));
#1044=CARTESIAN_POINT('',(0.00589354985695347,0.0142282879951791,-0.0822524231438906));
#1045=CARTESIAN_POINT('',(4.69595065957784E-18,0.0154005879494957,-0.0822524231438906));
#1046=CARTESIAN_POINT('',(-0.00589354985695346,0.0142282879951791,-0.0822524231438906));
#1047=CARTESIAN_POINT('',(-0.0108898601733483,0.0108898601733483,-0.0822524231438906));
#1048=CARTESIAN_POINT('',(-0.0142282879951791,0.00589354985695344,-0.0822524231438906));
#1049=CARTESIAN_POINT('',(-0.0154005879494957,1.14925430283463E-17,-0.0822524231438906));
#1050=CARTESIAN_POINT('',(-0.0142282879951791,-0.00589354985695347,-0.0822524231438906));
#1051=CARTESIAN_POINT('',(-0.0160064803192611,0.00663010123409594,-0.0933652029521789));
#1052=CARTESIAN_POINT('',(-0.0173252894517019,1.16009632455949E-17,-0.0933652029521789));
#1053=CARTESIAN_POINT('',(-0.0160064803192611,-0.00663010123409597,-0.0933652029521789));
#1054=CARTESIAN_POINT('',(-0.0122508296573182,-0.0122508296573182,-0.0933652029521789));
#1055=CARTESIAN_POINT('',(-0.00663010123409597,-0.0160064803192611,-0.0933652029521789));
#1056=CARTESIAN_POINT('',(-5.50232602536394E-18,-0.0173252894517019,-0.0933652029521789));
#1057=CARTESIAN_POINT('',(0.00663010123409596,-0.0160064803192611,-0.0933652029521789));
#1058=CARTESIAN_POINT('',(0.0122508296573182,-0.0122508296573182,-0.0933652029521789));
#1059=CARTESIAN_POINT('',(0.0160064803192611,-0.00663010123409597,-0.0933652029521789));
#1060=CARTESIAN_POINT('',(0.0173252894517019,-2.26197501586301E-18,-0.0933652029521789));
#1061=CARTESIAN_POINT('',(0.0160064803192611,0.00663010123409596,-0.0933652029521789));
#1062=CARTESIAN_POINT('',(0.0122508296573182,0.0122508296573182,-0.0933652029521789));
#1063=CARTESIAN_POINT('',(0.00663010123409598,0.0160064803192611,-0.0933652029521789));
#1064=CARTESIAN_POINT('',(3.32036915323686E-18,0.0173252894517019,-0.0933652029521789));
#1065=CARTESIAN_POINT('',(-0.00663010123409597,0.0160064803192611,-0.0933652029521789));
#1066=CARTESIAN_POINT('',(-0.0122508296573182,0.0122508296573182,-0.0933652029521789));
#1067=CARTESIAN_POINT('',(-0.0160064803192611,0.00663010123409594,-0.0933652029521789));
#1068=CARTESIAN_POINT('',(-0.0173252894517019,1.16009632455949E-17,-0.0933652029521789));
#1069=CARTESIAN_POINT('',(-0.0160064803192611,-0.00663010123409597,-0.0933652029521789));
#1070=CARTESIAN_POINT('',(-0.020120642679368,0.00833424308145712,-0.105));
#1071=CARTESIAN_POINT('',(-0.0217784267010182,1.62630325872826E-17,-0.105));
#1072=CARTESIAN_POINT('',(-0.020120642679368,-0.00833424308145717,-0.105));
#1073=CARTESIAN_POINT('',(-0.0153996732038641,-0.0153996732038641,-0.105));
#1074=CARTESIAN_POINT('',(-0.00833424308145717,-0.020120642679368,-0.105));
#1075=CARTESIAN_POINT('',(-3.93700913883799E-18,-0.0217784267010182,-0.105));
#1076=CARTESIAN_POINT('',(0.00833424308145716,-0.020120642679368,-0.105));
#1077=CARTESIAN_POINT('',(0.0153996732038641,-0.0153996732038641,-0.105));
#1078=CARTESIAN_POINT('',(0.020120642679368,-0.00833424308145716,-0.105));
#1079=CARTESIAN_POINT('',(0.0217784267010182,-3.81013948520705E-18,-0.105));
#1080=CARTESIAN_POINT('',(0.020120642679368,0.00833424308145716,-0.105));
#1081=CARTESIAN_POINT('',(0.0153996732038641,0.0153996732038641,-0.105));
#1082=CARTESIAN_POINT('',(0.00833424308145717,0.020120642679368,-0.105));
#1083=CARTESIAN_POINT('',(4.97377746627725E-18,0.0217784267010182,-0.105));
#1084=CARTESIAN_POINT('',(-0.00833424308145716,0.020120642679368,-0.105));
#1085=CARTESIAN_POINT('',(-0.0153996732038641,0.0153996732038641,-0.105));
#1086=CARTESIAN_POINT('',(-0.020120642679368,0.00833424308145712,-0.105));
#1087=CARTESIAN_POINT('',(-0.0217784267010182,1.62630325872826E-17,-0.105));
#1088=CARTESIAN_POINT('',(-0.020120642679368,-0.00833424308145717,-0.105));
#1089=CARTESIAN_POINT('',(-0.00355422665863307,-0.0153950470236067,0.001));
#1090=CARTESIAN_POINT('',(-0.00355422665863307,-0.0153950470236067,0.));
#1091=CARTESIAN_POINT('',(-0.00260943223038883,-0.0113026927515087,0.));
#1092=CARTESIAN_POINT('',(-0.00260943223038883,-0.0113026927515087,0.001));
#1093=CARTESIAN_POINT('',(-0.00260943223038883,-0.0113026927515087,0.001));
#1094=CARTESIAN_POINT('',(-0.00355422665863307,-0.0153950470236067,0.001));
#1095=CARTESIAN_POINT('',(0.,-0.021,0.001));
#1096=CARTESIAN_POINT('',(0.,-0.021,0.001));
#1097=CARTESIAN_POINT('',(0.,-0.0116,0.001));
#1098=CARTESIAN_POINT('',(0.,-0.0116,0.001));
#1099=CARTESIAN_POINT('',(0.,-0.0116,0.));
#1100=CARTESIAN_POINT('',(0.,-0.021,0.));
#1101=CARTESIAN_POINT('',(0.,0.,0.001));
#1102=CARTESIAN_POINT('',(2.0569788298474E-17,1.196959198424E-16,0.001));
#1103=CARTESIAN_POINT('',(0.,0.,0.));
#1104=CARTESIAN_POINT('',(2.0569788298474E-17,1.196959198424E-16,0.));
#1105=CARTESIAN_POINT('',(2.0569788298474E-17,1.196959198424E-16,0.001));
#1106=MECHANICAL_DESIGN_GEOMETRIC_PRESENTATION_REPRESENTATION('',(#503),#1107);
#1107=(
GEOMETRIC_REPRESENTATION_CONTEXT(3)
GLOBAL_UNCERTAINTY_ASSIGNED_CONTEXT((#1108))
GLOBAL_UNIT_ASSIGNED_CONTEXT((#1111,#1110,#1109))
REPRESENTATION_CONTEXT('Insulator','TOP_LEVEL_ASSEMBLY_PART')
);
#1108=UNCERTAINTY_MEASURE_WITH_UNIT(LENGTH_MEASURE(2.E-05),#1111,'DISTANCE_ACCURACY_VALUE','Maximum Tolerance applied to model');
#1109=(
NAMED_UNIT(*)
SI_UNIT($,.STERADIAN.)
SOLID_ANGLE_UNIT()
);
#1110=(
NAMED_UNIT(*)
PLANE_ANGLE_UNIT()
SI_UNIT($,.RADIAN.)
);
#1111=(
LENGTH_UNIT()
NAMED_UNIT(*)
SI_UNIT($,.METRE.)
);
#1112=PRODUCT_DEFINITION_SHAPE('','',#1113);
#1113=PRODUCT_DEFINITION('','',#1115,#1114);
#1114=PRODUCT_DEFINITION_CONTEXT('',#1121,'design');
#1115=PRODUCT_DEFINITION_FORMATION_WITH_SPECIFIED_SOURCE('','',#1117,.NOT_KNOWN.);
#1116=PRODUCT_RELATED_PRODUCT_CATEGORY('','',(#1117));
#1117=PRODUCT('Insulator','Insulator','Insulator',(#1119));
#1118=PRODUCT_CATEGORY('','');
#1119=PRODUCT_CONTEXT('',#1121,'mechanical');
#1120=APPLICATION_PROTOCOL_DEFINITION('international standard','ap242_managed_model_based_3d_engineering',2020,#1121);
#1121=APPLICATION_CONTEXT('managed model based 3d engineering');
ENDSEC;
END-ISO-10303-21;
