ISO-10303-21;
HEADER;
/*Generated by software containing ST-Developer
 * from STEP Tools, Inc. (www.steptools.com) 
 */
/*OPTION: using custom renumber hook */
/*description */
/*implementation_level */
FILE_DESCRIPTION(('STEP AP242 Edition 2','STEP AP242 Edition 2''CAx-IF Rec.Pracs.---Representation and Presentation of Product Manufa
cturing Information (PMI)---4.0---2014-10-13','STEP AP242 Edition 2''CAx-IF Rec.Pracs.---Representation and Presentation of Product Manufa
cturing Information (PMI)---4.0---2014-10-13''CAx-IF Rec.Pracs.---3D Tessellated Geometry---0.4---2014-09-14','STEP AP242 Edition 2''CAx-IF Rec.Pracs.---Representation and Presentation of Product Manufa
cturing Information (PMI)---4.0---2014-10-13''CAx-IF Rec.Pracs.---3D Tessellated Geometry---0.4---2014-09-14''2;1','STEP AP242 Edition 2''CAx-IF Rec.Pracs.---Representation and Presentation of Product Manufa
cturing Information (PMI)---4.0---2014-10-13''CAx-IF Rec.Pracs.---3D Tessellated Geometry---0.4---2014-09-14''2;1''CAx-IF Rec.Pracs.---User Defined Attributes---1.5---2016-08-15'),'2;1');
/*name */
/*time_stamp */
/*author */
/*organization */
/*preprocessor_version */
/*originating_system */
/*authorisation */
FILE_NAME('/vol/tmp/translate-6258540724689596554/M1 - Insulator.step','2026-02-26T20:22:13',(''),(''),'ST-DEVELOPER v20','ONSHAPE BY PTC INC, 1.211','  ');
FILE_SCHEMA(('AP242_MANAGED_MODEL_BASED_3D_ENGINEERING_MIM_LF { 1 0 10303 442 3 1 4 }'));
ENDSEC;
DATA;
#10=SHAPE_REPRESENTATION_RELATIONSHIP('','',#993,#11);
#11=ADVANCED_BREP_SHAPE_REPRESENTATION('',(#991),#1699);
#12=PLANE('',#1039);
#13=PLANE('',#1042);
#14=PLANE('',#1046);
#15=PLANE('',#1047);
#16=PLANE('',#1048);
#17=PLANE('',#1050);
#18=PLANE('',#1051);
#19=PLANE('',#1056);
#20=PLANE('',#1066);
#21=PLANE('',#1067);
#22=PLANE('',#1077);
#23=PLANE('',#1078);
#24=PLANE('',#1084);
#25=PLANE('',#1085);
#26=PLANE('',#1087);
#27=PLANE('',#1088);
#28=PLANE('',#1089);
#29=PLANE('',#1090);
#30=PLANE('',#1091);
#31=PLANE('',#1092);
#32=PLANE('',#1093);
#33=PLANE('',#1094);
#34=B_SPLINE_CURVE_WITH_KNOTS('',3,(#1394,#1395,#1396,#1397),.UNSPECIFIED.,.F.,.F.,(4,4),(7.62298191160457E-07,0.00254815083053115),.UNSPECIFIED.);
#35=B_SPLINE_CURVE_WITH_KNOTS('',3,(#1410,#1411,#1412,#1413),.UNSPECIFIED.,.F.,.F.,(4,4),(3.10600117111235E-07,0.000781335567707714),.UNSPECIFIED.);
#36=B_SPLINE_CURVE_WITH_KNOTS('',3,(#1424,#1425,#1426,#1427),.UNSPECIFIED.,.F.,.F.,(4,4),(7.62298191161412E-07,0.00254815083053115),.UNSPECIFIED.);
#37=B_SPLINE_CURVE_WITH_KNOTS('',3,(#1429,#1430,#1431,#1432),.UNSPECIFIED.,.F.,.F.,(4,4),(3.10600117111235E-07,0.000781335567707717),.UNSPECIFIED.);
#38=B_SPLINE_CURVE_WITH_KNOTS('',3,(#1649,#1650,#1651,#1652),.UNSPECIFIED.,.F.,.F.,(4,4),(3.10600117108616E-07,0.000781335567707711),.UNSPECIFIED.);
#39=B_SPLINE_CURVE_WITH_KNOTS('',3,(#1654,#1655,#1656,#1657),.UNSPECIFIED.,.F.,.F.,(4,4),(0.000915707525668204,0.00346309605800817),.UNSPECIFIED.);
#40=B_SPLINE_CURVE_WITH_KNOTS('',3,(#1664,#1665,#1666,#1667),.UNSPECIFIED.,.F.,.F.,(4,4),(0.000915707525668205,0.00346309605800818),.UNSPECIFIED.);
#41=B_SPLINE_CURVE_WITH_KNOTS('',3,(#1670,#1671,#1672,#1673),.UNSPECIFIED.,.F.,.F.,(4,4),(3.10600117109598E-07,0.000781335567707711),.UNSPECIFIED.);
#42=CONICAL_SURFACE('',#998,0.0111,0.785398163397448);
#43=CONICAL_SURFACE('',#1004,0.0111,0.785398163397448);
#44=CONICAL_SURFACE('',#1013,0.009,0.785398163397448);
#45=CONICAL_SURFACE('',#1025,0.01,0.785398163397448);
#46=CONICAL_SURFACE('',#1029,0.0115,0.785398163397446);
#47=CONICAL_SURFACE('',#1052,0.01,0.785398163397449);
#48=CONICAL_SURFACE('',#1054,0.0115,0.785398163397446);
#49=CONICAL_SURFACE('',#1059,0.01125,0.785398163397446);
#50=CONICAL_SURFACE('',#1063,0.01025,0.785398163397448);
#51=CONICAL_SURFACE('',#1070,0.01025,0.785398163397448);
#52=CONICAL_SURFACE('',#1074,0.01125,0.785398163397446);
#53=CONICAL_SURFACE('',#1079,0.0111,0.785398163397448);
#54=CONICAL_SURFACE('',#1081,0.0111,0.785398163397448);
#55=CIRCLE('',#996,0.0111);
#56=CIRCLE('',#997,0.0111);
#57=CIRCLE('',#999,0.0111);
#58=CIRCLE('',#1000,0.0091);
#59=CIRCLE('',#1001,0.0111);
#60=CIRCLE('',#1003,0.0111);
#61=CIRCLE('',#1005,0.0111);
#62=CIRCLE('',#1006,0.0091);
#63=CIRCLE('',#1008,0.0091);
#64=CIRCLE('',#1009,0.0091);
#65=CIRCLE('',#1010,0.0091);
#66=CIRCLE('',#1011,0.0091);
#67=CIRCLE('',#1012,0.0091);
#68=CIRCLE('',#1014,0.0125);
#69=CIRCLE('',#1015,0.0111);
#70=CIRCLE('',#1016,0.0111);
#71=CIRCLE('',#1018,0.01);
#72=CIRCLE('',#1019,0.01);
#73=CIRCLE('',#1020,0.01);
#74=CIRCLE('',#1022,0.01);
#75=CIRCLE('',#1023,0.0100000000000019);
#76=CIRCLE('',#1024,0.01);
#77=CIRCLE('',#1026,0.0115);
#78=CIRCLE('',#1027,0.01);
#79=CIRCLE('',#1028,0.01125);
#80=CIRCLE('',#1030,0.01125);
#81=CIRCLE('',#1031,0.01);
#82=CIRCLE('',#1032,0.0115);
#83=CIRCLE('',#1034,0.0115);
#84=CIRCLE('',#1035,0.0115);
#85=CIRCLE('',#1036,0.0115);
#86=CIRCLE('',#1037,0.0115);
#87=CIRCLE('',#1038,0.0115);
#88=CIRCLE('',#1041,0.0125);
#89=CIRCLE('',#1044,0.01);
#90=CIRCLE('',#1045,0.01);
#91=CIRCLE('',#1053,0.01125);
#92=CIRCLE('',#1055,0.01125);
#93=CIRCLE('',#1058,0.01125);
#94=CIRCLE('',#1060,0.01025);
#95=CIRCLE('',#1062,0.01025);
#96=CIRCLE('',#1064,0.01125);
#97=CIRCLE('',#1069,0.01125);
#98=CIRCLE('',#1071,0.01025);
#99=CIRCLE('',#1073,0.01025);
#100=CIRCLE('',#1075,0.01125);
#101=CIRCLE('',#1080,0.0111);
#102=CIRCLE('',#1082,0.0111);
#103=ORIENTED_EDGE('',*,*,#387,.F.);
#104=ORIENTED_EDGE('',*,*,#388,.F.);
#105=ORIENTED_EDGE('',*,*,#389,.F.);
#106=ORIENTED_EDGE('',*,*,#390,.T.);
#107=ORIENTED_EDGE('',*,*,#391,.F.);
#108=ORIENTED_EDGE('',*,*,#392,.T.);
#109=ORIENTED_EDGE('',*,*,#393,.T.);
#110=ORIENTED_EDGE('',*,*,#394,.F.);
#111=ORIENTED_EDGE('',*,*,#395,.F.);
#112=ORIENTED_EDGE('',*,*,#396,.T.);
#113=ORIENTED_EDGE('',*,*,#397,.T.);
#114=ORIENTED_EDGE('',*,*,#398,.F.);
#115=ORIENTED_EDGE('',*,*,#396,.F.);
#116=ORIENTED_EDGE('',*,*,#399,.F.);
#117=ORIENTED_EDGE('',*,*,#400,.T.);
#118=ORIENTED_EDGE('',*,*,#401,.F.);
#119=ORIENTED_EDGE('',*,*,#402,.T.);
#120=ORIENTED_EDGE('',*,*,#403,.F.);
#121=ORIENTED_EDGE('',*,*,#400,.F.);
#122=ORIENTED_EDGE('',*,*,#404,.T.);
#123=ORIENTED_EDGE('',*,*,#405,.T.);
#124=ORIENTED_EDGE('',*,*,#406,.F.);
#125=ORIENTED_EDGE('',*,*,#407,.F.);
#126=ORIENTED_EDGE('',*,*,#408,.T.);
#127=ORIENTED_EDGE('',*,*,#409,.F.);
#128=ORIENTED_EDGE('',*,*,#410,.F.);
#129=ORIENTED_EDGE('',*,*,#405,.F.);
#130=ORIENTED_EDGE('',*,*,#411,.F.);
#131=ORIENTED_EDGE('',*,*,#394,.T.);
#132=ORIENTED_EDGE('',*,*,#412,.T.);
#133=ORIENTED_EDGE('',*,*,#413,.F.);
#134=ORIENTED_EDGE('',*,*,#414,.F.);
#135=ORIENTED_EDGE('',*,*,#415,.F.);
#136=ORIENTED_EDGE('',*,*,#416,.F.);
#137=ORIENTED_EDGE('',*,*,#417,.T.);
#138=ORIENTED_EDGE('',*,*,#418,.F.);
#139=ORIENTED_EDGE('',*,*,#419,.F.);
#140=ORIENTED_EDGE('',*,*,#420,.T.);
#141=ORIENTED_EDGE('',*,*,#421,.T.);
#142=ORIENTED_EDGE('',*,*,#413,.T.);
#143=ORIENTED_EDGE('',*,*,#422,.F.);
#144=ORIENTED_EDGE('',*,*,#423,.T.);
#145=ORIENTED_EDGE('',*,*,#424,.T.);
#146=ORIENTED_EDGE('',*,*,#409,.T.);
#147=ORIENTED_EDGE('',*,*,#425,.F.);
#148=ORIENTED_EDGE('',*,*,#426,.T.);
#149=ORIENTED_EDGE('',*,*,#427,.T.);
#150=ORIENTED_EDGE('',*,*,#428,.T.);
#151=ORIENTED_EDGE('',*,*,#429,.F.);
#152=ORIENTED_EDGE('',*,*,#430,.F.);
#153=ORIENTED_EDGE('',*,*,#431,.F.);
#154=ORIENTED_EDGE('',*,*,#432,.T.);
#155=ORIENTED_EDGE('',*,*,#433,.T.);
#156=ORIENTED_EDGE('',*,*,#434,.T.);
#157=ORIENTED_EDGE('',*,*,#435,.F.);
#158=ORIENTED_EDGE('',*,*,#436,.F.);
#159=ORIENTED_EDGE('',*,*,#437,.F.);
#160=ORIENTED_EDGE('',*,*,#436,.T.);
#161=ORIENTED_EDGE('',*,*,#438,.F.);
#162=ORIENTED_EDGE('',*,*,#439,.F.);
#163=ORIENTED_EDGE('',*,*,#440,.F.);
#164=ORIENTED_EDGE('',*,*,#441,.T.);
#165=ORIENTED_EDGE('',*,*,#442,.T.);
#166=ORIENTED_EDGE('',*,*,#443,.F.);
#167=ORIENTED_EDGE('',*,*,#444,.F.);
#168=ORIENTED_EDGE('',*,*,#445,.T.);
#169=ORIENTED_EDGE('',*,*,#446,.T.);
#170=ORIENTED_EDGE('',*,*,#447,.F.);
#171=ORIENTED_EDGE('',*,*,#448,.F.);
#172=ORIENTED_EDGE('',*,*,#449,.T.);
#173=ORIENTED_EDGE('',*,*,#450,.T.);
#174=ORIENTED_EDGE('',*,*,#432,.F.);
#175=ORIENTED_EDGE('',*,*,#451,.F.);
#176=ORIENTED_EDGE('',*,*,#452,.T.);
#177=ORIENTED_EDGE('',*,*,#453,.T.);
#178=ORIENTED_EDGE('',*,*,#454,.T.);
#179=ORIENTED_EDGE('',*,*,#455,.F.);
#180=ORIENTED_EDGE('',*,*,#449,.F.);
#181=ORIENTED_EDGE('',*,*,#456,.F.);
#182=ORIENTED_EDGE('',*,*,#439,.T.);
#183=ORIENTED_EDGE('',*,*,#457,.T.);
#184=ORIENTED_EDGE('',*,*,#458,.T.);
#185=ORIENTED_EDGE('',*,*,#459,.F.);
#186=ORIENTED_EDGE('',*,*,#460,.F.);
#187=ORIENTED_EDGE('',*,*,#461,.F.);
#188=ORIENTED_EDGE('',*,*,#462,.F.);
#189=ORIENTED_EDGE('',*,*,#434,.F.);
#190=ORIENTED_EDGE('',*,*,#463,.F.);
#191=ORIENTED_EDGE('',*,*,#454,.F.);
#192=ORIENTED_EDGE('',*,*,#464,.F.);
#193=ORIENTED_EDGE('',*,*,#428,.F.);
#194=ORIENTED_EDGE('',*,*,#465,.T.);
#195=ORIENTED_EDGE('',*,*,#458,.F.);
#196=ORIENTED_EDGE('',*,*,#407,.T.);
#197=ORIENTED_EDGE('',*,*,#418,.T.);
#198=ORIENTED_EDGE('',*,*,#466,.T.);
#199=ORIENTED_EDGE('',*,*,#461,.T.);
#200=ORIENTED_EDGE('',*,*,#466,.F.);
#201=ORIENTED_EDGE('',*,*,#467,.T.);
#202=ORIENTED_EDGE('',*,*,#468,.T.);
#203=ORIENTED_EDGE('',*,*,#469,.F.);
#204=ORIENTED_EDGE('',*,*,#470,.F.);
#205=ORIENTED_EDGE('',*,*,#459,.T.);
#206=ORIENTED_EDGE('',*,*,#465,.F.);
#207=ORIENTED_EDGE('',*,*,#427,.F.);
#208=ORIENTED_EDGE('',*,*,#471,.F.);
#209=ORIENTED_EDGE('',*,*,#453,.F.);
#210=ORIENTED_EDGE('',*,*,#472,.T.);
#211=ORIENTED_EDGE('',*,*,#429,.T.);
#212=ORIENTED_EDGE('',*,*,#464,.T.);
#213=ORIENTED_EDGE('',*,*,#457,.F.);
#214=ORIENTED_EDGE('',*,*,#438,.T.);
#215=ORIENTED_EDGE('',*,*,#435,.T.);
#216=ORIENTED_EDGE('',*,*,#462,.T.);
#217=ORIENTED_EDGE('',*,*,#447,.T.);
#218=ORIENTED_EDGE('',*,*,#473,.T.);
#219=ORIENTED_EDGE('',*,*,#441,.F.);
#220=ORIENTED_EDGE('',*,*,#474,.F.);
#221=ORIENTED_EDGE('',*,*,#463,.T.);
#222=ORIENTED_EDGE('',*,*,#433,.F.);
#223=ORIENTED_EDGE('',*,*,#450,.F.);
#224=ORIENTED_EDGE('',*,*,#455,.T.);
#225=ORIENTED_EDGE('',*,*,#456,.T.);
#226=ORIENTED_EDGE('',*,*,#448,.T.);
#227=ORIENTED_EDGE('',*,*,#474,.T.);
#228=ORIENTED_EDGE('',*,*,#440,.T.);
#229=ORIENTED_EDGE('',*,*,#469,.T.);
#230=ORIENTED_EDGE('',*,*,#475,.T.);
#231=ORIENTED_EDGE('',*,*,#476,.F.);
#232=ORIENTED_EDGE('',*,*,#477,.F.);
#233=ORIENTED_EDGE('',*,*,#430,.T.);
#234=ORIENTED_EDGE('',*,*,#472,.F.);
#235=ORIENTED_EDGE('',*,*,#452,.F.);
#236=ORIENTED_EDGE('',*,*,#478,.F.);
#237=ORIENTED_EDGE('',*,*,#479,.T.);
#238=ORIENTED_EDGE('',*,*,#480,.T.);
#239=ORIENTED_EDGE('',*,*,#467,.F.);
#240=ORIENTED_EDGE('',*,*,#481,.F.);
#241=ORIENTED_EDGE('',*,*,#460,.T.);
#242=ORIENTED_EDGE('',*,*,#471,.T.);
#243=ORIENTED_EDGE('',*,*,#426,.F.);
#244=ORIENTED_EDGE('',*,*,#482,.F.);
#245=ORIENTED_EDGE('',*,*,#470,.T.);
#246=ORIENTED_EDGE('',*,*,#478,.T.);
#247=ORIENTED_EDGE('',*,*,#451,.T.);
#248=ORIENTED_EDGE('',*,*,#481,.T.);
#249=ORIENTED_EDGE('',*,*,#483,.T.);
#250=ORIENTED_EDGE('',*,*,#484,.F.);
#251=ORIENTED_EDGE('',*,*,#479,.F.);
#252=ORIENTED_EDGE('',*,*,#485,.T.);
#253=ORIENTED_EDGE('',*,*,#486,.T.);
#254=ORIENTED_EDGE('',*,*,#487,.F.);
#255=ORIENTED_EDGE('',*,*,#483,.F.);
#256=ORIENTED_EDGE('',*,*,#488,.T.);
#257=ORIENTED_EDGE('',*,*,#489,.T.);
#258=ORIENTED_EDGE('',*,*,#490,.F.);
#259=ORIENTED_EDGE('',*,*,#486,.F.);
#260=ORIENTED_EDGE('',*,*,#491,.T.);
#261=ORIENTED_EDGE('',*,*,#492,.T.);
#262=ORIENTED_EDGE('',*,*,#493,.F.);
#263=ORIENTED_EDGE('',*,*,#489,.F.);
#264=ORIENTED_EDGE('',*,*,#494,.T.);
#265=ORIENTED_EDGE('',*,*,#495,.T.);
#266=ORIENTED_EDGE('',*,*,#476,.T.);
#267=ORIENTED_EDGE('',*,*,#496,.F.);
#268=ORIENTED_EDGE('',*,*,#492,.F.);
#269=ORIENTED_EDGE('',*,*,#477,.T.);
#270=ORIENTED_EDGE('',*,*,#495,.F.);
#271=ORIENTED_EDGE('',*,*,#494,.F.);
#272=ORIENTED_EDGE('',*,*,#491,.F.);
#273=ORIENTED_EDGE('',*,*,#488,.F.);
#274=ORIENTED_EDGE('',*,*,#485,.F.);
#275=ORIENTED_EDGE('',*,*,#482,.T.);
#276=ORIENTED_EDGE('',*,*,#425,.T.);
#277=ORIENTED_EDGE('',*,*,#475,.F.);
#278=ORIENTED_EDGE('',*,*,#468,.F.);
#279=ORIENTED_EDGE('',*,*,#480,.F.);
#280=ORIENTED_EDGE('',*,*,#484,.T.);
#281=ORIENTED_EDGE('',*,*,#487,.T.);
#282=ORIENTED_EDGE('',*,*,#490,.T.);
#283=ORIENTED_EDGE('',*,*,#493,.T.);
#284=ORIENTED_EDGE('',*,*,#496,.T.);
#285=ORIENTED_EDGE('',*,*,#497,.F.);
#286=ORIENTED_EDGE('',*,*,#498,.T.);
#287=ORIENTED_EDGE('',*,*,#443,.T.);
#288=ORIENTED_EDGE('',*,*,#499,.F.);
#289=ORIENTED_EDGE('',*,*,#500,.F.);
#290=ORIENTED_EDGE('',*,*,#501,.T.);
#291=ORIENTED_EDGE('',*,*,#497,.T.);
#292=ORIENTED_EDGE('',*,*,#502,.F.);
#293=ORIENTED_EDGE('',*,*,#503,.F.);
#294=ORIENTED_EDGE('',*,*,#504,.T.);
#295=ORIENTED_EDGE('',*,*,#500,.T.);
#296=ORIENTED_EDGE('',*,*,#505,.F.);
#297=ORIENTED_EDGE('',*,*,#506,.F.);
#298=ORIENTED_EDGE('',*,*,#507,.T.);
#299=ORIENTED_EDGE('',*,*,#503,.T.);
#300=ORIENTED_EDGE('',*,*,#508,.F.);
#301=ORIENTED_EDGE('',*,*,#445,.F.);
#302=ORIENTED_EDGE('',*,*,#509,.T.);
#303=ORIENTED_EDGE('',*,*,#506,.T.);
#304=ORIENTED_EDGE('',*,*,#510,.F.);
#305=ORIENTED_EDGE('',*,*,#431,.T.);
#306=ORIENTED_EDGE('',*,*,#437,.T.);
#307=ORIENTED_EDGE('',*,*,#498,.F.);
#308=ORIENTED_EDGE('',*,*,#501,.F.);
#309=ORIENTED_EDGE('',*,*,#504,.F.);
#310=ORIENTED_EDGE('',*,*,#507,.F.);
#311=ORIENTED_EDGE('',*,*,#509,.F.);
#312=ORIENTED_EDGE('',*,*,#444,.T.);
#313=ORIENTED_EDGE('',*,*,#473,.F.);
#314=ORIENTED_EDGE('',*,*,#446,.F.);
#315=ORIENTED_EDGE('',*,*,#510,.T.);
#316=ORIENTED_EDGE('',*,*,#508,.T.);
#317=ORIENTED_EDGE('',*,*,#505,.T.);
#318=ORIENTED_EDGE('',*,*,#502,.T.);
#319=ORIENTED_EDGE('',*,*,#499,.T.);
#320=ORIENTED_EDGE('',*,*,#442,.F.);
#321=ORIENTED_EDGE('',*,*,#511,.T.);
#322=ORIENTED_EDGE('',*,*,#512,.T.);
#323=ORIENTED_EDGE('',*,*,#513,.T.);
#324=ORIENTED_EDGE('',*,*,#514,.T.);
#325=ORIENTED_EDGE('',*,*,#417,.F.);
#326=ORIENTED_EDGE('',*,*,#515,.F.);
#327=ORIENTED_EDGE('',*,*,#388,.T.);
#328=ORIENTED_EDGE('',*,*,#516,.F.);
#329=ORIENTED_EDGE('',*,*,#517,.F.);
#330=ORIENTED_EDGE('',*,*,#390,.F.);
#331=ORIENTED_EDGE('',*,*,#518,.T.);
#332=ORIENTED_EDGE('',*,*,#415,.T.);
#333=ORIENTED_EDGE('',*,*,#519,.F.);
#334=ORIENTED_EDGE('',*,*,#520,.F.);
#335=ORIENTED_EDGE('',*,*,#513,.F.);
#336=ORIENTED_EDGE('',*,*,#521,.T.);
#337=ORIENTED_EDGE('',*,*,#520,.T.);
#338=ORIENTED_EDGE('',*,*,#522,.T.);
#339=ORIENTED_EDGE('',*,*,#420,.F.);
#340=ORIENTED_EDGE('',*,*,#523,.T.);
#341=ORIENTED_EDGE('',*,*,#515,.T.);
#342=ORIENTED_EDGE('',*,*,#416,.T.);
#343=ORIENTED_EDGE('',*,*,#518,.F.);
#344=ORIENTED_EDGE('',*,*,#389,.T.);
#345=ORIENTED_EDGE('',*,*,#419,.T.);
#346=ORIENTED_EDGE('',*,*,#408,.F.);
#347=ORIENTED_EDGE('',*,*,#514,.F.);
#348=ORIENTED_EDGE('',*,*,#523,.F.);
#349=ORIENTED_EDGE('',*,*,#392,.F.);
#350=ORIENTED_EDGE('',*,*,#524,.T.);
#351=ORIENTED_EDGE('',*,*,#401,.T.);
#352=ORIENTED_EDGE('',*,*,#525,.T.);
#353=ORIENTED_EDGE('',*,*,#423,.F.);
#354=ORIENTED_EDGE('',*,*,#526,.T.);
#355=ORIENTED_EDGE('',*,*,#411,.T.);
#356=ORIENTED_EDGE('',*,*,#404,.F.);
#357=ORIENTED_EDGE('',*,*,#399,.T.);
#358=ORIENTED_EDGE('',*,*,#395,.T.);
#359=ORIENTED_EDGE('',*,*,#393,.F.);
#360=ORIENTED_EDGE('',*,*,#526,.F.);
#361=ORIENTED_EDGE('',*,*,#422,.T.);
#362=ORIENTED_EDGE('',*,*,#412,.F.);
#363=ORIENTED_EDGE('',*,*,#525,.F.);
#364=ORIENTED_EDGE('',*,*,#406,.T.);
#365=ORIENTED_EDGE('',*,*,#410,.T.);
#366=ORIENTED_EDGE('',*,*,#424,.F.);
#367=ORIENTED_EDGE('',*,*,#522,.F.);
#368=ORIENTED_EDGE('',*,*,#519,.T.);
#369=ORIENTED_EDGE('',*,*,#414,.T.);
#370=ORIENTED_EDGE('',*,*,#421,.F.);
#371=ORIENTED_EDGE('',*,*,#524,.F.);
#372=ORIENTED_EDGE('',*,*,#391,.T.);
#373=ORIENTED_EDGE('',*,*,#527,.T.);
#374=ORIENTED_EDGE('',*,*,#402,.F.);
#375=ORIENTED_EDGE('',*,*,#397,.F.);
#376=ORIENTED_EDGE('',*,*,#398,.T.);
#377=ORIENTED_EDGE('',*,*,#403,.T.);
#378=ORIENTED_EDGE('',*,*,#527,.F.);
#379=ORIENTED_EDGE('',*,*,#512,.F.);
#380=ORIENTED_EDGE('',*,*,#528,.T.);
#381=ORIENTED_EDGE('',*,*,#516,.T.);
#382=ORIENTED_EDGE('',*,*,#521,.F.);
#383=ORIENTED_EDGE('',*,*,#511,.F.);
#384=ORIENTED_EDGE('',*,*,#387,.T.);
#385=ORIENTED_EDGE('',*,*,#517,.T.);
#386=ORIENTED_EDGE('',*,*,#528,.F.);
#387=EDGE_CURVE('',#529,#530,#625,.T.);
#388=EDGE_CURVE('',#531,#529,#55,.T.);
#389=EDGE_CURVE('',#532,#531,#626,.T.);
#390=EDGE_CURVE('',#532,#530,#56,.T.);
#391=EDGE_CURVE('',#533,#534,#34,.T.);
#392=EDGE_CURVE('',#533,#535,#57,.T.);
#393=EDGE_CURVE('',#535,#536,#627,.T.);
#394=EDGE_CURVE('',#537,#536,#58,.T.);
#395=EDGE_CURVE('',#538,#537,#628,.T.);
#396=EDGE_CURVE('',#538,#539,#59,.T.);
#397=EDGE_CURVE('',#539,#534,#35,.T.);
#398=EDGE_CURVE('',#539,#540,#629,.T.);
#399=EDGE_CURVE('',#541,#538,#630,.T.);
#400=EDGE_CURVE('',#541,#540,#60,.T.);
#401=EDGE_CURVE('',#542,#543,#61,.T.);
#402=EDGE_CURVE('',#542,#544,#36,.T.);
#403=EDGE_CURVE('',#540,#544,#37,.T.);
#404=EDGE_CURVE('',#541,#545,#631,.T.);
#405=EDGE_CURVE('',#545,#546,#62,.T.);
#406=EDGE_CURVE('',#543,#546,#632,.T.);
#407=EDGE_CURVE('',#547,#547,#63,.T.);
#408=EDGE_CURVE('',#548,#549,#633,.T.);
#409=EDGE_CURVE('',#550,#549,#64,.F.);
#410=EDGE_CURVE('',#546,#550,#634,.T.);
#411=EDGE_CURVE('',#537,#545,#635,.T.);
#412=EDGE_CURVE('',#536,#551,#636,.T.);
#413=EDGE_CURVE('',#552,#551,#65,.F.);
#414=EDGE_CURVE('',#553,#552,#637,.T.);
#415=EDGE_CURVE('',#554,#553,#66,.T.);
#416=EDGE_CURVE('',#555,#554,#638,.T.);
#417=EDGE_CURVE('',#555,#548,#67,.T.);
#418=EDGE_CURVE('',#556,#556,#68,.T.);
#419=EDGE_CURVE('',#557,#549,#639,.F.);
#420=EDGE_CURVE('',#557,#558,#69,.F.);
#421=EDGE_CURVE('',#558,#552,#640,.F.);
#422=EDGE_CURVE('',#559,#551,#641,.F.);
#423=EDGE_CURVE('',#559,#560,#70,.F.);
#424=EDGE_CURVE('',#560,#550,#642,.F.);
#425=EDGE_CURVE('',#561,#562,#643,.T.);
#426=EDGE_CURVE('',#561,#563,#71,.T.);
#427=EDGE_CURVE('',#563,#564,#644,.T.);
#428=EDGE_CURVE('',#564,#565,#72,.T.);
#429=EDGE_CURVE('',#566,#565,#645,.T.);
#430=EDGE_CURVE('',#562,#566,#73,.T.);
#431=EDGE_CURVE('',#567,#568,#646,.T.);
#432=EDGE_CURVE('',#567,#569,#74,.T.);
#433=EDGE_CURVE('',#569,#570,#647,.T.);
#434=EDGE_CURVE('',#570,#571,#75,.T.);
#435=EDGE_CURVE('',#572,#571,#648,.T.);
#436=EDGE_CURVE('',#568,#572,#76,.T.);
#437=EDGE_CURVE('',#568,#573,#649,.T.);
#438=EDGE_CURVE('',#574,#572,#650,.F.);
#439=EDGE_CURVE('',#575,#574,#77,.T.);
#440=EDGE_CURVE('',#576,#575,#651,.T.);
#441=EDGE_CURVE('',#576,#577,#78,.T.);
#442=EDGE_CURVE('',#577,#578,#652,.T.);
#443=EDGE_CURVE('',#573,#578,#79,.T.);
#444=EDGE_CURVE('',#579,#567,#653,.T.);
#445=EDGE_CURVE('',#579,#580,#80,.T.);
#446=EDGE_CURVE('',#580,#581,#654,.T.);
#447=EDGE_CURVE('',#582,#581,#81,.T.);
#448=EDGE_CURVE('',#583,#582,#655,.T.);
#449=EDGE_CURVE('',#583,#584,#82,.T.);
#450=EDGE_CURVE('',#584,#569,#656,.T.);
#451=EDGE_CURVE('',#585,#586,#657,.T.);
#452=EDGE_CURVE('',#585,#587,#83,.T.);
#453=EDGE_CURVE('',#587,#588,#658,.T.);
#454=EDGE_CURVE('',#588,#589,#84,.T.);
#455=EDGE_CURVE('',#584,#589,#659,.T.);
#456=EDGE_CURVE('',#575,#583,#660,.T.);
#457=EDGE_CURVE('',#574,#590,#661,.T.);
#458=EDGE_CURVE('',#590,#591,#85,.T.);
#459=EDGE_CURVE('',#592,#591,#662,.T.);
#460=EDGE_CURVE('',#586,#592,#86,.T.);
#461=EDGE_CURVE('',#593,#593,#87,.T.);
#462=EDGE_CURVE('',#571,#590,#663,.T.);
#463=EDGE_CURVE('',#589,#570,#664,.T.);
#464=EDGE_CURVE('',#565,#588,#665,.T.);
#465=EDGE_CURVE('',#564,#591,#666,.T.);
#466=EDGE_CURVE('',#594,#594,#88,.T.);
#467=EDGE_CURVE('',#595,#596,#89,.T.);
#468=EDGE_CURVE('',#596,#597,#667,.T.);
#469=EDGE_CURVE('',#598,#597,#90,.T.);
#470=EDGE_CURVE('',#595,#598,#668,.T.);
#471=EDGE_CURVE('',#592,#563,#669,.T.);
#472=EDGE_CURVE('',#587,#566,#670,.F.);
#473=EDGE_CURVE('',#581,#577,#671,.T.);
#474=EDGE_CURVE('',#582,#576,#672,.T.);
#475=EDGE_CURVE('',#597,#599,#673,.T.);
#476=EDGE_CURVE('',#600,#599,#91,.T.);
#477=EDGE_CURVE('',#562,#600,#674,.T.);
#478=EDGE_CURVE('',#598,#585,#675,.T.);
#479=EDGE_CURVE('',#601,#602,#92,.T.);
#480=EDGE_CURVE('',#602,#596,#676,.T.);
#481=EDGE_CURVE('',#586,#595,#677,.T.);
#482=EDGE_CURVE('',#601,#561,#678,.T.);
#483=EDGE_CURVE('',#603,#604,#93,.T.);
#484=EDGE_CURVE('',#602,#604,#679,.T.);
#485=EDGE_CURVE('',#601,#603,#680,.T.);
#486=EDGE_CURVE('',#605,#606,#94,.T.);
#487=EDGE_CURVE('',#604,#606,#681,.T.);
#488=EDGE_CURVE('',#603,#605,#682,.T.);
#489=EDGE_CURVE('',#607,#608,#95,.T.);
#490=EDGE_CURVE('',#606,#608,#683,.T.);
#491=EDGE_CURVE('',#605,#607,#684,.T.);
#492=EDGE_CURVE('',#609,#610,#96,.T.);
#493=EDGE_CURVE('',#608,#610,#685,.T.);
#494=EDGE_CURVE('',#607,#609,#686,.T.);
#495=EDGE_CURVE('',#609,#600,#687,.T.);
#496=EDGE_CURVE('',#610,#599,#688,.T.);
#497=EDGE_CURVE('',#611,#612,#97,.T.);
#498=EDGE_CURVE('',#611,#573,#689,.T.);
#499=EDGE_CURVE('',#612,#578,#690,.T.);
#500=EDGE_CURVE('',#613,#614,#98,.T.);
#501=EDGE_CURVE('',#613,#611,#691,.T.);
#502=EDGE_CURVE('',#614,#612,#692,.T.);
#503=EDGE_CURVE('',#615,#616,#99,.T.);
#504=EDGE_CURVE('',#615,#613,#693,.T.);
#505=EDGE_CURVE('',#616,#614,#694,.T.);
#506=EDGE_CURVE('',#617,#618,#100,.T.);
#507=EDGE_CURVE('',#617,#615,#695,.T.);
#508=EDGE_CURVE('',#618,#616,#696,.T.);
#509=EDGE_CURVE('',#579,#617,#697,.T.);
#510=EDGE_CURVE('',#580,#618,#698,.T.);
#511=EDGE_CURVE('',#529,#619,#38,.T.);
#512=EDGE_CURVE('',#619,#620,#39,.T.);
#513=EDGE_CURVE('',#620,#621,#101,.T.);
#514=EDGE_CURVE('',#621,#548,#699,.T.);
#515=EDGE_CURVE('',#531,#555,#700,.T.);
#516=EDGE_CURVE('',#622,#623,#40,.T.);
#517=EDGE_CURVE('',#530,#622,#41,.T.);
#518=EDGE_CURVE('',#532,#554,#701,.T.);
#519=EDGE_CURVE('',#624,#553,#702,.T.);
#520=EDGE_CURVE('',#623,#624,#102,.T.);
#521=EDGE_CURVE('',#620,#623,#703,.T.);
#522=EDGE_CURVE('',#624,#558,#704,.T.);
#523=EDGE_CURVE('',#557,#621,#705,.T.);
#524=EDGE_CURVE('',#533,#542,#706,.T.);
#525=EDGE_CURVE('',#543,#560,#707,.T.);
#526=EDGE_CURVE('',#559,#535,#708,.T.);
#527=EDGE_CURVE('',#534,#544,#709,.T.);
#528=EDGE_CURVE('',#619,#622,#710,.T.);
#529=VERTEX_POINT('',#1386);
#530=VERTEX_POINT('',#1387);
#531=VERTEX_POINT('',#1389);
#532=VERTEX_POINT('',#1391);
#533=VERTEX_POINT('',#1398);
#534=VERTEX_POINT('',#1399);
#535=VERTEX_POINT('',#1401);
#536=VERTEX_POINT('',#1403);
#537=VERTEX_POINT('',#1405);
#538=VERTEX_POINT('',#1407);
#539=VERTEX_POINT('',#1409);
#540=VERTEX_POINT('',#1416);
#541=VERTEX_POINT('',#1418);
#542=VERTEX_POINT('',#1422);
#543=VERTEX_POINT('',#1423);
#544=VERTEX_POINT('',#1428);
#545=VERTEX_POINT('',#1434);
#546=VERTEX_POINT('',#1436);
#547=VERTEX_POINT('',#1440);
#548=VERTEX_POINT('',#1442);
#549=VERTEX_POINT('',#1443);
#550=VERTEX_POINT('',#1445);
#551=VERTEX_POINT('',#1449);
#552=VERTEX_POINT('',#1451);
#553=VERTEX_POINT('',#1453);
#554=VERTEX_POINT('',#1455);
#555=VERTEX_POINT('',#1457);
#556=VERTEX_POINT('',#1461);
#557=VERTEX_POINT('',#1463);
#558=VERTEX_POINT('',#1465);
#559=VERTEX_POINT('',#1468);
#560=VERTEX_POINT('',#1470);
#561=VERTEX_POINT('',#1474);
#562=VERTEX_POINT('',#1475);
#563=VERTEX_POINT('',#1477);
#564=VERTEX_POINT('',#1479);
#565=VERTEX_POINT('',#1481);
#566=VERTEX_POINT('',#1483);
#567=VERTEX_POINT('',#1487);
#568=VERTEX_POINT('',#1488);
#569=VERTEX_POINT('',#1490);
#570=VERTEX_POINT('',#1492);
#571=VERTEX_POINT('',#1494);
#572=VERTEX_POINT('',#1496);
#573=VERTEX_POINT('',#1500);
#574=VERTEX_POINT('',#1502);
#575=VERTEX_POINT('',#1504);
#576=VERTEX_POINT('',#1506);
#577=VERTEX_POINT('',#1508);
#578=VERTEX_POINT('',#1510);
#579=VERTEX_POINT('',#1514);
#580=VERTEX_POINT('',#1516);
#581=VERTEX_POINT('',#1518);
#582=VERTEX_POINT('',#1520);
#583=VERTEX_POINT('',#1522);
#584=VERTEX_POINT('',#1524);
#585=VERTEX_POINT('',#1528);
#586=VERTEX_POINT('',#1529);
#587=VERTEX_POINT('',#1531);
#588=VERTEX_POINT('',#1533);
#589=VERTEX_POINT('',#1535);
#590=VERTEX_POINT('',#1539);
#591=VERTEX_POINT('',#1541);
#592=VERTEX_POINT('',#1543);
#593=VERTEX_POINT('',#1546);
#594=VERTEX_POINT('',#1554);
#595=VERTEX_POINT('',#1558);
#596=VERTEX_POINT('',#1559);
#597=VERTEX_POINT('',#1561);
#598=VERTEX_POINT('',#1563);
#599=VERTEX_POINT('',#1577);
#600=VERTEX_POINT('',#1579);
#601=VERTEX_POINT('',#1584);
#602=VERTEX_POINT('',#1585);
#603=VERTEX_POINT('',#1592);
#604=VERTEX_POINT('',#1593);
#605=VERTEX_POINT('',#1598);
#606=VERTEX_POINT('',#1599);
#607=VERTEX_POINT('',#1604);
#608=VERTEX_POINT('',#1605);
#609=VERTEX_POINT('',#1610);
#610=VERTEX_POINT('',#1611);
#611=VERTEX_POINT('',#1621);
#612=VERTEX_POINT('',#1622);
#613=VERTEX_POINT('',#1627);
#614=VERTEX_POINT('',#1628);
#615=VERTEX_POINT('',#1633);
#616=VERTEX_POINT('',#1634);
#617=VERTEX_POINT('',#1639);
#618=VERTEX_POINT('',#1640);
#619=VERTEX_POINT('',#1653);
#620=VERTEX_POINT('',#1658);
#621=VERTEX_POINT('',#1660);
#622=VERTEX_POINT('',#1668);
#623=VERTEX_POINT('',#1669);
#624=VERTEX_POINT('',#1676);
#625=LINE('',#1385,#711);
#626=LINE('',#1390,#712);
#627=LINE('',#1402,#713);
#628=LINE('',#1406,#714);
#629=LINE('',#1415,#715);
#630=LINE('',#1417,#716);
#631=LINE('',#1433,#717);
#632=LINE('',#1437,#718);
#633=LINE('',#1441,#719);
#634=LINE('',#1446,#720);
#635=LINE('',#1447,#721);
#636=LINE('',#1448,#722);
#637=LINE('',#1452,#723);
#638=LINE('',#1456,#724);
#639=LINE('',#1462,#725);
#640=LINE('',#1466,#726);
#641=LINE('',#1467,#727);
#642=LINE('',#1471,#728);
#643=LINE('',#1473,#729);
#644=LINE('',#1478,#730);
#645=LINE('',#1482,#731);
#646=LINE('',#1486,#732);
#647=LINE('',#1491,#733);
#648=LINE('',#1495,#734);
#649=LINE('',#1499,#735);
#650=LINE('',#1501,#736);
#651=LINE('',#1505,#737);
#652=LINE('',#1509,#738);
#653=LINE('',#1513,#739);
#654=LINE('',#1517,#740);
#655=LINE('',#1521,#741);
#656=LINE('',#1525,#742);
#657=LINE('',#1527,#743);
#658=LINE('',#1532,#744);
#659=LINE('',#1536,#745);
#660=LINE('',#1537,#746);
#661=LINE('',#1538,#747);
#662=LINE('',#1542,#748);
#663=LINE('',#1548,#749);
#664=LINE('',#1549,#750);
#665=LINE('',#1550,#751);
#666=LINE('',#1551,#752);
#667=LINE('',#1560,#753);
#668=LINE('',#1564,#754);
#669=LINE('',#1566,#755);
#670=LINE('',#1568,#756);
#671=LINE('',#1571,#757);
#672=LINE('',#1572,#758);
#673=LINE('',#1576,#759);
#674=LINE('',#1580,#760);
#675=LINE('',#1581,#761);
#676=LINE('',#1586,#762);
#677=LINE('',#1587,#763);
#678=LINE('',#1588,#764);
#679=LINE('',#1594,#765);
#680=LINE('',#1595,#766);
#681=LINE('',#1600,#767);
#682=LINE('',#1601,#768);
#683=LINE('',#1606,#769);
#684=LINE('',#1607,#770);
#685=LINE('',#1612,#771);
#686=LINE('',#1613,#772);
#687=LINE('',#1615,#773);
#688=LINE('',#1616,#774);
#689=LINE('',#1623,#775);
#690=LINE('',#1624,#776);
#691=LINE('',#1629,#777);
#692=LINE('',#1630,#778);
#693=LINE('',#1635,#779);
#694=LINE('',#1636,#780);
#695=LINE('',#1641,#781);
#696=LINE('',#1642,#782);
#697=LINE('',#1644,#783);
#698=LINE('',#1645,#784);
#699=LINE('',#1661,#785);
#700=LINE('',#1662,#786);
#701=LINE('',#1674,#787);
#702=LINE('',#1675,#788);
#703=LINE('',#1679,#789);
#704=LINE('',#1680,#790);
#705=LINE('',#1681,#791);
#706=LINE('',#1685,#792);
#707=LINE('',#1686,#793);
#708=LINE('',#1687,#794);
#709=LINE('',#1693,#795);
#710=LINE('',#1696,#796);
#711=VECTOR('',#1099,1.);
#712=VECTOR('',#1102,1.);
#713=VECTOR('',#1109,1.);
#714=VECTOR('',#1112,1.);
#715=VECTOR('',#1117,1.);
#716=VECTOR('',#1118,1.);
#717=VECTOR('',#1125,1.);
#718=VECTOR('',#1128,1.);
#719=VECTOR('',#1133,1.);
#720=VECTOR('',#1136,1.);
#721=VECTOR('',#1137,1.);
#722=VECTOR('',#1138,1.);
#723=VECTOR('',#1141,1.);
#724=VECTOR('',#1144,1.);
#725=VECTOR('',#1151,1.);
#726=VECTOR('',#1154,1.);
#727=VECTOR('',#1155,1.);
#728=VECTOR('',#1158,1.);
#729=VECTOR('',#1161,1.);
#730=VECTOR('',#1164,1.);
#731=VECTOR('',#1167,1.);
#732=VECTOR('',#1172,1.);
#733=VECTOR('',#1175,1.);
#734=VECTOR('',#1178,1.);
#735=VECTOR('',#1183,1.);
#736=VECTOR('',#1184,1.);
#737=VECTOR('',#1187,1.);
#738=VECTOR('',#1190,1.);
#739=VECTOR('',#1195,1.);
#740=VECTOR('',#1198,1.);
#741=VECTOR('',#1201,1.);
#742=VECTOR('',#1204,1.);
#743=VECTOR('',#1207,1.);
#744=VECTOR('',#1210,1.);
#745=VECTOR('',#1213,1.);
#746=VECTOR('',#1214,1.);
#747=VECTOR('',#1215,1.);
#748=VECTOR('',#1218,1.);
#749=VECTOR('',#1225,1.);
#750=VECTOR('',#1226,1.);
#751=VECTOR('',#1227,1.);
#752=VECTOR('',#1228,1.);
#753=VECTOR('',#1239,1.);
#754=VECTOR('',#1242,1.);
#755=VECTOR('',#1245,1.);
#756=VECTOR('',#1248,1.);
#757=VECTOR('',#1253,1.);
#758=VECTOR('',#1254,1.);
#759=VECTOR('',#1261,1.);
#760=VECTOR('',#1264,1.);
#761=VECTOR('',#1265,1.);
#762=VECTOR('',#1270,1.);
#763=VECTOR('',#1271,1.);
#764=VECTOR('',#1272,1.);
#765=VECTOR('',#1279,1.);
#766=VECTOR('',#1280,1.);
#767=VECTOR('',#1285,1.);
#768=VECTOR('',#1286,1.);
#769=VECTOR('',#1291,1.);
#770=VECTOR('',#1292,1.);
#771=VECTOR('',#1297,1.);
#772=VECTOR('',#1298,1.);
#773=VECTOR('',#1301,1.);
#774=VECTOR('',#1302,1.);
#775=VECTOR('',#1311,1.);
#776=VECTOR('',#1312,1.);
#777=VECTOR('',#1317,1.);
#778=VECTOR('',#1318,1.);
#779=VECTOR('',#1323,1.);
#780=VECTOR('',#1324,1.);
#781=VECTOR('',#1329,1.);
#782=VECTOR('',#1330,1.);
#783=VECTOR('',#1333,1.);
#784=VECTOR('',#1334,1.);
#785=VECTOR('',#1343,1.);
#786=VECTOR('',#1344,1.);
#787=VECTOR('',#1347,1.);
#788=VECTOR('',#1348,1.);
#789=VECTOR('',#1353,1.);
#790=VECTOR('',#1354,1.);
#791=VECTOR('',#1355,1.);
#792=VECTOR('',#1362,1.);
#793=VECTOR('',#1363,1.);
#794=VECTOR('',#1364,1.);
#795=VECTOR('',#1375,1.);
#796=VECTOR('',#1380,1.);
#797=EDGE_LOOP('',(#103,#104,#105,#106));
#798=EDGE_LOOP('',(#107,#108,#109,#110,#111,#112,#113));
#799=EDGE_LOOP('',(#114,#115,#116,#117));
#800=EDGE_LOOP('',(#118,#119,#120,#121,#122,#123,#124));
#801=EDGE_LOOP('',(#125));
#802=EDGE_LOOP('',(#126,#127,#128,#129,#130,#131,#132,#133,#134,#135,#136,#137));
#803=EDGE_LOOP('',(#138));
#804=EDGE_LOOP('',(#139,#140,#141,#142,#143,#144,#145,#146));
#805=EDGE_LOOP('',(#147,#148,#149,#150,#151,#152));
#806=EDGE_LOOP('',(#153,#154,#155,#156,#157,#158));
#807=EDGE_LOOP('',(#159,#160,#161,#162,#163,#164,#165,#166));
#808=EDGE_LOOP('',(#167,#168,#169,#170,#171,#172,#173,#174));
#809=EDGE_LOOP('',(#175,#176,#177,#178,#179,#180,#181,#182,#183,#184,#185,#186));
#810=EDGE_LOOP('',(#187));
#811=EDGE_LOOP('',(#188,#189,#190,#191,#192,#193,#194,#195));
#812=EDGE_LOOP('',(#196));
#813=EDGE_LOOP('',(#197));
#814=EDGE_LOOP('',(#198));
#815=EDGE_LOOP('',(#199));
#816=EDGE_LOOP('',(#200));
#817=EDGE_LOOP('',(#201,#202,#203,#204));
#818=EDGE_LOOP('',(#205,#206,#207,#208));
#819=EDGE_LOOP('',(#209,#210,#211,#212));
#820=EDGE_LOOP('',(#213,#214,#215,#216));
#821=EDGE_LOOP('',(#217,#218,#219,#220));
#822=EDGE_LOOP('',(#221,#222,#223,#224));
#823=EDGE_LOOP('',(#225,#226,#227,#228));
#824=EDGE_LOOP('',(#229,#230,#231,#232,#233,#234,#235,#236));
#825=EDGE_LOOP('',(#237,#238,#239,#240,#241,#242,#243,#244));
#826=EDGE_LOOP('',(#245,#246,#247,#248));
#827=EDGE_LOOP('',(#249,#250,#251,#252));
#828=EDGE_LOOP('',(#253,#254,#255,#256));
#829=EDGE_LOOP('',(#257,#258,#259,#260));
#830=EDGE_LOOP('',(#261,#262,#263,#264));
#831=EDGE_LOOP('',(#265,#266,#267,#268));
#832=EDGE_LOOP('',(#269,#270,#271,#272,#273,#274,#275,#276));
#833=EDGE_LOOP('',(#277,#278,#279,#280,#281,#282,#283,#284));
#834=EDGE_LOOP('',(#285,#286,#287,#288));
#835=EDGE_LOOP('',(#289,#290,#291,#292));
#836=EDGE_LOOP('',(#293,#294,#295,#296));
#837=EDGE_LOOP('',(#297,#298,#299,#300));
#838=EDGE_LOOP('',(#301,#302,#303,#304));
#839=EDGE_LOOP('',(#305,#306,#307,#308,#309,#310,#311,#312));
#840=EDGE_LOOP('',(#313,#314,#315,#316,#317,#318,#319,#320));
#841=EDGE_LOOP('',(#321,#322,#323,#324,#325,#326,#327));
#842=EDGE_LOOP('',(#328,#329,#330,#331,#332,#333,#334));
#843=EDGE_LOOP('',(#335,#336,#337,#338,#339,#340));
#844=EDGE_LOOP('',(#341,#342,#343,#344));
#845=EDGE_LOOP('',(#345,#346,#347,#348));
#846=EDGE_LOOP('',(#349,#350,#351,#352,#353,#354));
#847=EDGE_LOOP('',(#355,#356,#357,#358));
#848=EDGE_LOOP('',(#359,#360,#361,#362));
#849=EDGE_LOOP('',(#363,#364,#365,#366));
#850=EDGE_LOOP('',(#367,#368,#369,#370));
#851=EDGE_LOOP('',(#371,#372,#373,#374));
#852=EDGE_LOOP('',(#375,#376,#377,#378));
#853=EDGE_LOOP('',(#379,#380,#381,#382));
#854=EDGE_LOOP('',(#383,#384,#385,#386));
#855=FACE_BOUND('',#797,.T.);
#856=FACE_BOUND('',#798,.T.);
#857=FACE_BOUND('',#799,.T.);
#858=FACE_BOUND('',#800,.T.);
#859=FACE_BOUND('',#801,.T.);
#860=FACE_BOUND('',#802,.T.);
#861=FACE_BOUND('',#803,.T.);
#862=FACE_BOUND('',#804,.T.);
#863=FACE_BOUND('',#805,.T.);
#864=FACE_BOUND('',#806,.T.);
#865=FACE_BOUND('',#807,.T.);
#866=FACE_BOUND('',#808,.T.);
#867=FACE_BOUND('',#809,.T.);
#868=FACE_BOUND('',#810,.T.);
#869=FACE_BOUND('',#811,.T.);
#870=FACE_BOUND('',#812,.T.);
#871=FACE_BOUND('',#813,.T.);
#872=FACE_BOUND('',#814,.T.);
#873=FACE_BOUND('',#815,.T.);
#874=FACE_BOUND('',#816,.T.);
#875=FACE_BOUND('',#817,.T.);
#876=FACE_BOUND('',#818,.T.);
#877=FACE_BOUND('',#819,.T.);
#878=FACE_BOUND('',#820,.T.);
#879=FACE_BOUND('',#821,.T.);
#880=FACE_BOUND('',#822,.T.);
#881=FACE_BOUND('',#823,.T.);
#882=FACE_BOUND('',#824,.T.);
#883=FACE_BOUND('',#825,.T.);
#884=FACE_BOUND('',#826,.T.);
#885=FACE_BOUND('',#827,.T.);
#886=FACE_BOUND('',#828,.T.);
#887=FACE_BOUND('',#829,.T.);
#888=FACE_BOUND('',#830,.T.);
#889=FACE_BOUND('',#831,.T.);
#890=FACE_BOUND('',#832,.T.);
#891=FACE_BOUND('',#833,.T.);
#892=FACE_BOUND('',#834,.T.);
#893=FACE_BOUND('',#835,.T.);
#894=FACE_BOUND('',#836,.T.);
#895=FACE_BOUND('',#837,.T.);
#896=FACE_BOUND('',#838,.T.);
#897=FACE_BOUND('',#839,.T.);
#898=FACE_BOUND('',#840,.T.);
#899=FACE_BOUND('',#841,.T.);
#900=FACE_BOUND('',#842,.T.);
#901=FACE_BOUND('',#843,.T.);
#902=FACE_BOUND('',#844,.T.);
#903=FACE_BOUND('',#845,.T.);
#904=FACE_BOUND('',#846,.T.);
#905=FACE_BOUND('',#847,.T.);
#906=FACE_BOUND('',#848,.T.);
#907=FACE_BOUND('',#849,.T.);
#908=FACE_BOUND('',#850,.T.);
#909=FACE_BOUND('',#851,.T.);
#910=FACE_BOUND('',#852,.T.);
#911=FACE_BOUND('',#853,.T.);
#912=FACE_BOUND('',#854,.T.);
#913=CYLINDRICAL_SURFACE('',#995,0.0111);
#914=CYLINDRICAL_SURFACE('',#1002,0.0111);
#915=CYLINDRICAL_SURFACE('',#1007,0.0091);
#916=CYLINDRICAL_SURFACE('',#1017,0.01);
#917=CYLINDRICAL_SURFACE('',#1021,0.0100000000000019);
#918=CYLINDRICAL_SURFACE('',#1033,0.0115);
#919=CYLINDRICAL_SURFACE('',#1040,0.0125);
#920=CYLINDRICAL_SURFACE('',#1043,0.01);
#921=CYLINDRICAL_SURFACE('',#1049,0.0100000000000019);
#922=CYLINDRICAL_SURFACE('',#1057,0.01125);
#923=CYLINDRICAL_SURFACE('',#1061,0.01025);
#924=CYLINDRICAL_SURFACE('',#1065,0.01125);
#925=CYLINDRICAL_SURFACE('',#1068,0.01125);
#926=CYLINDRICAL_SURFACE('',#1072,0.01025);
#927=CYLINDRICAL_SURFACE('',#1076,0.01125);
#928=CYLINDRICAL_SURFACE('',#1083,0.0111);
#929=CYLINDRICAL_SURFACE('',#1086,0.0111);
#930=ADVANCED_FACE('',(#855),#913,.F.);
#931=ADVANCED_FACE('',(#856),#42,.F.);
#932=ADVANCED_FACE('',(#857),#914,.F.);
#933=ADVANCED_FACE('',(#858),#43,.F.);
#934=ADVANCED_FACE('',(#859,#860),#915,.F.);
#935=ADVANCED_FACE('',(#861,#862),#44,.F.);
#936=ADVANCED_FACE('',(#863),#916,.T.);
#937=ADVANCED_FACE('',(#864),#917,.T.);
#938=ADVANCED_FACE('',(#865),#45,.T.);
#939=ADVANCED_FACE('',(#866),#46,.T.);
#940=ADVANCED_FACE('',(#867,#868),#918,.T.);
#941=ADVANCED_FACE('',(#869,#870),#12,.F.);
#942=ADVANCED_FACE('',(#871,#872),#919,.T.);
#943=ADVANCED_FACE('',(#873,#874),#13,.F.);
#944=ADVANCED_FACE('',(#875),#920,.T.);
#945=ADVANCED_FACE('',(#876),#14,.T.);
#946=ADVANCED_FACE('',(#877),#15,.F.);
#947=ADVANCED_FACE('',(#878),#16,.F.);
#948=ADVANCED_FACE('',(#879),#921,.T.);
#949=ADVANCED_FACE('',(#880),#17,.F.);
#950=ADVANCED_FACE('',(#881),#18,.T.);
#951=ADVANCED_FACE('',(#882),#47,.T.);
#952=ADVANCED_FACE('',(#883),#48,.T.);
#953=ADVANCED_FACE('',(#884),#19,.F.);
#954=ADVANCED_FACE('',(#885),#922,.T.);
#955=ADVANCED_FACE('',(#886),#49,.T.);
#956=ADVANCED_FACE('',(#887),#923,.T.);
#957=ADVANCED_FACE('',(#888),#50,.T.);
#958=ADVANCED_FACE('',(#889),#924,.T.);
#959=ADVANCED_FACE('',(#890),#20,.F.);
#960=ADVANCED_FACE('',(#891),#21,.T.);
#961=ADVANCED_FACE('',(#892),#925,.T.);
#962=ADVANCED_FACE('',(#893),#51,.T.);
#963=ADVANCED_FACE('',(#894),#926,.T.);
#964=ADVANCED_FACE('',(#895),#52,.T.);
#965=ADVANCED_FACE('',(#896),#927,.T.);
#966=ADVANCED_FACE('',(#897),#22,.T.);
#967=ADVANCED_FACE('',(#898),#23,.F.);
#968=ADVANCED_FACE('',(#899),#53,.F.);
#969=ADVANCED_FACE('',(#900),#54,.F.);
#970=ADVANCED_FACE('',(#901),#928,.F.);
#971=ADVANCED_FACE('',(#902),#24,.T.);
#972=ADVANCED_FACE('',(#903),#25,.F.);
#973=ADVANCED_FACE('',(#904),#929,.F.);
#974=ADVANCED_FACE('',(#905),#26,.F.);
#975=ADVANCED_FACE('',(#906),#27,.T.);
#976=ADVANCED_FACE('',(#907),#28,.F.);
#977=ADVANCED_FACE('',(#908),#29,.F.);
#978=ADVANCED_FACE('',(#909),#30,.F.);
#979=ADVANCED_FACE('',(#910),#31,.T.);
#980=ADVANCED_FACE('',(#911),#32,.T.);
#981=ADVANCED_FACE('',(#912),#33,.T.);
#982=CLOSED_SHELL('',(#930,#931,#932,#933,#934,#935,#936,#937,#938,#939,#940,#941,#942,#943,#944,#945,#946,#947,#948,#949,#950,#951,#952,#953,#954,#955,#956,#957,#958,#959,#960,#961,#962,#963,#964,#965,#966,#967,#968,#969,#970,#971,#972,#973,#974,#975,#976,#977,#978,#979,#980,#981));
#983=STYLED_ITEM('',(#984),#991);
#984=PRESENTATION_STYLE_ASSIGNMENT((#985));
#985=SURFACE_STYLE_USAGE(.BOTH.,#986);
#986=SURFACE_SIDE_STYLE('',(#987));
#987=SURFACE_STYLE_FILL_AREA(#988);
#988=FILL_AREA_STYLE('',(#989));
#989=FILL_AREA_STYLE_COLOUR('',#990);
#990=COLOUR_RGB('',0.647058823529412,0.647058823529412,0.647058823529412);
#991=MANIFOLD_SOLID_BREP('Insulator',#982);
#992=SHAPE_DEFINITION_REPRESENTATION(#1704,#993);
#993=SHAPE_REPRESENTATION('Insulator',(#994),#1699);
#994=AXIS2_PLACEMENT_3D('',#1383,#1095,#1096);
#995=AXIS2_PLACEMENT_3D('',#1384,#1097,#1098);
#996=AXIS2_PLACEMENT_3D('',#1388,#1100,#1101);
#997=AXIS2_PLACEMENT_3D('',#1392,#1103,#1104);
#998=AXIS2_PLACEMENT_3D('',#1393,#1105,#1106);
#999=AXIS2_PLACEMENT_3D('',#1400,#1107,#1108);
#1000=AXIS2_PLACEMENT_3D('',#1404,#1110,#1111);
#1001=AXIS2_PLACEMENT_3D('',#1408,#1113,#1114);
#1002=AXIS2_PLACEMENT_3D('',#1414,#1115,#1116);
#1003=AXIS2_PLACEMENT_3D('',#1419,#1119,#1120);
#1004=AXIS2_PLACEMENT_3D('',#1420,#1121,#1122);
#1005=AXIS2_PLACEMENT_3D('',#1421,#1123,#1124);
#1006=AXIS2_PLACEMENT_3D('',#1435,#1126,#1127);
#1007=AXIS2_PLACEMENT_3D('',#1438,#1129,#1130);
#1008=AXIS2_PLACEMENT_3D('',#1439,#1131,#1132);
#1009=AXIS2_PLACEMENT_3D('',#1444,#1134,#1135);
#1010=AXIS2_PLACEMENT_3D('',#1450,#1139,#1140);
#1011=AXIS2_PLACEMENT_3D('',#1454,#1142,#1143);
#1012=AXIS2_PLACEMENT_3D('',#1458,#1145,#1146);
#1013=AXIS2_PLACEMENT_3D('',#1459,#1147,#1148);
#1014=AXIS2_PLACEMENT_3D('',#1460,#1149,#1150);
#1015=AXIS2_PLACEMENT_3D('',#1464,#1152,#1153);
#1016=AXIS2_PLACEMENT_3D('',#1469,#1156,#1157);
#1017=AXIS2_PLACEMENT_3D('',#1472,#1159,#1160);
#1018=AXIS2_PLACEMENT_3D('',#1476,#1162,#1163);
#1019=AXIS2_PLACEMENT_3D('',#1480,#1165,#1166);
#1020=AXIS2_PLACEMENT_3D('',#1484,#1168,#1169);
#1021=AXIS2_PLACEMENT_3D('',#1485,#1170,#1171);
#1022=AXIS2_PLACEMENT_3D('',#1489,#1173,#1174);
#1023=AXIS2_PLACEMENT_3D('',#1493,#1176,#1177);
#1024=AXIS2_PLACEMENT_3D('',#1497,#1179,#1180);
#1025=AXIS2_PLACEMENT_3D('',#1498,#1181,#1182);
#1026=AXIS2_PLACEMENT_3D('',#1503,#1185,#1186);
#1027=AXIS2_PLACEMENT_3D('',#1507,#1188,#1189);
#1028=AXIS2_PLACEMENT_3D('',#1511,#1191,#1192);
#1029=AXIS2_PLACEMENT_3D('',#1512,#1193,#1194);
#1030=AXIS2_PLACEMENT_3D('',#1515,#1196,#1197);
#1031=AXIS2_PLACEMENT_3D('',#1519,#1199,#1200);
#1032=AXIS2_PLACEMENT_3D('',#1523,#1202,#1203);
#1033=AXIS2_PLACEMENT_3D('',#1526,#1205,#1206);
#1034=AXIS2_PLACEMENT_3D('',#1530,#1208,#1209);
#1035=AXIS2_PLACEMENT_3D('',#1534,#1211,#1212);
#1036=AXIS2_PLACEMENT_3D('',#1540,#1216,#1217);
#1037=AXIS2_PLACEMENT_3D('',#1544,#1219,#1220);
#1038=AXIS2_PLACEMENT_3D('',#1545,#1221,#1222);
#1039=AXIS2_PLACEMENT_3D('',#1547,#1223,#1224);
#1040=AXIS2_PLACEMENT_3D('',#1552,#1229,#1230);
#1041=AXIS2_PLACEMENT_3D('',#1553,#1231,#1232);
#1042=AXIS2_PLACEMENT_3D('',#1555,#1233,#1234);
#1043=AXIS2_PLACEMENT_3D('',#1556,#1235,#1236);
#1044=AXIS2_PLACEMENT_3D('',#1557,#1237,#1238);
#1045=AXIS2_PLACEMENT_3D('',#1562,#1240,#1241);
#1046=AXIS2_PLACEMENT_3D('',#1565,#1243,#1244);
#1047=AXIS2_PLACEMENT_3D('',#1567,#1246,#1247);
#1048=AXIS2_PLACEMENT_3D('',#1569,#1249,#1250);
#1049=AXIS2_PLACEMENT_3D('',#1570,#1251,#1252);
#1050=AXIS2_PLACEMENT_3D('',#1573,#1255,#1256);
#1051=AXIS2_PLACEMENT_3D('',#1574,#1257,#1258);
#1052=AXIS2_PLACEMENT_3D('',#1575,#1259,#1260);
#1053=AXIS2_PLACEMENT_3D('',#1578,#1262,#1263);
#1054=AXIS2_PLACEMENT_3D('',#1582,#1266,#1267);
#1055=AXIS2_PLACEMENT_3D('',#1583,#1268,#1269);
#1056=AXIS2_PLACEMENT_3D('',#1589,#1273,#1274);
#1057=AXIS2_PLACEMENT_3D('',#1590,#1275,#1276);
#1058=AXIS2_PLACEMENT_3D('',#1591,#1277,#1278);
#1059=AXIS2_PLACEMENT_3D('',#1596,#1281,#1282);
#1060=AXIS2_PLACEMENT_3D('',#1597,#1283,#1284);
#1061=AXIS2_PLACEMENT_3D('',#1602,#1287,#1288);
#1062=AXIS2_PLACEMENT_3D('',#1603,#1289,#1290);
#1063=AXIS2_PLACEMENT_3D('',#1608,#1293,#1294);
#1064=AXIS2_PLACEMENT_3D('',#1609,#1295,#1296);
#1065=AXIS2_PLACEMENT_3D('',#1614,#1299,#1300);
#1066=AXIS2_PLACEMENT_3D('',#1617,#1303,#1304);
#1067=AXIS2_PLACEMENT_3D('',#1618,#1305,#1306);
#1068=AXIS2_PLACEMENT_3D('',#1619,#1307,#1308);
#1069=AXIS2_PLACEMENT_3D('',#1620,#1309,#1310);
#1070=AXIS2_PLACEMENT_3D('',#1625,#1313,#1314);
#1071=AXIS2_PLACEMENT_3D('',#1626,#1315,#1316);
#1072=AXIS2_PLACEMENT_3D('',#1631,#1319,#1320);
#1073=AXIS2_PLACEMENT_3D('',#1632,#1321,#1322);
#1074=AXIS2_PLACEMENT_3D('',#1637,#1325,#1326);
#1075=AXIS2_PLACEMENT_3D('',#1638,#1327,#1328);
#1076=AXIS2_PLACEMENT_3D('',#1643,#1331,#1332);
#1077=AXIS2_PLACEMENT_3D('',#1646,#1335,#1336);
#1078=AXIS2_PLACEMENT_3D('',#1647,#1337,#1338);
#1079=AXIS2_PLACEMENT_3D('',#1648,#1339,#1340);
#1080=AXIS2_PLACEMENT_3D('',#1659,#1341,#1342);
#1081=AXIS2_PLACEMENT_3D('',#1663,#1345,#1346);
#1082=AXIS2_PLACEMENT_3D('',#1677,#1349,#1350);
#1083=AXIS2_PLACEMENT_3D('',#1678,#1351,#1352);
#1084=AXIS2_PLACEMENT_3D('',#1682,#1356,#1357);
#1085=AXIS2_PLACEMENT_3D('',#1683,#1358,#1359);
#1086=AXIS2_PLACEMENT_3D('',#1684,#1360,#1361);
#1087=AXIS2_PLACEMENT_3D('',#1688,#1365,#1366);
#1088=AXIS2_PLACEMENT_3D('',#1689,#1367,#1368);
#1089=AXIS2_PLACEMENT_3D('',#1690,#1369,#1370);
#1090=AXIS2_PLACEMENT_3D('',#1691,#1371,#1372);
#1091=AXIS2_PLACEMENT_3D('',#1692,#1373,#1374);
#1092=AXIS2_PLACEMENT_3D('',#1694,#1376,#1377);
#1093=AXIS2_PLACEMENT_3D('',#1695,#1378,#1379);
#1094=AXIS2_PLACEMENT_3D('',#1697,#1381,#1382);
#1095=DIRECTION('',(0.,0.,1.));
#1096=DIRECTION('',(1.,0.,0.));
#1097=DIRECTION('',(0.,0.,1.));
#1098=DIRECTION('',(1.,0.,0.));
#1099=DIRECTION('',(0.,6.12323399573677E-17,1.));
#1100=DIRECTION('',(0.,0.,1.));
#1101=DIRECTION('',(1.,0.,0.));
#1102=DIRECTION('',(0.,0.,-1.));
#1103=DIRECTION('',(0.,0.,1.));
#1104=DIRECTION('',(1.,0.,0.));
#1105=DIRECTION('',(0.,0.,1.));
#1106=DIRECTION('',(1.,0.,0.));
#1107=DIRECTION('',(0.,0.,1.));
#1108=DIRECTION('',(1.,0.,0.));
#1109=DIRECTION('',(-0.707106781186548,0.,-0.707106781186547));
#1110=DIRECTION('',(0.,0.,1.));
#1111=DIRECTION('',(1.,0.,0.));
#1112=DIRECTION('',(0.612372435695795,0.353553390593274,-0.707106781186547));
#1113=DIRECTION('',(0.,0.,1.));
#1114=DIRECTION('',(1.,0.,0.));
#1115=DIRECTION('',(0.,0.,1.));
#1116=DIRECTION('',(1.,0.,0.));
#1117=DIRECTION('',(0.,6.12323399573677E-17,1.));
#1118=DIRECTION('',(0.,0.,-1.));
#1119=DIRECTION('',(0.,0.,1.));
#1120=DIRECTION('',(1.,0.,0.));
#1121=DIRECTION('',(0.,0.,-1.));
#1122=DIRECTION('',(-1.,0.,0.));
#1123=DIRECTION('',(0.,0.,1.));
#1124=DIRECTION('',(1.,0.,0.));
#1125=DIRECTION('',(0.612372435695794,0.353553390593274,0.707106781186548));
#1126=DIRECTION('',(0.,0.,1.));
#1127=DIRECTION('',(1.,0.,0.));
#1128=DIRECTION('',(-0.473146789255815,0.525482745498759,0.707106781186548));
#1129=DIRECTION('',(0.,0.,-1.));
#1130=DIRECTION('',(-1.,0.,0.));
#1131=DIRECTION('',(0.,0.,1.));
#1132=DIRECTION('',(1.,0.,0.));
#1133=DIRECTION('',(0.,0.,1.));
#1134=DIRECTION('',(0.,0.,1.));
#1135=DIRECTION('',(1.,0.,0.));
#1136=DIRECTION('',(0.,6.12323399573677E-17,1.));
#1137=DIRECTION('',(-3.33847688608258E-16,-1.92747052886311E-16,1.));
#1138=DIRECTION('',(3.85494105772624E-16,0.,1.));
#1139=DIRECTION('',(0.,0.,1.));
#1140=DIRECTION('',(1.,0.,0.));
#1141=DIRECTION('',(0.,6.12323399573677E-17,1.));
#1142=DIRECTION('',(0.,0.,1.));
#1143=DIRECTION('',(1.,0.,0.));
#1144=DIRECTION('',(0.,0.,1.));
#1145=DIRECTION('',(0.,0.,1.));
#1146=DIRECTION('',(1.,0.,0.));
#1147=DIRECTION('',(0.,0.,1.));
#1148=DIRECTION('',(1.,0.,0.));
#1149=DIRECTION('',(0.,0.,-1.));
#1150=DIRECTION('',(-1.,0.,0.));
#1151=DIRECTION('',(-0.707106781186547,4.32978028117747E-17,0.707106781186548));
#1152=DIRECTION('',(0.,0.,1.));
#1153=DIRECTION('',(1.,0.,0.));
#1154=DIRECTION('',(-0.473146789255815,0.525482745498759,0.707106781186548));
#1155=DIRECTION('',(0.707106781186547,1.21802425745963E-16,0.707106781186548));
#1156=DIRECTION('',(0.,0.,1.));
#1157=DIRECTION('',(1.,0.,0.));
#1158=DIRECTION('',(0.473146789255815,-0.525482745498759,0.707106781186548));
#1159=DIRECTION('',(0.,0.,-1.));
#1160=DIRECTION('',(-1.,0.,0.));
#1161=DIRECTION('',(0.,0.,-1.));
#1162=DIRECTION('',(0.,0.,-1.));
#1163=DIRECTION('',(-1.,0.,0.));
#1164=DIRECTION('',(0.,0.,-1.));
#1165=DIRECTION('',(0.,0.,1.));
#1166=DIRECTION('',(1.,0.,0.));
#1167=DIRECTION('',(0.,0.,-1.));
#1168=DIRECTION('',(0.,0.,-1.));
#1169=DIRECTION('',(-1.,0.,0.));
#1170=DIRECTION('',(0.,0.,-1.));
#1171=DIRECTION('',(-1.,0.,0.));
#1172=DIRECTION('',(0.,0.,-1.));
#1173=DIRECTION('',(0.,0.,-1.));
#1174=DIRECTION('',(-1.,0.,0.));
#1175=DIRECTION('',(0.,0.,-1.));
#1176=DIRECTION('',(0.,0.,1.));
#1177=DIRECTION('',(1.,0.,0.));
#1178=DIRECTION('',(0.,0.,-1.));
#1179=DIRECTION('',(0.,0.,-1.));
#1180=DIRECTION('',(-1.,0.,0.));
#1181=DIRECTION('',(0.,0.,-1.));
#1182=DIRECTION('',(-1.,0.,0.));
#1183=DIRECTION('',(0.664463024388674,0.241844762647975,-0.707106781186548));
#1184=DIRECTION('',(0.706676030840835,0.0246776707783362,-0.707106781186548));
#1185=DIRECTION('',(0.,0.,-1.));
#1186=DIRECTION('',(-1.,0.,0.));
#1187=DIRECTION('',(0.5,0.5,-0.707106781186548));
#1188=DIRECTION('',(0.,0.,-1.));
#1189=DIRECTION('',(-1.,0.,0.));
#1190=DIRECTION('',(0.612372435695794,0.353553390593274,-0.707106781186548));
#1191=DIRECTION('',(0.,0.,1.));
#1192=DIRECTION('',(1.,0.,0.));
#1193=DIRECTION('',(0.,0.,1.));
#1194=DIRECTION('',(1.,0.,0.));
#1195=DIRECTION('',(-0.664463024388673,-0.241844762647974,-0.70710678118655));
#1196=DIRECTION('',(0.,0.,1.));
#1197=DIRECTION('',(1.,0.,0.));
#1198=DIRECTION('',(-0.612372435695793,-0.353553390593273,-0.70710678118655));
#1199=DIRECTION('',(0.,0.,-1.));
#1200=DIRECTION('',(-1.,0.,0.));
#1201=DIRECTION('',(-0.5,-0.5,-0.707106781186549));
#1202=DIRECTION('',(0.,0.,-1.));
#1203=DIRECTION('',(-1.,0.,0.));
#1204=DIRECTION('',(-0.679714663692865,0.19490504344653,-0.707106781186549));
#1205=DIRECTION('',(0.,0.,-1.));
#1206=DIRECTION('',(-1.,0.,0.));
#1207=DIRECTION('',(0.,0.,1.));
#1208=DIRECTION('',(0.,0.,-1.));
#1209=DIRECTION('',(-1.,0.,0.));
#1210=DIRECTION('',(0.,0.,-1.));
#1211=DIRECTION('',(0.,0.,1.));
#1212=DIRECTION('',(1.,0.,0.));
#1213=DIRECTION('',(0.,0.,-1.));
#1214=DIRECTION('',(0.,0.,1.));
#1215=DIRECTION('',(0.,0.,-1.));
#1216=DIRECTION('',(0.,0.,1.));
#1217=DIRECTION('',(1.,0.,0.));
#1218=DIRECTION('',(0.,0.,-1.));
#1219=DIRECTION('',(0.,0.,-1.));
#1220=DIRECTION('',(-1.,0.,0.));
#1221=DIRECTION('',(0.,0.,1.));
#1222=DIRECTION('',(1.,0.,0.));
#1223=DIRECTION('',(0.,0.,1.));
#1224=DIRECTION('',(1.,0.,0.));
#1225=DIRECTION('',(0.999390827019096,0.0348994967025012,0.));
#1226=DIRECTION('',(-0.961261695938319,0.275637355816999,0.));
#1227=DIRECTION('',(-0.999390827019096,-0.0348994967025011,0.));
#1228=DIRECTION('',(-0.961261695938319,0.275637355816999,0.));
#1229=DIRECTION('',(0.,0.,-1.));
#1230=DIRECTION('',(-1.,0.,0.));
#1231=DIRECTION('',(0.,0.,1.));
#1232=DIRECTION('',(1.,0.,0.));
#1233=DIRECTION('',(0.,0.,1.));
#1234=DIRECTION('',(1.,0.,0.));
#1235=DIRECTION('',(0.,0.,-1.));
#1236=DIRECTION('',(-1.,0.,0.));
#1237=DIRECTION('',(0.,0.,-1.));
#1238=DIRECTION('',(-1.,0.,0.));
#1239=DIRECTION('',(0.,0.,-1.));
#1240=DIRECTION('',(0.,0.,-1.));
#1241=DIRECTION('',(-1.,0.,0.));
#1242=DIRECTION('',(0.,0.,-1.));
#1243=DIRECTION('',(-0.275637355816999,-0.961261695938319,0.));
#1244=DIRECTION('',(0.961261695938319,-0.275637355816999,0.));
#1245=DIRECTION('',(0.679714663692865,-0.19490504344653,-0.707106781186549));
#1246=DIRECTION('',(0.0348994967025011,-0.999390827019096,0.));
#1247=DIRECTION('',(0.999390827019096,0.0348994967025011,0.));
#1248=DIRECTION('',(-0.706676030840835,-0.0246776707783361,-0.707106781186548));
#1249=DIRECTION('',(-0.0348994967025012,0.999390827019096,0.));
#1250=DIRECTION('',(-0.999390827019096,-0.0348994967025012,0.));
#1251=DIRECTION('',(0.,0.,-1.));
#1252=DIRECTION('',(-1.,0.,0.));
#1253=DIRECTION('',(0.,0.,-1.));
#1254=DIRECTION('',(0.,0.,-1.));
#1255=DIRECTION('',(-0.275637355816999,-0.961261695938319,0.));
#1256=DIRECTION('',(0.961261695938319,-0.275637355816999,0.));
#1257=DIRECTION('',(0.707106781186547,-0.707106781186548,0.));
#1258=DIRECTION('',(0.707106781186548,0.707106781186547,0.));
#1259=DIRECTION('',(0.,0.,-1.));
#1260=DIRECTION('',(-1.,0.,0.));
#1261=DIRECTION('',(-0.612372435695794,-0.353553390593274,-0.707106781186548));
#1262=DIRECTION('',(0.,0.,1.));
#1263=DIRECTION('',(1.,0.,0.));
#1264=DIRECTION('',(-0.664463024388674,-0.241844762647975,-0.707106781186548));
#1265=DIRECTION('',(-0.5,-0.5,-0.707106781186548));
#1266=DIRECTION('',(0.,0.,1.));
#1267=DIRECTION('',(1.,0.,0.));
#1268=DIRECTION('',(0.,0.,1.));
#1269=DIRECTION('',(1.,0.,0.));
#1270=DIRECTION('',(0.612372435695793,0.353553390593273,-0.70710678118655));
#1271=DIRECTION('',(0.5,0.5,-0.707106781186549));
#1272=DIRECTION('',(0.664463024388673,0.241844762647974,-0.70710678118655));
#1273=DIRECTION('',(0.707106781186547,-0.707106781186548,0.));
#1274=DIRECTION('',(0.707106781186548,0.707106781186547,0.));
#1275=DIRECTION('',(0.,0.,1.));
#1276=DIRECTION('',(1.,0.,0.));
#1277=DIRECTION('',(0.,0.,1.));
#1278=DIRECTION('',(1.,0.,0.));
#1279=DIRECTION('',(0.,0.,-1.));
#1280=DIRECTION('',(0.,0.,-1.));
#1281=DIRECTION('',(0.,0.,1.));
#1282=DIRECTION('',(1.,0.,0.));
#1283=DIRECTION('',(0.,0.,1.));
#1284=DIRECTION('',(1.,0.,0.));
#1285=DIRECTION('',(0.612372435695793,0.353553390593273,-0.707106781186549));
#1286=DIRECTION('',(0.664463024388673,0.241844762647974,-0.707106781186549));
#1287=DIRECTION('',(0.,0.,1.));
#1288=DIRECTION('',(1.,0.,0.));
#1289=DIRECTION('',(0.,0.,1.));
#1290=DIRECTION('',(1.,0.,0.));
#1291=DIRECTION('',(0.,0.,-1.));
#1292=DIRECTION('',(0.,0.,-1.));
#1293=DIRECTION('',(0.,0.,-1.));
#1294=DIRECTION('',(-1.,0.,0.));
#1295=DIRECTION('',(0.,0.,1.));
#1296=DIRECTION('',(1.,0.,0.));
#1297=DIRECTION('',(-0.612372435695794,-0.353553390593274,-0.707106781186548));
#1298=DIRECTION('',(-0.664463024388674,-0.241844762647975,-0.707106781186548));
#1299=DIRECTION('',(0.,0.,1.));
#1300=DIRECTION('',(1.,0.,0.));
#1301=DIRECTION('',(0.,0.,-1.));
#1302=DIRECTION('',(0.,0.,-1.));
#1303=DIRECTION('',(0.342020143325668,-0.939692620785909,0.));
#1304=DIRECTION('',(0.939692620785909,0.342020143325668,0.));
#1305=DIRECTION('',(0.5,-0.866025403784439,0.));
#1306=DIRECTION('',(0.866025403784439,0.5,0.));
#1307=DIRECTION('',(0.,0.,1.));
#1308=DIRECTION('',(1.,0.,0.));
#1309=DIRECTION('',(0.,0.,1.));
#1310=DIRECTION('',(1.,0.,0.));
#1311=DIRECTION('',(0.,0.,-1.));
#1312=DIRECTION('',(0.,0.,-1.));
#1313=DIRECTION('',(0.,0.,-1.));
#1314=DIRECTION('',(-1.,0.,0.));
#1315=DIRECTION('',(0.,0.,1.));
#1316=DIRECTION('',(1.,0.,0.));
#1317=DIRECTION('',(0.664463024388674,0.241844762647975,-0.707106781186548));
#1318=DIRECTION('',(0.612372435695794,0.353553390593274,-0.707106781186548));
#1319=DIRECTION('',(0.,0.,1.));
#1320=DIRECTION('',(1.,0.,0.));
#1321=DIRECTION('',(0.,0.,1.));
#1322=DIRECTION('',(1.,0.,0.));
#1323=DIRECTION('',(0.,0.,-1.));
#1324=DIRECTION('',(0.,0.,-1.));
#1325=DIRECTION('',(0.,0.,1.));
#1326=DIRECTION('',(1.,0.,0.));
#1327=DIRECTION('',(0.,0.,1.));
#1328=DIRECTION('',(1.,0.,0.));
#1329=DIRECTION('',(-0.664463024388673,-0.241844762647974,-0.707106781186549));
#1330=DIRECTION('',(-0.612372435695793,-0.353553390593273,-0.707106781186549));
#1331=DIRECTION('',(0.,0.,1.));
#1332=DIRECTION('',(1.,0.,0.));
#1333=DIRECTION('',(0.,0.,-1.));
#1334=DIRECTION('',(0.,0.,-1.));
#1335=DIRECTION('',(0.342020143325668,-0.939692620785909,0.));
#1336=DIRECTION('',(0.939692620785909,0.342020143325668,0.));
#1337=DIRECTION('',(0.5,-0.866025403784439,0.));
#1338=DIRECTION('',(0.866025403784439,0.5,0.));
#1339=DIRECTION('',(0.,0.,1.));
#1340=DIRECTION('',(1.,0.,0.));
#1341=DIRECTION('',(0.,0.,1.));
#1342=DIRECTION('',(1.,0.,0.));
#1343=DIRECTION('',(0.707106781186547,0.,-0.707106781186548));
#1344=DIRECTION('',(-0.612372435695794,-0.353553390593274,-0.707106781186548));
#1345=DIRECTION('',(0.,0.,-1.));
#1346=DIRECTION('',(-1.,0.,0.));
#1347=DIRECTION('',(-0.612372435695795,-0.353553390593274,0.707106781186547));
#1348=DIRECTION('',(0.473146789255815,-0.525482745498759,0.707106781186548));
#1349=DIRECTION('',(0.,0.,1.));
#1350=DIRECTION('',(1.,0.,0.));
#1351=DIRECTION('',(0.,0.,1.));
#1352=DIRECTION('',(1.,0.,0.));
#1353=DIRECTION('',(0.,6.12323399573677E-17,1.));
#1354=DIRECTION('',(0.,6.12323399573677E-17,1.));
#1355=DIRECTION('',(0.,0.,-1.));
#1356=DIRECTION('',(-0.5,0.866025403784439,0.));
#1357=DIRECTION('',(-0.866025403784439,-0.5,0.));
#1358=DIRECTION('',(0.,-1.,0.));
#1359=DIRECTION('',(1.,0.,0.));
#1360=DIRECTION('',(0.,0.,1.));
#1361=DIRECTION('',(1.,0.,0.));
#1362=DIRECTION('',(0.,6.12323399573677E-17,1.));
#1363=DIRECTION('',(0.,6.12323399573677E-17,1.));
#1364=DIRECTION('',(0.,0.,-1.));
#1365=DIRECTION('',(-0.5,0.866025403784439,0.));
#1366=DIRECTION('',(-0.866025403784439,-0.5,0.));
#1367=DIRECTION('',(0.,-1.,0.));
#1368=DIRECTION('',(1.,0.,0.));
#1369=DIRECTION('',(-0.743144825477395,-0.669130606358858,4.09724327644451E-17));
#1370=DIRECTION('',(0.669130606358858,-0.743144825477395,0.));
#1371=DIRECTION('',(0.743144825477395,0.669130606358858,-4.09724327644451E-17));
#1372=DIRECTION('',(-0.669130606358858,0.743144825477395,0.));
#1373=DIRECTION('',(-0.308670150327702,-0.951169142842993,5.82423123115201E-17));
#1374=DIRECTION('',(0.951169142842993,-0.308670150327702,0.));
#1375=DIRECTION('',(0.,6.12323399573677E-17,1.));
#1376=DIRECTION('',(-0.676318488708842,0.736609327819427,-4.51043127768072E-17));
#1377=DIRECTION('',(-0.736609327819427,-0.676318488708842,0.));
#1378=DIRECTION('',(-0.308670150327701,-0.951169142842993,5.82423123115202E-17));
#1379=DIRECTION('',(0.951169142842993,-0.308670150327701,0.));
#1380=DIRECTION('',(0.,6.12323399573677E-17,1.));
#1381=DIRECTION('',(0.676318488708847,-0.736609327819422,4.51043127768069E-17));
#1382=DIRECTION('',(0.736609327819422,0.676318488708847,0.));
#1383=CARTESIAN_POINT('',(0.,0.,0.));
#1384=CARTESIAN_POINT('',(0.,0.,0.0455));
#1385=CARTESIAN_POINT('',(0.00282644677273662,0.0107341137799488,0.0335));
#1386=CARTESIAN_POINT('',(0.00282644677273663,0.0107341137799488,0.0345));
#1387=CARTESIAN_POINT('',(0.00282644677273662,0.0107341137799488,0.0395));
#1388=CARTESIAN_POINT('',(0.,0.,0.0345));
#1389=CARTESIAN_POINT('',(0.00961288198200728,0.00555,0.0345));
#1390=CARTESIAN_POINT('',(0.00961288198200728,0.00555,0.03575));
#1391=CARTESIAN_POINT('',(0.00961288198200728,0.00555,0.0395));
#1392=CARTESIAN_POINT('',(0.,0.,0.0395));
#1393=CARTESIAN_POINT('',(0.,0.,0.0345));
#1394=CARTESIAN_POINT('',(-6.55831893748633E-06,-0.0110999980625428,0.0345));
#1395=CARTESIAN_POINT('',(-0.000786296942962219,-0.0108469599566443,0.0342474226386813));
#1396=CARTESIAN_POINT('',(-0.001577863548742,-0.0105900834746443,0.0340736023901705));
#1397=CARTESIAN_POINT('',(-0.00238448117604497,-0.0103283226867235,0.034));
#1398=CARTESIAN_POINT('',(-6.55831893748866E-06,-0.0110999980625428,0.0345));
#1399=CARTESIAN_POINT('',(-0.00238448117604497,-0.0103283226867235,0.034));
#1400=CARTESIAN_POINT('',(0.,0.,0.0345));
#1401=CARTESIAN_POINT('',(0.0111,0.,0.0345));
#1402=CARTESIAN_POINT('',(0.0101,0.,0.0335));
#1403=CARTESIAN_POINT('',(0.0091,0.,0.0325));
#1404=CARTESIAN_POINT('',(0.,0.,0.0325));
#1405=CARTESIAN_POINT('',(-0.0078808311744384,-0.00455,0.0325));
#1406=CARTESIAN_POINT('',(-0.00874685657822284,-0.00505,0.0335));
#1407=CARTESIAN_POINT('',(-0.00961288198200728,-0.00555,0.0345));
#1408=CARTESIAN_POINT('',(0.,0.,0.0345));
#1409=CARTESIAN_POINT('',(-0.00282644677273663,-0.0107341137799488,0.0345));
#1410=CARTESIAN_POINT('',(-0.00282644677273662,-0.0107341137799488,0.0345));
#1411=CARTESIAN_POINT('',(-0.00267972082531159,-0.0105993972249594,0.0343323625306419));
#1412=CARTESIAN_POINT('',(-0.00253243227970028,-0.0104641641199608,0.0341656415828626));
#1413=CARTESIAN_POINT('',(-0.00238448117604497,-0.0103283226867235,0.034));
#1414=CARTESIAN_POINT('',(0.,0.,0.0455));
#1415=CARTESIAN_POINT('',(-0.00282644677273663,-0.0107341137799488,0.0335));
#1416=CARTESIAN_POINT('',(-0.00282644677273663,-0.0107341137799488,0.0395));
#1417=CARTESIAN_POINT('',(-0.00961288198200728,-0.00555,0.03825));
#1418=CARTESIAN_POINT('',(-0.00961288198200728,-0.00555,0.0395));
#1419=CARTESIAN_POINT('',(0.,0.,0.0395));
#1420=CARTESIAN_POINT('',(0.,0.,0.0395));
#1421=CARTESIAN_POINT('',(0.,0.,0.0395));
#1422=CARTESIAN_POINT('',(-6.55831893748866E-06,-0.0110999980625428,0.0395));
#1423=CARTESIAN_POINT('',(0.00742734973058333,-0.00824890756279909,0.0395));
#1424=CARTESIAN_POINT('',(-6.55831893748599E-06,-0.0110999980625427,0.0395));
#1425=CARTESIAN_POINT('',(-0.000786296942962219,-0.0108469599566443,0.0397525773613187));
#1426=CARTESIAN_POINT('',(-0.001577863548742,-0.0105900834746443,0.0399263976098295));
#1427=CARTESIAN_POINT('',(-0.00238448117604497,-0.0103283226867235,0.04));
#1428=CARTESIAN_POINT('',(-0.00238448117604497,-0.0103283226867235,0.04));
#1429=CARTESIAN_POINT('',(-0.00282644677273662,-0.0107341137799488,0.0395));
#1430=CARTESIAN_POINT('',(-0.00267972082531158,-0.0105993972249594,0.0396676374693581));
#1431=CARTESIAN_POINT('',(-0.00253243227970027,-0.0104641641199608,0.0398343584171374));
#1432=CARTESIAN_POINT('',(-0.00238448117604497,-0.0103283226867235,0.04));
#1433=CARTESIAN_POINT('',(-0.00874685657822284,-0.00505,0.0405));
#1434=CARTESIAN_POINT('',(-0.0078808311744384,-0.00455,0.0415));
#1435=CARTESIAN_POINT('',(0.,0.,0.0415));
#1436=CARTESIAN_POINT('',(0.00608908851786561,-0.00676261791184429,0.0415));
#1437=CARTESIAN_POINT('',(3.71309700449331E-18,3.34328755971596E-18,0.0506));
#1438=CARTESIAN_POINT('',(0.,5.57214293612046E-19,0.035));
#1439=CARTESIAN_POINT('',(0.,5.57214293612046E-19,0.));
#1440=CARTESIAN_POINT('',(0.0091,5.57214293612046E-19,0.));
#1441=CARTESIAN_POINT('',(-0.0091,0.,0.03475));
#1442=CARTESIAN_POINT('',(-0.0091,0.,0.0325));
#1443=CARTESIAN_POINT('',(-0.0091,3.96785562923742E-18,0.0466));
#1444=CARTESIAN_POINT('',(0.,0.,0.0466));
#1445=CARTESIAN_POINT('',(0.00608908851786561,-0.00676261791184429,0.0466));
#1446=CARTESIAN_POINT('',(0.00608908851786561,-0.00676261791184429,0.0345));
#1447=CARTESIAN_POINT('',(-0.0078808311744384,-0.00455,0.03925));
#1448=CARTESIAN_POINT('',(0.0091,0.,0.03925));
#1449=CARTESIAN_POINT('',(0.0091,3.8727505564973E-18,0.0466));
#1450=CARTESIAN_POINT('',(0.,0.,0.0466));
#1451=CARTESIAN_POINT('',(-0.00608908851786561,0.00676261791184429,0.0466));
#1452=CARTESIAN_POINT('',(-0.00608908851786561,0.00676261791184429,0.0345));
#1453=CARTESIAN_POINT('',(-0.00608908851786561,0.0067626179118443,0.0415));
#1454=CARTESIAN_POINT('',(0.,0.,0.0415));
#1455=CARTESIAN_POINT('',(0.0078808311744384,0.00455,0.0415));
#1456=CARTESIAN_POINT('',(0.0078808311744384,0.00455,0.03475));
#1457=CARTESIAN_POINT('',(0.0078808311744384,0.00455,0.0325));
#1458=CARTESIAN_POINT('',(0.,0.,0.0325));
#1459=CARTESIAN_POINT('',(0.,0.,0.0465));
#1460=CARTESIAN_POINT('',(0.,0.,0.05));
#1461=CARTESIAN_POINT('',(-0.0125,0.,0.05));
#1462=CARTESIAN_POINT('',(0.,1.91110413673443E-18,0.0375));
#1463=CARTESIAN_POINT('',(-0.0111,3.46301638962142E-18,0.0486));
#1464=CARTESIAN_POINT('',(0.,0.,0.0486));
#1465=CARTESIAN_POINT('',(-0.00742734973058332,0.00824890756279908,0.0486));
#1466=CARTESIAN_POINT('',(1.38049612899468E-18,1.24300429768432E-18,0.0375));
#1467=CARTESIAN_POINT('',(-2.55932309842373E-34,2.30523331047636E-18,0.0375));
#1468=CARTESIAN_POINT('',(0.0111,3.59657578163257E-18,0.0486));
#1469=CARTESIAN_POINT('',(0.,0.,0.0486));
#1470=CARTESIAN_POINT('',(0.00742734973058332,-0.00824890756279908,0.0486));
#1471=CARTESIAN_POINT('',(3.31422229120416E-18,2.98413915470228E-18,0.0375));
#1472=CARTESIAN_POINT('',(1.04083408558608E-17,1.26284470306498E-18,0.006));
#1473=CARTESIAN_POINT('',(-0.00939692620785909,-0.00342020143325668,0.006));
#1474=CARTESIAN_POINT('',(-0.00939692620785909,-0.00342020143325668,0.0075));
#1475=CARTESIAN_POINT('',(-0.00939692620785909,-0.00342020143325668,0.0045));
#1476=CARTESIAN_POINT('',(0.,0.,0.0075));
#1477=CARTESIAN_POINT('',(-0.00961261695938319,0.00275637355817,0.0075));
#1478=CARTESIAN_POINT('',(-0.00961261695938319,0.00275637355816999,0.006));
#1479=CARTESIAN_POINT('',(-0.00961261695938319,0.00275637355816999,0.));
#1480=CARTESIAN_POINT('',(1.04083408558608E-17,1.26284470306498E-18,0.));
#1481=CARTESIAN_POINT('',(-0.00999390827019096,-0.000348994967025012,0.));
#1482=CARTESIAN_POINT('',(-0.00999390827019096,-0.000348994967025012,0.006));
#1483=CARTESIAN_POINT('',(-0.00999390827019096,-0.000348994967025012,0.0045));
#1484=CARTESIAN_POINT('',(0.,0.,0.0045));
#1485=CARTESIAN_POINT('',(-1.86396037493708E-15,4.67724817210247E-16,0.006));
#1486=CARTESIAN_POINT('',(0.00939692620785909,0.00342020143325668,0.006));
#1487=CARTESIAN_POINT('',(0.00939692620785909,0.00342020143325668,0.0075));
#1488=CARTESIAN_POINT('',(0.00939692620785909,0.00342020143325668,0.0045));
#1489=CARTESIAN_POINT('',(0.,0.,0.0075));
#1490=CARTESIAN_POINT('',(0.00961261695938319,-0.00275637355817,0.0075));
#1491=CARTESIAN_POINT('',(0.00961261695938319,-0.00275637355816999,0.006));
#1492=CARTESIAN_POINT('',(0.00961261695938319,-0.00275637355816999,0.));
#1493=CARTESIAN_POINT('',(-1.86396037493708E-15,4.67724817210247E-16,0.));
#1494=CARTESIAN_POINT('',(0.00999390827019096,0.000348994967025012,0.));
#1495=CARTESIAN_POINT('',(0.00999390827019096,0.000348994967025012,0.006));
#1496=CARTESIAN_POINT('',(0.00999390827019096,0.000348994967025012,0.00449999999999808));
#1497=CARTESIAN_POINT('',(0.,0.,0.0045));
#1498=CARTESIAN_POINT('',(0.,0.,0.0045));
#1499=CARTESIAN_POINT('',(0.00998423409585028,0.00363396402283523,0.003875));
#1500=CARTESIAN_POINT('',(0.0105715419838415,0.00384772661241377,0.00325));
#1501=CARTESIAN_POINT('',(-5.67571652152538E-21,1.62531255872428E-19,0.0145));
#1502=CARTESIAN_POINT('',(0.0114929945107196,0.000401344212078764,0.003));
#1503=CARTESIAN_POINT('',(0.,0.,0.003));
#1504=CARTESIAN_POINT('',(0.0081317279836453,0.00813172798364529,0.003));
#1505=CARTESIAN_POINT('',(0.00760139789775539,0.00760139789775538,0.00375));
#1506=CARTESIAN_POINT('',(0.00707106781186547,0.00707106781186547,0.0045));
#1507=CARTESIAN_POINT('',(0.,0.,0.0045));
#1508=CARTESIAN_POINT('',(0.00866025403784439,0.005,0.0045));
#1509=CARTESIAN_POINT('',(0.00920151991520966,0.0053125,0.003875));
#1510=CARTESIAN_POINT('',(0.00974278579257494,0.005625,0.00325));
#1511=CARTESIAN_POINT('',(0.,0.,0.00325));
#1512=CARTESIAN_POINT('',(0.,0.,0.009));
#1513=CARTESIAN_POINT('',(0.00998423409585028,0.00363396402283523,0.008125));
#1514=CARTESIAN_POINT('',(0.0105715419838415,0.00384772661241377,0.00875));
#1515=CARTESIAN_POINT('',(0.,0.,0.00875));
#1516=CARTESIAN_POINT('',(0.00974278579257494,0.005625,0.00875));
#1517=CARTESIAN_POINT('',(0.00920151991520966,0.0053125,0.008125));
#1518=CARTESIAN_POINT('',(0.00866025403784439,0.005,0.0075));
#1519=CARTESIAN_POINT('',(0.,0.,0.0075));
#1520=CARTESIAN_POINT('',(0.00707106781186548,0.00707106781186547,0.0075));
#1521=CARTESIAN_POINT('',(0.00760139789775539,0.00760139789775538,0.00825));
#1522=CARTESIAN_POINT('',(0.0081317279836453,0.00813172798364529,0.009));
#1523=CARTESIAN_POINT('',(0.,0.,0.009));
#1524=CARTESIAN_POINT('',(0.0110545095032907,-0.0031698295918955,0.009));
#1525=CARTESIAN_POINT('',(0.0103335632313369,-0.00296310157503275,0.00825));
#1526=CARTESIAN_POINT('',(0.,7.04171909509728E-19,0.035));
#1527=CARTESIAN_POINT('',(-0.0081317279836453,-0.00813172798364529,0.0045));
#1528=CARTESIAN_POINT('',(-0.0081317279836453,-0.00813172798364529,0.003));
#1529=CARTESIAN_POINT('',(-0.0081317279836453,-0.0081317279836453,0.009));
#1530=CARTESIAN_POINT('',(0.,0.,0.003));
#1531=CARTESIAN_POINT('',(-0.0114929945107196,-0.000401344212078763,0.003));
#1532=CARTESIAN_POINT('',(-0.0114929945107196,-0.000401344212078763,0.006));
#1533=CARTESIAN_POINT('',(-0.0114929945107196,-0.000401344212078763,0.));
#1534=CARTESIAN_POINT('',(0.,7.04171909509728E-19,0.));
#1535=CARTESIAN_POINT('',(0.0110545095032907,-0.00316982959189549,0.));
#1536=CARTESIAN_POINT('',(0.0110545095032907,-0.00316982959189549,0.006));
#1537=CARTESIAN_POINT('',(0.0081317279836453,0.00813172798364529,0.0045));
#1538=CARTESIAN_POINT('',(0.0114929945107196,0.000401344212078765,0.006));
#1539=CARTESIAN_POINT('',(0.0114929945107196,0.000401344212078765,0.));
#1540=CARTESIAN_POINT('',(0.,7.04171909509728E-19,0.));
#1541=CARTESIAN_POINT('',(-0.0110545095032907,0.00316982959189549,0.));
#1542=CARTESIAN_POINT('',(-0.0110545095032907,0.00316982959189549,0.006));
#1543=CARTESIAN_POINT('',(-0.0110545095032907,0.0031698295918955,0.009));
#1544=CARTESIAN_POINT('',(0.,0.,0.009));
#1545=CARTESIAN_POINT('',(0.,7.04171909509728E-19,0.035));
#1546=CARTESIAN_POINT('',(0.0115,7.04171909509728E-19,0.035));
#1547=CARTESIAN_POINT('',(0.,0.,0.));
#1548=CARTESIAN_POINT('',(0.0107434513904553,0.000375169589551888,0.));
#1549=CARTESIAN_POINT('',(0.0103335632313369,-0.00296310157503274,0.));
#1550=CARTESIAN_POINT('',(-0.0107434513904553,-0.000375169589551887,0.));
#1551=CARTESIAN_POINT('',(-0.0103335632313369,0.00296310157503274,0.));
#1552=CARTESIAN_POINT('',(0.,7.65404249467096E-19,0.05));
#1553=CARTESIAN_POINT('',(0.,7.65404249467096E-19,0.035));
#1554=CARTESIAN_POINT('',(0.0125,7.65404249467096E-19,0.035));
#1555=CARTESIAN_POINT('',(0.,0.,0.035));
#1556=CARTESIAN_POINT('',(1.04083408558608E-17,1.26284470306498E-18,0.006));
#1557=CARTESIAN_POINT('',(0.,0.,0.0075));
#1558=CARTESIAN_POINT('',(-0.00707106781186548,-0.00707106781186548,0.0075));
#1559=CARTESIAN_POINT('',(-0.00866025403784439,-0.005,0.0075));
#1560=CARTESIAN_POINT('',(-0.00866025403784439,-0.005,0.006));
#1561=CARTESIAN_POINT('',(-0.00866025403784439,-0.005,0.0045));
#1562=CARTESIAN_POINT('',(0.,0.,0.0045));
#1563=CARTESIAN_POINT('',(-0.00707106781186548,-0.00707106781186547,0.0045));
#1564=CARTESIAN_POINT('',(-0.00707106781186548,-0.00707106781186547,0.00474440153129399));
#1565=CARTESIAN_POINT('',(-0.0103335632313369,0.00296310157503274,0.006));
#1566=CARTESIAN_POINT('',(-0.0103335632313369,0.00296310157503275,0.00825));
#1567=CARTESIAN_POINT('',(-0.0107434513904553,-0.000375169589551887,0.006));
#1568=CARTESIAN_POINT('',(1.5135244057401E-20,-4.33416682326475E-19,0.0145));
#1569=CARTESIAN_POINT('',(0.0107434513904553,0.000375169589551888,0.006));
#1570=CARTESIAN_POINT('',(-1.86396037493708E-15,4.67724817210247E-16,0.006));
#1571=CARTESIAN_POINT('',(0.00866025403784439,0.005,0.006));
#1572=CARTESIAN_POINT('',(0.00707106781186548,0.00707106781186547,0.00549440153129399));
#1573=CARTESIAN_POINT('',(0.0103335632313369,-0.00296310157503274,0.006));
#1574=CARTESIAN_POINT('',(0.,0.,0.0045));
#1575=CARTESIAN_POINT('',(0.,0.,0.0045));
#1576=CARTESIAN_POINT('',(-0.00920151991520966,-0.0053125,0.003875));
#1577=CARTESIAN_POINT('',(-0.00974278579257494,-0.005625,0.00325));
#1578=CARTESIAN_POINT('',(0.,0.,0.00325));
#1579=CARTESIAN_POINT('',(-0.0105715419838415,-0.00384772661241377,0.00325));
#1580=CARTESIAN_POINT('',(-0.00998423409585028,-0.00363396402283523,0.003875));
#1581=CARTESIAN_POINT('',(-0.00760139789775539,-0.00760139789775538,0.00375));
#1582=CARTESIAN_POINT('',(0.,0.,0.009));
#1583=CARTESIAN_POINT('',(0.,0.,0.00875));
#1584=CARTESIAN_POINT('',(-0.0105715419838415,-0.00384772661241377,0.00875));
#1585=CARTESIAN_POINT('',(-0.00974278579257494,-0.005625,0.00875));
#1586=CARTESIAN_POINT('',(-0.00920151991520966,-0.0053125,0.008125));
#1587=CARTESIAN_POINT('',(-0.00760139789775539,-0.00760139789775539,0.00825));
#1588=CARTESIAN_POINT('',(-0.00998423409585028,-0.00363396402283523,0.008125));
#1589=CARTESIAN_POINT('',(0.,0.,0.0045));
#1590=CARTESIAN_POINT('',(0.,0.,0.0025));
#1591=CARTESIAN_POINT('',(0.,0.,0.00839644660940673));
#1592=CARTESIAN_POINT('',(-0.0105715419838415,-0.00384772661241377,0.00839644660940673));
#1593=CARTESIAN_POINT('',(-0.00974278579257494,-0.005625,0.00839644660940673));
#1594=CARTESIAN_POINT('',(-0.00974278579257494,-0.005625,0.00857322330470337));
#1595=CARTESIAN_POINT('',(-0.0105715419838415,-0.00384772661241377,0.00857322330470337));
#1596=CARTESIAN_POINT('',(0.,0.,0.00839644660940673));
#1597=CARTESIAN_POINT('',(0.,0.,0.00739644660940672));
#1598=CARTESIAN_POINT('',(-0.00963184936305556,-0.0035057064690881,0.00739644660940672));
#1599=CARTESIAN_POINT('',(-0.0088767603887905,-0.005125,0.00739644660940672));
#1600=CARTESIAN_POINT('',(-0.00930977309068272,-0.005375,0.00789644660940673));
#1601=CARTESIAN_POINT('',(-0.0101016956734485,-0.00367671654075094,0.00789644660940673));
#1602=CARTESIAN_POINT('',(0.,0.,0.0025));
#1603=CARTESIAN_POINT('',(0.,0.,0.00460355339059328));
#1604=CARTESIAN_POINT('',(-0.00963184936305556,-0.0035057064690881,0.00460355339059328));
#1605=CARTESIAN_POINT('',(-0.0088767603887905,-0.005125,0.00460355339059328));
#1606=CARTESIAN_POINT('',(-0.0088767603887905,-0.005125,0.006));
#1607=CARTESIAN_POINT('',(-0.00963184936305556,-0.0035057064690881,0.006));
#1608=CARTESIAN_POINT('',(0.,0.,0.00460355339059328));
#1609=CARTESIAN_POINT('',(0.,0.,0.00360355339059328));
#1610=CARTESIAN_POINT('',(-0.0105715419838415,-0.00384772661241377,0.00360355339059328));
#1611=CARTESIAN_POINT('',(-0.00974278579257494,-0.005625,0.00360355339059328));
#1612=CARTESIAN_POINT('',(-0.00930977309068272,-0.005375,0.00410355339059328));
#1613=CARTESIAN_POINT('',(-0.0101016956734485,-0.00367671654075094,0.00410355339059328));
#1614=CARTESIAN_POINT('',(0.,0.,0.0025));
#1615=CARTESIAN_POINT('',(-0.0105715419838415,-0.00384772661241377,0.00342677669529664));
#1616=CARTESIAN_POINT('',(-0.00974278579257494,-0.005625,0.00342677669529664));
#1617=CARTESIAN_POINT('',(0.,0.,0.00503622277516017));
#1618=CARTESIAN_POINT('',(0.,0.,0.00503622277516017));
#1619=CARTESIAN_POINT('',(0.,0.,0.0025));
#1620=CARTESIAN_POINT('',(0.,0.,0.00360355339059328));
#1621=CARTESIAN_POINT('',(0.0105715419838415,0.00384772661241377,0.00360355339059328));
#1622=CARTESIAN_POINT('',(0.00974278579257494,0.005625,0.00360355339059328));
#1623=CARTESIAN_POINT('',(0.0105715419838415,0.00384772661241377,0.00342677669529664));
#1624=CARTESIAN_POINT('',(0.00974278579257494,0.005625,0.00342677669529664));
#1625=CARTESIAN_POINT('',(0.,0.,0.00460355339059328));
#1626=CARTESIAN_POINT('',(0.,0.,0.00460355339059328));
#1627=CARTESIAN_POINT('',(0.00963184936305556,0.0035057064690881,0.00460355339059328));
#1628=CARTESIAN_POINT('',(0.0088767603887905,0.005125,0.00460355339059328));
#1629=CARTESIAN_POINT('',(0.0101016956734485,0.00367671654075094,0.00410355339059328));
#1630=CARTESIAN_POINT('',(0.00930977309068272,0.005375,0.00410355339059328));
#1631=CARTESIAN_POINT('',(0.,0.,0.0025));
#1632=CARTESIAN_POINT('',(0.,0.,0.00739644660940672));
#1633=CARTESIAN_POINT('',(0.00963184936305556,0.0035057064690881,0.00739644660940672));
#1634=CARTESIAN_POINT('',(0.0088767603887905,0.005125,0.00739644660940672));
#1635=CARTESIAN_POINT('',(0.00963184936305556,0.0035057064690881,0.006));
#1636=CARTESIAN_POINT('',(0.0088767603887905,0.005125,0.006));
#1637=CARTESIAN_POINT('',(0.,0.,0.00839644660940673));
#1638=CARTESIAN_POINT('',(0.,0.,0.00839644660940673));
#1639=CARTESIAN_POINT('',(0.0105715419838415,0.00384772661241377,0.00839644660940673));
#1640=CARTESIAN_POINT('',(0.00974278579257494,0.005625,0.00839644660940673));
#1641=CARTESIAN_POINT('',(0.0101016956734485,0.00367671654075094,0.00789644660940673));
#1642=CARTESIAN_POINT('',(0.00930977309068272,0.005375,0.00789644660940673));
#1643=CARTESIAN_POINT('',(0.,0.,0.0025));
#1644=CARTESIAN_POINT('',(0.0105715419838415,0.00384772661241377,0.00857322330470337));
#1645=CARTESIAN_POINT('',(0.00974278579257494,0.005625,0.00857322330470337));
#1646=CARTESIAN_POINT('',(0.,0.,0.00503622277516017));
#1647=CARTESIAN_POINT('',(0.,0.,0.00503622277516017));
#1648=CARTESIAN_POINT('',(0.,0.,0.0345));
#1649=CARTESIAN_POINT('',(0.00282644677273662,0.0107341137799488,0.0345));
#1650=CARTESIAN_POINT('',(0.00267972082531158,0.0105993972249594,0.0343323625306419));
#1651=CARTESIAN_POINT('',(0.00253243227970027,0.0104641641199608,0.0341656415828626));
#1652=CARTESIAN_POINT('',(0.00238448117604497,0.0103283226867235,0.034));
#1653=CARTESIAN_POINT('',(0.00238448117604497,0.0103283226867235,0.034));
#1654=CARTESIAN_POINT('',(0.00238448117604498,0.0103283226867235,0.034));
#1655=CARTESIAN_POINT('',(0.00157786354874201,0.0105900834746444,0.0340736023901706));
#1656=CARTESIAN_POINT('',(0.000786296942962239,0.0108469599566443,0.0342474226386813));
#1657=CARTESIAN_POINT('',(6.55831893751327E-06,0.0110999980625428,0.0345));
#1658=CARTESIAN_POINT('',(6.55831893750991E-06,0.0110999980625428,0.0345));
#1659=CARTESIAN_POINT('',(0.,0.,0.0345));
#1660=CARTESIAN_POINT('',(-0.0111,0.,0.0345));
#1661=CARTESIAN_POINT('',(-0.0101,0.,0.0335));
#1662=CARTESIAN_POINT('',(0.00874685657822284,0.00505,0.0335));
#1663=CARTESIAN_POINT('',(0.,0.,0.0395));
#1664=CARTESIAN_POINT('',(0.00238448117604498,0.0103283226867235,0.04));
#1665=CARTESIAN_POINT('',(0.00157786354874201,0.0105900834746444,0.0399263976098295));
#1666=CARTESIAN_POINT('',(0.000786296942962235,0.0108469599566443,0.0397525773613187));
#1667=CARTESIAN_POINT('',(6.55831893750571E-06,0.0110999980625428,0.0395));
#1668=CARTESIAN_POINT('',(0.00238448117604497,0.0103283226867235,0.04));
#1669=CARTESIAN_POINT('',(6.55831893750037E-06,0.0110999980625428,0.0395));
#1670=CARTESIAN_POINT('',(0.00282644677273662,0.0107341137799488,0.0395));
#1671=CARTESIAN_POINT('',(0.00267972082531158,0.0105993972249594,0.0396676374693581));
#1672=CARTESIAN_POINT('',(0.00253243227970027,0.0104641641199608,0.0398343584171374));
#1673=CARTESIAN_POINT('',(0.00238448117604497,0.0103283226867235,0.04));
#1674=CARTESIAN_POINT('',(0.00874685657822284,0.00505,0.0405));
#1675=CARTESIAN_POINT('',(1.77937084228382E-18,1.602152702698E-18,0.0506));
#1676=CARTESIAN_POINT('',(-0.00742734973058333,0.00824890756279909,0.0395));
#1677=CARTESIAN_POINT('',(0.,0.,0.0395));
#1678=CARTESIAN_POINT('',(0.,0.,0.0455));
#1679=CARTESIAN_POINT('',(6.55831893748866E-06,0.0110999980625428,0.0335));
#1680=CARTESIAN_POINT('',(-0.00742734973058333,0.00824890756279908,0.0345));
#1681=CARTESIAN_POINT('',(-0.0111,0.,0.03575));
#1682=CARTESIAN_POINT('',(0.,0.,0.0215));
#1683=CARTESIAN_POINT('',(0.,0.,0.0215));
#1684=CARTESIAN_POINT('',(0.,0.,0.0455));
#1685=CARTESIAN_POINT('',(-6.55831893748866E-06,-0.0110999980625428,0.0335));
#1686=CARTESIAN_POINT('',(0.00742734973058332,-0.00824890756279908,0.0345));
#1687=CARTESIAN_POINT('',(0.0111,0.,0.03825));
#1688=CARTESIAN_POINT('',(0.,0.,0.0215));
#1689=CARTESIAN_POINT('',(0.,0.,0.0215));
#1690=CARTESIAN_POINT('',(0.00659093647263475,-0.00731997653095233,0.0345));
#1691=CARTESIAN_POINT('',(-0.00659093647263475,0.00731997653095234,0.0345));
#1692=CARTESIAN_POINT('',(-0.00119551974749123,-0.0107141603746331,0.0335));
#1693=CARTESIAN_POINT('',(-0.00238448117604497,-0.0103283226867235,0.0335));
#1694=CARTESIAN_POINT('',(-0.00260546397439081,-0.0105312182333362,0.0335));
#1695=CARTESIAN_POINT('',(0.00119551974749123,0.0107141603746331,0.0335));
#1696=CARTESIAN_POINT('',(0.00238448117604497,0.0103283226867235,0.0335));
#1697=CARTESIAN_POINT('',(0.0026054639743908,0.0105312182333362,0.0335));
#1698=MECHANICAL_DESIGN_GEOMETRIC_PRESENTATION_REPRESENTATION('',(#983),#1699);
#1699=(
GEOMETRIC_REPRESENTATION_CONTEXT(3)
GLOBAL_UNCERTAINTY_ASSIGNED_CONTEXT((#1700))
GLOBAL_UNIT_ASSIGNED_CONTEXT((#1703,#1702,#1701))
REPRESENTATION_CONTEXT('Insulator','TOP_LEVEL_ASSEMBLY_PART')
);
#1700=UNCERTAINTY_MEASURE_WITH_UNIT(LENGTH_MEASURE(2.E-05),#1703,'DISTANCE_ACCURACY_VALUE','Maximum Tolerance applied to model');
#1701=(
NAMED_UNIT(*)
SI_UNIT($,.STERADIAN.)
SOLID_ANGLE_UNIT()
);
#1702=(
NAMED_UNIT(*)
PLANE_ANGLE_UNIT()
SI_UNIT($,.RADIAN.)
);
#1703=(
LENGTH_UNIT()
NAMED_UNIT(*)
SI_UNIT($,.METRE.)
);
#1704=PRODUCT_DEFINITION_SHAPE('','',#1705);
#1705=PRODUCT_DEFINITION('','',#1707,#1706);
#1706=PRODUCT_DEFINITION_CONTEXT('',#1713,'design');
#1707=PRODUCT_DEFINITION_FORMATION_WITH_SPECIFIED_SOURCE('','',#1709,.NOT_KNOWN.);
#1708=PRODUCT_RELATED_PRODUCT_CATEGORY('','',(#1709));
#1709=PRODUCT('Insulator','Insulator','Insulator',(#1711));
#1710=PRODUCT_CATEGORY('','');
#1711=PRODUCT_CONTEXT('',#1713,'mechanical');
#1712=APPLICATION_PROTOCOL_DEFINITION('international standard','ap242_managed_model_based_3d_engineering',2020,#1713);
#1713=APPLICATION_CONTEXT('managed model based 3d engineering');
ENDSEC;
END-ISO-10303-21;
