ISO-10303-21;
HEADER;
/* Generated by software containing ST-Developer
 * from STEP Tools, Inc. (www.steptools.com) 
 */
/* OPTION: using custom renumber hook */

FILE_DESCRIPTION(
/* description */ ('STEP AP242 Edition 2',
'CAx-IF Rec.Pracs.---Representation and Presentation of Product Manufa
cturing Information (PMI)---4.0---2014-10-13',
'CAx-IF Rec.Pracs.---3D Tessellated Geometry---0.4---2014-09-14','2;1',
'CAx-IF Rec.Pracs.---User Defined Attributes---1.5---2016-08-15'),
/* implementation_level */ '2;1');

FILE_NAME(
/* name */ '6995dfdd288c2a7ecebca921',
/* time_stamp */ '2026-02-18T15:50:53Z',
/* author */ (''),
/* organization */ (''),
/* preprocessor_version */ 'ST-DEVELOPER v20',
/* originating_system */ 'ONSHAPE BY PTC INC, 1.210',
/* authorisation */ '  ');

FILE_SCHEMA (('AP242_MANAGED_MODEL_BASED_3D_ENGINEERING_MIM_LF { 1 0 10303 442 3 1 4 }'));
ENDSEC;

DATA;
#10=SHAPE_REPRESENTATION_RELATIONSHIP('','',#171,#11);
#11=ADVANCED_BREP_SHAPE_REPRESENTATION('',(#169),#291);
#12=TOROIDAL_SURFACE('',#190,0.00355,0.0005);
#13=TOROIDAL_SURFACE('',#191,0.00355,0.0005);
#14=B_SPLINE_CURVE_WITH_KNOTS('',3,(#254,#255,#256,#257),.UNSPECIFIED.,
 .F.,.F.,(4,4),(1.40739966207869E-16,0.000781296136706067),
 .UNSPECIFIED.);
#15=B_SPLINE_CURVE_WITH_KNOTS('',3,(#272,#273,#274,#275),.UNSPECIFIED.,
 .F.,.F.,(4,4),(0.,0.000781296604897154),.UNSPECIFIED.);
#16=PLANE('',#176);
#17=PLANE('',#181);
#18=PLANE('',#182);
#19=PLANE('',#187);
#20=PLANE('',#189);
#21=LINE('',#245,#29);
#22=LINE('',#249,#30);
#23=LINE('',#251,#31);
#24=LINE('',#259,#32);
#25=LINE('',#260,#33);
#26=LINE('',#264,#34);
#27=LINE('',#270,#35);
#28=LINE('',#276,#36);
#29=VECTOR('',#198,1.);
#30=VECTOR('',#201,1.);
#31=VECTOR('',#204,1.);
#32=VECTOR('',#205,1.);
#33=VECTOR('',#206,1.);
#34=VECTOR('',#211,1.);
#35=VECTOR('',#218,1.);
#36=VECTOR('',#219,1.);
#37=ORIENTED_EDGE('',*,*,#75,.F.);
#38=ORIENTED_EDGE('',*,*,#76,.F.);
#39=ORIENTED_EDGE('',*,*,#77,.T.);
#40=ORIENTED_EDGE('',*,*,#78,.T.);
#41=ORIENTED_EDGE('',*,*,#79,.F.);
#42=ORIENTED_EDGE('',*,*,#80,.T.);
#43=ORIENTED_EDGE('',*,*,#81,.F.);
#44=ORIENTED_EDGE('',*,*,#76,.T.);
#45=ORIENTED_EDGE('',*,*,#82,.T.);
#46=ORIENTED_EDGE('',*,*,#83,.T.);
#47=ORIENTED_EDGE('',*,*,#84,.F.);
#48=ORIENTED_EDGE('',*,*,#85,.T.);
#49=ORIENTED_EDGE('',*,*,#79,.T.);
#50=ORIENTED_EDGE('',*,*,#86,.F.);
#51=ORIENTED_EDGE('',*,*,#87,.T.);
#52=ORIENTED_EDGE('',*,*,#88,.T.);
#53=ORIENTED_EDGE('',*,*,#84,.T.);
#54=ORIENTED_EDGE('',*,*,#89,.F.);
#55=ORIENTED_EDGE('',*,*,#78,.F.);
#56=ORIENTED_EDGE('',*,*,#81,.T.);
#57=ORIENTED_EDGE('',*,*,#90,.T.);
#58=ORIENTED_EDGE('',*,*,#87,.F.);
#59=ORIENTED_EDGE('',*,*,#77,.F.);
#60=ORIENTED_EDGE('',*,*,#91,.F.);
#61=ORIENTED_EDGE('',*,*,#92,.T.);
#62=ORIENTED_EDGE('',*,*,#93,.T.);
#63=ORIENTED_EDGE('',*,*,#91,.T.);
#64=ORIENTED_EDGE('',*,*,#92,.F.);
#65=ORIENTED_EDGE('',*,*,#75,.T.);
#66=ORIENTED_EDGE('',*,*,#89,.T.);
#67=ORIENTED_EDGE('',*,*,#86,.T.);
#68=ORIENTED_EDGE('',*,*,#82,.F.);
#69=ORIENTED_EDGE('',*,*,#80,.F.);
#70=ORIENTED_EDGE('',*,*,#85,.F.);
#71=ORIENTED_EDGE('',*,*,#88,.F.);
#72=ORIENTED_EDGE('',*,*,#90,.F.);
#73=ORIENTED_EDGE('',*,*,#93,.F.);
#74=ORIENTED_EDGE('',*,*,#83,.F.);
#75=EDGE_CURVE('',#94,#95,#108,.T.);
#76=EDGE_CURVE('',#96,#94,#21,.T.);
#77=EDGE_CURVE('',#96,#97,#109,.T.);
#78=EDGE_CURVE('',#97,#95,#22,.T.);
#79=EDGE_CURVE('',#98,#99,#23,.T.);
#80=EDGE_CURVE('',#98,#100,#14,.T.);
#81=EDGE_CURVE('',#96,#100,#24,.T.);
#82=EDGE_CURVE('',#94,#99,#25,.T.);
#83=EDGE_CURVE('',#101,#101,#110,.T.);
#84=EDGE_CURVE('',#102,#103,#26,.T.);
#85=EDGE_CURVE('',#102,#98,#111,.F.);
#86=EDGE_CURVE('',#103,#99,#112,.T.);
#87=EDGE_CURVE('',#97,#104,#27,.T.);
#88=EDGE_CURVE('',#104,#102,#15,.T.);
#89=EDGE_CURVE('',#95,#103,#28,.T.);
#90=EDGE_CURVE('',#100,#104,#113,.T.);
#91=EDGE_CURVE('',#105,#105,#114,.T.);
#92=EDGE_CURVE('',#106,#106,#115,.T.);
#93=EDGE_CURVE('',#107,#107,#116,.F.);
#94=VERTEX_POINT('',#243);
#95=VERTEX_POINT('',#244);
#96=VERTEX_POINT('',#246);
#97=VERTEX_POINT('',#248);
#98=VERTEX_POINT('',#252);
#99=VERTEX_POINT('',#253);
#100=VERTEX_POINT('',#258);
#101=VERTEX_POINT('',#263);
#102=VERTEX_POINT('',#265);
#103=VERTEX_POINT('',#266);
#104=VERTEX_POINT('',#271);
#105=VERTEX_POINT('',#281);
#106=VERTEX_POINT('',#283);
#107=VERTEX_POINT('',#286);
#108=CIRCLE('',#174,0.00325);
#109=CIRCLE('',#175,0.00325);
#110=CIRCLE('',#178,0.00405);
#111=CIRCLE('',#179,0.00405);
#112=CIRCLE('',#180,0.00405);
#113=CIRCLE('',#183,0.00355);
#114=CIRCLE('',#185,0.00255);
#115=CIRCLE('',#186,0.00255);
#116=CIRCLE('',#188,0.00355);
#117=EDGE_LOOP('',(#37,#38,#39,#40));
#118=EDGE_LOOP('',(#41,#42,#43,#44,#45));
#119=EDGE_LOOP('',(#46));
#120=EDGE_LOOP('',(#47,#48,#49,#50));
#121=EDGE_LOOP('',(#51,#52,#53,#54,#55));
#122=EDGE_LOOP('',(#56,#57,#58,#59));
#123=EDGE_LOOP('',(#60));
#124=EDGE_LOOP('',(#61));
#125=EDGE_LOOP('',(#62));
#126=EDGE_LOOP('',(#63));
#127=EDGE_LOOP('',(#64));
#128=EDGE_LOOP('',(#65,#66,#67,#68));
#129=EDGE_LOOP('',(#69,#70,#71,#72));
#130=EDGE_LOOP('',(#73));
#131=EDGE_LOOP('',(#74));
#132=FACE_BOUND('',#117,.T.);
#133=FACE_BOUND('',#118,.T.);
#134=FACE_BOUND('',#119,.T.);
#135=FACE_BOUND('',#120,.T.);
#136=FACE_BOUND('',#121,.T.);
#137=FACE_BOUND('',#122,.T.);
#138=FACE_BOUND('',#123,.T.);
#139=FACE_BOUND('',#124,.T.);
#140=FACE_BOUND('',#125,.T.);
#141=FACE_BOUND('',#126,.T.);
#142=FACE_BOUND('',#127,.T.);
#143=FACE_BOUND('',#128,.T.);
#144=FACE_BOUND('',#129,.T.);
#145=FACE_BOUND('',#130,.T.);
#146=FACE_BOUND('',#131,.T.);
#147=CYLINDRICAL_SURFACE('',#173,0.00325);
#148=CYLINDRICAL_SURFACE('',#177,0.00405);
#149=CYLINDRICAL_SURFACE('',#184,0.00255);
#150=ADVANCED_FACE('',(#132),#147,.F.);
#151=ADVANCED_FACE('',(#133),#16,.F.);
#152=ADVANCED_FACE('',(#134,#135),#148,.T.);
#153=ADVANCED_FACE('',(#136),#17,.T.);
#154=ADVANCED_FACE('',(#137),#18,.T.);
#155=ADVANCED_FACE('',(#138,#139),#149,.F.);
#156=ADVANCED_FACE('',(#140,#141),#19,.F.);
#157=ADVANCED_FACE('',(#142,#143),#20,.T.);
#158=ADVANCED_FACE('',(#144),#12,.T.);
#159=ADVANCED_FACE('',(#145,#146),#13,.T.);
#160=CLOSED_SHELL('',(#150,#151,#152,#153,#154,#155,#156,#157,#158,#159));
#161=STYLED_ITEM('',(#162),#169);
#162=PRESENTATION_STYLE_ASSIGNMENT((#163));
#163=SURFACE_STYLE_USAGE(.BOTH.,#164);
#164=SURFACE_SIDE_STYLE('',(#165));
#165=SURFACE_STYLE_FILL_AREA(#166);
#166=FILL_AREA_STYLE('',(#167));
#167=FILL_AREA_STYLE_COLOUR('',#168);
#168=COLOUR_RGB('',0.615686274509804,0.811764705882353,0.929411764705882);
#169=MANIFOLD_SOLID_BREP('Part 1',#160);
#170=SHAPE_DEFINITION_REPRESENTATION(#296,#171);
#171=SHAPE_REPRESENTATION('Part 1',(#172),#291);
#172=AXIS2_PLACEMENT_3D('',#240,#192,#193);
#173=AXIS2_PLACEMENT_3D('',#241,#194,#195);
#174=AXIS2_PLACEMENT_3D('',#242,#196,#197);
#175=AXIS2_PLACEMENT_3D('',#247,#199,#200);
#176=AXIS2_PLACEMENT_3D('',#250,#202,#203);
#177=AXIS2_PLACEMENT_3D('',#261,#207,#208);
#178=AXIS2_PLACEMENT_3D('',#262,#209,#210);
#179=AXIS2_PLACEMENT_3D('',#267,#212,#213);
#180=AXIS2_PLACEMENT_3D('',#268,#214,#215);
#181=AXIS2_PLACEMENT_3D('',#269,#216,#217);
#182=AXIS2_PLACEMENT_3D('',#277,#220,#221);
#183=AXIS2_PLACEMENT_3D('',#278,#222,#223);
#184=AXIS2_PLACEMENT_3D('',#279,#224,#225);
#185=AXIS2_PLACEMENT_3D('',#280,#226,#227);
#186=AXIS2_PLACEMENT_3D('',#282,#228,#229);
#187=AXIS2_PLACEMENT_3D('',#284,#230,#231);
#188=AXIS2_PLACEMENT_3D('',#285,#232,#233);
#189=AXIS2_PLACEMENT_3D('',#287,#234,#235);
#190=AXIS2_PLACEMENT_3D('',#288,#236,#237);
#191=AXIS2_PLACEMENT_3D('',#289,#238,#239);
#192=DIRECTION('',(0.,0.,1.));
#193=DIRECTION('',(1.,0.,0.));
#194=DIRECTION('',(0.,0.,-1.));
#195=DIRECTION('',(-1.,0.,0.));
#196=DIRECTION('',(0.,0.,1.));
#197=DIRECTION('',(1.,0.,0.));
#198=DIRECTION('',(0.,0.,-1.));
#199=DIRECTION('',(0.,0.,1.));
#200=DIRECTION('',(1.,0.,0.));
#201=DIRECTION('',(0.,0.,-1.));
#202=DIRECTION('',(-1.,-1.69306008169255E-16,0.));
#203=DIRECTION('',(1.69306008169255E-16,-1.,0.));
#204=DIRECTION('',(0.,0.,-1.));
#205=DIRECTION('',(-1.69306008169255E-16,1.,0.));
#206=DIRECTION('',(-1.69306008169255E-16,1.,0.));
#207=DIRECTION('',(0.,0.,-1.));
#208=DIRECTION('',(-1.,0.,0.));
#209=DIRECTION('',(0.,0.,1.));
#210=DIRECTION('',(1.,0.,0.));
#211=DIRECTION('',(0.,0.,-1.));
#212=DIRECTION('',(0.,0.,1.));
#213=DIRECTION('',(1.,0.,0.));
#214=DIRECTION('',(0.,0.,1.));
#215=DIRECTION('',(1.,0.,0.));
#216=DIRECTION('',(-1.,-1.69306008169255E-16,0.));
#217=DIRECTION('',(1.69306008169255E-16,-1.,0.));
#218=DIRECTION('',(-1.69306008169255E-16,1.,0.));
#219=DIRECTION('',(-1.69306008169255E-16,1.,0.));
#220=DIRECTION('',(0.,0.,1.));
#221=DIRECTION('',(1.,0.,0.));
#222=DIRECTION('',(0.,0.,1.));
#223=DIRECTION('',(1.,0.,0.));
#224=DIRECTION('',(0.,0.,1.));
#225=DIRECTION('',(1.,0.,0.));
#226=DIRECTION('',(0.,0.,1.));
#227=DIRECTION('',(1.,0.,0.));
#228=DIRECTION('',(0.,0.,1.));
#229=DIRECTION('',(1.,0.,0.));
#230=DIRECTION('',(0.,0.,1.));
#231=DIRECTION('',(1.,0.,0.));
#232=DIRECTION('',(0.,0.,1.));
#233=DIRECTION('',(1.,0.,0.));
#234=DIRECTION('',(0.,0.,1.));
#235=DIRECTION('',(1.,0.,0.));
#236=DIRECTION('',(0.,0.,1.));
#237=DIRECTION('',(1.,0.,0.));
#238=DIRECTION('',(0.,0.,1.));
#239=DIRECTION('',(1.,0.,0.));
#240=CARTESIAN_POINT('',(0.,0.,0.));
#241=CARTESIAN_POINT('',(5.55653613398821E-19,8.67361737988404E-19,0.022));
#242=CARTESIAN_POINT('',(5.55653613398821E-19,8.67361737988404E-19,0.));
#243=CARTESIAN_POINT('',(-0.000125,0.00324759526419164,0.));
#244=CARTESIAN_POINT('',(0.000125,0.00324759526419164,0.));
#245=CARTESIAN_POINT('',(-0.000125,0.00324759526419164,0.022));
#246=CARTESIAN_POINT('',(-0.000125,0.00324759526419164,0.022));
#247=CARTESIAN_POINT('',(5.55653613398821E-19,8.67361737988404E-19,0.022));
#248=CARTESIAN_POINT('',(0.000125,0.00324759526419164,0.022));
#249=CARTESIAN_POINT('',(0.000125,0.00324759526419164,0.022));
#250=CARTESIAN_POINT('',(-0.000125,0.00364783289611668,0.022));
#251=CARTESIAN_POINT('',(-0.000125000000000003,0.00404807052804172,0.022));
#252=CARTESIAN_POINT('',(-0.000125000000000003,0.00404807052804172,0.0215));
#253=CARTESIAN_POINT('',(-0.000125000000000003,0.00404807052804172,0.));
#254=CARTESIAN_POINT('',(-0.000124999999999977,0.00404807052804088,0.0215));
#255=CARTESIAN_POINT('',(-0.000124999999999977,0.00404807052804088,0.021764182374398));
#256=CARTESIAN_POINT('',(-0.000125,0.00381197689168867,0.022));
#257=CARTESIAN_POINT('',(-0.000125,0.00354779861322399,0.022));
#258=CARTESIAN_POINT('',(-0.000125,0.00354779861322399,0.022));
#259=CARTESIAN_POINT('',(-0.000125,0.00364783289611668,0.022));
#260=CARTESIAN_POINT('',(-0.000125,0.00364783289611668,0.));
#261=CARTESIAN_POINT('',(1.2922390875279E-17,-8.4220824758674E-16,0.022));
#262=CARTESIAN_POINT('',(1.2922390875279E-17,-8.4220824758674E-16,-0.0005));
#263=CARTESIAN_POINT('',(0.00405000000000001,-8.4220824758674E-16,-0.0005));
#264=CARTESIAN_POINT('',(0.000125,0.00404807052804172,0.022));
#265=CARTESIAN_POINT('',(0.000125,0.00404807052804172,0.0215));
#266=CARTESIAN_POINT('',(0.000125,0.00404807052804172,0.));
#267=CARTESIAN_POINT('',(1.2922390875279E-17,-8.4220824758674E-16,0.0215));
#268=CARTESIAN_POINT('',(0.,2.47990976827339E-19,0.));
#269=CARTESIAN_POINT('',(0.000125,0.00364783289611668,0.022));
#270=CARTESIAN_POINT('',(0.000125,0.00364783289611668,0.022));
#271=CARTESIAN_POINT('',(0.000125,0.00354779861322399,0.022));
#272=CARTESIAN_POINT('',(0.000125,0.00354779861322399,0.022));
#273=CARTESIAN_POINT('',(0.000125,0.00381197917740225,0.022));
#274=CARTESIAN_POINT('',(0.000125,0.00404807052804088,0.0217641848592362));
#275=CARTESIAN_POINT('',(0.000125,0.00404807052804088,0.0215));
#276=CARTESIAN_POINT('',(0.000125,0.00364783289611668,0.));
#277=CARTESIAN_POINT('',(0.,-9.64735979137876E-7,0.022));
#278=CARTESIAN_POINT('',(1.2922390875279E-17,-8.4220824758674E-16,0.022));
#279=CARTESIAN_POINT('',(0.,1.56142466891287E-19,-0.001));
#280=CARTESIAN_POINT('',(0.,1.56142466891287E-19,-0.001));
#281=CARTESIAN_POINT('',(0.00255,1.56142466891287E-19,-0.001));
#282=CARTESIAN_POINT('',(0.,1.56142466891287E-19,0.));
#283=CARTESIAN_POINT('',(0.00255,1.56142466891287E-19,0.));
#284=CARTESIAN_POINT('',(0.,0.,-0.001));
#285=CARTESIAN_POINT('',(1.2922390875279E-17,-8.4220824758674E-16,-0.001));
#286=CARTESIAN_POINT('',(0.00355000000000001,-8.4220824758674E-16,-0.001));
#287=CARTESIAN_POINT('',(0.,0.,0.));
#288=CARTESIAN_POINT('',(1.2922390875279E-17,-8.4220824758674E-16,0.0215));
#289=CARTESIAN_POINT('',(1.2922390875279E-17,-8.4220824758674E-16,-0.0005));
#290=MECHANICAL_DESIGN_GEOMETRIC_PRESENTATION_REPRESENTATION('',(#161),
#291);
#291=(
GEOMETRIC_REPRESENTATION_CONTEXT(3)
GLOBAL_UNCERTAINTY_ASSIGNED_CONTEXT((#292))
GLOBAL_UNIT_ASSIGNED_CONTEXT((#295,#294,#293))
REPRESENTATION_CONTEXT('Part 1','TOP_LEVEL_ASSEMBLY_PART')
);
#292=UNCERTAINTY_MEASURE_WITH_UNIT(LENGTH_MEASURE(2.E-5),#295,
'DISTANCE_ACCURACY_VALUE','Maximum Tolerance applied to model');
#293=(
NAMED_UNIT(*)
SI_UNIT($,.STERADIAN.)
SOLID_ANGLE_UNIT()
);
#294=(
NAMED_UNIT(*)
PLANE_ANGLE_UNIT()
SI_UNIT($,.RADIAN.)
);
#295=(
LENGTH_UNIT()
NAMED_UNIT(*)
SI_UNIT($,.METRE.)
);
#296=PRODUCT_DEFINITION_SHAPE('','',#297);
#297=PRODUCT_DEFINITION('','',#299,#298);
#298=PRODUCT_DEFINITION_CONTEXT('',#305,'design');
#299=PRODUCT_DEFINITION_FORMATION_WITH_SPECIFIED_SOURCE('','',#301,
 .NOT_KNOWN.);
#300=PRODUCT_RELATED_PRODUCT_CATEGORY('','',(#301));
#301=PRODUCT('Part 1','Part 1','Part 1',(#303));
#302=PRODUCT_CATEGORY('','');
#303=PRODUCT_CONTEXT('',#305,'mechanical');
#304=APPLICATION_PROTOCOL_DEFINITION('international standard',
'ap242_managed_model_based_3d_engineering',2020,#305);
#305=APPLICATION_CONTEXT('managed model based 3d engineering');
ENDSEC;
END-ISO-10303-21;
