ISO-10303-21;
HEADER;
/* Generated by software containing ST-Developer
 * from STEP Tools, Inc. (www.steptools.com) 
 */
/* OPTION: using custom renumber hook */

FILE_DESCRIPTION(
/* description */ ('STEP AP242 Edition 2',
'CAx-IF Rec.Pracs.---Representation and Presentation of Product Manufa
cturing Information (PMI)---4.0---2014-10-13',
'CAx-IF Rec.Pracs.---3D Tessellated Geometry---0.4---2014-09-14','2;1',
'CAx-IF Rec.Pracs.---User Defined Attributes---1.5---2016-08-15'),
/* implementation_level */ '2;1');

FILE_NAME(
/* name */ '698e6610a52609b0fe260a0d',
/* time_stamp */ '2026-02-12T23:45:20Z',
/* author */ (''),
/* organization */ (''),
/* preprocessor_version */ 'ST-DEVELOPER v20',
/* originating_system */ 'ONSHAPE BY PTC INC, 1.210',
/* authorisation */ '  ');

FILE_SCHEMA (('AP242_MANAGED_MODEL_BASED_3D_ENGINEERING_MIM_LF { 1 0 10303 442 3 1 4 }'));
ENDSEC;

DATA;
#10=SHAPE_REPRESENTATION_RELATIONSHIP('','',#1194,#12);
#11=SHAPE_REPRESENTATION_RELATIONSHIP('','',#1195,#13);
#12=ADVANCED_BREP_SHAPE_REPRESENTATION('',(#1190),#2065);
#13=ADVANCED_BREP_SHAPE_REPRESENTATION('',(#1191),#2066);
#14=B_SPLINE_CURVE_WITH_KNOTS('',3,(#1558,#1559,#1560,#1561),
 .UNSPECIFIED.,.F.,.F.,(4,4),(0.,1.),.PIECEWISE_BEZIER_KNOTS.);
#15=B_SPLINE_CURVE_WITH_KNOTS('',3,(#1565,#1566,#1567,#1568),
 .UNSPECIFIED.,.F.,.F.,(4,4),(0.,1.),.PIECEWISE_BEZIER_KNOTS.);
#16=B_SPLINE_CURVE_WITH_KNOTS('',3,(#1639,#1640,#1641,#1642,#1643,#1644,
#1645,#1646,#1647,#1648,#1649,#1650,#1651,#1652,#1653,#1654,#1655),
 .UNSPECIFIED.,.F.,.F.,(4,1,1,1,1,1,1,1,1,1,1,1,1,1,4),(0.103935844002009,
0.125,0.1875,0.25,0.3125,0.375,0.4375,0.5,0.5625,0.625,0.6875,0.75,0.8125,
0.875,0.900206572279167),.UNSPECIFIED.);
#17=B_SPLINE_CURVE_WITH_KNOTS('',3,(#1659,#1660,#1661,#1662,#1663,#1664,
#1665,#1666,#1667,#1668,#1669,#1670,#1671,#1672,#1673,#1674,#1675),
 .UNSPECIFIED.,.F.,.F.,(4,1,1,1,1,1,1,1,1,1,1,1,1,1,4),(0.103935844002009,
0.125,0.1875,0.25,0.3125,0.375,0.4375,0.5,0.5625,0.625,0.6875,0.75,0.8125,
0.875,0.900206572279167),.UNSPECIFIED.);
#18=B_SPLINE_CURVE_WITH_KNOTS('',3,(#1723,#1724,#1725,#1726),
 .UNSPECIFIED.,.F.,.F.,(4,4),(0.,1.),.UNSPECIFIED.);
#19=B_SPLINE_CURVE_WITH_KNOTS('',3,(#1730,#1731,#1732,#1733),
 .UNSPECIFIED.,.F.,.F.,(4,4),(0.,1.),.PIECEWISE_BEZIER_KNOTS.);
#20=B_SPLINE_CURVE_WITH_KNOTS('',3,(#1803,#1804,#1805,#1806,#1807,#1808,
#1809,#1810,#1811,#1812,#1813,#1814,#1815,#1816,#1817,#1818,#1819),
 .UNSPECIFIED.,.F.,.F.,(4,1,1,1,1,1,1,1,1,1,1,1,1,1,4),(0.103935844002009,
0.125,0.1875,0.25,0.3125,0.375,0.4375,0.5,0.5625,0.625,0.6875,0.75,0.8125,
0.875,0.900206572279167),.UNSPECIFIED.);
#21=B_SPLINE_CURVE_WITH_KNOTS('',3,(#1829,#1830,#1831,#1832,#1833,#1834,
#1835,#1836,#1837,#1838,#1839),.UNSPECIFIED.,.F.,.F.,(4,1,1,1,1,1,1,1,4),
(0.107233557824047,0.205936040010526,0.304638522197005,0.403341004383484,
0.502043486569962,0.600745968756441,0.69944845094292,0.798150933129399,
0.896853415315878),.UNSPECIFIED.);
#22=B_SPLINE_CURVE_WITH_KNOTS('',3,(#1880,#1881,#1882,#1883,#1884,#1885,
#1886,#1887,#1888,#1889,#1890,#1891,#1892,#1893,#1894,#1895,#1896),
 .UNSPECIFIED.,.F.,.F.,(4,1,1,1,1,1,1,1,1,1,1,1,1,1,4),(0.103935844002009,
0.125,0.1875,0.25,0.3125,0.375,0.4375,0.5,0.5625,0.625,0.6875,0.75,0.8125,
0.875,0.900206572279167),.UNSPECIFIED.);
#23=B_SPLINE_CURVE_WITH_KNOTS('',3,(#1934,#1935,#1936,#1937),
 .UNSPECIFIED.,.F.,.F.,(4,4),(0.,1.),.PIECEWISE_BEZIER_KNOTS.);
#24=B_SPLINE_CURVE_WITH_KNOTS('',3,(#1941,#1942,#1943,#1944),
 .UNSPECIFIED.,.F.,.F.,(4,4),(0.,1.),.UNSPECIFIED.);
#25=B_SPLINE_CURVE_WITH_KNOTS('',3,(#1980,#1981,#1982,#1983,#1984,#1985,
#1986,#1987,#1988,#1989,#1990),.UNSPECIFIED.,.F.,.F.,(4,1,1,1,1,1,1,1,4),
(0.107233557824045,0.205936040010524,0.304638522197003,0.403341004383483,
0.502043486569962,0.600745968756441,0.699448450942921,0.7981509331294,0.896853415315879),
 .UNSPECIFIED.);
#26=B_SPLINE_CURVE_WITH_KNOTS('',3,(#2026,#2027,#2028,#2029,#2030,#2031,
#2032,#2033,#2034,#2035,#2036),.UNSPECIFIED.,.F.,.F.,(4,1,1,1,1,1,1,1,4),
(0.107233557824045,0.205936040010524,0.304638522197003,0.403341004383482,
0.502043486569962,0.600745968756441,0.69944845094292,0.798150933129399,
0.896853415315878),.UNSPECIFIED.);
#27=B_SPLINE_SURFACE_WITH_KNOTS('',3,1,((#1550,#1551),(#1552,#1553),(#1554,
#1555),(#1556,#1557)),.SURF_OF_LINEAR_EXTRUSION.,.F.,.F.,.F.,(4,4),(2,2),
(0.,1.),(0.,1.),.PIECEWISE_BEZIER_KNOTS.);
#28=B_SPLINE_SURFACE_WITH_KNOTS('',3,1,((#1617,#1618),(#1619,#1620),(#1621,
#1622),(#1623,#1624),(#1625,#1626),(#1627,#1628),(#1629,#1630),(#1631,#1632),
(#1633,#1634),(#1635,#1636),(#1637,#1638)),.SURF_OF_LINEAR_EXTRUSION.,.F.,
 .F.,.F.,(4,1,1,1,1,1,1,1,4),(2,2),(0.103936308712291,0.203470027998817,
0.303003747285344,0.40253746657187,0.502071185858396,0.601604905144922,
0.701138624431448,0.800672343717975,0.900206063004501),(0.,1.),
 .UNSPECIFIED.);
#29=B_SPLINE_SURFACE_WITH_KNOTS('',3,1,((#1715,#1716),(#1717,#1718),(#1719,
#1720),(#1721,#1722)),.SURF_OF_LINEAR_EXTRUSION.,.F.,.F.,.F.,(4,4),(2,2),
(0.,1.),(0.,1.),.PIECEWISE_BEZIER_KNOTS.);
#30=B_SPLINE_SURFACE_WITH_KNOTS('',3,1,((#1856,#1857),(#1858,#1859),(#1860,
#1861),(#1862,#1863),(#1864,#1865),(#1866,#1867),(#1868,#1869),(#1870,#1871),
(#1872,#1873),(#1874,#1875),(#1876,#1877)),.SURF_OF_LINEAR_EXTRUSION.,.F.,
 .F.,.F.,(4,1,1,1,1,1,1,1,4),(2,2),(0.103936308712291,0.203470027998817,
0.303003747285344,0.40253746657187,0.502071185858396,0.601604905144922,
0.701138624431448,0.800672343717975,0.900206063004501),(0.,1.),
 .UNSPECIFIED.);
#31=B_SPLINE_SURFACE_WITH_KNOTS('',3,1,((#1926,#1927),(#1928,#1929),(#1930,
#1931),(#1932,#1933)),.SURF_OF_LINEAR_EXTRUSION.,.F.,.F.,.F.,(4,4),(2,2),
(0.,1.),(0.,1.),.PIECEWISE_BEZIER_KNOTS.);
#32=B_SPLINE_SURFACE_WITH_KNOTS('',3,1,((#2002,#2003),(#2004,#2005),(#2006,
#2007),(#2008,#2009),(#2010,#2011),(#2012,#2013),(#2014,#2015),(#2016,#2017),
(#2018,#2019),(#2020,#2021),(#2022,#2023)),.SURF_OF_LINEAR_EXTRUSION.,.F.,
 .F.,.F.,(4,1,1,1,1,1,1,1,4),(2,2),(0.107233557824044,0.205936040010524,
0.304638522197003,0.403341004383482,0.502043486569961,0.600745968756441,
0.69944845094292,0.798150933129399,0.896853415315879),(0.,1.),
 .UNSPECIFIED.);
#33=B_SPLINE_SURFACE_WITH_KNOTS('',3,1,((#2041,#2042),(#2043,#2044),(#2045,
#2046),(#2047,#2048),(#2049,#2050),(#2051,#2052),(#2053,#2054),(#2055,#2056),
(#2057,#2058),(#2059,#2060),(#2061,#2062)),.SURF_OF_LINEAR_EXTRUSION.,.F.,
 .F.,.F.,(4,1,1,1,1,1,1,1,4),(2,2),(0.107233557824044,0.205936040010523,
0.304638522197003,0.403341004383482,0.502043486569962,0.600745968756441,
0.69944845094292,0.7981509331294,0.896853415315879),(0.,1.),
 .UNSPECIFIED.);
#34=ORIENTED_EDGE('',*,*,#364,.F.);
#35=ORIENTED_EDGE('',*,*,#365,.F.);
#36=ORIENTED_EDGE('',*,*,#366,.T.);
#37=ORIENTED_EDGE('',*,*,#367,.T.);
#38=ORIENTED_EDGE('',*,*,#368,.F.);
#39=ORIENTED_EDGE('',*,*,#369,.F.);
#40=ORIENTED_EDGE('',*,*,#370,.T.);
#41=ORIENTED_EDGE('',*,*,#365,.T.);
#42=ORIENTED_EDGE('',*,*,#371,.T.);
#43=ORIENTED_EDGE('',*,*,#372,.F.);
#44=ORIENTED_EDGE('',*,*,#373,.F.);
#45=ORIENTED_EDGE('',*,*,#369,.T.);
#46=ORIENTED_EDGE('',*,*,#374,.T.);
#47=ORIENTED_EDGE('',*,*,#375,.F.);
#48=ORIENTED_EDGE('',*,*,#376,.F.);
#49=ORIENTED_EDGE('',*,*,#372,.T.);
#50=ORIENTED_EDGE('',*,*,#377,.T.);
#51=ORIENTED_EDGE('',*,*,#378,.F.);
#52=ORIENTED_EDGE('',*,*,#379,.F.);
#53=ORIENTED_EDGE('',*,*,#375,.T.);
#54=ORIENTED_EDGE('',*,*,#380,.F.);
#55=ORIENTED_EDGE('',*,*,#381,.F.);
#56=ORIENTED_EDGE('',*,*,#382,.T.);
#57=ORIENTED_EDGE('',*,*,#378,.T.);
#58=ORIENTED_EDGE('',*,*,#383,.T.);
#59=ORIENTED_EDGE('',*,*,#384,.F.);
#60=ORIENTED_EDGE('',*,*,#385,.F.);
#61=ORIENTED_EDGE('',*,*,#381,.T.);
#62=ORIENTED_EDGE('',*,*,#386,.T.);
#63=ORIENTED_EDGE('',*,*,#387,.F.);
#64=ORIENTED_EDGE('',*,*,#388,.F.);
#65=ORIENTED_EDGE('',*,*,#384,.T.);
#66=ORIENTED_EDGE('',*,*,#389,.T.);
#67=ORIENTED_EDGE('',*,*,#390,.F.);
#68=ORIENTED_EDGE('',*,*,#391,.F.);
#69=ORIENTED_EDGE('',*,*,#387,.T.);
#70=ORIENTED_EDGE('',*,*,#392,.F.);
#71=ORIENTED_EDGE('',*,*,#393,.F.);
#72=ORIENTED_EDGE('',*,*,#394,.T.);
#73=ORIENTED_EDGE('',*,*,#390,.T.);
#74=ORIENTED_EDGE('',*,*,#395,.F.);
#75=ORIENTED_EDGE('',*,*,#396,.F.);
#76=ORIENTED_EDGE('',*,*,#397,.T.);
#77=ORIENTED_EDGE('',*,*,#393,.T.);
#78=ORIENTED_EDGE('',*,*,#398,.T.);
#79=ORIENTED_EDGE('',*,*,#399,.F.);
#80=ORIENTED_EDGE('',*,*,#400,.F.);
#81=ORIENTED_EDGE('',*,*,#396,.T.);
#82=ORIENTED_EDGE('',*,*,#401,.T.);
#83=ORIENTED_EDGE('',*,*,#402,.F.);
#84=ORIENTED_EDGE('',*,*,#403,.F.);
#85=ORIENTED_EDGE('',*,*,#399,.T.);
#86=ORIENTED_EDGE('',*,*,#404,.T.);
#87=ORIENTED_EDGE('',*,*,#405,.F.);
#88=ORIENTED_EDGE('',*,*,#406,.F.);
#89=ORIENTED_EDGE('',*,*,#402,.T.);
#90=ORIENTED_EDGE('',*,*,#407,.T.);
#91=ORIENTED_EDGE('',*,*,#408,.F.);
#92=ORIENTED_EDGE('',*,*,#409,.F.);
#93=ORIENTED_EDGE('',*,*,#405,.T.);
#94=ORIENTED_EDGE('',*,*,#410,.F.);
#95=ORIENTED_EDGE('',*,*,#411,.F.);
#96=ORIENTED_EDGE('',*,*,#412,.T.);
#97=ORIENTED_EDGE('',*,*,#408,.T.);
#98=ORIENTED_EDGE('',*,*,#413,.T.);
#99=ORIENTED_EDGE('',*,*,#414,.F.);
#100=ORIENTED_EDGE('',*,*,#415,.F.);
#101=ORIENTED_EDGE('',*,*,#411,.T.);
#102=ORIENTED_EDGE('',*,*,#416,.F.);
#103=ORIENTED_EDGE('',*,*,#367,.F.);
#104=ORIENTED_EDGE('',*,*,#417,.T.);
#105=ORIENTED_EDGE('',*,*,#414,.T.);
#106=ORIENTED_EDGE('',*,*,#366,.F.);
#107=ORIENTED_EDGE('',*,*,#370,.F.);
#108=ORIENTED_EDGE('',*,*,#373,.T.);
#109=ORIENTED_EDGE('',*,*,#376,.T.);
#110=ORIENTED_EDGE('',*,*,#379,.T.);
#111=ORIENTED_EDGE('',*,*,#382,.F.);
#112=ORIENTED_EDGE('',*,*,#385,.T.);
#113=ORIENTED_EDGE('',*,*,#388,.T.);
#114=ORIENTED_EDGE('',*,*,#391,.T.);
#115=ORIENTED_EDGE('',*,*,#394,.F.);
#116=ORIENTED_EDGE('',*,*,#397,.F.);
#117=ORIENTED_EDGE('',*,*,#400,.T.);
#118=ORIENTED_EDGE('',*,*,#403,.T.);
#119=ORIENTED_EDGE('',*,*,#406,.T.);
#120=ORIENTED_EDGE('',*,*,#409,.T.);
#121=ORIENTED_EDGE('',*,*,#412,.F.);
#122=ORIENTED_EDGE('',*,*,#415,.T.);
#123=ORIENTED_EDGE('',*,*,#417,.F.);
#124=ORIENTED_EDGE('',*,*,#364,.T.);
#125=ORIENTED_EDGE('',*,*,#416,.T.);
#126=ORIENTED_EDGE('',*,*,#413,.F.);
#127=ORIENTED_EDGE('',*,*,#410,.T.);
#128=ORIENTED_EDGE('',*,*,#407,.F.);
#129=ORIENTED_EDGE('',*,*,#404,.F.);
#130=ORIENTED_EDGE('',*,*,#401,.F.);
#131=ORIENTED_EDGE('',*,*,#398,.F.);
#132=ORIENTED_EDGE('',*,*,#395,.T.);
#133=ORIENTED_EDGE('',*,*,#392,.T.);
#134=ORIENTED_EDGE('',*,*,#389,.F.);
#135=ORIENTED_EDGE('',*,*,#386,.F.);
#136=ORIENTED_EDGE('',*,*,#383,.F.);
#137=ORIENTED_EDGE('',*,*,#380,.T.);
#138=ORIENTED_EDGE('',*,*,#377,.F.);
#139=ORIENTED_EDGE('',*,*,#374,.F.);
#140=ORIENTED_EDGE('',*,*,#371,.F.);
#141=ORIENTED_EDGE('',*,*,#368,.T.);
#142=ORIENTED_EDGE('',*,*,#418,.F.);
#143=ORIENTED_EDGE('',*,*,#419,.T.);
#144=ORIENTED_EDGE('',*,*,#420,.T.);
#145=ORIENTED_EDGE('',*,*,#421,.F.);
#146=ORIENTED_EDGE('',*,*,#420,.F.);
#147=ORIENTED_EDGE('',*,*,#422,.T.);
#148=ORIENTED_EDGE('',*,*,#423,.T.);
#149=ORIENTED_EDGE('',*,*,#424,.F.);
#150=ORIENTED_EDGE('',*,*,#423,.F.);
#151=ORIENTED_EDGE('',*,*,#425,.T.);
#152=ORIENTED_EDGE('',*,*,#426,.T.);
#153=ORIENTED_EDGE('',*,*,#427,.F.);
#154=ORIENTED_EDGE('',*,*,#426,.F.);
#155=ORIENTED_EDGE('',*,*,#428,.F.);
#156=ORIENTED_EDGE('',*,*,#429,.T.);
#157=ORIENTED_EDGE('',*,*,#430,.T.);
#158=ORIENTED_EDGE('',*,*,#429,.F.);
#159=ORIENTED_EDGE('',*,*,#431,.T.);
#160=ORIENTED_EDGE('',*,*,#432,.T.);
#161=ORIENTED_EDGE('',*,*,#433,.F.);
#162=ORIENTED_EDGE('',*,*,#432,.F.);
#163=ORIENTED_EDGE('',*,*,#434,.T.);
#164=ORIENTED_EDGE('',*,*,#435,.T.);
#165=ORIENTED_EDGE('',*,*,#436,.F.);
#166=ORIENTED_EDGE('',*,*,#435,.F.);
#167=ORIENTED_EDGE('',*,*,#437,.T.);
#168=ORIENTED_EDGE('',*,*,#438,.T.);
#169=ORIENTED_EDGE('',*,*,#439,.F.);
#170=ORIENTED_EDGE('',*,*,#438,.F.);
#171=ORIENTED_EDGE('',*,*,#440,.F.);
#172=ORIENTED_EDGE('',*,*,#441,.T.);
#173=ORIENTED_EDGE('',*,*,#442,.T.);
#174=ORIENTED_EDGE('',*,*,#441,.F.);
#175=ORIENTED_EDGE('',*,*,#443,.F.);
#176=ORIENTED_EDGE('',*,*,#444,.T.);
#177=ORIENTED_EDGE('',*,*,#445,.T.);
#178=ORIENTED_EDGE('',*,*,#444,.F.);
#179=ORIENTED_EDGE('',*,*,#446,.T.);
#180=ORIENTED_EDGE('',*,*,#447,.T.);
#181=ORIENTED_EDGE('',*,*,#448,.F.);
#182=ORIENTED_EDGE('',*,*,#447,.F.);
#183=ORIENTED_EDGE('',*,*,#449,.T.);
#184=ORIENTED_EDGE('',*,*,#450,.F.);
#185=ORIENTED_EDGE('',*,*,#451,.F.);
#186=ORIENTED_EDGE('',*,*,#452,.F.);
#187=ORIENTED_EDGE('',*,*,#453,.T.);
#188=ORIENTED_EDGE('',*,*,#454,.T.);
#189=ORIENTED_EDGE('',*,*,#455,.F.);
#190=ORIENTED_EDGE('',*,*,#456,.T.);
#191=ORIENTED_EDGE('',*,*,#457,.F.);
#192=ORIENTED_EDGE('',*,*,#458,.F.);
#193=ORIENTED_EDGE('',*,*,#459,.T.);
#194=ORIENTED_EDGE('',*,*,#460,.T.);
#195=ORIENTED_EDGE('',*,*,#461,.T.);
#196=ORIENTED_EDGE('',*,*,#462,.F.);
#197=ORIENTED_EDGE('',*,*,#463,.T.);
#198=ORIENTED_EDGE('',*,*,#464,.F.);
#199=ORIENTED_EDGE('',*,*,#418,.T.);
#200=ORIENTED_EDGE('',*,*,#465,.T.);
#201=ORIENTED_EDGE('',*,*,#463,.F.);
#202=ORIENTED_EDGE('',*,*,#456,.F.);
#203=ORIENTED_EDGE('',*,*,#465,.F.);
#204=ORIENTED_EDGE('',*,*,#421,.T.);
#205=ORIENTED_EDGE('',*,*,#424,.T.);
#206=ORIENTED_EDGE('',*,*,#427,.T.);
#207=ORIENTED_EDGE('',*,*,#430,.F.);
#208=ORIENTED_EDGE('',*,*,#433,.T.);
#209=ORIENTED_EDGE('',*,*,#436,.T.);
#210=ORIENTED_EDGE('',*,*,#439,.T.);
#211=ORIENTED_EDGE('',*,*,#442,.F.);
#212=ORIENTED_EDGE('',*,*,#445,.F.);
#213=ORIENTED_EDGE('',*,*,#448,.T.);
#214=ORIENTED_EDGE('',*,*,#455,.T.);
#215=ORIENTED_EDGE('',*,*,#466,.T.);
#216=ORIENTED_EDGE('',*,*,#467,.T.);
#217=ORIENTED_EDGE('',*,*,#468,.F.);
#218=ORIENTED_EDGE('',*,*,#469,.T.);
#219=ORIENTED_EDGE('',*,*,#470,.F.);
#220=ORIENTED_EDGE('',*,*,#462,.T.);
#221=ORIENTED_EDGE('',*,*,#471,.T.);
#222=ORIENTED_EDGE('',*,*,#472,.F.);
#223=ORIENTED_EDGE('',*,*,#473,.T.);
#224=ORIENTED_EDGE('',*,*,#474,.F.);
#225=ORIENTED_EDGE('',*,*,#475,.F.);
#226=ORIENTED_EDGE('',*,*,#449,.F.);
#227=ORIENTED_EDGE('',*,*,#446,.F.);
#228=ORIENTED_EDGE('',*,*,#443,.T.);
#229=ORIENTED_EDGE('',*,*,#440,.T.);
#230=ORIENTED_EDGE('',*,*,#437,.F.);
#231=ORIENTED_EDGE('',*,*,#434,.F.);
#232=ORIENTED_EDGE('',*,*,#431,.F.);
#233=ORIENTED_EDGE('',*,*,#428,.T.);
#234=ORIENTED_EDGE('',*,*,#425,.F.);
#235=ORIENTED_EDGE('',*,*,#422,.F.);
#236=ORIENTED_EDGE('',*,*,#419,.F.);
#237=ORIENTED_EDGE('',*,*,#464,.T.);
#238=ORIENTED_EDGE('',*,*,#466,.F.);
#239=ORIENTED_EDGE('',*,*,#454,.F.);
#240=ORIENTED_EDGE('',*,*,#476,.T.);
#241=ORIENTED_EDGE('',*,*,#477,.T.);
#242=ORIENTED_EDGE('',*,*,#457,.T.);
#243=ORIENTED_EDGE('',*,*,#470,.T.);
#244=ORIENTED_EDGE('',*,*,#478,.F.);
#245=ORIENTED_EDGE('',*,*,#479,.F.);
#246=ORIENTED_EDGE('',*,*,#467,.F.);
#247=ORIENTED_EDGE('',*,*,#477,.F.);
#248=ORIENTED_EDGE('',*,*,#480,.T.);
#249=ORIENTED_EDGE('',*,*,#481,.T.);
#250=ORIENTED_EDGE('',*,*,#482,.T.);
#251=ORIENTED_EDGE('',*,*,#468,.T.);
#252=ORIENTED_EDGE('',*,*,#481,.F.);
#253=ORIENTED_EDGE('',*,*,#483,.F.);
#254=ORIENTED_EDGE('',*,*,#469,.F.);
#255=ORIENTED_EDGE('',*,*,#482,.F.);
#256=ORIENTED_EDGE('',*,*,#484,.T.);
#257=ORIENTED_EDGE('',*,*,#478,.T.);
#258=ORIENTED_EDGE('',*,*,#485,.F.);
#259=ORIENTED_EDGE('',*,*,#486,.T.);
#260=ORIENTED_EDGE('',*,*,#487,.T.);
#261=ORIENTED_EDGE('',*,*,#488,.F.);
#262=ORIENTED_EDGE('',*,*,#487,.F.);
#263=ORIENTED_EDGE('',*,*,#489,.T.);
#264=ORIENTED_EDGE('',*,*,#490,.T.);
#265=ORIENTED_EDGE('',*,*,#491,.F.);
#266=ORIENTED_EDGE('',*,*,#490,.F.);
#267=ORIENTED_EDGE('',*,*,#492,.T.);
#268=ORIENTED_EDGE('',*,*,#493,.T.);
#269=ORIENTED_EDGE('',*,*,#494,.F.);
#270=ORIENTED_EDGE('',*,*,#493,.F.);
#271=ORIENTED_EDGE('',*,*,#495,.F.);
#272=ORIENTED_EDGE('',*,*,#496,.T.);
#273=ORIENTED_EDGE('',*,*,#497,.T.);
#274=ORIENTED_EDGE('',*,*,#496,.F.);
#275=ORIENTED_EDGE('',*,*,#498,.T.);
#276=ORIENTED_EDGE('',*,*,#499,.T.);
#277=ORIENTED_EDGE('',*,*,#500,.F.);
#278=ORIENTED_EDGE('',*,*,#499,.F.);
#279=ORIENTED_EDGE('',*,*,#501,.T.);
#280=ORIENTED_EDGE('',*,*,#502,.T.);
#281=ORIENTED_EDGE('',*,*,#503,.F.);
#282=ORIENTED_EDGE('',*,*,#502,.F.);
#283=ORIENTED_EDGE('',*,*,#504,.T.);
#284=ORIENTED_EDGE('',*,*,#505,.T.);
#285=ORIENTED_EDGE('',*,*,#506,.F.);
#286=ORIENTED_EDGE('',*,*,#505,.F.);
#287=ORIENTED_EDGE('',*,*,#507,.F.);
#288=ORIENTED_EDGE('',*,*,#508,.T.);
#289=ORIENTED_EDGE('',*,*,#509,.T.);
#290=ORIENTED_EDGE('',*,*,#508,.F.);
#291=ORIENTED_EDGE('',*,*,#510,.F.);
#292=ORIENTED_EDGE('',*,*,#511,.T.);
#293=ORIENTED_EDGE('',*,*,#512,.T.);
#294=ORIENTED_EDGE('',*,*,#511,.F.);
#295=ORIENTED_EDGE('',*,*,#513,.T.);
#296=ORIENTED_EDGE('',*,*,#452,.T.);
#297=ORIENTED_EDGE('',*,*,#514,.F.);
#298=ORIENTED_EDGE('',*,*,#515,.F.);
#299=ORIENTED_EDGE('',*,*,#485,.T.);
#300=ORIENTED_EDGE('',*,*,#516,.T.);
#301=ORIENTED_EDGE('',*,*,#459,.F.);
#302=ORIENTED_EDGE('',*,*,#451,.T.);
#303=ORIENTED_EDGE('',*,*,#517,.T.);
#304=ORIENTED_EDGE('',*,*,#518,.T.);
#305=ORIENTED_EDGE('',*,*,#519,.F.);
#306=ORIENTED_EDGE('',*,*,#520,.T.);
#307=ORIENTED_EDGE('',*,*,#521,.F.);
#308=ORIENTED_EDGE('',*,*,#460,.F.);
#309=ORIENTED_EDGE('',*,*,#516,.F.);
#310=ORIENTED_EDGE('',*,*,#488,.T.);
#311=ORIENTED_EDGE('',*,*,#491,.T.);
#312=ORIENTED_EDGE('',*,*,#494,.T.);
#313=ORIENTED_EDGE('',*,*,#497,.F.);
#314=ORIENTED_EDGE('',*,*,#500,.T.);
#315=ORIENTED_EDGE('',*,*,#503,.T.);
#316=ORIENTED_EDGE('',*,*,#506,.T.);
#317=ORIENTED_EDGE('',*,*,#509,.F.);
#318=ORIENTED_EDGE('',*,*,#512,.F.);
#319=ORIENTED_EDGE('',*,*,#514,.T.);
#320=ORIENTED_EDGE('',*,*,#458,.T.);
#321=ORIENTED_EDGE('',*,*,#479,.T.);
#322=ORIENTED_EDGE('',*,*,#484,.F.);
#323=ORIENTED_EDGE('',*,*,#483,.T.);
#324=ORIENTED_EDGE('',*,*,#480,.F.);
#325=ORIENTED_EDGE('',*,*,#476,.F.);
#326=ORIENTED_EDGE('',*,*,#453,.F.);
#327=ORIENTED_EDGE('',*,*,#513,.F.);
#328=ORIENTED_EDGE('',*,*,#510,.T.);
#329=ORIENTED_EDGE('',*,*,#507,.T.);
#330=ORIENTED_EDGE('',*,*,#504,.F.);
#331=ORIENTED_EDGE('',*,*,#501,.F.);
#332=ORIENTED_EDGE('',*,*,#498,.F.);
#333=ORIENTED_EDGE('',*,*,#495,.T.);
#334=ORIENTED_EDGE('',*,*,#492,.F.);
#335=ORIENTED_EDGE('',*,*,#489,.F.);
#336=ORIENTED_EDGE('',*,*,#486,.F.);
#337=ORIENTED_EDGE('',*,*,#515,.T.);
#338=ORIENTED_EDGE('',*,*,#450,.T.);
#339=ORIENTED_EDGE('',*,*,#475,.T.);
#340=ORIENTED_EDGE('',*,*,#522,.F.);
#341=ORIENTED_EDGE('',*,*,#517,.F.);
#342=ORIENTED_EDGE('',*,*,#522,.T.);
#343=ORIENTED_EDGE('',*,*,#474,.T.);
#344=ORIENTED_EDGE('',*,*,#523,.F.);
#345=ORIENTED_EDGE('',*,*,#524,.T.);
#346=ORIENTED_EDGE('',*,*,#518,.F.);
#347=ORIENTED_EDGE('',*,*,#523,.T.);
#348=ORIENTED_EDGE('',*,*,#473,.F.);
#349=ORIENTED_EDGE('',*,*,#525,.F.);
#350=ORIENTED_EDGE('',*,*,#526,.T.);
#351=ORIENTED_EDGE('',*,*,#525,.T.);
#352=ORIENTED_EDGE('',*,*,#472,.T.);
#353=ORIENTED_EDGE('',*,*,#527,.F.);
#354=ORIENTED_EDGE('',*,*,#520,.F.);
#355=ORIENTED_EDGE('',*,*,#528,.F.);
#356=ORIENTED_EDGE('',*,*,#527,.T.);
#357=ORIENTED_EDGE('',*,*,#471,.F.);
#358=ORIENTED_EDGE('',*,*,#461,.F.);
#359=ORIENTED_EDGE('',*,*,#521,.T.);
#360=ORIENTED_EDGE('',*,*,#524,.F.);
#361=ORIENTED_EDGE('',*,*,#526,.F.);
#362=ORIENTED_EDGE('',*,*,#528,.T.);
#363=ORIENTED_EDGE('',*,*,#519,.T.);
#364=EDGE_CURVE('',#529,#530,#639,.T.);
#365=EDGE_CURVE('',#531,#529,#640,.T.);
#366=EDGE_CURVE('',#531,#532,#641,.T.);
#367=EDGE_CURVE('',#532,#530,#642,.T.);
#368=EDGE_CURVE('',#533,#529,#643,.T.);
#369=EDGE_CURVE('',#534,#533,#644,.T.);
#370=EDGE_CURVE('',#534,#531,#645,.T.);
#371=EDGE_CURVE('',#533,#535,#646,.T.);
#372=EDGE_CURVE('',#536,#535,#647,.T.);
#373=EDGE_CURVE('',#534,#536,#648,.T.);
#374=EDGE_CURVE('',#535,#537,#649,.T.);
#375=EDGE_CURVE('',#538,#537,#650,.T.);
#376=EDGE_CURVE('',#536,#538,#651,.T.);
#377=EDGE_CURVE('',#537,#539,#652,.T.);
#378=EDGE_CURVE('',#540,#539,#653,.T.);
#379=EDGE_CURVE('',#538,#540,#654,.T.);
#380=EDGE_CURVE('',#541,#539,#655,.T.);
#381=EDGE_CURVE('',#542,#541,#656,.T.);
#382=EDGE_CURVE('',#542,#540,#657,.T.);
#383=EDGE_CURVE('',#541,#543,#14,.T.);
#384=EDGE_CURVE('',#544,#543,#658,.T.);
#385=EDGE_CURVE('',#542,#544,#15,.T.);
#386=EDGE_CURVE('',#543,#545,#659,.T.);
#387=EDGE_CURVE('',#546,#545,#660,.T.);
#388=EDGE_CURVE('',#544,#546,#661,.T.);
#389=EDGE_CURVE('',#545,#547,#662,.T.);
#390=EDGE_CURVE('',#548,#547,#663,.T.);
#391=EDGE_CURVE('',#546,#548,#664,.T.);
#392=EDGE_CURVE('',#549,#547,#665,.T.);
#393=EDGE_CURVE('',#550,#549,#666,.T.);
#394=EDGE_CURVE('',#550,#548,#667,.T.);
#395=EDGE_CURVE('',#551,#549,#668,.T.);
#396=EDGE_CURVE('',#552,#551,#669,.T.);
#397=EDGE_CURVE('',#552,#550,#670,.T.);
#398=EDGE_CURVE('',#551,#553,#671,.T.);
#399=EDGE_CURVE('',#554,#553,#672,.T.);
#400=EDGE_CURVE('',#552,#554,#673,.T.);
#401=EDGE_CURVE('',#553,#555,#674,.T.);
#402=EDGE_CURVE('',#556,#555,#675,.T.);
#403=EDGE_CURVE('',#554,#556,#676,.T.);
#404=EDGE_CURVE('',#555,#557,#677,.T.);
#405=EDGE_CURVE('',#558,#557,#678,.T.);
#406=EDGE_CURVE('',#556,#558,#679,.T.);
#407=EDGE_CURVE('',#557,#559,#680,.T.);
#408=EDGE_CURVE('',#560,#559,#681,.T.);
#409=EDGE_CURVE('',#558,#560,#682,.T.);
#410=EDGE_CURVE('',#561,#559,#16,.T.);
#411=EDGE_CURVE('',#562,#561,#683,.T.);
#412=EDGE_CURVE('',#562,#560,#17,.T.);
#413=EDGE_CURVE('',#561,#563,#684,.T.);
#414=EDGE_CURVE('',#564,#563,#685,.T.);
#415=EDGE_CURVE('',#562,#564,#686,.T.);
#416=EDGE_CURVE('',#530,#563,#687,.T.);
#417=EDGE_CURVE('',#532,#564,#688,.T.);
#418=EDGE_CURVE('',#565,#566,#689,.T.);
#419=EDGE_CURVE('',#565,#567,#690,.F.);
#420=EDGE_CURVE('',#567,#568,#691,.T.);
#421=EDGE_CURVE('',#566,#568,#692,.T.);
#422=EDGE_CURVE('',#567,#569,#693,.T.);
#423=EDGE_CURVE('',#569,#570,#694,.T.);
#424=EDGE_CURVE('',#568,#570,#695,.T.);
#425=EDGE_CURVE('',#569,#571,#696,.F.);
#426=EDGE_CURVE('',#571,#572,#697,.T.);
#427=EDGE_CURVE('',#570,#572,#698,.T.);
#428=EDGE_CURVE('',#573,#571,#699,.F.);
#429=EDGE_CURVE('',#573,#574,#700,.T.);
#430=EDGE_CURVE('',#574,#572,#701,.T.);
#431=EDGE_CURVE('',#573,#575,#18,.T.);
#432=EDGE_CURVE('',#575,#576,#702,.T.);
#433=EDGE_CURVE('',#574,#576,#19,.T.);
#434=EDGE_CURVE('',#575,#577,#703,.F.);
#435=EDGE_CURVE('',#577,#578,#704,.T.);
#436=EDGE_CURVE('',#576,#578,#705,.T.);
#437=EDGE_CURVE('',#577,#579,#706,.F.);
#438=EDGE_CURVE('',#579,#580,#707,.T.);
#439=EDGE_CURVE('',#578,#580,#708,.T.);
#440=EDGE_CURVE('',#581,#579,#709,.T.);
#441=EDGE_CURVE('',#581,#582,#710,.T.);
#442=EDGE_CURVE('',#582,#580,#711,.T.);
#443=EDGE_CURVE('',#583,#581,#712,.T.);
#444=EDGE_CURVE('',#583,#584,#713,.T.);
#445=EDGE_CURVE('',#584,#582,#714,.T.);
#446=EDGE_CURVE('',#583,#585,#715,.T.);
#447=EDGE_CURVE('',#585,#586,#716,.T.);
#448=EDGE_CURVE('',#584,#586,#717,.T.);
#449=EDGE_CURVE('',#585,#587,#718,.F.);
#450=EDGE_CURVE('',#588,#587,#719,.F.);
#451=EDGE_CURVE('',#589,#588,#720,.F.);
#452=EDGE_CURVE('',#590,#589,#721,.T.);
#453=EDGE_CURVE('',#590,#591,#722,.T.);
#454=EDGE_CURVE('',#591,#592,#723,.T.);
#455=EDGE_CURVE('',#586,#592,#724,.T.);
#456=EDGE_CURVE('',#593,#594,#725,.T.);
#457=EDGE_CURVE('',#595,#594,#726,.T.);
#458=EDGE_CURVE('',#596,#595,#727,.T.);
#459=EDGE_CURVE('',#596,#597,#728,.T.);
#460=EDGE_CURVE('',#597,#598,#729,.T.);
#461=EDGE_CURVE('',#598,#599,#730,.F.);
#462=EDGE_CURVE('',#600,#599,#731,.T.);
#463=EDGE_CURVE('',#600,#593,#732,.T.);
#464=EDGE_CURVE('',#565,#600,#733,.T.);
#465=EDGE_CURVE('',#566,#593,#734,.T.);
#466=EDGE_CURVE('',#592,#601,#735,.T.);
#467=EDGE_CURVE('',#601,#602,#736,.T.);
#468=EDGE_CURVE('',#603,#602,#20,.T.);
#469=EDGE_CURVE('',#603,#604,#737,.T.);
#470=EDGE_CURVE('',#594,#604,#738,.T.);
#471=EDGE_CURVE('',#599,#605,#739,.T.);
#472=EDGE_CURVE('',#606,#605,#740,.T.);
#473=EDGE_CURVE('',#606,#607,#21,.T.);
#474=EDGE_CURVE('',#608,#607,#741,.T.);
#475=EDGE_CURVE('',#587,#608,#742,.T.);
#476=EDGE_CURVE('',#591,#609,#743,.T.);
#477=EDGE_CURVE('',#609,#601,#744,.T.);
#478=EDGE_CURVE('',#610,#604,#745,.T.);
#479=EDGE_CURVE('',#595,#610,#746,.T.);
#480=EDGE_CURVE('',#609,#611,#747,.T.);
#481=EDGE_CURVE('',#611,#602,#748,.T.);
#482=EDGE_CURVE('',#612,#603,#749,.T.);
#483=EDGE_CURVE('',#612,#611,#22,.T.);
#484=EDGE_CURVE('',#612,#610,#750,.T.);
#485=EDGE_CURVE('',#613,#614,#751,.T.);
#486=EDGE_CURVE('',#613,#615,#752,.T.);
#487=EDGE_CURVE('',#615,#616,#753,.T.);
#488=EDGE_CURVE('',#614,#616,#754,.F.);
#489=EDGE_CURVE('',#615,#617,#755,.T.);
#490=EDGE_CURVE('',#617,#618,#756,.T.);
#491=EDGE_CURVE('',#616,#618,#757,.T.);
#492=EDGE_CURVE('',#617,#619,#758,.T.);
#493=EDGE_CURVE('',#619,#620,#759,.T.);
#494=EDGE_CURVE('',#618,#620,#760,.F.);
#495=EDGE_CURVE('',#621,#619,#761,.T.);
#496=EDGE_CURVE('',#621,#622,#762,.T.);
#497=EDGE_CURVE('',#622,#620,#763,.F.);
#498=EDGE_CURVE('',#621,#623,#23,.T.);
#499=EDGE_CURVE('',#623,#624,#764,.T.);
#500=EDGE_CURVE('',#622,#624,#24,.T.);
#501=EDGE_CURVE('',#623,#625,#765,.T.);
#502=EDGE_CURVE('',#625,#626,#766,.T.);
#503=EDGE_CURVE('',#624,#626,#767,.F.);
#504=EDGE_CURVE('',#625,#627,#768,.T.);
#505=EDGE_CURVE('',#627,#628,#769,.T.);
#506=EDGE_CURVE('',#626,#628,#770,.F.);
#507=EDGE_CURVE('',#629,#627,#771,.T.);
#508=EDGE_CURVE('',#629,#630,#772,.T.);
#509=EDGE_CURVE('',#630,#628,#773,.T.);
#510=EDGE_CURVE('',#631,#629,#774,.T.);
#511=EDGE_CURVE('',#631,#632,#775,.T.);
#512=EDGE_CURVE('',#632,#630,#776,.T.);
#513=EDGE_CURVE('',#631,#590,#777,.T.);
#514=EDGE_CURVE('',#632,#589,#778,.T.);
#515=EDGE_CURVE('',#613,#596,#779,.T.);
#516=EDGE_CURVE('',#614,#597,#780,.T.);
#517=EDGE_CURVE('',#588,#633,#781,.T.);
#518=EDGE_CURVE('',#633,#634,#782,.T.);
#519=EDGE_CURVE('',#635,#634,#25,.T.);
#520=EDGE_CURVE('',#635,#636,#783,.T.);
#521=EDGE_CURVE('',#598,#636,#784,.T.);
#522=EDGE_CURVE('',#633,#608,#785,.T.);
#523=EDGE_CURVE('',#637,#607,#786,.T.);
#524=EDGE_CURVE('',#637,#634,#787,.T.);
#525=EDGE_CURVE('',#638,#606,#788,.T.);
#526=EDGE_CURVE('',#638,#637,#26,.T.);
#527=EDGE_CURVE('',#636,#605,#789,.T.);
#528=EDGE_CURVE('',#638,#635,#790,.T.);
#529=VERTEX_POINT('',#1513);
#530=VERTEX_POINT('',#1514);
#531=VERTEX_POINT('',#1516);
#532=VERTEX_POINT('',#1518);
#533=VERTEX_POINT('',#1522);
#534=VERTEX_POINT('',#1524);
#535=VERTEX_POINT('',#1528);
#536=VERTEX_POINT('',#1530);
#537=VERTEX_POINT('',#1534);
#538=VERTEX_POINT('',#1536);
#539=VERTEX_POINT('',#1540);
#540=VERTEX_POINT('',#1542);
#541=VERTEX_POINT('',#1546);
#542=VERTEX_POINT('',#1548);
#543=VERTEX_POINT('',#1562);
#544=VERTEX_POINT('',#1564);
#545=VERTEX_POINT('',#1571);
#546=VERTEX_POINT('',#1573);
#547=VERTEX_POINT('',#1577);
#548=VERTEX_POINT('',#1579);
#549=VERTEX_POINT('',#1583);
#550=VERTEX_POINT('',#1585);
#551=VERTEX_POINT('',#1589);
#552=VERTEX_POINT('',#1591);
#553=VERTEX_POINT('',#1595);
#554=VERTEX_POINT('',#1597);
#555=VERTEX_POINT('',#1601);
#556=VERTEX_POINT('',#1603);
#557=VERTEX_POINT('',#1607);
#558=VERTEX_POINT('',#1609);
#559=VERTEX_POINT('',#1613);
#560=VERTEX_POINT('',#1615);
#561=VERTEX_POINT('',#1656);
#562=VERTEX_POINT('',#1658);
#563=VERTEX_POINT('',#1678);
#564=VERTEX_POINT('',#1680);
#565=VERTEX_POINT('',#1690);
#566=VERTEX_POINT('',#1691);
#567=VERTEX_POINT('',#1693);
#568=VERTEX_POINT('',#1695);
#569=VERTEX_POINT('',#1699);
#570=VERTEX_POINT('',#1701);
#571=VERTEX_POINT('',#1705);
#572=VERTEX_POINT('',#1707);
#573=VERTEX_POINT('',#1711);
#574=VERTEX_POINT('',#1713);
#575=VERTEX_POINT('',#1727);
#576=VERTEX_POINT('',#1729);
#577=VERTEX_POINT('',#1736);
#578=VERTEX_POINT('',#1738);
#579=VERTEX_POINT('',#1742);
#580=VERTEX_POINT('',#1744);
#581=VERTEX_POINT('',#1748);
#582=VERTEX_POINT('',#1750);
#583=VERTEX_POINT('',#1754);
#584=VERTEX_POINT('',#1756);
#585=VERTEX_POINT('',#1760);
#586=VERTEX_POINT('',#1762);
#587=VERTEX_POINT('',#1766);
#588=VERTEX_POINT('',#1768);
#589=VERTEX_POINT('',#1770);
#590=VERTEX_POINT('',#1772);
#591=VERTEX_POINT('',#1774);
#592=VERTEX_POINT('',#1776);
#593=VERTEX_POINT('',#1780);
#594=VERTEX_POINT('',#1781);
#595=VERTEX_POINT('',#1783);
#596=VERTEX_POINT('',#1785);
#597=VERTEX_POINT('',#1787);
#598=VERTEX_POINT('',#1789);
#599=VERTEX_POINT('',#1791);
#600=VERTEX_POINT('',#1793);
#601=VERTEX_POINT('',#1800);
#602=VERTEX_POINT('',#1802);
#603=VERTEX_POINT('',#1820);
#604=VERTEX_POINT('',#1822);
#605=VERTEX_POINT('',#1826);
#606=VERTEX_POINT('',#1828);
#607=VERTEX_POINT('',#1840);
#608=VERTEX_POINT('',#1842);
#609=VERTEX_POINT('',#1846);
#610=VERTEX_POINT('',#1850);
#611=VERTEX_POINT('',#1854);
#612=VERTEX_POINT('',#1879);
#613=VERTEX_POINT('',#1901);
#614=VERTEX_POINT('',#1902);
#615=VERTEX_POINT('',#1904);
#616=VERTEX_POINT('',#1906);
#617=VERTEX_POINT('',#1910);
#618=VERTEX_POINT('',#1912);
#619=VERTEX_POINT('',#1916);
#620=VERTEX_POINT('',#1918);
#621=VERTEX_POINT('',#1922);
#622=VERTEX_POINT('',#1924);
#623=VERTEX_POINT('',#1938);
#624=VERTEX_POINT('',#1940);
#625=VERTEX_POINT('',#1947);
#626=VERTEX_POINT('',#1949);
#627=VERTEX_POINT('',#1953);
#628=VERTEX_POINT('',#1955);
#629=VERTEX_POINT('',#1959);
#630=VERTEX_POINT('',#1961);
#631=VERTEX_POINT('',#1965);
#632=VERTEX_POINT('',#1967);
#633=VERTEX_POINT('',#1977);
#634=VERTEX_POINT('',#1979);
#635=VERTEX_POINT('',#1991);
#636=VERTEX_POINT('',#1993);
#637=VERTEX_POINT('',#2000);
#638=VERTEX_POINT('',#2025);
#639=LINE('',#1512,#791);
#640=LINE('',#1515,#792);
#641=LINE('',#1517,#793);
#642=LINE('',#1519,#794);
#643=LINE('',#1521,#795);
#644=LINE('',#1523,#796);
#645=LINE('',#1525,#797);
#646=LINE('',#1527,#798);
#647=LINE('',#1529,#799);
#648=LINE('',#1531,#800);
#649=LINE('',#1533,#801);
#650=LINE('',#1535,#802);
#651=LINE('',#1537,#803);
#652=LINE('',#1539,#804);
#653=LINE('',#1541,#805);
#654=LINE('',#1543,#806);
#655=LINE('',#1545,#807);
#656=LINE('',#1547,#808);
#657=LINE('',#1549,#809);
#658=LINE('',#1563,#810);
#659=LINE('',#1570,#811);
#660=LINE('',#1572,#812);
#661=LINE('',#1574,#813);
#662=LINE('',#1576,#814);
#663=LINE('',#1578,#815);
#664=LINE('',#1580,#816);
#665=LINE('',#1582,#817);
#666=LINE('',#1584,#818);
#667=LINE('',#1586,#819);
#668=LINE('',#1588,#820);
#669=LINE('',#1590,#821);
#670=LINE('',#1592,#822);
#671=LINE('',#1594,#823);
#672=LINE('',#1596,#824);
#673=LINE('',#1598,#825);
#674=LINE('',#1600,#826);
#675=LINE('',#1602,#827);
#676=LINE('',#1604,#828);
#677=LINE('',#1606,#829);
#678=LINE('',#1608,#830);
#679=LINE('',#1610,#831);
#680=LINE('',#1612,#832);
#681=LINE('',#1614,#833);
#682=LINE('',#1616,#834);
#683=LINE('',#1657,#835);
#684=LINE('',#1677,#836);
#685=LINE('',#1679,#837);
#686=LINE('',#1681,#838);
#687=LINE('',#1683,#839);
#688=LINE('',#1684,#840);
#689=LINE('',#1689,#841);
#690=LINE('',#1692,#842);
#691=LINE('',#1694,#843);
#692=LINE('',#1696,#844);
#693=LINE('',#1698,#845);
#694=LINE('',#1700,#846);
#695=LINE('',#1702,#847);
#696=LINE('',#1704,#848);
#697=LINE('',#1706,#849);
#698=LINE('',#1708,#850);
#699=LINE('',#1710,#851);
#700=LINE('',#1712,#852);
#701=LINE('',#1714,#853);
#702=LINE('',#1728,#854);
#703=LINE('',#1735,#855);
#704=LINE('',#1737,#856);
#705=LINE('',#1739,#857);
#706=LINE('',#1741,#858);
#707=LINE('',#1743,#859);
#708=LINE('',#1745,#860);
#709=LINE('',#1747,#861);
#710=LINE('',#1749,#862);
#711=LINE('',#1751,#863);
#712=LINE('',#1753,#864);
#713=LINE('',#1755,#865);
#714=LINE('',#1757,#866);
#715=LINE('',#1759,#867);
#716=LINE('',#1761,#868);
#717=LINE('',#1763,#869);
#718=LINE('',#1765,#870);
#719=LINE('',#1767,#871);
#720=LINE('',#1769,#872);
#721=LINE('',#1771,#873);
#722=LINE('',#1773,#874);
#723=LINE('',#1775,#875);
#724=LINE('',#1777,#876);
#725=LINE('',#1779,#877);
#726=LINE('',#1782,#878);
#727=LINE('',#1784,#879);
#728=LINE('',#1786,#880);
#729=LINE('',#1788,#881);
#730=LINE('',#1790,#882);
#731=LINE('',#1792,#883);
#732=LINE('',#1794,#884);
#733=LINE('',#1796,#885);
#734=LINE('',#1797,#886);
#735=LINE('',#1799,#887);
#736=LINE('',#1801,#888);
#737=LINE('',#1821,#889);
#738=LINE('',#1823,#890);
#739=LINE('',#1825,#891);
#740=LINE('',#1827,#892);
#741=LINE('',#1841,#893);
#742=LINE('',#1843,#894);
#743=LINE('',#1845,#895);
#744=LINE('',#1847,#896);
#745=LINE('',#1849,#897);
#746=LINE('',#1851,#898);
#747=LINE('',#1853,#899);
#748=LINE('',#1855,#900);
#749=LINE('',#1878,#901);
#750=LINE('',#1898,#902);
#751=LINE('',#1900,#903);
#752=LINE('',#1903,#904);
#753=LINE('',#1905,#905);
#754=LINE('',#1907,#906);
#755=LINE('',#1909,#907);
#756=LINE('',#1911,#908);
#757=LINE('',#1913,#909);
#758=LINE('',#1915,#910);
#759=LINE('',#1917,#911);
#760=LINE('',#1919,#912);
#761=LINE('',#1921,#913);
#762=LINE('',#1923,#914);
#763=LINE('',#1925,#915);
#764=LINE('',#1939,#916);
#765=LINE('',#1946,#917);
#766=LINE('',#1948,#918);
#767=LINE('',#1950,#919);
#768=LINE('',#1952,#920);
#769=LINE('',#1954,#921);
#770=LINE('',#1956,#922);
#771=LINE('',#1958,#923);
#772=LINE('',#1960,#924);
#773=LINE('',#1962,#925);
#774=LINE('',#1964,#926);
#775=LINE('',#1966,#927);
#776=LINE('',#1968,#928);
#777=LINE('',#1970,#929);
#778=LINE('',#1971,#930);
#779=LINE('',#1973,#931);
#780=LINE('',#1974,#932);
#781=LINE('',#1976,#933);
#782=LINE('',#1978,#934);
#783=LINE('',#1992,#935);
#784=LINE('',#1994,#936);
#785=LINE('',#1997,#937);
#786=LINE('',#1999,#938);
#787=LINE('',#2001,#939);
#788=LINE('',#2024,#940);
#789=LINE('',#2038,#941);
#790=LINE('',#2039,#942);
#791=VECTOR('',#1254,1.);
#792=VECTOR('',#1255,1.);
#793=VECTOR('',#1256,1.);
#794=VECTOR('',#1257,1.);
#795=VECTOR('',#1260,1.);
#796=VECTOR('',#1261,1.);
#797=VECTOR('',#1262,1.);
#798=VECTOR('',#1265,1.);
#799=VECTOR('',#1266,1.);
#800=VECTOR('',#1267,1.);
#801=VECTOR('',#1270,1.);
#802=VECTOR('',#1271,1.);
#803=VECTOR('',#1272,1.);
#804=VECTOR('',#1275,1.);
#805=VECTOR('',#1276,1.);
#806=VECTOR('',#1277,1.);
#807=VECTOR('',#1280,1.);
#808=VECTOR('',#1281,1.);
#809=VECTOR('',#1282,1.);
#810=VECTOR('',#1283,1.);
#811=VECTOR('',#1286,1.);
#812=VECTOR('',#1287,1.);
#813=VECTOR('',#1288,1.);
#814=VECTOR('',#1291,1.);
#815=VECTOR('',#1292,1.);
#816=VECTOR('',#1293,1.);
#817=VECTOR('',#1296,1.);
#818=VECTOR('',#1297,1.);
#819=VECTOR('',#1298,1.);
#820=VECTOR('',#1301,1.);
#821=VECTOR('',#1302,1.);
#822=VECTOR('',#1303,1.);
#823=VECTOR('',#1306,1.);
#824=VECTOR('',#1307,1.);
#825=VECTOR('',#1308,1.);
#826=VECTOR('',#1311,1.);
#827=VECTOR('',#1312,1.);
#828=VECTOR('',#1313,1.);
#829=VECTOR('',#1316,1.);
#830=VECTOR('',#1317,1.);
#831=VECTOR('',#1318,1.);
#832=VECTOR('',#1321,1.);
#833=VECTOR('',#1322,1.);
#834=VECTOR('',#1323,1.);
#835=VECTOR('',#1324,1.);
#836=VECTOR('',#1327,1.);
#837=VECTOR('',#1328,1.);
#838=VECTOR('',#1329,1.);
#839=VECTOR('',#1332,1.);
#840=VECTOR('',#1333,1.);
#841=VECTOR('',#1342,1.);
#842=VECTOR('',#1343,1.);
#843=VECTOR('',#1344,1.);
#844=VECTOR('',#1345,1.);
#845=VECTOR('',#1348,1.);
#846=VECTOR('',#1349,1.);
#847=VECTOR('',#1350,1.);
#848=VECTOR('',#1353,1.);
#849=VECTOR('',#1354,1.);
#850=VECTOR('',#1355,1.);
#851=VECTOR('',#1358,1.);
#852=VECTOR('',#1359,1.);
#853=VECTOR('',#1360,1.);
#854=VECTOR('',#1361,1.);
#855=VECTOR('',#1364,1.);
#856=VECTOR('',#1365,1.);
#857=VECTOR('',#1366,1.);
#858=VECTOR('',#1369,1.);
#859=VECTOR('',#1370,1.);
#860=VECTOR('',#1371,1.);
#861=VECTOR('',#1374,1.);
#862=VECTOR('',#1375,1.);
#863=VECTOR('',#1376,1.);
#864=VECTOR('',#1379,1.);
#865=VECTOR('',#1380,1.);
#866=VECTOR('',#1381,1.);
#867=VECTOR('',#1384,1.);
#868=VECTOR('',#1385,1.);
#869=VECTOR('',#1386,1.);
#870=VECTOR('',#1389,1.);
#871=VECTOR('',#1390,1.);
#872=VECTOR('',#1391,1.);
#873=VECTOR('',#1392,1.);
#874=VECTOR('',#1393,1.);
#875=VECTOR('',#1394,1.);
#876=VECTOR('',#1395,1.);
#877=VECTOR('',#1398,1.);
#878=VECTOR('',#1399,1.);
#879=VECTOR('',#1400,1.);
#880=VECTOR('',#1401,1.);
#881=VECTOR('',#1402,1.);
#882=VECTOR('',#1403,1.);
#883=VECTOR('',#1404,1.);
#884=VECTOR('',#1405,1.);
#885=VECTOR('',#1408,1.);
#886=VECTOR('',#1409,1.);
#887=VECTOR('',#1412,1.);
#888=VECTOR('',#1413,1.);
#889=VECTOR('',#1414,1.);
#890=VECTOR('',#1415,1.);
#891=VECTOR('',#1418,1.);
#892=VECTOR('',#1419,1.);
#893=VECTOR('',#1420,1.);
#894=VECTOR('',#1421,1.);
#895=VECTOR('',#1424,1.);
#896=VECTOR('',#1425,1.);
#897=VECTOR('',#1428,1.);
#898=VECTOR('',#1429,1.);
#899=VECTOR('',#1432,1.);
#900=VECTOR('',#1433,1.);
#901=VECTOR('',#1434,1.);
#902=VECTOR('',#1437,1.);
#903=VECTOR('',#1440,1.);
#904=VECTOR('',#1441,1.);
#905=VECTOR('',#1442,1.);
#906=VECTOR('',#1443,1.);
#907=VECTOR('',#1446,1.);
#908=VECTOR('',#1447,1.);
#909=VECTOR('',#1448,1.);
#910=VECTOR('',#1451,1.);
#911=VECTOR('',#1452,1.);
#912=VECTOR('',#1453,1.);
#913=VECTOR('',#1456,1.);
#914=VECTOR('',#1457,1.);
#915=VECTOR('',#1458,1.);
#916=VECTOR('',#1459,1.);
#917=VECTOR('',#1462,1.);
#918=VECTOR('',#1463,1.);
#919=VECTOR('',#1464,1.);
#920=VECTOR('',#1467,1.);
#921=VECTOR('',#1468,1.);
#922=VECTOR('',#1469,1.);
#923=VECTOR('',#1472,1.);
#924=VECTOR('',#1473,1.);
#925=VECTOR('',#1474,1.);
#926=VECTOR('',#1477,1.);
#927=VECTOR('',#1478,1.);
#928=VECTOR('',#1479,1.);
#929=VECTOR('',#1482,1.);
#930=VECTOR('',#1483,1.);
#931=VECTOR('',#1486,1.);
#932=VECTOR('',#1487,1.);
#933=VECTOR('',#1490,1.);
#934=VECTOR('',#1491,1.);
#935=VECTOR('',#1492,1.);
#936=VECTOR('',#1493,1.);
#937=VECTOR('',#1498,1.);
#938=VECTOR('',#1501,1.);
#939=VECTOR('',#1502,1.);
#940=VECTOR('',#1503,1.);
#941=VECTOR('',#1506,1.);
#942=VECTOR('',#1507,1.);
#943=EDGE_LOOP('',(#34,#35,#36,#37));
#944=EDGE_LOOP('',(#38,#39,#40,#41));
#945=EDGE_LOOP('',(#42,#43,#44,#45));
#946=EDGE_LOOP('',(#46,#47,#48,#49));
#947=EDGE_LOOP('',(#50,#51,#52,#53));
#948=EDGE_LOOP('',(#54,#55,#56,#57));
#949=EDGE_LOOP('',(#58,#59,#60,#61));
#950=EDGE_LOOP('',(#62,#63,#64,#65));
#951=EDGE_LOOP('',(#66,#67,#68,#69));
#952=EDGE_LOOP('',(#70,#71,#72,#73));
#953=EDGE_LOOP('',(#74,#75,#76,#77));
#954=EDGE_LOOP('',(#78,#79,#80,#81));
#955=EDGE_LOOP('',(#82,#83,#84,#85));
#956=EDGE_LOOP('',(#86,#87,#88,#89));
#957=EDGE_LOOP('',(#90,#91,#92,#93));
#958=EDGE_LOOP('',(#94,#95,#96,#97));
#959=EDGE_LOOP('',(#98,#99,#100,#101));
#960=EDGE_LOOP('',(#102,#103,#104,#105));
#961=EDGE_LOOP('',(#106,#107,#108,#109,#110,#111,#112,#113,#114,#115,#116,
#117,#118,#119,#120,#121,#122,#123));
#962=EDGE_LOOP('',(#124,#125,#126,#127,#128,#129,#130,#131,#132,#133,#134,
#135,#136,#137,#138,#139,#140,#141));
#963=EDGE_LOOP('',(#142,#143,#144,#145));
#964=EDGE_LOOP('',(#146,#147,#148,#149));
#965=EDGE_LOOP('',(#150,#151,#152,#153));
#966=EDGE_LOOP('',(#154,#155,#156,#157));
#967=EDGE_LOOP('',(#158,#159,#160,#161));
#968=EDGE_LOOP('',(#162,#163,#164,#165));
#969=EDGE_LOOP('',(#166,#167,#168,#169));
#970=EDGE_LOOP('',(#170,#171,#172,#173));
#971=EDGE_LOOP('',(#174,#175,#176,#177));
#972=EDGE_LOOP('',(#178,#179,#180,#181));
#973=EDGE_LOOP('',(#182,#183,#184,#185,#186,#187,#188,#189));
#974=EDGE_LOOP('',(#190,#191,#192,#193,#194,#195,#196,#197));
#975=EDGE_LOOP('',(#198,#199,#200,#201));
#976=EDGE_LOOP('',(#202,#203,#204,#205,#206,#207,#208,#209,#210,#211,#212,
#213,#214,#215,#216,#217,#218,#219));
#977=EDGE_LOOP('',(#220,#221,#222,#223,#224,#225,#226,#227,#228,#229,#230,
#231,#232,#233,#234,#235,#236,#237));
#978=EDGE_LOOP('',(#238,#239,#240,#241));
#979=EDGE_LOOP('',(#242,#243,#244,#245));
#980=EDGE_LOOP('',(#246,#247,#248,#249));
#981=EDGE_LOOP('',(#250,#251,#252,#253));
#982=EDGE_LOOP('',(#254,#255,#256,#257));
#983=EDGE_LOOP('',(#258,#259,#260,#261));
#984=EDGE_LOOP('',(#262,#263,#264,#265));
#985=EDGE_LOOP('',(#266,#267,#268,#269));
#986=EDGE_LOOP('',(#270,#271,#272,#273));
#987=EDGE_LOOP('',(#274,#275,#276,#277));
#988=EDGE_LOOP('',(#278,#279,#280,#281));
#989=EDGE_LOOP('',(#282,#283,#284,#285));
#990=EDGE_LOOP('',(#286,#287,#288,#289));
#991=EDGE_LOOP('',(#290,#291,#292,#293));
#992=EDGE_LOOP('',(#294,#295,#296,#297));
#993=EDGE_LOOP('',(#298,#299,#300,#301));
#994=EDGE_LOOP('',(#302,#303,#304,#305,#306,#307,#308,#309,#310,#311,#312,
#313,#314,#315,#316,#317,#318,#319));
#995=EDGE_LOOP('',(#320,#321,#322,#323,#324,#325,#326,#327,#328,#329,#330,
#331,#332,#333,#334,#335,#336,#337));
#996=EDGE_LOOP('',(#338,#339,#340,#341));
#997=EDGE_LOOP('',(#342,#343,#344,#345,#346));
#998=EDGE_LOOP('',(#347,#348,#349,#350));
#999=EDGE_LOOP('',(#351,#352,#353,#354,#355));
#1000=EDGE_LOOP('',(#356,#357,#358,#359));
#1001=EDGE_LOOP('',(#360,#361,#362,#363));
#1002=FACE_BOUND('',#943,.T.);
#1003=FACE_BOUND('',#944,.T.);
#1004=FACE_BOUND('',#945,.T.);
#1005=FACE_BOUND('',#946,.T.);
#1006=FACE_BOUND('',#947,.T.);
#1007=FACE_BOUND('',#948,.T.);
#1008=FACE_BOUND('',#949,.T.);
#1009=FACE_BOUND('',#950,.T.);
#1010=FACE_BOUND('',#951,.T.);
#1011=FACE_BOUND('',#952,.T.);
#1012=FACE_BOUND('',#953,.T.);
#1013=FACE_BOUND('',#954,.T.);
#1014=FACE_BOUND('',#955,.T.);
#1015=FACE_BOUND('',#956,.T.);
#1016=FACE_BOUND('',#957,.T.);
#1017=FACE_BOUND('',#958,.T.);
#1018=FACE_BOUND('',#959,.T.);
#1019=FACE_BOUND('',#960,.T.);
#1020=FACE_BOUND('',#961,.T.);
#1021=FACE_BOUND('',#962,.T.);
#1022=FACE_BOUND('',#963,.T.);
#1023=FACE_BOUND('',#964,.T.);
#1024=FACE_BOUND('',#965,.T.);
#1025=FACE_BOUND('',#966,.T.);
#1026=FACE_BOUND('',#967,.T.);
#1027=FACE_BOUND('',#968,.T.);
#1028=FACE_BOUND('',#969,.T.);
#1029=FACE_BOUND('',#970,.T.);
#1030=FACE_BOUND('',#971,.T.);
#1031=FACE_BOUND('',#972,.T.);
#1032=FACE_BOUND('',#973,.T.);
#1033=FACE_BOUND('',#974,.T.);
#1034=FACE_BOUND('',#975,.T.);
#1035=FACE_BOUND('',#976,.T.);
#1036=FACE_BOUND('',#977,.T.);
#1037=FACE_BOUND('',#978,.T.);
#1038=FACE_BOUND('',#979,.T.);
#1039=FACE_BOUND('',#980,.T.);
#1040=FACE_BOUND('',#981,.T.);
#1041=FACE_BOUND('',#982,.T.);
#1042=FACE_BOUND('',#983,.T.);
#1043=FACE_BOUND('',#984,.T.);
#1044=FACE_BOUND('',#985,.T.);
#1045=FACE_BOUND('',#986,.T.);
#1046=FACE_BOUND('',#987,.T.);
#1047=FACE_BOUND('',#988,.T.);
#1048=FACE_BOUND('',#989,.T.);
#1049=FACE_BOUND('',#990,.T.);
#1050=FACE_BOUND('',#991,.T.);
#1051=FACE_BOUND('',#992,.T.);
#1052=FACE_BOUND('',#993,.T.);
#1053=FACE_BOUND('',#994,.T.);
#1054=FACE_BOUND('',#995,.T.);
#1055=FACE_BOUND('',#996,.T.);
#1056=FACE_BOUND('',#997,.T.);
#1057=FACE_BOUND('',#998,.T.);
#1058=FACE_BOUND('',#999,.T.);
#1059=FACE_BOUND('',#1000,.T.);
#1060=FACE_BOUND('',#1001,.T.);
#1061=PLANE('',#1197);
#1062=PLANE('',#1198);
#1063=PLANE('',#1199);
#1064=PLANE('',#1200);
#1065=PLANE('',#1201);
#1066=PLANE('',#1202);
#1067=PLANE('',#1203);
#1068=PLANE('',#1204);
#1069=PLANE('',#1205);
#1070=PLANE('',#1206);
#1071=PLANE('',#1207);
#1072=PLANE('',#1208);
#1073=PLANE('',#1209);
#1074=PLANE('',#1210);
#1075=PLANE('',#1211);
#1076=PLANE('',#1212);
#1077=PLANE('',#1213);
#1078=PLANE('',#1214);
#1079=PLANE('',#1216);
#1080=PLANE('',#1217);
#1081=PLANE('',#1218);
#1082=PLANE('',#1219);
#1083=PLANE('',#1220);
#1084=PLANE('',#1221);
#1085=PLANE('',#1222);
#1086=PLANE('',#1223);
#1087=PLANE('',#1224);
#1088=PLANE('',#1225);
#1089=PLANE('',#1226);
#1090=PLANE('',#1227);
#1091=PLANE('',#1228);
#1092=PLANE('',#1229);
#1093=PLANE('',#1230);
#1094=PLANE('',#1231);
#1095=PLANE('',#1232);
#1096=PLANE('',#1233);
#1097=PLANE('',#1234);
#1098=PLANE('',#1235);
#1099=PLANE('',#1236);
#1100=PLANE('',#1237);
#1101=PLANE('',#1238);
#1102=PLANE('',#1239);
#1103=PLANE('',#1240);
#1104=PLANE('',#1241);
#1105=PLANE('',#1242);
#1106=PLANE('',#1243);
#1107=PLANE('',#1244);
#1108=PLANE('',#1245);
#1109=PLANE('',#1246);
#1110=PLANE('',#1247);
#1111=PLANE('',#1248);
#1112=PLANE('',#1249);
#1113=ADVANCED_FACE('',(#1002),#1061,.T.);
#1114=ADVANCED_FACE('',(#1003),#1062,.T.);
#1115=ADVANCED_FACE('',(#1004),#1063,.F.);
#1116=ADVANCED_FACE('',(#1005),#1064,.F.);
#1117=ADVANCED_FACE('',(#1006),#1065,.F.);
#1118=ADVANCED_FACE('',(#1007),#1066,.T.);
#1119=ADVANCED_FACE('',(#1008),#27,.F.);
#1120=ADVANCED_FACE('',(#1009),#1067,.F.);
#1121=ADVANCED_FACE('',(#1010),#1068,.F.);
#1122=ADVANCED_FACE('',(#1011),#1069,.T.);
#1123=ADVANCED_FACE('',(#1012),#1070,.T.);
#1124=ADVANCED_FACE('',(#1013),#1071,.F.);
#1125=ADVANCED_FACE('',(#1014),#1072,.F.);
#1126=ADVANCED_FACE('',(#1015),#1073,.F.);
#1127=ADVANCED_FACE('',(#1016),#1074,.F.);
#1128=ADVANCED_FACE('',(#1017),#28,.T.);
#1129=ADVANCED_FACE('',(#1018),#1075,.F.);
#1130=ADVANCED_FACE('',(#1019),#1076,.T.);
#1131=ADVANCED_FACE('',(#1020),#1077,.T.);
#1132=ADVANCED_FACE('',(#1021),#1078,.F.);
#1133=ADVANCED_FACE('',(#1022),#1079,.T.);
#1134=ADVANCED_FACE('',(#1023),#1080,.T.);
#1135=ADVANCED_FACE('',(#1024),#1081,.T.);
#1136=ADVANCED_FACE('',(#1025),#1082,.F.);
#1137=ADVANCED_FACE('',(#1026),#29,.T.);
#1138=ADVANCED_FACE('',(#1027),#1083,.T.);
#1139=ADVANCED_FACE('',(#1028),#1084,.T.);
#1140=ADVANCED_FACE('',(#1029),#1085,.F.);
#1141=ADVANCED_FACE('',(#1030),#1086,.F.);
#1142=ADVANCED_FACE('',(#1031),#1087,.T.);
#1143=ADVANCED_FACE('',(#1032),#1088,.T.);
#1144=ADVANCED_FACE('',(#1033),#1089,.F.);
#1145=ADVANCED_FACE('',(#1034),#1090,.F.);
#1146=ADVANCED_FACE('',(#1035),#1091,.T.);
#1147=ADVANCED_FACE('',(#1036),#1092,.F.);
#1148=ADVANCED_FACE('',(#1037),#1093,.T.);
#1149=ADVANCED_FACE('',(#1038),#1094,.F.);
#1150=ADVANCED_FACE('',(#1039),#1095,.T.);
#1151=ADVANCED_FACE('',(#1040),#30,.F.);
#1152=ADVANCED_FACE('',(#1041),#1096,.T.);
#1153=ADVANCED_FACE('',(#1042),#1097,.T.);
#1154=ADVANCED_FACE('',(#1043),#1098,.T.);
#1155=ADVANCED_FACE('',(#1044),#1099,.T.);
#1156=ADVANCED_FACE('',(#1045),#1100,.F.);
#1157=ADVANCED_FACE('',(#1046),#31,.T.);
#1158=ADVANCED_FACE('',(#1047),#1101,.T.);
#1159=ADVANCED_FACE('',(#1048),#1102,.T.);
#1160=ADVANCED_FACE('',(#1049),#1103,.F.);
#1161=ADVANCED_FACE('',(#1050),#1104,.F.);
#1162=ADVANCED_FACE('',(#1051),#1105,.T.);
#1163=ADVANCED_FACE('',(#1052),#1106,.F.);
#1164=ADVANCED_FACE('',(#1053),#1107,.T.);
#1165=ADVANCED_FACE('',(#1054),#1108,.F.);
#1166=ADVANCED_FACE('',(#1055),#1109,.F.);
#1167=ADVANCED_FACE('',(#1056),#1110,.F.);
#1168=ADVANCED_FACE('',(#1057),#32,.T.);
#1169=ADVANCED_FACE('',(#1058),#1111,.F.);
#1170=ADVANCED_FACE('',(#1059),#1112,.T.);
#1171=ADVANCED_FACE('',(#1060),#33,.F.);
#1172=CLOSED_SHELL('',(#1113,#1114,#1115,#1116,#1117,#1118,#1119,#1120,
#1121,#1122,#1123,#1124,#1125,#1126,#1127,#1128,#1129,#1130,#1131,#1132));
#1173=CLOSED_SHELL('',(#1133,#1134,#1135,#1136,#1137,#1138,#1139,#1140,
#1141,#1142,#1143,#1144,#1145,#1146,#1147,#1148,#1149,#1150,#1151,#1152,
#1153,#1154,#1155,#1156,#1157,#1158,#1159,#1160,#1161,#1162,#1163,#1164,
#1165,#1166,#1167,#1168,#1169,#1170,#1171));
#1174=STYLED_ITEM('',(#1176),#1190);
#1175=STYLED_ITEM('',(#1177),#1191);
#1176=PRESENTATION_STYLE_ASSIGNMENT((#1178));
#1177=PRESENTATION_STYLE_ASSIGNMENT((#1179));
#1178=SURFACE_STYLE_USAGE(.BOTH.,#1180);
#1179=SURFACE_STYLE_USAGE(.BOTH.,#1181);
#1180=SURFACE_SIDE_STYLE('',(#1182));
#1181=SURFACE_SIDE_STYLE('',(#1183));
#1182=SURFACE_STYLE_FILL_AREA(#1184);
#1183=SURFACE_STYLE_FILL_AREA(#1185);
#1184=FILL_AREA_STYLE('',(#1186));
#1185=FILL_AREA_STYLE('',(#1187));
#1186=FILL_AREA_STYLE_COLOUR('',#1188);
#1187=FILL_AREA_STYLE_COLOUR('',#1189);
#1188=COLOUR_RGB('',0.647058823529412,0.647058823529412,0.647058823529412);
#1189=COLOUR_RGB('',0.980392156862745,0.796078431372549,0.262745098039216);
#1190=MANIFOLD_SOLID_BREP('Clip Conductive',#1172);
#1191=MANIFOLD_SOLID_BREP('Clip Insulator',#1173);
#1192=SHAPE_DEFINITION_REPRESENTATION(#2075,#1194);
#1193=SHAPE_DEFINITION_REPRESENTATION(#2076,#1195);
#1194=SHAPE_REPRESENTATION('Clip Conductive',(#1196),#2065);
#1195=SHAPE_REPRESENTATION('Clip Insulator',(#1215),#2066);
#1196=AXIS2_PLACEMENT_3D('',#1510,#1250,#1251);
#1197=AXIS2_PLACEMENT_3D('',#1511,#1252,#1253);
#1198=AXIS2_PLACEMENT_3D('',#1520,#1258,#1259);
#1199=AXIS2_PLACEMENT_3D('',#1526,#1263,#1264);
#1200=AXIS2_PLACEMENT_3D('',#1532,#1268,#1269);
#1201=AXIS2_PLACEMENT_3D('',#1538,#1273,#1274);
#1202=AXIS2_PLACEMENT_3D('',#1544,#1278,#1279);
#1203=AXIS2_PLACEMENT_3D('',#1569,#1284,#1285);
#1204=AXIS2_PLACEMENT_3D('',#1575,#1289,#1290);
#1205=AXIS2_PLACEMENT_3D('',#1581,#1294,#1295);
#1206=AXIS2_PLACEMENT_3D('',#1587,#1299,#1300);
#1207=AXIS2_PLACEMENT_3D('',#1593,#1304,#1305);
#1208=AXIS2_PLACEMENT_3D('',#1599,#1309,#1310);
#1209=AXIS2_PLACEMENT_3D('',#1605,#1314,#1315);
#1210=AXIS2_PLACEMENT_3D('',#1611,#1319,#1320);
#1211=AXIS2_PLACEMENT_3D('',#1676,#1325,#1326);
#1212=AXIS2_PLACEMENT_3D('',#1682,#1330,#1331);
#1213=AXIS2_PLACEMENT_3D('',#1685,#1334,#1335);
#1214=AXIS2_PLACEMENT_3D('',#1686,#1336,#1337);
#1215=AXIS2_PLACEMENT_3D('',#1687,#1338,#1339);
#1216=AXIS2_PLACEMENT_3D('',#1688,#1340,#1341);
#1217=AXIS2_PLACEMENT_3D('',#1697,#1346,#1347);
#1218=AXIS2_PLACEMENT_3D('',#1703,#1351,#1352);
#1219=AXIS2_PLACEMENT_3D('',#1709,#1356,#1357);
#1220=AXIS2_PLACEMENT_3D('',#1734,#1362,#1363);
#1221=AXIS2_PLACEMENT_3D('',#1740,#1367,#1368);
#1222=AXIS2_PLACEMENT_3D('',#1746,#1372,#1373);
#1223=AXIS2_PLACEMENT_3D('',#1752,#1377,#1378);
#1224=AXIS2_PLACEMENT_3D('',#1758,#1382,#1383);
#1225=AXIS2_PLACEMENT_3D('',#1764,#1387,#1388);
#1226=AXIS2_PLACEMENT_3D('',#1778,#1396,#1397);
#1227=AXIS2_PLACEMENT_3D('',#1795,#1406,#1407);
#1228=AXIS2_PLACEMENT_3D('',#1798,#1410,#1411);
#1229=AXIS2_PLACEMENT_3D('',#1824,#1416,#1417);
#1230=AXIS2_PLACEMENT_3D('',#1844,#1422,#1423);
#1231=AXIS2_PLACEMENT_3D('',#1848,#1426,#1427);
#1232=AXIS2_PLACEMENT_3D('',#1852,#1430,#1431);
#1233=AXIS2_PLACEMENT_3D('',#1897,#1435,#1436);
#1234=AXIS2_PLACEMENT_3D('',#1899,#1438,#1439);
#1235=AXIS2_PLACEMENT_3D('',#1908,#1444,#1445);
#1236=AXIS2_PLACEMENT_3D('',#1914,#1449,#1450);
#1237=AXIS2_PLACEMENT_3D('',#1920,#1454,#1455);
#1238=AXIS2_PLACEMENT_3D('',#1945,#1460,#1461);
#1239=AXIS2_PLACEMENT_3D('',#1951,#1465,#1466);
#1240=AXIS2_PLACEMENT_3D('',#1957,#1470,#1471);
#1241=AXIS2_PLACEMENT_3D('',#1963,#1475,#1476);
#1242=AXIS2_PLACEMENT_3D('',#1969,#1480,#1481);
#1243=AXIS2_PLACEMENT_3D('',#1972,#1484,#1485);
#1244=AXIS2_PLACEMENT_3D('',#1975,#1488,#1489);
#1245=AXIS2_PLACEMENT_3D('',#1995,#1494,#1495);
#1246=AXIS2_PLACEMENT_3D('',#1996,#1496,#1497);
#1247=AXIS2_PLACEMENT_3D('',#1998,#1499,#1500);
#1248=AXIS2_PLACEMENT_3D('',#2037,#1504,#1505);
#1249=AXIS2_PLACEMENT_3D('',#2040,#1508,#1509);
#1250=DIRECTION('',(0.,0.,1.));
#1251=DIRECTION('',(1.,0.,0.));
#1252=DIRECTION('',(-1.,0.,0.));
#1253=DIRECTION('',(0.,0.,1.));
#1254=DIRECTION('',(0.,1.,0.));
#1255=DIRECTION('',(0.,0.,-1.));
#1256=DIRECTION('',(0.,1.,0.));
#1257=DIRECTION('',(0.,0.,-1.));
#1258=DIRECTION('',(0.107658477811267,0.994187936033907,0.));
#1259=DIRECTION('',(-0.994187936033908,0.107658477811267,0.));
#1260=DIRECTION('',(0.994187936033908,-0.107658477811267,0.));
#1261=DIRECTION('',(0.,0.,-1.));
#1262=DIRECTION('',(0.994187936033908,-0.107658477811267,0.));
#1263=DIRECTION('',(1.,0.,0.));
#1264=DIRECTION('',(0.,0.,-1.));
#1265=DIRECTION('',(0.,-1.,0.));
#1266=DIRECTION('',(0.,0.,-1.));
#1267=DIRECTION('',(0.,-1.,0.));
#1268=DIRECTION('',(-0.10765847781127,0.994187936033907,0.));
#1269=DIRECTION('',(-0.994187936033907,-0.10765847781127,0.));
#1270=DIRECTION('',(0.994187936033907,0.10765847781127,0.));
#1271=DIRECTION('',(0.,0.,-1.));
#1272=DIRECTION('',(0.994187936033907,0.10765847781127,0.));
#1273=DIRECTION('',(1.,0.,0.));
#1274=DIRECTION('',(0.,0.,-1.));
#1275=DIRECTION('',(0.,-1.,0.));
#1276=DIRECTION('',(0.,0.,-1.));
#1277=DIRECTION('',(0.,-1.,0.));
#1278=DIRECTION('',(0.,-1.,0.));
#1279=DIRECTION('',(0.,0.,-1.));
#1280=DIRECTION('',(-1.,0.,0.));
#1281=DIRECTION('',(0.,0.,-1.));
#1282=DIRECTION('',(-1.,0.,0.));
#1283=DIRECTION('',(0.,0.,-1.));
#1284=DIRECTION('',(0.,-1.,0.));
#1285=DIRECTION('',(0.,0.,-1.));
#1286=DIRECTION('',(-1.,0.,0.));
#1287=DIRECTION('',(0.,0.,-1.));
#1288=DIRECTION('',(-1.,0.,0.));
#1289=DIRECTION('',(1.,0.,0.));
#1290=DIRECTION('',(0.,0.,-1.));
#1291=DIRECTION('',(0.,-1.,0.));
#1292=DIRECTION('',(0.,0.,-1.));
#1293=DIRECTION('',(0.,-1.,0.));
#1294=DIRECTION('',(0.10765847781127,0.994187936033907,0.));
#1295=DIRECTION('',(-0.994187936033907,0.10765847781127,0.));
#1296=DIRECTION('',(0.994187936033907,-0.10765847781127,0.));
#1297=DIRECTION('',(0.,0.,-1.));
#1298=DIRECTION('',(0.994187936033907,-0.10765847781127,0.));
#1299=DIRECTION('',(-1.,0.,0.));
#1300=DIRECTION('',(0.,0.,1.));
#1301=DIRECTION('',(0.,1.,0.));
#1302=DIRECTION('',(0.,0.,-1.));
#1303=DIRECTION('',(0.,1.,0.));
#1304=DIRECTION('',(-0.107658477811267,0.994187936033907,0.));
#1305=DIRECTION('',(-0.994187936033908,-0.107658477811267,0.));
#1306=DIRECTION('',(0.994187936033908,0.107658477811267,0.));
#1307=DIRECTION('',(0.,0.,-1.));
#1308=DIRECTION('',(0.994187936033908,0.107658477811267,0.));
#1309=DIRECTION('',(1.,0.,0.));
#1310=DIRECTION('',(0.,0.,-1.));
#1311=DIRECTION('',(0.,-1.,0.));
#1312=DIRECTION('',(0.,0.,-1.));
#1313=DIRECTION('',(0.,-1.,0.));
#1314=DIRECTION('',(0.,1.,0.));
#1315=DIRECTION('',(0.,0.,1.));
#1316=DIRECTION('',(1.,0.,0.));
#1317=DIRECTION('',(0.,0.,-1.));
#1318=DIRECTION('',(1.,0.,0.));
#1319=DIRECTION('',(-0.55134324820604,0.834278504252395,0.));
#1320=DIRECTION('',(-0.834278504252395,-0.55134324820604,0.));
#1321=DIRECTION('',(0.834278504252395,0.55134324820604,0.));
#1322=DIRECTION('',(0.,0.,-1.));
#1323=DIRECTION('',(0.834278504252395,0.55134324820604,0.));
#1324=DIRECTION('',(0.,0.,-1.));
#1325=DIRECTION('',(-0.542408511326688,-0.840114877168811,0.));
#1326=DIRECTION('',(0.840114877168811,-0.542408511326688,0.));
#1327=DIRECTION('',(-0.840114877168811,0.542408511326688,0.));
#1328=DIRECTION('',(0.,0.,-1.));
#1329=DIRECTION('',(-0.840114877168811,0.542408511326688,0.));
#1330=DIRECTION('',(0.,1.,0.));
#1331=DIRECTION('',(0.,0.,1.));
#1332=DIRECTION('',(1.,0.,0.));
#1333=DIRECTION('',(1.,0.,0.));
#1334=DIRECTION('',(0.,0.,1.));
#1335=DIRECTION('',(1.,0.,0.));
#1336=DIRECTION('',(0.,0.,1.));
#1337=DIRECTION('',(1.,0.,0.));
#1338=DIRECTION('',(0.,0.,1.));
#1339=DIRECTION('',(1.,0.,0.));
#1340=DIRECTION('',(-1.,0.,0.));
#1341=DIRECTION('',(0.,-1.,0.));
#1342=DIRECTION('',(0.,0.,1.));
#1343=DIRECTION('',(0.,1.,0.));
#1344=DIRECTION('',(0.,0.,1.));
#1345=DIRECTION('',(0.,-1.,0.));
#1346=DIRECTION('',(0.10765847781127,-0.994187936033907,0.));
#1347=DIRECTION('',(0.994187936033907,0.10765847781127,0.));
#1348=DIRECTION('',(0.994187936033907,0.10765847781127,0.));
#1349=DIRECTION('',(0.,0.,1.));
#1350=DIRECTION('',(0.994187936033907,0.10765847781127,0.));
#1351=DIRECTION('',(-1.,0.,0.));
#1352=DIRECTION('',(0.,-1.,0.));
#1353=DIRECTION('',(0.,1.,0.));
#1354=DIRECTION('',(0.,0.,1.));
#1355=DIRECTION('',(0.,-1.,0.));
#1356=DIRECTION('',(0.,1.,0.));
#1357=DIRECTION('',(-1.,0.,0.));
#1358=DIRECTION('',(1.,0.,0.));
#1359=DIRECTION('',(0.,0.,1.));
#1360=DIRECTION('',(-1.,0.,0.));
#1361=DIRECTION('',(0.,0.,1.));
#1362=DIRECTION('',(0.,1.,0.));
#1363=DIRECTION('',(-1.,0.,0.));
#1364=DIRECTION('',(1.,0.,0.));
#1365=DIRECTION('',(0.,0.,1.));
#1366=DIRECTION('',(-1.,0.,0.));
#1367=DIRECTION('',(-1.,0.,0.));
#1368=DIRECTION('',(0.,-1.,0.));
#1369=DIRECTION('',(0.,1.,0.));
#1370=DIRECTION('',(0.,0.,1.));
#1371=DIRECTION('',(0.,-1.,0.));
#1372=DIRECTION('',(-0.10765847781127,-0.994187936033907,0.));
#1373=DIRECTION('',(0.994187936033907,-0.10765847781127,0.));
#1374=DIRECTION('',(0.994187936033907,-0.10765847781127,0.));
#1375=DIRECTION('',(0.,0.,1.));
#1376=DIRECTION('',(0.994187936033907,-0.10765847781127,0.));
#1377=DIRECTION('',(1.,0.,0.));
#1378=DIRECTION('',(0.,1.,0.));
#1379=DIRECTION('',(0.,1.,0.));
#1380=DIRECTION('',(0.,0.,1.));
#1381=DIRECTION('',(0.,1.,0.));
#1382=DIRECTION('',(0.107658477811267,-0.994187936033908,0.));
#1383=DIRECTION('',(0.994187936033908,0.107658477811267,0.));
#1384=DIRECTION('',(0.994187936033908,0.107658477811267,0.));
#1385=DIRECTION('',(0.,0.,1.));
#1386=DIRECTION('',(0.994187936033908,0.107658477811267,0.));
#1387=DIRECTION('',(-1.,0.,0.));
#1388=DIRECTION('',(0.,-1.,0.));
#1389=DIRECTION('',(0.,1.,0.));
#1390=DIRECTION('',(0.,0.,1.));
#1391=DIRECTION('',(0.,1.,0.));
#1392=DIRECTION('',(0.,0.,1.));
#1393=DIRECTION('',(0.,-1.,0.));
#1394=DIRECTION('',(0.,0.,-1.));
#1395=DIRECTION('',(0.,-1.,0.));
#1396=DIRECTION('',(1.,0.,0.));
#1397=DIRECTION('',(0.,1.,0.));
#1398=DIRECTION('',(0.,1.,0.));
#1399=DIRECTION('',(0.,0.,-1.));
#1400=DIRECTION('',(0.,1.,0.));
#1401=DIRECTION('',(0.,0.,1.));
#1402=DIRECTION('',(0.,1.,0.));
#1403=DIRECTION('',(0.,0.,1.));
#1404=DIRECTION('',(0.,1.,0.));
#1405=DIRECTION('',(0.,0.,1.));
#1406=DIRECTION('',(-0.107658477811267,-0.994187936033908,0.));
#1407=DIRECTION('',(0.994187936033908,-0.107658477811267,0.));
#1408=DIRECTION('',(0.994187936033908,-0.107658477811267,0.));
#1409=DIRECTION('',(0.994187936033908,-0.107658477811267,0.));
#1410=DIRECTION('',(0.,0.,1.));
#1411=DIRECTION('',(1.,0.,0.));
#1412=DIRECTION('',(1.,0.,0.));
#1413=DIRECTION('',(0.834278504252395,0.55134324820604,0.));
#1414=DIRECTION('',(-0.840114877168811,0.542408511326688,0.));
#1415=DIRECTION('',(1.,0.,0.));
#1416=DIRECTION('',(0.,0.,1.));
#1417=DIRECTION('',(1.,0.,0.));
#1418=DIRECTION('',(1.,0.,0.));
#1419=DIRECTION('',(-0.840114877168811,0.542408511326688,0.));
#1420=DIRECTION('',(0.834278504252395,0.55134324820604,0.));
#1421=DIRECTION('',(1.,0.,0.));
#1422=DIRECTION('',(0.,1.,0.));
#1423=DIRECTION('',(0.,0.,1.));
#1424=DIRECTION('',(1.,0.,0.));
#1425=DIRECTION('',(0.,0.,-1.));
#1426=DIRECTION('',(0.,1.,0.));
#1427=DIRECTION('',(0.,0.,1.));
#1428=DIRECTION('',(0.,0.,-1.));
#1429=DIRECTION('',(1.,0.,0.));
#1430=DIRECTION('',(-0.55134324820604,0.834278504252395,0.));
#1431=DIRECTION('',(-0.834278504252395,-0.55134324820604,0.));
#1432=DIRECTION('',(0.834278504252395,0.55134324820604,0.));
#1433=DIRECTION('',(0.,0.,-1.));
#1434=DIRECTION('',(0.,0.,-1.));
#1435=DIRECTION('',(-0.542408511326688,-0.840114877168811,0.));
#1436=DIRECTION('',(0.840114877168811,-0.542408511326688,0.));
#1437=DIRECTION('',(-0.840114877168811,0.542408511326688,0.));
#1438=DIRECTION('',(-1.,0.,0.));
#1439=DIRECTION('',(0.,-1.,0.));
#1440=DIRECTION('',(0.,0.,1.));
#1441=DIRECTION('',(0.,-1.,0.));
#1442=DIRECTION('',(0.,0.,1.));
#1443=DIRECTION('',(0.,1.,0.));
#1444=DIRECTION('',(0.10765847781127,-0.994187936033907,0.));
#1445=DIRECTION('',(0.994187936033907,0.10765847781127,0.));
#1446=DIRECTION('',(0.994187936033907,0.10765847781127,0.));
#1447=DIRECTION('',(0.,0.,1.));
#1448=DIRECTION('',(0.994187936033907,0.10765847781127,0.));
#1449=DIRECTION('',(-1.,0.,0.));
#1450=DIRECTION('',(0.,-1.,0.));
#1451=DIRECTION('',(0.,-1.,0.));
#1452=DIRECTION('',(0.,0.,1.));
#1453=DIRECTION('',(0.,1.,0.));
#1454=DIRECTION('',(0.,1.,0.));
#1455=DIRECTION('',(-1.,0.,0.));
#1456=DIRECTION('',(-1.,0.,0.));
#1457=DIRECTION('',(0.,0.,1.));
#1458=DIRECTION('',(1.,0.,0.));
#1459=DIRECTION('',(0.,0.,1.));
#1460=DIRECTION('',(0.,1.,0.));
#1461=DIRECTION('',(-1.,0.,0.));
#1462=DIRECTION('',(-1.,0.,0.));
#1463=DIRECTION('',(0.,0.,1.));
#1464=DIRECTION('',(1.,0.,0.));
#1465=DIRECTION('',(-1.,0.,0.));
#1466=DIRECTION('',(0.,-1.,0.));
#1467=DIRECTION('',(0.,-1.,0.));
#1468=DIRECTION('',(0.,0.,1.));
#1469=DIRECTION('',(0.,1.,0.));
#1470=DIRECTION('',(-0.10765847781127,-0.994187936033907,0.));
#1471=DIRECTION('',(0.994187936033907,-0.10765847781127,0.));
#1472=DIRECTION('',(0.994187936033907,-0.10765847781127,0.));
#1473=DIRECTION('',(0.,0.,1.));
#1474=DIRECTION('',(0.994187936033907,-0.10765847781127,0.));
#1475=DIRECTION('',(1.,0.,0.));
#1476=DIRECTION('',(0.,1.,0.));
#1477=DIRECTION('',(0.,1.,0.));
#1478=DIRECTION('',(0.,0.,1.));
#1479=DIRECTION('',(0.,1.,0.));
#1480=DIRECTION('',(0.107658477811267,-0.994187936033908,0.));
#1481=DIRECTION('',(0.994187936033908,0.107658477811267,0.));
#1482=DIRECTION('',(0.994187936033908,0.107658477811267,0.));
#1483=DIRECTION('',(0.994187936033908,0.107658477811267,0.));
#1484=DIRECTION('',(-0.107658477811267,-0.994187936033908,0.));
#1485=DIRECTION('',(0.994187936033908,-0.107658477811267,0.));
#1486=DIRECTION('',(0.994187936033908,-0.107658477811267,0.));
#1487=DIRECTION('',(0.994187936033908,-0.107658477811267,0.));
#1488=DIRECTION('',(0.,0.,1.));
#1489=DIRECTION('',(1.,0.,0.));
#1490=DIRECTION('',(1.,0.,0.));
#1491=DIRECTION('',(0.834278504252395,0.55134324820604,0.));
#1492=DIRECTION('',(-0.840114877168811,0.542408511326688,0.));
#1493=DIRECTION('',(1.,0.,0.));
#1494=DIRECTION('',(0.,0.,1.));
#1495=DIRECTION('',(1.,0.,0.));
#1496=DIRECTION('',(0.,1.,0.));
#1497=DIRECTION('',(0.,0.,1.));
#1498=DIRECTION('',(0.,0.,-1.));
#1499=DIRECTION('',(-0.55134324820604,0.834278504252395,0.));
#1500=DIRECTION('',(-0.834278504252395,-0.55134324820604,0.));
#1501=DIRECTION('',(0.,0.,-1.));
#1502=DIRECTION('',(0.,0.,1.));
#1503=DIRECTION('',(0.,0.,-1.));
#1504=DIRECTION('',(-0.542408511326688,-0.840114877168811,0.));
#1505=DIRECTION('',(0.840114877168811,-0.542408511326688,0.));
#1506=DIRECTION('',(0.,0.,-1.));
#1507=DIRECTION('',(0.,0.,1.));
#1508=DIRECTION('',(0.,1.,0.));
#1509=DIRECTION('',(0.,0.,1.));
#1510=CARTESIAN_POINT('',(0.,0.,0.));
#1511=CARTESIAN_POINT('',(0.0310000000000212,0.013,0.012));
#1512=CARTESIAN_POINT('',(0.0310000000000212,0.013,0.));
#1513=CARTESIAN_POINT('',(0.0310000000000212,0.012,0.));
#1514=CARTESIAN_POINT('',(0.0310000000000212,0.014,0.));
#1515=CARTESIAN_POINT('',(0.0310000000000212,0.012,0.012));
#1516=CARTESIAN_POINT('',(0.0310000000000212,0.012,0.012));
#1517=CARTESIAN_POINT('',(0.0310000000000212,0.013,0.012));
#1518=CARTESIAN_POINT('',(0.0310000000000212,0.014,0.012));
#1519=CARTESIAN_POINT('',(0.0310000000000212,0.014,0.012));
#1520=CARTESIAN_POINT('',(0.0292685038671004,0.0121875,0.012));
#1521=CARTESIAN_POINT('',(0.0292685038671004,0.0121875,0.));
#1522=CARTESIAN_POINT('',(0.0275370077341795,0.012375,0.));
#1523=CARTESIAN_POINT('',(0.0275370077341795,0.012375,0.012));
#1524=CARTESIAN_POINT('',(0.0275370077341795,0.012375,0.012));
#1525=CARTESIAN_POINT('',(0.0292685038671004,0.0121875,0.012));
#1526=CARTESIAN_POINT('',(0.0275370077341795,0.0105,0.012));
#1527=CARTESIAN_POINT('',(0.0275370077341795,0.0105,0.));
#1528=CARTESIAN_POINT('',(0.0275370077341795,0.008625,0.));
#1529=CARTESIAN_POINT('',(0.0275370077341795,0.008625,0.012));
#1530=CARTESIAN_POINT('',(0.0275370077341795,0.008625,0.012));
#1531=CARTESIAN_POINT('',(0.0275370077341795,0.0105,0.012));
#1532=CARTESIAN_POINT('',(0.0292685038671004,0.0088125,0.012));
#1533=CARTESIAN_POINT('',(0.0292685038671004,0.0088125,0.));
#1534=CARTESIAN_POINT('',(0.0310000000000212,0.009,0.));
#1535=CARTESIAN_POINT('',(0.0310000000000212,0.009,0.012));
#1536=CARTESIAN_POINT('',(0.0310000000000212,0.009,0.012));
#1537=CARTESIAN_POINT('',(0.0292685038671004,0.0088125,0.012));
#1538=CARTESIAN_POINT('',(0.0310000000000212,0.008,0.012));
#1539=CARTESIAN_POINT('',(0.0310000000000212,0.008,0.));
#1540=CARTESIAN_POINT('',(0.0310000000000212,0.007,0.));
#1541=CARTESIAN_POINT('',(0.0310000000000212,0.007,0.012));
#1542=CARTESIAN_POINT('',(0.0310000000000212,0.007,0.012));
#1543=CARTESIAN_POINT('',(0.0310000000000212,0.008,0.012));
#1544=CARTESIAN_POINT('',(0.0330000000000106,0.007,0.012));
#1545=CARTESIAN_POINT('',(0.0330000000000106,0.007,0.));
#1546=CARTESIAN_POINT('',(0.035,0.007,0.));
#1547=CARTESIAN_POINT('',(0.035,0.007,0.012));
#1548=CARTESIAN_POINT('',(0.035,0.007,0.012));
#1549=CARTESIAN_POINT('',(0.0330000000000106,0.007,0.012));
#1550=CARTESIAN_POINT('',(0.035,0.007,0.012));
#1551=CARTESIAN_POINT('',(0.035,0.007,0.));
#1552=CARTESIAN_POINT('',(0.0439465858451335,0.00700000000002176,0.012));
#1553=CARTESIAN_POINT('',(0.0439465858451335,0.00700000000002176,1.73472347597681E-18));
#1554=CARTESIAN_POINT('',(0.0440828698940324,-0.00675893179932734,0.012));
#1555=CARTESIAN_POINT('',(0.0440828698940324,-0.00675893179932734,1.73472347597681E-18));
#1556=CARTESIAN_POINT('',(0.035,-0.007,0.012));
#1557=CARTESIAN_POINT('',(0.035,-0.007,0.));
#1558=CARTESIAN_POINT('',(0.035,0.007,0.));
#1559=CARTESIAN_POINT('',(0.0439465858451335,0.00700000000002176,0.));
#1560=CARTESIAN_POINT('',(0.0440828698940324,-0.00675893179932734,0.));
#1561=CARTESIAN_POINT('',(0.035,-0.007,0.));
#1562=CARTESIAN_POINT('',(0.035,-0.007,0.));
#1563=CARTESIAN_POINT('',(0.035,-0.007,0.012));
#1564=CARTESIAN_POINT('',(0.035,-0.007,0.012));
#1565=CARTESIAN_POINT('',(0.035,0.007,0.012));
#1566=CARTESIAN_POINT('',(0.0439465858451335,0.00700000000002176,0.012));
#1567=CARTESIAN_POINT('',(0.0440828698940324,-0.00675893179932734,0.012));
#1568=CARTESIAN_POINT('',(0.035,-0.007,0.012));
#1569=CARTESIAN_POINT('',(0.0330000000000106,-0.007,0.012));
#1570=CARTESIAN_POINT('',(0.0330000000000106,-0.007,0.));
#1571=CARTESIAN_POINT('',(0.0310000000000212,-0.007,0.));
#1572=CARTESIAN_POINT('',(0.0310000000000212,-0.007,0.012));
#1573=CARTESIAN_POINT('',(0.0310000000000212,-0.007,0.012));
#1574=CARTESIAN_POINT('',(0.0330000000000106,-0.007,0.012));
#1575=CARTESIAN_POINT('',(0.0310000000000212,-0.008,0.012));
#1576=CARTESIAN_POINT('',(0.0310000000000212,-0.008,0.));
#1577=CARTESIAN_POINT('',(0.0310000000000212,-0.009,0.));
#1578=CARTESIAN_POINT('',(0.0310000000000212,-0.009,0.012));
#1579=CARTESIAN_POINT('',(0.0310000000000212,-0.009,0.012));
#1580=CARTESIAN_POINT('',(0.0310000000000212,-0.008,0.012));
#1581=CARTESIAN_POINT('',(0.0292685038671004,-0.0088125,0.012));
#1582=CARTESIAN_POINT('',(0.0292685038671004,-0.0088125,0.));
#1583=CARTESIAN_POINT('',(0.0275370077341795,-0.008625,0.));
#1584=CARTESIAN_POINT('',(0.0275370077341795,-0.008625,0.012));
#1585=CARTESIAN_POINT('',(0.0275370077341795,-0.008625,0.012));
#1586=CARTESIAN_POINT('',(0.0292685038671004,-0.0088125,0.012));
#1587=CARTESIAN_POINT('',(0.0275370077341795,-0.0105,0.012));
#1588=CARTESIAN_POINT('',(0.0275370077341795,-0.0105,0.));
#1589=CARTESIAN_POINT('',(0.0275370077341795,-0.012375,0.));
#1590=CARTESIAN_POINT('',(0.0275370077341795,-0.012375,0.012));
#1591=CARTESIAN_POINT('',(0.0275370077341795,-0.012375,0.012));
#1592=CARTESIAN_POINT('',(0.0275370077341795,-0.0105,0.012));
#1593=CARTESIAN_POINT('',(0.0292685038671004,-0.0121875,0.012));
#1594=CARTESIAN_POINT('',(0.0292685038671004,-0.0121875,0.));
#1595=CARTESIAN_POINT('',(0.0310000000000212,-0.012,0.));
#1596=CARTESIAN_POINT('',(0.0310000000000212,-0.012,0.012));
#1597=CARTESIAN_POINT('',(0.0310000000000212,-0.012,0.012));
#1598=CARTESIAN_POINT('',(0.0292685038671004,-0.0121875,0.012));
#1599=CARTESIAN_POINT('',(0.0310000000000212,-0.013,0.012));
#1600=CARTESIAN_POINT('',(0.0310000000000212,-0.013,0.));
#1601=CARTESIAN_POINT('',(0.0310000000000212,-0.014,0.));
#1602=CARTESIAN_POINT('',(0.0310000000000212,-0.014,0.012));
#1603=CARTESIAN_POINT('',(0.0310000000000212,-0.014,0.012));
#1604=CARTESIAN_POINT('',(0.0310000000000212,-0.013,0.012));
#1605=CARTESIAN_POINT('',(0.0330000000000212,-0.014,0.012));
#1606=CARTESIAN_POINT('',(0.0330000000000212,-0.014,0.));
#1607=CARTESIAN_POINT('',(0.0350000000000212,-0.014,0.));
#1608=CARTESIAN_POINT('',(0.0350000000000212,-0.014,0.012));
#1609=CARTESIAN_POINT('',(0.0350000000000212,-0.014,0.012));
#1610=CARTESIAN_POINT('',(0.0330000000000212,-0.014,0.012));
#1611=CARTESIAN_POINT('',(0.0370856962606522,-0.0126216418794849,0.012));
#1612=CARTESIAN_POINT('',(0.0370856962606522,-0.0126216418794849,0.));
#1613=CARTESIAN_POINT('',(0.0391713787532995,-0.0112431867665275,0.));
#1614=CARTESIAN_POINT('',(0.0391713787532995,-0.0112431867665275,0.012));
#1615=CARTESIAN_POINT('',(0.0391713787532995,-0.0112431867665275,0.012));
#1616=CARTESIAN_POINT('',(0.0370856962606522,-0.0126216418794849,0.012));
#1617=CARTESIAN_POINT('',(0.0392005341834707,0.0112877908040598,0.012));
#1618=CARTESIAN_POINT('',(0.0392005341834707,0.0112877908040598,0.));
#1619=CARTESIAN_POINT('',(0.0404565943889941,0.0108349094466764,0.012));
#1620=CARTESIAN_POINT('',(0.0404565943889941,0.0108349094466764,1.73472347597681E-18));
#1621=CARTESIAN_POINT('',(0.0427450459318344,0.00949833215210418,0.012));
#1622=CARTESIAN_POINT('',(0.0427450459318344,0.00949833215210418,-1.73472347597681E-18));
#1623=CARTESIAN_POINT('',(0.0451337395464659,0.00664165717000647,0.012));
#1624=CARTESIAN_POINT('',(0.0451337395464659,0.00664165717000647,0.));
#1625=CARTESIAN_POINT('',(0.0464757869526796,0.00340923137455773,0.012));
#1626=CARTESIAN_POINT('',(0.0464757869526796,0.00340923137455773,0.));
#1627=CARTESIAN_POINT('',(0.046904617211945,4.57216384235151E-5,0.012));
#1628=CARTESIAN_POINT('',(0.046904617211945,4.57216384235151E-5,-1.73472347597681E-18));
#1629=CARTESIAN_POINT('',(0.0464725946101042,-0.00332260498814944,0.012));
#1630=CARTESIAN_POINT('',(0.0464725946101042,-0.00332260498814944,-1.73472347597681E-18));
#1631=CARTESIAN_POINT('',(0.0451214344472631,-0.00656660113696909,0.012));
#1632=CARTESIAN_POINT('',(0.0451214344472631,-0.00656660113696909,-1.73472347597681E-18));
#1633=CARTESIAN_POINT('',(0.0427202168467202,-0.00943378237512347,0.012));
#1634=CARTESIAN_POINT('',(0.0427202168467202,-0.00943378237512347,0.));
#1635=CARTESIAN_POINT('',(0.0404290333014456,-0.0107803599839443,0.012));
#1636=CARTESIAN_POINT('',(0.0404290333014456,-0.0107803599839443,0.));
#1637=CARTESIAN_POINT('',(0.0391713481906123,-0.0112431037005989,0.012));
#1638=CARTESIAN_POINT('',(0.0391713481906123,-0.0112431037005989,0.));
#1639=CARTESIAN_POINT('',(0.0392005165903073,0.0112877971473827,0.));
#1640=CARTESIAN_POINT('',(0.0394663347431826,0.0111919550280524,0.));
#1641=CARTESIAN_POINT('',(0.04050163051365,0.0107747383017152,0.));
#1642=CARTESIAN_POINT('',(0.0421563837440921,0.00979697235186487,0.));
#1643=CARTESIAN_POINT('',(0.0438891468351792,0.00817418830543997,0.));
#1644=CARTESIAN_POINT('',(0.0451998980220686,0.00631023046637393,0.));
#1645=CARTESIAN_POINT('',(0.046105383980756,0.0043059225687488,0.));
#1646=CARTESIAN_POINT('',(0.0466367220963959,0.00222717266535877,0.));
#1647=CARTESIAN_POINT('',(0.0468179308494633,0.000115414738690346,0.));
#1648=CARTESIAN_POINT('',(0.046657468369209,-0.00199914324336431,0.));
#1649=CARTESIAN_POINT('',(0.0461464854362963,-0.00408616532152343,0.));
#1650=CARTESIAN_POINT('',(0.0452609989042569,-0.00610400775297183,0.));
#1651=CARTESIAN_POINT('',(0.043970562467809,-0.00798710574360963,0.));
#1652=CARTESIAN_POINT('',(0.042259045400052,-0.00963661865717231,0.));
#1653=CARTESIAN_POINT('',(0.0405737399149927,-0.0106727376238546,0.));
#1654=CARTESIAN_POINT('',(0.0394898335992159,-0.0111259230755495,0.));
#1655=CARTESIAN_POINT('',(0.0391713288853723,-0.0112431108036125,0.));
#1656=CARTESIAN_POINT('',(0.0392005619812043,0.0112878679006912,0.));
#1657=CARTESIAN_POINT('',(0.0392005619812043,0.0112878679006912,0.012));
#1658=CARTESIAN_POINT('',(0.0392005619812043,0.0112878679006912,0.012));
#1659=CARTESIAN_POINT('',(0.0392005165903073,0.0112877971473827,0.012));
#1660=CARTESIAN_POINT('',(0.0394663347431826,0.0111919550280524,0.012));
#1661=CARTESIAN_POINT('',(0.04050163051365,0.0107747383017152,0.012));
#1662=CARTESIAN_POINT('',(0.0421563837440921,0.00979697235186487,0.012));
#1663=CARTESIAN_POINT('',(0.0438891468351792,0.00817418830543997,0.012));
#1664=CARTESIAN_POINT('',(0.0451998980220686,0.00631023046637393,0.012));
#1665=CARTESIAN_POINT('',(0.046105383980756,0.0043059225687488,0.012));
#1666=CARTESIAN_POINT('',(0.0466367220963959,0.00222717266535877,0.012));
#1667=CARTESIAN_POINT('',(0.0468179308494633,0.000115414738690346,0.012));
#1668=CARTESIAN_POINT('',(0.046657468369209,-0.00199914324336431,0.012));
#1669=CARTESIAN_POINT('',(0.0461464854362963,-0.00408616532152343,0.012));
#1670=CARTESIAN_POINT('',(0.0452609989042569,-0.00610400775297183,0.012));
#1671=CARTESIAN_POINT('',(0.043970562467809,-0.00798710574360963,0.012));
#1672=CARTESIAN_POINT('',(0.042259045400052,-0.00963661865717231,0.012));
#1673=CARTESIAN_POINT('',(0.0405737399149927,-0.0106727376238546,0.012));
#1674=CARTESIAN_POINT('',(0.0394898335992159,-0.0111259230755495,0.012));
#1675=CARTESIAN_POINT('',(0.0391713288853723,-0.0112431108036125,0.012));
#1676=CARTESIAN_POINT('',(0.0371002871929432,0.0126439787216833,0.012));
#1677=CARTESIAN_POINT('',(0.0371002871929432,0.0126439787216833,0.));
#1678=CARTESIAN_POINT('',(0.0350000000000212,0.014,0.));
#1679=CARTESIAN_POINT('',(0.0350000000000212,0.014,0.012));
#1680=CARTESIAN_POINT('',(0.0350000000000212,0.014,0.012));
#1681=CARTESIAN_POINT('',(0.0371002871929432,0.0126439787216833,0.012));
#1682=CARTESIAN_POINT('',(0.0330000000000212,0.014,0.012));
#1683=CARTESIAN_POINT('',(0.0330000000000212,0.014,0.));
#1684=CARTESIAN_POINT('',(0.0330000000000212,0.014,0.012));
#1685=CARTESIAN_POINT('',(0.,0.003,0.012));
#1686=CARTESIAN_POINT('',(0.,0.003,0.));
#1687=CARTESIAN_POINT('',(0.,0.,0.));
#1688=CARTESIAN_POINT('',(0.0275370077341795,0.0105,0.));
#1689=CARTESIAN_POINT('',(0.0275370077341795,0.012375,0.));
#1690=CARTESIAN_POINT('',(0.0275370077341795,0.012375,-0.00125));
#1691=CARTESIAN_POINT('',(0.0275370077341795,0.012375,0.));
#1692=CARTESIAN_POINT('',(0.0275370077341795,0.003,-0.00125));
#1693=CARTESIAN_POINT('',(0.0275370077341795,0.008625,-0.00125));
#1694=CARTESIAN_POINT('',(0.0275370077341795,0.008625,0.));
#1695=CARTESIAN_POINT('',(0.0275370077341795,0.008625,0.));
#1696=CARTESIAN_POINT('',(0.0275370077341795,0.0105,0.));
#1697=CARTESIAN_POINT('',(0.0292685038671004,0.0088125,0.));
#1698=CARTESIAN_POINT('',(0.0292685038671004,0.0088125,-0.00125));
#1699=CARTESIAN_POINT('',(0.0310000000000212,0.009,-0.00125));
#1700=CARTESIAN_POINT('',(0.0310000000000212,0.009,0.));
#1701=CARTESIAN_POINT('',(0.0310000000000212,0.009,0.));
#1702=CARTESIAN_POINT('',(0.0292685038671004,0.0088125,0.));
#1703=CARTESIAN_POINT('',(0.0310000000000212,0.008,0.));
#1704=CARTESIAN_POINT('',(0.0310000000000212,0.003,-0.00125));
#1705=CARTESIAN_POINT('',(0.0310000000000212,0.007,-0.00125));
#1706=CARTESIAN_POINT('',(0.0310000000000212,0.007,0.));
#1707=CARTESIAN_POINT('',(0.0310000000000212,0.007,0.));
#1708=CARTESIAN_POINT('',(0.0310000000000212,0.008,0.));
#1709=CARTESIAN_POINT('',(0.0330000000000106,0.007,0.));
#1710=CARTESIAN_POINT('',(0.,0.007,-0.00125));
#1711=CARTESIAN_POINT('',(0.035,0.007,-0.00125));
#1712=CARTESIAN_POINT('',(0.035,0.007,0.));
#1713=CARTESIAN_POINT('',(0.035,0.007,0.));
#1714=CARTESIAN_POINT('',(0.0330000000000106,0.007,0.));
#1715=CARTESIAN_POINT('',(0.035,0.007,-0.00125));
#1716=CARTESIAN_POINT('',(0.035,0.007,0.));
#1717=CARTESIAN_POINT('',(0.0439465858451335,0.00700000000002176,-0.00125));
#1718=CARTESIAN_POINT('',(0.0439465858451335,0.00700000000002176,0.));
#1719=CARTESIAN_POINT('',(0.0440828698940324,-0.00675893179932734,-0.00125));
#1720=CARTESIAN_POINT('',(0.0440828698940324,-0.00675893179932734,0.));
#1721=CARTESIAN_POINT('',(0.035,-0.007,-0.00125));
#1722=CARTESIAN_POINT('',(0.035,-0.007,0.));
#1723=CARTESIAN_POINT('',(0.035,0.007,-0.00125));
#1724=CARTESIAN_POINT('',(0.0439465858451335,0.00700000000002176,-0.00125));
#1725=CARTESIAN_POINT('',(0.0440828698940324,-0.00675893179932734,-0.00125));
#1726=CARTESIAN_POINT('',(0.035,-0.007,-0.00125));
#1727=CARTESIAN_POINT('',(0.035,-0.007,-0.00125));
#1728=CARTESIAN_POINT('',(0.035,-0.007,0.));
#1729=CARTESIAN_POINT('',(0.035,-0.007,0.));
#1730=CARTESIAN_POINT('',(0.035,0.007,0.));
#1731=CARTESIAN_POINT('',(0.0439465858451335,0.00700000000002176,0.));
#1732=CARTESIAN_POINT('',(0.0440828698940324,-0.00675893179932734,0.));
#1733=CARTESIAN_POINT('',(0.035,-0.007,0.));
#1734=CARTESIAN_POINT('',(0.0330000000000106,-0.007,0.));
#1735=CARTESIAN_POINT('',(0.,-0.007,-0.00125));
#1736=CARTESIAN_POINT('',(0.0310000000000212,-0.007,-0.00125));
#1737=CARTESIAN_POINT('',(0.0310000000000212,-0.007,0.));
#1738=CARTESIAN_POINT('',(0.0310000000000212,-0.007,0.));
#1739=CARTESIAN_POINT('',(0.0330000000000106,-0.007,0.));
#1740=CARTESIAN_POINT('',(0.0310000000000212,-0.008,0.));
#1741=CARTESIAN_POINT('',(0.0310000000000212,0.003,-0.00125));
#1742=CARTESIAN_POINT('',(0.0310000000000212,-0.009,-0.00125));
#1743=CARTESIAN_POINT('',(0.0310000000000212,-0.009,0.));
#1744=CARTESIAN_POINT('',(0.0310000000000212,-0.009,0.));
#1745=CARTESIAN_POINT('',(0.0310000000000212,-0.008,0.));
#1746=CARTESIAN_POINT('',(0.0292685038671004,-0.0088125,0.));
#1747=CARTESIAN_POINT('',(0.0292685038671004,-0.0088125,-0.00125));
#1748=CARTESIAN_POINT('',(0.0275370077341795,-0.008625,-0.00125));
#1749=CARTESIAN_POINT('',(0.0275370077341795,-0.008625,0.));
#1750=CARTESIAN_POINT('',(0.0275370077341795,-0.008625,0.));
#1751=CARTESIAN_POINT('',(0.0292685038671004,-0.0088125,0.));
#1752=CARTESIAN_POINT('',(0.0275370077341795,-0.0105,0.));
#1753=CARTESIAN_POINT('',(0.0275370077341795,0.003,-0.00125));
#1754=CARTESIAN_POINT('',(0.0275370077341795,-0.012375,-0.00125));
#1755=CARTESIAN_POINT('',(0.0275370077341795,-0.012375,0.));
#1756=CARTESIAN_POINT('',(0.0275370077341795,-0.012375,0.));
#1757=CARTESIAN_POINT('',(0.0275370077341795,-0.0105,0.));
#1758=CARTESIAN_POINT('',(0.0292685038671004,-0.0121875,0.));
#1759=CARTESIAN_POINT('',(0.0292685038671004,-0.0121875,-0.00125));
#1760=CARTESIAN_POINT('',(0.0310000000000212,-0.012,-0.00125));
#1761=CARTESIAN_POINT('',(0.0310000000000212,-0.012,0.));
#1762=CARTESIAN_POINT('',(0.0310000000000212,-0.012,0.));
#1763=CARTESIAN_POINT('',(0.0292685038671004,-0.0121875,0.));
#1764=CARTESIAN_POINT('',(0.0310000000000212,-0.013,0.));
#1765=CARTESIAN_POINT('',(0.0310000000000212,0.003,-0.00125));
#1766=CARTESIAN_POINT('',(0.0310000000000212,-0.01525,-0.00125));
#1767=CARTESIAN_POINT('',(0.0310000000000212,-0.01525,0.012));
#1768=CARTESIAN_POINT('',(0.0310000000000212,-0.01525,0.01325));
#1769=CARTESIAN_POINT('',(0.0310000000000212,0.003,0.01325));
#1770=CARTESIAN_POINT('',(0.0310000000000212,-0.012,0.01325));
#1771=CARTESIAN_POINT('',(0.0310000000000212,-0.012,0.012));
#1772=CARTESIAN_POINT('',(0.0310000000000212,-0.012,0.012));
#1773=CARTESIAN_POINT('',(0.0310000000000212,-0.013,0.012));
#1774=CARTESIAN_POINT('',(0.0310000000000212,-0.014,0.012));
#1775=CARTESIAN_POINT('',(0.0310000000000212,-0.014,0.012));
#1776=CARTESIAN_POINT('',(0.0310000000000212,-0.014,0.));
#1777=CARTESIAN_POINT('',(0.0310000000000212,-0.013,0.));
#1778=CARTESIAN_POINT('',(0.0310000000000212,0.013,0.));
#1779=CARTESIAN_POINT('',(0.0310000000000212,0.013,0.));
#1780=CARTESIAN_POINT('',(0.0310000000000212,0.012,0.));
#1781=CARTESIAN_POINT('',(0.0310000000000212,0.014,0.));
#1782=CARTESIAN_POINT('',(0.0310000000000212,0.014,0.012));
#1783=CARTESIAN_POINT('',(0.0310000000000212,0.014,0.012));
#1784=CARTESIAN_POINT('',(0.0310000000000212,0.013,0.012));
#1785=CARTESIAN_POINT('',(0.0310000000000212,0.012,0.012));
#1786=CARTESIAN_POINT('',(0.0310000000000212,0.012,0.012));
#1787=CARTESIAN_POINT('',(0.0310000000000212,0.012,0.01325));
#1788=CARTESIAN_POINT('',(0.0310000000000212,0.003,0.01325));
#1789=CARTESIAN_POINT('',(0.0310000000000212,0.01525,0.01325));
#1790=CARTESIAN_POINT('',(0.0310000000000212,0.01525,0.012));
#1791=CARTESIAN_POINT('',(0.0310000000000212,0.01525,-0.00125));
#1792=CARTESIAN_POINT('',(0.0310000000000212,0.003,-0.00125));
#1793=CARTESIAN_POINT('',(0.0310000000000212,0.012,-0.00125));
#1794=CARTESIAN_POINT('',(0.0310000000000212,0.012,0.));
#1795=CARTESIAN_POINT('',(0.0292685038671004,0.0121875,0.));
#1796=CARTESIAN_POINT('',(0.0292685038671004,0.0121875,-0.00125));
#1797=CARTESIAN_POINT('',(0.0292685038671004,0.0121875,0.));
#1798=CARTESIAN_POINT('',(0.,0.003,0.));
#1799=CARTESIAN_POINT('',(0.0330000000000212,-0.014,0.));
#1800=CARTESIAN_POINT('',(0.0350000000000212,-0.014,0.));
#1801=CARTESIAN_POINT('',(0.0370856962606522,-0.0126216418794849,0.));
#1802=CARTESIAN_POINT('',(0.0391713833124186,-0.0112431844604587,0.));
#1803=CARTESIAN_POINT('',(0.0392005165903073,0.0112877971473827,0.));
#1804=CARTESIAN_POINT('',(0.0394663347431826,0.0111919550280524,0.));
#1805=CARTESIAN_POINT('',(0.04050163051365,0.0107747383017152,0.));
#1806=CARTESIAN_POINT('',(0.0421563837440921,0.00979697235186487,0.));
#1807=CARTESIAN_POINT('',(0.0438891468351792,0.00817418830543997,0.));
#1808=CARTESIAN_POINT('',(0.0451998980220686,0.00631023046637393,0.));
#1809=CARTESIAN_POINT('',(0.046105383980756,0.0043059225687488,0.));
#1810=CARTESIAN_POINT('',(0.0466367220963959,0.00222717266535877,0.));
#1811=CARTESIAN_POINT('',(0.0468179308494633,0.000115414738690346,0.));
#1812=CARTESIAN_POINT('',(0.046657468369209,-0.00199914324336431,0.));
#1813=CARTESIAN_POINT('',(0.0461464854362963,-0.00408616532152343,0.));
#1814=CARTESIAN_POINT('',(0.0452609989042569,-0.00610400775297183,0.));
#1815=CARTESIAN_POINT('',(0.043970562467809,-0.00798710574360963,0.));
#1816=CARTESIAN_POINT('',(0.042259045400052,-0.00963661865717231,0.));
#1817=CARTESIAN_POINT('',(0.0405737399149927,-0.0106727376238546,0.));
#1818=CARTESIAN_POINT('',(0.0394898335992159,-0.0111259230755495,0.));
#1819=CARTESIAN_POINT('',(0.0391713288853723,-0.0112431108036125,0.));
#1820=CARTESIAN_POINT('',(0.0392005683254625,0.0112878583523605,0.));
#1821=CARTESIAN_POINT('',(0.0371002871929432,0.0126439787216833,0.));
#1822=CARTESIAN_POINT('',(0.0350000000000212,0.014,0.));
#1823=CARTESIAN_POINT('',(0.0330000000000212,0.014,0.));
#1824=CARTESIAN_POINT('',(0.,0.003,-0.00125));
#1825=CARTESIAN_POINT('',(0.0330000000000212,0.01525,-0.00125));
#1826=CARTESIAN_POINT('',(0.0353684610388241,0.01525,-0.00125));
#1827=CARTESIAN_POINT('',(0.0377782978321016,0.0136941223181443,-0.00125));
#1828=CARTESIAN_POINT('',(0.0397625471930622,0.0124130192556597,-0.00125));
#1829=CARTESIAN_POINT('',(0.0397625471930623,0.0124130192556597,-0.00125));
#1830=CARTESIAN_POINT('',(0.0411361861985508,0.0118997242834049,-0.00125));
#1831=CARTESIAN_POINT('',(0.0436464297661765,0.0103993659583248,-0.00125));
#1832=CARTESIAN_POINT('',(0.0462512505989911,0.00723880779558611,-0.00125));
#1833=CARTESIAN_POINT('',(0.0477037657789193,0.00370213824490549,-0.00125));
#1834=CARTESIAN_POINT('',(0.0481655695235006,4.62469749599873E-5,-0.00125));
#1835=CARTESIAN_POINT('',(0.0477008083327055,-0.00361484303617826,-0.00125));
#1836=CARTESIAN_POINT('',(0.0462394050223501,-0.00716296930594926,-0.00125));
#1837=CARTESIAN_POINT('',(0.0436237299181305,-0.0103323431724847,-0.00125));
#1838=CARTESIAN_POINT('',(0.0411151413357754,-0.0118409136608329,-0.00125));
#1839=CARTESIAN_POINT('',(0.0397431689048964,-0.0123637188974115,-0.00125));
#1840=CARTESIAN_POINT('',(0.0397431689048964,-0.0123637188974115,-0.00125));
#1841=CARTESIAN_POINT('',(0.0377748753209098,-0.0136644900098004,-0.00125));
#1842=CARTESIAN_POINT('',(0.0353757221483536,-0.01525,-0.00125));
#1843=CARTESIAN_POINT('',(0.0330000000000212,-0.01525,-0.00125));
#1844=CARTESIAN_POINT('',(0.0330000000000212,-0.014,0.012));
#1845=CARTESIAN_POINT('',(0.0330000000000212,-0.014,0.012));
#1846=CARTESIAN_POINT('',(0.0350000000000212,-0.014,0.012));
#1847=CARTESIAN_POINT('',(0.0350000000000212,-0.014,0.012));
#1848=CARTESIAN_POINT('',(0.0330000000000212,0.014,0.012));
#1849=CARTESIAN_POINT('',(0.0350000000000212,0.014,0.012));
#1850=CARTESIAN_POINT('',(0.0350000000000212,0.014,0.012));
#1851=CARTESIAN_POINT('',(0.0330000000000212,0.014,0.012));
#1852=CARTESIAN_POINT('',(0.0370856962606522,-0.0126216418794849,0.012));
#1853=CARTESIAN_POINT('',(0.0370856962606522,-0.0126216418794849,0.012));
#1854=CARTESIAN_POINT('',(0.0391714081415194,-0.0112431719020539,0.012));
#1855=CARTESIAN_POINT('',(0.0391713787532995,-0.0112431867665275,0.012));
#1856=CARTESIAN_POINT('',(0.0392005341834707,0.0112877908040598,0.012));
#1857=CARTESIAN_POINT('',(0.0392005341834707,0.0112877908040598,0.));
#1858=CARTESIAN_POINT('',(0.0404565943889941,0.0108349094466764,0.012));
#1859=CARTESIAN_POINT('',(0.0404565943889941,0.0108349094466764,1.73472347597681E-18));
#1860=CARTESIAN_POINT('',(0.0427450459318344,0.00949833215210418,0.012));
#1861=CARTESIAN_POINT('',(0.0427450459318344,0.00949833215210418,-1.73472347597681E-18));
#1862=CARTESIAN_POINT('',(0.0451337395464659,0.00664165717000647,0.012));
#1863=CARTESIAN_POINT('',(0.0451337395464659,0.00664165717000647,0.));
#1864=CARTESIAN_POINT('',(0.0464757869526796,0.00340923137455773,0.012));
#1865=CARTESIAN_POINT('',(0.0464757869526796,0.00340923137455773,0.));
#1866=CARTESIAN_POINT('',(0.046904617211945,4.57216384235151E-5,0.012));
#1867=CARTESIAN_POINT('',(0.046904617211945,4.57216384235151E-5,-1.73472347597681E-18));
#1868=CARTESIAN_POINT('',(0.0464725946101042,-0.00332260498814944,0.012));
#1869=CARTESIAN_POINT('',(0.0464725946101042,-0.00332260498814944,-1.73472347597681E-18));
#1870=CARTESIAN_POINT('',(0.0451214344472631,-0.00656660113696909,0.012));
#1871=CARTESIAN_POINT('',(0.0451214344472631,-0.00656660113696909,-1.73472347597681E-18));
#1872=CARTESIAN_POINT('',(0.0427202168467202,-0.00943378237512347,0.012));
#1873=CARTESIAN_POINT('',(0.0427202168467202,-0.00943378237512347,0.));
#1874=CARTESIAN_POINT('',(0.0404290333014456,-0.0107803599839443,0.012));
#1875=CARTESIAN_POINT('',(0.0404290333014456,-0.0107803599839443,0.));
#1876=CARTESIAN_POINT('',(0.0391713481906123,-0.0112431037005989,0.012));
#1877=CARTESIAN_POINT('',(0.0391713481906123,-0.0112431037005989,0.));
#1878=CARTESIAN_POINT('',(0.0392005619812043,0.0112878679006912,0.012));
#1879=CARTESIAN_POINT('',(0.0392005883837017,0.0112878548927766,0.012));
#1880=CARTESIAN_POINT('',(0.0392005165903073,0.0112877971473827,0.012));
#1881=CARTESIAN_POINT('',(0.0394663347431826,0.0111919550280524,0.012));
#1882=CARTESIAN_POINT('',(0.04050163051365,0.0107747383017152,0.012));
#1883=CARTESIAN_POINT('',(0.0421563837440921,0.00979697235186487,0.012));
#1884=CARTESIAN_POINT('',(0.0438891468351792,0.00817418830543997,0.012));
#1885=CARTESIAN_POINT('',(0.0451998980220686,0.00631023046637393,0.012));
#1886=CARTESIAN_POINT('',(0.046105383980756,0.0043059225687488,0.012));
#1887=CARTESIAN_POINT('',(0.0466367220963959,0.00222717266535877,0.012));
#1888=CARTESIAN_POINT('',(0.0468179308494633,0.000115414738690346,0.012));
#1889=CARTESIAN_POINT('',(0.046657468369209,-0.00199914324336431,0.012));
#1890=CARTESIAN_POINT('',(0.0461464854362963,-0.00408616532152343,0.012));
#1891=CARTESIAN_POINT('',(0.0452609989042569,-0.00610400775297183,0.012));
#1892=CARTESIAN_POINT('',(0.043970562467809,-0.00798710574360963,0.012));
#1893=CARTESIAN_POINT('',(0.042259045400052,-0.00963661865717231,0.012));
#1894=CARTESIAN_POINT('',(0.0405737399149927,-0.0106727376238546,0.012));
#1895=CARTESIAN_POINT('',(0.0394898335992159,-0.0111259230755495,0.012));
#1896=CARTESIAN_POINT('',(0.0391713288853723,-0.0112431108036125,0.012));
#1897=CARTESIAN_POINT('',(0.0371002871929432,0.0126439787216833,0.012));
#1898=CARTESIAN_POINT('',(0.0371002871929432,0.0126439787216833,0.012));
#1899=CARTESIAN_POINT('',(0.0275370077341795,0.0105,0.012));
#1900=CARTESIAN_POINT('',(0.0275370077341795,0.012375,0.012));
#1901=CARTESIAN_POINT('',(0.0275370077341795,0.012375,0.012));
#1902=CARTESIAN_POINT('',(0.0275370077341795,0.012375,0.01325));
#1903=CARTESIAN_POINT('',(0.0275370077341795,0.0105,0.012));
#1904=CARTESIAN_POINT('',(0.0275370077341795,0.008625,0.012));
#1905=CARTESIAN_POINT('',(0.0275370077341795,0.008625,0.012));
#1906=CARTESIAN_POINT('',(0.0275370077341795,0.008625,0.01325));
#1907=CARTESIAN_POINT('',(0.0275370077341795,0.003,0.01325));
#1908=CARTESIAN_POINT('',(0.0292685038671004,0.0088125,0.012));
#1909=CARTESIAN_POINT('',(0.0292685038671004,0.0088125,0.012));
#1910=CARTESIAN_POINT('',(0.0310000000000212,0.009,0.012));
#1911=CARTESIAN_POINT('',(0.0310000000000212,0.009,0.012));
#1912=CARTESIAN_POINT('',(0.0310000000000212,0.009,0.01325));
#1913=CARTESIAN_POINT('',(0.0292685038671004,0.0088125,0.01325));
#1914=CARTESIAN_POINT('',(0.0310000000000212,0.008,0.012));
#1915=CARTESIAN_POINT('',(0.0310000000000212,0.008,0.012));
#1916=CARTESIAN_POINT('',(0.0310000000000212,0.007,0.012));
#1917=CARTESIAN_POINT('',(0.0310000000000212,0.007,0.012));
#1918=CARTESIAN_POINT('',(0.0310000000000212,0.007,0.01325));
#1919=CARTESIAN_POINT('',(0.0310000000000212,0.003,0.01325));
#1920=CARTESIAN_POINT('',(0.0330000000000106,0.007,0.012));
#1921=CARTESIAN_POINT('',(0.0330000000000106,0.007,0.012));
#1922=CARTESIAN_POINT('',(0.035,0.007,0.012));
#1923=CARTESIAN_POINT('',(0.035,0.007,0.012));
#1924=CARTESIAN_POINT('',(0.035,0.007,0.01325));
#1925=CARTESIAN_POINT('',(0.,0.007,0.01325));
#1926=CARTESIAN_POINT('',(0.035,0.007,0.012));
#1927=CARTESIAN_POINT('',(0.035,0.007,0.01325));
#1928=CARTESIAN_POINT('',(0.0439465858451335,0.00700000000002176,0.012));
#1929=CARTESIAN_POINT('',(0.0439465858451335,0.00700000000002176,0.01325));
#1930=CARTESIAN_POINT('',(0.0440828698940324,-0.00675893179932734,0.012));
#1931=CARTESIAN_POINT('',(0.0440828698940324,-0.00675893179932734,0.01325));
#1932=CARTESIAN_POINT('',(0.035,-0.007,0.012));
#1933=CARTESIAN_POINT('',(0.035,-0.007,0.01325));
#1934=CARTESIAN_POINT('',(0.035,0.007,0.012));
#1935=CARTESIAN_POINT('',(0.0439465858451335,0.00700000000002176,0.012));
#1936=CARTESIAN_POINT('',(0.0440828698940324,-0.00675893179932734,0.012));
#1937=CARTESIAN_POINT('',(0.035,-0.007,0.012));
#1938=CARTESIAN_POINT('',(0.035,-0.007,0.012));
#1939=CARTESIAN_POINT('',(0.035,-0.007,0.012));
#1940=CARTESIAN_POINT('',(0.035,-0.007,0.01325));
#1941=CARTESIAN_POINT('',(0.035,0.007,0.01325));
#1942=CARTESIAN_POINT('',(0.0439465858451335,0.00700000000002176,0.01325));
#1943=CARTESIAN_POINT('',(0.0440828698940324,-0.00675893179932734,0.01325));
#1944=CARTESIAN_POINT('',(0.035,-0.007,0.01325));
#1945=CARTESIAN_POINT('',(0.0330000000000106,-0.007,0.012));
#1946=CARTESIAN_POINT('',(0.0330000000000106,-0.007,0.012));
#1947=CARTESIAN_POINT('',(0.0310000000000212,-0.007,0.012));
#1948=CARTESIAN_POINT('',(0.0310000000000212,-0.007,0.012));
#1949=CARTESIAN_POINT('',(0.0310000000000212,-0.007,0.01325));
#1950=CARTESIAN_POINT('',(0.,-0.007,0.01325));
#1951=CARTESIAN_POINT('',(0.0310000000000212,-0.008,0.012));
#1952=CARTESIAN_POINT('',(0.0310000000000212,-0.008,0.012));
#1953=CARTESIAN_POINT('',(0.0310000000000212,-0.009,0.012));
#1954=CARTESIAN_POINT('',(0.0310000000000212,-0.009,0.012));
#1955=CARTESIAN_POINT('',(0.0310000000000212,-0.009,0.01325));
#1956=CARTESIAN_POINT('',(0.0310000000000212,0.003,0.01325));
#1957=CARTESIAN_POINT('',(0.0292685038671004,-0.0088125,0.012));
#1958=CARTESIAN_POINT('',(0.0292685038671004,-0.0088125,0.012));
#1959=CARTESIAN_POINT('',(0.0275370077341795,-0.008625,0.012));
#1960=CARTESIAN_POINT('',(0.0275370077341795,-0.008625,0.012));
#1961=CARTESIAN_POINT('',(0.0275370077341795,-0.008625,0.01325));
#1962=CARTESIAN_POINT('',(0.0292685038671004,-0.0088125,0.01325));
#1963=CARTESIAN_POINT('',(0.0275370077341795,-0.0105,0.012));
#1964=CARTESIAN_POINT('',(0.0275370077341795,-0.0105,0.012));
#1965=CARTESIAN_POINT('',(0.0275370077341795,-0.012375,0.012));
#1966=CARTESIAN_POINT('',(0.0275370077341795,-0.012375,0.012));
#1967=CARTESIAN_POINT('',(0.0275370077341795,-0.012375,0.01325));
#1968=CARTESIAN_POINT('',(0.0275370077341795,0.003,0.01325));
#1969=CARTESIAN_POINT('',(0.0292685038671004,-0.0121875,0.012));
#1970=CARTESIAN_POINT('',(0.0292685038671004,-0.0121875,0.012));
#1971=CARTESIAN_POINT('',(0.0292685038671004,-0.0121875,0.01325));
#1972=CARTESIAN_POINT('',(0.0292685038671004,0.0121875,0.012));
#1973=CARTESIAN_POINT('',(0.0292685038671004,0.0121875,0.012));
#1974=CARTESIAN_POINT('',(0.0292685038671004,0.0121875,0.01325));
#1975=CARTESIAN_POINT('',(0.,0.003,0.01325));
#1976=CARTESIAN_POINT('',(0.0330000000000212,-0.01525,0.01325));
#1977=CARTESIAN_POINT('',(0.0353757221483536,-0.01525,0.01325));
#1978=CARTESIAN_POINT('',(0.0377748753209098,-0.0136644900098004,0.01325));
#1979=CARTESIAN_POINT('',(0.0397431689048965,-0.0123637188974116,0.01325));
#1980=CARTESIAN_POINT('',(0.0397625471930622,0.0124130192556597,0.01325));
#1981=CARTESIAN_POINT('',(0.041136186198551,0.0118997242834049,0.01325));
#1982=CARTESIAN_POINT('',(0.0436464297661764,0.0103993659583249,0.01325));
#1983=CARTESIAN_POINT('',(0.046251250598991,0.00723880779558617,0.01325));
#1984=CARTESIAN_POINT('',(0.0477037657789193,0.00370213824490548,0.01325));
#1985=CARTESIAN_POINT('',(0.0481655695235006,4.62469749600333E-5,0.01325));
#1986=CARTESIAN_POINT('',(0.0477008083327055,-0.00361484303617828,0.01325));
#1987=CARTESIAN_POINT('',(0.0462394050223501,-0.00716296930594927,0.01325));
#1988=CARTESIAN_POINT('',(0.0436237299181304,-0.0103323431724848,0.01325));
#1989=CARTESIAN_POINT('',(0.0411151413357754,-0.0118409136608329,0.01325));
#1990=CARTESIAN_POINT('',(0.0397431689048964,-0.0123637188974115,0.01325));
#1991=CARTESIAN_POINT('',(0.0397625471930621,0.0124130192556596,0.01325));
#1992=CARTESIAN_POINT('',(0.0377782978321016,0.0136941223181443,0.01325));
#1993=CARTESIAN_POINT('',(0.0353684610388241,0.01525,0.01325));
#1994=CARTESIAN_POINT('',(0.0330000000000212,0.01525,0.01325));
#1995=CARTESIAN_POINT('',(0.,0.003,0.012));
#1996=CARTESIAN_POINT('',(0.0330000000000212,-0.01525,0.012));
#1997=CARTESIAN_POINT('',(0.0353757221483536,-0.01525,0.012));
#1998=CARTESIAN_POINT('',(0.0377748753209098,-0.0136644900098004,0.012));
#1999=CARTESIAN_POINT('',(0.0397431689048963,-0.0123637188974115,0.006));
#2000=CARTESIAN_POINT('',(0.0397431689048965,-0.0123637188974116,0.012));
#2001=CARTESIAN_POINT('',(0.0397431689048963,-0.0123637188974115,0.012625));
#2002=CARTESIAN_POINT('',(0.0397625471930622,0.0124130192556597,0.012));
#2003=CARTESIAN_POINT('',(0.0397625471930622,0.0124130192556597,-0.00125));
#2004=CARTESIAN_POINT('',(0.0411361861985507,0.0118997242834049,0.012));
#2005=CARTESIAN_POINT('',(0.0411361861985507,0.0118997242834049,-0.00125000000000002));
#2006=CARTESIAN_POINT('',(0.0436464297661765,0.0103993659583248,0.012));
#2007=CARTESIAN_POINT('',(0.0436464297661765,0.0103993659583248,-0.00125));
#2008=CARTESIAN_POINT('',(0.046251250598991,0.00723880779558619,0.012));
#2009=CARTESIAN_POINT('',(0.046251250598991,0.00723880779558619,-0.00125));
#2010=CARTESIAN_POINT('',(0.0477037657789193,0.00370213824490553,0.012));
#2011=CARTESIAN_POINT('',(0.0477037657789193,0.00370213824490553,-0.00125));
#2012=CARTESIAN_POINT('',(0.0481655695235006,4.62469749600434E-5,0.012));
#2013=CARTESIAN_POINT('',(0.0481655695235006,4.62469749600434E-5,-0.00125));
#2014=CARTESIAN_POINT('',(0.0477008083327055,-0.00361484303617825,0.012));
#2015=CARTESIAN_POINT('',(0.0477008083327055,-0.00361484303617825,-0.00125));
#2016=CARTESIAN_POINT('',(0.0462394050223501,-0.00716296930594924,0.012));
#2017=CARTESIAN_POINT('',(0.0462394050223501,-0.00716296930594924,-0.00125));
#2018=CARTESIAN_POINT('',(0.0436237299181304,-0.0103323431724847,0.012));
#2019=CARTESIAN_POINT('',(0.0436237299181304,-0.0103323431724847,-0.00125));
#2020=CARTESIAN_POINT('',(0.0411151413357755,-0.0118409136608329,0.012));
#2021=CARTESIAN_POINT('',(0.0411151413357755,-0.0118409136608329,-0.00125));
#2022=CARTESIAN_POINT('',(0.0397431689048964,-0.0123637188974115,0.012));
#2023=CARTESIAN_POINT('',(0.0397431689048964,-0.0123637188974115,-0.00125));
#2024=CARTESIAN_POINT('',(0.0397625471930621,0.0124130192556595,0.006));
#2025=CARTESIAN_POINT('',(0.0397625471930621,0.0124130192556596,0.012));
#2026=CARTESIAN_POINT('',(0.0397625471930622,0.0124130192556597,0.012));
#2027=CARTESIAN_POINT('',(0.0411361861985507,0.0118997242834049,0.012));
#2028=CARTESIAN_POINT('',(0.0436464297661765,0.0103993659583248,0.012));
#2029=CARTESIAN_POINT('',(0.046251250598991,0.00723880779558617,0.012));
#2030=CARTESIAN_POINT('',(0.0477037657789193,0.00370213824490554,0.012));
#2031=CARTESIAN_POINT('',(0.0481655695235006,4.62469749600395E-5,0.012));
#2032=CARTESIAN_POINT('',(0.0477008083327055,-0.00361484303617829,0.012));
#2033=CARTESIAN_POINT('',(0.0462394050223502,-0.0071629693059492,0.012));
#2034=CARTESIAN_POINT('',(0.0436237299181305,-0.0103323431724848,0.012));
#2035=CARTESIAN_POINT('',(0.0411151413357754,-0.0118409136608329,0.012));
#2036=CARTESIAN_POINT('',(0.0397431689048964,-0.0123637188974115,0.012));
#2037=CARTESIAN_POINT('',(0.0377782978321016,0.0136941223181443,0.012));
#2038=CARTESIAN_POINT('',(0.0353684610388241,0.01525,0.012));
#2039=CARTESIAN_POINT('',(0.0397625471930621,0.0124130192556595,0.012625));
#2040=CARTESIAN_POINT('',(0.0330000000000212,0.01525,0.012));
#2041=CARTESIAN_POINT('',(0.0397625471930622,0.0124130192556597,0.012));
#2042=CARTESIAN_POINT('',(0.0397625471930622,0.0124130192556597,0.01325));
#2043=CARTESIAN_POINT('',(0.0411361861985507,0.0118997242834049,0.012));
#2044=CARTESIAN_POINT('',(0.0411361861985507,0.0118997242834049,0.01325));
#2045=CARTESIAN_POINT('',(0.0436464297661764,0.0103993659583249,0.012));
#2046=CARTESIAN_POINT('',(0.0436464297661764,0.0103993659583249,0.01325));
#2047=CARTESIAN_POINT('',(0.046251250598991,0.00723880779558616,0.012));
#2048=CARTESIAN_POINT('',(0.046251250598991,0.00723880779558616,0.01325));
#2049=CARTESIAN_POINT('',(0.0477037657789193,0.00370213824490554,0.012));
#2050=CARTESIAN_POINT('',(0.0477037657789193,0.00370213824490554,0.01325));
#2051=CARTESIAN_POINT('',(0.0481655695235006,4.62469749600441E-5,0.012));
#2052=CARTESIAN_POINT('',(0.0481655695235006,4.62469749600441E-5,0.01325));
#2053=CARTESIAN_POINT('',(0.0477008083327055,-0.00361484303617828,0.012));
#2054=CARTESIAN_POINT('',(0.0477008083327055,-0.00361484303617828,0.01325));
#2055=CARTESIAN_POINT('',(0.0462394050223501,-0.00716296930594925,0.012));
#2056=CARTESIAN_POINT('',(0.0462394050223501,-0.00716296930594925,0.01325));
#2057=CARTESIAN_POINT('',(0.0436237299181304,-0.0103323431724847,0.012));
#2058=CARTESIAN_POINT('',(0.0436237299181304,-0.0103323431724847,0.01325));
#2059=CARTESIAN_POINT('',(0.0411151413357754,-0.0118409136608329,0.012));
#2060=CARTESIAN_POINT('',(0.0411151413357754,-0.0118409136608329,0.01325));
#2061=CARTESIAN_POINT('',(0.0397431689048964,-0.0123637188974115,0.012));
#2062=CARTESIAN_POINT('',(0.0397431689048964,-0.0123637188974115,0.01325));
#2063=MECHANICAL_DESIGN_GEOMETRIC_PRESENTATION_REPRESENTATION('',(#1174),
#2065);
#2064=MECHANICAL_DESIGN_GEOMETRIC_PRESENTATION_REPRESENTATION('',(#1175),
#2066);
#2065=(
GEOMETRIC_REPRESENTATION_CONTEXT(3)
GLOBAL_UNCERTAINTY_ASSIGNED_CONTEXT((#2067))
GLOBAL_UNIT_ASSIGNED_CONTEXT((#2073,#2071,#2069))
REPRESENTATION_CONTEXT('Clip Conductive','TOP_LEVEL_ASSEMBLY_PART')
);
#2066=(
GEOMETRIC_REPRESENTATION_CONTEXT(3)
GLOBAL_UNCERTAINTY_ASSIGNED_CONTEXT((#2068))
GLOBAL_UNIT_ASSIGNED_CONTEXT((#2074,#2072,#2070))
REPRESENTATION_CONTEXT('Clip Insulator','TOP_LEVEL_ASSEMBLY_PART')
);
#2067=UNCERTAINTY_MEASURE_WITH_UNIT(LENGTH_MEASURE(2.E-5),#2073,
'DISTANCE_ACCURACY_VALUE','Maximum Tolerance applied to model');
#2068=UNCERTAINTY_MEASURE_WITH_UNIT(LENGTH_MEASURE(2.E-5),#2074,
'DISTANCE_ACCURACY_VALUE','Maximum Tolerance applied to model');
#2069=(
NAMED_UNIT(*)
SI_UNIT($,.STERADIAN.)
SOLID_ANGLE_UNIT()
);
#2070=(
NAMED_UNIT(*)
SI_UNIT($,.STERADIAN.)
SOLID_ANGLE_UNIT()
);
#2071=(
NAMED_UNIT(*)
PLANE_ANGLE_UNIT()
SI_UNIT($,.RADIAN.)
);
#2072=(
NAMED_UNIT(*)
PLANE_ANGLE_UNIT()
SI_UNIT($,.RADIAN.)
);
#2073=(
LENGTH_UNIT()
NAMED_UNIT(*)
SI_UNIT($,.METRE.)
);
#2074=(
LENGTH_UNIT()
NAMED_UNIT(*)
SI_UNIT($,.METRE.)
);
#2075=PRODUCT_DEFINITION_SHAPE('','',#2077);
#2076=PRODUCT_DEFINITION_SHAPE('','',#2078);
#2077=PRODUCT_DEFINITION('','',#2081,#2079);
#2078=PRODUCT_DEFINITION('','',#2082,#2080);
#2079=PRODUCT_DEFINITION_CONTEXT('',#2093,'design');
#2080=PRODUCT_DEFINITION_CONTEXT('',#2094,'design');
#2081=PRODUCT_DEFINITION_FORMATION_WITH_SPECIFIED_SOURCE('','',#2085,
 .NOT_KNOWN.);
#2082=PRODUCT_DEFINITION_FORMATION_WITH_SPECIFIED_SOURCE('','',#2086,
 .NOT_KNOWN.);
#2083=PRODUCT_RELATED_PRODUCT_CATEGORY('','',(#2085));
#2084=PRODUCT_RELATED_PRODUCT_CATEGORY('','',(#2086));
#2085=PRODUCT('Clip Conductive','Clip Conductive','Clip Conductive',(#2089));
#2086=PRODUCT('Clip Insulator','Clip Insulator','Clip Insulator',(#2090));
#2087=PRODUCT_CATEGORY('','');
#2088=PRODUCT_CATEGORY('','');
#2089=PRODUCT_CONTEXT('',#2093,'mechanical');
#2090=PRODUCT_CONTEXT('',#2094,'mechanical');
#2091=APPLICATION_PROTOCOL_DEFINITION('international standard',
'ap242_managed_model_based_3d_engineering',2020,#2093);
#2092=APPLICATION_PROTOCOL_DEFINITION('international standard',
'ap242_managed_model_based_3d_engineering',2020,#2094);
#2093=APPLICATION_CONTEXT('managed model based 3d engineering');
#2094=APPLICATION_CONTEXT('managed model based 3d engineering');
ENDSEC;
END-ISO-10303-21;
