ISO-10303-21;
HEADER;
/*Generated by software containing ST-Developer
 * from STEP Tools, Inc. (www.steptools.com) 
 */
/*OPTION: using custom renumber hook */
/*description */
/*implementation_level */
FILE_DESCRIPTION(('STEP AP242 Edition 2','STEP AP242 Edition 2''CAx-IF Rec.Pracs.---Representation and Presentation of Product Manufa
cturing Information (PMI)---4.0---2014-10-13','STEP AP242 Edition 2''CAx-IF Rec.Pracs.---Representation and Presentation of Product Manufa
cturing Information (PMI)---4.0---2014-10-13''CAx-IF Rec.Pracs.---3D Tessellated Geometry---0.4---2014-09-14','STEP AP242 Edition 2''CAx-IF Rec.Pracs.---Representation and Presentation of Product Manufa
cturing Information (PMI)---4.0---2014-10-13''CAx-IF Rec.Pracs.---3D Tessellated Geometry---0.4---2014-09-14''2;1','STEP AP242 Edition 2''CAx-IF Rec.Pracs.---Representation and Presentation of Product Manufa
cturing Information (PMI)---4.0---2014-10-13''CAx-IF Rec.Pracs.---3D Tessellated Geometry---0.4---2014-09-14''2;1''CAx-IF Rec.Pracs.---User Defined Attributes---1.5---2016-08-15'),'2;1');
/*name */
/*time_stamp */
/*author */
/*organization */
/*preprocessor_version */
/*originating_system */
/*authorisation */
FILE_NAME('/vol/tmp/translate-18217373587688277775/M1 - Ring.step','2026-02-26T20:31:17',(''),(''),'ST-DEVELOPER v20','ONSHAPE BY PTC INC, 1.211','  ');
FILE_SCHEMA(('AP242_MANAGED_MODEL_BASED_3D_ENGINEERING_MIM_LF { 1 0 10303 442 3 1 4 }'));
ENDSEC;
DATA;
#10=SHAPE_REPRESENTATION_RELATIONSHIP('','',#345,#11);
#11=ADVANCED_BREP_SHAPE_REPRESENTATION('',(#343),#581);
#12=CONICAL_SURFACE('',#362,0.02,0.785398163397448);
#13=CONICAL_SURFACE('',#363,0.0187,0.78539816339745);
#14=CONICAL_SURFACE('',#367,0.0187,0.785398163397449);
#15=CONICAL_SURFACE('',#373,0.0187,0.78539816339745);
#16=CONICAL_SURFACE('',#374,0.0187,0.785398163397449);
#17=CONICAL_SURFACE('',#377,0.0207,0.785398163397448);
#18=CONICAL_SURFACE('',#378,0.023,0.785398163397448);
#19=CYLINDRICAL_SURFACE('',#351,0.0202);
#20=CYLINDRICAL_SURFACE('',#359,0.023);
#21=CYLINDRICAL_SURFACE('',#365,0.0187);
#22=CYLINDRICAL_SURFACE('',#370,0.0187);
#23=CYLINDRICAL_SURFACE('',#380,0.022);
#24=LINE('',#490,#50);
#25=LINE('',#495,#51);
#26=LINE('',#499,#52);
#27=LINE('',#504,#53);
#28=LINE('',#507,#54);
#29=LINE('',#512,#55);
#30=LINE('',#515,#56);
#31=LINE('',#520,#57);
#32=LINE('',#535,#58);
#33=LINE('',#536,#59);
#34=LINE('',#541,#60);
#35=LINE('',#542,#61);
#36=LINE('',#544,#62);
#37=LINE('',#545,#63);
#38=LINE('',#552,#64);
#39=LINE('',#556,#65);
#40=LINE('',#558,#66);
#41=LINE('',#559,#67);
#42=LINE('',#561,#68);
#43=LINE('',#562,#69);
#44=LINE('',#566,#70);
#45=LINE('',#567,#71);
#46=LINE('',#570,#72);
#47=LINE('',#572,#73);
#48=LINE('',#576,#74);
#49=LINE('',#578,#75);
#50=VECTOR('',#390,1.);
#51=VECTOR('',#393,1.);
#52=VECTOR('',#398,1.);
#53=VECTOR('',#401,1.);
#54=VECTOR('',#404,1.);
#55=VECTOR('',#407,1.);
#56=VECTOR('',#410,1.);
#57=VECTOR('',#413,1.);
#58=VECTOR('',#430,1.);
#59=VECTOR('',#431,1.);
#60=VECTOR('',#436,1.);
#61=VECTOR('',#437,1.);
#62=VECTOR('',#440,1.);
#63=VECTOR('',#441,1.);
#64=VECTOR('',#450,1.);
#65=VECTOR('',#453,1.);
#66=VECTOR('',#456,1.);
#67=VECTOR('',#457,1.);
#68=VECTOR('',#460,1.);
#69=VECTOR('',#461,1.);
#70=VECTOR('',#468,1.);
#71=VECTOR('',#469,1.);
#72=VECTOR('',#474,1.);
#73=VECTOR('',#475,1.);
#74=VECTOR('',#480,1.);
#75=VECTOR('',#483,1.);
#76=ORIENTED_EDGE('',*,*,#162,.T.);
#77=ORIENTED_EDGE('',*,*,#163,.F.);
#78=ORIENTED_EDGE('',*,*,#164,.T.);
#79=ORIENTED_EDGE('',*,*,#165,.F.);
#80=ORIENTED_EDGE('',*,*,#166,.T.);
#81=ORIENTED_EDGE('',*,*,#167,.F.);
#82=ORIENTED_EDGE('',*,*,#168,.T.);
#83=ORIENTED_EDGE('',*,*,#169,.F.);
#84=ORIENTED_EDGE('',*,*,#170,.F.);
#85=ORIENTED_EDGE('',*,*,#171,.F.);
#86=ORIENTED_EDGE('',*,*,#172,.T.);
#87=ORIENTED_EDGE('',*,*,#173,.T.);
#88=ORIENTED_EDGE('',*,*,#174,.F.);
#89=ORIENTED_EDGE('',*,*,#175,.F.);
#90=ORIENTED_EDGE('',*,*,#176,.T.);
#91=ORIENTED_EDGE('',*,*,#177,.T.);
#92=ORIENTED_EDGE('',*,*,#178,.F.);
#93=ORIENTED_EDGE('',*,*,#179,.T.);
#94=ORIENTED_EDGE('',*,*,#180,.T.);
#95=ORIENTED_EDGE('',*,*,#181,.T.);
#96=ORIENTED_EDGE('',*,*,#181,.F.);
#97=ORIENTED_EDGE('',*,*,#179,.F.);
#98=ORIENTED_EDGE('',*,*,#182,.F.);
#99=ORIENTED_EDGE('',*,*,#183,.T.);
#100=ORIENTED_EDGE('',*,*,#178,.T.);
#101=ORIENTED_EDGE('',*,*,#184,.F.);
#102=ORIENTED_EDGE('',*,*,#185,.F.);
#103=ORIENTED_EDGE('',*,*,#186,.F.);
#104=ORIENTED_EDGE('',*,*,#182,.T.);
#105=ORIENTED_EDGE('',*,*,#187,.T.);
#106=ORIENTED_EDGE('',*,*,#188,.F.);
#107=ORIENTED_EDGE('',*,*,#185,.T.);
#108=ORIENTED_EDGE('',*,*,#189,.T.);
#109=ORIENTED_EDGE('',*,*,#176,.F.);
#110=ORIENTED_EDGE('',*,*,#175,.T.);
#111=ORIENTED_EDGE('',*,*,#183,.F.);
#112=ORIENTED_EDGE('',*,*,#186,.T.);
#113=ORIENTED_EDGE('',*,*,#188,.T.);
#114=ORIENTED_EDGE('',*,*,#177,.F.);
#115=ORIENTED_EDGE('',*,*,#189,.F.);
#116=ORIENTED_EDGE('',*,*,#187,.F.);
#117=ORIENTED_EDGE('',*,*,#184,.T.);
#118=ORIENTED_EDGE('',*,*,#190,.T.);
#119=ORIENTED_EDGE('',*,*,#191,.T.);
#120=ORIENTED_EDGE('',*,*,#192,.F.);
#121=ORIENTED_EDGE('',*,*,#193,.F.);
#122=ORIENTED_EDGE('',*,*,#174,.T.);
#123=ORIENTED_EDGE('',*,*,#194,.F.);
#124=ORIENTED_EDGE('',*,*,#190,.F.);
#125=ORIENTED_EDGE('',*,*,#195,.T.);
#126=ORIENTED_EDGE('',*,*,#196,.F.);
#127=ORIENTED_EDGE('',*,*,#192,.T.);
#128=ORIENTED_EDGE('',*,*,#197,.T.);
#129=ORIENTED_EDGE('',*,*,#172,.F.);
#130=ORIENTED_EDGE('',*,*,#193,.T.);
#131=ORIENTED_EDGE('',*,*,#196,.T.);
#132=ORIENTED_EDGE('',*,*,#171,.T.);
#133=ORIENTED_EDGE('',*,*,#195,.F.);
#134=ORIENTED_EDGE('',*,*,#191,.F.);
#135=ORIENTED_EDGE('',*,*,#194,.T.);
#136=ORIENTED_EDGE('',*,*,#173,.F.);
#137=ORIENTED_EDGE('',*,*,#197,.F.);
#138=ORIENTED_EDGE('',*,*,#198,.F.);
#139=ORIENTED_EDGE('',*,*,#164,.F.);
#140=ORIENTED_EDGE('',*,*,#199,.F.);
#141=ORIENTED_EDGE('',*,*,#168,.F.);
#142=ORIENTED_EDGE('',*,*,#162,.F.);
#143=ORIENTED_EDGE('',*,*,#180,.F.);
#144=ORIENTED_EDGE('',*,*,#167,.T.);
#145=ORIENTED_EDGE('',*,*,#200,.F.);
#146=ORIENTED_EDGE('',*,*,#201,.T.);
#147=ORIENTED_EDGE('',*,*,#165,.T.);
#148=ORIENTED_EDGE('',*,*,#198,.T.);
#149=ORIENTED_EDGE('',*,*,#166,.F.);
#150=ORIENTED_EDGE('',*,*,#201,.F.);
#151=ORIENTED_EDGE('',*,*,#202,.T.);
#152=ORIENTED_EDGE('',*,*,#203,.T.);
#153=ORIENTED_EDGE('',*,*,#169,.T.);
#154=ORIENTED_EDGE('',*,*,#199,.T.);
#155=ORIENTED_EDGE('',*,*,#163,.T.);
#156=ORIENTED_EDGE('',*,*,#203,.F.);
#157=ORIENTED_EDGE('',*,*,#204,.F.);
#158=ORIENTED_EDGE('',*,*,#170,.T.);
#159=ORIENTED_EDGE('',*,*,#204,.T.);
#160=ORIENTED_EDGE('',*,*,#202,.F.);
#161=ORIENTED_EDGE('',*,*,#200,.T.);
#162=EDGE_CURVE('',#205,#205,#235,.F.);
#163=EDGE_CURVE('',#206,#207,#24,.T.);
#164=EDGE_CURVE('',#206,#208,#236,.T.);
#165=EDGE_CURVE('',#209,#208,#25,.T.);
#166=EDGE_CURVE('',#209,#207,#237,.T.);
#167=EDGE_CURVE('',#210,#211,#26,.F.);
#168=EDGE_CURVE('',#210,#212,#238,.F.);
#169=EDGE_CURVE('',#213,#212,#27,.T.);
#170=EDGE_CURVE('',#211,#213,#239,.T.);
#171=EDGE_CURVE('',#214,#215,#28,.T.);
#172=EDGE_CURVE('',#214,#216,#240,.T.);
#173=EDGE_CURVE('',#216,#217,#29,.T.);
#174=EDGE_CURVE('',#215,#217,#241,.T.);
#175=EDGE_CURVE('',#218,#219,#30,.T.);
#176=EDGE_CURVE('',#218,#220,#242,.T.);
#177=EDGE_CURVE('',#220,#221,#31,.T.);
#178=EDGE_CURVE('',#219,#221,#243,.T.);
#179=EDGE_CURVE('',#222,#222,#244,.F.);
#180=EDGE_CURVE('',#223,#223,#245,.T.);
#181=EDGE_CURVE('',#224,#224,#246,.F.);
#182=EDGE_CURVE('',#225,#226,#247,.T.);
#183=EDGE_CURVE('',#225,#219,#32,.T.);
#184=EDGE_CURVE('',#226,#221,#33,.T.);
#185=EDGE_CURVE('',#227,#228,#248,.T.);
#186=EDGE_CURVE('',#225,#227,#34,.T.);
#187=EDGE_CURVE('',#226,#228,#35,.T.);
#188=EDGE_CURVE('',#227,#218,#36,.T.);
#189=EDGE_CURVE('',#228,#220,#37,.T.);
#190=EDGE_CURVE('',#229,#230,#249,.T.);
#191=EDGE_CURVE('',#230,#231,#38,.T.);
#192=EDGE_CURVE('',#232,#231,#250,.T.);
#193=EDGE_CURVE('',#229,#232,#39,.T.);
#194=EDGE_CURVE('',#230,#217,#40,.T.);
#195=EDGE_CURVE('',#229,#215,#41,.T.);
#196=EDGE_CURVE('',#232,#214,#42,.T.);
#197=EDGE_CURVE('',#231,#216,#43,.T.);
#198=EDGE_CURVE('',#208,#210,#44,.T.);
#199=EDGE_CURVE('',#212,#206,#45,.T.);
#200=EDGE_CURVE('',#233,#211,#46,.T.);
#201=EDGE_CURVE('',#233,#209,#47,.T.);
#202=EDGE_CURVE('',#233,#234,#251,.T.);
#203=EDGE_CURVE('',#234,#207,#48,.T.);
#204=EDGE_CURVE('',#213,#234,#49,.T.);
#205=VERTEX_POINT('',#489);
#206=VERTEX_POINT('',#491);
#207=VERTEX_POINT('',#492);
#208=VERTEX_POINT('',#494);
#209=VERTEX_POINT('',#496);
#210=VERTEX_POINT('',#500);
#211=VERTEX_POINT('',#501);
#212=VERTEX_POINT('',#503);
#213=VERTEX_POINT('',#505);
#214=VERTEX_POINT('',#508);
#215=VERTEX_POINT('',#509);
#216=VERTEX_POINT('',#511);
#217=VERTEX_POINT('',#513);
#218=VERTEX_POINT('',#516);
#219=VERTEX_POINT('',#517);
#220=VERTEX_POINT('',#519);
#221=VERTEX_POINT('',#521);
#222=VERTEX_POINT('',#524);
#223=VERTEX_POINT('',#527);
#224=VERTEX_POINT('',#529);
#225=VERTEX_POINT('',#533);
#226=VERTEX_POINT('',#534);
#227=VERTEX_POINT('',#539);
#228=VERTEX_POINT('',#540);
#229=VERTEX_POINT('',#550);
#230=VERTEX_POINT('',#551);
#231=VERTEX_POINT('',#553);
#232=VERTEX_POINT('',#555);
#233=VERTEX_POINT('',#571);
#234=VERTEX_POINT('',#575);
#235=CIRCLE('',#348,0.0225);
#236=CIRCLE('',#349,0.0207);
#237=CIRCLE('',#350,0.022);
#238=CIRCLE('',#352,0.0202);
#239=CIRCLE('',#353,0.0202);
#240=CIRCLE('',#354,0.0202);
#241=CIRCLE('',#355,0.0202);
#242=CIRCLE('',#356,0.0202);
#243=CIRCLE('',#357,0.0202);
#244=CIRCLE('',#358,0.0202);
#245=CIRCLE('',#360,0.023);
#246=CIRCLE('',#361,0.023);
#247=CIRCLE('',#364,0.0187);
#248=CIRCLE('',#366,0.0187);
#249=CIRCLE('',#371,0.0187);
#250=CIRCLE('',#372,0.0187);
#251=CIRCLE('',#381,0.022);
#252=EDGE_LOOP('',(#76));
#253=EDGE_LOOP('',(#77,#78,#79,#80));
#254=EDGE_LOOP('',(#81,#82,#83,#84));
#255=EDGE_LOOP('',(#85,#86,#87,#88));
#256=EDGE_LOOP('',(#89,#90,#91,#92));
#257=EDGE_LOOP('',(#93));
#258=EDGE_LOOP('',(#94));
#259=EDGE_LOOP('',(#95));
#260=EDGE_LOOP('',(#96));
#261=EDGE_LOOP('',(#97));
#262=EDGE_LOOP('',(#98,#99,#100,#101));
#263=EDGE_LOOP('',(#102,#103,#104,#105));
#264=EDGE_LOOP('',(#106,#107,#108,#109));
#265=EDGE_LOOP('',(#110,#111,#112,#113));
#266=EDGE_LOOP('',(#114,#115,#116,#117));
#267=EDGE_LOOP('',(#118,#119,#120,#121));
#268=EDGE_LOOP('',(#122,#123,#124,#125));
#269=EDGE_LOOP('',(#126,#127,#128,#129));
#270=EDGE_LOOP('',(#130,#131,#132,#133));
#271=EDGE_LOOP('',(#134,#135,#136,#137));
#272=EDGE_LOOP('',(#138,#139,#140,#141));
#273=EDGE_LOOP('',(#142));
#274=EDGE_LOOP('',(#143));
#275=EDGE_LOOP('',(#144,#145,#146,#147,#148));
#276=EDGE_LOOP('',(#149,#150,#151,#152));
#277=EDGE_LOOP('',(#153,#154,#155,#156,#157));
#278=EDGE_LOOP('',(#158,#159,#160,#161));
#279=FACE_BOUND('',#252,.T.);
#280=FACE_BOUND('',#253,.T.);
#281=FACE_BOUND('',#254,.T.);
#282=FACE_BOUND('',#255,.T.);
#283=FACE_BOUND('',#256,.T.);
#284=FACE_BOUND('',#257,.T.);
#285=FACE_BOUND('',#258,.T.);
#286=FACE_BOUND('',#259,.T.);
#287=FACE_BOUND('',#260,.T.);
#288=FACE_BOUND('',#261,.T.);
#289=FACE_BOUND('',#262,.T.);
#290=FACE_BOUND('',#263,.T.);
#291=FACE_BOUND('',#264,.T.);
#292=FACE_BOUND('',#265,.T.);
#293=FACE_BOUND('',#266,.T.);
#294=FACE_BOUND('',#267,.T.);
#295=FACE_BOUND('',#268,.T.);
#296=FACE_BOUND('',#269,.T.);
#297=FACE_BOUND('',#270,.T.);
#298=FACE_BOUND('',#271,.T.);
#299=FACE_BOUND('',#272,.T.);
#300=FACE_BOUND('',#273,.T.);
#301=FACE_BOUND('',#274,.T.);
#302=FACE_BOUND('',#275,.T.);
#303=FACE_BOUND('',#276,.T.);
#304=FACE_BOUND('',#277,.T.);
#305=FACE_BOUND('',#278,.T.);
#306=PLANE('',#347);
#307=PLANE('',#368);
#308=PLANE('',#369);
#309=PLANE('',#375);
#310=PLANE('',#376);
#311=PLANE('',#379);
#312=PLANE('',#382);
#313=PLANE('',#383);
#314=ADVANCED_FACE('',(#279,#280),#306,.F.);
#315=ADVANCED_FACE('',(#281,#282,#283,#284),#19,.F.);
#316=ADVANCED_FACE('',(#285,#286),#20,.T.);
#317=ADVANCED_FACE('',(#287,#288),#12,.T.);
#318=ADVANCED_FACE('',(#289),#13,.F.);
#319=ADVANCED_FACE('',(#290),#21,.F.);
#320=ADVANCED_FACE('',(#291),#14,.F.);
#321=ADVANCED_FACE('',(#292),#307,.T.);
#322=ADVANCED_FACE('',(#293),#308,.F.);
#323=ADVANCED_FACE('',(#294),#22,.F.);
#324=ADVANCED_FACE('',(#295),#15,.F.);
#325=ADVANCED_FACE('',(#296),#16,.F.);
#326=ADVANCED_FACE('',(#297),#309,.F.);
#327=ADVANCED_FACE('',(#298),#310,.T.);
#328=ADVANCED_FACE('',(#299),#17,.F.);
#329=ADVANCED_FACE('',(#300,#301),#18,.T.);
#330=ADVANCED_FACE('',(#302),#311,.F.);
#331=ADVANCED_FACE('',(#303),#23,.F.);
#332=ADVANCED_FACE('',(#304),#312,.F.);
#333=ADVANCED_FACE('',(#305),#313,.F.);
#334=CLOSED_SHELL('',(#314,#315,#316,#317,#318,#319,#320,#321,#322,#323,#324,#325,#326,#327,#328,#329,#330,#331,#332,#333));
#335=STYLED_ITEM('',(#336),#343);
#336=PRESENTATION_STYLE_ASSIGNMENT((#337));
#337=SURFACE_STYLE_USAGE(.BOTH.,#338);
#338=SURFACE_SIDE_STYLE('',(#339));
#339=SURFACE_STYLE_FILL_AREA(#340);
#340=FILL_AREA_STYLE('',(#341));
#341=FILL_AREA_STYLE_COLOUR('',#342);
#342=COLOUR_RGB('',0.917647058823529,0.917647058823529,0.917647058823529);
#343=MANIFOLD_SOLID_BREP('Ring',#334);
#344=SHAPE_DEFINITION_REPRESENTATION(#586,#345);
#345=SHAPE_REPRESENTATION('Ring',(#346),#581);
#346=AXIS2_PLACEMENT_3D('',#486,#384,#385);
#347=AXIS2_PLACEMENT_3D('',#487,#386,#387);
#348=AXIS2_PLACEMENT_3D('',#488,#388,#389);
#349=AXIS2_PLACEMENT_3D('',#493,#391,#392);
#350=AXIS2_PLACEMENT_3D('',#497,#394,#395);
#351=AXIS2_PLACEMENT_3D('',#498,#396,#397);
#352=AXIS2_PLACEMENT_3D('',#502,#399,#400);
#353=AXIS2_PLACEMENT_3D('',#506,#402,#403);
#354=AXIS2_PLACEMENT_3D('',#510,#405,#406);
#355=AXIS2_PLACEMENT_3D('',#514,#408,#409);
#356=AXIS2_PLACEMENT_3D('',#518,#411,#412);
#357=AXIS2_PLACEMENT_3D('',#522,#414,#415);
#358=AXIS2_PLACEMENT_3D('',#523,#416,#417);
#359=AXIS2_PLACEMENT_3D('',#525,#418,#419);
#360=AXIS2_PLACEMENT_3D('',#526,#420,#421);
#361=AXIS2_PLACEMENT_3D('',#528,#422,#423);
#362=AXIS2_PLACEMENT_3D('',#530,#424,#425);
#363=AXIS2_PLACEMENT_3D('',#531,#426,#427);
#364=AXIS2_PLACEMENT_3D('',#532,#428,#429);
#365=AXIS2_PLACEMENT_3D('',#537,#432,#433);
#366=AXIS2_PLACEMENT_3D('',#538,#434,#435);
#367=AXIS2_PLACEMENT_3D('',#543,#438,#439);
#368=AXIS2_PLACEMENT_3D('',#546,#442,#443);
#369=AXIS2_PLACEMENT_3D('',#547,#444,#445);
#370=AXIS2_PLACEMENT_3D('',#548,#446,#447);
#371=AXIS2_PLACEMENT_3D('',#549,#448,#449);
#372=AXIS2_PLACEMENT_3D('',#554,#451,#452);
#373=AXIS2_PLACEMENT_3D('',#557,#454,#455);
#374=AXIS2_PLACEMENT_3D('',#560,#458,#459);
#375=AXIS2_PLACEMENT_3D('',#563,#462,#463);
#376=AXIS2_PLACEMENT_3D('',#564,#464,#465);
#377=AXIS2_PLACEMENT_3D('',#565,#466,#467);
#378=AXIS2_PLACEMENT_3D('',#568,#470,#471);
#379=AXIS2_PLACEMENT_3D('',#569,#472,#473);
#380=AXIS2_PLACEMENT_3D('',#573,#476,#477);
#381=AXIS2_PLACEMENT_3D('',#574,#478,#479);
#382=AXIS2_PLACEMENT_3D('',#577,#481,#482);
#383=AXIS2_PLACEMENT_3D('',#579,#484,#485);
#384=DIRECTION('',(0.,0.,1.));
#385=DIRECTION('',(1.,0.,0.));
#386=DIRECTION('',(0.,0.,1.));
#387=DIRECTION('',(1.,0.,0.));
#388=DIRECTION('',(0.,0.,1.));
#389=DIRECTION('',(1.,0.,0.));
#390=DIRECTION('',(0.,-1.,0.));
#391=DIRECTION('',(0.,0.,1.));
#392=DIRECTION('',(1.,0.,0.));
#393=DIRECTION('',(0.224951054343865,0.974370064785235,0.));
#394=DIRECTION('',(0.,0.,1.));
#395=DIRECTION('',(1.,0.,0.));
#396=DIRECTION('',(0.,0.,-1.));
#397=DIRECTION('',(-1.,0.,0.));
#398=DIRECTION('',(0.,0.,-1.));
#399=DIRECTION('',(0.,0.,1.));
#400=DIRECTION('',(1.,0.,0.));
#401=DIRECTION('',(0.,0.,-1.));
#402=DIRECTION('',(0.,0.,1.));
#403=DIRECTION('',(1.,0.,0.));
#404=DIRECTION('',(0.,0.,1.));
#405=DIRECTION('',(0.,0.,1.));
#406=DIRECTION('',(1.,0.,0.));
#407=DIRECTION('',(0.,0.,1.));
#408=DIRECTION('',(0.,0.,1.));
#409=DIRECTION('',(1.,0.,0.));
#410=DIRECTION('',(0.,0.,1.));
#411=DIRECTION('',(0.,0.,1.));
#412=DIRECTION('',(1.,0.,0.));
#413=DIRECTION('',(0.,0.,1.));
#414=DIRECTION('',(0.,0.,1.));
#415=DIRECTION('',(1.,0.,0.));
#416=DIRECTION('',(0.,0.,-1.));
#417=DIRECTION('',(-1.,0.,0.));
#418=DIRECTION('',(0.,0.,-1.));
#419=DIRECTION('',(-1.,0.,0.));
#420=DIRECTION('',(0.,0.,1.));
#421=DIRECTION('',(1.,0.,0.));
#422=DIRECTION('',(0.,0.,1.));
#423=DIRECTION('',(1.,0.,0.));
#424=DIRECTION('',(0.,0.,-1.));
#425=DIRECTION('',(-1.,0.,0.));
#426=DIRECTION('',(0.,0.,1.));
#427=DIRECTION('',(1.,0.,0.));
#428=DIRECTION('',(0.,0.,1.));
#429=DIRECTION('',(1.,0.,0.));
#430=DIRECTION('',(-0.593029645775783,-0.385117954958023,0.707106781186548));
#431=DIRECTION('',(-0.5,-0.5,0.707106781186548));
#432=DIRECTION('',(0.,0.,1.));
#433=DIRECTION('',(1.,0.,0.));
#434=DIRECTION('',(0.,0.,1.));
#435=DIRECTION('',(1.,0.,0.));
#436=DIRECTION('',(0.,0.,-1.));
#437=DIRECTION('',(0.,0.,-1.));
#438=DIRECTION('',(0.,0.,-1.));
#439=DIRECTION('',(-1.,0.,0.));
#440=DIRECTION('',(-0.593029645775782,-0.385117954958023,-0.707106781186548));
#441=DIRECTION('',(-0.5,-0.5,-0.707106781186548));
#442=DIRECTION('',(-0.544639035015027,0.838670567945424,0.));
#443=DIRECTION('',(-0.838670567945424,-0.544639035015027,0.));
#444=DIRECTION('',(-0.707106781186547,0.707106781186548,0.));
#445=DIRECTION('',(-0.707106781186548,-0.707106781186547,0.));
#446=DIRECTION('',(0.,0.,1.));
#447=DIRECTION('',(1.,0.,0.));
#448=DIRECTION('',(0.,0.,1.));
#449=DIRECTION('',(1.,0.,0.));
#450=DIRECTION('',(0.,0.,-1.));
#451=DIRECTION('',(0.,0.,1.));
#452=DIRECTION('',(1.,0.,0.));
#453=DIRECTION('',(0.,0.,-1.));
#454=DIRECTION('',(0.,0.,1.));
#455=DIRECTION('',(1.,0.,0.));
#456=DIRECTION('',(0.5,0.5,0.707106781186548));
#457=DIRECTION('',(0.593029645775783,0.385117954958023,0.707106781186548));
#458=DIRECTION('',(0.,0.,-1.));
#459=DIRECTION('',(-1.,0.,0.));
#460=DIRECTION('',(0.593029645775783,0.385117954958023,-0.707106781186548));
#461=DIRECTION('',(0.5,0.5,-0.707106781186548));
#462=DIRECTION('',(-0.544639035015027,0.838670567945424,0.));
#463=DIRECTION('',(-0.838670567945424,-0.544639035015027,0.));
#464=DIRECTION('',(-0.707106781186547,0.707106781186548,0.));
#465=DIRECTION('',(-0.707106781186548,-0.707106781186547,0.));
#466=DIRECTION('',(0.,0.,-1.));
#467=DIRECTION('',(-1.,0.,0.));
#468=DIRECTION('',(0.159064415961611,0.688983680194816,0.707106781186548));
#469=DIRECTION('',(0.,-0.707106781186548,-0.707106781186548));
#470=DIRECTION('',(0.,0.,1.));
#471=DIRECTION('',(1.,0.,0.));
#472=DIRECTION('',(-0.974370064785235,0.224951054343865,0.));
#473=DIRECTION('',(-0.224951054343865,-0.974370064785235,0.));
#474=DIRECTION('',(0.224951054343865,0.974370064785235,0.));
#475=DIRECTION('',(0.,0.,-1.));
#476=DIRECTION('',(0.,0.,-1.));
#477=DIRECTION('',(-1.,0.,0.));
#478=DIRECTION('',(0.,0.,1.));
#479=DIRECTION('',(1.,0.,0.));
#480=DIRECTION('',(0.,0.,-1.));
#481=DIRECTION('',(1.,0.,0.));
#482=DIRECTION('',(0.,0.,-1.));
#483=DIRECTION('',(0.,-1.,0.));
#484=DIRECTION('',(0.,0.,1.));
#485=DIRECTION('',(1.,0.,0.));
#486=CARTESIAN_POINT('',(0.,0.,0.));
#487=CARTESIAN_POINT('',(0.,0.,0.));
#488=CARTESIAN_POINT('',(0.,1.40834381901946E-18,0.));
#489=CARTESIAN_POINT('',(0.0225,1.40834381901946E-18,0.));
#490=CARTESIAN_POINT('',(0.,-0.021,0.));
#491=CARTESIAN_POINT('',(0.,-0.0207,0.));
#492=CARTESIAN_POINT('',(-4.04133443718626E-18,-0.022,0.));
#493=CARTESIAN_POINT('',(0.,1.23689326713883E-18,0.));
#494=CARTESIAN_POINT('',(-0.004656486824918,-0.0201694603410544,0.));
#495=CARTESIAN_POINT('',(-0.00355422665863307,-0.0153950470236067,0.));
#496=CARTESIAN_POINT('',(-0.00494892319556504,-0.0214361414252752,0.));
#497=CARTESIAN_POINT('',(-4.18907156356414E-18,1.6306400674182E-16,0.));
#498=CARTESIAN_POINT('',(0.,1.23689326713883E-18,0.01));
#499=CARTESIAN_POINT('',(-0.00454401129774607,-0.0196822753086617,0.01));
#500=CARTESIAN_POINT('',(-0.00454401129774607,-0.0196822753086617,0.0005));
#501=CARTESIAN_POINT('',(-0.00454401129774607,-0.0196822753086617,0.001));
#502=CARTESIAN_POINT('',(0.,1.23689326713883E-18,0.0005));
#503=CARTESIAN_POINT('',(0.,-0.0202,0.0005));
#504=CARTESIAN_POINT('',(0.,-0.0202,0.01));
#505=CARTESIAN_POINT('',(0.,-0.0202,0.001));
#506=CARTESIAN_POINT('',(0.,1.23689326713883E-18,0.001));
#507=CARTESIAN_POINT('',(0.0169411454724975,0.0110017085073035,0.0045));
#508=CARTESIAN_POINT('',(0.0169411454724975,0.0110017085073035,0.003));
#509=CARTESIAN_POINT('',(0.0169411454724975,0.0110017085073035,0.009));
#510=CARTESIAN_POINT('',(0.,0.,0.003));
#511=CARTESIAN_POINT('',(0.0142835569799683,0.0142835569799683,0.003));
#512=CARTESIAN_POINT('',(0.0142835569799683,0.0142835569799683,0.0045));
#513=CARTESIAN_POINT('',(0.0142835569799683,0.0142835569799683,0.009));
#514=CARTESIAN_POINT('',(0.,0.,0.009));
#515=CARTESIAN_POINT('',(-0.0169411454724975,-0.0110017085073035,0.0045));
#516=CARTESIAN_POINT('',(-0.0169411454724975,-0.0110017085073035,0.003));
#517=CARTESIAN_POINT('',(-0.0169411454724976,-0.0110017085073035,0.009));
#518=CARTESIAN_POINT('',(0.,0.,0.003));
#519=CARTESIAN_POINT('',(-0.0142835569799683,-0.0142835569799683,0.003));
#520=CARTESIAN_POINT('',(-0.0142835569799683,-0.0142835569799683,0.0045));
#521=CARTESIAN_POINT('',(-0.0142835569799683,-0.0142835569799683,0.009));
#522=CARTESIAN_POINT('',(0.,0.,0.009));
#523=CARTESIAN_POINT('',(0.,1.40834381901946E-18,0.0098));
#524=CARTESIAN_POINT('',(-0.0202,1.40834381901946E-18,0.0098));
#525=CARTESIAN_POINT('',(0.,1.40834381901946E-18,0.01));
#526=CARTESIAN_POINT('',(0.,1.40834381901946E-18,0.0005));
#527=CARTESIAN_POINT('',(0.023,1.40834381901946E-18,0.0005));
#528=CARTESIAN_POINT('',(0.,1.40834381901946E-18,0.007));
#529=CARTESIAN_POINT('',(0.023,1.40834381901946E-18,0.007));
#530=CARTESIAN_POINT('',(0.,1.40834381901946E-18,0.01));
#531=CARTESIAN_POINT('',(0.,0.,0.0075));
#532=CARTESIAN_POINT('',(0.,0.,0.0075));
#533=CARTESIAN_POINT('',(-0.0156831396205795,-0.010184749954781,0.0075));
#534=CARTESIAN_POINT('',(-0.0132228968081884,-0.0132228968081884,0.0075));
#535=CARTESIAN_POINT('',(-0.0163121425465385,-0.0105932292310423,0.00825));
#536=CARTESIAN_POINT('',(-0.0137532268940784,-0.0137532268940783,0.00825));
#537=CARTESIAN_POINT('',(0.,0.,0.0025));
#538=CARTESIAN_POINT('',(0.,0.,0.0045));
#539=CARTESIAN_POINT('',(-0.0156831396205795,-0.010184749954781,0.0045));
#540=CARTESIAN_POINT('',(-0.0132228968081884,-0.0132228968081884,0.0045));
#541=CARTESIAN_POINT('',(-0.0156831396205795,-0.010184749954781,0.00525));
#542=CARTESIAN_POINT('',(-0.0132228968081884,-0.0132228968081884,0.00525));
#543=CARTESIAN_POINT('',(0.,0.,0.0045));
#544=CARTESIAN_POINT('',(-0.0163121425465385,-0.0105932292310423,0.00375));
#545=CARTESIAN_POINT('',(-0.0137532268940784,-0.0137532268940783,0.00375));
#546=CARTESIAN_POINT('',(0.,0.,0.005));
#547=CARTESIAN_POINT('',(0.,0.,0.005));
#548=CARTESIAN_POINT('',(0.,0.,0.0025));
#549=CARTESIAN_POINT('',(0.,0.,0.0075));
#550=CARTESIAN_POINT('',(0.0156831396205795,0.010184749954781,0.0075));
#551=CARTESIAN_POINT('',(0.0132228968081884,0.0132228968081884,0.0075));
#552=CARTESIAN_POINT('',(0.0132228968081884,0.0132228968081884,0.00525));
#553=CARTESIAN_POINT('',(0.0132228968081884,0.0132228968081884,0.0045));
#554=CARTESIAN_POINT('',(0.,0.,0.0045));
#555=CARTESIAN_POINT('',(0.0156831396205795,0.010184749954781,0.0045));
#556=CARTESIAN_POINT('',(0.0156831396205795,0.010184749954781,0.00525));
#557=CARTESIAN_POINT('',(0.,0.,0.0075));
#558=CARTESIAN_POINT('',(0.0137532268940784,0.0137532268940783,0.00825));
#559=CARTESIAN_POINT('',(0.0163121425465385,0.0105932292310423,0.00825));
#560=CARTESIAN_POINT('',(0.,0.,0.0045));
#561=CARTESIAN_POINT('',(0.0163121425465385,0.0105932292310423,0.00375));
#562=CARTESIAN_POINT('',(0.0137532268940784,0.0137532268940783,0.00375));
#563=CARTESIAN_POINT('',(0.,0.,0.005));
#564=CARTESIAN_POINT('',(0.,0.,0.005));
#565=CARTESIAN_POINT('',(0.,1.23689326713883E-18,0.));
#566=CARTESIAN_POINT('',(3.38052525134398E-18,4.56437517306752E-19,0.0207));
#567=CARTESIAN_POINT('',(0.,1.23689326713883E-18,0.0207));
#568=CARTESIAN_POINT('',(0.,1.40834381901946E-18,0.0005));
#569=CARTESIAN_POINT('',(-0.00355422665863307,-0.0153950470236067,0.001));
#570=CARTESIAN_POINT('',(-0.00355422665863307,-0.0153950470236067,0.001));
#571=CARTESIAN_POINT('',(-0.00494892319556504,-0.0214361414252752,0.001));
#572=CARTESIAN_POINT('',(-0.00494892319556504,-0.0214361414252752,0.001));
#573=CARTESIAN_POINT('',(-4.18907156356414E-18,1.6306400674182E-16,0.001));
#574=CARTESIAN_POINT('',(-4.18907156356414E-18,1.6306400674182E-16,0.001));
#575=CARTESIAN_POINT('',(-4.04133443718626E-18,-0.022,0.001));
#576=CARTESIAN_POINT('',(-4.04133443718626E-18,-0.022,0.001));
#577=CARTESIAN_POINT('',(0.,-0.021,0.001));
#578=CARTESIAN_POINT('',(0.,-0.021,0.001));
#579=CARTESIAN_POINT('',(0.,0.,0.001));
#580=MECHANICAL_DESIGN_GEOMETRIC_PRESENTATION_REPRESENTATION('',(#335),#581);
#581=(
GEOMETRIC_REPRESENTATION_CONTEXT(3)
GLOBAL_UNCERTAINTY_ASSIGNED_CONTEXT((#582))
GLOBAL_UNIT_ASSIGNED_CONTEXT((#585,#584,#583))
REPRESENTATION_CONTEXT('Ring','TOP_LEVEL_ASSEMBLY_PART')
);
#582=UNCERTAINTY_MEASURE_WITH_UNIT(LENGTH_MEASURE(1.E-08),#585,'DISTANCE_ACCURACY_VALUE','Maximum Tolerance applied to model');
#583=(
NAMED_UNIT(*)
SI_UNIT($,.STERADIAN.)
SOLID_ANGLE_UNIT()
);
#584=(
NAMED_UNIT(*)
PLANE_ANGLE_UNIT()
SI_UNIT($,.RADIAN.)
);
#585=(
LENGTH_UNIT()
NAMED_UNIT(*)
SI_UNIT($,.METRE.)
);
#586=PRODUCT_DEFINITION_SHAPE('','',#587);
#587=PRODUCT_DEFINITION('','',#589,#588);
#588=PRODUCT_DEFINITION_CONTEXT('',#595,'design');
#589=PRODUCT_DEFINITION_FORMATION_WITH_SPECIFIED_SOURCE('','',#591,.NOT_KNOWN.);
#590=PRODUCT_RELATED_PRODUCT_CATEGORY('','',(#591));
#591=PRODUCT('Ring','Ring','Ring',(#593));
#592=PRODUCT_CATEGORY('','');
#593=PRODUCT_CONTEXT('',#595,'mechanical');
#594=APPLICATION_PROTOCOL_DEFINITION('international standard','ap242_managed_model_based_3d_engineering',2020,#595);
#595=APPLICATION_CONTEXT('managed model based 3d engineering');
ENDSEC;
END-ISO-10303-21;
